0
SECTION
2
HEADER
9
$INSUNITS
70
4
9
$ACADVER
1
AC1014
9
$HANDSEED
5
FFFF
0
ENDSEC
0
SECTION
2
TABLES
0
TABLE
2
VPORT
5
8
100
AcDbSymbolTable
0
ENDTAB
0
TABLE
2
LTYPE
5
5
100
AcDbSymbolTable
0
LTYPE
5
14
100
AcDbSymbolTableRecord
100
AcDbLinetypeTableRecord
2
BYBLOCK
70
0
0
LTYPE
5
15
100
AcDbSymbolTableRecord
100
AcDbLinetypeTableRecord
2
BYLAYER
70
0
0
ENDTAB
0
TABLE
2
LAYER
5
2
100
AcDbSymbolTable
70
2
0
LAYER
5
50
100
AcDbSymbolTableRecord
100
AcDbLayerTableRecord
2
0
70
0
6
CONTINUOUS
0
ENDTAB
0
TABLE
2
STYLE
5
3
100
AcDbSymbolTable
70
1
0
STYLE
5
11
100
AcDbSymbolTableRecord
100
AcDbTextStyleTableRecord
2
STANDARD
70
0
0
ENDTAB
0
TABLE
2
VIEW
5
6
100
AcDbSymbolTable
70
0
0
ENDTAB
0
TABLE
2
UCS
5
7
100
AcDbSymbolTable
70
0
0
ENDTAB
0
TABLE
2
APPID
5
9
100
AcDbSymbolTable
70
2
0
APPID
5
12
100
AcDbSymbolTableRecord
100
AcDbRegAppTableRecord
2
ACAD
70
0
0
ENDTAB
0
TABLE
2
DIMSTYLE
5
A
100
AcDbSymbolTable
70
1
0
ENDTAB
0
TABLE
2
BLOCK_RECORD
5
1
100
AcDbSymbolTable
70
1
0
BLOCK_RECORD
5
1F
100
AcDbSymbolTableRecord
100
AcDbBlockTableRecord
2
*MODEL_SPACE
0
BLOCK_RECORD
5
1B
100
AcDbSymbolTableRecord
100
AcDbBlockTableRecord
2
*PAPER_SPACE
0
ENDTAB
0
ENDSEC
0
SECTION
2
BLOCKS
0
BLOCK
5
20
100
AcDbEntity
100
AcDbBlockBegin
2
*MODEL_SPACE
0
ENDBLK
5
21
100
AcDbEntity
100
AcDbBlockEnd
0
BLOCK
5
1C
100
AcDbEntity
100
AcDbBlockBegin
2
*PAPER_SPACE
0
ENDBLK
5
1D
100
AcDbEntity
100
AcDbBlockEnd
0
ENDSEC
0
SECTION
2
ENTITIES
0
ARC
5
100
100
AcDbEntity
8
0
100
AcDbCircle
10
-82.367536768902013
20
80.494397887757557
30
2.7755575615628914e-16
40
0.50000000000002487
210
7.1210981420464863e-25
220
-1.191846385039928e-34
230
1
100
AcDbArc
50
89.999999990410089
51
163.02509879066449
0
ARC
5
101
100
AcDbEntity
8
0
100
AcDbCircle
10
-85.709217131834919
20
81.514451644240623
30
0
40
2.9939000149011736
210
8.6058915956217014e-25
220
-3.1727980350870342e-26
230
1
100
AcDbArc
50
196.97666827488874
51
343.02509879066417
0
ARC
5
102
100
AcDbEntity
8
0
100
AcDbCircle
10
-89.050866033586388
20
80.494294827104369
30
0
40
0.49999999999999761
210
-4.6388173966214249e-24
220
-1.4944046949837374e-24
230
1
100
AcDbArc
50
16.976668274889199
51
89.999999990406835
0
ARC
5
103
100
AcDbEntity
8
0
100
AcDbCircle
10
-90.020579657518311
20
78.994294827268192
30
0
40
0.50000000000000289
210
7.246778865536848e-25
220
-1.1316636667438599e-25
230
1
100
AcDbArc
50
30.307924416466243
51
89.999999990406835
0
ARC
5
104
100
AcDbEntity
8
0
100
AcDbCircle
10
-85.709217131834919
20
81.514451644240623
30
0
40
4.4938999999999716
210
1.7924452463345194e-25
220
-4.3198806859586891e-25
230
1
100
AcDbArc
50
210.30792441646437
51
329.6934451924613
0
ARC
5
105
100
AcDbEntity
8
0
100
AcDbCircle
10
-81.397794365087961
20
78.994397887596563
30
0
40
0.49999999999999822
210
7.1206096224185397e-25
220
-1.1922692640294888e-34
230
1
100
AcDbArc
50
89.999999990406835
51
149.6934451924615
0
LINE
5
106
100
AcDbEntity
8
0
100
AcDbLine
10
-82.367536768818326
20
80.994397887757572
30
2.7755575615628914e-16
11
-45.871787257800193
21
80.994397881646378
31
-1.2341977061525974e-23
0
LINE
5
107
100
AcDbEntity
8
0
100
AcDbLine
10
-45.871786674666133
20
79.494397881647757
30
0
11
-81.397794365004245
21
79.494397887596563
31
-6.5401738365545069e-41
0
ARC
5
108
100
AcDbEntity
8
0
100
AcDbCircle
10
-45.871787257883909
20
80.494397881646407
30
2.7755575615628914e-16
40
0.50000000000000089
210
1.3640433651939337e-24
220
5.0661337481667209e-31
230
1
100
AcDbArc
50
6.6834718540585448e-05
51
89.999999990406835
0
LINE
5
109
100
AcDbEntity
8
0
100
AcDbLine
10
-45.37178725788425
20
80.494398464947921
30
2.7755575547426746e-16
11
-45.371786674582815
21
79.994398464949256
31
2.7755575615628854e-16
0
ARC
5
110
100
AcDbEntity
8
0
100
AcDbCircle
10
-45.871786674582403
20
79.994397881647757
30
2.7755575615628914e-16
40
0.49999999999999822
210
6.1909135233217525e-25
220
-5.5511151231258024e-16
230
1
100
AcDbArc
50
-90.0000000095948
51
6.6834718540585448e-05
0
ARC
5
111
100
AcDbEntity
8
0
100
AcDbCircle
10
-90.020579657518311
20
78.994294827268192
30
0
40
0.50000000000000289
210
4.9082143126727403e-25
220
2.8690395868028897e-25
230
1
100
AcDbArc
50
30.307924416466243
51
89.999999990406835
0
ARC
5
112
100
AcDbEntity
8
0
100
AcDbCircle
10
-85.709217131834919
20
81.514451644240623
30
0
40
4.4938999999999716
210
-5.4609741123220751e-26
220
-3.1921488982875258e-26
230
1
100
AcDbArc
50
210.30792441646437
51
329.6934451924613
0
ARC
5
113
100
AcDbEntity
8
0
100
AcDbCircle
10
-81.397794365087961
20
78.994397887596563
30
0
40
0.49999999999999822
210
2.1901655094599619e-50
220
1.3080347671710643e-40
230
1
100
AcDbArc
50
89.999999990406835
51
149.6934451924615
0
LINE
5
114
100
AcDbEntity
8
0
100
AcDbLine
10
-45.871786674666133
20
79.494397881647757
30
0
11
-81.397794365004245
21
79.494397887596563
31
-6.540173835855298e-41
0
ARC
5
115
100
AcDbEntity
8
0
100
AcDbCircle
10
-45.871786674582403
20
79.994397881647757
30
2.7755575615628914e-16
40
0.49999999999999822
210
-9.2957396918981644e-26
220
-5.5511151231258024e-16
230
1
100
AcDbArc
50
-90.0000000095948
51
6.6834718540585448e-05
0
LINE
5
116
100
AcDbEntity
8
0
100
AcDbLine
10
-45.37178725788425
20
80.494398464947921
30
2.7755575547426746e-16
11
-45.371786674582744
21
79.994398464949256
31
2.7755607964412397e-16
0
ARC
5
117
100
AcDbEntity
8
0
100
AcDbCircle
10
-45.871787257883909
20
80.494397881646407
30
2.7755575615628914e-16
40
0.50000000000000089
210
1.3640433651926684e-24
220
1.591297119494826e-30
230
1
100
AcDbArc
50
6.6834718540585448e-05
51
89.999999990406835
0
LINE
5
118
100
AcDbEntity
8
0
100
AcDbLine
10
-82.367536768818326
20
80.994397887757572
30
2.7755575615628914e-16
11
-45.871787257800193
21
80.994397881646393
31
2.7755575615628889e-16
0
ARC
5
119
100
AcDbEntity
8
0
100
AcDbCircle
10
-82.367536768902013
20
80.494397887757557
30
2.7755575615628914e-16
40
0.50000000000002487
210
0
220
-0
230
1
100
AcDbArc
50
89.999999990410089
51
163.02509879066449
0
ARC
5
120
100
AcDbEntity
8
0
100
AcDbCircle
10
-85.709217131834919
20
81.514451644240623
30
0
40
2.9939000149011736
210
7.783604852940727e-25
220
2.3762213763571513e-25
230
1
100
AcDbArc
50
196.97666827488874
51
343.02509879066417
0
ARC
5
121
100
AcDbEntity
8
0
100
AcDbCircle
10
-89.050866033586388
20
80.494294827104369
30
0
40
0.49999999999999761
210
-4.6606669370408083e-24
220
-1.4228338428169461e-24
230
1
100
AcDbArc
50
16.976668274889199
51
89.999999990406835
0
LINE
5
122
100
AcDbEntity
8
0
100
AcDbLine
10
-203.37654028964187
20
80.994397887757572
30
2.7755575615628909e-16
11
-239.87228980065998
21
80.994397881646393
31
2.7755575615628884e-16
0
LINE
5
123
100
AcDbEntity
8
0
100
AcDbLine
10
-240.37228980057594
20
80.494398464947921
30
2.7755575547426746e-16
11
-240.37229038387747
21
79.994398464949256
31
2.7755607964412397e-16
0
LINE
5
124
100
AcDbEntity
8
0
100
AcDbLine
10
-203.37654028964187
20
80.994397887757572
30
2.7755575615628909e-16
11
-239.87228980065998
21
80.994397881646378
31
-1.2341977061525974e-23
0
ARC
5
125
100
AcDbEntity
8
0
100
AcDbCircle
10
-195.72349740094188
20
78.994294827268192
30
0
40
0.50000000000000711
210
4.9082143133424736e-25
220
-1.1316636647088482e-25
230
1
100
AcDbArc
50
90.0000000095948
51
149.69207558353543
0
ARC
5
126
100
AcDbEntity
8
0
100
AcDbCircle
10
-203.37654028955819
20
80.494397887757557
30
2.7755575615628909e-16
40
0.50000000000003886
210
-6.5141217184225093e-25
220
-1.9884470109023565e-25
230
1
100
AcDbArc
50
16.974901209335528
51
90.000000009588277
0
ARC
5
127
100
AcDbEntity
8
0
100
AcDbCircle
10
-196.69321102487379
20
80.494294827104369
30
0
40
0.50000000000000711
210
-4.6388173969197345e-24
220
2.8681669292475948e-25
230
1
100
AcDbArc
50
90.000000009598054
51
163.02333172511123
0
ARC
5
128
100
AcDbEntity
8
0
100
AcDbCircle
10
-200.0348599266253
20
81.514451644240623
30
0
40
2.993900014901143
210
8.866809554101701e-17
220
2.7066090742897995e-17
230
1
100
AcDbArc
50
196.97490120933585
51
343.0233317251114
0
ARC
5
129
100
AcDbEntity
8
0
100
AcDbCircle
10
-200.0348599266253
20
81.514451644240623
30
0
40
4.4938999999999716
210
-3.2180077960545356e-25
220
-1.8809633350567879e-25
230
1
100
AcDbArc
50
210.30655480753873
51
329.69207558353565
0
LINE
5
130
100
AcDbEntity
8
0
100
AcDbLine
10
-239.87229038379408
20
79.494397881647757
30
0
11
-204.34628269345595
21
79.494397887596563
31
0
0
ARC
5
131
100
AcDbEntity
8
0
100
AcDbCircle
10
-196.69321102487379
20
80.494294827104369
30
0
40
0.50000000000000711
210
-4.660666937028822e-24
220
-1.4944046965409709e-24
230
1
100
AcDbArc
50
90.000000009598054
51
163.02333172511123
0
ARC
5
132
100
AcDbEntity
8
0
100
AcDbCircle
10
-204.34628269337225
20
78.994397887596563
30
0
40
0.50000000000000888
210
2.892287904862733e-24
220
1.6905604934319582e-24
230
1
100
AcDbArc
50
30.306554807539339
51
90.000000009591531
0
ARC
5
133
100
AcDbEntity
8
0
100
AcDbCircle
10
-239.87229038387781
20
79.994397881647757
30
2.7755575615628909e-16
40
0.49999999999999206
210
-6.1909132077587282e-25
220
-5.5511151231257965e-16
230
1
100
AcDbArc
50
179.99993316528145
51
270.00000000959477
0
ARC
5
134
100
AcDbEntity
8
0
100
AcDbCircle
10
-204.34628269337225
20
78.994397887596563
30
0
40
0.50000000000000888
210
7.0537899914141245e-24
220
3.7067805519634904e-24
230
1
100
AcDbArc
50
30.306554807539339
51
90.000000009591531
0
LINE
5
135
100
AcDbEntity
8
0
100
AcDbLine
10
-239.87229038379408
20
79.494397881647757
30
0
11
-204.34628269345595
21
79.494397887596563
31
0
0
ARC
5
136
100
AcDbEntity
8
0
100
AcDbCircle
10
-200.0348599266253
20
81.514451644240623
30
0
40
4.4938999999999716
210
-5.3079830000143614e-25
220
-8.4701257080895405e-25
230
1
100
AcDbArc
50
210.30655480753873
51
329.69207558353565
0
ARC
5
137
100
AcDbEntity
8
0
100
AcDbCircle
10
-195.72349740094188
20
78.994294827268192
30
0
40
0.50000000000000711
210
7.246778865536848e-25
220
-1.1316636643173633e-25
230
1
100
AcDbArc
50
90.0000000095948
51
149.69207558353543
0
ARC
5
138
100
AcDbEntity
8
0
100
AcDbCircle
10
-239.87229038387781
20
79.994397881647757
30
2.7755575615628909e-16
40
0.49999999999992101
210
-6.4759476224306037e-22
220
-5.5511151231182412e-16
230
1
100
AcDbArc
50
179.99993316528145
51
270.00000000959477
0
ARC
5
139
100
AcDbEntity
8
0
100
AcDbCircle
10
-239.87228980057631
20
80.494397881646407
30
2.7755575615628909e-16
40
0.49999999999997158
210
1.2711155464266985e-24
220
5.5511153699656394e-16
230
1
100
AcDbArc
50
90.000000009588277
51
179.99993316528145
0
ARC
5
140
100
AcDbEntity
8
0
100
AcDbCircle
10
-200.0348599266253
20
81.514451644240623
30
0
40
2.993900014901143
210
8.8668095623237381e-17
220
2.7066090473545343e-17
230
1
100
AcDbArc
50
196.97490120933585
51
343.0233317251114
0
LINE
5
141
100
AcDbEntity
8
0
100
AcDbLine
10
-240.37228980057594
20
80.494398464947921
30
2.7755575547426746e-16
11
-240.37229038387738
21
79.994398464949256
31
2.7755575615628849e-16
0
ARC
5
142
100
AcDbEntity
8
0
100
AcDbCircle
10
-203.37654028955819
20
80.494397887757557
30
2.7755575615628909e-16
40
0.50000000000003886
210
-5.9071448434865597e-25
220
-3.9768938852327941e-25
230
1
100
AcDbArc
50
16.974901209335528
51
90.000000009588277
0
ARC
5
143
100
AcDbEntity
8
0
100
AcDbCircle
10
-239.87228980057631
20
80.494397881646407
30
2.7755575615628909e-16
40
0.49999999999998934
210
1.3640433651926686e-24
220
4.9326641189933937e-31
230
1
100
AcDbArc
50
90.000000009588277
51
179.99993316528145
0
LINE
5
144
100
AcDbEntity
8
0
100
AcDbLine
10
-90.020579657434595
20
79.494294827268206
30
5.6583183276523411e-26
11
-195.72349740102561
21
79.494294827268206
31
5.6583183276525914e-26
0
LINE
5
145
100
AcDbEntity
8
0
100
AcDbLine
10
-196.69321102495755
20
80.994294827104369
30
-1.4340834685082458e-25
11
-89.050866033502672
21
80.994294827104369
31
-1.4340834685082605e-25
0
ENDSEC
0
SECTION
2
OBJECTS
0
DICTIONARY
5
C
100
AcDbDictionary
3
ACAD_GROUP
350
D
3
ACAD_MLINESTYLE
350
17
0
DICTIONARY
5
D
100
AcDbDictionary
0
DICTIONARY
5
1A
330
C
100
AcDbDictionary
0
DICTIONARY
5
17
100
AcDbDictionary
0
ENDSEC
0
EOF
