0
SECTION
2
HEADER
9
$INSUNITS
70
4
9
$ACADVER
1
AC1014
9
$HANDSEED
5
FFFF
0
ENDSEC
0
SECTION
2
TABLES
0
TABLE
2
VPORT
5
8
100
AcDbSymbolTable
0
ENDTAB
0
TABLE
2
LTYPE
5
5
100
AcDbSymbolTable
0
LTYPE
5
14
100
AcDbSymbolTableRecord
100
AcDbLinetypeTableRecord
2
BYBLOCK
70
0
0
LTYPE
5
15
100
AcDbSymbolTableRecord
100
AcDbLinetypeTableRecord
2
BYLAYER
70
0
0
ENDTAB
0
TABLE
2
LAYER
5
2
100
AcDbSymbolTable
70
2
0
LAYER
5
50
100
AcDbSymbolTableRecord
100
AcDbLayerTableRecord
2
0
70
0
6
CONTINUOUS
0
ENDTAB
0
TABLE
2
STYLE
5
3
100
AcDbSymbolTable
70
1
0
STYLE
5
11
100
AcDbSymbolTableRecord
100
AcDbTextStyleTableRecord
2
STANDARD
70
0
0
ENDTAB
0
TABLE
2
VIEW
5
6
100
AcDbSymbolTable
70
0
0
ENDTAB
0
TABLE
2
UCS
5
7
100
AcDbSymbolTable
70
0
0
ENDTAB
0
TABLE
2
APPID
5
9
100
AcDbSymbolTable
70
2
0
APPID
5
12
100
AcDbSymbolTableRecord
100
AcDbRegAppTableRecord
2
ACAD
70
0
0
ENDTAB
0
TABLE
2
DIMSTYLE
5
A
100
AcDbSymbolTable
70
1
0
ENDTAB
0
TABLE
2
BLOCK_RECORD
5
1
100
AcDbSymbolTable
70
1
0
BLOCK_RECORD
5
1F
100
AcDbSymbolTableRecord
100
AcDbBlockTableRecord
2
*MODEL_SPACE
0
BLOCK_RECORD
5
1B
100
AcDbSymbolTableRecord
100
AcDbBlockTableRecord
2
*PAPER_SPACE
0
ENDTAB
0
ENDSEC
0
SECTION
2
BLOCKS
0
BLOCK
5
20
100
AcDbEntity
100
AcDbBlockBegin
2
*MODEL_SPACE
0
ENDBLK
5
21
100
AcDbEntity
100
AcDbBlockEnd
0
BLOCK
5
1C
100
AcDbEntity
100
AcDbBlockBegin
2
*PAPER_SPACE
0
ENDBLK
5
1D
100
AcDbEntity
100
AcDbBlockEnd
0
ENDSEC
0
SECTION
2
ENTITIES
0
LWPOLYLINE
5
100
100
AcDbEntity
8
0
100
AcDbPolyline
90
4
70
1
43
0.0
10
-152.0287835572133
20
93.450636134924835
10
-193.98974222045445
20
93.413388136621251
10
-193.98048190952147
20
82.98137723764458
10
-152.01952324628027
20
83.018625235948193
0
LINE
5
101
100
AcDbEntity
8
0
100
AcDbLine
10
-159.9047960345963
20
87.3316175985603
30
0
11
-159.59846523602178
21
87.331889522973597
31
0
0
LINE
5
102
100
AcDbEntity
8
0
100
AcDbLine
10
-159.59846523602178
20
87.331889522973597
30
0
11
-159.59815101194374
21
86.977906915838034
31
0
0
LINE
5
103
100
AcDbEntity
8
0
100
AcDbLine
10
-159.59815101194374
20
86.977906915838034
30
0
11
-159.90448181051826
21
86.977634991424736
31
0
0
LINE
5
104
100
AcDbEntity
8
0
100
AcDbLine
10
-159.90448181051826
20
86.977634991424736
30
0
11
-159.9047960345963
21
87.3316175985603
31
0
0
SPLINE
5
105
100
AcDbEntity
8
0
100
AcDbSpline
70
0
71
2
72
6
73
3
74
0
42
0.000000001
43
0.0000000001
44
0.0000000001
40
0
40
0
40
0
40
1
40
1
40
1
10
-159.31146712706132
20
89.939360956246901
30
0
10
-159.5173831298531
20
89.932370719103858
30
0
10
-159.55820060009239
20
89.901701262954887
30
0
0
SPLINE
5
106
100
AcDbEntity
8
0
100
AcDbSpline
70
0
71
2
72
6
73
3
74
0
42
0.000000001
43
0.0000000001
44
0.0000000001
40
0
40
0
40
0
40
1
40
1
40
1
10
-159.55820060009239
20
89.901701262954887
30
0
10
-159.60072069733189
20
89.872732604739639
30
0
10
-159.60058171343715
20
89.716163185530405
30
0
0
LINE
5
107
100
AcDbEntity
8
0
100
AcDbLine
10
-159.60058171343715
20
89.716163185530405
30
0
11
-159.59875982071466
21
87.663747788754989
31
0
0
LINE
5
108
100
AcDbEntity
8
0
100
AcDbLine
10
-159.59875982071466
20
87.663747788754961
30
0
11
-159.90509061928921
21
87.663475864341663
31
0
0
LINE
5
109
100
AcDbEntity
8
0
100
AcDbLine
10
-159.90509061928921
20
87.663475864341677
30
0
11
-159.90694121513832
21
89.74822617212169
31
0
0
SPLINE
5
110
100
AcDbEntity
8
0
100
AcDbSpline
70
0
71
2
72
6
73
3
74
0
42
0.000000001
43
0.0000000001
44
0.0000000001
40
0
40
0
40
0
40
1
40
1
40
1
10
-159.90694121513832
20
89.74822617212169
30
0
10
-159.90711796616569
20
89.947341370008985
30
0
10
-159.84253576411592
20
90.046105221213878
30
0
0
SPLINE
5
111
100
AcDbEntity
8
0
100
AcDbSpline
70
0
71
2
72
6
73
3
74
0
42
0.000000001
43
0.0000000001
44
0.0000000001
40
0
40
0
40
0
40
1
40
1
40
1
10
-159.84253576411592
20
90.046105221213878
30
0
10
-159.73546761528323
20
90.212980682011633
30
0
10
-159.43594426050646
20
90.213246563577883
30
0
0
SPLINE
5
112
100
AcDbEntity
8
0
100
AcDbSpline
70
0
71
2
72
6
73
3
74
0
42
0.000000001
43
0.0000000001
44
0.0000000001
40
0
40
0
40
0
40
1
40
1
40
1
10
-159.43594426050646
20
90.213246563577883
30
0
10
-159.41382081322158
20
90.213266202169393
30
0
10
-159.38829123938902
20
90.211587151040206
30
0
0
SPLINE
5
113
100
AcDbEntity
8
0
100
AcDbSpline
70
0
71
2
72
6
73
3
74
0
42
0.000000001
43
0.0000000001
44
0.0000000001
40
0
40
0
40
0
40
1
40
1
40
1
10
-159.38829123938902
20
90.211587151040206
30
0
10
-159.3644645690577
20
90.209905992227121
30
0
10
-159.31170279492144
20
90.204847688081244
30
0
0
LINE
5
114
100
AcDbEntity
8
0
100
AcDbLine
10
-159.31170279492144
20
90.204847688081244
30
0
11
-159.31146712706132
21
89.939360956246901
31
0
0
LINE
5
115
100
AcDbEntity
8
0
100
AcDbLine
10
-160.67941862172387
20
87.654279046652306
30
0
11
-160.68049272283889
21
88.864285343393988
31
0
0
SPLINE
5
116
100
AcDbEntity
8
0
100
AcDbSpline
70
0
71
2
72
6
73
3
74
0
42
0.000000001
43
0.0000000001
44
0.0000000001
40
0
40
0
40
0
40
1
40
1
40
1
10
-160.68049272283889
20
88.864285343393988
30
0
10
-160.68061659988052
20
89.003836451131974
30
0
10
-160.724943241967
20
89.09229215412266
30
0
0
SPLINE
5
117
100
AcDbEntity
8
0
100
AcDbSpline
70
0
71
2
72
6
73
3
74
0
42
0.000000001
43
0.0000000001
44
0.0000000001
40
0
40
0
40
0
40
1
40
1
40
1
10
-160.724943241967
20
89.09229215412266
30
0
10
-160.80677640218912
20
89.255596504023288
30
0
10
-161.02971675929919
20
89.255398603824929
30
0
0
SPLINE
5
118
100
AcDbEntity
8
0
100
AcDbSpline
70
0
71
2
72
6
73
3
74
0
42
0.000000001
43
0.0000000001
44
0.0000000001
40
0
40
0
40
0
40
1
40
1
40
1
10
-161.02971675929919
20
89.255398603824929
30
0
10
-161.34966244546919
20
89.255114593717551
30
0
10
-161.46513340549077
20
88.969102803677544
30
0
0
SPLINE
5
119
100
AcDbEntity
8
0
100
AcDbSpline
70
0
71
2
72
6
73
3
74
0
42
0.000000001
43
0.0000000001
44
0.0000000001
40
0
40
0
40
0
40
1
40
1
40
1
10
-161.46513340549077
20
88.969102803677544
30
0
10
-161.52796555335541
20
88.815881508716501
30
0
10
-161.5277283749158
20
88.548693064944274
30
0
0
LINE
5
120
100
AcDbEntity
8
0
100
AcDbLine
10
-161.5277283749158
20
88.548693064944274
30
0
11
-161.52693375164057
21
87.653526722512737
31
0
0
LINE
5
121
100
AcDbEntity
8
0
100
AcDbLine
10
-161.52693375164057
20
87.653526722512737
30
0
11
-161.83326455021506
21
87.653254798099439
31
0
0
LINE
5
122
100
AcDbEntity
8
0
100
AcDbLine
10
-161.83326455021512
20
87.653254798099454
30
0
11
-161.83488250015674
21
89.475922691990192
31
0
0
LINE
5
123
100
AcDbEntity
8
0
100
AcDbLine
10
-161.83488250015671
20
89.475922691990192
30
0
11
-161.54557060909963
21
89.476179509021307
31
0
0
LINE
5
124
100
AcDbEntity
8
0
100
AcDbLine
10
-161.54557060909963
20
89.476179509021335
30
0
11
-161.54873534395625
21
89.207286332152265
31
0
0
SPLINE
5
125
100
AcDbEntity
8
0
100
AcDbSpline
70
0
71
2
72
6
73
3
74
0
42
0.000000001
43
0.0000000001
44
0.0000000001
40
0
40
0
40
0
40
1
40
1
40
1
10
-161.54873534395631
20
89.20728633215225
30
0
10
-161.48926340603396
20
89.311151382949419
30
0
10
-161.40083068128087
20
89.382706609192567
30
0
0
SPLINE
5
126
100
AcDbEntity
8
0
100
AcDbSpline
70
0
71
2
72
6
73
3
74
0
42
0.000000001
43
0.0000000001
44
0.0000000001
40
0
40
0
40
0
40
1
40
1
40
1
10
-161.40083068128087
20
89.382706609192567
30
0
10
-161.22566873290933
20
89.525816741604501
30
0
10
-160.97549860060835
20
89.526038813191064
30
0
0
SPLINE
5
127
100
AcDbEntity
8
0
100
AcDbSpline
70
0
71
2
72
6
73
3
74
0
42
0.000000001
43
0.0000000001
44
0.0000000001
40
0
40
0
40
0
40
1
40
1
40
1
10
-160.97549860060835
20
89.526038813191064
30
0
10
-160.58577736056932
20
89.526384761819259
30
0
10
-160.44429400134706
20
89.266129148936812
30
0
0
SPLINE
5
128
100
AcDbEntity
8
0
100
AcDbSpline
70
0
71
2
72
6
73
3
74
0
42
0.000000001
43
0.0000000001
44
0.0000000001
40
0
40
0
40
0
40
1
40
1
40
1
10
-160.44429400134706
20
89.266129148936812
30
0
10
-160.367587723214
20
89.126646618083797
30
0
10
-160.36738075848049
20
88.893494797254036
30
0
0
LINE
5
129
100
AcDbEntity
8
0
100
AcDbLine
10
-160.36738075848049
20
88.893494797254036
30
0
11
-160.36628097539779
21
87.654557013383538
31
0
0
LINE
5
130
100
AcDbEntity
8
0
100
AcDbLine
10
-160.36628097539779
20
87.654557013383538
30
0
11
-160.67941862172387
21
87.654279046652306
31
0
0
LINE
5
131
100
AcDbEntity
8
0
100
AcDbLine
10
-162.31938926845254
20
86.975491618956227
30
0
11
-162.62572006702703
21
86.975219694542929
31
0
0
LINE
5
132
100
AcDbEntity
8
0
100
AcDbLine
10
-162.62572006702703
20
86.975219694542929
30
0
11
-162.62793927178396
21
89.475218709568779
31
0
0
LINE
5
133
100
AcDbEntity
8
0
100
AcDbLine
10
-162.62793927178399
20
89.475218709568779
30
0
11
-162.32160847320949
21
89.475490633982076
31
0
0
LINE
5
134
100
AcDbEntity
8
0
100
AcDbLine
10
-162.32160847320944
20
89.475490633982076
30
0
11
-162.31938926845254
21
86.975491618956227
31
0
0
LINE
5
135
100
AcDbEntity
8
0
100
AcDbLine
10
-163.08582447734904
20
87.660652383345919
30
0
11
-163.39726100778341
21
87.660375926665068
31
0
0
LINE
5
136
100
AcDbEntity
8
0
100
AcDbLine
10
-163.39726100778341
20
87.660375926665083
30
0
11
-163.39887140403397
21
89.474534366797101
31
0
0
LINE
5
137
100
AcDbEntity
8
0
100
AcDbLine
10
-163.39887140403397
20
89.474534366797101
30
0
11
-163.08743487359959
21
89.474810823477952
31
0
0
LINE
5
138
100
AcDbEntity
8
0
100
AcDbLine
10
-163.08743487359959
20
89.474810823477952
30
0
11
-163.08582447734904
21
87.660652383345933
31
0
0
LINE
5
139
100
AcDbEntity
8
0
100
AcDbLine
10
-163.08521566884266
20
86.974811808452088
30
0
11
-163.39665219927707
21
86.974535351771237
31
0
0
LINE
5
140
100
AcDbEntity
8
0
100
AcDbLine
10
-163.39665219927701
20
86.974535351771252
30
0
11
-163.39696038024351
21
87.321710217085965
31
0
0
LINE
5
141
100
AcDbEntity
8
0
100
AcDbLine
10
-163.39696038024351
20
87.321710217085965
30
0
11
-163.08552384980911
21
87.321986673766816
31
0
0
LINE
5
142
100
AcDbEntity
8
0
100
AcDbLine
10
-163.08552384980911
20
87.321986673766816
30
0
11
-163.08521566884264
21
86.974811808452102
31
0
0
SPLINE
5
143
100
AcDbEntity
8
0
100
AcDbSpline
70
0
71
2
72
6
73
3
74
0
42
0.000000001
43
0.0000000001
44
0.0000000001
40
0
40
0
40
0
40
1
40
1
40
1
10
-164.09619401163965
20
88.988891318636576
30
0
10
-164.09631184530514
20
89.121634386530644
30
0
10
-164.19338396364054
20
89.198131275346583
30
0
0
SPLINE
5
144
100
AcDbEntity
8
0
100
AcDbSpline
70
0
71
2
72
6
73
3
74
0
42
0.000000001
43
0.0000000001
44
0.0000000001
40
0
40
0
40
0
40
1
40
1
40
1
10
-164.19338396364054
20
89.198131275346583
30
0
10
-164.29045727353926
20
89.27462756705809
30
0
10
-164.42320034143333
20
89.274509733392591
30
0
0
SPLINE
5
145
100
AcDbEntity
8
0
100
AcDbSpline
70
0
71
2
72
6
73
3
74
0
42
0.000000001
43
0.0000000001
44
0.0000000001
40
0
40
0
40
0
40
1
40
1
40
1
10
-164.42320034143333
20
89.274509733392591
30
0
10
-164.58487549250242
20
89.274366217230309
30
0
10
-164.73627151750009
20
89.199351076978701
30
0
0
SPLINE
5
146
100
AcDbEntity
8
0
100
AcDbSpline
70
0
71
2
72
6
73
3
74
0
42
0.000000001
43
0.0000000001
44
0.0000000001
40
0
40
0
40
0
40
1
40
1
40
1
10
-164.73627151750009
20
89.199351076978701
30
0
10
-164.99143710142195
20
89.074890560966139
30
0
10
-164.99118632670877
20
88.792385517660577
30
0
0
LINE
5
147
100
AcDbEntity
8
0
100
AcDbLine
10
-164.99118632670877
20
88.792385517660577
30
0
11
-164.9909672762812
21
88.545618809235336
31
0
0
SPLINE
5
148
100
AcDbEntity
8
0
100
AcDbSpline
70
0
71
2
72
6
73
3
74
0
42
0.000000001
43
0.0000000001
44
0.0000000001
40
0
40
0
40
0
40
1
40
1
40
1
10
-164.99096727628117
20
88.545618809235336
30
0
10
-164.93483833482236
20
88.581407592988626
30
0
10
-164.84636331119813
20
88.605311904740063
30
0
0
SPLINE
5
149
100
AcDbEntity
8
0
100
AcDbSpline
70
0
71
2
72
6
73
3
74
0
42
0.000000001
43
0.0000000001
44
0.0000000001
40
0
40
0
40
0
40
1
40
1
40
1
10
-164.84636331119813
20
88.605311904740063
30
0
10
-164.75788947966635
20
88.629216215433303
30
0
10
-164.67280698631623
20
88.639502617372088
30
0
0
LINE
5
150
100
AcDbEntity
8
0
100
AcDbLine
10
-164.67280698631623
20
88.639502617372088
30
0
11
-164.48732782572449
21
88.663493037974334
31
0
0
SPLINE
5
151
100
AcDbEntity
8
0
100
AcDbSpline
70
0
71
2
72
6
73
3
74
0
42
0.000000001
43
0.0000000001
44
0.0000000001
40
0
40
0
40
0
40
1
40
1
40
1
10
-164.48732782572449
20
88.663493037974348
30
0
10
-164.32056777400859
20
88.685765128677048
30
0
10
-164.2372196314152
20
88.733490067383684
30
0
0
SPLINE
5
152
100
AcDbEntity
8
0
100
AcDbSpline
70
0
71
2
72
6
73
3
74
0
42
0.000000001
43
0.0000000001
44
0.0000000001
40
0
40
0
40
0
40
1
40
1
40
1
10
-164.2372196314152
20
88.733490067383684
30
0
10
-164.09603841031239
20
88.813601876018225
30
0
10
-164.09619401163965
20
88.988891318636576
30
0
0
SPLINE
5
153
100
AcDbEntity
8
0
100
AcDbSpline
70
0
71
2
72
6
73
3
74
0
42
0.000000001
43
0.0000000001
44
0.0000000001
40
0
40
0
40
0
40
1
40
1
40
1
10
-164.83764416904094
20
88.368763617414857
30
0
10
-164.94314656867152
20
88.355055662530063
30
0
10
-164.97881902880971
20
88.280142651986495
30
0
0
SPLINE
5
154
100
AcDbEntity
8
0
100
AcDbSpline
70
0
71
2
72
6
73
3
74
0
42
0.000000001
43
0.0000000001
44
0.0000000001
40
0
40
0
40
0
40
1
40
1
40
1
10
-164.97881902880971
20
88.280142651986495
30
0
10
-164.99920450760354
20
88.239280457234273
30
0
10
-164.99913652676474
20
88.162698055613745
30
0
0
SPLINE
5
155
100
AcDbEntity
8
0
100
AcDbSpline
70
0
71
2
72
6
73
3
74
0
42
0.000000001
43
0.0000000001
44
0.0000000001
40
0
40
0
40
0
40
1
40
1
40
1
10
-164.99913652676474
20
88.162698055613745
30
0
10
-164.99899754287003
20
88.006128636404512
30
0
10
-164.88661427233123
20
87.936453384235193
30
0
0
SPLINE
5
156
100
AcDbEntity
8
0
100
AcDbSpline
70
0
71
2
72
6
73
3
74
0
42
0.000000001
43
0.0000000001
44
0.0000000001
40
0
40
0
40
0
40
1
40
1
40
1
10
-164.88661427233123
20
87.936453384235193
30
0
10
-164.7759317986679
20
87.865074312973206
30
0
10
-164.56830744504501
20
87.865258617427102
30
0
0
SPLINE
5
157
100
AcDbEntity
8
0
100
AcDbSpline
70
0
71
2
72
6
73
3
74
0
42
0.000000001
43
0.0000000001
44
0.0000000001
40
0
40
0
40
0
40
1
40
1
40
1
10
-164.56830744504501
20
87.865258617427102
30
0
10
-164.32834877646371
20
87.865471624478531
30
0
10
-164.22805483603454
20
87.994900399564813
30
0
0
SPLINE
5
158
100
AcDbEntity
8
0
100
AcDbSpline
70
0
71
2
72
6
73
3
74
0
42
0.000000001
43
0.0000000001
44
0.0000000001
40
0
40
0
40
0
40
1
40
1
40
1
10
-164.22805483603454
20
87.994900399564813
30
0
10
-164.17195761886131
20
88.066427518198438
30
0
10
-164.15506469448215
20
88.207694848681172
30
0
0
LINE
5
159
100
AcDbEntity
8
0
100
AcDbLine
10
-164.15506469448215
20
88.207694848681172
30
0
11
-163.86915563125459
21
88.207948645082439
31
0
0
SPLINE
5
160
100
AcDbEntity
8
0
100
AcDbSpline
70
0
71
2
72
6
73
3
74
0
42
0.000000001
43
0.0000000001
44
0.0000000001
40
0
40
0
40
0
40
1
40
1
40
1
10
-163.86915563125459
20
88.207948645082439
30
0
10
-163.87736567055885
20
87.870977690060897
30
0
10
-164.08657600881529
20
87.739750220519127
30
0
0
SPLINE
5
161
100
AcDbEntity
8
0
100
AcDbSpline
70
0
71
2
72
6
73
3
74
0
42
0.000000001
43
0.0000000001
44
0.0000000001
40
0
40
0
40
0
40
1
40
1
40
1
10
-164.08657600881529
20
87.739750220519127
30
0
10
-164.29748595238394
20
87.606819528989078
30
0
10
-164.57488585987588
20
87.606573286014338
30
0
0
SPLINE
5
162
100
AcDbEntity
8
0
100
AcDbSpline
70
0
71
2
72
6
73
3
74
0
42
0.000000001
43
0.0000000001
44
0.0000000001
40
0
40
0
40
0
40
1
40
1
40
1
10
-164.57488585987588
20
87.606573286014338
30
0
10
-164.89653266193753
20
87.606287765856592
30
0
10
-165.097457745376
20
87.728641704999404
30
0
0
SPLINE
5
163
100
AcDbEntity
8
0
100
AcDbSpline
70
0
71
2
72
6
73
3
74
0
42
0.000000001
43
0.0000000001
44
0.0000000001
40
0
40
0
40
0
40
1
40
1
40
1
10
-165.097457745376
20
87.728641704999404
30
0
10
-165.2966817129228
20
87.850997154192612
30
0
10
-165.29691133793588
20
88.109676442229201
30
0
0
LINE
5
164
100
AcDbEntity
8
0
100
AcDbLine
10
-165.29691133793588
20
88.109676442229201
30
0
11
-165.29784343426178
21
89.159710193908978
31
0
0
SPLINE
5
165
100
AcDbEntity
8
0
100
AcDbSpline
70
0
71
2
72
6
73
3
74
0
42
0.000000001
43
0.0000000001
44
0.0000000001
40
0
40
0
40
0
40
1
40
1
40
1
10
-165.29784343426178
20
89.159710193908978
30
0
10
-165.29788573366201
20
89.20736170444691
30
0
10
-165.31663203508498
20
89.236276573614077
30
0
0
SPLINE
5
166
100
AcDbEntity
8
0
100
AcDbSpline
70
0
71
2
72
6
73
3
74
0
42
0.000000001
43
0.0000000001
44
0.0000000001
40
0
40
0
40
0
40
1
40
1
40
1
10
-165.31663203508498
20
89.236276573614077
30
0
10
-165.33707945187052
20
89.265189336684642
30
0
10
-165.4000469658956
20
89.265133441539959
30
0
0
SPLINE
5
167
100
AcDbEntity
8
0
100
AcDbSpline
70
0
71
2
72
6
73
3
74
0
42
0.000000001
43
0.0000000001
44
0.0000000001
40
0
40
0
40
0
40
1
40
1
40
1
10
-165.4000469658956
20
89.265133441539959
30
0
10
-165.420469893335
20
89.265115312469732
30
0
10
-165.44599584996237
20
89.263390940252265
30
0
0
SPLINE
5
168
100
AcDbEntity
8
0
100
AcDbSpline
70
0
71
2
72
6
73
3
74
0
42
0.000000001
43
0.0000000001
44
0.0000000001
40
0
40
0
40
0
40
1
40
1
40
1
10
-165.44599584996237
20
89.263390940252265
30
0
10
-165.47152029601023
20
89.2599648560969
30
0
10
-165.50044665482528
20
89.254833442798486
30
0
0
LINE
5
169
100
AcDbEntity
8
0
100
AcDbLine
10
-165.50044665482528
20
89.254833442798486
30
0
11
-165.50064757671174
21
89.481177819830521
31
0
0
SPLINE
5
170
100
AcDbEntity
8
0
100
AcDbSpline
70
0
71
2
72
6
73
3
74
0
42
0.000000001
43
0.0000000001
44
0.0000000001
40
0
40
0
40
0
40
1
40
1
40
1
10
-165.50064757671174
20
89.481177819830521
30
0
10
-165.42918903549219
20
89.501663599794938
30
0
10
-165.39175232832002
20
89.506801971531885
30
0
0
SPLINE
5
171
100
AcDbEntity
8
0
100
AcDbSpline
70
0
71
2
72
6
73
3
74
0
42
0.000000001
43
0.0000000001
44
0.0000000001
40
0
40
0
40
0
40
1
40
1
40
1
10
-165.39175232832002
20
89.506801971531885
30
0
10
-165.35431681376934
20
89.511940938256828
30
0
10
-165.28964699176018
20
89.511998344510104
30
0
0
SPLINE
5
172
100
AcDbEntity
8
0
100
AcDbSpline
70
0
71
2
72
6
73
3
74
0
42
0.000000001
43
0.0000000001
44
0.0000000001
40
0
40
0
40
0
40
1
40
1
40
1
10
-165.28964699176018
20
89.511998344510104
30
0
10
-165.13137645665927
20
89.512138838455201
30
0
10
-165.05980008124513
20
89.399880954479329
30
0
0
SPLINE
5
173
100
AcDbEntity
8
0
100
AcDbSpline
70
0
71
2
72
6
73
3
74
0
42
0.000000001
43
0.0000000001
44
0.0000000001
40
0
40
0
40
0
40
1
40
1
40
1
10
-165.05980008124513
20
89.399880954479329
30
0
10
-165.02230596834877
20
89.340350100253332
30
0
10
-165.00689328036714
20
89.231445787326493
30
0
0
SPLINE
5
174
100
AcDbEntity
8
0
100
AcDbSpline
70
0
71
2
72
6
73
3
74
0
42
0.000000001
43
0.0000000001
44
0.0000000001
40
0
40
0
40
0
40
1
40
1
40
1
10
-165.00689328036714
20
89.231445787326493
30
0
10
-164.91340014484246
20
89.3540610762971
30
0
10
-164.73819136480319
20
89.444413966311259
30
0
0
SPLINE
5
175
100
AcDbEntity
8
0
100
AcDbSpline
70
0
71
2
72
6
73
3
74
0
42
0.000000001
43
0.0000000001
44
0.0000000001
40
0
40
0
40
0
40
1
40
1
40
1
10
-164.73819136480319
20
89.444413966311259
30
0
10
-164.56298139320057
20
89.534767453429822
30
0
10
-164.3519548077943
20
89.534954777984495
30
0
0
SPLINE
5
176
100
AcDbEntity
8
0
100
AcDbSpline
70
0
71
2
72
6
73
3
74
0
42
0.000000001
43
0.0000000001
44
0.0000000001
40
0
40
0
40
0
40
1
40
1
40
1
10
-164.3519548077943
20
89.534954777984495
30
0
10
-164.09838005952514
20
89.535179871788216
30
0
10
-163.93657013834184
20
89.382157987605027
30
0
0
SPLINE
5
177
100
AcDbEntity
8
0
100
AcDbSpline
70
0
71
2
72
6
73
3
74
0
42
0.000000001
43
0.0000000001
44
0.0000000001
40
0
40
0
40
0
40
1
40
1
40
1
10
-163.93657013834184
20
89.382157987605027
30
0
10
-163.77645982194161
20
89.227432285387366
30
0
10
-163.77625436831667
20
88.995982772541694
30
0
0
SPLINE
5
178
100
AcDbEntity
8
0
100
AcDbSpline
70
0
71
2
72
6
73
3
74
0
42
0.000000001
43
0.0000000001
44
0.0000000001
40
0
40
0
40
0
40
1
40
1
40
1
10
-163.77625436831667
20
88.995982772541694
30
0
10
-163.77602927557118
20
88.742409216364933
30
0
10
-163.9341759336304
20
88.602717614681822
30
0
0
SPLINE
5
179
100
AcDbEntity
8
0
100
AcDbSpline
70
0
71
2
72
6
73
3
74
0
42
0.000000001
43
0.0000000001
44
0.0000000001
40
0
40
0
40
0
40
1
40
1
40
1
10
-163.9341759336304
20
88.602717614681822
30
0
10
-164.09232378431119
20
88.463026607986706
30
0
10
-164.34927206123706
20
88.430463583077653
30
0
0
LINE
5
180
100
AcDbEntity
8
0
100
AcDbLine
10
-164.34927206123706
20
88.430463583077653
30
0
11
-164.83764416904094
21
88.368763617414857
31
0
0
LINE
5
181
100
AcDbEntity
8
0
100
AcDbLine
10
-165.7985460241666
20
87.649734888108824
30
0
11
-166.08955962716155
21
87.649476560498215
31
0
0
LINE
5
182
100
AcDbEntity
8
0
100
AcDbLine
10
-166.08955962716155
20
87.649476560498201
30
0
11
-166.08978925243918
21
87.908156146557914
31
0
0
SPLINE
5
183
100
AcDbEntity
8
0
100
AcDbSpline
70
0
71
2
72
6
73
3
74
0
42
0.000000001
43
0.0000000001
44
0.0000000001
40
0
40
0
40
0
40
1
40
1
40
1
10
-166.08978925243918
20
87.908156146557914
30
0
10
-166.2189868914038
20
87.748068490966375
30
0
10
-166.36358179248083
20
87.678164527788169
30
0
0
SPLINE
5
184
100
AcDbEntity
8
0
100
AcDbSpline
70
0
71
2
72
6
73
3
74
0
42
0.000000001
43
0.0000000001
44
0.0000000001
40
0
40
0
40
0
40
1
40
1
40
1
10
-166.36358179248083
20
87.678164527788169
30
0
10
-166.50817669382241
20
87.608260862633045
30
0
10
-166.68516665628624
20
87.608103751784498
30
0
0
SPLINE
5
185
100
AcDbEntity
8
0
100
AcDbSpline
70
0
71
2
72
6
73
3
74
0
42
0.000000001
43
0.0000000001
44
0.0000000001
40
0
40
0
40
0
40
1
40
1
40
1
10
-166.68516665628624
20
87.608103751784498
30
0
10
-167.07318558834115
20
87.607759314264868
30
0
10
-167.20957227997411
20
87.878230625111485
30
0
0
SPLINE
5
186
100
AcDbEntity
8
0
100
AcDbSpline
70
0
71
2
72
6
73
3
74
0
42
0.000000001
43
0.0000000001
44
0.0000000001
40
0
40
0
40
0
40
1
40
1
40
1
10
-167.20957227997411
20
87.878230625111485
30
0
10
-167.28458618773448
20
88.026223820692309
30
0
10
-167.28483091960061
20
88.301921420200131
30
0
0
LINE
5
187
100
AcDbEntity
8
0
100
AcDbLine
10
-167.28483091960061
20
88.301921420200131
30
0
11
-167.28586876442705
21
89.471083948224731
31
0
0
LINE
5
188
100
AcDbEntity
8
0
100
AcDbLine
10
-167.28586876442705
20
89.471083948224731
30
0
11
-166.97443223399264
21
89.471360404905596
31
0
0
LINE
5
189
100
AcDbEntity
8
0
100
AcDbLine
10
-166.97443223399264
20
89.471360404905596
30
0
11
-166.97341251770737
21
88.322620208274202
31
0
0
SPLINE
5
190
100
AcDbEntity
8
0
100
AcDbSpline
70
0
71
2
72
6
73
3
74
0
42
0.000000001
43
0.0000000001
44
0.0000000001
40
0
40
0
40
0
40
1
40
1
40
1
10
-166.97341251770737
20
88.322620208274202
30
0
10
-166.97326446980665
20
88.155839921391461
30
0
10
-166.92382001016625
20
88.053773863072877
30
0
0
SPLINE
5
191
100
AcDbEntity
8
0
100
AcDbSpline
70
0
71
2
72
6
73
3
74
0
42
0.000000001
43
0.0000000001
44
0.0000000001
40
0
40
0
40
0
40
1
40
1
40
1
10
-166.92382001016625
20
88.053773863072877
30
0
10
-166.84198080762616
20
87.883662665420715
30
0
10
-166.6275496062517
20
87.883853012192574
30
0
0
SPLINE
5
192
100
AcDbEntity
8
0
100
AcDbSpline
70
0
71
2
72
6
73
3
74
0
42
0.000000001
43
0.0000000001
44
0.0000000001
40
0
40
0
40
0
40
1
40
1
40
1
10
-166.6275496062517
20
87.883853012192574
30
0
10
-166.51863169758042
20
87.883949696687083
30
0
10
-166.44887578230293
20
87.906135082492781
30
0
0
SPLINE
5
193
100
AcDbEntity
8
0
100
AcDbSpline
70
0
71
2
72
6
73
3
74
0
42
0.000000001
43
0.0000000001
44
0.0000000001
40
0
40
0
40
0
40
1
40
1
40
1
10
-166.44887578230293
20
87.906135082492781
30
0
10
-166.32297279755454
20
87.94368751670477
30
0
10
-166.22776948213217
20
88.056093448052266
30
0
0
SPLINE
5
194
100
AcDbEntity
8
0
100
AcDbSpline
70
0
71
2
72
6
73
3
74
0
42
0.000000001
43
0.0000000001
44
0.0000000001
40
0
40
0
40
0
40
1
40
1
40
1
10
-166.22776948213217
20
88.056093448052266
30
0
10
-166.15126714704451
20
88.146358718107024
30
0
10
-166.12752809720172
20
88.243384600291762
30
0
0
SPLINE
5
195
100
AcDbEntity
8
0
100
AcDbSpline
70
0
71
2
72
6
73
3
74
0
42
0.000000001
43
0.0000000001
44
0.0000000001
40
0
40
0
40
0
40
1
40
1
40
1
10
-166.12752809720172
20
88.243384600291762
30
0
10
-166.10548865267103
20
88.338707260488235
30
0
10
-166.10564727515725
20
88.517400126982352
30
0
0
LINE
5
196
100
AcDbEntity
8
0
100
AcDbLine
10
-166.10564727515725
20
88.517400126982352
30
0
11
-166.10649477268277
21
89.472130857586279
31
0
0
LINE
5
197
100
AcDbEntity
8
0
100
AcDbLine
10
-166.10649477268277
20
89.472130857586279
30
0
11
-165.80016397410822
21
89.472402781999577
31
0
0
LINE
5
198
100
AcDbEntity
8
0
100
AcDbLine
10
-165.80016397410819
20
89.472402781999563
30
0
11
-165.79854602416657
21
87.649734888108824
31
0
0
LINE
5
199
100
AcDbEntity
8
0
100
AcDbLine
10
-167.81140597347689
20
89.09961652524656
30
0
11
-168.16708939848101
21
89.09930079138266
31
0
0
LINE
5
200
100
AcDbEntity
8
0
100
AcDbLine
10
-168.16708939848101
20
89.09930079138266
30
0
11
-168.16741872914758
21
89.470301411966346
31
0
0
LINE
5
201
100
AcDbEntity
8
0
100
AcDbLine
10
-168.16741872914758
20
89.470301411966346
30
0
11
-167.81173530414347
21
89.470617145830232
31
0
0
LINE
5
202
100
AcDbEntity
8
0
100
AcDbLine
10
-167.81173530414347
20
89.470617145830232
30
0
11
-167.81140597347689
21
89.09961652524656
31
0
0
SPLINE
5
203
100
AcDbEntity
8
0
100
AcDbSpline
70
0
71
2
72
6
73
3
74
0
42
0.000000001
43
0.0000000001
44
0.0000000001
40
0
40
0
40
0
40
1
40
1
40
1
10
-168.90012072330711
20
88.579589395464978
30
0
10
-168.9003805620263
20
88.872305306444034
30
0
10
-169.02479090672506
20
89.069608511096291
30
0
0
SPLINE
5
204
100
AcDbEntity
8
0
100
AcDbSpline
70
0
71
2
72
6
73
3
74
0
42
0.000000001
43
0.0000000001
44
0.0000000001
40
0
40
0
40
0
40
1
40
1
40
1
10
-169.02479090672506
20
89.069608511096291
30
0
10
-169.1491988667099
20
89.266911121818723
30
0
10
-169.42319535032607
20
89.266667900002972
30
0
0
SPLINE
5
205
100
AcDbEntity
8
0
100
AcDbSpline
70
0
71
2
72
6
73
3
74
0
42
0.000000001
43
0.0000000001
44
0.0000000001
40
0
40
0
40
0
40
1
40
1
40
1
10
-169.42319535032607
20
89.266667900002972
30
0
10
-169.63592543580884
20
89.266479063281508
30
0
10
-169.77191028340434
20
89.084261322040959
30
0
0
SPLINE
5
206
100
AcDbEntity
8
0
100
AcDbSpline
70
0
71
2
72
6
73
3
74
0
42
0.000000001
43
0.0000000001
44
0.0000000001
40
0
40
0
40
0
40
1
40
1
40
1
10
-169.77191028340434
20
89.084261322040959
30
0
10
-169.90959592893358
20
88.900340953800139
30
0
10
-169.90929227970557
20
88.558271224299034
30
0
0
SPLINE
5
207
100
AcDbEntity
8
0
100
AcDbSpline
70
0
71
2
72
6
73
3
74
0
42
0.000000001
43
0.0000000001
44
0.0000000001
40
0
40
0
40
0
40
1
40
1
40
1
10
-169.90929227970557
20
88.558271224299034
30
0
10
-169.90898560984772
20
88.212798666968411
30
0
10
-169.76758684942587
20
88.047846075161814
30
0
0
SPLINE
5
208
100
AcDbEntity
8
0
100
AcDbSpline
70
0
71
2
72
6
73
3
74
0
42
0.000000001
43
0.0000000001
44
0.0000000001
40
0
40
0
40
0
40
1
40
1
40
1
10
-169.76758684942587
20
88.047846075161814
30
0
10
-169.62618657789548
20
87.881191175371129
30
0
10
-169.41856222427253
20
87.881375479825024
30
0
0
SPLINE
5
209
100
AcDbEntity
8
0
100
AcDbSpline
70
0
71
2
72
6
73
3
74
0
42
0.000000001
43
0.0000000001
44
0.0000000001
40
0
40
0
40
0
40
1
40
1
40
1
10
-169.41856222427253
20
87.881375479825024
30
0
10
-169.18711271142686
20
87.881580933449925
30
0
10
-169.04261298373575
20
88.058700497315371
30
0
0
SPLINE
5
210
100
AcDbEntity
8
0
100
AcDbSpline
70
0
71
2
72
6
73
3
74
0
42
0.000000001
43
0.0000000001
44
0.0000000001
40
0
40
0
40
0
40
1
40
1
40
1
10
-169.04261298373575
20
88.058700497315371
30
0
10
-168.89981556402873
20
88.235818550072224
30
0
10
-168.90012072330711
20
88.579589395464978
30
0
0
SPLINE
5
211
100
AcDbEntity
8
0
100
AcDbSpline
70
0
71
2
72
6
73
3
74
0
42
0.000000001
43
0.0000000001
44
0.0000000001
40
0
40
0
40
0
40
1
40
1
40
1
10
-169.36046207157531
20
87.614238399988125
30
0
10
-169.56978873318232
20
87.614052584425636
30
0
10
-169.71111951276538
20
87.702422774611719
30
0
0
SPLINE
5
212
100
AcDbEntity
8
0
100
AcDbSpline
70
0
71
2
72
6
73
3
74
0
42
0.000000001
43
0.0000000001
44
0.0000000001
40
0
40
0
40
0
40
1
40
1
40
1
10
-169.71111951276538
20
87.702422774611719
30
0
10
-169.79285296680496
20
87.753405195919072
30
0
10
-169.89677844554348
20
87.880950975772535
30
0
0
LINE
5
213
100
AcDbEntity
8
0
100
AcDbLine
10
-169.89677844554348
20
87.880950975772535
30
0
11
-169.89596116198865
21
86.96025716613417
31
0
0
LINE
5
214
100
AcDbEntity
8
0
100
AcDbLine
10
-169.89596116198865
20
86.96025716613417
30
0
11
-170.19037938095181
21
86.959995816306375
31
0
0
LINE
5
215
100
AcDbEntity
8
0
100
AcDbLine
10
-170.19037938095181
20
86.959995816306375
30
0
11
-170.19260613887073
21
89.468503689044752
31
0
0
LINE
5
216
100
AcDbEntity
8
0
100
AcDbLine
10
-170.1926061388707
20
89.468503689044752
30
0
11
-169.91690734727044
21
89.468748421969082
31
0
0
LINE
5
217
100
AcDbEntity
8
0
100
AcDbLine
10
-169.91690734727044
20
89.468748421969082
30
0
11
-169.91668225452491
21
89.215174865792335
31
0
0
SPLINE
5
218
100
AcDbEntity
8
0
100
AcDbSpline
70
0
71
2
72
6
73
3
74
0
42
0.000000001
43
0.0000000001
44
0.0000000001
40
0
40
0
40
0
40
1
40
1
40
1
10
-169.91668225452491
20
89.215174865792335
30
0
10
-169.80961621178881
20
89.38375144195264
30
0
10
-169.66332472708768
20
89.458762647041112
30
0
0
SPLINE
5
219
100
AcDbEntity
8
0
100
AcDbSpline
70
0
71
2
72
6
73
3
74
0
42
0.000000001
43
0.0000000001
44
0.0000000001
40
0
40
0
40
0
40
1
40
1
40
1
10
-169.66332472708768
20
89.458762647041112
30
0
10
-169.51703324185743
20
89.533773256083364
30
0
10
-169.32812950768982
20
89.533940942575612
30
0
0
SPLINE
5
220
100
AcDbEntity
8
0
100
AcDbSpline
70
0
71
2
72
6
73
3
74
0
42
0.000000001
43
0.0000000001
44
0.0000000001
40
0
40
0
40
0
40
1
40
1
40
1
10
-169.32812950768982
20
89.533940942575612
30
0
10
-169.02350101709939
20
89.534211355880316
30
0
10
-168.8003340561352
20
89.279133391917838
30
0
0
SPLINE
5
221
100
AcDbEntity
8
0
100
AcDbSpline
70
0
71
2
72
6
73
3
74
0
42
0.000000001
43
0.0000000001
44
0.0000000001
40
0
40
0
40
0
40
1
40
1
40
1
10
-168.8003340561352
20
89.279133391917838
30
0
10
-168.57716439302823
20
89.022354313121909
30
0
10
-168.57678672011443
20
88.59689473820255
30
0
0
SPLINE
5
222
100
AcDbEntity
8
0
100
AcDbSpline
70
0
71
2
72
6
73
3
74
0
42
0.000000001
43
0.0000000001
44
0.0000000001
40
0
40
0
40
0
40
1
40
1
40
1
10
-168.57678672011443
20
88.59689473820255
30
0
10
-168.57643321858876
20
88.198664938474153
30
0
10
-168.77869351221216
20
87.90747096724661
30
0
0
SPLINE
5
223
100
AcDbEntity
8
0
100
AcDbSpline
70
0
71
2
72
6
73
3
74
0
42
0.000000001
43
0.0000000001
44
0.0000000001
40
0
40
0
40
0
40
1
40
1
40
1
10
-168.77869351221216
20
87.90747096724661
30
0
10
-168.98265460324009
20
87.614573772972633
30
0
10
-169.36046207157531
20
87.614238399988125
30
0
0
SPLINE
5
224
100
AcDbEntity
8
0
100
AcDbSpline
70
0
71
2
72
6
73
3
74
0
42
0.000000001
43
0.0000000001
44
0.0000000001
40
0
40
0
40
0
40
1
40
1
40
1
10
-171.40266023907859
20
87.603916116454727
30
0
10
-171.59666970510602
20
87.603743897694926
30
0
10
-171.77884697680662
20
87.695481553755798
30
0
0
SPLINE
5
225
100
AcDbEntity
8
0
100
AcDbSpline
70
0
71
2
72
6
73
3
74
0
42
0.000000001
43
0.0000000001
44
0.0000000001
40
0
40
0
40
0
40
1
40
1
40
1
10
-171.77884697680662
20
87.695481553755798
30
0
10
-171.96102392975553
20
87.785517198797464
30
0
10
-172.0564553596115
20
87.930088843548702
30
0
0
SPLINE
5
226
100
AcDbEntity
8
0
100
AcDbSpline
70
0
71
2
72
6
73
3
74
0
42
0.000000001
43
0.0000000001
44
0.0000000001
40
0
40
0
40
0
40
1
40
1
40
1
10
-172.0564553596115
20
87.930088843548702
30
0
10
-172.14847851483708
20
88.067856064602978
30
0
10
-172.17927367656515
20
88.251627471467998
30
0
0
SPLINE
5
227
100
AcDbEntity
8
0
100
AcDbSpline
70
0
71
2
72
6
73
3
74
0
42
0.000000001
43
0.0000000001
44
0.0000000001
40
0
40
0
40
0
40
1
40
1
40
1
10
-172.17927367656515
20
88.251627471467998
30
0
10
-172.20661285838972
20
88.377538926292544
30
0
10
-172.20685759025585
20
88.653236525800381
30
0
0
LINE
5
228
100
AcDbEntity
8
0
100
AcDbLine
10
-172.20685759025585
20
88.653236525800381
30
0
11
-170.87091656348716
21
88.65442241694025
31
0
0
SPLINE
5
229
100
AcDbEntity
8
0
100
AcDbSpline
70
0
71
2
72
6
73
3
74
0
42
0.000000001
43
0.0000000001
44
0.0000000001
40
0
40
0
40
0
40
1
40
1
40
1
10
-170.87091656348716
20
88.65442241694025
30
0
10
-170.87967196219751
20
88.931814771005634
30
0
10
-171.00235431641539
20
89.100187403591462
30
0
0
SPLINE
5
230
100
AcDbEntity
8
0
100
AcDbSpline
70
0
71
2
72
6
73
3
74
0
42
0.000000001
43
0.0000000001
44
0.0000000001
40
0
40
0
40
0
40
1
40
1
40
1
10
-171.00235431641539
20
89.100187403591462
30
0
10
-171.1250339684905
20
89.266858921343783
30
0
10
-171.38201214063542
20
89.266630806381087
30
0
0
SPLINE
5
231
100
AcDbEntity
8
0
100
AcDbSpline
70
0
71
2
72
6
73
3
74
0
42
0.000000001
43
0.0000000001
44
0.0000000001
40
0
40
0
40
0
40
1
40
1
40
1
10
-171.38201214063542
20
89.266630806381087
30
0
10
-171.62197080921672
20
89.266417799329659
30
0
10
-171.76478484688539
20
89.108020366028114
30
0
0
SPLINE
5
232
100
AcDbEntity
8
0
100
AcDbSpline
70
0
71
2
72
6
73
3
74
0
42
0.000000001
43
0.0000000001
44
0.0000000001
40
0
40
0
40
0
40
1
40
1
40
1
10
-171.76478484688539
20
89.108020366028114
30
0
10
-171.84639140272429
20
89.016048255721699
30
0
10
-171.88032076658675
20
88.895187553732882
30
0
0
LINE
5
233
100
AcDbEntity
8
0
100
AcDbLine
10
-171.88032076658675
20
88.895187553732882
30
0
11
-172.18154702539385
21
88.894920160528955
31
0
0
SPLINE
5
234
100
AcDbEntity
8
0
100
AcDbSpline
70
0
71
2
72
6
73
3
74
0
42
0.000000001
43
0.0000000001
44
0.0000000001
40
0
40
0
40
0
40
1
40
1
40
1
10
-172.18154702539385
20
88.894920160528969
30
0
10
-172.16972238475805
20
88.99533948910836
30
0
10
-172.10175941911214
20
89.119633828679071
30
0
0
SPLINE
5
235
100
AcDbEntity
8
0
100
AcDbSpline
70
0
71
2
72
6
73
3
74
0
42
0.000000001
43
0.0000000001
44
0.0000000001
40
0
40
0
40
0
40
1
40
1
40
1
10
-172.10175941911214
20
89.119633828679071
30
0
10
-172.03549605877839
20
89.242224946261487
30
0
10
-171.95217630135369
20
89.320583679022832
30
0
0
SPLINE
5
236
100
AcDbEntity
8
0
100
AcDbSpline
70
0
71
2
72
6
73
3
74
0
42
0.000000001
43
0.0000000001
44
0.0000000001
40
0
40
0
40
0
40
1
40
1
40
1
10
-171.95217630135369
20
89.320583679022832
30
0
10
-171.81274604896927
20
89.456854643880504
30
0
10
-171.60686630273062
20
89.504688947763754
30
0
0
SPLINE
5
237
100
AcDbEntity
8
0
100
AcDbSpline
70
0
71
2
72
6
73
3
74
0
42
0.000000001
43
0.0000000001
44
0.0000000001
40
0
40
0
40
0
40
1
40
1
40
1
10
-171.60686630273062
20
89.504688947763754
30
0
10
-171.49627025693431
20
89.532016322511566
30
0
10
-171.35672034128874
20
89.532140198495028
30
0
0
SPLINE
5
238
100
AcDbEntity
8
0
100
AcDbSpline
70
0
71
2
72
6
73
3
74
0
42
0.000000001
43
0.0000000001
44
0.0000000001
40
0
40
0
40
0
40
1
40
1
40
1
10
-171.35672034128874
20
89.532140198495028
30
0
10
-171.01635291977175
20
89.532442336614437
30
0
10
-170.77957862463862
20
89.285885614081678
30
0
0
SPLINE
5
239
100
AcDbEntity
8
0
100
AcDbSpline
70
0
71
2
72
6
73
3
74
0
42
0.000000001
43
0.0000000001
44
0.0000000001
40
0
40
0
40
0
40
1
40
1
40
1
10
-170.77957862463862
20
89.285885614081678
30
0
10
-170.54280281945512
20
89.037627775657228
30
0
10
-170.5424070185293
20
88.591746465390898
30
0
0
SPLINE
5
240
100
AcDbEntity
8
0
100
AcDbSpline
70
0
71
2
72
6
73
3
74
0
42
0.000000001
43
0.0000000001
44
0.0000000001
40
0
40
0
40
0
40
1
40
1
40
1
10
-170.5424070185293
20
88.591746465390898
30
0
10
-170.54201725992135
20
88.152672002876088
30
0
10
-170.78003039976102
20
87.878465215409491
30
0
0
SPLINE
5
241
100
AcDbEntity
8
0
100
AcDbSpline
70
0
71
2
72
6
73
3
74
0
42
0.000000001
43
0.0000000001
44
0.0000000001
40
0
40
0
40
0
40
1
40
1
40
1
10
-170.78003039976102
20
87.878465215409491
30
0
10
-171.01804473089942
20
87.604257532815382
30
0
10
-171.40266023907859
20
87.603916116454727
30
0
0
SPLINE
5
242
100
AcDbEntity
8
0
100
AcDbSpline
70
0
71
2
72
6
73
3
74
0
42
0.000000001
43
0.0000000001
44
0.0000000001
40
0
40
0
40
0
40
1
40
1
40
1
10
-171.8918027992986
20
88.410153314078741
30
0
10
-171.87290662143744
20
88.211055329141104
30
0
10
-171.80472762705199
20
88.091986980208517
30
0
0
SPLINE
5
243
100
AcDbEntity
8
0
100
AcDbSpline
70
0
71
2
72
6
73
3
74
0
42
0.000000001
43
0.0000000001
44
0.0000000001
40
0
40
0
40
0
40
1
40
1
40
1
10
-171.80472762705199
20
88.091986980208517
30
0
10
-171.67859501676148
20
87.870859530337697
30
0
10
-171.38417679779832
20
87.871120880165492
30
0
0
SPLINE
5
244
100
AcDbEntity
8
0
100
AcDbSpline
70
0
71
2
72
6
73
3
74
0
42
0.000000001
43
0.0000000001
44
0.0000000001
40
0
40
0
40
0
40
1
40
1
40
1
10
-171.38417679779832
20
87.871120880165492
30
0
10
-171.17314902029963
20
87.871308205778362
30
0
10
-171.03033045142161
20
88.024601099312477
30
0
0
SPLINE
5
245
100
AcDbEntity
8
0
100
AcDbSpline
70
0
71
2
72
6
73
3
74
0
42
0.000000001
43
0.0000000001
44
0.0000000001
40
0
40
0
40
0
40
1
40
1
40
1
10
-171.03033045142161
20
88.024601099312477
30
0
10
-170.88751037090589
20
88.176191088816282
30
0
10
-170.87920969048326
20
88.411052175010454
30
0
0
LINE
5
246
100
AcDbEntity
8
0
100
AcDbLine
10
-170.87920969048326
20
88.411052175010454
30
0
11
-171.8918027992986
21
88.410153314078741
31
0
0
SPLINE
5
247
100
AcDbEntity
8
0
100
AcDbSpline
70
0
71
2
72
6
73
3
74
0
42
0.000000001
43
0.0000000001
44
0.0000000001
40
0
40
0
40
0
40
1
40
1
40
1
10
-172.76527653936793
20
88.894401994199143
30
0
10
-172.7790261970776
20
89.047555308850519
30
0
10
-172.84206741630143
20
89.129187546128009
30
0
0
SPLINE
5
248
100
AcDbEntity
8
0
100
AcDbSpline
70
0
71
2
72
6
73
3
74
0
42
0.000000001
43
0.0000000001
44
0.0000000001
40
0
40
0
40
0
40
1
40
1
40
1
10
-172.84206741630143
20
89.129187546128009
30
0
10
-172.95792479528487
20
89.277145081730978
30
0
10
-173.24383147432755
20
89.276891287446119
30
0
0
SPLINE
5
249
100
AcDbEntity
8
0
100
AcDbSpline
70
0
71
2
72
6
73
3
74
0
42
0.000000001
43
0.0000000001
44
0.0000000001
40
0
40
0
40
0
40
1
40
1
40
1
10
-173.24383147432755
20
89.276891287446119
30
0
10
-173.41401458903985
20
89.276740218915506
30
0
10
-173.5432916575632
20
89.203446426547814
30
0
0
SPLINE
5
250
100
AcDbEntity
8
0
100
AcDbSpline
70
0
71
2
72
6
73
3
74
0
42
0.000000001
43
0.0000000001
44
0.0000000001
40
0
40
0
40
0
40
1
40
1
40
1
10
-173.5432916575632
20
89.203446426547814
30
0
10
-173.67256244660825
20
89.128450330428819
30
0
10
-173.67242497382216
20
88.973583219203661
30
0
0
SPLINE
5
251
100
AcDbEntity
8
0
100
AcDbSpline
70
0
71
2
72
6
73
3
74
0
42
0.000000001
43
0.0000000001
44
0.0000000001
40
0
40
0
40
0
40
1
40
1
40
1
10
-173.67242497382216
20
88.973583219203661
30
0
10
-173.67232073643021
20
88.856156750842956
30
0
10
-173.56845417452445
20
88.794982504936513
30
0
0
SPLINE
5
252
100
AcDbEntity
8
0
100
AcDbSpline
70
0
71
2
72
6
73
3
74
0
42
0.000000001
43
0.0000000001
44
0.0000000001
40
0
40
0
40
0
40
1
40
1
40
1
10
-173.56845417452445
20
88.794982504936513
30
0
10
-173.50205000122941
20
88.757600778375718
30
0
10
-173.30629560933062
20
88.708421284710127
30
0
0
LINE
5
253
100
AcDbEntity
8
0
100
AcDbLine
10
-173.30629560933062
20
88.708421284710127
30
0
11
-173.06287794021597
21
88.647371511891549
31
0
0
SPLINE
5
254
100
AcDbEntity
8
0
100
AcDbSpline
70
0
71
2
72
6
73
3
74
0
42
0.000000001
43
0.0000000001
44
0.0000000001
40
0
40
0
40
0
40
1
40
1
40
1
10
-173.06287794021591
20
88.647371511891549
30
0
10
-172.82967475597991
20
88.589716098413618
30
0
10
-172.71899228231663
20
88.518337027151631
30
0
0
SPLINE
5
255
100
AcDbEntity
8
0
100
AcDbSpline
70
0
71
2
72
6
73
3
74
0
42
0.000000001
43
0.0000000001
44
0.0000000001
40
0
40
0
40
0
40
1
40
1
40
1
10
-172.71899228231663
20
88.518337027151631
30
0
10
-172.52146911164533
20
88.394277758865755
30
0
10
-172.52127423260592
20
88.174740825631446
30
0
0
SPLINE
5
256
100
AcDbEntity
8
0
100
AcDbSpline
70
0
71
2
72
6
73
3
74
0
42
0.000000001
43
0.0000000001
44
0.0000000001
40
0
40
0
40
0
40
1
40
1
40
1
10
-172.52127423260592
20
88.174740825631446
30
0
10
-172.52104460759284
20
87.916061537594857
30
0
10
-172.70640172100315
20
87.755924328257876
30
0
0
SPLINE
5
257
100
AcDbEntity
8
0
100
AcDbSpline
70
0
71
2
72
6
73
3
74
0
42
0.000000001
43
0.0000000001
44
0.0000000001
40
0
40
0
40
0
40
1
40
1
40
1
10
-172.70640172100315
20
87.755924328257876
30
0
10
-172.89346114213294
20
87.595785309789207
30
0
10
-173.20830228853552
20
87.595505830891199
30
0
0
SPLINE
5
258
100
AcDbEntity
8
0
100
AcDbSpline
70
0
71
2
72
6
73
3
74
0
42
0.000000001
43
0.0000000001
44
0.0000000001
40
0
40
0
40
0
40
1
40
1
40
1
10
-173.20830228853552
20
87.595505830891199
30
0
10
-173.62014637981318
20
87.59514024420055
30
0
10
-173.80246016883871
20
87.836639872498324
30
0
0
SPLINE
5
259
100
AcDbEntity
8
0
100
AcDbSpline
70
0
71
2
72
6
73
3
74
0
42
0.000000001
43
0.0000000001
44
0.0000000001
40
0
40
0
40
0
40
1
40
1
40
1
10
-173.80246016883871
20
87.836639872498324
30
0
10
-173.91661738686255
20
87.989703461093725
30
0
10
-173.91336988280113
20
88.166697637867117
30
0
0
LINE
5
260
100
AcDbEntity
8
0
100
AcDbLine
10
-173.91336988280113
20
88.166697637867117
30
0
11
-173.62405858779024
21
88.166954454369147
31
0
0
SPLINE
5
261
100
AcDbEntity
8
0
100
AcDbSpline
70
0
71
2
72
6
73
3
74
0
42
0.000000001
43
0.0000000001
44
0.0000000001
40
0
40
0
40
0
40
1
40
1
40
1
10
-173.62405858779024
20
88.166954454369147
30
0
10
-173.61545727982769
20
88.06314983098423
30
0
10
-173.55071073146078
20
87.978115680939553
30
0
0
SPLINE
5
262
100
AcDbEntity
8
0
100
AcDbSpline
70
0
71
2
72
6
73
3
74
0
42
0.000000001
43
0.0000000001
44
0.0000000001
40
0
40
0
40
0
40
1
40
1
40
1
10
-173.55071073146078
20
87.978115680939553
30
0
10
-173.44509137177005
20
87.857378853875986
30
0
10
-173.18470977574935
20
87.857609989997655
30
0
0
SPLINE
5
263
100
AcDbEntity
8
0
100
AcDbSpline
70
0
71
2
72
6
73
3
74
0
42
0.000000001
43
0.0000000001
44
0.0000000001
40
0
40
0
40
0
40
1
40
1
40
1
10
-173.18470977574935
20
87.857609989997655
30
0
10
-173.0111220450689
20
87.857764080745426
30
0
10
-172.92098486477809
20
87.924215680167137
30
0
0
SPLINE
5
264
100
AcDbEntity
8
0
100
AcDbSpline
70
0
71
2
72
6
73
3
74
0
42
0.000000001
43
0.0000000001
44
0.0000000001
40
0
40
0
40
0
40
1
40
1
40
1
10
-172.92098486477809
20
87.924215680167137
30
0
10
-172.83254760828652
20
87.990665770596635
30
0
10
-172.83264429278103
20
88.099583679267965
30
0
0
SPLINE
5
265
100
AcDbEntity
8
0
100
AcDbSpline
70
0
71
2
72
6
73
3
74
0
42
0.000000001
43
0.0000000001
44
0.0000000001
40
0
40
0
40
0
40
1
40
1
40
1
10
-172.83264429278103
20
88.099583679267965
30
0
10
-172.83275004128157
20
88.218712455612774
30
0
10
-172.95023936269638
20
88.290085484556826
30
0
0
SPLINE
5
266
100
AcDbEntity
8
0
100
AcDbSpline
70
0
71
2
72
6
73
3
74
0
42
0.000000001
43
0.0000000001
44
0.0000000001
40
0
40
0
40
0
40
1
40
1
40
1
10
-172.95023936269638
20
88.290085484556826
30
0
10
-173.01835037571394
20
88.332570835822651
30
0
10
-173.15112333882706
20
88.364787912103509
30
0
0
LINE
5
267
100
AcDbEntity
8
0
100
AcDbLine
10
-173.15112333882706
20
88.364787912103509
30
0
11
-173.35368696266227
21
88.413961361334771
31
0
0
SPLINE
5
268
100
AcDbEntity
8
0
100
AcDbSpline
70
0
71
2
72
6
73
3
74
0
42
0.000000001
43
0.0000000001
44
0.0000000001
40
0
40
0
40
0
40
1
40
1
40
1
10
-173.35368696266227
20
88.413961361334771
30
0
10
-173.68391273089398
20
88.493654710351166
30
0
10
-173.79630053370033
20
88.568435694380341
30
0
0
SPLINE
5
269
100
AcDbEntity
8
0
100
AcDbSpline
70
0
71
2
72
6
73
3
74
0
42
0.000000001
43
0.0000000001
44
0.0000000001
40
0
40
0
40
0
40
1
40
1
40
1
10
-173.79630053370033
20
88.568435694380341
30
0
10
-173.97509942625413
20
88.685704134713745
30
0
10
-173.97532300842016
20
88.937575978952609
30
0
0
SPLINE
5
270
100
AcDbEntity
8
0
100
AcDbSpline
70
0
71
2
72
6
73
3
74
0
42
0.000000001
43
0.0000000001
44
0.0000000001
40
0
40
0
40
0
40
1
40
1
40
1
10
-173.97532300842016
20
88.937575978952609
30
0
10
-173.97553903715965
20
89.180938667455877
30
0
10
-173.79019464668215
20
89.35809448840358
30
0
0
SPLINE
5
271
100
AcDbEntity
8
0
100
AcDbSpline
70
0
71
2
72
6
73
3
74
0
42
0.000000001
43
0.0000000001
44
0.0000000001
40
0
40
0
40
0
40
1
40
1
40
1
10
-173.79019464668215
20
89.35809448840358
30
0
10
-173.60655256418875
20
89.535248798242705
30
0
10
-173.2287450958535
20
89.535584171227214
30
0
0
SPLINE
5
272
100
AcDbEntity
8
0
100
AcDbSpline
70
0
71
2
72
6
73
3
74
0
42
0.000000001
43
0.0000000001
44
0.0000000001
40
0
40
0
40
0
40
1
40
1
40
1
10
-173.2287450958535
20
89.535584171227214
30
0
10
-172.82200554434326
20
89.535945226708478
30
0
10
-172.65165927487718
20
89.352297696885117
30
0
0
SPLINE
5
273
100
AcDbEntity
8
0
100
AcDbSpline
70
0
71
2
72
6
73
3
74
0
42
0.000000001
43
0.0000000001
44
0.0000000001
40
0
40
0
40
0
40
1
40
1
40
1
10
-172.65165927487718
20
89.352297696885117
30
0
10
-172.48301141863089
20
89.166946946131702
30
0
10
-172.47085832040477
20
88.894663344026924
30
0
0
LINE
5
274
100
AcDbEntity
8
0
100
AcDbLine
10
-172.47085832040477
20
88.894663344026924
30
0
11
-172.76527653936793
21
88.894401994199143
31
0
0
LINE
5
275
100
AcDbEntity
8
0
100
AcDbLine
10
-174.3247562351612
20
87.650675783087365
30
0
11
-174.63619276559558
21
87.6503993264065
31
0
0
LINE
5
276
100
AcDbEntity
8
0
100
AcDbLine
10
-174.63619276559558
20
87.650399326406529
30
0
11
-174.63780316184614
21
89.464557766538547
31
0
0
LINE
5
277
100
AcDbEntity
8
0
100
AcDbLine
10
-174.63780316184614
20
89.464557766538547
30
0
11
-174.32636663141176
21
89.464834223219398
31
0
0
LINE
5
278
100
AcDbEntity
8
0
100
AcDbLine
10
-174.32636663141176
20
89.464834223219398
30
0
11
-174.3247562351612
21
87.65067578308738
31
0
0
LINE
5
279
100
AcDbEntity
8
0
100
AcDbLine
10
-174.32414742665483
20
86.964835208193549
30
0
11
-174.63558395708924
21
86.964558751512698
31
0
0
LINE
5
280
100
AcDbEntity
8
0
100
AcDbLine
10
-174.63558395708924
20
86.964558751512698
30
0
11
-174.63589213805568
21
87.311733616827411
31
0
0
LINE
5
281
100
AcDbEntity
8
0
100
AcDbLine
10
-174.63589213805565
20
87.311733616827411
30
0
11
-174.32445560762125
21
87.312010073508262
31
0
0
LINE
5
282
100
AcDbEntity
8
0
100
AcDbLine
10
-174.32445560762125
20
87.312010073508262
30
0
11
-174.3241474266548
21
86.964835208193549
31
0
0
SPLINE
5
283
100
AcDbEntity
8
0
100
AcDbSpline
70
0
71
2
72
6
73
3
74
0
42
0.000000001
43
0.0000000001
44
0.0000000001
40
0
40
0
40
0
40
1
40
1
40
1
10
-175.74235152304198
20
87.608573309984592
30
0
10
-175.95678510860125
20
87.608382961096339
30
0
10
-176.11685042240026
20
87.713754845850204
30
0
0
SPLINE
5
284
100
AcDbEntity
8
0
100
AcDbSpline
70
0
71
2
72
6
73
3
74
0
42
0.000000001
43
0.0000000001
44
0.0000000001
40
0
40
0
40
0
40
1
40
1
40
1
10
-176.11685042240026
20
87.713754845850204
30
0
10
-176.20369716172621
20
87.773241890625613
30
0
10
-176.29399447508274
20
87.887184869635902
30
0
0
LINE
5
285
100
AcDbEntity
8
0
100
AcDbLine
10
-176.29399447508274
20
87.887184869635902
30
0
11
-176.29379053203732
21
87.657437068728115
31
0
0
LINE
5
286
100
AcDbEntity
8
0
100
AcDbLine
10
-176.29379053203735
20
87.657437068728115
30
0
11
-176.57629736348156
21
87.657186292427625
31
0
0
LINE
5
287
100
AcDbEntity
8
0
100
AcDbLine
10
-176.57629736348156
20
87.657186292427625
30
0
11
-176.5777687763665
21
89.31477590939663
31
0
0
SPLINE
5
288
100
AcDbEntity
8
0
100
AcDbSpline
70
0
71
2
72
6
73
3
74
0
42
0.000000001
43
0.0000000001
44
0.0000000001
40
0
40
0
40
0
40
1
40
1
40
1
10
-176.57776877636647
20
89.31477590939663
30
0
10
-176.57807695733294
20
89.661950774711343
30
0
10
-176.47614534958331
20
89.862857729608692
30
0
0
SPLINE
5
289
100
AcDbEntity
8
0
100
AcDbSpline
70
0
71
2
72
6
73
3
74
0
42
0.000000001
43
0.0000000001
44
0.0000000001
40
0
40
0
40
0
40
1
40
1
40
1
10
-176.47614534958331
20
89.862857729608692
30
0
10
-176.28586863809818
20
90.234027547793204
30
0
10
-175.75659629032117
20
90.234497373463086
30
0
0
SPLINE
5
290
100
AcDbEntity
8
0
100
AcDbSpline
70
0
71
2
72
6
73
3
74
0
42
0.000000001
43
0.0000000001
44
0.0000000001
40
0
40
0
40
0
40
1
40
1
40
1
10
-175.75659629032117
20
90.234497373463086
30
0
10
-175.46217807135801
20
90.234758723290867
30
0
10
-175.26124273182108
20
90.102193917532745
30
0
0
SPLINE
5
291
100
AcDbEntity
8
0
100
AcDbSpline
70
0
71
2
72
6
73
3
74
0
42
0.000000001
43
0.0000000001
44
0.0000000001
40
0
40
0
40
0
40
1
40
1
40
1
10
-175.26124273182108
20
90.102193917532745
30
0
10
-175.06031128704851
20
89.971330821596126
30
0
10
-175.03623447950719
20
89.690548641515846
30
0
0
LINE
5
292
100
AcDbEntity
8
0
100
AcDbLine
10
-175.03623447950719
20
89.690548641515846
30
0
11
-175.34767100994159
21
89.690272184834981
31
0
0
SPLINE
5
293
100
AcDbEntity
8
0
100
AcDbSpline
70
0
71
2
72
6
73
3
74
0
42
0.000000001
43
0.0000000001
44
0.0000000001
40
0
40
0
40
0
40
1
40
1
40
1
10
-175.34767100994159
20
89.690272184834981
30
0
10
-175.36990501502459
20
89.812784744876737
30
0
10
-175.43633486975818
20
89.879097362520127
30
0
0
SPLINE
5
294
100
AcDbEntity
8
0
100
AcDbSpline
70
0
71
2
72
6
73
3
74
0
42
0.000000001
43
0.0000000001
44
0.0000000001
40
0
40
0
40
0
40
1
40
1
40
1
10
-175.43633486975818
20
89.879097362520127
30
0
10
-175.54023768821708
20
89.981115675166748
30
0
10
-175.76317804532715
20
89.980917774968376
30
0
0
SPLINE
5
295
100
AcDbEntity
8
0
100
AcDbSpline
70
0
71
2
72
6
73
3
74
0
42
0.000000001
43
0.0000000001
44
0.0000000001
40
0
40
0
40
0
40
1
40
1
40
1
10
-175.76317804532715
20
89.980917774968376
30
0
10
-176.11546043064038
20
89.98060506014707
30
0
10
-176.22415658621219
20
89.732039956347634
30
0
0
SPLINE
5
296
100
AcDbEntity
8
0
100
AcDbSpline
70
0
71
2
72
6
73
3
74
0
42
0.000000001
43
0.0000000001
44
0.0000000001
40
0
40
0
40
0
40
1
40
1
40
1
10
-176.22415658621219
20
89.732039956347634
30
0
10
-176.28869768095416
20
89.58562459354664
30
0
10
-176.28325689459686
20
89.209523370475068
30
0
0
SPLINE
5
297
100
AcDbEntity
8
0
100
AcDbSpline
70
0
71
2
72
6
73
3
74
0
42
0.000000001
43
0.0000000001
44
0.0000000001
40
0
40
0
40
0
40
1
40
1
40
1
10
-176.28325689459686
20
89.209523370475068
30
0
10
-176.19147998181691
20
89.349155460866513
30
0
10
-176.06220314939571
20
89.417343517141575
30
0
0
SPLINE
5
298
100
AcDbEntity
8
0
100
AcDbSpline
70
0
71
2
72
6
73
3
74
0
42
0.000000001
43
0.0000000001
44
0.0000000001
40
0
40
0
40
0
40
1
40
1
40
1
10
-176.06220314939571
20
89.417343517141575
30
0
10
-175.93292154913388
20
89.485532173695631
30
0
10
-175.72019265574355
20
89.485721009358898
30
0
0
SPLINE
5
299
100
AcDbEntity
8
0
100
AcDbSpline
70
0
71
2
72
6
73
3
74
0
42
0.000000001
43
0.0000000001
44
0.0000000001
40
0
40
0
40
0
40
1
40
1
40
1
10
-175.72019265574355
20
89.485721009358898
30
0
10
-175.42407451298115
20
89.485983868178863
30
0
10
-175.20094834083773
20
89.27685570281642
30
0
0
SPLINE
5
300
100
AcDbEntity
8
0
100
AcDbSpline
70
0
71
2
72
6
73
3
74
0
42
0.000000001
43
0.0000000001
44
0.0000000001
40
0
40
0
40
0
40
1
40
1
40
1
10
-175.20094834083773
20
89.27685570281642
30
0
10
-174.97952058191402
20
89.066024316523936
30
0
10
-174.97909003501448
20
88.581000651455298
30
0
0
SPLINE
5
301
100
AcDbEntity
8
0
100
AcDbSpline
70
0
71
2
72
6
73
3
74
0
42
0.000000001
43
0.0000000001
44
0.0000000001
40
0
40
0
40
0
40
1
40
1
40
1
10
-174.97909003501448
20
88.581000651455298
30
0
10
-174.97868365897403
20
88.123206165531371
30
0
10
-175.20139828636445
20
87.866031283164091
30
0
0
SPLINE
5
302
100
AcDbEntity
8
0
100
AcDbSpline
70
0
71
2
72
6
73
3
74
0
42
0.000000001
43
0.0000000001
44
0.0000000001
40
0
40
0
40
0
40
1
40
1
40
1
10
-175.20139828636445
20
87.866031283164091
30
0
10
-175.42581045284012
20
87.608854297874799
30
0
10
-175.74235152304198
20
87.608573309984592
30
0
0
SPLINE
5
303
100
AcDbEntity
8
0
100
AcDbSpline
70
0
71
2
72
6
73
3
74
0
42
0.000000001
43
0.0000000001
44
0.0000000001
40
0
40
0
40
0
40
1
40
1
40
1
10
-176.29457760162148
20
88.544093957400918
30
0
10
-176.29427697461065
20
88.20542884386802
30
0
10
-176.15458322484483
20
88.042176451832518
30
0
0
SPLINE
5
304
100
AcDbEntity
8
0
100
AcDbSpline
70
0
71
2
72
6
73
3
74
0
42
0.000000001
43
0.0000000001
44
0.0000000001
40
0
40
0
40
0
40
1
40
1
40
1
10
-176.15458322484483
20
88.042176451832518
30
0
10
-176.01488709036505
20
87.878923465867189
30
0
10
-175.79875358100651
20
87.879115323747641
30
0
0
SPLINE
5
305
100
AcDbEntity
8
0
100
AcDbSpline
70
0
71
2
72
6
73
3
74
0
42
0.000000001
43
0.0000000001
44
0.0000000001
40
0
40
0
40
0
40
1
40
1
40
1
10
-175.79875358100651
20
87.879115323747641
30
0
10
-175.47540566305315
20
87.879402353955797
30
0
10
-175.35654638600889
20
88.182435476625983
30
0
0
SPLINE
5
306
100
AcDbEntity
8
0
100
AcDbSpline
70
0
71
2
72
6
73
3
74
0
42
0.000000001
43
0.0000000001
44
0.0000000001
40
0
40
0
40
0
40
1
40
1
40
1
10
-175.35654638600889
20
88.182435476625983
30
0
10
-175.29371881133972
20
88.344165929968156
30
0
10
-175.29395145751178
20
88.606248641880526
30
0
0
SPLINE
5
307
100
AcDbEntity
8
0
100
AcDbSpline
70
0
71
2
72
6
73
3
74
0
42
0.000000001
43
0.0000000001
44
0.0000000001
40
0
40
0
40
0
40
1
40
1
40
1
10
-175.29395145751178
20
88.606248641880526
30
0
10
-175.29422489250459
20
88.914281152392931
30
0
10
-175.41860351238859
20
89.075845426118633
30
0
0
SPLINE
5
308
100
AcDbEntity
8
0
100
AcDbSpline
70
0
71
2
72
6
73
3
74
0
42
0.000000001
43
0.0000000001
44
0.0000000001
40
0
40
0
40
0
40
1
40
1
40
1
10
-175.41860351238859
20
89.075845426118633
30
0
10
-175.54468292967726
20
89.235706476797844
30
0
10
-175.75570951508354
20
89.235519152243199
30
0
0
SPLINE
5
309
100
AcDbEntity
8
0
100
AcDbSpline
70
0
71
2
72
6
73
3
74
0
42
0.000000001
43
0.0000000001
44
0.0000000001
40
0
40
0
40
0
40
1
40
1
40
1
10
-175.75570951508354
20
89.235519152243199
30
0
10
-176.08586666497325
20
89.2352260776007
30
0
10
-176.2200464777722
20
88.937285091045879
30
0
0
SPLINE
5
310
100
AcDbEntity
8
0
100
AcDbSpline
70
0
71
2
72
6
73
3
74
0
42
0.000000001
43
0.0000000001
44
0.0000000001
40
0
40
0
40
0
40
1
40
1
40
1
10
-176.2200464777722
20
88.937285091045879
30
0
10
-176.29477701292842
20
88.768736622495069
30
0
10
-176.29457760162148
20
88.544093957400918
30
0
0
LINE
5
311
100
AcDbEntity
8
0
100
AcDbLine
10
-177.03747897407118
20
87.639758286792073
30
0
11
-177.32849257706616
21
87.639499959181464
31
0
0
LINE
5
312
100
AcDbEntity
8
0
100
AcDbLine
10
-177.32849257706616
20
87.63949995918145
30
0
11
-177.32872220234378
21
87.898179545241163
31
0
0
SPLINE
5
313
100
AcDbEntity
8
0
100
AcDbSpline
70
0
71
2
72
6
73
3
74
0
42
0.000000001
43
0.0000000001
44
0.0000000001
40
0
40
0
40
0
40
1
40
1
40
1
10
-177.32872220234378
20
87.898179545241163
30
0
10
-177.45792222549326
20
87.738091887533216
30
0
10
-177.602513550293
20
87.668187927529601
30
0
0
SPLINE
5
314
100
AcDbEntity
8
0
100
AcDbSpline
70
0
71
2
72
6
73
3
74
0
42
0.000000001
43
0.0000000001
44
0.0000000001
40
0
40
0
40
0
40
1
40
1
40
1
10
-177.602513550293
20
87.668187927529601
30
0
10
-177.74710964372701
20
87.59828426131628
30
0
10
-177.92410199037568
20
87.598127148351338
30
0
0
SPLINE
5
315
100
AcDbEntity
8
0
100
AcDbSpline
70
0
71
2
72
6
73
3
74
0
42
0.000000001
43
0.0000000001
44
0.0000000001
40
0
40
0
40
0
40
1
40
1
40
1
10
-177.92410199037568
20
87.598127148351338
30
0
10
-178.31211853824573
20
87.597782712948117
30
0
10
-178.44850522987869
20
87.868254023794719
30
0
0
SPLINE
5
316
100
AcDbEntity
8
0
100
AcDbSpline
70
0
71
2
72
6
73
3
74
0
42
0.000000001
43
0.0000000001
44
0.0000000001
40
0
40
0
40
0
40
1
40
1
40
1
10
-178.44850522987869
20
87.868254023794719
30
0
10
-178.52351913763908
20
88.016247219375558
30
0
10
-178.52376386950522
20
88.29194481888338
30
0
0
LINE
5
317
100
AcDbEntity
8
0
100
AcDbLine
10
-178.52376386950522
20
88.29194481888338
30
0
11
-178.52480171433166
21
89.46110734690798
31
0
0
LINE
5
318
100
AcDbEntity
8
0
100
AcDbLine
10
-178.52480171433166
20
89.46110734690798
30
0
11
-178.21336518389725
21
89.461383803588831
31
0
0
LINE
5
319
100
AcDbEntity
8
0
100
AcDbLine
10
-178.21336518389725
20
89.461383803588831
30
0
11
-178.21234546761195
21
88.312643606957437
31
0
0
SPLINE
5
320
100
AcDbEntity
8
0
100
AcDbSpline
70
0
71
2
72
6
73
3
74
0
42
0.000000001
43
0.0000000001
44
0.0000000001
40
0
40
0
40
0
40
1
40
1
40
1
10
-178.21234546761195
20
88.312643606957423
30
0
10
-178.21219741971123
20
88.14586332007471
30
0
10
-178.16275415216327
20
88.043797260697943
30
0
0
SPLINE
5
321
100
AcDbEntity
8
0
100
AcDbSpline
70
0
71
2
72
6
73
3
74
0
42
0.000000001
43
0.0000000001
44
0.0000000001
40
0
40
0
40
0
40
1
40
1
40
1
10
-178.16275415216327
20
88.043797260697943
30
0
10
-178.08091375753077
20
87.873686064103964
30
0
10
-177.86648255615631
20
87.873876410875795
30
0
0
SPLINE
5
322
100
AcDbEntity
8
0
100
AcDbSpline
70
0
71
2
72
6
73
3
74
0
42
0.000000001
43
0.0000000001
44
0.0000000001
40
0
40
0
40
0
40
1
40
1
40
1
10
-177.86648255615631
20
87.873876410875795
30
0
10
-177.75756345539259
20
87.873973096428529
30
0
10
-177.68780992429993
20
87.896158480117805
30
0
0
SPLINE
5
323
100
AcDbEntity
8
0
100
AcDbSpline
70
0
71
2
72
6
73
3
74
0
42
0.000000001
43
0.0000000001
44
0.0000000001
40
0
40
0
40
0
40
1
40
1
40
1
10
-177.68780992429993
20
87.896158480117805
30
0
10
-177.56190813164403
20
87.933710913271611
30
0
10
-177.46670243203678
20
88.046116846735515
30
0
0
SPLINE
5
324
100
AcDbEntity
8
0
100
AcDbSpline
70
0
71
2
72
6
73
3
74
0
42
0.000000001
43
0.0000000001
44
0.0000000001
40
0
40
0
40
0
40
1
40
1
40
1
10
-177.46670243203678
20
88.046116846735515
30
0
10
-177.390202481134
20
88.136382114673864
30
0
10
-177.3664610471063
20
88.233407998975011
30
0
0
SPLINE
5
325
100
AcDbEntity
8
0
100
AcDbSpline
70
0
71
2
72
6
73
3
74
0
42
0.000000001
43
0.0000000001
44
0.0000000001
40
0
40
0
40
0
40
1
40
1
40
1
10
-177.3664610471063
20
88.233407998975011
30
0
10
-177.34442041048317
20
88.328730660229681
30
0
10
-177.34457903296942
20
88.507423526723784
30
0
0
LINE
5
326
100
AcDbEntity
8
0
100
AcDbLine
10
-177.34457903296942
20
88.507423526723784
30
0
11
-177.3454265304949
21
89.462154257327725
31
0
0
LINE
5
327
100
AcDbEntity
8
0
100
AcDbLine
10
-177.3454265304949
20
89.462154257327725
30
0
11
-177.0390969240128
21
89.462426180682812
31
0
0
LINE
5
328
100
AcDbEntity
8
0
100
AcDbLine
10
-177.03909692401282
20
89.462426180682812
30
0
11
-177.03747897407118
21
87.639758286792073
31
0
0
SPLINE
5
329
100
AcDbEntity
8
0
100
AcDbSpline
70
0
71
2
72
6
73
3
74
0
42
0.000000001
43
0.0000000001
44
0.0000000001
40
0
40
0
40
0
40
1
40
1
40
1
10
-179.15907857044596
20
88.888726329610108
30
0
10
-179.17282822815562
20
89.041879644261485
30
0
10
-179.23587183156428
20
89.123511879422566
30
0
0
SPLINE
5
330
100
AcDbEntity
8
0
100
AcDbSpline
70
0
71
2
72
6
73
3
74
0
42
0.000000001
43
0.0000000001
44
0.0000000001
40
0
40
0
40
0
40
1
40
1
40
1
10
-179.23587183156428
20
89.123511879422566
30
0
10
-179.35172682636289
20
89.271469417141958
30
0
10
-179.63763588959043
20
89.271215620740691
30
0
0
SPLINE
5
331
100
AcDbEntity
8
0
100
AcDbSpline
70
0
71
2
72
6
73
3
74
0
42
0.000000001
43
0.0000000001
44
0.0000000001
40
0
40
0
40
0
40
1
40
1
40
1
10
-179.63763588959043
20
89.271215620740691
30
0
10
-179.80781900430273
20
89.271064552210078
30
0
10
-179.93709368864126
20
89.197770761958779
30
0
0
SPLINE
5
332
100
AcDbEntity
8
0
100
AcDbSpline
70
0
71
2
72
6
73
3
74
0
42
0.000000001
43
0.0000000001
44
0.0000000001
40
0
40
0
40
0
40
1
40
1
40
1
10
-179.93709368864126
20
89.197770761958779
30
0
10
-180.06636686187113
20
89.122774663723376
30
0
10
-180.06622938908498
20
88.967907552498232
30
0
0
SPLINE
5
333
100
AcDbEntity
8
0
100
AcDbSpline
70
0
71
2
72
6
73
3
74
0
42
0.000000001
43
0.0000000001
44
0.0000000001
40
0
40
0
40
0
40
1
40
1
40
1
10
-180.06622938908498
20
88.967907552498232
30
0
10
-180.06612515169309
20
88.850481084137527
30
0
10
-179.96225858978733
20
88.78930683823107
30
0
0
SPLINE
5
334
100
AcDbEntity
8
0
100
AcDbSpline
70
0
71
2
72
6
73
3
74
0
42
0.000000001
43
0.0000000001
44
0.0000000001
40
0
40
0
40
0
40
1
40
1
40
1
10
-179.96225858978733
20
88.78930683823107
30
0
10
-179.89585441649228
20
88.751925111670289
30
0
10
-179.70009764040864
20
88.702745620121078
30
0
0
LINE
5
335
100
AcDbEntity
8
0
100
AcDbLine
10
-179.70009764040864
20
88.702745620121078
30
0
11
-179.45668235547882
21
88.641695845186121
31
0
0
SPLINE
5
336
100
AcDbEntity
8
0
100
AcDbSpline
70
0
71
2
72
6
73
3
74
0
42
0.000000001
43
0.0000000001
44
0.0000000001
40
0
40
0
40
0
40
1
40
1
40
1
10
-179.45668235547882
20
88.641695845186121
30
0
10
-179.22347678705796
20
88.584040433824583
30
0
10
-179.11279669757954
20
88.512661360446202
30
0
0
SPLINE
5
337
100
AcDbEntity
8
0
100
AcDbSpline
70
0
71
2
72
6
73
3
74
0
42
0.000000001
43
0.0000000001
44
0.0000000001
40
0
40
0
40
0
40
1
40
1
40
1
10
-179.11279669757954
20
88.512661360446202
30
0
10
-178.91527114272336
20
88.38860209427672
30
0
10
-178.91507626368397
20
88.169065161042411
30
0
0
SPLINE
5
338
100
AcDbEntity
8
0
100
AcDbSpline
70
0
71
2
72
6
73
3
74
0
42
0.000000001
43
0.0000000001
44
0.0000000001
40
0
40
0
40
0
40
1
40
1
40
1
10
-178.91507626368397
20
88.169065161042411
30
0
10
-178.91484663867089
20
87.910385873005794
30
0
10
-179.100206136266
20
87.750248661552433
30
0
0
SPLINE
5
339
100
AcDbEntity
8
0
100
AcDbSpline
70
0
71
2
72
6
73
3
74
0
42
0.000000001
43
0.0000000001
44
0.0000000001
40
0
40
0
40
0
40
1
40
1
40
1
10
-179.100206136266
20
87.750248661552433
30
0
10
-179.28726555739584
20
87.590109643083764
30
0
10
-179.6021067037984
20
87.589830164185742
30
0
0
SPLINE
5
340
100
AcDbEntity
8
0
100
AcDbSpline
70
0
71
2
72
6
73
3
74
0
42
0.000000001
43
0.0000000001
44
0.0000000001
40
0
40
0
40
0
40
1
40
1
40
1
10
-179.6021067037984
20
87.589830164185742
30
0
10
-180.01395079507606
20
87.589464577495107
30
0
10
-180.1962621999167
20
87.83096420790929
30
0
0
SPLINE
5
341
100
AcDbEntity
8
0
100
AcDbSpline
70
0
71
2
72
6
73
3
74
0
42
0.000000001
43
0.0000000001
44
0.0000000001
40
0
40
0
40
0
40
1
40
1
40
1
10
-180.1962621999167
20
87.83096420790929
30
0
10
-180.31042180212546
20
87.984027794388282
30
0
10
-180.30717429806401
20
88.161021971161674
30
0
0
LINE
5
342
100
AcDbEntity
8
0
100
AcDbLine
10
-180.30717429806401
20
88.161021971161674
30
0
11
-180.01786300305312
21
88.161278787663719
31
0
0
SPLINE
5
343
100
AcDbEntity
8
0
100
AcDbSpline
70
0
71
2
72
6
73
3
74
0
42
0.000000001
43
0.0000000001
44
0.0000000001
40
0
40
0
40
0
40
1
40
1
40
1
10
-180.01786300305312
20
88.161278787663719
30
0
10
-180.00925931090569
20
88.057474166395181
30
0
10
-179.94451514672366
20
87.97244001423411
30
0
0
SPLINE
5
344
100
AcDbEntity
8
0
100
AcDbSpline
70
0
71
2
72
6
73
3
74
0
42
0.000000001
43
0.0000000001
44
0.0000000001
40
0
40
0
40
0
40
1
40
1
40
1
10
-179.94451514672366
20
87.97244001423411
30
0
10
-179.8388934028481
20
87.851703189286951
30
0
10
-179.57851180682741
20
87.851934325408635
30
0
0
SPLINE
5
345
100
AcDbEntity
8
0
100
AcDbSpline
70
0
71
2
72
6
73
3
74
0
42
0.000000001
43
0.0000000001
44
0.0000000001
40
0
40
0
40
0
40
1
40
1
40
1
10
-179.57851180682741
20
87.851934325408635
30
0
10
-179.40492646033178
20
87.852088414039997
30
0
10
-179.31478689585614
20
87.918540015578102
30
0
0
SPLINE
5
346
100
AcDbEntity
8
0
100
AcDbSpline
70
0
71
2
72
6
73
3
74
0
42
0.000000001
43
0.0000000001
44
0.0000000001
40
0
40
0
40
0
40
1
40
1
40
1
10
-179.31478689585614
20
87.918540015578102
30
0
10
-179.22634963936457
20
87.984990106007615
30
0
10
-179.22644632385908
20
88.093908014678917
30
0
0
SPLINE
5
347
100
AcDbEntity
8
0
100
AcDbSpline
70
0
71
2
72
6
73
3
74
0
42
0.000000001
43
0.0000000001
44
0.0000000001
40
0
40
0
40
0
40
1
40
1
40
1
10
-179.22644632385908
20
88.093908014678917
30
0
10
-179.2265520723596
20
88.213036791023725
30
0
10
-179.34404139377443
20
88.284409819967777
30
0
0
SPLINE
5
348
100
AcDbEntity
8
0
100
AcDbSpline
70
0
71
2
72
6
73
3
74
0
42
0.000000001
43
0.0000000001
44
0.0000000001
40
0
40
0
40
0
40
1
40
1
40
1
10
-179.34404139377443
20
88.284409819967777
30
0
10
-179.41215479097681
20
88.326895169117208
30
0
10
-179.54492536990512
20
88.359112247514474
30
0
0
LINE
5
349
100
AcDbEntity
8
0
100
AcDbLine
10
-179.54492536990512
20
88.359112247514474
30
0
11
-179.74748899374032
21
88.408285696745736
31
0
0
SPLINE
5
350
100
AcDbEntity
8
0
100
AcDbSpline
70
0
71
2
72
6
73
3
74
0
42
0.000000001
43
0.0000000001
44
0.0000000001
40
0
40
0
40
0
40
1
40
1
40
1
10
-179.74748899374026
20
88.408285696745722
30
0
10
-180.07771714615686
20
88.487979043645737
30
0
10
-180.19010494896321
20
88.562760027674898
30
0
0
SPLINE
5
351
100
AcDbEntity
8
0
100
AcDbSpline
70
0
71
2
72
6
73
3
74
0
42
0.000000001
43
0.0000000001
44
0.0000000001
40
0
40
0
40
0
40
1
40
1
40
1
10
-180.19010494896321
20
88.562760027674898
30
0
10
-180.36890145733213
20
88.680028470124697
30
0
10
-180.36912503949819
20
88.931900314363588
30
0
0
SPLINE
5
352
100
AcDbEntity
8
0
100
AcDbSpline
70
0
71
2
72
6
73
3
74
0
42
0.000000001
43
0.0000000001
44
0.0000000001
40
0
40
0
40
0
40
1
40
1
40
1
10
-180.36912503949819
20
88.931900314363588
30
0
10
-180.36934106823767
20
89.175263002866828
30
0
10
-180.18399667776015
20
89.352418823814546
30
0
0
SPLINE
5
353
100
AcDbEntity
8
0
100
AcDbSpline
70
0
71
2
72
6
73
3
74
0
42
0.000000001
43
0.0000000001
44
0.0000000001
40
0
40
0
40
0
40
1
40
1
40
1
10
-180.18399667776015
20
89.352418823814546
30
0
10
-180.00035697945157
20
89.529573131537262
30
0
10
-179.6225495111164
20
89.529908504521785
30
0
0
SPLINE
5
354
100
AcDbEntity
8
0
100
AcDbSpline
70
0
71
2
72
6
73
3
74
0
42
0.000000001
43
0.0000000001
44
0.0000000001
40
0
40
0
40
0
40
1
40
1
40
1
10
-179.6225495111164
20
89.529908504521785
30
0
10
-179.21580995960613
20
89.530269560003035
30
0
10
-179.04546369014008
20
89.346622030179674
30
0
0
SPLINE
5
355
100
AcDbEntity
8
0
100
AcDbSpline
70
0
71
2
72
6
73
3
74
0
42
0.000000001
43
0.0000000001
44
0.0000000001
40
0
40
0
40
0
40
1
40
1
40
1
10
-179.04546369014008
20
89.346622030179674
30
0
10
-178.87681583389377
20
89.161271279426273
30
0
10
-178.86466035148277
20
88.888987679437889
30
0
0
LINE
5
356
100
AcDbEntity
8
0
100
AcDbLine
10
-178.86466035148277
20
88.888987679437889
30
0
11
-179.15907857044596
21
88.888726329610108
31
0
0
LINE
5
357
100
AcDbEntity
8
0
100
AcDbLine
10
-182.52530224220578
20
86.957555188613696
30
0
11
-183.12735617822855
21
88.425707796115802
31
0
0
LINE
5
358
100
AcDbEntity
8
0
100
AcDbLine
10
-183.12735617822855
20
88.425707796115802
30
0
11
-182.84995627073664
21
88.425954039090527
31
0
0
LINE
5
359
100
AcDbEntity
8
0
100
AcDbLine
10
-182.84995627073664
20
88.425954039090556
30
0
11
-182.39626624715089
21
87.299739432598216
31
0
0
LINE
5
360
100
AcDbEntity
8
0
100
AcDbLine
10
-182.39626624715095
20
87.299739432598216
30
0
11
-181.94628107059262
21
88.426756215527732
31
0
0
LINE
5
361
100
AcDbEntity
8
0
100
AcDbLine
10
-181.94628107059259
20
88.426756215527732
30
0
11
-181.66717885511656
21
88.42700396961105
31
0
0
LINE
5
362
100
AcDbEntity
8
0
100
AcDbLine
10
-181.66717885511659
20
88.427003969611064
30
0
11
-182.26322072238585
21
86.957787833727565
31
0
0
LINE
5
363
100
AcDbEntity
8
0
100
AcDbLine
10
-182.26322072238585
20
86.957787833727565
30
0
11
-182.52530224220578
21
86.957555188613696
31
0
0
SPLINE
5
364
100
AcDbEntity
8
0
100
AcDbSpline
70
0
71
2
72
6
73
3
74
0
42
0.000000001
43
0.0000000001
44
0.0000000001
40
0
40
0
40
0
40
1
40
1
40
1
10
-184.35731281706725
20
89.811614231636682
30
0
10
-184.47472294502549
20
89.791087661264228
30
0
10
-184.52224485521998
20
89.646389715416774
30
0
0
SPLINE
5
365
100
AcDbEntity
8
0
100
AcDbSpline
70
0
71
2
72
6
73
3
74
0
42
0.000000001
43
0.0000000001
44
0.0000000001
40
0
40
0
40
0
40
1
40
1
40
1
10
-184.52224485521998
20
89.646389715416774
30
0
10
-184.54770434105896
20
89.569784057470457
30
0
10
-184.54764089195862
20
89.498306791663566
30
0
0
SPLINE
5
366
100
AcDbEntity
8
0
100
AcDbSpline
70
0
71
2
72
6
73
3
74
0
42
0.000000001
43
0.0000000001
44
0.0000000001
40
0
40
0
40
0
40
1
40
1
40
1
10
-184.54764089195862
20
89.498306791663566
30
0
10
-184.54763031737315
20
89.486394212052204
30
0
10
-184.54592132956788
20
89.476184853370881
30
0
0
SPLINE
5
367
100
AcDbEntity
8
0
100
AcDbSpline
70
0
71
2
72
6
73
3
74
0
42
0.000000001
43
0.0000000001
44
0.0000000001
40
0
40
0
40
0
40
1
40
1
40
1
10
-184.54592132956788
20
89.476184853370881
30
0
10
-184.54591377561226
20
89.467675101589066
30
0
10
-184.54249858505852
20
89.455765544194861
30
0
0
LINE
5
368
100
AcDbEntity
8
0
100
AcDbLine
10
-184.54249858505852
20
89.455765544194861
30
0
11
-184.3569970826743
21
89.455930210586331
31
0
0
LINE
5
369
100
AcDbEntity
8
0
100
AcDbLine
10
-184.3569970826743
20
89.455930210586345
30
0
11
-184.35666775200772
21
89.084929590002673
31
0
0
LINE
5
370
100
AcDbEntity
8
0
100
AcDbLine
10
-184.35666775200772
20
89.084929590002645
30
0
11
-184.7208615248399
21
89.08460630165402
31
0
0
LINE
5
371
100
AcDbEntity
8
0
100
AcDbLine
10
-184.7208615248399
20
89.084606301654048
30
0
11
-184.72116668464736
21
89.428377743092994
31
0
0
SPLINE
5
372
100
AcDbEntity
8
0
100
AcDbSpline
70
0
71
2
72
6
73
3
74
0
42
0.000000001
43
0.0000000001
44
0.0000000001
40
0
40
0
40
0
40
1
40
1
40
1
10
-184.72116668464736
20
89.428377743092994
30
0
10
-184.72134645683371
20
89.630896364856071
30
0
10
-184.6397954776524
20
89.784134276191466
30
0
0
SPLINE
5
373
100
AcDbEntity
8
0
100
AcDbSpline
70
0
71
2
72
6
73
3
74
0
42
0.000000001
43
0.0000000001
44
0.0000000001
40
0
40
0
40
0
40
1
40
1
40
1
10
-184.6397954776524
20
89.784134276191466
30
0
10
-184.55824211428623
20
89.93737218964327
30
0
10
-184.35745633270045
20
89.973288786659552
30
0
0
LINE
5
374
100
AcDbEntity
8
0
100
AcDbLine
10
-184.35745633270045
20
89.973288786659552
30
0
11
-184.35731281706725
21
89.811614231636682
31
0
0
LINE
5
375
100
AcDbEntity
8
0
100
AcDbLine
10
-186.09745964828872
20
86.954384247881151
30
0
11
-186.69951358431149
21
88.422536855383257
31
0
0
LINE
5
376
100
AcDbEntity
8
0
100
AcDbLine
10
-186.69951358431149
20
88.422536855383271
30
0
11
-186.42211367681955
21
88.422783098357996
31
0
0
LINE
5
377
100
AcDbEntity
8
0
100
AcDbLine
10
-186.42211367681955
20
88.422783098357996
30
0
11
-185.96842365323383
21
87.296568491865671
31
0
0
LINE
5
378
100
AcDbEntity
8
0
100
AcDbLine
10
-185.96842365323386
20
87.296568491865671
30
0
11
-185.51843847667556
21
88.423585274795187
31
0
0
LINE
5
379
100
AcDbEntity
8
0
100
AcDbLine
10
-185.51843847667553
20
88.423585274795201
30
0
11
-185.23933626119947
21
88.423833028878519
31
0
0
LINE
5
380
100
AcDbEntity
8
0
100
AcDbLine
10
-185.23933626119953
20
88.423833028878519
30
0
11
-185.83537812846879
21
86.954616892995006
31
0
0
LINE
5
381
100
AcDbEntity
8
0
100
AcDbLine
10
-185.83537812846879
20
86.954616892995006
30
0
11
-186.09745964828872
21
86.954384247881151
31
0
0
ENDSEC
0
SECTION
2
OBJECTS
0
DICTIONARY
5
C
100
AcDbDictionary
3
ACAD_GROUP
350
D
3
ACAD_MLINESTYLE
350
17
0
DICTIONARY
5
D
100
AcDbDictionary
0
DICTIONARY
5
1A
330
C
100
AcDbDictionary
0
DICTIONARY
5
17
100
AcDbDictionary
0
ENDSEC
0
EOF
