0
SECTION
2
HEADER
9
$INSUNITS
70
4
9
$ACADVER
1
AC1014
9
$HANDSEED
5
FFFF
0
ENDSEC
0
SECTION
2
TABLES
0
TABLE
2
VPORT
5
8
100
AcDbSymbolTable
0
ENDTAB
0
TABLE
2
LTYPE
5
5
100
AcDbSymbolTable
0
LTYPE
5
14
100
AcDbSymbolTableRecord
100
AcDbLinetypeTableRecord
2
BYBLOCK
70
0
0
LTYPE
5
15
100
AcDbSymbolTableRecord
100
AcDbLinetypeTableRecord
2
BYLAYER
70
0
0
ENDTAB
0
TABLE
2
LAYER
5
2
100
AcDbSymbolTable
70
2
0
LAYER
5
50
100
AcDbSymbolTableRecord
100
AcDbLayerTableRecord
2
0
70
0
6
CONTINUOUS
0
ENDTAB
0
TABLE
2
STYLE
5
3
100
AcDbSymbolTable
70
1
0
STYLE
5
11
100
AcDbSymbolTableRecord
100
AcDbTextStyleTableRecord
2
STANDARD
70
0
0
ENDTAB
0
TABLE
2
VIEW
5
6
100
AcDbSymbolTable
70
0
0
ENDTAB
0
TABLE
2
UCS
5
7
100
AcDbSymbolTable
70
0
0
ENDTAB
0
TABLE
2
APPID
5
9
100
AcDbSymbolTable
70
2
0
APPID
5
12
100
AcDbSymbolTableRecord
100
AcDbRegAppTableRecord
2
ACAD
70
0
0
ENDTAB
0
TABLE
2
DIMSTYLE
5
A
100
AcDbSymbolTable
70
1
0
ENDTAB
0
TABLE
2
BLOCK_RECORD
5
1
100
AcDbSymbolTable
70
1
0
BLOCK_RECORD
5
1F
100
AcDbSymbolTableRecord
100
AcDbBlockTableRecord
2
*MODEL_SPACE
0
BLOCK_RECORD
5
1B
100
AcDbSymbolTableRecord
100
AcDbBlockTableRecord
2
*PAPER_SPACE
0
ENDTAB
0
ENDSEC
0
SECTION
2
BLOCKS
0
BLOCK
5
20
100
AcDbEntity
100
AcDbBlockBegin
2
*MODEL_SPACE
0
ENDBLK
5
21
100
AcDbEntity
100
AcDbBlockEnd
0
BLOCK
5
1C
100
AcDbEntity
100
AcDbBlockBegin
2
*PAPER_SPACE
0
ENDBLK
5
1D
100
AcDbEntity
100
AcDbBlockEnd
0
ENDSEC
0
SECTION
2
ENTITIES
0
ARC
5
100
100
AcDbEntity
8
0
100
AcDbCircle
10
-2.5092091830155541
20
6.5694514157829778
30
0
40
1.999999999999994
210
1.132374339616435e-24
220
6.3007178091197174e-32
230
1
100
AcDbArc
50
-90.000001801307761
51
0
0
LINE
5
101
100
AcDbEntity
8
0
100
AcDbLine
10
-0.50920918301555984
20
26.87636144699875
30
-2.7755575615628914e-16
11
-0.50920918301555984
21
6.5694514157829786
31
-2.264748679232862e-24
0
ARC
5
102
100
AcDbEntity
8
0
100
AcDbCircle
10
-2.5092091830155665
20
26.876361446998747
30
-2.7755575615628914e-16
40
2.0000000000000067
210
2.1895288505075193e-46
220
-9.8607613152626476e-32
230
1
100
AcDbArc
50
0
51
75.515169439540131
0
ARC
5
103
100
AcDbEntity
8
0
100
AcDbCircle
10
-0.50821980908779096
20
34.622072616764129
30
0
40
5.9999999999999964
210
6.0673837101865944e-25
220
-2.8450823280553224e-26
230
1
100
AcDbArc
50
104.48483056045959
51
255.51516943954044
0
ARC
5
104
100
AcDbEntity
8
0
100
AcDbCircle
10
-2.5092091830155439
20
42.3677837865295
30
0
40
1.9999999999999896
210
4.2733942979968131e-25
220
6.6597478572817803e-25
230
1
100
AcDbArc
50
-75.515169439540742
51
0
0
LINE
5
105
100
AcDbEntity
8
0
100
AcDbLine
10
-0.50920918301555462
20
42.367783786529507
30
-1.2134679409900444e-24
11
-0.50955978403326441
21
71.873451387678188
31
2.2088105346188331e-28
0
ARC
5
106
100
AcDbEntity
8
0
100
AcDbCircle
10
-2.5095597840319428
20
71.873453720884569
30
0
40
2.0000000000000391
210
-1.1044052569554074e-28
220
8.8759735864402584e-31
230
1
100
AcDbArc
50
-6.6834718517119355e-05
51
75.52242097262905
0
ARC
5
107
100
AcDbEntity
8
0
100
AcDbCircle
10
-0.50955074756370067
20
79.619418080087755
30
0
40
5.9999999999999947
210
6.2662584335556223e-25
220
-4.0417818271605821e-26
230
1
100
AcDbArc
50
104.47744534449023
51
255.52242097263013
0
ARC
5
108
100
AcDbEntity
8
0
100
AcDbCircle
10
-2.5095417110927087
20
87.365387105703689
30
2.7755575615628914e-16
40
1.9999999999999432
210
3.4694313593011857e-17
220
-1.3437114230799394e-16
230
1
100
AcDbArc
50
284.47744534448753
51
359.99961330650871
0
LINE
5
109
100
AcDbEntity
8
0
100
AcDbLine
10
-0.50954171113831648
20
87.365373607534764
30
2.7755575410218966e-16
11
-0.50920918301555651
21
96.769295849220342
31
2.7755575615609192e-16
0
ARC
5
110
100
AcDbEntity
8
0
100
AcDbCircle
10
-2.5092091830155558
20
96.769295849220342
30
-2.7755575615628914e-16
40
1.9999999999999996
210
-2.7755575615619058e-16
220
-0
230
1
100
AcDbArc
50
0
51
90
0
ARC
5
111
100
AcDbEntity
8
0
100
AcDbCircle
10
-181.73835910831957
20
96.769295849220327
30
0
40
1.9999999999999751
210
1.2407831318208265e-24
220
-3.3087230608616841e-23
230
1
100
AcDbArc
50
90.000000000001634
51
165.52248781407155
0
ARC
5
112
100
AcDbEntity
8
0
100
AcDbCircle
10
-189.48432580073475
20
98.769295849220313
30
0
40
6.0000000000000071
210
9.2168109880161128e-25
220
4.3749273538226732e-27
230
1
100
AcDbArc
50
194.4775121859297
51
345.52248781407059
0
ARC
5
113
100
AcDbEntity
8
0
100
AcDbCircle
10
-197.23029249314959
20
96.769295849220327
30
0
40
1.9999999999999827
210
-2.5388586324695578e-24
220
-8.8913421865042527e-25
230
1
100
AcDbArc
50
14.477512185930046
51
90
0
LINE
5
114
100
AcDbEntity
8
0
100
AcDbLine
10
-197.23029249314959
20
98.769295849220313
30
1.9804548172901325e-25
11
-283.20930624437892
21
98.769295849220313
31
6.6174449004242214e-23
0
ARC
5
115
100
AcDbEntity
8
0
100
AcDbCircle
10
-283.20930624437892
20
96.769295849220327
30
-2.7755575615628914e-16
40
1.9999999999999929
210
8.2718061255302767e-25
220
-1.3877791116536956e-16
230
1
100
AcDbArc
50
90
51
180.00006683471855
0
LINE
5
116
100
AcDbEntity
8
0
100
AcDbLine
10
-285.20930624437756
20
96.769293516014159
30
-2.7755575450192791e-16
11
-285.20924277652796
21
87.365373607534792
31
-4.3387349787155649e-29
0
ARC
5
117
100
AcDbEntity
8
0
100
AcDbCircle
10
-283.20924277660475
20
87.365387105703689
30
2.7755575615628914e-16
40
1.999999999968769
210
-1.3877787807717267e-16
220
-9.366236236633355e-22
230
1
100
AcDbArc
50
180.00038669443379
51
255.52255465551374
0
ARC
5
118
100
AcDbEntity
8
0
100
AcDbCircle
10
-285.20923374013375
20
79.619418080087755
30
0
40
6.0000000000000009
210
8.162859837908355e-25
220
-5.5165402308959375e-26
230
1
100
AcDbArc
50
-75.5224209726303
51
75.52255465550941
0
ARC
5
119
100
AcDbEntity
8
0
100
AcDbCircle
10
-283.20922470366548
20
71.873453720884569
30
0
40
2.0000000000000377
210
5.5881135028211994e-25
220
9.4207682401560141e-25
230
1
100
AcDbArc
50
104.47757902737207
51
180.00006683471855
0
LINE
5
120
100
AcDbEntity
8
0
100
AcDbLine
10
-285.20924277660333
20
42.365384772497315
30
0
11
-285.20922470366418
21
71.873451387678188
31
1.632598720970223e-24
0
ARC
5
121
100
AcDbEntity
8
0
100
AcDbCircle
10
-283.20924277660475
20
42.365387105703689
30
0
40
1.9999999999999327
210
3.4510786741309656e-37
220
-2.9582283945767803e-31
230
1
100
AcDbArc
50
180.00006683471855
51
255.5225546555138
0
ARC
5
122
100
AcDbEntity
8
0
100
AcDbCircle
10
-285.20923374013375
20
34.619418080087755
30
0
40
5.9999999999999964
210
3.8997962073419298e-25
220
-5.8449172370969453e-26
230
1
100
AcDbArc
50
-75.5224209726303
51
75.522554655509381
0
ARC
5
123
100
AcDbEntity
8
0
100
AcDbCircle
10
-283.20922470366548
20
26.873453720884577
30
-2.7755575615628914e-16
40
2.0000000000000377
210
3.4694626913633176e-17
220
-1.343710615381563e-16
230
1
100
AcDbArc
50
104.47757902737216
51
180.00006683471855
0
LINE
5
124
100
AcDbEntity
8
0
100
AcDbLine
10
-285.20922470366418
20
26.873451387678191
30
-2.7755575452369041e-16
11
-285.20920101696038
21
6.5694579074339154
31
-2.7610131682735413e-29
0
ARC
5
125
100
AcDbEntity
8
0
100
AcDbCircle
10
-283.20920101696225
20
6.5694602406400762
30
2.7755575615628914e-16
40
1.9999999999994709
210
-1.3877787807810066e-16
220
-1.6189870112121013e-22
230
1
100
AcDbArc
50
180.00006683471855
51
269.99999999999187
0
LWPOLYLINE
5
126
100
AcDbEntity
8
0
100
AcDbPolyline
90
48
70
1
43
0.0
10
-45.830188918212677
20
4.5694525465497202
10
-87.576797664832185
20
4.5694525347120258
42
-0.34199877164168496
10
-89.513289443148963
20
6.0694529400042256
42
0.77459688649546399
10
-101.13224029647307
20
6.0694522164286315
42
-0.3419988268790029
10
-103.0687322835884
20
4.5694515699445786
10
-182.65097593111264
20
4.5694574228313272
42
-0.34199872923760216
10
-184.587467522759
20
6.0694576770264375
42
0.77459708446615327
10
-196.20641911847093
20
6.0694531716041631
42
-0.34199896633517407
10
-198.14291124498004
20
4.5694514156016623
10
-239.38720866331278
20
4.5694514157735711
42
-0.34192831784761307
10
-241.3235742245372
20
6.0689632408164869
42
0.77439497530402868
10
-252.94176739652886
20
6.0689637030572809
42
-0.34192837685586097
10
-254.87813357564784
20
4.5694519831093281
10
-283.20920101696254
20
4.5694602406406046
42
-0.41421322068295818
10
-285.20920101696038
20
6.5694579074339154
10
-285.20922470366418
20
26.873451387678191
42
-0.34199871311963775
10
-283.70922696278262
20
28.809944810685391
42
0.77459666924148163
10
-283.70924051748688
20
40.428894849299738
42
-0.34199871311966334
10
-285.20924277660333
20
42.365384772497315
10
-285.20922470366418
20
71.873451387678188
42
-0.34199871311963775
10
-283.70922696278262
20
73.809944810685394
42
0.77459666924148163
10
-283.70924051747909
20
85.428894849329907
42
-0.34199715426398614
10
-285.20924277652796
20
87.365373607534792
10
-285.20930624437756
20
96.769293516014159
42
-0.41421390406326769
10
-283.20930624437892
20
98.769295849220313
10
-197.23029249314959
20
98.769295849220313
42
-0.34199871311964475
10
-195.2938008200459
20
97.269295849220327
42
0.77459666924148773
10
-183.67485078142326
20
97.269295849220271
42
-0.34199871311964736
10
-181.73835910831963
20
98.769295849220299
10
-103.98037258636782
20
98.769295849220313
42
-0.34201867558725435
10
-102.04384517424688
20
97.269157412159785
42
0.77465386116975765
10
-90.424680701521368
20
97.269157412159814
42
-0.34201867558726506
10
-88.488153289400458
20
98.769295849220356
10
-2.5092091830155558
20
98.769295849220327
42
-0.41421356237309509
10
-0.50920918301555651
20
96.769295849220342
10
-0.50954171113831548
20
87.365373607534764
42
-0.34199715426398353
10
-2.0095439702105358
20
85.428894849299724
42
0.77459666924148163
10
-2.0095575249148467
20
73.809944810685394
42
-0.34199871311963775
10
-0.50955978403326418
20
71.873451387678188
10
-0.50920918301555407
20
42.367783786529507
42
-0.34196304615932216
10
-2.0089618395336162
20
40.431355994088165
42
0.77449449051092722
10
-2.0089618395336108
20
28.812789239440093
42
-0.341963046159317
10
-0.50920918301555984
20
26.87636144699875
10
-0.50920918301555873
20
6.5694514157829795
42
-0.41421357158129229
10
-2.5092092458930564
20
4.569451415782984
10
-30.338255591735987
20
4.5694524561194259
42
-0.34199870549615913
10
-32.274747195114628
20
6.0694524756438035
42
0.77459667263756093
10
-43.893697246472165
20
6.069452543466527
42
-0.34199871259587034
0
LWPOLYLINE
5
127
100
AcDbEntity
8
0
100
AcDbPolyline
90
8
70
1
43
0.0
10
-25.057780227387347
20
22.174530197232052
10
-25.057780250741473
20
21.674530197232045
10
-27.819105116147476
20
21.674530326211222
10
-27.819104835888936
20
27.674530326211215
10
-25.057779970483949
20
27.674530197232055
10
-25.057779993839073
20
27.174530197232052
10
-23.569104859244064
20
27.174530127698628
10
-23.569105092792348
20
22.174530127698624
0
LWPOLYLINE
5
128
100
AcDbEntity
8
0
100
AcDbPolyline
90
4
70
1
43
0.0
10
-23.569104835889231
20
27.674530197232055
10
-27.819105116147476
20
27.674530197232055
10
-27.819105116147476
20
21.674530326211222
10
-23.569104835889231
20
21.674530326211222
0
CIRCLE
5
129
100
AcDbEntity
8
0
100
AcDbCircle
10
-114.31596708614148
20
96.75445173001097
30
0
40
1.5239999999999998
210
8.2718061255302786e-25
220
-2.4800988121054041e-33
230
1
0
CIRCLE
5
130
100
AcDbEntity
8
0
100
AcDbCircle
10
-171.40246708614148
20
96.754451901170881
30
0
40
1.5239999999999998
210
8.2718061255302786e-25
220
-2.4800988121054041e-33
230
1
0
ENDSEC
0
SECTION
2
OBJECTS
0
DICTIONARY
5
C
100
AcDbDictionary
3
ACAD_GROUP
350
D
3
ACAD_MLINESTYLE
350
17
0
DICTIONARY
5
D
100
AcDbDictionary
0
DICTIONARY
5
1A
330
C
100
AcDbDictionary
0
DICTIONARY
5
17
100
AcDbDictionary
0
ENDSEC
0
EOF
