0
SECTION
2
HEADER
9
$INSUNITS
70
4
9
$ACADVER
1
AC1014
9
$HANDSEED
5
FFFF
0
ENDSEC
0
SECTION
2
TABLES
0
TABLE
2
VPORT
5
8
100
AcDbSymbolTable
0
ENDTAB
0
TABLE
2
LTYPE
5
5
100
AcDbSymbolTable
0
LTYPE
5
14
100
AcDbSymbolTableRecord
100
AcDbLinetypeTableRecord
2
BYBLOCK
70
0
0
LTYPE
5
15
100
AcDbSymbolTableRecord
100
AcDbLinetypeTableRecord
2
BYLAYER
70
0
0
ENDTAB
0
TABLE
2
LAYER
5
2
100
AcDbSymbolTable
70
2
0
LAYER
5
50
100
AcDbSymbolTableRecord
100
AcDbLayerTableRecord
2
0
70
0
6
CONTINUOUS
0
ENDTAB
0
TABLE
2
STYLE
5
3
100
AcDbSymbolTable
70
1
0
STYLE
5
11
100
AcDbSymbolTableRecord
100
AcDbTextStyleTableRecord
2
STANDARD
70
0
0
ENDTAB
0
TABLE
2
VIEW
5
6
100
AcDbSymbolTable
70
0
0
ENDTAB
0
TABLE
2
UCS
5
7
100
AcDbSymbolTable
70
0
0
ENDTAB
0
TABLE
2
APPID
5
9
100
AcDbSymbolTable
70
2
0
APPID
5
12
100
AcDbSymbolTableRecord
100
AcDbRegAppTableRecord
2
ACAD
70
0
0
ENDTAB
0
TABLE
2
DIMSTYLE
5
A
100
AcDbSymbolTable
70
1
0
ENDTAB
0
TABLE
2
BLOCK_RECORD
5
1
100
AcDbSymbolTable
70
1
0
BLOCK_RECORD
5
1F
100
AcDbSymbolTableRecord
100
AcDbBlockTableRecord
2
*MODEL_SPACE
0
BLOCK_RECORD
5
1B
100
AcDbSymbolTableRecord
100
AcDbBlockTableRecord
2
*PAPER_SPACE
0
ENDTAB
0
ENDSEC
0
SECTION
2
BLOCKS
0
BLOCK
5
20
100
AcDbEntity
100
AcDbBlockBegin
2
*MODEL_SPACE
0
ENDBLK
5
21
100
AcDbEntity
100
AcDbBlockEnd
0
BLOCK
5
1C
100
AcDbEntity
100
AcDbBlockBegin
2
*PAPER_SPACE
0
ENDBLK
5
1D
100
AcDbEntity
100
AcDbBlockEnd
0
ENDSEC
0
SECTION
2
ENTITIES
0
ARC
5
100
100
AcDbEntity
8
0
100
AcDbCircle
10
-2.5092091830155665
20
26.876361446998747
30
-2.7755575615628914e-16
40
2.0000000000000067
210
2.1895288505075193e-46
220
-9.8607613152626476e-32
230
1
100
AcDbArc
50
0
51
75.515169439540131
0
ARC
5
101
100
AcDbEntity
8
0
100
AcDbCircle
10
-0.50821980908779096
20
34.622072616764129
30
0
40
5.9999999999999964
210
6.0673837101865944e-25
220
-2.8450823280553224e-26
230
1
100
AcDbArc
50
104.48483056045959
51
255.51516943954044
0
ARC
5
102
100
AcDbEntity
8
0
100
AcDbCircle
10
-2.5092091830155439
20
42.3677837865295
30
0
40
1.9999999999999896
210
4.2733942979968131e-25
220
6.6597478572817803e-25
230
1
100
AcDbArc
50
-75.515169439540742
51
0
0
LINE
5
103
100
AcDbEntity
8
0
100
AcDbLine
10
-0.50920918301555462
20
42.367783786529507
30
-1.2134679409900444e-24
11
-0.50955978403326441
21
71.873451387678188
31
2.2088105346188331e-28
0
ARC
5
104
100
AcDbEntity
8
0
100
AcDbCircle
10
-2.5095597840319428
20
71.873453720884569
30
0
40
2.0000000000000391
210
-1.1044052569554074e-28
220
8.8759735864402584e-31
230
1
100
AcDbArc
50
-6.6834718517119355e-05
51
75.52242097262905
0
ARC
5
105
100
AcDbEntity
8
0
100
AcDbCircle
10
-0.50955074756370067
20
79.619418080087755
30
0
40
5.9999999999999947
210
6.2662584335556223e-25
220
-4.0417818271605821e-26
230
1
100
AcDbArc
50
104.47744534449023
51
255.52242097263013
0
ARC
5
106
100
AcDbEntity
8
0
100
AcDbCircle
10
-2.5095417110927087
20
87.365387105703689
30
2.7755575615628914e-16
40
1.9999999999999432
210
3.4694313593011857e-17
220
-1.3437114230799394e-16
230
1
100
AcDbArc
50
284.47744534448753
51
359.99961330650871
0
LINE
5
107
100
AcDbEntity
8
0
100
AcDbLine
10
-0.50954171113831648
20
87.365373607534764
30
2.7755575410218966e-16
11
-0.50920918301555651
21
96.769295849220342
31
2.7755575615609192e-16
0
ARC
5
108
100
AcDbEntity
8
0
100
AcDbCircle
10
-2.5092091830155558
20
96.769295849220342
30
-2.7755575615628914e-16
40
1.9999999999999996
210
-2.7755575615619058e-16
220
-0
230
1
100
AcDbArc
50
0
51
90
0
ARC
5
109
100
AcDbEntity
8
0
100
AcDbCircle
10
-181.73835910831957
20
96.769295849220327
30
0
40
1.9999999999999751
210
1.2407831318208265e-24
220
-3.3087230608616841e-23
230
1
100
AcDbArc
50
90.000000000001634
51
165.52248781407155
0
ARC
5
110
100
AcDbEntity
8
0
100
AcDbCircle
10
-189.48432580073475
20
98.769295849220313
30
0
40
6.0000000000000071
210
9.2168109880161128e-25
220
4.3749273538226732e-27
230
1
100
AcDbArc
50
194.4775121859297
51
345.52248781407059
0
ARC
5
111
100
AcDbEntity
8
0
100
AcDbCircle
10
-197.23029249314959
20
96.769295849220327
30
0
40
1.9999999999999827
210
-2.5388586324695578e-24
220
-8.8913421865042527e-25
230
1
100
AcDbArc
50
14.477512185930046
51
90
0
LINE
5
112
100
AcDbEntity
8
0
100
AcDbLine
10
-197.23029249314959
20
98.769295849220313
30
1.9804548172901325e-25
11
-283.20930624437892
21
98.769295849220313
31
6.6174449004242214e-23
0
ARC
5
113
100
AcDbEntity
8
0
100
AcDbCircle
10
-283.20930624437892
20
96.769295849220327
30
-2.7755575615628914e-16
40
1.9999999999999929
210
8.2718061255302767e-25
220
-1.3877791116536956e-16
230
1
100
AcDbArc
50
90
51
180.00006683471855
0
LINE
5
114
100
AcDbEntity
8
0
100
AcDbLine
10
-285.20930624437756
20
96.769293516014159
30
-2.7755575450192791e-16
11
-285.20924277652796
21
87.365373607534792
31
-4.3387349787155649e-29
0
ARC
5
115
100
AcDbEntity
8
0
100
AcDbCircle
10
-283.20924277660475
20
87.365387105703689
30
2.7755575615628914e-16
40
1.999999999968769
210
-1.3877787807717267e-16
220
-9.366236236633355e-22
230
1
100
AcDbArc
50
180.00038669443379
51
255.52255465551374
0
ARC
5
116
100
AcDbEntity
8
0
100
AcDbCircle
10
-285.20923374013375
20
79.619418080087755
30
0
40
6.0000000000000009
210
8.162859837908355e-25
220
-5.5165402308959375e-26
230
1
100
AcDbArc
50
-75.5224209726303
51
75.52255465550941
0
ARC
5
117
100
AcDbEntity
8
0
100
AcDbCircle
10
-283.20922470366548
20
71.873453720884569
30
0
40
2.0000000000000377
210
5.5881135028211994e-25
220
9.4207682401560141e-25
230
1
100
AcDbArc
50
104.47757902737207
51
180.00006683471855
0
LINE
5
118
100
AcDbEntity
8
0
100
AcDbLine
10
-285.20924277660333
20
42.365384772497315
30
0
11
-285.20922470366418
21
71.873451387678188
31
1.632598720970223e-24
0
ARC
5
119
100
AcDbEntity
8
0
100
AcDbCircle
10
-283.20924277660475
20
42.365387105703689
30
0
40
1.9999999999999327
210
3.4510786741309656e-37
220
-2.9582283945767803e-31
230
1
100
AcDbArc
50
180.00006683471855
51
255.5225546555138
0
ARC
5
120
100
AcDbEntity
8
0
100
AcDbCircle
10
-285.20923374013375
20
34.619418080087755
30
0
40
5.9999999999999964
210
3.8997962073419298e-25
220
-5.8449172370969453e-26
230
1
100
AcDbArc
50
-75.5224209726303
51
75.522554655509381
0
ARC
5
121
100
AcDbEntity
8
0
100
AcDbCircle
10
-283.20922470366548
20
26.873453720884577
30
-2.7755575615628914e-16
40
2.0000000000000377
210
3.4694626913633176e-17
220
-1.343710615381563e-16
230
1
100
AcDbArc
50
104.47757902737216
51
180.00006683471855
0
LINE
5
122
100
AcDbEntity
8
0
100
AcDbLine
10
-285.20922470366418
20
26.873451387678191
30
-2.7755575452369041e-16
11
-285.20920101696038
21
6.5694579074339154
31
-2.7610131682735413e-29
0
ARC
5
123
100
AcDbEntity
8
0
100
AcDbCircle
10
-283.20920101696225
20
6.5694602406400762
30
2.7755575615628914e-16
40
1.9999999999994709
210
-1.3877787807810066e-16
220
-1.6189870112121013e-22
230
1
100
AcDbArc
50
180.00006683471855
51
269.99999999999187
0
LINE
5
124
100
AcDbEntity
8
0
100
AcDbLine
10
-45.830188918212677
20
4.5694525465497202
30
-2.5613142515670887e-16
11
-87.576797664832185
21
4.5694525347120383
31
2.5613143564246861e-16
0
ARC
5
125
100
AcDbEntity
8
0
100
AcDbCircle
10
-95.322764776397918
20
4.5694541558807895
30
0
40
5.9999999999999867
210
-4.6259298207250732e-17
220
1.2502838481064585e-23
230
1
100
AcDbArc
50
14.477500194382792
51
165.52250694186014
0
LINE
5
126
100
AcDbEntity
8
0
100
AcDbLine
10
-103.0687322835884
20
4.5694515699445786
30
-2.7172240758899763e-16
11
-182.65097593111264
21
4.5694574228313547
31
-5.8333814754546737e-18
0
ARC
5
127
100
AcDbEntity
8
0
100
AcDbCircle
10
-190.3969427389687
20
4.5694584396117026
30
0
40
5.9999999999999654
210
3.5958847933292809e-25
220
-5.5979481422632223e-32
230
1
100
AcDbArc
50
14.47750466495498
51
165.52253976963601
0
LINE
5
128
100
AcDbEntity
8
0
100
AcDbLine
10
-198.14291124498004
20
4.5694514156016623
30
1.9296336141921036e-24
11
-239.38720866331278
21
4.5694514157736368
31
-3.519154802420724e-24
0
ARC
5
129
100
AcDbEntity
8
0
100
AcDbCircle
10
-247.13267090823524
20
4.5674987159449918
30
0
40
5.9999999999999476
210
6.2449764525312975e-25
220
2.0324275234431611e-28
230
1
100
AcDbArc
50
14.491956490415898
51
165.50803876900409
0
LINE
5
130
100
AcDbEntity
8
0
100
AcDbLine
10
-254.87813357564784
20
4.5694519831093281
30
1.6379994407666698e-17
11
-283.20920101696254
21
4.5694602406406046
31
2.7755575615628918e-16
0
ARC
5
131
100
AcDbEntity
8
0
100
AcDbCircle
10
-283.20920101696225
20
6.5694602406400762
30
2.7755575615628914e-16
40
1.9999999999994709
210
-1.3877787807810066e-16
220
-1.6189870003652638e-22
230
1
100
AcDbArc
50
180.00006683471855
51
269.99999999999187
0
LINE
5
132
100
AcDbEntity
8
0
100
AcDbLine
10
-285.20922470366418
20
26.873451387678191
30
-2.7755575452369041e-16
11
-285.20920101696038
21
6.5694579074339154
31
-2.7610131682735413e-29
0
ARC
5
133
100
AcDbEntity
8
0
100
AcDbCircle
10
-283.20922470366548
20
26.873453720884577
30
-2.7755575615628914e-16
40
2.0000000000000377
210
3.4694626161706418e-17
220
-1.343710617323039e-16
230
1
100
AcDbArc
50
104.47757902737216
51
180.00006683471855
0
ARC
5
134
100
AcDbEntity
8
0
100
AcDbCircle
10
-285.20923374013375
20
34.619418080087755
30
0
40
5.9999999999999964
210
3.8522297391514178e-26
220
-1.4919549721446396e-25
230
1
100
AcDbArc
50
-75.5224209726303
51
75.522554655509879
0
ARC
5
135
100
AcDbEntity
8
0
100
AcDbCircle
10
-283.20924277660475
20
42.365387105703689
30
0
40
1.9999999999999327
210
-4.8939783509958908e-53
220
-5.709330743273073e-59
230
1
100
AcDbArc
50
180.00006683471855
51
255.52255465551235
0
LINE
5
136
100
AcDbEntity
8
0
100
AcDbLine
10
-285.20924277660333
20
42.365384772497315
30
-9.7879567019981132e-53
11
-285.20922470366418
21
71.873451387678188
31
1.632598720970223e-24
0
ARC
5
137
100
AcDbEntity
8
0
100
AcDbCircle
10
-283.20922470366548
20
71.873453720884569
30
0
40
2.0000000000000377
210
-1.9311542729336814e-25
220
7.4792922919395276e-25
230
1
100
AcDbArc
50
104.47757902737207
51
180.00006683471855
0
ARC
5
138
100
AcDbEntity
8
0
100
AcDbCircle
10
-285.20923374013375
20
79.619418080087755
30
0
40
6.0000000000000009
210
6.4371809097785694e-26
220
-2.493097430646568e-25
230
1
100
AcDbArc
50
-75.5224209726303
51
75.522554655509879
0
ARC
5
139
100
AcDbEntity
8
0
100
AcDbCircle
10
-283.20924277660475
20
87.365387105703689
30
2.7755575615628914e-16
40
1.999999999968769
210
-1.3877787807717267e-16
220
-9.3662361853573962e-22
230
1
100
AcDbArc
50
180.00038669443379
51
255.52255465551235
0
LINE
5
140
100
AcDbEntity
8
0
100
AcDbLine
10
-285.20930624437756
20
96.769293516014159
30
-2.7755575450192791e-16
11
-285.20924277652796
21
87.365373607534792
31
-4.3387349787155649e-29
0
ARC
5
141
100
AcDbEntity
8
0
100
AcDbCircle
10
-283.20930624437892
20
96.769295849220327
30
-2.7755575615628914e-16
40
1.9999999999999929
210
0
220
-1.3877791116536956e-16
230
1
100
AcDbArc
50
90
51
180.00006683471855
0
LINE
5
142
100
AcDbEntity
8
0
100
AcDbLine
10
-197.23029249314959
20
98.769295849220313
30
1.9804548172901325e-25
11
-283.20930624437892
21
98.769295849220313
31
6.6174449004242214e-23
0
ARC
5
143
100
AcDbEntity
8
0
100
AcDbCircle
10
-197.23029249314959
20
96.769295849220327
30
0
40
1.9999999999999827
210
-2.5954050942762245e-24
220
-6.7013071378626352e-25
230
1
100
AcDbArc
50
14.477512185930046
51
90
0
ARC
5
144
100
AcDbEntity
8
0
100
AcDbCircle
10
-189.48432580073475
20
98.769295849220313
30
0
40
6.0000000000000071
210
8.6513503142540139e-25
220
2.2337690459541145e-25
230
1
100
AcDbArc
50
194.4775121859297
51
345.52248781407053
0
ARC
5
145
100
AcDbEntity
8
0
100
AcDbCircle
10
-181.73835910831957
20
96.769295849220327
30
0
40
1.9999999999999751
210
5.8774728388430608e-37
220
-3.3087230608616865e-23
230
1
100
AcDbArc
50
90.000000000001634
51
165.52248781407181
0
LINE
5
146
100
AcDbEntity
8
0
100
AcDbLine
10
-103.98037258636782
20
98.769295849220313
30
-2.7145992870779149e-16
11
-181.73835910831963
21
98.769295849220299
31
6.6174461217232906e-23
0
ARC
5
147
100
AcDbEntity
8
0
100
AcDbCircle
10
-96.234262937884139
20
98.768742100978173
30
-2.7755575615628914e-16
40
6.0000000000000089
210
7.4033672499539644e-25
220
-6.8324646923999401e-29
230
1
100
AcDbArc
50
194.47341622920001
51
345.52658377080036
0
LINE
5
148
100
AcDbEntity
8
0
100
AcDbLine
10
-2.5092091830155558
20
98.769295849220327
30
-2.7755575615628914e-16
11
-88.488153289400458
21
98.769295849220356
31
-2.7755576050989385e-16
0
ARC
5
149
100
AcDbEntity
8
0
100
AcDbCircle
10
-2.5092091830155558
20
96.769295849220342
30
-2.7755575615628914e-16
40
1.9999999999999996
210
-2.7755575615619058e-16
220
0
230
1
100
AcDbArc
50
0
51
90
0
LINE
5
150
100
AcDbEntity
8
0
100
AcDbLine
10
-0.50954171113831648
20
87.365373607534764
30
2.7755575410218966e-16
11
-0.50920918301555651
21
96.769295849220342
31
2.7755575615609192e-16
0
ARC
5
151
100
AcDbEntity
8
0
100
AcDbCircle
10
-2.5095417110927087
20
87.365387105703689
30
2.7755575615628914e-16
40
1.9999999999999432
210
3.4694312614906998e-17
220
-1.3437114256053831e-16
230
1
100
AcDbArc
50
284.47744534448753
51
359.99961330650871
0
ARC
5
152
100
AcDbEntity
8
0
100
AcDbCircle
10
-0.50955074756370067
20
79.619418080087755
30
0
40
5.9999999999999947
210
4.894731534312662e-26
220
-1.8957305080313498e-25
230
1
100
AcDbArc
50
104.47744534449023
51
255.52242097263013
0
ARC
5
153
100
AcDbEntity
8
0
100
AcDbCircle
10
-2.5095597840319428
20
71.873453720884569
30
0
40
2.0000000000000395
210
-1.1044052673086437e-28
220
1.2884027099133458e-34
230
1
100
AcDbArc
50
-6.6840171565398502e-05
51
75.52242097262905
0
LINE
5
154
100
AcDbEntity
8
0
100
AcDbLine
10
-0.50920918301555462
20
42.367783786529507
30
-1.2134679409900444e-24
11
-0.50955978403326418
21
71.873451387678188
31
2.208810534618834e-28
0
ARC
5
155
100
AcDbEntity
8
0
100
AcDbCircle
10
-2.5092091830155439
20
42.3677837865295
30
0
40
1.9999999999999896
210
-1.3454610900031887e-25
220
5.2082000679823928e-25
230
1
100
AcDbArc
50
-75.515169439540742
51
0
0
ARC
5
156
100
AcDbEntity
8
0
100
AcDbCircle
10
-0.50821980908779096
20
34.622072616764129
30
0
40
5.9999999999999964
210
4.4848703000107056e-26
220
-1.736066689327454e-25
230
1
100
AcDbArc
50
104.48483056045959
51
255.51516943954044
0
ARC
5
157
100
AcDbEntity
8
0
100
AcDbCircle
10
-2.5092091830155665
20
26.876361446998747
30
-2.7755575615628914e-16
40
2.0000000000000067
210
0
220
-0
230
1
100
AcDbArc
50
0
51
75.515169439540045
0
LINE
5
158
100
AcDbEntity
8
0
100
AcDbLine
10
-2.5092092458930564
20
4.569451415782984
30
1.9721522672127999e-31
11
-30.338255591735987
21
4.5694524561194232
31
2.6117021454767349e-16
0
ARC
5
159
100
AcDbEntity
8
0
100
AcDbCircle
10
-38.084222229549276
20
4.5694525342169499
30
0
40
6.0000000000000009
210
-4.6259295594735921e-17
220
9.8901274328314798e-26
230
1
100
AcDbArc
50
14.477511608253952
51
165.52248772284636
0
ARC
5
160
100
AcDbEntity
8
0
100
AcDbCircle
10
-88.488153289400472
20
96.76929584922037
30
-2.7755575882407467e-16
40
1.9999999999999751
210
-6.2587591294429208e-25
220
8.4290958688272897e-25
230
1
100
AcDbArc
50
89.999999999999588
51
165.52658377080039
0
ARC
5
161
100
AcDbEntity
8
0
100
AcDbCircle
10
-103.98037258636782
20
96.769295849220285
30
-2.640186840622655e-16
40
2.0000000000000258
210
6.0300058912803622e-18
220
3.7206223227629325e-18
230
1
100
AcDbArc
50
14.473416229200886
51
90
0
ARC
5
162
100
AcDbEntity
8
0
100
AcDbCircle
10
-239.38720866330442
20
6.5694514157736279
30
-1.909431395696854e-24
40
2.0000000000000564
210
-6.7952933446003263e-25
220
-8.0486170335911584e-25
230
1
100
AcDbArc
50
194.49195649041454
51
269.99999999976063
0
ARC
5
163
100
AcDbEntity
8
0
100
AcDbCircle
10
-254.87813298752695
20
6.5694520566233985
30
3.639253389396434e-17
40
2.000000073514157
210
1.6207945387800739e-17
220
-1.0006274141463373e-17
230
1
100
AcDbArc
50
269.99998315157836
51
345.50803876900318
0
ARC
5
164
100
AcDbEntity
8
0
100
AcDbCircle
10
-182.65097578402236
20
6.5694574228313733
30
-1.2955617975823451e-17
40
2.0000000000000515
210
5.7707748789191471e-18
220
3.5611178257719231e-18
230
1
100
AcDbArc
50
194.47750466495515
51
269.999995786174
0
ARC
5
165
100
AcDbEntity
8
0
100
AcDbCircle
10
-198.14291124497169
20
6.5694514156016357
30
8.848396926387936e-25
40
1.999999999999974
210
-4.8695452586266209e-25
220
5.2239696077870329e-25
230
1
100
AcDbArc
50
269.99999999976063
51
345.52253976963658
0
ARC
5
166
100
AcDbEntity
8
0
100
AcDbCircle
10
-87.576797665399297
20
6.5694525347120392
30
1.313611443611081e-16
40
2.0000000000000133
210
5.4835523924906893e-17
220
6.2385145656229278e-17
230
1
100
AcDbArc
50
194.47750019438271
51
270.00000001624659
0
ARC
5
167
100
AcDbEntity
8
0
100
AcDbCircle
10
-103.06873213649816
20
6.5694515699445954
30
-1.6598790983000804e-16
40
2.0000000000000222
210
3.9411876748692267e-17
220
-5.286725177804577e-17
230
1
100
AcDbArc
50
269.99999578617479
51
345.52250694185983
0
ARC
5
168
100
AcDbEntity
8
0
100
AcDbCircle
10
-45.830188918779797
20
6.5694525465497229
30
-1.313611244251662e-16
40
2.0000000000000027
210
5.483551720481114e-17
220
-6.2385150350222083e-17
230
1
100
AcDbArc
50
270.00000001624682
51
345.52248772284628
0
ARC
5
169
100
AcDbEntity
8
0
100
AcDbCircle
10
-30.338255516969753
20
6.5694524561194143
30
1.4255199904817362e-16
40
1.9999999999999902
210
4.9850806474414203e-17
220
5.9309105886171653e-17
230
1
100
AcDbArc
50
194.47751160825376
51
269.99999785810519
0
LWPOLYLINE
5
170
100
AcDbEntity
8
0
100
AcDbPolyline
90
8
70
1
43
0.0
10
-25.057780227387347
20
22.174530197232052
10
-25.057780250741473
20
21.674530197232045
10
-27.819105116147476
20
21.674530326211222
10
-27.819104835888936
20
27.674530326211215
10
-25.057779970483949
20
27.674530197232055
10
-25.057779993839073
20
27.174530197232052
10
-23.569104859244064
20
27.174530127698628
10
-23.569105092792348
20
22.174530127698624
0
LWPOLYLINE
5
171
100
AcDbEntity
8
0
100
AcDbPolyline
90
4
70
1
43
0.0
10
-23.569104835889231
20
27.674530197232055
10
-27.819105116147476
20
27.674530197232055
10
-27.819105116147476
20
21.674530326211222
10
-23.569104835889231
20
21.674530326211222
0
CIRCLE
5
172
100
AcDbEntity
8
0
100
AcDbCircle
10
-114.31596708614148
20
96.75445173001097
30
0
40
1.5239999999999998
210
8.2718061255302786e-25
220
-2.4800988121054041e-33
230
1
0
CIRCLE
5
173
100
AcDbEntity
8
0
100
AcDbCircle
10
-171.40246708614148
20
96.754451901170881
30
0
40
1.5239999999999998
210
8.2718061255302786e-25
220
-2.4800988121054041e-33
230
1
0
LWPOLYLINE
5
174
100
AcDbEntity
8
0
100
AcDbPolyline
90
8
70
1
43
0.0
10
-31.584220003327129
20
22.344425663015812
10
-246.91779325980411
20
22.344425699073707
42
-0.41421356237308465
10
-247.41779325971999
20
22.844425699157007
10
-247.41779325963671
20
23.344425699155575
42
-0.41421356237309509
10
-246.91779325955295
20
23.844425699071845
10
-31.584220586461207
20
23.84442566301442
42
-0.41421322063398647
10
-31.084220586545271
20
23.344426246315919
10
-31.084220003243761
20
22.844426246317315
42
-0.41421390411229397
0
ARC
5
175
100
AcDbEntity
8
0
100
AcDbCircle
10
-239.82178667456088
20
80.494200306530274
30
2.7755575615628914e-16
40
0.49999999999997158
210
8.2713176059023917e-25
220
-5.8771246400389018e-38
230
1
100
AcDbArc
50
89.999999999996746
51
180
0
LINE
5
176
100
AcDbEntity
8
0
100
AcDbLine
10
-240.32178667456088
20
79.99420030653161
30
2.7755575615628914e-16
11
-240.32178667456088
21
80.494200306530246
31
2.7755575656985499e-16
0
ARC
5
177
100
AcDbEntity
8
0
100
AcDbCircle
10
-239.82178667456088
20
79.994200306531582
30
2.7755575615628914e-16
40
0.49999999999997158
210
5.2548692412183627e-45
220
9.8607613152626476e-32
230
1
100
AcDbArc
50
180
51
270.00000000000324
0
LINE
5
178
100
AcDbEntity
8
0
100
AcDbLine
10
-230.32178667456088
20
79.49420030653161
30
0
11
-239.82178667456085
21
79.49420030653161
31
2.7755575615628918e-16
0
LINE
5
179
100
AcDbEntity
8
0
100
AcDbLine
10
-239.82178667456085
20
80.994200306530246
30
2.7755575615628914e-16
11
-230.32178725769489
21
80.994200306530246
31
-8.2718061255302767e-24
0
LINE
5
180
100
AcDbEntity
8
0
100
AcDbLine
10
-230.32178725769489
20
80.994200306530246
30
-8.2718061255302767e-24
11
-203.32101696259781
21
80.994200302008963
31
-2.7755576959137773e-16
0
LINE
5
181
100
AcDbEntity
8
0
100
AcDbLine
10
-204.29058777350846
20
79.494200302172715
30
0
11
-230.32178667456088
21
79.49420030653161
31
0
0
ARC
5
182
100
AcDbEntity
8
0
100
AcDbCircle
10
-203.35126900636169
20
80.495116327263077
30
0
40
0.50000000000004308
210
9.5802666541327224e-25
220
8.3711819592209162e-26
230
1
100
AcDbArc
50
16.974220728569119
51
89.999319528822696
0
ARC
5
183
100
AcDbEntity
8
0
100
AcDbCircle
10
-200.00957652886356
20
81.515130395773312
30
0
40
2.9939000149011248
210
-9.1986754325097581e-26
220
-2.3678854149383672e-25
230
1
100
AcDbArc
50
196.97422072856807
51
343.0226512443445
0
ARC
5
184
100
AcDbEntity
8
0
100
AcDbCircle
10
-204.32102922505223
20
78.995127844479498
30
0
40
0.50000000000003675
210
9.8821452476638415e-25
220
5.8801152841055866e-26
230
1
100
AcDbArc
50
30.305874326770862
51
89.99931952882595
0
ARC
5
185
100
AcDbEntity
8
0
100
AcDbCircle
10
-200.00957652886356
20
81.515130395773312
30
0
40
4.4938999999999494
210
2.455724654254714e-25
220
-6.1480406705205093e-25
230
1
100
AcDbArc
50
210.30587432677098
51
329.69139510276818
0
ARC
5
186
100
AcDbEntity
8
0
100
AcDbCircle
10
-195.69824393445401
20
78.994922374521565
30
0
40
0.50000000000000022
210
4.9973668480278435e-25
220
4.4186953944236326e-30
230
1
100
AcDbArc
50
89.999319528822696
51
149.69139510276412
0
ARC
5
187
100
AcDbEntity
8
0
100
AcDbCircle
10
-196.6679397433727
20
80.494933891181759
30
2.7755575615628914e-16
40
0.5000000000000091
210
4.9973668495023836e-25
220
4.4186953925805167e-30
230
1
100
AcDbArc
50
89.99931952882595
51
163.02265124433723
0
LINE
5
188
100
AcDbEntity
8
0
100
AcDbLine
10
-196.69321102495755
20
80.994294845128962
30
0
11
-89.050866033502672
21
80.994294827104369
31
-1.19956449626048e-22
0
LINE
5
189
100
AcDbEntity
8
0
100
AcDbLine
10
-90.020579657434595
20
79.494294827268206
30
0
11
-195.72328661322857
21
79.494294844968024
31
8.7092515232842588e-23
0
ARC
5
190
100
AcDbEntity
8
0
100
AcDbCircle
10
-89.050866033586388
20
80.494294827104369
30
0
40
0.49999999999999761
210
1.1957919463971287e-24
220
2.8681669350143056e-25
230
1
100
AcDbArc
50
16.976668274889199
51
89.999999990406835
0
ARC
5
191
100
AcDbEntity
8
0
100
AcDbCircle
10
-85.709217131834919
20
81.514451644240623
30
0
40
2.9939000149011736
210
-1.1382703903809634e-25
220
-3.2920307631592761e-25
230
1
100
AcDbArc
50
196.97666827488874
51
343.02509879066417
0
ARC
5
192
100
AcDbEntity
8
0
100
AcDbCircle
10
-90.020579657518311
20
78.994294827268192
30
0
40
0.50000000000000289
210
7.246778865536848e-25
220
-1.1316636667438599e-25
230
1
100
AcDbArc
50
30.307924416466243
51
89.999999990406835
0
ARC
5
193
100
AcDbEntity
8
0
100
AcDbCircle
10
-85.709217131834919
20
81.514451644240623
30
0
40
4.4938999999999716
210
1.7924452463345194e-25
220
-4.3198806859586891e-25
230
1
100
AcDbArc
50
210.30792441646437
51
329.6934451924613
0
ARC
5
194
100
AcDbEntity
8
0
100
AcDbCircle
10
-81.397794365087961
20
78.994397887596563
30
0
40
0.49999999999999822
210
7.1206096224185397e-25
220
-1.1922692640294888e-34
230
1
100
AcDbArc
50
89.999999990406835
51
149.6934451924615
0
ARC
5
195
100
AcDbEntity
8
0
100
AcDbCircle
10
-82.367536768902013
20
80.494397887757557
30
2.7755575615628914e-16
40
0.50000000000002487
210
7.1210981420464863e-25
220
-1.191846385039928e-34
230
1
100
AcDbArc
50
89.999999990410089
51
163.02509879066449
0
LINE
5
196
100
AcDbEntity
8
0
100
AcDbLine
10
-82.367536768818326
20
80.994397887757572
30
2.7755575615628914e-16
11
-45.871787257800193
21
80.994397881646378
31
-1.2341977061525974e-23
0
LINE
5
197
100
AcDbEntity
8
0
100
AcDbLine
10
-45.871786674666133
20
79.494397881647757
30
0
11
-81.397794365004245
21
79.494397887596563
31
-6.5401738365545069e-41
0
ARC
5
198
100
AcDbEntity
8
0
100
AcDbCircle
10
-45.871787257883909
20
80.494397881646407
30
2.7755575615628914e-16
40
0.50000000000000089
210
1.3640433651939337e-24
220
5.0661337481667209e-31
230
1
100
AcDbArc
50
6.6834718540585448e-05
51
89.999999990406835
0
LINE
5
199
100
AcDbEntity
8
0
100
AcDbLine
10
-45.37178725788425
20
80.494398464947921
30
2.7755575547426746e-16
11
-45.371786674582815
21
79.994398464949256
31
2.7755575615628854e-16
0
ARC
5
200
100
AcDbEntity
8
0
100
AcDbCircle
10
-45.871786674582403
20
79.994397881647757
30
2.7755575615628914e-16
40
0.49999999999999822
210
6.1909135233217525e-25
220
-5.5511151231258024e-16
230
1
100
AcDbArc
50
-90.0000000095948
51
6.6834718540585448e-05
0
ARC
5
201
100
AcDbEntity
8
0
100
AcDbCircle
10
-2.5092092458930564
20
6.5694514157829786
30
-2.2647486922229341e-24
40
1.9999999999999947
210
0
220
1.1323744447190837e-24
230
1
100
AcDbArc
50
-90
51
0
0
LINE
5
202
100
AcDbEntity
8
0
100
AcDbLine
10
-0.50920918301555984
20
6.5694514157829786
30
-2.264748679232862e-24
11
-0.50920918301555984
21
26.87636144699875
31
-2.7755575615628914e-16
0
LWPOLYLINE
5
203
100
AcDbEntity
8
0
100
AcDbPolyline
90
8
70
1
43
0.0
10
-31.084220586545271
20
23.344426246315919
42
0.41421322063398647
10
-31.584220586461207
20
23.84442566301442
10
-246.91779325955295
20
23.844425699071845
42
0.41421356237309509
10
-247.41779325963671
20
23.344425699155575
10
-247.41779325971999
20
22.844425699157007
42
0.41421356237308465
10
-246.91779325980411
20
22.344425699073707
10
-31.584220003327129
20
22.344425663015812
42
0.41421390411229397
10
-31.084220003243761
20
22.844426246317315
0
LINE
5
204
100
AcDbEntity
8
0
100
AcDbLine
10
-196.69321102495755
20
80.994294845128962
30
0
11
-89.050866033502672
21
80.994294827104369
31
-1.19956449626048e-22
0
ARC
5
205
100
AcDbEntity
8
0
100
AcDbCircle
10
-89.050866033586388
20
80.494294827104369
30
0
40
0.49999999999999761
210
1.1739424059777451e-24
220
3.5838754566822216e-25
230
1
100
AcDbArc
50
16.976668274889199
51
89.999999990406835
0
ARC
5
206
100
AcDbEntity
8
0
100
AcDbCircle
10
-85.709217131834919
20
81.514451644240623
30
0
40
2.9939000149011736
210
-1.960557133061938e-25
220
-5.9852958329342168e-26
230
1
100
AcDbArc
50
196.97666827488874
51
343.02509879066429
0
ARC
5
207
100
AcDbEntity
8
0
100
AcDbCircle
10
-82.367536768902013
20
80.494397887757557
30
2.7755575615628914e-16
40
0.50000000000002487
210
0
220
-0
230
1
100
AcDbArc
50
89.999999990410089
51
163.02509879066398
0
LINE
5
208
100
AcDbEntity
8
0
100
AcDbLine
10
-82.367536768818326
20
80.994397887757572
30
2.7755575615628914e-16
11
-45.871787257800193
21
80.994397881646378
31
-1.2341977045219083e-23
0
ARC
5
209
100
AcDbEntity
8
0
100
AcDbCircle
10
-45.871787257883909
20
80.494397881646407
30
2.7755575615628914e-16
40
0.50000000000000089
210
1.3640433651926684e-24
220
1.5912971194948249e-30
230
1
100
AcDbArc
50
6.6834718540585448e-05
51
89.999999990406835
0
LINE
5
210
100
AcDbEntity
8
0
100
AcDbLine
10
-45.37178725788425
20
80.494398464947921
30
2.7755575547426746e-16
11
-45.371786674582815
21
79.994398464949256
31
2.7755575615628854e-16
0
ARC
5
211
100
AcDbEntity
8
0
100
AcDbCircle
10
-45.871786674582403
20
79.994397881647757
30
2.7755575615628914e-16
40
0.49999999999999822
210
-9.2957396918981644e-26
220
-5.5511151231258024e-16
230
1
100
AcDbArc
50
-90.0000000095948
51
6.6834718540585448e-05
0
LINE
5
212
100
AcDbEntity
8
0
100
AcDbLine
10
-45.871786674666133
20
79.494397881647757
30
0
11
-81.397794365004245
21
79.494397887596563
31
-6.5401738365545069e-41
0
ARC
5
213
100
AcDbEntity
8
0
100
AcDbCircle
10
-81.397794365087961
20
78.994397887596563
30
0
40
0.49999999999999822
210
2.1901655096941121e-50
220
1.3080347673109061e-40
230
1
100
AcDbArc
50
89.999999990406835
51
149.6934451924615
0
ARC
5
214
100
AcDbEntity
8
0
100
AcDbCircle
10
-85.709217131834919
20
81.514451644240623
30
0
40
4.4938999999999716
210
-5.4609741123220751e-26
220
-3.1921488982875258e-26
230
1
100
AcDbArc
50
210.30792441646437
51
329.6934451924613
0
ARC
5
215
100
AcDbEntity
8
0
100
AcDbCircle
10
-90.020579657518311
20
78.994294827268192
30
0
40
0.50000000000000289
210
4.9082143126727403e-25
220
2.8690395868028897e-25
230
1
100
AcDbArc
50
30.307924416466243
51
89.999999990406835
0
LINE
5
216
100
AcDbEntity
8
0
100
AcDbLine
10
-90.020579657434595
20
79.494294827268206
30
5.6583183276523411e-26
11
-195.72328661322857
21
79.494294844968024
31
8.7092515232842588e-23
0
ARC
5
217
100
AcDbEntity
8
0
100
AcDbCircle
10
-196.6679397433727
20
80.494933891181759
30
2.7755575615628914e-16
40
0.5000000000000091
210
1.2296650987555725e-34
220
1.035379938029539e-29
230
1
100
AcDbArc
50
89.99931952882595
51
163.02265124433433
0
ARC
5
218
100
AcDbEntity
8
0
100
AcDbCircle
10
-200.00957652886356
20
81.515130395773312
30
0
40
2.9939000149011248
210
-1.5026362766414722e-25
220
-4.586628339827483e-26
230
1
100
AcDbArc
50
196.97422072856807
51
343.0226512443449
0
ARC
5
219
100
AcDbEntity
8
0
100
AcDbCircle
10
-203.35126900636169
20
80.495116327263077
30
0
40
0.50000000000004308
210
8.9974855420549147e-25
220
2.7463813309910414e-25
230
1
100
AcDbArc
50
16.974220728569119
51
89.999319528822696
0
ARC
5
220
100
AcDbEntity
8
0
100
AcDbCircle
10
-195.69824393445401
20
78.994922374521565
30
0
40
0.50000000000000022
210
1.2296650987665197e-34
220
1.0353799380387382e-29
230
1
100
AcDbArc
50
89.999319528822696
51
149.69139510276386
0
ARC
5
221
100
AcDbEntity
8
0
100
AcDbCircle
10
-200.00957652886356
20
81.515130395773312
30
0
40
4.4938999999999494
210
-8.4803316118102587e-26
220
-4.9566721018349757e-26
230
1
100
AcDbArc
50
210.30587432677098
51
329.69139510276818
0
ARC
5
222
100
AcDbEntity
8
0
100
AcDbCircle
10
-204.32102922505223
20
78.995127844479498
30
0
40
0.50000000000003675
210
7.621952446062287e-25
220
4.4549577516866737e-25
230
1
100
AcDbArc
50
30.305874326770862
51
89.99931952882595
0
LINE
5
223
100
AcDbEntity
8
0
100
AcDbLine
10
-204.29058777350846
20
79.494200302172715
30
0
11
-230.32178667456088
21
79.49420030653161
31
0
0
LINE
5
224
100
AcDbEntity
8
0
100
AcDbLine
10
-230.32178667456088
20
79.49420030653161
30
0
11
-239.82178667456085
21
79.49420030653161
31
2.7755575615628918e-16
0
ARC
5
225
100
AcDbEntity
8
0
100
AcDbCircle
10
-239.82178667456088
20
79.994200306531582
30
2.7755575615628914e-16
40
0.49999999999997158
210
0
220
0
230
1
100
AcDbArc
50
180
51
270.00000000000324
0
LINE
5
226
100
AcDbEntity
8
0
100
AcDbLine
10
-240.32178667456088
20
79.99420030653161
30
2.7755575615628914e-16
11
-240.32178667456088
21
80.494200306530246
31
2.7755575656985499e-16
0
ARC
5
227
100
AcDbEntity
8
0
100
AcDbCircle
10
-239.82178667456088
20
80.494200306530274
30
2.7755575615628914e-16
40
0.49999999999997158
210
0
220
-0
230
1
100
AcDbArc
50
89.999999999996746
51
180
0
LINE
5
228
100
AcDbEntity
8
0
100
AcDbLine
10
-239.82178667456085
20
80.994200306530246
30
2.7755575615628914e-16
11
-230.32178725769489
21
80.994200306530246
31
-8.2718061255302767e-24
0
LINE
5
229
100
AcDbEntity
8
0
100
AcDbLine
10
-230.32178725769489
20
80.994200306530246
30
-8.2718061255302767e-24
11
-203.32101696259781
21
80.994200302008963
31
-2.7755576959137773e-16
0
ENDSEC
0
SECTION
2
OBJECTS
0
DICTIONARY
5
C
100
AcDbDictionary
3
ACAD_GROUP
350
D
3
ACAD_MLINESTYLE
350
17
0
DICTIONARY
5
D
100
AcDbDictionary
0
DICTIONARY
5
1A
330
C
100
AcDbDictionary
0
DICTIONARY
5
17
100
AcDbDictionary
0
ENDSEC
0
EOF
