0
SECTION
2
HEADER
9
$INSUNITS
70
4
9
$ACADVER
1
AC1014
9
$HANDSEED
5
FFFF
0
ENDSEC
0
SECTION
2
TABLES
0
TABLE
2
VPORT
5
8
100
AcDbSymbolTable
0
ENDTAB
0
TABLE
2
LTYPE
5
5
100
AcDbSymbolTable
0
LTYPE
5
14
100
AcDbSymbolTableRecord
100
AcDbLinetypeTableRecord
2
BYBLOCK
70
0
0
LTYPE
5
15
100
AcDbSymbolTableRecord
100
AcDbLinetypeTableRecord
2
BYLAYER
70
0
0
ENDTAB
0
TABLE
2
LAYER
5
2
100
AcDbSymbolTable
70
2
0
LAYER
5
50
100
AcDbSymbolTableRecord
100
AcDbLayerTableRecord
2
0
70
0
6
CONTINUOUS
0
ENDTAB
0
TABLE
2
STYLE
5
3
100
AcDbSymbolTable
70
1
0
STYLE
5
11
100
AcDbSymbolTableRecord
100
AcDbTextStyleTableRecord
2
STANDARD
70
0
0
ENDTAB
0
TABLE
2
VIEW
5
6
100
AcDbSymbolTable
70
0
0
ENDTAB
0
TABLE
2
UCS
5
7
100
AcDbSymbolTable
70
0
0
ENDTAB
0
TABLE
2
APPID
5
9
100
AcDbSymbolTable
70
2
0
APPID
5
12
100
AcDbSymbolTableRecord
100
AcDbRegAppTableRecord
2
ACAD
70
0
0
ENDTAB
0
TABLE
2
DIMSTYLE
5
A
100
AcDbSymbolTable
70
1
0
ENDTAB
0
TABLE
2
BLOCK_RECORD
5
1
100
AcDbSymbolTable
70
1
0
BLOCK_RECORD
5
1F
100
AcDbSymbolTableRecord
100
AcDbBlockTableRecord
2
*MODEL_SPACE
0
BLOCK_RECORD
5
1B
100
AcDbSymbolTableRecord
100
AcDbBlockTableRecord
2
*PAPER_SPACE
0
ENDTAB
0
ENDSEC
0
SECTION
2
BLOCKS
0
BLOCK
5
20
100
AcDbEntity
100
AcDbBlockBegin
2
*MODEL_SPACE
0
ENDBLK
5
21
100
AcDbEntity
100
AcDbBlockEnd
0
BLOCK
5
1C
100
AcDbEntity
100
AcDbBlockBegin
2
*PAPER_SPACE
0
ENDBLK
5
1D
100
AcDbEntity
100
AcDbBlockEnd
0
ENDSEC
0
SECTION
2
ENTITIES
0
SPLINE
5
100
100
AcDbEntity
8
0
100
AcDbSpline
70
0
71
3
72
26
73
22
74
0
42
0.000000001
43
0.0000000001
44
0.0000000001
40
-0.89280987549404878
40
-0.89280987549404878
40
-0.89280987549404878
40
-0.89280987549404878
40
-0.80384545097813176
40
-0.80384545097813176
40
-0.80384545097813176
40
-0.6437786208116314
40
-0.6437786208116314
40
-0.6437786208116314
40
-0.43282177743487804
40
-0.43282177743487804
40
-0.43282177743487804
40
-0.22963058761526983
40
-0.22963058761526983
40
-0.22963058761526983
40
-0.11481529380763492
40
-0.11481529380763492
40
-0.11481529380763492
40
-0.021362297063100902
40
-0.021362297063100902
40
-0.021362297063100902
40
-0.0039986556342086763
40
-0.0039986556342086763
40
-0.0039986556342086763
40
-0.0039986556342086763
10
-32.303655283143577
20
93.120671587854019
30
0
10
-31.751182969242979
20
92.281130580086668
30
0
10
-31.447436756508694
20
91.791918822386634
30
0
10
-31.209622256622204
20
91.389927592415475
30
2.7755575615628914e-16
10
-30.781740961693455
20
90.666655764532152
30
0
10
-30.597303416818832
20
90.272393031421075
30
-2.7755575615628914e-16
10
-30.475233033440936
20
89.914015204085189
30
-2.7755575615628914e-16
10
-30.314352839084595
20
89.441698390462079
30
0
10
-30.290546031682872
20
89.041771014680023
30
-2.7755575615628914e-16
10
-30.440152229661468
20
88.666749199068576
30
0
10
-30.584251187936879
20
88.305532526963248
30
0
10
-30.852254778449222
20
88.032734465530226
30
0
10
-31.289996780574949
20
87.752263929399348
30
2.7755575615628914e-16
10
-31.537347448832897
20
87.593781137705264
30
2.7755575615628914e-16
10
-31.84171612398416
20
87.430226080049778
30
0
10
-32.316297658453806
20
87.215105127035102
30
0
10
-32.702579530188729
20
87.040009135420576
30
-2.7755575615628914e-16
10
-33.186017310215014
20
86.836388367777047
30
0
10
-34.010133499555067
20
86.518980454737658
30
0
10
-34.163254945692991
20
86.46000581100553
30
0
10
-34.329244450356605
20
86.396727512830751
30
0
10
-34.512140830552489
20
86.327747725588878
30
0
0
SPLINE
5
101
100
AcDbEntity
8
0
100
AcDbSpline
70
0
71
3
72
26
73
22
74
0
42
0.000000001
43
0.0000000001
44
0.0000000001
40
-0.89332482229935251
40
-0.89332482229935251
40
-0.89332482229935251
40
-0.89332482229935251
40
-0.80434445964901413
40
-0.80434445964901413
40
-0.80434445964901413
40
-0.64425220813543693
40
-0.64425220813543693
40
-0.64425220813543693
40
-0.43335013849278359
40
-0.43335013849278359
40
-0.43335013849278359
40
-0.23001501535666641
40
-0.23001501535666641
40
-0.23001501535666641
40
-0.1150075076783332
40
-0.1150075076783332
40
-0.1150075076783332
40
-0.021503717721921375
40
-0.021503717721921375
40
-0.021503717721921375
40
-0.0040022546220448846
40
-0.0040022546220448846
40
-0.0040022546220448846
40
-0.0040022546220448846
10
-38.084434199685482
20
97.32233814420178
30
0
10
-37.114504838636442
20
97.588222382603874
30
0
10
-36.554916781188005
20
97.725875204544778
30
2.7755575615628914e-16
10
-36.098759797594447
20
97.827787045899072
30
0
10
-35.278048391482237
20
98.011145437035537
30
-2.7755575615628914e-16
10
-34.845802219341223
20
98.06469762534951
30
0
10
-34.467077079001157
20
98.070070913417482
30
0
10
-33.968152770246277
20
98.077149566903898
30
0
10
-33.580648983208825
20
97.976533558884
30
0
10
-33.270093151368613
20
97.718866507283821
30
0
10
-32.970679739187013
20
97.470444281015403
30
0
10
-32.793736321129344
20
97.131209905548062
30
0
10
-32.662236362368574
20
96.628521311864063
30
0
10
-32.587859234189125
20
96.344197770479525
30
0
10
-32.526360550370953
20
96.004086030170853
30
0
10
-32.468496472249242
20
95.485934169340965
30
-2.7755575615628914e-16
10
-32.421451625213294
20
95.064664604087284
30
2.7755575615628914e-16
10
-32.377342274445638
20
94.542250112131327
30
0
10
-32.33042276642842
20
93.661084054376417
30
0
10
-32.321640662102908
20
93.49615282269211
30
-2.7755575615628914e-16
10
-32.312745395080846
20
93.31747117797579
30
2.7755575615628914e-16
10
-32.303655283143534
20
93.120671587854034
30
0
0
SPLINE
5
102
100
AcDbEntity
8
0
100
AcDbSpline
70
0
71
3
72
26
73
22
74
0
42
0.000000001
43
0.0000000001
44
0.0000000001
40
0.004002254622045006
40
0.004002254622045006
40
0.004002254622045006
40
0.004002254622045006
40
0.092977037601148046
40
0.092977037601148046
40
0.092977037601148046
40
0.2530701449931731
40
0.2530701449931731
40
0.2530701449931731
40
0.46397768745263751
40
0.46397768745263751
40
0.46397768745263751
40
0.6673113736839662
40
0.6673113736839662
40
0.6673113736839662
40
0.78231614579236308
40
0.78231614579236308
40
0.78231614579236308
40
0.87581895208671379
40
0.87581895208671379
40
0.87581895208671379
40
0.8933248222993504
40
0.8933248222993504
40
0.8933248222993504
40
0.8933248222993504
10
-43.865214021017074
20
93.120672832691156
30
0
10
-43.8188163325392
20
94.125171289650723
30
0
10
-43.777071060033506
20
94.69987045033605
30
0
10
-43.733246626794191
20
95.165173510177311
30
0
10
-43.654392939692464
20
96.002397386817734
30
0
10
-43.57194342967211
20
96.430065588442758
30
-2.7755575615628914e-16
10
-43.460180251401574
20
96.791959966980443
30
0
10
-43.312942824066383
20
97.268721616814489
30
2.7755575615628914e-16
10
-43.097638072032048
20
97.60626715500932
30
0
10
-42.756691554650331
20
97.822140188131058
30
0
10
-42.427988695669924
20
98.030261050337856
30
0
10
-42.050709479654024
20
98.093869997873497
30
0
10
-41.531961836699516
20
98.063817457738025
30
0
10
-41.23856011086901
20
98.046819853486525
30
0
10
-40.896064631451317
20
98.000357876230396
30
0
10
-40.3853387434105
20
97.895497889473674
30
2.7755575615628914e-16
10
-39.970101158886791
20
97.810243140040313
30
0
10
-39.459557727114827
20
97.690983407941047
30
0
10
-38.606895386145098
20
97.463687680015099
30
0
10
-38.44725743657137
20
97.42113270577795
30
0
10
-38.274498051143404
20
97.374439902435896
30
0
10
-38.084434199685482
20
97.322338144201808
30
0
0
SPLINE
5
103
100
AcDbEntity
8
0
100
AcDbSpline
70
0
71
3
72
26
73
22
74
0
42
0.000000001
43
0.0000000001
44
0.0000000001
40
0.0039986556342021112
40
0.0039986556342021112
40
0.0039986556342021112
40
0.0039986556342021112
40
0.092955298512430604
40
0.092955298512430604
40
0.092955298512430604
40
0.25300279398916392
40
0.25300279398916392
40
0.25300279398916392
40
0.46383427623190432
40
0.46383427623190432
40
0.46383427623190432
40
0.6670580456453471
40
0.6670580456453471
40
0.6670580456453471
40
0.78193594575789904
40
0.78193594575789904
40
0.78193594575789904
40
0.87541132189012016
40
0.87541132189012016
40
0.87541132189012016
40
0.89280987549404989
40
0.89280987549404989
40
0.89280987549404989
40
0.89280987549404989
10
-41.656729936401085
20
86.327748494849246
30
0
10
-42.597483863182902
20
86.682556216953216
30
0
10
-43.130982954501995
20
86.899993550350629
30
0
10
-43.559826693333072
20
87.085574359509678
30
0
10
-44.3313864569445
20
87.419464474440304
30
-2.7755575615628914e-16
10
-44.712480917590483
20
87.630120243265509
30
0
10
-45.021983607068236
20
87.848323974124952
30
0
10
-45.429693272166958
20
88.135764998246941
30
0
10
-45.684039811685594
20
88.444924251043517
30
0
10
-45.783782772861244
20
88.83592399648424
30
0
10
-45.879926576087165
20
89.212814777988456
30
0
10
-45.823681421717836
20
89.591171951628354
30
0
10
-45.634615065175637
20
90.07512553432457
30
0
10
-45.527740037297811
20
90.34869378617104
30
0
10
-45.377701518228271
20
90.659810494980491
30
0
10
-45.120234920500231
20
91.11264596588461
30
0
10
-44.910736078333613
20
91.481115148619509
30
0
10
-44.639419553000607
20
91.929691541425711
30
0
10
-44.159419935592538
20
92.670348313659048
30
0
10
-44.070077700033877
20
92.808206614818346
30
0
10
-43.972828839947383
20
92.957140635882624
30
0
10
-43.865214021017003
20
93.120672832691142
30
0
0
SPLINE
5
104
100
AcDbEntity
8
0
100
AcDbSpline
70
0
71
3
72
26
73
22
74
0
42
0.000000001
43
0.0000000001
44
0.0000000001
40
0.0039988108061704023
40
0.0039988108061704023
40
0.0039988108061704023
40
0.0039988108061704023
40
0.092958470737895801
40
0.092958470737895801
40
0.092958470737895801
40
0.25302082402838727
40
0.25302082402838727
40
0.25302082402838727
40
0.46389165383979569
40
0.46389165383979569
40
0.46389165383979569
40
0.66716681527409216
40
0.66716681527409216
40
0.66716681527409216
40
0.78211665489406701
40
0.78211665489406701
40
0.78211665489406701
40
0.87559568700622925
40
0.87559568700622925
40
0.87559568700622925
40
0.89306768370786682
40
0.89306768370786682
40
0.89306768370786682
40
0.89306768370786682
10
-34.512140830552497
20
86.327747725588893
30
0
10
-35.140197500286504
20
85.542610430793331
30
0
10
-35.511793071942783
20
85.102381922110311
30
0
10
-35.820762214997423
20
84.751847126363415
30
0
10
-36.376680798425319
20
84.121140754952947
30
0
10
-36.694749791747675
20
83.823766843439316
30
0
10
-36.997879434749763
20
83.596809942666226
30
2.7755575615628914e-16
10
-37.397231300108615
20
83.29781027776319
30
2.7755575615628914e-16
10
-37.76984531712538
20
83.151412997988871
30
0
10
-38.172525560034714
20
83.177331388899177
30
2.7755575615628914e-16
10
-38.560701067557503
20
83.202316186944103
30
0
10
-38.903181639346002
20
83.372701947935525
30
0
10
-39.305054042022284
20
83.702014457027985
30
2.7755575615628914e-16
10
-39.532308409498285
20
83.888237012887416
30
-2.7755575615628914e-16
10
-39.781949106276883
20
84.127138296397774
30
0
10
-40.133288536004301
20
84.512124788366322
30
0
10
-40.419003330755963
20
84.825201907607664
30
0
10
-40.761811055766408
20
85.221813608539918
30
0
10
-41.317855260659002
20
85.906998540457749
30
0
10
-41.421784476594738
20
86.035065215946176
30
0
10
-41.533868389167885
20
86.174158492446665
30
2.7755575615628914e-16
10
-41.656729936401085
20
86.327748494849246
30
0
0
SPLINE
5
105
100
AcDbEntity
8
0
100
AcDbSpline
70
0
71
3
72
26
73
22
74
0
42
0.000000001
43
0.0000000001
44
0.0000000001
40
0.0081245483801450063
40
0.0081245483801450063
40
0.0081245483801450063
40
0.0081245483801450063
40
0.093007425048734452
40
0.093007425048734452
40
0.093007425048734452
40
0.25227813241987707
40
0.25227813241987707
40
0.25227813241987707
40
0.43564349453617607
40
0.43564349453617607
40
0.43564349453617607
40
0.62297441258425146
40
0.62297441258425146
40
0.62297441258425146
40
0.76002045354914671
40
0.76002045354914671
40
0.76002045354914671
40
0.85756903436231635
40
0.85756903436231635
40
0.85756903436231635
40
0.88894194613389699
40
0.88894194613389699
40
0.88894194613389699
40
0.88894194613389699
10
-34.207432515171803
20
85.908403806130579
30
0
10
-34.787914631799119
20
85.185072943286741
30
0
10
-35.144658872971476
20
84.762714432317452
30
0
10
-35.446191918368392
20
84.420640693015102
30
0
10
-36.011976011945343
20
83.778787723723141
30
0
10
-36.34854823522943
20
83.459173696219509
30
0
10
-36.693386156218523
20
83.200179568425042
30
0
10
-37.090391552234315
20
82.902004512805036
30
2.7755575615628914e-16
10
-37.505744961434502
20
82.703035272577679
30
0
10
-37.983517442332825
20
82.677222128568388
30
-2.7755575615628914e-16
10
-38.471622482629492
20
82.650850735906431
30
0
10
-38.929540613462201
20
82.823839024937399
30
0
10
-39.334140447617031
20
83.098988257919615
30
0
10
-39.630134328518963
20
83.300279712889491
30
2.7755575615628914e-16
10
-39.914972710027953
20
83.55220603882475
30
0
10
-40.304425708875577
20
83.962062240188104
30
2.7755575615628914e-16
10
-40.581636105203252
20
84.253795518281933
30
0
10
-40.904374818112352
20
84.617414247294761
30
0
10
-41.405981899206282
20
85.225091479101366
30
0
10
-41.567305360480418
20
85.420528501558721
30
-2.7755575615628914e-16
10
-41.748203134843038
20
85.642695035032489
30
0
10
-41.961438342083696
20
85.908404641007166
30
0
0
SPLINE
5
106
100
AcDbEntity
8
0
100
AcDbSpline
70
0
71
3
72
26
73
22
74
0
42
0.000000001
43
0.0000000001
44
0.0000000001
40
0.0081242270425505424
40
0.0081242270425505424
40
0.0081242270425505424
40
0.0081242270425505424
40
0.093004279397613313
40
0.093004279397613313
40
0.093004279397613313
40
0.25226110438008797
40
0.25226110438008797
40
0.25226110438008797
40
0.43559358717788943
40
0.43559358717788943
40
0.43559358717788943
40
0.62287679380976479
40
0.62287679380976479
40
0.62287679380976479
40
0.75984531984010784
40
0.75984531984010784
40
0.75984531984010784
40
0.85739018932937006
40
0.85739018932937006
40
0.85739018932937006
40
0.88867864127621499
40
0.88867864127621499
40
0.88867864127621499
40
0.88867864127621499
10
-41.961438342083696
20
85.908404641007166
30
0
10
-42.828713808698396
20
86.237057467383508
30
0
10
-43.340628831205606
20
86.445889876109149
30
0
10
-43.75912846218214
20
86.627012025389419
30
0
10
-44.544341484988259
20
86.966843795376064
30
2.7755575615628914e-16
10
-44.952304420522282
20
87.188227956921494
30
2.7755575615628914e-16
10
-45.305164481083544
20
87.436207091550926
30
0
10
-45.711368177471428
20
87.721674483222614
30
2.7755575615628914e-16
10
-46.028912352192215
20
88.055244472795806
30
2.7755575615628914e-16
10
-46.201051029248646
20
88.501684568353625
30
0
10
-46.37689920919204
20
88.957745225958547
30
2.7755575615628914e-16
10
-46.353839278486817
20
89.446692897925359
30
-2.7755575615628914e-16
10
-46.217133861104401
20
89.916503156932691
30
-2.7755575615628914e-16
10
-46.117155118450569
20
90.260096263049533
30
0
10
-45.965594305133408
20
90.608729450143301
30
2.7755575615628914e-16
10
-45.696235949834481
20
91.105517671530862
30
0
10
-45.504407021138448
20
91.45931531850502
30
-2.7755575615628914e-16
10
-45.25826745584888
20
91.878619091786021
30
0
10
-44.83518082186567
20
92.543543193798484
30
0
10
-44.699471728337237
20
92.75682397343401
30
0
10
-44.544476747517081
20
92.996854373400097
30
0
10
-44.358242836849186
20
93.280829774829584
30
0
0
SPLINE
5
107
100
AcDbEntity
8
0
100
AcDbSpline
70
0
71
3
72
26
73
22
74
0
42
0.000000001
43
0.0000000001
44
0.0000000001
40
-0.88867864127621432
40
-0.88867864127621432
40
-0.88867864127621432
40
-0.88867864127621432
40
-0.80379643006537393
40
-0.80379643006537393
40
-0.80379643006537393
40
-0.6445261348770599
40
-0.6445261348770599
40
-0.6445261348770599
40
-0.46118435191788631
40
-0.46118435191788631
40
-0.46118435191788631
40
-0.27391225929932667
40
-0.27391225929932667
40
-0.27391225929932667
40
-0.13695612964966333
40
-0.13695612964966333
40
-0.13695612964966333
40
-0.039424771462446828
40
-0.039424771462446828
40
-0.039424771462446828
40
-0.0081242270425534342
40
-0.0081242270425534342
40
-0.0081242270425534342
40
-0.0081242270425534342
10
-31.810626432823121
20
93.28082842382328
30
0
10
-31.302277434743523
20
92.505681308744727
30
0
10
-31.010947043493605
20
92.03612871623946
30
0
10
-30.778885485287454
20
91.643830021564554
30
0
10
-30.34345252059304
20
90.907733164383671
30
0
10
-30.143560511884495
20
90.488974463824434
30
0
10
-30.00389675775385
20
90.080971278763371
30
0
10
-29.843124771572704
20
89.611304092464295
30
0
10
-29.7824399027513
20
89.154592996112214
30
0
10
-29.905841542162214
20
88.69225953142724
30
-2.7755575615628914e-16
10
-30.03188855049849
20
88.220014994357228
30
0
10
-30.337997863560421
20
87.83829994330813
30
0
10
-30.724793432513394
20
87.538611632725946
30
0
10
-31.007665393566004
20
87.319443092743953
30
2.7755575615628914e-16
10
-31.335260727764581
20
87.126428971445634
30
0
10
-31.845327034382649
20
86.882703991089215
30
0
10
-32.208563493950052
20
86.709138715704142
30
0
10
-32.654276955138492
20
86.51445832895746
30
0
10
-33.387553123751331
20
86.224983116868714
30
0
10
-33.622881983251652
20
86.132082413927122
30
2.7755575615628914e-16
10
-33.889572142468921
20
86.028856471996249
30
0
10
-34.207432515171817
20
85.908403806130593
30
0
0
SPLINE
5
108
100
AcDbEntity
8
0
100
AcDbSpline
70
0
71
3
72
26
73
22
74
0
42
0.000000001
43
0.0000000001
44
0.0000000001
40
-0.88920203418233412
40
-0.88920203418233412
40
-0.88920203418233412
40
-0.88920203418233412
40
-0.80429551373022634
40
-0.80429551373022634
40
-0.80429551373022634
40
-0.64499436429623791
40
-0.64499436429623791
40
-0.64499436429623791
40
-0.46158249610373825
40
-0.46158249610373825
40
-0.46158249610373825
40
-0.27419706073286298
40
-0.27419706073286298
40
-0.27419706073286298
40
-0.13709853036643149
40
-0.13709853036643149
40
-0.13709853036643149
40
-0.0395265339513583
40
-0.0395265339513583
40
-0.0395265339513583
40
-0.0081316334506816596
40
-0.0081316334506816596
40
-0.0081316334506816596
40
-0.0081316334506816596
10
-38.084434143876074
20
97.840674249482504
30
2.7755575615628914e-16
10
-37.189274668045712
20
98.084551844173248
30
0
10
-36.65218928649751
20
98.216486311379271
30
0
10
-36.207009106449703
20
98.315929131363191
30
0
10
-35.371764486728814
20
98.50250320649954
30
0
10
-34.911480420012779
20
98.563163987389345
30
0
10
-34.480193836035291
20
98.569930609502649
30
0
10
-33.983630701527268
20
98.577721380677616
30
0
10
-33.530631492260731
20
98.494483308714806
30
0
10
-33.128917754000227
20
98.23447648376677
30
2.7755575615628914e-16
10
-32.718500999183668
20
97.968836683177898
30
0
10
-32.449704423586333
20
97.559623785077591
30
0
10
-32.284148713864248
20
97.099101284500676
30
-2.7755575615628914e-16
10
-32.16302166654733
20
96.762164969760903
30
-2.7755575615628914e-16
10
-32.080711039049454
20
96.390818860776875
30
0
10
-32.006641222478891
20
95.830151098524553
30
2.7755575615628914e-16
10
-31.953926289229262
20
95.431128054715728
30
2.7755575615628914e-16
10
-31.906651804440642
20
94.947177675771698
30
0
10
-31.85819314028253
20
94.160653861568434
30
2.7755575615628914e-16
10
-31.842601013488615
20
93.90758087141171
30
0
10
-31.826891672093446
20
93.621350068529836
30
0
10
-31.810626432823103
20
93.28082842382328
30
0
0
SPLINE
5
109
100
AcDbEntity
8
0
100
AcDbSpline
70
0
71
3
72
26
73
22
74
0
42
0.000000001
43
0.0000000001
44
0.0000000001
40
0.0081316334506830595
40
0.0081316334506830595
40
0.0081316334506830595
40
0.0081316334506830595
40
0.093025985289507632
40
0.093025985289507632
40
0.093025985289507632
40
0.25232773165881112
40
0.25232773165881112
40
0.25232773165881112
40
0.4357400036844673
40
0.4357400036844673
40
0.4357400036844673
40
0.62312494357628934
40
0.62312494357628934
40
0.62312494357628934
40
0.76022293073852465
40
0.76022293073852465
40
0.76022293073852465
40
0.85779433031384367
40
0.85779433031384367
40
0.85779433031384367
40
0.88920203418233001
40
0.88920203418233001
40
0.88920203418233001
40
0.88920203418233001
10
-44.3582428368492
20
93.280829774829584
30
0
10
-44.313989411698991
20
94.207295151364988
30
0
10
-44.273751896134115
20
94.758778773573894
30
0
10
-44.230969583834685
20
95.212843904763474
30
0
10
-44.15068983712132
20
96.064883725990171
30
0
10
-44.066349755532073
20
96.521416514486575
30
0
10
-43.939690857803456
20
96.933739248643718
30
0
10
-43.793861971842496
20
97.408467562696671
30
2.7755575615628914e-16
10
-43.574881537292384
20
97.813673283350951
30
0
10
-43.203588530099147
20
98.115535375621221
30
0
10
-42.824253401283848
20
98.423935731775003
30
0
10
-42.35206875278017
20
98.553318660470268
30
0
10
-41.862932326703579
20
98.56867489561607
30
0
10
-41.505061414016865
20
98.579910104433225
30
2.7755575615628914e-16
10
-41.126435483366365
20
98.543606971354791
30
2.7755575615628914e-16
10
-40.570265805126347
20
98.441041943094149
30
0
10
-40.174444866901943
20
98.368047338563372
30
0
10
-39.699518224988395
20
98.263670029128491
30
2.7755575615628914e-16
10
-38.936416853065275
20
98.067047846835351
30
0
10
-38.69077866384881
20
98.003756233695469
30
0
10
-38.413539002908642
20
97.930335781016709
30
0
10
-38.084434143876067
20
97.840674249482532
30
2.7755575615628914e-16
0
SPLINE
5
110
100
AcDbEntity
8
0
100
AcDbSpline
70
0
71
3
72
26
73
22
74
0
42
0.000000001
43
0.0000000001
44
0.0000000001
40
-0.8886786412762091
40
-0.8886786412762091
40
-0.8886786412762091
40
-0.8886786412762091
40
-0.80379643006537382
40
-0.80379643006537382
40
-0.80379643006537382
40
-0.64452613487706467
40
-0.64452613487706467
40
-0.64452613487706467
40
-0.46118435191791018
40
-0.46118435191791018
40
-0.46118435191791018
40
-0.27391225929935598
40
-0.27391225929935598
40
-0.27391225929935598
40
-0.13695612964967799
40
-0.13695612964967799
40
-0.13695612964967799
40
-0.039424771462457819
40
-0.039424771462457819
40
-0.039424771462457819
40
-0.0081242270425589975
40
-0.0081242270425589975
40
-0.0081242270425589975
40
-0.0081242270425589975
10
-241.36066048731772
20
93.280850986149318
30
0
10
-240.85231148923799
20
92.505703871070821
30
0
10
-240.56098109798793
20
92.036151278565569
30
0
10
-240.32891953978177
20
91.643852583890677
30
0
10
-239.89348657508725
20
90.907755726709809
30
0
10
-239.69359456637872
20
90.488997026150656
30
0
10
-239.55393081224801
20
90.080993841089594
30
2.7755575615628914e-16
10
-239.39315882606681
20
89.611326654790574
30
0
10
-239.33247395724527
20
89.154615558438508
30
0
10
-239.45587559665609
20
88.692282093753533
30
0
10
-239.58192260499226
20
88.220037556683508
30
-2.7755575615628914e-16
10
-239.88803191805417
20
87.838322505634295
30
0
10
-240.27482748700709
20
87.538634195052097
30
0
10
-240.55769944805971
20
87.319465655070047
30
0
10
-240.88529478225826
20
87.126451533771757
30
0
10
-241.39536108887631
20
86.882726553415324
30
2.7755575615628914e-16
10
-241.7585975484437
20
86.709161278030265
30
0
10
-242.20431100963219
20
86.514480891283583
30
2.7755575615628914e-16
10
-242.937587178245
20
86.225005679194879
30
-2.7755575615628914e-16
10
-243.17291603774535
20
86.132104976253288
30
0
10
-243.43960619696261
20
86.028879034322415
30
0
10
-243.75746656966555
20
85.908426368456759
30
0
0
SPLINE
5
111
100
AcDbEntity
8
0
100
AcDbSpline
70
0
71
3
72
26
73
22
74
0
42
0.000000001
43
0.0000000001
44
0.0000000001
40
0.0040022546220403795
40
0.0040022546220403795
40
0.0040022546220403795
40
0.0040022546220403795
40
0.092977037601148824
40
0.092977037601148824
40
0.092977037601148824
40
0.25307014499317543
40
0.25307014499317543
40
0.25307014499317543
40
0.46397768745246859
40
0.46397768745246859
40
0.46397768745246859
40
0.66731137368383964
40
0.66731137368383964
40
0.66731137368383964
40
0.7823161457923008
40
0.7823161457923008
40
0.7823161457923008
40
0.87581895208666694
40
0.87581895208666694
40
0.87581895208666694
40
0.8933248222993504
40
0.8933248222993504
40
0.8933248222993504
40
0.8933248222993504
10
-253.41524807551201
20
93.120695395017094
30
0
10
-253.36885038703397
20
94.125193851976803
30
0
10
-253.32710511452805
20
94.69989301266213
30
0
10
-253.28328068128866
20
95.165196072503448
30
0
10
-253.20442699418678
20
96.002419949143899
30
0
10
-253.12197748416639
20
96.430088150768896
30
0
10
-253.01021430589583
20
96.79198252930658
30
-2.7755575615628914e-16
10
-252.86297687856069
20
97.268744179140199
30
0
10
-252.64767212652657
20
97.606289717334732
30
0
10
-252.3067256091453
20
97.822162750456528
30
2.7755575615628914e-16
10
-251.978022750165
20
98.030283612663581
30
-2.7755575615628914e-16
10
-251.60074353414913
20
98.093892560199478
30
0
10
-251.08199589119482
20
98.063840020064106
30
0
10
-250.78859416536432
20
98.046842415812648
30
0
10
-250.44609868594659
20
98.000380438556533
30
0
10
-249.93537279790576
20
97.895520451799811
30
0
10
-249.52013521338219
20
97.810265702366479
30
0
10
-249.00959178161045
20
97.691005970267241
30
0
10
-248.15692944064114
20
97.463710242341349
30
0
10
-247.9972914910671
20
97.421155268104087
30
2.7755575615628914e-16
10
-247.82453210563872
20
97.374462464761891
30
0
10
-247.63446825418038
20
97.322360706527661
30
0
0
SPLINE
5
112
100
AcDbEntity
8
0
100
AcDbSpline
70
0
71
3
72
26
73
22
74
0
42
0.000000001
43
0.0000000001
44
0.0000000001
40
-0.89332482229935095
40
-0.89332482229935095
40
-0.89332482229935095
40
-0.89332482229935095
40
-0.80434445964901879
40
-0.80434445964901879
40
-0.80434445964901879
40
-0.64425220813545259
40
-0.64425220813545259
40
-0.64425220813545259
40
-0.43335013849276116
40
-0.43335013849276116
40
-0.43335013849276116
40
-0.23001501535666039
40
-0.23001501535666039
40
-0.23001501535666039
40
-0.11500750767833019
40
-0.11500750767833019
40
-0.11500750767833019
40
-0.021503717721918961
40
-0.021503717721918961
40
-0.021503717721918961
40
-0.0040022546220462741
40
-0.0040022546220462741
40
-0.0040022546220462741
40
-0.0040022546220462741
10
-247.63446825418038
20
97.322360706527675
30
0
10
-246.66453889313121
20
97.588244944929784
30
0
10
-246.10495083568264
20
97.725897766870716
30
0
10
-245.64879385208897
20
97.827809608225053
30
0
10
-244.82808244597663
20
98.011167999361561
30
0
10
-244.39583627383556
20
98.064720187675562
30
-2.7755575615628914e-16
10
-244.01711113349546
20
98.070093475743576
30
0
10
-243.51818682474038
20
98.077172129230021
30
0
10
-243.13068303770282
20
97.976556121210123
30
0
10
-242.82012720586255
20
97.718889069609844
30
0
10
-242.52071379368095
20
97.470466843341427
30
2.7755575615628914e-16
10
-242.34377037562331
20
97.131232467874057
30
-2.7755575615628914e-16
10
-242.21227041686262
20
96.628543874190086
30
2.7755575615628914e-16
10
-242.13789328868319
20
96.34422033280552
30
0
10
-242.07639460486513
20
96.004108592496863
30
0
10
-242.01853052674349
20
95.485956731666988
30
-2.7755575615628914e-16
10
-241.9714856797076
20
95.064687166413279
30
2.7755575615628914e-16
10
-241.92737632893991
20
94.542272674457294
30
0
10
-241.88045682092283
20
93.661106616702341
30
0
10
-241.87167471659734
20
93.496175385018063
30
0
10
-241.86277944957536
20
93.317493740301828
30
0
10
-241.85368933763809
20
93.1206941501801
30
0
0
SPLINE
5
113
100
AcDbEntity
8
0
100
AcDbSpline
70
0
71
3
72
26
73
22
74
0
42
0.000000001
43
0.0000000001
44
0.0000000001
40
0.0039986556342033047
40
0.0039986556342033047
40
0.0039986556342033047
40
0.0039986556342033047
40
0.09295529851242558
40
0.09295529851242558
40
0.09295529851242558
40
0.25300279398914843
40
0.25300279398914843
40
0.25300279398914843
40
0.46383427623208184
40
0.46383427623208184
40
0.46383427623208184
40
0.66705804564549231
40
0.66705804564549231
40
0.66705804564549231
40
0.78193594575797065
40
0.78193594575797065
40
0.78193594575797065
40
0.87541132189017845
40
0.87541132189017845
40
0.87541132189017845
40
0.89280987549404678
40
0.89280987549404678
40
0.89280987549404678
40
0.89280987549404678
10
-251.20676399089479
20
86.327771057175227
30
0
10
-252.14751791767671
20
86.682578779279197
30
0
10
-252.68101700899589
20
86.900016112676596
30
0
10
-253.10986074782704
20
87.085596921835645
30
-2.7755575615628914e-16
10
-253.88142051143856
20
87.419487036766256
30
0
10
-254.26251497208457
20
87.630142805591447
30
0
10
-254.57201766156237
20
87.848346536450862
30
-2.7755575615628914e-16
10
-254.97972732666156
20
88.135787560573107
30
2.7755575615628914e-16
10
-255.23407386618038
20
88.444946813370024
30
2.7755575615628914e-16
10
-255.33381682735592
20
88.835946558811173
30
0
10
-255.4299606305816
20
89.212837340315403
30
0
10
-255.3737154762122
20
89.591194513955244
30
0
10
-255.18464911966987
20
90.075148096651603
30
0
10
-255.07777409179201
20
90.348716348498044
30
0
10
-254.92773557272244
20
90.659833057307452
30
0
10
-254.67026897499449
20
91.112668528211486
30
-2.7755575615628914e-16
10
-254.4607701328278
20
91.481137710946513
30
-2.7755575615628914e-16
10
-254.18945360749473
20
91.929714103752787
30
0
10
-253.7094539900865
20
92.67037087598645
30
0
10
-253.6201117545281
20
92.808229177145364
30
0
10
-253.52286289444206
20
92.95716319820923
30
0
10
-253.4152480755121
20
93.120695395017137
30
0
0
SPLINE
5
114
100
AcDbEntity
8
0
100
AcDbSpline
70
0
71
3
72
26
73
22
74
0
42
0.000000001
43
0.0000000001
44
0.0000000001
40
0.0039988108061723192
40
0.0039988108061723192
40
0.0039988108061723192
40
0.0039988108061723192
40
0.09295847073789397
40
0.09295847073789397
40
0.09295847073789397
40
0.25302082402838444
40
0.25302082402838444
40
0.25302082402838444
40
0.46389165383977504
40
0.46389165383977504
40
0.46389165383977504
40
0.66716681527407995
40
0.66716681527407995
40
0.66716681527407995
40
0.7821166548940599
40
0.7821166548940599
40
0.7821166548940599
40
0.8755956870062237
40
0.8755956870062237
40
0.8755956870062237
40
0.89306768370786149
40
0.89306768370786149
40
0.89306768370786149
40
0.89306768370786149
10
-244.06217488504635
20
86.327770287914888
30
0
10
-244.69023155478038
20
85.542632993119355
30
0
10
-245.0618271264367
20
85.102404484436335
30
0
10
-245.37079626949136
20
84.751869688689453
30
0
10
-245.9267148529193
20
84.121163317278985
30
2.7755575615628914e-16
10
-246.24478384624166
20
83.823789405765368
30
0
10
-246.54791348924377
20
83.596832504992278
30
0
10
-246.94726535460262
20
83.297832840089256
30
0
10
-247.31987937161932
20
83.151435560314951
30
0
10
-247.72255961452859
20
83.1773539512252
30
0
10
-248.11073512205141
20
83.202338749270098
30
0
10
-248.45321569383995
20
83.37272451026152
30
0
10
-248.85508809651623
20
83.702037019353966
30
0
10
-249.08234246399221
20
83.888259575213368
30
0
10
-249.33198316077082
20
84.127160858723698
30
0
10
-249.68332259049819
20
84.51214735069226
30
2.7755575615628914e-16
10
-249.96903738524986
20
84.825224469933588
30
0
10
-250.31184511026029
20
85.221836170865842
30
0
10
-250.86788931515284
20
85.907021102783645
30
0
10
-250.97181853108853
20
86.035087778272072
30
0
10
-251.08390244366171
20
86.174181054772575
30
0
10
-251.20676399089487
20
86.327771057175113
30
0
0
SPLINE
5
115
100
AcDbEntity
8
0
100
AcDbSpline
70
0
71
3
72
26
73
22
74
0
42
0.000000001
43
0.0000000001
44
0.0000000001
40
0.0081245483801390302
40
0.0081245483801390302
40
0.0081245483801390302
40
0.0081245483801390302
40
0.093007425048733244
40
0.093007425048733244
40
0.093007425048733244
40
0.25227813241987584
40
0.25227813241987584
40
0.25227813241987584
40
0.43564349453616213
40
0.43564349453616213
40
0.43564349453616213
40
0.62297441258423902
40
0.62297441258423902
40
0.62297441258423902
40
0.7600204535491395
40
0.7600204535491395
40
0.7600204535491395
40
0.85756903436231124
40
0.85756903436231124
40
0.85756903436231124
40
0.88894194613389665
40
0.88894194613389665
40
0.88894194613389665
40
0.88894194613389665
10
-243.75746656966555
20
85.908426368456773
30
0
10
-244.33794868629295
20
85.18509550561285
30
0
10
-244.69469292746538
20
84.762736994643561
30
0
10
-244.99622597286236
20
84.420663255341168
30
2.7755575615628914e-16
10
-245.56201006643934
20
83.778810286049193
30
-2.7755575615628914e-16
10
-245.89858228972346
20
83.459196258545546
30
0
10
-246.24342021071257
20
83.20020213075108
30
0
10
-246.64042560672834
20
82.902027075131102
30
2.7755575615628914e-16
10
-247.05577901592844
20
82.703057834903774
30
0
10
-247.53355149682673
20
82.67724469089444
30
0
10
-248.02165653712339
20
82.650873298232455
30
0
10
-248.4795746679562
20
82.823861587263409
30
0
10
-248.88417450211102
20
83.09901082024561
30
0
10
-249.18016838301295
20
83.300302275215486
30
0
10
-249.46500676452192
20
83.552228601150745
30
0
10
-249.8544597633695
20
83.962084802514084
30
0
10
-250.13167015969717
20
84.253818080607914
30
0
10
-250.45440887260625
20
84.617436809620742
30
-2.7755575615628914e-16
10
-250.95601595370013
20
85.225114041427332
30
0
10
-251.11733941497425
20
85.420551063884716
30
0
10
-251.2982371893369
20
85.642717597358512
30
2.7755575615628914e-16
10
-251.51147239657752
20
85.90842720333319
30
-2.7755575615628914e-16
0
SPLINE
5
116
100
AcDbEntity
8
0
100
AcDbSpline
70
0
71
3
72
26
73
22
74
0
42
0.000000001
43
0.0000000001
44
0.0000000001
40
-0.89280987549404411
40
-0.89280987549404411
40
-0.89280987549404411
40
-0.89280987549404411
40
-0.80384545097813287
40
-0.80384545097813287
40
-0.80384545097813287
40
-0.64377862081163628
40
-0.64377862081163628
40
-0.64377862081163628
40
-0.43282177743494726
40
-0.43282177743494726
40
-0.43282177743494726
40
-0.22963058761533223
40
-0.22963058761533223
40
-0.22963058761533223
40
-0.11481529380766611
40
-0.11481529380766611
40
-0.11481529380766611
40
-0.021362297063126173
40
-0.021362297063126173
40
-0.021362297063126173
40
-0.0039986556342085184
40
-0.0039986556342085184
40
-0.0039986556342085184
40
-0.0039986556342085184
10
-241.85368933763812
20
93.120694150180071
30
0
10
-241.30121702373742
20
92.281153142412776
30
0
10
-240.99747081100304
20
91.791941384712743
30
0
10
-240.75965631111646
20
91.389950154741584
30
0
10
-240.33177501618758
20
90.666678326858246
30
0
10
-240.14733747131299
20
90.272415593747169
30
0
10
-240.02526708793505
20
89.914037766411298
30
0
10
-239.86438689357865
20
89.441720952788316
30
-2.7755575615628914e-16
10
-239.84058008617689
20
89.04179357700643
30
0
10
-239.99018628415527
20
88.66677176139504
30
-2.7755575615628914e-16
10
-240.13428524243054
20
88.305555089289641
30
0
10
-240.40228883294282
20
88.032757027856491
30
2.7755575615628914e-16
10
-240.84003083506843
20
87.752286491725613
30
0
10
-241.08738150332638
20
87.593803700031501
30
0
10
-241.39175017847759
20
87.430248642376029
30
0
10
-241.86633171294727
20
87.215127689361339
30
0
10
-242.25261358468214
20
87.040031697746826
30
0
10
-242.73605136470832
20
86.836410930103284
30
0
10
-243.56016755404823
20
86.519003017063966
30
2.7755575615628914e-16
10
-243.71328900018631
20
86.460028373331767
30
2.7755575615628914e-16
10
-243.87927850485025
20
86.396750075156902
30
0
10
-244.06217488504635
20
86.327770287914944
30
0
0
SPLINE
5
117
100
AcDbEntity
8
0
100
AcDbSpline
70
0
71
3
72
26
73
22
74
0
42
0.000000001
43
0.0000000001
44
0.0000000001
40
-0.88920203418232879
40
-0.88920203418232879
40
-0.88920203418232879
40
-0.88920203418232879
40
-0.80429551373023056
40
-0.80429551373023056
40
-0.80429551373023056
40
-0.64499436429625145
40
-0.64499436429625145
40
-0.64499436429625145
40
-0.46158249610377372
40
-0.46158249610377372
40
-0.46158249610377372
40
-0.2741970607329039
40
-0.2741970607329039
40
-0.2741970607329039
40
-0.13709853036645195
40
-0.13709853036645195
40
-0.13709853036645195
40
-0.039526533951375037
40
-0.039526533951375037
40
-0.039526533951375037
40
-0.0081316334506868516
40
-0.0081316334506868516
40
-0.0081316334506868516
40
-0.0081316334506868516
10
-247.63446819837074
20
97.840696811808385
30
0
10
-246.73930872254033
20
98.084574406499144
30
0
10
-246.20222334099211
20
98.216508873705223
30
2.7755575615628914e-16
10
-245.75704316094425
20
98.315951693689172
30
0
10
-244.92179854122321
20
98.502525768825549
30
0
10
-244.46151447450706
20
98.563186549715439
30
0
10
-244.03022789052955
20
98.569953171828757
30
0
10
-243.53366475602149
20
98.577743943003767
30
2.7755575615628914e-16
10
-243.08066554675506
20
98.494505871041014
30
0
10
-242.6789518084945
20
98.234499046093063
30
0
10
-242.26853505367788
20
97.968859245504248
30
-2.7755575615628914e-16
10
-241.99973847808042
20
97.559646347403913
30
0
10
-241.83418276835835
20
97.099123846826984
30
0
10
-241.71305572104137
20
96.762187532087168
30
0
10
-241.6307450935436
20
96.390841423103168
30
0
10
-241.55667527697307
20
95.830173660850818
30
0
10
-241.50396034372349
20
95.431150617042007
30
0
10
-241.45668585893497
20
94.947200238097992
30
2.7755575615628914e-16
10
-241.40822719477697
20
94.160676423894799
30
0
10
-241.39263506798306
20
93.907603433738018
30
-2.7755575615628914e-16
10
-241.37692572658793
20
93.621372630856015
30
0
10
-241.36066048731763
20
93.280850986149332
30
0
0
SPLINE
5
118
100
AcDbEntity
8
0
100
AcDbSpline
70
0
71
3
72
26
73
22
74
0
42
0.000000001
43
0.0000000001
44
0.0000000001
40
0.0081316334506740164
40
0.0081316334506740164
40
0.0081316334506740164
40
0.0081316334506740164
40
0.093025985289508117
40
0.093025985289508117
40
0.093025985289508117
40
0.25232773165881184
40
0.25232773165881184
40
0.25232773165881184
40
0.43574000368448595
40
0.43574000368448595
40
0.43574000368448595
40
0.62312494357631631
40
0.62312494357631631
40
0.62312494357631631
40
0.76022293073853908
40
0.76022293073853908
40
0.76022293073853908
40
0.8577943303138601
40
0.8577943303138601
40
0.8577943303138601
40
0.88920203418233479
40
0.88920203418233479
40
0.88920203418233479
40
0.88920203418233479
10
-253.90827689134426
20
93.280852337155579
30
0
10
-253.86402346619383
20
94.207317713691182
30
2.7755575615628914e-16
10
-253.82378595062889
20
94.758801335900174
30
0
10
-253.78100363832931
20
95.212866467089796
30
0
10
-253.70072389161575
20
96.064906288316479
30
0
10
-253.61638381002643
20
96.521439076812854
30
0
10
-253.48972491229773
20
96.933761810969955
30
0
10
-253.34389602633667
20
97.408490125022936
30
0
10
-253.1249155917865
20
97.813695845677131
30
0
10
-252.75362258459322
20
98.115557937947386
30
0
10
-252.37428745577787
20
98.423958294101112
30
-2.7755575615628914e-16
10
-251.90210280727416
20
98.553341222796348
30
2.7755575615628914e-16
10
-251.41296638119755
20
98.568697457942079
30
0
10
-251.0550954685109
20
98.579932666759206
30
0
10
-250.6764695378605
20
98.543629533680743
30
0
10
-250.12029985962056
20
98.441064505420059
30
0
10
-249.72447892139616
20
98.368069900889239
30
0
10
-249.2495522794826
20
98.263692591454372
30
0
10
-248.48645090755952
20
98.067070409161161
30
0
10
-248.24081271834316
20
98.003778796021265
30
0
10
-247.96357305740315
20
97.930358343342547
30
0
10
-247.63446819837074
20
97.840696811808371
30
0
0
SPLINE
5
119
100
AcDbEntity
8
0
100
AcDbSpline
70
0
71
3
72
26
73
22
74
0
42
0.000000001
43
0.0000000001
44
0.0000000001
40
0.0081242270425528167
40
0.0081242270425528167
40
0.0081242270425528167
40
0.0081242270425528167
40
0.09300427939760858
40
0.09300427939760858
40
0.09300427939760858
40
0.25226110438008043
40
0.25226110438008043
40
0.25226110438008043
40
0.43559358717788577
40
0.43559358717788577
40
0.43559358717788577
40
0.62287679380976724
40
0.62287679380976724
40
0.62287679380976724
40
0.75984531984010806
40
0.75984531984010806
40
0.75984531984010806
40
0.85739018932937172
40
0.85739018932937172
40
0.85739018932937172
40
0.88867864127621277
40
0.88867864127621277
40
0.88867864127621277
40
0.88867864127621277
10
-251.51147239657752
20
85.908427203333133
30
-2.7755575615628914e-16
10
-252.3787478631923
20
86.23708002970946
30
-2.7755575615628914e-16
10
-252.89066288569953
20
86.445912438435101
30
0
10
-253.30916251667611
20
86.627034587715386
30
-2.7755575615628914e-16
10
-254.09437553948234
20
86.966866357702031
30
0
10
-254.5023384750165
20
87.188250519247475
30
0
10
-254.85519853557778
20
87.436229653876879
30
-2.7755575615628914e-16
10
-255.26140223196575
20
87.721697045548552
30
0
10
-255.5789464066865
20
88.055267035121702
30
0
10
-255.75108508374302
20
88.501707130679478
30
2.7755575615628914e-16
10
-255.92693326368649
20
88.957767788284372
30
0
10
-255.90387333298145
20
89.446715460251198
30
0
10
-255.76716791559915
20
89.916525719258573
30
0
10
-255.66718917294537
20
90.260118825375443
30
0
10
-255.51562835962812
20
90.608752012469225
30
0
10
-255.24627000432926
20
91.1055402338568
30
0
10
-255.05444107563324
20
91.459337880830972
30
0
10
-254.80830151034371
20
91.878641654112016
30
0
10
-254.38521487636055
20
92.543565756124508
30
0
10
-254.24950578283219
20
92.756846535760047
30
0
10
-254.094510802012
20
92.996876935726092
30
2.7755575615628914e-16
10
-253.9082768913442
20
93.280852337155537
30
0
0
LWPOLYLINE
5
120
100
AcDbEntity
8
0
100
AcDbPolyline
90
4
70
1
43
0.0
10
-153.54859557470522
20
93.482435262709132
10
-193.54859617075147
20
93.482435262709132
10
-193.54859617075147
20
80.994294837904448
10
-153.54859557470522
20
80.994294837904448
0
LINE
5
121
100
AcDbEntity
8
0
100
AcDbLine
10
-158.89832344373903
20
86.342347220373625
30
0
11
-158.59199252447328
21
86.342347220373625
31
0
0
LINE
5
122
100
AcDbEntity
8
0
100
AcDbLine
10
-158.59199252447328
20
86.342347220373625
30
0
11
-158.59199252447328
21
85.988364771795744
31
0
0
LINE
5
123
100
AcDbEntity
8
0
100
AcDbLine
10
-158.59199252447328
20
85.988364771795744
30
0
11
-158.89832344373903
21
85.988364771795744
31
0
0
LINE
5
124
100
AcDbEntity
8
0
100
AcDbLine
10
-158.89832344373903
20
85.988364771795744
30
0
11
-158.89832344373903
21
86.342347220373625
31
0
0
SPLINE
5
125
100
AcDbEntity
8
0
100
AcDbSpline
70
0
71
2
72
6
73
3
74
0
42
0.000000001
43
0.0000000001
44
0.0000000001
40
0
40
0
40
0
40
1
40
1
40
1
10
-158.30267992338381
20
88.949562863302702
30
0
10
-158.50860234817705
20
88.942755416822905
30
0
10
-158.54944643100939
20
88.912122205687041
30
0
0
SPLINE
5
126
100
AcDbEntity
8
0
100
AcDbSpline
70
0
71
2
72
6
73
3
74
0
42
0.000000001
43
0.0000000001
44
0.0000000001
40
0
40
0
40
0
40
1
40
1
40
1
10
-158.54944643100939
20
88.912122205687041
30
0
10
-158.59199252447328
20
88.883191303205962
30
0
10
-158.59199252447328
20
88.726621822309966
30
0
0
LINE
5
127
100
AcDbEntity
8
0
100
AcDbLine
10
-158.59199252447328
20
88.726621822309966
30
0
11
-158.59199252447328
21
86.674205616903777
31
0
0
LINE
5
128
100
AcDbEntity
8
0
100
AcDbLine
10
-158.59199252447328
20
86.674205616903777
30
0
11
-158.89832344373903
21
86.674205616903777
31
0
0
LINE
5
129
100
AcDbEntity
8
0
100
AcDbLine
10
-158.89832344373903
20
86.674205616903777
30
0
11
-158.89832344373903
21
88.758956746054167
31
0
0
SPLINE
5
130
100
AcDbEntity
8
0
100
AcDbSpline
70
0
71
2
72
6
73
3
74
0
42
0.000000001
43
0.0000000001
44
0.0000000001
40
0
40
0
40
0
40
1
40
1
40
1
10
-158.89832344373903
20
88.758956746054167
30
0
10
-158.89832344373903
20
88.958072022390837
30
0
10
-158.83365359625063
20
89.05677850623178
30
0
0
SPLINE
5
131
100
AcDbEntity
8
0
100
AcDbSpline
70
0
71
2
72
6
73
3
74
0
42
0.000000001
43
0.0000000001
44
0.0000000001
40
0
40
0
40
0
40
1
40
1
40
1
10
-158.83365359625063
20
89.05677850623178
30
0
10
-158.7264373572751
20
89.223558858824248
30
0
10
-158.42691418251238
20
89.223558858824248
30
0
0
SPLINE
5
132
100
AcDbEntity
8
0
100
AcDbSpline
70
0
71
2
72
6
73
3
74
0
42
0.000000001
43
0.0000000001
44
0.0000000001
40
0
40
0
40
0
40
1
40
1
40
1
10
-158.42691418251238
20
89.223558858824248
30
0
10
-158.40479013046465
20
89.223558858824248
30
0
10
-158.37926265320024
20
89.22185714621591
30
0
0
SPLINE
5
133
100
AcDbEntity
8
0
100
AcDbSpline
70
0
71
2
72
6
73
3
74
0
42
0.000000001
43
0.0000000001
44
0.0000000001
40
0
40
0
40
0
40
1
40
1
40
1
10
-158.37926265320024
20
89.22185714621591
30
0
10
-158.35543688854418
20
89.220154837561125
30
0
10
-158.30267992338381
20
89.215049699736113
30
0
0
LINE
5
134
100
AcDbEntity
8
0
100
AcDbLine
10
-158.30267992338381
20
89.215049699736113
30
0
11
-158.30267992338381
21
88.949562863302702
31
0
0
SPLINE
5
135
100
AcDbEntity
8
0
100
AcDbSpline
70
0
71
2
72
6
73
3
74
0
42
0.000000001
43
0.0000000001
44
0.0000000001
40
0
40
0
40
0
40
1
40
1
40
1
10
-160.089609888403
20
88.29095180411386
30
0
10
-160.39423909506041
20
88.29095180411386
30
0
10
-160.50656047186095
20
88.061203316641326
30
0
0
SPLINE
5
136
100
AcDbEntity
8
0
100
AcDbSpline
70
0
71
2
72
6
73
3
74
0
42
0.000000001
43
0.0000000001
44
0.0000000001
40
0
40
0
40
0
40
1
40
1
40
1
10
-160.50656047186095
20
88.061203316641326
30
0
10
-160.62058296522338
20
87.829753712606902
30
0
10
-160.62058296522338
20
87.547248557997221
30
0
0
SPLINE
5
137
100
AcDbEntity
8
0
100
AcDbSpline
70
0
71
2
72
6
73
3
74
0
42
0.000000001
43
0.0000000001
44
0.0000000001
40
0
40
0
40
0
40
1
40
1
40
1
10
-160.62058296522338
20
87.547248557997221
30
0
10
-160.62058296522338
20
87.291972593260283
30
0
10
-160.5388947995587
20
87.13200028319406
30
0
0
SPLINE
5
138
100
AcDbEntity
8
0
100
AcDbSpline
70
0
71
2
72
6
73
3
74
0
42
0.000000001
43
0.0000000001
44
0.0000000001
40
0
40
0
40
0
40
1
40
1
40
1
10
-160.5388947995587
20
87.13200028319406
30
0
10
-160.4095551045819
20
86.880127743673796
30
0
10
-160.09301390966613
20
86.880127743673796
30
0
0
SPLINE
5
139
100
AcDbEntity
8
0
100
AcDbSpline
70
0
71
2
72
6
73
3
74
0
42
0.000000001
43
0.0000000001
44
0.0000000001
40
0
40
0
40
0
40
1
40
1
40
1
10
-160.09301390966613
20
86.880127743673796
30
0
10
-159.81221046766481
20
86.880127743673796
30
0
10
-159.68457248529634
20
87.094559625578398
30
0
0
SPLINE
5
140
100
AcDbEntity
8
0
100
AcDbSpline
70
0
71
2
72
6
73
3
74
0
42
0.000000001
43
0.0000000001
44
0.0000000001
40
0
40
0
40
0
40
1
40
1
40
1
10
-159.68457248529634
20
87.094559625578398
30
0
10
-159.55693450292787
20
87.308990911436553
30
0
10
-159.55693450292787
20
87.611918405485625
30
0
0
SPLINE
5
141
100
AcDbEntity
8
0
100
AcDbSpline
70
0
71
2
72
6
73
3
74
0
42
0.000000001
43
0.0000000001
44
0.0000000001
40
0
40
0
40
0
40
1
40
1
40
1
10
-159.55693450292787
20
87.611918405485625
30
0
10
-159.55693450292787
20
87.90293271918344
30
0
10
-159.68457248529634
20
88.09694226164865
30
0
0
SPLINE
5
142
100
AcDbEntity
8
0
100
AcDbSpline
70
0
71
2
72
6
73
3
74
0
42
0.000000001
43
0.0000000001
44
0.0000000001
40
0
40
0
40
0
40
1
40
1
40
1
10
-159.68457248529634
20
88.09694226164865
30
0
10
-159.81221046766481
20
88.29095180411386
30
0
10
-160.089609888403
20
88.29095180411386
30
0
0
SPLINE
5
143
100
AcDbEntity
8
0
100
AcDbSpline
70
0
71
2
72
6
73
3
74
0
42
0.000000001
43
0.0000000001
44
0.0000000001
40
0
40
0
40
0
40
1
40
1
40
1
10
-160.10152306875426
20
86.612939194632048
30
0
10
-160.45380320867736
20
86.612939194632048
30
0
10
-160.69716599306304
20
86.847792819929595
30
0
0
SPLINE
5
144
100
AcDbEntity
8
0
100
AcDbSpline
70
0
71
2
72
6
73
3
74
0
42
0.000000001
43
0.0000000001
44
0.0000000001
40
0
40
0
40
0
40
1
40
1
40
1
10
-160.69716599306304
20
86.847792819929595
30
0
10
-160.94052877744872
20
87.082646445227141
30
0
10
-160.94052877744872
20
87.538738802862639
30
0
0
SPLINE
5
145
100
AcDbEntity
8
0
100
AcDbSpline
70
0
71
2
72
6
73
3
74
0
42
0.000000001
43
0.0000000001
44
0.0000000001
40
0
40
0
40
0
40
1
40
1
40
1
10
-160.94052877744872
20
87.538738802862639
30
0
10
-160.94052877744872
20
87.979515150976653
30
0
10
-160.72609749159056
20
88.267126039457793
30
0
0
SPLINE
5
146
100
AcDbEntity
8
0
100
AcDbSpline
70
0
71
2
72
6
73
3
74
0
42
0.000000001
43
0.0000000001
44
0.0000000001
40
0
40
0
40
0
40
1
40
1
40
1
10
-160.72609749159056
20
88.267126039457793
30
0
10
-160.51166560968596
20
88.554736331892485
30
0
10
-160.06067838987548
20
88.554736331892485
30
0
0
SPLINE
5
147
100
AcDbEntity
8
0
100
AcDbSpline
70
0
71
2
72
6
73
3
74
0
42
0.000000001
43
0.0000000001
44
0.0000000001
40
0
40
0
40
0
40
1
40
1
40
1
10
-160.06067838987548
20
88.554736331892485
30
0
10
-159.68457248529634
20
88.554736331892485
30
0
10
-159.46333375295839
20
88.301162675810332
30
0
0
SPLINE
5
148
100
AcDbEntity
8
0
100
AcDbSpline
70
0
71
2
72
6
73
3
74
0
42
0.000000001
43
0.0000000001
44
0.0000000001
40
0
40
0
40
0
40
1
40
1
40
1
10
-159.46333375295839
20
88.301162675810332
30
0
10
-159.24209442457399
20
88.045886711073393
30
0
10
-159.24209442457399
20
87.617023543310637
30
0
0
SPLINE
5
149
100
AcDbEntity
8
0
100
AcDbSpline
70
0
71
2
72
6
73
3
74
0
42
0.000000001
43
0.0000000001
44
0.0000000001
40
0
40
0
40
0
40
1
40
1
40
1
10
-159.24209442457399
20
87.617023543310637
30
0
10
-159.24209442457399
20
87.157527760458464
30
0
10
-159.4752463372632
20
86.885233477545256
30
0
0
SPLINE
5
150
100
AcDbEntity
8
0
100
AcDbSpline
70
0
71
2
72
6
73
3
74
0
42
0.000000001
43
0.0000000001
44
0.0000000001
40
0
40
0
40
0
40
1
40
1
40
1
10
-159.4752463372632
20
86.885233477545256
30
0
10
-159.70839824995241
20
86.612939194632048
30
0
10
-160.10152306875426
20
86.612939194632048
30
0
0
SPLINE
5
151
100
AcDbEntity
8
0
100
AcDbSpline
70
0
71
2
72
6
73
3
74
0
42
0.000000001
43
0.0000000001
44
0.0000000001
40
0
40
0
40
0
40
1
40
1
40
1
10
-162.02800360044677
20
88.29095180411386
30
0
10
-162.33263221105773
20
88.29095180411386
30
0
10
-162.44495358785827
20
88.061203316641326
30
0
0
SPLINE
5
152
100
AcDbEntity
8
0
100
AcDbSpline
70
0
71
2
72
6
73
3
74
0
42
0.000000001
43
0.0000000001
44
0.0000000001
40
0
40
0
40
0
40
1
40
1
40
1
10
-162.44495358785827
20
88.061203316641326
30
0
10
-162.55897667726714
20
87.829753712606902
30
0
10
-162.55897667726714
20
87.547248557997221
30
0
0
SPLINE
5
153
100
AcDbEntity
8
0
100
AcDbSpline
70
0
71
2
72
6
73
3
74
0
42
0.000000001
43
0.0000000001
44
0.0000000001
40
0
40
0
40
0
40
1
40
1
40
1
10
-162.55897667726714
20
87.547248557997221
30
0
10
-162.55897667726714
20
87.291972593260283
30
0
10
-162.47728851160247
20
87.13200028319406
30
0
0
SPLINE
5
154
100
AcDbEntity
8
0
100
AcDbSpline
70
0
71
2
72
6
73
3
74
0
42
0.000000001
43
0.0000000001
44
0.0000000001
40
0
40
0
40
0
40
1
40
1
40
1
10
-162.47728851160247
20
87.13200028319406
30
0
10
-162.34794881662566
20
86.880127743673796
30
0
10
-162.03140702566344
20
86.880127743673796
30
0
0
SPLINE
5
155
100
AcDbEntity
8
0
100
AcDbSpline
70
0
71
2
72
6
73
3
74
0
42
0.000000001
43
0.0000000001
44
0.0000000001
40
0
40
0
40
0
40
1
40
1
40
1
10
-162.03140702566344
20
86.880127743673796
30
0
10
-161.7506035836621
20
86.880127743673796
30
0
10
-161.62296619734008
20
87.094559625578398
30
0
0
SPLINE
5
156
100
AcDbEntity
8
0
100
AcDbSpline
70
0
71
2
72
6
73
3
74
0
42
0.000000001
43
0.0000000001
44
0.0000000001
40
0
40
0
40
0
40
1
40
1
40
1
10
-161.62296619734008
20
87.094559625578398
30
0
10
-161.49532761892516
20
87.308990911436553
30
0
10
-161.49532761892516
20
87.611918405485625
30
0
0
SPLINE
5
157
100
AcDbEntity
8
0
100
AcDbSpline
70
0
71
2
72
6
73
3
74
0
42
0.000000001
43
0.0000000001
44
0.0000000001
40
0
40
0
40
0
40
1
40
1
40
1
10
-161.49532761892516
20
87.611918405485625
30
0
10
-161.49532761892516
20
87.90293271918344
30
0
10
-161.62296619734008
20
88.09694226164865
30
0
0
SPLINE
5
158
100
AcDbEntity
8
0
100
AcDbSpline
70
0
71
2
72
6
73
3
74
0
42
0.000000001
43
0.0000000001
44
0.0000000001
40
0
40
0
40
0
40
1
40
1
40
1
10
-161.62296619734008
20
88.09694226164865
30
0
10
-161.7506035836621
20
88.29095180411386
30
0
10
-162.02800360044677
20
88.29095180411386
30
0
0
SPLINE
5
159
100
AcDbEntity
8
0
100
AcDbSpline
70
0
71
2
72
6
73
3
74
0
42
0.000000001
43
0.0000000001
44
0.0000000001
40
0
40
0
40
0
40
1
40
1
40
1
10
-162.03991618475158
20
86.612939194632048
30
0
10
-162.39219632467467
20
86.612939194632048
30
0
10
-162.6355597051068
20
86.847792819929595
30
0
0
SPLINE
5
160
100
AcDbEntity
8
0
100
AcDbSpline
70
0
71
2
72
6
73
3
74
0
42
0.000000001
43
0.0000000001
44
0.0000000001
40
0
40
0
40
0
40
1
40
1
40
1
10
-162.6355597051068
20
86.847792819929595
30
0
10
-162.87892248949248
20
87.082646445227141
30
0
10
-162.87892248949248
20
87.538738802862639
30
0
0
SPLINE
5
161
100
AcDbEntity
8
0
100
AcDbSpline
70
0
71
2
72
6
73
3
74
0
42
0.000000001
43
0.0000000001
44
0.0000000001
40
0
40
0
40
0
40
1
40
1
40
1
10
-162.87892248949248
20
87.538738802862639
30
0
10
-162.87892248949248
20
87.979515150976653
30
0
10
-162.66449060758788
20
88.267126039457793
30
0
0
SPLINE
5
162
100
AcDbEntity
8
0
100
AcDbSpline
70
0
71
2
72
6
73
3
74
0
42
0.000000001
43
0.0000000001
44
0.0000000001
40
0
40
0
40
0
40
1
40
1
40
1
10
-162.66449060758788
20
88.267126039457793
30
0
10
-162.45005932172973
20
88.554736331892485
30
0
10
-161.99907210191924
20
88.554736331892485
30
0
0
SPLINE
5
163
100
AcDbEntity
8
0
100
AcDbSpline
70
0
71
2
72
6
73
3
74
0
42
0.000000001
43
0.0000000001
44
0.0000000001
40
0
40
0
40
0
40
1
40
1
40
1
10
-161.99907210191924
20
88.554736331892485
30
0
10
-161.62296619734008
20
88.554736331892485
30
0
10
-161.40172686895568
20
88.301162675810332
30
0
0
SPLINE
5
164
100
AcDbEntity
8
0
100
AcDbSpline
70
0
71
2
72
6
73
3
74
0
42
0.000000001
43
0.0000000001
44
0.0000000001
40
0
40
0
40
0
40
1
40
1
40
1
10
-161.40172686895568
20
88.301162675810332
30
0
10
-161.18048813661773
20
88.045886711073393
30
0
10
-161.18048813661773
20
87.617023543310637
30
0
0
SPLINE
5
165
100
AcDbEntity
8
0
100
AcDbSpline
70
0
71
2
72
6
73
3
74
0
42
0.000000001
43
0.0000000001
44
0.0000000001
40
0
40
0
40
0
40
1
40
1
40
1
10
-161.18048813661773
20
87.617023543310637
30
0
10
-161.18048813661773
20
87.157527760458464
30
0
10
-161.41363945326049
20
86.885233477545256
30
0
0
SPLINE
5
166
100
AcDbEntity
8
0
100
AcDbSpline
70
0
71
2
72
6
73
3
74
0
42
0.000000001
43
0.0000000001
44
0.0000000001
40
0
40
0
40
0
40
1
40
1
40
1
10
-161.41363945326049
20
86.885233477545256
30
0
10
-161.6467913659497
20
86.612939194632048
30
0
10
-162.03991618475158
20
86.612939194632048
30
0
0
LINE
5
167
100
AcDbEntity
8
0
100
AcDbLine
10
-163.25162496885497
20
85.988364771795744
30
0
11
-163.55795588812072
21
85.988364771795744
31
0
0
LINE
5
168
100
AcDbEntity
8
0
100
AcDbLine
10
-163.55795588812072
20
85.988364771795744
30
0
11
-163.55795588812072
21
88.488364771795744
31
0
0
LINE
5
169
100
AcDbEntity
8
0
100
AcDbLine
10
-163.55795588812072
20
88.488364771795744
30
0
11
-163.25162496885497
21
88.488364771795744
31
0
0
LINE
5
170
100
AcDbEntity
8
0
100
AcDbLine
10
-163.25162496885497
20
88.488364771795744
30
0
11
-163.25162496885497
21
85.988364771795744
31
0
0
SPLINE
5
171
100
AcDbEntity
8
0
100
AcDbSpline
70
0
71
2
72
6
73
3
74
0
42
0.000000001
43
0.0000000001
44
0.0000000001
40
0
40
0
40
0
40
1
40
1
40
1
10
-164.77647152265746
20
86.624851778936858
30
0
10
-164.97048106512267
20
86.624851778936858
30
0
10
-165.15257802328307
20
86.716751412344451
30
0
0
SPLINE
5
172
100
AcDbEntity
8
0
100
AcDbSpline
70
0
71
2
72
6
73
3
74
0
42
0.000000001
43
0.0000000001
44
0.0000000001
40
0
40
0
40
0
40
1
40
1
40
1
10
-165.15257802328307
20
86.716751412344451
30
0
10
-165.33467498144347
20
86.806948737097258
30
0
10
-165.42997684797484
20
86.951605037641997
30
0
0
SPLINE
5
173
100
AcDbEntity
8
0
100
AcDbSpline
70
0
71
2
72
6
73
3
74
0
42
0.000000001
43
0.0000000001
44
0.0000000001
40
0
40
0
40
0
40
1
40
1
40
1
10
-165.42997684797484
20
86.951605037641997
30
0
10
-165.52187767347533
20
87.089453891706938
30
0
10
-165.5525096925183
20
87.273252562475676
30
0
0
SPLINE
5
174
100
AcDbEntity
8
0
100
AcDbSpline
70
0
71
2
72
6
73
3
74
0
42
0.000000001
43
0.0000000001
44
0.0000000001
40
0
40
0
40
0
40
1
40
1
40
1
10
-165.5525096925183
20
87.273252562475676
30
0
10
-165.57973947843749
20
87.39918823618936
30
0
10
-165.57973947843749
20
87.674885944319243
30
0
0
LINE
5
175
100
AcDbEntity
8
0
100
AcDbLine
10
-165.57973947843749
20
87.674885944319243
30
0
11
-164.24379673322875
21
87.674885944319243
31
0
0
SPLINE
5
176
100
AcDbEntity
8
0
100
AcDbSpline
70
0
71
2
72
6
73
3
74
0
42
0.000000001
43
0.0000000001
44
0.0000000001
40
0
40
0
40
0
40
1
40
1
40
1
10
-164.24379673322875
20
87.674885944319243
30
0
10
-164.25230589231688
20
87.952285961103911
30
0
10
-164.37483873686034
20
88.120767430258269
30
0
0
SPLINE
5
177
100
AcDbEntity
8
0
100
AcDbSpline
70
0
71
2
72
6
73
3
74
0
42
0.000000001
43
0.0000000001
44
0.0000000001
40
0
40
0
40
0
40
1
40
1
40
1
10
-164.37483873686034
20
88.120767430258269
30
0
10
-164.4973703893109
20
88.287547782850737
30
0
10
-164.75434866270263
20
88.287547782850737
30
0
0
SPLINE
5
178
100
AcDbEntity
8
0
100
AcDbSpline
70
0
71
2
72
6
73
3
74
0
42
0.000000001
43
0.0000000001
44
0.0000000001
40
0
40
0
40
0
40
1
40
1
40
1
10
-164.75434866270263
20
88.287547782850737
30
0
10
-164.99430742582518
20
88.287547782850737
30
0
10
-165.13726082166869
20
88.129277185392851
30
0
0
SPLINE
5
179
100
AcDbEntity
8
0
100
AcDbSpline
70
0
71
2
72
6
73
3
74
0
42
0.000000001
43
0.0000000001
44
0.0000000001
40
0
40
0
40
0
40
1
40
1
40
1
10
-165.13726082166869
20
88.129277185392851
30
0
10
-165.21895017942626
20
88.037377551985259
30
0
10
-165.2529868157788
20
87.916547016096587
30
0
0
LINE
5
180
100
AcDbEntity
8
0
100
AcDbLine
10
-165.2529868157788
20
87.916547016096587
30
0
11
-165.55421200117308
21
87.916547016096587
31
0
0
SPLINE
5
181
100
AcDbEntity
8
0
100
AcDbSpline
70
0
71
2
72
6
73
3
74
0
42
0.000000001
43
0.0000000001
44
0.0000000001
40
0
40
0
40
0
40
1
40
1
40
1
10
-165.55421200117308
20
87.916547016096587
30
0
10
-165.54229822477538
20
88.016955808592314
30
0
10
-165.4742249520703
20
88.141189769697661
30
0
0
SPLINE
5
182
100
AcDbEntity
8
0
100
AcDbSpline
70
0
71
2
72
6
73
3
74
0
42
0.000000001
43
0.0000000001
44
0.0000000001
40
0
40
0
40
0
40
1
40
1
40
1
10
-165.4742249520703
20
88.141189769697661
30
0
10
-165.40785398802001
20
88.26372201819467
30
0
10
-165.32446351370055
20
88.342006758642668
30
0
0
SPLINE
5
183
100
AcDbEntity
8
0
100
AcDbSpline
70
0
71
2
72
6
73
3
74
0
42
0.000000001
43
0.0000000001
44
0.0000000001
40
0
40
0
40
0
40
1
40
1
40
1
10
-165.32446351370055
20
88.342006758642668
30
0
10
-165.18491354307372
20
88.478153900099272
30
0
10
-164.9789914163037
20
88.525805429411406
30
0
0
SPLINE
5
184
100
AcDbEntity
8
0
100
AcDbSpline
70
0
71
2
72
6
73
3
74
0
42
0.000000001
43
0.0000000001
44
0.0000000001
40
0
40
0
40
0
40
1
40
1
40
1
10
-164.9789914163037
20
88.525805429411406
30
0
10
-164.86837115606505
20
88.553034619284148
30
0
10
-164.72882118543822
20
88.553034619284148
30
0
0
SPLINE
5
185
100
AcDbEntity
8
0
100
AcDbSpline
70
0
71
2
72
6
73
3
74
0
42
0.000000001
43
0.0000000001
44
0.0000000001
40
0
40
0
40
0
40
1
40
1
40
1
10
-164.72882118543822
20
88.553034619284148
30
0
10
-164.38845243772704
20
88.553034619284148
30
0
10
-164.15189709982116
20
88.306267813635344
30
0
0
SPLINE
5
186
100
AcDbEntity
8
0
100
AcDbSpline
70
0
71
2
72
6
73
3
74
0
42
0.000000001
43
0.0000000001
44
0.0000000001
40
0
40
0
40
0
40
1
40
1
40
1
10
-164.15189709982116
20
88.306267813635344
30
0
10
-163.91534176191527
20
88.057799891424651
30
0
10
-163.91534176191527
20
87.611918405485625
30
0
0
SPLINE
5
187
100
AcDbEntity
8
0
100
AcDbSpline
70
0
71
2
72
6
73
3
74
0
42
0.000000001
43
0.0000000001
44
0.0000000001
40
0
40
0
40
0
40
1
40
1
40
1
10
-163.91534176191527
20
87.611918405485625
30
0
10
-163.91534176191527
20
87.172843769979949
30
0
10
-164.15359940847594
20
86.898848370504851
30
0
0
SPLINE
5
188
100
AcDbEntity
8
0
100
AcDbSpline
70
0
71
2
72
6
73
3
74
0
42
0.000000001
43
0.0000000001
44
0.0000000001
40
0
40
0
40
0
40
1
40
1
40
1
10
-164.15359940847594
20
86.898848370504851
30
0
10
-164.39185705503661
20
86.624851778936858
30
0
10
-164.77647152265746
20
86.624851778936858
30
0
0
SPLINE
5
189
100
AcDbEntity
8
0
100
AcDbSpline
70
0
71
2
72
6
73
3
74
0
42
0.000000001
43
0.0000000001
44
0.0000000001
40
0
40
0
40
0
40
1
40
1
40
1
10
-165.26489940008361
20
87.431523159933562
30
0
10
-165.24617877325255
20
87.23240847964334
30
0
10
-165.17810550054747
20
87.113279656363005
30
0
0
SPLINE
5
190
100
AcDbEntity
8
0
100
AcDbSpline
70
0
71
2
72
6
73
3
74
0
42
0.000000001
43
0.0000000001
44
0.0000000001
40
0
40
0
40
0
40
1
40
1
40
1
10
-165.17810550054747
20
87.113279656363005
30
0
10
-165.05216923078734
20
86.892040327978606
30
0
10
-164.7577508958264
20
86.892040327978606
30
0
0
SPLINE
5
191
100
AcDbEntity
8
0
100
AcDbSpline
70
0
71
2
72
6
73
3
74
0
42
0.000000001
43
0.0000000001
44
0.0000000001
40
0
40
0
40
0
40
1
40
1
40
1
10
-164.7577508958264
20
86.892040327978606
30
0
10
-164.54672422727782
20
86.892040327978606
30
0
10
-164.40376844724852
20
87.045206383657927
30
0
0
SPLINE
5
192
100
AcDbEntity
8
0
100
AcDbSpline
70
0
71
2
72
6
73
3
74
0
42
0.000000001
43
0.0000000001
44
0.0000000001
40
0
40
0
40
0
40
1
40
1
40
1
10
-164.40376844724852
20
87.045206383657927
30
0
10
-164.26081505140502
20
87.196669534636015
30
0
10
-164.25230589231688
20
87.431523159933562
30
0
0
LINE
5
193
100
AcDbEntity
8
0
100
AcDbLine
10
-164.25230589231688
20
87.431523159933562
30
0
11
-165.26489940008361
21
87.431523159933562
31
0
0
SPLINE
5
194
100
AcDbEntity
8
0
100
AcDbSpline
70
0
71
2
72
6
73
3
74
0
42
0.000000001
43
0.0000000001
44
0.0000000001
40
0
40
0
40
0
40
1
40
1
40
1
10
-166.1906990083142
20
88.00334091563272
30
0
10
-166.1906990083142
20
88.136084035826201
30
0
10
-166.28770437559325
20
88.212667063665862
30
0
0
SPLINE
5
195
100
AcDbEntity
8
0
100
AcDbSpline
70
0
71
2
72
6
73
3
74
0
42
0.000000001
43
0.0000000001
44
0.0000000001
40
0
40
0
40
0
40
1
40
1
40
1
10
-166.28770437559325
20
88.212667063665862
30
0
10
-166.3847097428723
20
88.289249495459075
30
0
10
-166.51745167097289
20
88.289249495459075
30
0
0
SPLINE
5
196
100
AcDbEntity
8
0
100
AcDbSpline
70
0
71
2
72
6
73
3
74
0
42
0.000000001
43
0.0000000001
44
0.0000000001
40
0
40
0
40
0
40
1
40
1
40
1
10
-166.51745167097289
20
88.289249495459075
30
0
10
-166.67912688574035
20
88.289249495459075
30
0
10
-166.83059063276488
20
88.214368776274199
30
0
0
SPLINE
5
197
100
AcDbEntity
8
0
100
AcDbSpline
70
0
71
2
72
6
73
3
74
0
42
0.000000001
43
0.0000000001
44
0.0000000001
40
0
40
0
40
0
40
1
40
1
40
1
10
-166.83059063276488
20
88.214368776274199
30
0
10
-167.08586540540892
20
88.090134815168852
30
0
10
-167.08586540540892
20
87.807629660559172
30
0
0
LINE
5
198
100
AcDbEntity
8
0
100
AcDbLine
10
-167.08586540540892
20
87.807629660559172
30
0
11
-167.08586540540892
21
87.560862854910368
31
0
0
SPLINE
5
199
100
AcDbEntity
8
0
100
AcDbSpline
70
0
71
2
72
6
73
3
74
0
42
0.000000001
43
0.0000000001
44
0.0000000001
40
0
40
0
40
0
40
1
40
1
40
1
10
-167.08586540540892
20
87.560862854910368
30
0
10
-167.02970590910155
20
87.596601799917693
30
0
10
-166.94120970091063
20
87.62042756457376
30
0
0
SPLINE
5
200
100
AcDbEntity
8
0
100
AcDbSpline
70
0
71
2
72
6
73
3
74
0
42
0.000000001
43
0.0000000001
44
0.0000000001
40
0
40
0
40
0
40
1
40
1
40
1
10
-166.94120970091063
20
87.62042756457376
30
0
10
-166.85271468481261
20
87.644253329229826
30
0
10
-166.76762190183837
20
87.654464200926299
30
0
0
LINE
5
201
100
AcDbEntity
8
0
100
AcDbLine
10
-166.76762190183837
20
87.654464200926299
30
0
11
-166.58212271055419
21
87.678289965582366
31
0
0
SPLINE
5
202
100
AcDbEntity
8
0
100
AcDbSpline
70
0
71
2
72
6
73
3
74
0
42
0.000000001
43
0.0000000001
44
0.0000000001
40
0
40
0
40
0
40
1
40
1
40
1
10
-166.58212271055419
20
87.678289965582366
30
0
10
-166.41534176191527
20
87.700414017630095
30
0
10
-166.33195247968871
20
87.748064950895781
30
0
0
SPLINE
5
203
100
AcDbEntity
8
0
100
AcDbSpline
70
0
71
2
72
6
73
3
74
0
42
0.000000001
43
0.0000000001
44
0.0000000001
40
0
40
0
40
0
40
1
40
1
40
1
10
-166.33195247968871
20
87.748064950895781
30
0
10
-166.1906990083142
20
87.828051403952117
30
0
10
-166.1906990083142
20
88.00334091563272
30
0
0
SPLINE
5
204
100
AcDbEntity
8
0
100
AcDbSpline
70
0
71
2
72
6
73
3
74
0
42
0.000000001
43
0.0000000001
44
0.0000000001
40
0
40
0
40
0
40
1
40
1
40
1
10
-166.9327005418225
20
87.383871630621428
30
0
10
-167.03821506818969
20
87.370257333708281
30
0
10
-167.07395401319701
20
87.295376018476958
30
0
0
SPLINE
5
205
100
AcDbEntity
8
0
100
AcDbSpline
70
0
71
2
72
6
73
3
74
0
42
0.000000001
43
0.0000000001
44
0.0000000001
40
0
40
0
40
0
40
1
40
1
40
1
10
-167.07395401319701
20
87.295376018476958
30
0
10
-167.09437456449706
20
87.254531935644621
30
0
10
-167.09437456449706
20
87.177949503851409
30
0
0
SPLINE
5
206
100
AcDbEntity
8
0
100
AcDbSpline
70
0
71
2
72
6
73
3
74
0
42
0.000000001
43
0.0000000001
44
0.0000000001
40
0
40
0
40
0
40
1
40
1
40
1
10
-167.09437456449706
20
87.177949503851409
30
0
10
-167.09437456449706
20
87.021380022955412
30
0
10
-166.98205437978942
20
86.951605037641997
30
0
0
SPLINE
5
207
100
AcDbEntity
8
0
100
AcDbSpline
70
0
71
2
72
6
73
3
74
0
42
0.000000001
43
0.0000000001
44
0.0000000001
40
0
40
0
40
0
40
1
40
1
40
1
10
-166.98205437978942
20
86.951605037641997
30
0
10
-166.87143411955077
20
86.880127743673796
30
0
10
-166.66380968412597
20
86.880127743673796
30
0
0
SPLINE
5
208
100
AcDbEntity
8
0
100
AcDbSpline
70
0
71
2
72
6
73
3
74
0
42
0.000000001
43
0.0000000001
44
0.0000000001
40
0
40
0
40
0
40
1
40
1
40
1
10
-166.66380968412597
20
86.880127743673796
30
0
10
-166.42385092100341
20
86.880127743673796
30
0
10
-166.32344332060057
20
87.009467438650603
30
0
0
SPLINE
5
209
100
AcDbEntity
8
0
100
AcDbSpline
70
0
71
2
72
6
73
3
74
0
42
0.000000001
43
0.0000000001
44
0.0000000001
40
0
40
0
40
0
40
1
40
1
40
1
10
-166.32344332060057
20
87.009467438650603
30
0
10
-166.26728144010741
20
87.080944732618804
30
0
10
-166.25026312193114
20
87.22219701190042
30
0
0
LINE
5
210
100
AcDbEntity
8
0
100
AcDbLine
10
-166.25026312193114
20
87.22219701190042
30
0
11
-165.96435513815123
21
87.22219701190042
31
0
0
SPLINE
5
211
100
AcDbEntity
8
0
100
AcDbSpline
70
0
71
2
72
6
73
3
74
0
42
0.000000001
43
0.0000000001
44
0.0000000001
40
0
40
0
40
0
40
1
40
1
40
1
10
-165.96435513815123
20
87.22219701190042
30
0
10
-165.97286429723937
20
86.885233477545256
30
0
10
-166.18218984922606
20
86.754191473913664
30
0
0
SPLINE
5
212
100
AcDbEntity
8
0
100
AcDbSpline
70
0
71
2
72
6
73
3
74
0
42
0.000000001
43
0.0000000001
44
0.0000000001
40
0
40
0
40
0
40
1
40
1
40
1
10
-166.18218984922606
20
86.754191473913664
30
0
10
-166.39321890196044
20
86.621448353720183
30
0
10
-166.67061772665221
20
86.621448353720183
30
0
0
SPLINE
5
213
100
AcDbEntity
8
0
100
AcDbSpline
70
0
71
2
72
6
73
3
74
0
42
0.000000001
43
0.0000000001
44
0.0000000001
40
0
40
0
40
0
40
1
40
1
40
1
10
-166.67061772665221
20
86.621448353720183
30
0
10
-166.99226465543944
20
86.621448353720183
30
0
10
-167.1930822404309
20
86.743980602217192
30
0
0
SPLINE
5
214
100
AcDbEntity
8
0
100
AcDbSpline
70
0
71
2
72
6
73
3
74
0
42
0.000000001
43
0.0000000001
44
0.0000000001
40
0
40
0
40
0
40
1
40
1
40
1
10
-167.1930822404309
20
86.743980602217192
30
0
10
-167.39219751676757
20
86.866512850714201
30
0
10
-167.39219751676757
20
87.125192240667815
30
0
0
LINE
5
215
100
AcDbEntity
8
0
100
AcDbLine
10
-167.39219751676757
20
87.125192240667815
30
0
11
-167.39219751676757
21
88.1752264060502
31
0
0
SPLINE
5
216
100
AcDbEntity
8
0
100
AcDbSpline
70
0
71
2
72
6
73
3
74
0
42
0.000000001
43
0.0000000001
44
0.0000000001
40
0
40
0
40
0
40
1
40
1
40
1
10
-167.39219751676757
20
88.1752264060502
30
0
10
-167.39219751676757
20
88.222877935362334
30
0
10
-167.41091695150573
20
88.251809433889861
30
0
0
SPLINE
5
217
100
AcDbEntity
8
0
100
AcDbSpline
70
0
71
2
72
6
73
3
74
0
42
0.000000001
43
0.0000000001
44
0.0000000001
40
0
40
0
40
0
40
1
40
1
40
1
10
-167.41091695150573
20
88.251809433889861
30
0
10
-167.43133869489867
20
88.28074033637094
30
0
10
-167.49430742582518
20
88.28074033637094
30
0
0
SPLINE
5
218
100
AcDbEntity
8
0
100
AcDbSpline
70
0
71
2
72
6
73
3
74
0
42
0.000000001
43
0.0000000001
44
0.0000000001
40
0
40
0
40
0
40
1
40
1
40
1
10
-167.49430742582518
20
88.28074033637094
30
0
10
-167.51472916921813
20
88.28074033637094
30
0
10
-167.54025664648253
20
88.279038623762602
30
0
0
SPLINE
5
219
100
AcDbEntity
8
0
100
AcDbSpline
70
0
71
2
72
6
73
3
74
0
42
0.000000001
43
0.0000000001
44
0.0000000001
40
0
40
0
40
0
40
1
40
1
40
1
10
-167.54025664648253
20
88.279038623762602
30
0
10
-167.56578531583983
20
88.275635198545928
30
0
10
-167.59471502622802
20
88.270529464674468
30
0
0
LINE
5
220
100
AcDbEntity
8
0
100
AcDbLine
10
-167.59471502622802
20
88.270529464674468
30
0
11
-167.59471502622802
21
88.496873930883879
31
0
0
SPLINE
5
221
100
AcDbEntity
8
0
100
AcDbSpline
70
0
71
2
72
6
73
3
74
0
42
0.000000001
43
0.0000000001
44
0.0000000001
40
0
40
0
40
0
40
1
40
1
40
1
10
-167.59471502622802
20
88.496873930883879
30
0
10
-167.52323832830626
20
88.517296270323271
30
0
10
-167.48579826673705
20
88.522401408148284
30
0
0
SPLINE
5
222
100
AcDbEntity
8
0
100
AcDbSpline
70
0
71
2
72
6
73
3
74
0
42
0.000000001
43
0.0000000001
44
0.0000000001
40
0
40
0
40
0
40
1
40
1
40
1
10
-167.48579826673705
20
88.522401408148284
30
0
10
-167.44835701307494
20
88.527507142019743
30
0
10
-167.38368835767943
20
88.527507142019743
30
0
0
SPLINE
5
223
100
AcDbEntity
8
0
100
AcDbSpline
70
0
71
2
72
6
73
3
74
0
42
0.000000001
43
0.0000000001
44
0.0000000001
40
0
40
0
40
0
40
1
40
1
40
1
10
-167.38368835767943
20
88.527507142019743
30
0
10
-167.22541656812865
20
88.527507142019743
30
0
10
-167.1539398702069
20
88.415185765219206
30
0
0
SPLINE
5
224
100
AcDbEntity
8
0
100
AcDbSpline
70
0
71
2
72
6
73
3
74
0
42
0.000000001
43
0.0000000001
44
0.0000000001
40
0
40
0
40
0
40
1
40
1
40
1
10
-167.1539398702069
20
88.415185765219206
30
0
10
-167.11649980863768
20
88.355621651602263
30
0
10
-167.1011826070233
20
88.246703700018401
30
0
0
SPLINE
5
225
100
AcDbEntity
8
0
100
AcDbSpline
70
0
71
2
72
6
73
3
74
0
42
0.000000001
43
0.0000000001
44
0.0000000001
40
0
40
0
40
0
40
1
40
1
40
1
10
-167.1011826070233
20
88.246703700018401
30
0
10
-167.00758185705382
20
88.36923594851541
30
0
10
-166.83229294141967
20
88.459433273268218
30
0
0
SPLINE
5
226
100
AcDbEntity
8
0
100
AcDbSpline
70
0
71
2
72
6
73
3
74
0
42
0.000000001
43
0.0000000001
44
0.0000000001
40
0
40
0
40
0
40
1
40
1
40
1
10
-166.83229294141967
20
88.459433273268218
30
0
10
-166.65700283369262
20
88.549631194067473
30
0
10
-166.44597497305114
20
88.549631194067473
30
0
0
SPLINE
5
227
100
AcDbEntity
8
0
100
AcDbSpline
70
0
71
2
72
6
73
3
74
0
42
0.000000001
43
0.0000000001
44
0.0000000001
40
0
40
0
40
0
40
1
40
1
40
1
10
-166.44597497305114
20
88.549631194067473
30
0
10
-166.19240131696898
20
88.549631194067473
30
0
10
-166.03072729429442
20
88.396465734434599
30
0
0
SPLINE
5
228
100
AcDbEntity
8
0
100
AcDbSpline
70
0
71
2
72
6
73
3
74
0
42
0.000000001
43
0.0000000001
44
0.0000000001
40
0
40
0
40
0
40
1
40
1
40
1
10
-166.03072729429442
20
88.396465734434599
30
0
10
-165.87075319608886
20
88.241597966146941
30
0
10
-165.87075319608886
20
88.010148362112517
30
0
0
SPLINE
5
229
100
AcDbEntity
8
0
100
AcDbSpline
70
0
71
2
72
6
73
3
74
0
42
0.000000001
43
0.0000000001
44
0.0000000001
40
0
40
0
40
0
40
1
40
1
40
1
10
-165.87075319608886
20
88.010148362112517
30
0
10
-165.87075319608886
20
87.756574706030364
30
0
10
-166.02902498563964
20
87.617023543310637
30
0
0
SPLINE
5
230
100
AcDbEntity
8
0
100
AcDbSpline
70
0
71
2
72
6
73
3
74
0
42
0.000000001
43
0.0000000001
44
0.0000000001
40
0
40
0
40
0
40
1
40
1
40
1
10
-166.02902498563964
20
87.617023543310637
30
0
10
-166.18729558309752
20
87.477472976637358
30
0
10
-166.44427385648925
20
87.445138052893157
30
0
0
LINE
5
231
100
AcDbEntity
8
0
100
AcDbLine
10
-166.44427385648925
20
87.445138052893157
30
0
11
-166.9327005418225
21
87.383871630621428
31
0
0
LINE
5
232
100
AcDbEntity
8
0
100
AcDbLine
10
-167.89423909506041
20
86.665696457815642
30
0
11
-168.18525400480468
21
86.665696457815642
31
0
0
LINE
5
233
100
AcDbEntity
8
0
100
AcDbLine
10
-168.18525400480468
20
86.665696457815642
30
0
11
-168.18525400480468
21
86.924375847769255
31
0
0
SPLINE
5
234
100
AcDbEntity
8
0
100
AcDbSpline
70
0
71
2
72
6
73
3
74
0
42
0.000000001
43
0.0000000001
44
0.0000000001
40
0
40
0
40
0
40
1
40
1
40
1
10
-168.18525400480468
20
86.924375847769255
30
0
10
-168.31459369978148
20
86.764402941656584
30
0
10
-168.45924940427977
20
86.694627360296721
30
0
0
SPLINE
5
235
100
AcDbEntity
8
0
100
AcDbSpline
70
0
71
2
72
6
73
3
74
0
42
0.000000001
43
0.0000000001
44
0.0000000001
40
0
40
0
40
0
40
1
40
1
40
1
10
-168.45924940427977
20
86.694627360296721
30
0
10
-168.60390510877806
20
86.624851778936858
30
0
10
-168.78089633306701
20
86.624851778936858
30
0
0
SPLINE
5
236
100
AcDbEntity
8
0
100
AcDbSpline
70
0
71
2
72
6
73
3
74
0
42
0.000000001
43
0.0000000001
44
0.0000000001
40
0
40
0
40
0
40
1
40
1
40
1
10
-168.78089633306701
20
86.624851778936858
30
0
10
-169.16891541799743
20
86.624851778936858
30
0
10
-169.30506315550048
20
86.895444349241728
30
0
0
SPLINE
5
237
100
AcDbEntity
8
0
100
AcDbSpline
70
0
71
2
72
6
73
3
74
0
42
0.000000001
43
0.0000000001
44
0.0000000001
40
0
40
0
40
0
40
1
40
1
40
1
10
-169.30506315550048
20
86.895444349241728
30
0
10
-169.3799432786389
20
87.043504075003142
30
0
10
-169.3799432786389
20
87.319201783133025
30
0
0
LINE
5
238
100
AcDbEntity
8
0
100
AcDbLine
10
-169.3799432786389
20
87.319201783133025
30
0
11
-169.3799432786389
21
88.488364771795744
31
0
0
LINE
5
239
100
AcDbEntity
8
0
100
AcDbLine
10
-169.3799432786389
20
88.488364771795744
30
0
11
-169.06850781759459
21
88.488364771795744
31
0
0
LINE
5
240
100
AcDbEntity
8
0
100
AcDbLine
10
-169.06850781759459
20
88.488364771795744
30
0
11
-169.06850781759459
21
87.339624122572417
31
0
0
SPLINE
5
241
100
AcDbEntity
8
0
100
AcDbSpline
70
0
71
2
72
6
73
3
74
0
42
0.000000001
43
0.0000000001
44
0.0000000001
40
0
40
0
40
0
40
1
40
1
40
1
10
-169.06850781759459
20
87.339624122572417
30
0
10
-169.06850781759459
20
87.172843769979949
30
0
10
-169.01915397962767
20
87.070733860922331
30
0
0
SPLINE
5
242
100
AcDbEntity
8
0
100
AcDbSpline
70
0
71
2
72
6
73
3
74
0
42
0.000000001
43
0.0000000001
44
0.0000000001
40
0
40
0
40
0
40
1
40
1
40
1
10
-169.01915397962767
20
87.070733860922331
30
0
10
-168.937465813963
20
86.900550083113188
30
0
10
-168.72303452810485
20
86.900550083113188
30
0
0
SPLINE
5
243
100
AcDbEntity
8
0
100
AcDbSpline
70
0
71
2
72
6
73
3
74
0
42
0.000000001
43
0.0000000001
44
0.0000000001
40
0
40
0
40
0
40
1
40
1
40
1
10
-168.72303452810485
20
86.900550083113188
30
0
10
-168.61411657652098
20
86.900550083113188
30
0
10
-168.54434099516112
20
86.92267353911447
30
0
0
SPLINE
5
244
100
AcDbEntity
8
0
100
AcDbSpline
70
0
71
2
72
6
73
3
74
0
42
0.000000001
43
0.0000000001
44
0.0000000001
40
0
40
0
40
0
40
1
40
1
40
1
10
-168.54434099516112
20
86.92267353911447
30
0
10
-168.41840472540099
20
86.960114196730132
30
0
10
-168.32310285886962
20
87.072435573530669
30
0
0
SPLINE
5
245
100
AcDbEntity
8
0
100
AcDbSpline
70
0
71
2
72
6
73
3
74
0
42
0.000000001
43
0.0000000001
44
0.0000000001
40
0
40
0
40
0
40
1
40
1
40
1
10
-168.32310285886962
20
87.072435573530669
30
0
10
-168.24651923498351
20
87.162632898283476
30
0
10
-168.22269406637389
20
87.259637669516081
30
0
0
SPLINE
5
246
100
AcDbEntity
8
0
100
AcDbSpline
70
0
71
2
72
6
73
3
74
0
42
0.000000001
43
0.0000000001
44
0.0000000001
40
0
40
0
40
0
40
1
40
1
40
1
10
-168.22269406637389
20
87.259637669516081
30
0
10
-168.20057001432616
20
87.354940728140349
30
0
10
-168.20057001432616
20
87.533633665037627
30
0
0
LINE
5
247
100
AcDbEntity
8
0
100
AcDbLine
10
-168.20057001432616
20
87.533633665037627
30
0
11
-168.20057001432616
21
88.488364771795744
31
0
0
LINE
5
248
100
AcDbEntity
8
0
100
AcDbLine
10
-168.20057001432616
20
88.488364771795744
30
0
11
-167.89423909506041
21
88.488364771795744
31
0
0
LINE
5
249
100
AcDbEntity
8
0
100
AcDbLine
10
-167.89423909506041
20
88.488364771795744
30
0
11
-167.89423909506041
21
86.665696457815642
31
0
0
LINE
5
250
100
AcDbEntity
8
0
100
AcDbLine
10
-169.90581240972716
20
88.117364005041594
30
0
11
-170.26149716695983
21
88.117364005041594
31
0
0
LINE
5
251
100
AcDbEntity
8
0
100
AcDbLine
10
-170.26149716695983
20
88.117364005041594
30
0
11
-170.26149716695983
21
88.488364771795744
31
0
0
LINE
5
252
100
AcDbEntity
8
0
100
AcDbLine
10
-170.26149716695983
20
88.488364771795744
30
0
11
-169.90581240972716
21
88.488364771795744
31
0
0
LINE
5
253
100
AcDbEntity
8
0
100
AcDbLine
10
-169.90581240972716
20
88.488364771795744
30
0
11
-169.90581240972716
21
88.117364005041594
31
0
0
SPLINE
5
254
100
AcDbEntity
8
0
100
AcDbSpline
70
0
71
2
72
6
73
3
74
0
42
0.000000001
43
0.0000000001
44
0.0000000001
40
0
40
0
40
0
40
1
40
1
40
1
10
-170.9949883492871
20
87.59830351252603
30
0
10
-170.9949883492871
20
87.891019538832182
30
0
10
-171.11922231039244
20
88.088433102560515
30
0
0
SPLINE
5
255
100
AcDbEntity
8
0
100
AcDbSpline
70
0
71
2
72
6
73
3
74
0
42
0.000000001
43
0.0000000001
44
0.0000000001
40
0
40
0
40
0
40
1
40
1
40
1
10
-171.11922231039244
20
88.088433102560515
30
0
10
-171.24345627149779
20
88.2858460702424
30
0
10
-171.51745286306578
20
88.2858460702424
30
0
0
SPLINE
5
256
100
AcDbEntity
8
0
100
AcDbSpline
70
0
71
2
72
6
73
3
74
0
42
0.000000001
43
0.0000000001
44
0.0000000001
40
0
40
0
40
0
40
1
40
1
40
1
10
-171.51745286306578
20
88.2858460702424
30
0
10
-171.73018184026915
20
88.2858460702424
30
0
10
-171.86632957777221
20
88.103749112081999
30
0
0
SPLINE
5
257
100
AcDbEntity
8
0
100
AcDbSpline
70
0
71
2
72
6
73
3
74
0
42
0.000000001
43
0.0000000001
44
0.0000000001
40
0
40
0
40
0
40
1
40
1
40
1
10
-171.86632957777221
20
88.103749112081999
30
0
10
-172.00417843183715
20
87.919951037359709
30
0
10
-172.00417843183715
20
87.577881173086638
30
0
0
SPLINE
5
258
100
AcDbEntity
8
0
100
AcDbSpline
70
0
71
2
72
6
73
3
74
0
42
0.000000001
43
0.0000000001
44
0.0000000001
40
0
40
0
40
0
40
1
40
1
40
1
10
-172.00417843183715
20
87.577881173086638
30
0
10
-172.00417843183715
20
87.23240847964334
30
0
10
-171.86292496046264
20
87.067330435705657
30
0
0
SPLINE
5
259
100
AcDbEntity
8
0
100
AcDbSpline
70
0
71
2
72
6
73
3
74
0
42
0.000000001
43
0.0000000001
44
0.0000000001
40
0
40
0
40
0
40
1
40
1
40
1
10
-171.86292496046264
20
87.067330435705657
30
0
10
-171.72167268118102
20
86.900550083113188
30
0
10
-171.51404824575621
20
86.900550083113188
30
0
0
SPLINE
5
260
100
AcDbEntity
8
0
100
AcDbSpline
70
0
71
2
72
6
73
3
74
0
42
0.000000001
43
0.0000000001
44
0.0000000001
40
0
40
0
40
0
40
1
40
1
40
1
10
-171.51404824575621
20
86.900550083113188
30
0
10
-171.28259864172179
20
86.900550083113188
30
0
10
-171.1379429372235
20
87.077541307402129
30
0
0
SPLINE
5
261
100
AcDbEntity
8
0
100
AcDbSpline
70
0
71
2
72
6
73
3
74
0
42
0.000000001
43
0.0000000001
44
0.0000000001
40
0
40
0
40
0
40
1
40
1
40
1
10
-171.1379429372235
20
87.077541307402129
30
0
10
-170.9949883492871
20
87.254532531691069
30
0
10
-170.9949883492871
20
87.59830351252603
30
0
0
SPLINE
5
262
100
AcDbEntity
8
0
100
AcDbSpline
70
0
71
2
72
6
73
3
74
0
42
0.000000001
43
0.0000000001
44
0.0000000001
40
0
40
0
40
0
40
1
40
1
40
1
10
-171.45618644079406
20
86.63336153407144
30
0
10
-171.66551199278075
20
86.63336153407144
30
0
10
-171.80676427206237
20
86.72185714621591
30
0
0
SPLINE
5
263
100
AcDbEntity
8
0
100
AcDbSpline
70
0
71
2
72
6
73
3
74
0
42
0.000000001
43
0.0000000001
44
0.0000000001
40
0
40
0
40
0
40
1
40
1
40
1
10
-171.80676427206237
20
86.72185714621591
30
0
10
-171.88845362981994
20
86.772912100744719
30
0
10
-171.99226465543944
20
86.900550083113188
30
0
0
LINE
5
264
100
AcDbEntity
8
0
100
AcDbLine
10
-171.99226465543944
20
86.900550083113188
30
0
11
-171.99226465543944
21
85.97985561270761
31
0
0
LINE
5
265
100
AcDbEntity
8
0
100
AcDbLine
10
-171.99226465543944
20
85.97985561270761
30
0
11
-172.28668299040038
21
85.97985561270761
31
0
0
LINE
5
266
100
AcDbEntity
8
0
100
AcDbLine
10
-172.28668299040038
20
85.97985561270761
30
0
11
-172.28668299040038
21
88.488364771795744
31
0
0
LINE
5
267
100
AcDbEntity
8
0
100
AcDbLine
10
-172.28668299040038
20
88.488364771795744
30
0
11
-172.0109852822705
21
88.488364771795744
31
0
0
LINE
5
268
100
AcDbEntity
8
0
100
AcDbLine
10
-172.0109852822705
20
88.488364771795744
30
0
11
-172.0109852822705
21
88.234791115713591
31
0
0
SPLINE
5
269
100
AcDbEntity
8
0
100
AcDbSpline
70
0
71
2
72
6
73
3
74
0
42
0.000000001
43
0.0000000001
44
0.0000000001
40
0
40
0
40
0
40
1
40
1
40
1
10
-172.0109852822705
20
88.234791115713591
30
0
10
-171.90376963934142
20
88.403272584867949
30
0
10
-171.75741162618834
20
88.478153900099272
30
0
0
SPLINE
5
270
100
AcDbEntity
8
0
100
AcDbSpline
70
0
71
2
72
6
73
3
74
0
42
0.000000001
43
0.0000000001
44
0.0000000001
40
0
40
0
40
0
40
1
40
1
40
1
10
-171.75741162618834
20
88.478153900099272
30
0
10
-171.61105361303527
20
88.553034619284148
30
0
10
-171.42214980444152
20
88.553034619284148
30
0
0
SPLINE
5
271
100
AcDbEntity
8
0
100
AcDbSpline
70
0
71
2
72
6
73
3
74
0
42
0.000000001
43
0.0000000001
44
0.0000000001
40
0
40
0
40
0
40
1
40
1
40
1
10
-171.42214980444152
20
88.553034619284148
30
0
10
-171.11752000173766
20
88.553034619284148
30
0
10
-170.89457955679137
20
88.297758654547209
30
0
0
SPLINE
5
272
100
AcDbEntity
8
0
100
AcDbSpline
70
0
71
2
72
6
73
3
74
0
42
0.000000001
43
0.0000000001
44
0.0000000001
40
0
40
0
40
0
40
1
40
1
40
1
10
-170.89457955679137
20
88.297758654547209
30
0
10
-170.67163911184508
20
88.040781573248381
30
0
10
-170.67163911184508
20
87.6153218307023
30
0
0
SPLINE
5
273
100
AcDbEntity
8
0
100
AcDbSpline
70
0
71
2
72
6
73
3
74
0
42
0.000000001
43
0.0000000001
44
0.0000000001
40
0
40
0
40
0
40
1
40
1
40
1
10
-170.67163911184508
20
87.6153218307023
30
0
10
-170.67163911184508
20
87.217091874075408
30
0
10
-170.87415781339843
20
86.926077560377593
30
0
0
SPLINE
5
274
100
AcDbEntity
8
0
100
AcDbSpline
70
0
71
2
72
6
73
3
74
0
42
0.000000001
43
0.0000000001
44
0.0000000001
40
0
40
0
40
0
40
1
40
1
40
1
10
-170.87415781339843
20
86.926077560377593
30
0
10
-171.07837763151366
20
86.63336153407144
30
0
10
-171.45618644079406
20
86.63336153407144
30
0
0
SPLINE
5
275
100
AcDbEntity
8
0
100
AcDbSpline
70
0
71
2
72
6
73
3
74
0
42
0.000000001
43
0.0000000001
44
0.0000000001
40
0
40
0
40
0
40
1
40
1
40
1
10
-173.49839177450377
20
86.624851778936858
30
0
10
-173.69240131696898
20
86.624851778936858
30
0
10
-173.87449589094359
20
86.716751412344451
30
0
0
SPLINE
5
276
100
AcDbEntity
8
0
100
AcDbSpline
70
0
71
2
72
6
73
3
74
0
42
0.000000001
43
0.0000000001
44
0.0000000001
40
0
40
0
40
0
40
1
40
1
40
1
10
-173.87449589094359
20
86.716751412344451
30
0
10
-174.05659523328978
20
86.806948737097258
30
0
10
-174.15189590772826
20
86.951605037641997
30
0
0
SPLINE
5
277
100
AcDbEntity
8
0
100
AcDbSpline
70
0
71
2
72
6
73
3
74
0
42
0.000000001
43
0.0000000001
44
0.0000000001
40
0
40
0
40
0
40
1
40
1
40
1
10
-174.15189590772826
20
86.951605037641997
30
0
10
-174.24379673322875
20
87.089453891706938
30
0
10
-174.27442875227172
20
87.273252562475676
30
0
0
SPLINE
5
278
100
AcDbEntity
8
0
100
AcDbSpline
70
0
71
2
72
6
73
3
74
0
42
0.000000001
43
0.0000000001
44
0.0000000001
40
0
40
0
40
0
40
1
40
1
40
1
10
-174.27442875227172
20
87.273252562475676
30
0
10
-174.30165853819091
20
87.39918823618936
30
0
10
-174.30165853819091
20
87.674885944319243
30
0
0
LINE
5
279
100
AcDbEntity
8
0
100
AcDbLine
10
-174.30165853819091
20
87.674885944319243
30
0
11
-172.96571579298217
21
87.674885944319243
31
0
0
SPLINE
5
280
100
AcDbEntity
8
0
100
AcDbSpline
70
0
71
2
72
6
73
3
74
0
42
0.000000001
43
0.0000000001
44
0.0000000001
40
0
40
0
40
0
40
1
40
1
40
1
10
-172.96571579298217
20
87.674885944319243
30
0
10
-172.9742249520703
20
87.952285961103911
30
0
10
-173.09675779661376
20
88.120767430258269
30
0
0
SPLINE
5
281
100
AcDbEntity
8
0
100
AcDbSpline
70
0
71
2
72
6
73
3
74
0
42
0.000000001
43
0.0000000001
44
0.0000000001
40
0
40
0
40
0
40
1
40
1
40
1
10
-173.09675779661376
20
88.120767430258269
30
0
10
-173.21928944906432
20
88.287547782850737
30
0
10
-173.47626772245604
20
88.287547782850737
30
0
0
SPLINE
5
282
100
AcDbEntity
8
0
100
AcDbSpline
70
0
71
2
72
6
73
3
74
0
42
0.000000001
43
0.0000000001
44
0.0000000001
40
0
40
0
40
0
40
1
40
1
40
1
10
-173.47626772245604
20
88.287547782850737
30
0
10
-173.7162264855786
20
88.287547782850737
30
0
10
-173.85917988142211
20
88.129277185392851
30
0
0
SPLINE
5
283
100
AcDbEntity
8
0
100
AcDbSpline
70
0
71
2
72
6
73
3
74
0
42
0.000000001
43
0.0000000001
44
0.0000000001
40
0
40
0
40
0
40
1
40
1
40
1
10
-173.85917988142211
20
88.129277185392851
30
0
10
-173.94086923917968
20
88.037377551985259
30
0
10
-173.97490587553222
20
87.916547016096587
30
0
0
LINE
5
284
100
AcDbEntity
8
0
100
AcDbLine
10
-173.97490587553222
20
87.916547016096587
30
0
11
-174.2761310609265
21
87.916547016096587
31
0
0
SPLINE
5
285
100
AcDbEntity
8
0
100
AcDbSpline
70
0
71
2
72
6
73
3
74
0
42
0.000000001
43
0.0000000001
44
0.0000000001
40
0
40
0
40
0
40
1
40
1
40
1
10
-174.2761310609265
20
87.916547016096587
30
0
10
-174.26421966871459
20
88.016955808592314
30
0
10
-174.19614639600951
20
88.141189769697661
30
0
0
SPLINE
5
286
100
AcDbEntity
8
0
100
AcDbSpline
70
0
71
2
72
6
73
3
74
0
42
0.000000001
43
0.0000000001
44
0.0000000001
40
0
40
0
40
0
40
1
40
1
40
1
10
-174.19614639600951
20
88.141189769697661
30
0
10
-174.12977304777343
20
88.26372201819467
30
0
10
-174.04638376554686
20
88.342006758642668
30
0
0
SPLINE
5
287
100
AcDbEntity
8
0
100
AcDbSpline
70
0
71
2
72
6
73
3
74
0
42
0.000000001
43
0.0000000001
44
0.0000000001
40
0
40
0
40
0
40
1
40
1
40
1
10
-174.04638376554686
20
88.342006758642668
30
0
10
-173.90683260282714
20
88.478153900099272
30
0
10
-173.70091047605712
20
88.525805429411406
30
0
0
SPLINE
5
288
100
AcDbEntity
8
0
100
AcDbSpline
70
0
71
2
72
6
73
3
74
0
42
0.000000001
43
0.0000000001
44
0.0000000001
40
0
40
0
40
0
40
1
40
1
40
1
10
-173.70091047605712
20
88.525805429411406
30
0
10
-173.59029021581847
20
88.553034619284148
30
0
10
-173.45074024519164
20
88.553034619284148
30
0
0
SPLINE
5
289
100
AcDbEntity
8
0
100
AcDbSpline
70
0
71
2
72
6
73
3
74
0
42
0.000000001
43
0.0000000001
44
0.0000000001
40
0
40
0
40
0
40
1
40
1
40
1
10
-173.45074024519164
20
88.553034619284148
30
0
10
-173.11037268957335
20
88.553034619284148
30
0
10
-172.87381735166747
20
88.306267813635344
30
0
0
SPLINE
5
290
100
AcDbEntity
8
0
100
AcDbSpline
70
0
71
2
72
6
73
3
74
0
42
0.000000001
43
0.0000000001
44
0.0000000001
40
0
40
0
40
0
40
1
40
1
40
1
10
-172.87381735166747
20
88.306267813635344
30
0
10
-172.63726201376159
20
88.057799891424651
30
0
10
-172.63726201376159
20
87.611918405485625
30
0
0
SPLINE
5
291
100
AcDbEntity
8
0
100
AcDbSpline
70
0
71
2
72
6
73
3
74
0
42
0.000000001
43
0.0000000001
44
0.0000000001
40
0
40
0
40
0
40
1
40
1
40
1
10
-172.63726201376159
20
87.611918405485625
30
0
10
-172.63726201376159
20
87.172843769979949
30
0
10
-172.87551846822936
20
86.898848370504851
30
0
0
SPLINE
5
292
100
AcDbEntity
8
0
100
AcDbSpline
70
0
71
2
72
6
73
3
74
0
42
0.000000001
43
0.0000000001
44
0.0000000001
40
0
40
0
40
0
40
1
40
1
40
1
10
-172.87551846822936
20
86.898848370504851
30
0
10
-173.11377611479003
20
86.624851778936858
30
0
10
-173.49839177450377
20
86.624851778936858
30
0
0
SPLINE
5
293
100
AcDbEntity
8
0
100
AcDbSpline
70
0
71
2
72
6
73
3
74
0
42
0.000000001
43
0.0000000001
44
0.0000000001
40
0
40
0
40
0
40
1
40
1
40
1
10
-173.98681965192992
20
87.431523159933562
30
0
10
-173.96809902509887
20
87.23240847964334
30
0
10
-173.90002575239379
20
87.113279656363005
30
0
0
SPLINE
5
294
100
AcDbEntity
8
0
100
AcDbSpline
70
0
71
2
72
6
73
3
74
0
42
0.000000001
43
0.0000000001
44
0.0000000001
40
0
40
0
40
0
40
1
40
1
40
1
10
-173.90002575239379
20
87.113279656363005
30
0
10
-173.77408829054076
20
86.892040327978606
30
0
10
-173.47967114767272
20
86.892040327978606
30
0
0
SPLINE
5
295
100
AcDbEntity
8
0
100
AcDbSpline
70
0
71
2
72
6
73
3
74
0
42
0.000000001
43
0.0000000001
44
0.0000000001
40
0
40
0
40
0
40
1
40
1
40
1
10
-173.47967114767272
20
86.892040327978606
30
0
10
-173.26864328703124
20
86.892040327978606
30
0
10
-173.12568869909484
20
87.045206383657927
30
0
0
SPLINE
5
296
100
AcDbEntity
8
0
100
AcDbSpline
70
0
71
2
72
6
73
3
74
0
42
0.000000001
43
0.0000000001
44
0.0000000001
40
0
40
0
40
0
40
1
40
1
40
1
10
-173.12568869909484
20
87.045206383657927
30
0
10
-172.98273411115844
20
87.196669534636015
30
0
10
-172.9742249520703
20
87.431523159933562
30
0
0
LINE
5
297
100
AcDbEntity
8
0
100
AcDbLine
10
-172.9742249520703
20
87.431523159933562
30
0
11
-173.98681965192992
21
87.431523159933562
31
0
0
SPLINE
5
298
100
AcDbEntity
8
0
100
AcDbSpline
70
0
71
2
72
6
73
3
74
0
42
0.000000001
43
0.0000000001
44
0.0000000001
40
0
40
0
40
0
40
1
40
1
40
1
10
-174.85986080488402
20
87.916547016096587
30
0
10
-174.87347688993651
20
88.06971247572946
30
0
10
-174.93644562086303
20
88.151400641394133
30
0
0
SPLINE
5
299
100
AcDbEntity
8
0
100
AcDbSpline
70
0
71
2
72
6
73
3
74
0
42
0.000000001
43
0.0000000001
44
0.0000000001
40
0
40
0
40
0
40
1
40
1
40
1
10
-174.93644562086303
20
88.151400641394133
30
0
10
-175.05216923078734
20
88.299460963201994
30
0
10
-175.33808079084594
20
88.299460963201994
30
0
0
SPLINE
5
300
100
AcDbEntity
8
0
100
AcDbSpline
70
0
71
2
72
6
73
3
74
0
42
0.000000001
43
0.0000000001
44
0.0000000001
40
0
40
0
40
0
40
1
40
1
40
1
10
-175.33808079084594
20
88.299460963201994
30
0
10
-175.50826397260863
20
88.299460963201994
30
0
10
-175.63760128339965
20
88.226281956625456
30
0
0
SPLINE
5
301
100
AcDbEntity
8
0
100
AcDbSpline
70
0
71
2
72
6
73
3
74
0
42
0.000000001
43
0.0000000001
44
0.0000000001
40
0
40
0
40
0
40
1
40
1
40
1
10
-175.63760128339965
20
88.226281956625456
30
0
10
-175.76694336256224
20
88.151400641394133
30
0
10
-175.76694336256224
20
87.996533469152922
30
0
0
SPLINE
5
302
100
AcDbEntity
8
0
100
AcDbSpline
70
0
71
2
72
6
73
3
74
0
42
0.000000001
43
0.0000000001
44
0.0000000001
40
0
40
0
40
0
40
1
40
1
40
1
10
-175.76694336256224
20
87.996533469152922
30
0
10
-175.76694336256224
20
87.879106954527373
30
0
10
-175.66313114484984
20
87.817840532255644
30
0
0
SPLINE
5
303
100
AcDbEntity
8
0
100
AcDbSpline
70
0
71
2
72
6
73
3
74
0
42
0.000000001
43
0.0000000001
44
0.0000000001
40
0
40
0
40
0
40
1
40
1
40
1
10
-175.66313114484984
20
87.817840532255644
30
0
10
-175.59676018079955
20
87.780399874639983
30
0
10
-175.40104713758666
20
87.731046632719512
30
0
0
LINE
5
304
100
AcDbEntity
8
0
100
AcDbLine
10
-175.40104713758666
20
87.731046632719512
30
0
11
-175.15768375715453
21
87.669780806494231
31
0
0
SPLINE
5
305
100
AcDbEntity
8
0
100
AcDbSpline
70
0
71
2
72
6
73
3
74
0
42
0.000000001
43
0.0000000001
44
0.0000000001
40
0
40
0
40
0
40
1
40
1
40
1
10
-175.15768375715453
20
87.669780806494231
30
0
10
-174.92453184446532
20
87.611918405485625
30
0
10
-174.81391277631957
20
87.540441111517424
30
0
0
SPLINE
5
306
100
AcDbEntity
8
0
100
AcDbSpline
70
0
71
2
72
6
73
3
74
0
42
0.000000001
43
0.0000000001
44
0.0000000001
40
0
40
0
40
0
40
1
40
1
40
1
10
-174.81391277631957
20
87.540441111517424
30
0
10
-174.61649980863768
20
87.41620655436563
30
0
10
-174.61649980863768
20
87.196669534636015
30
0
0
SPLINE
5
307
100
AcDbEntity
8
0
100
AcDbSpline
70
0
71
2
72
6
73
3
74
0
42
0.000000001
43
0.0000000001
44
0.0000000001
40
0
40
0
40
0
40
1
40
1
40
1
10
-174.61649980863768
20
87.196669534636015
30
0
10
-174.61649980863768
20
86.937990144682402
30
0
10
-174.80200138410765
20
86.778017834616179
30
0
0
SPLINE
5
308
100
AcDbEntity
8
0
100
AcDbSpline
70
0
71
2
72
6
73
3
74
0
42
0.000000001
43
0.0000000001
44
0.0000000001
40
0
40
0
40
0
40
1
40
1
40
1
10
-174.80200138410765
20
86.778017834616179
30
0
10
-174.98920288404662
20
86.618044928503508
30
0
10
-175.30404177030761
20
86.618044928503508
30
0
0
SPLINE
5
309
100
AcDbEntity
8
0
100
AcDbSpline
70
0
71
2
72
6
73
3
74
0
42
0.000000001
43
0.0000000001
44
0.0000000001
40
0
40
0
40
0
40
1
40
1
40
1
10
-175.30404177030761
20
86.618044928503508
30
0
10
-175.71588840803344
20
86.618044928503508
30
0
10
-175.89798298200805
20
86.859706000280852
30
0
0
SPLINE
5
310
100
AcDbEntity
8
0
100
AcDbSpline
70
0
71
2
72
6
73
3
74
0
42
0.000000001
43
0.0000000001
44
0.0000000001
40
0
40
0
40
0
40
1
40
1
40
1
10
-175.89798298200805
20
86.859706000280852
30
0
10
-176.01200666746337
20
87.012870863867278
30
0
10
-176.00860443433959
20
87.189862088156218
30
0
0
LINE
5
311
100
AcDbEntity
8
0
100
AcDbLine
10
-176.00860443433959
20
87.189862088156218
30
0
11
-175.71929064115722
21
87.189862088156218
31
0
0
SPLINE
5
312
100
AcDbEntity
8
0
100
AcDbSpline
70
0
71
2
72
6
73
3
74
0
42
0.000000001
43
0.0000000001
44
0.0000000001
40
0
40
0
40
0
40
1
40
1
40
1
10
-175.71929064115722
20
87.189862088156218
30
0
10
-175.71078148206908
20
87.086049870443816
30
0
10
-175.64611282667357
20
87.000958279562468
30
0
0
SPLINE
5
313
100
AcDbEntity
8
0
100
AcDbSpline
70
0
71
2
72
6
73
3
74
0
42
0.000000001
43
0.0000000001
44
0.0000000001
40
0
40
0
40
0
40
1
40
1
40
1
10
-175.64611282667357
20
87.000958279562468
30
0
10
-175.54059830030639
20
86.880127743673796
30
0
10
-175.28021660169799
20
86.880127743673796
30
0
0
SPLINE
5
314
100
AcDbEntity
8
0
100
AcDbSpline
70
0
71
2
72
6
73
3
74
0
42
0.000000001
43
0.0000000001
44
0.0000000001
40
0
40
0
40
0
40
1
40
1
40
1
10
-175.28021660169799
20
86.880127743673796
30
0
10
-175.10662880262572
20
86.880127743673796
30
0
10
-175.01643028578002
20
86.946499303770537
30
0
0
SPLINE
5
315
100
AcDbEntity
8
0
100
AcDbSpline
70
0
71
2
72
6
73
3
74
0
42
0.000000001
43
0.0000000001
44
0.0000000001
40
0
40
0
40
0
40
1
40
1
40
1
10
-175.01643028578002
20
86.946499303770537
30
0
10
-174.92793646177489
20
87.012870863867278
30
0
10
-174.92793646177489
20
87.12178881545114
30
0
0
SPLINE
5
316
100
AcDbEntity
8
0
100
AcDbSpline
70
0
71
2
72
6
73
3
74
0
42
0.000000001
43
0.0000000001
44
0.0000000001
40
0
40
0
40
0
40
1
40
1
40
1
10
-174.92793646177489
20
87.12178881545114
30
0
10
-174.92793646177489
20
87.240917638731474
30
0
10
-175.04536238035399
20
87.312394932699675
30
0
0
SPLINE
5
317
100
AcDbEntity
8
0
100
AcDbSpline
70
0
71
2
72
6
73
3
74
0
42
0.000000001
43
0.0000000001
44
0.0000000001
40
0
40
0
40
0
40
1
40
1
40
1
10
-175.04536238035399
20
87.312394932699675
30
0
10
-175.11343803724486
20
87.354940728140349
30
0
10
-175.24617996534545
20
87.387275651884551
30
0
0
LINE
5
318
100
AcDbEntity
8
0
100
AcDbLine
10
-175.24617996534545
20
87.387275651884551
30
0
11
-175.4486974748059
21
87.436628893805022
31
0
0
SPLINE
5
319
100
AcDbEntity
8
0
100
AcDbSpline
70
0
71
2
72
6
73
3
74
0
42
0.000000001
43
0.0000000001
44
0.0000000001
40
0
40
0
40
0
40
1
40
1
40
1
10
-175.4486974748059
20
87.436628893805022
30
0
10
-175.77885475477416
20
87.516615346861357
30
0
10
-175.8911761315747
20
87.591496066046233
30
0
0
SPLINE
5
320
100
AcDbEntity
8
0
100
AcDbSpline
70
0
71
2
72
6
73
3
74
0
42
0.000000001
43
0.0000000001
44
0.0000000001
40
0
40
0
40
0
40
1
40
1
40
1
10
-175.8911761315747
20
87.591496066046233
30
0
10
-176.06986847242553
20
87.70892317671823
30
0
10
-176.06986847242553
20
87.960795120192046
30
0
0
SPLINE
5
321
100
AcDbEntity
8
0
100
AcDbSpline
70
0
71
2
72
6
73
3
74
0
42
0.000000001
43
0.0000000001
44
0.0000000001
40
0
40
0
40
0
40
1
40
1
40
1
10
-176.06986847242553
20
87.960795120192046
30
0
10
-176.06986847242553
20
88.204157904577727
30
0
10
-175.88436928114135
20
88.381149128866667
30
0
0
SPLINE
5
322
100
AcDbEntity
8
0
100
AcDbSpline
70
0
71
2
72
6
73
3
74
0
42
0.000000001
43
0.0000000001
44
0.0000000001
40
0
40
0
40
0
40
1
40
1
40
1
10
-175.88436928114135
20
88.381149128866667
30
0
10
-175.70057001432616
20
88.558140353155608
30
0
10
-175.32276239713866
20
88.558140353155608
30
0
0
SPLINE
5
323
100
AcDbEntity
8
0
100
AcDbSpline
70
0
71
2
72
6
73
3
74
0
42
0.000000001
43
0.0000000001
44
0.0000000001
40
0
40
0
40
0
40
1
40
1
40
1
10
-175.32276239713866
20
88.558140353155608
30
0
10
-174.91602268537719
20
88.558140353155608
30
0
10
-174.74583950361449
20
88.37434168238687
30
0
0
SPLINE
5
324
100
AcDbEntity
8
0
100
AcDbSpline
70
0
71
2
72
6
73
3
74
0
42
0.000000001
43
0.0000000001
44
0.0000000001
40
0
40
0
40
0
40
1
40
1
40
1
10
-174.74583950361449
20
88.37434168238687
30
0
10
-174.57735863050658
20
88.188841299009795
30
0
10
-174.56544485410888
20
87.916547016096587
30
0
0
LINE
5
325
100
AcDbEntity
8
0
100
AcDbLine
10
-174.56544485410888
20
87.916547016096587
30
0
11
-174.85986080488402
21
87.916547016096587
31
0
0
LINE
5
326
100
AcDbEntity
8
0
100
AcDbLine
10
-176.42044630369384
20
86.674205616903777
30
0
11
-176.73188295683104
21
86.674205616903777
31
0
0
LINE
5
327
100
AcDbEntity
8
0
100
AcDbLine
10
-176.73188295683104
20
86.674205616903777
30
0
11
-176.73188295683104
21
88.488364771795744
31
0
0
LINE
5
328
100
AcDbEntity
8
0
100
AcDbLine
10
-176.73188295683104
20
88.488364771795744
30
0
11
-176.42044630369384
21
88.488364771795744
31
0
0
LINE
5
329
100
AcDbEntity
8
0
100
AcDbLine
10
-176.42044630369384
20
88.488364771795744
30
0
11
-176.42044630369384
21
86.674205616903777
31
0
0
LINE
5
330
100
AcDbEntity
8
0
100
AcDbLine
10
-176.42044630369384
20
85.988364771795744
30
0
11
-176.73188295683104
21
85.988364771795744
31
0
0
LINE
5
331
100
AcDbEntity
8
0
100
AcDbLine
10
-176.73188295683104
20
85.988364771795744
30
0
11
-176.73188295683104
21
86.335539773893828
31
0
0
LINE
5
332
100
AcDbEntity
8
0
100
AcDbLine
10
-176.73188295683104
20
86.335539773893828
30
0
11
-176.42044630369384
21
86.335539773893828
31
0
0
LINE
5
333
100
AcDbEntity
8
0
100
AcDbLine
10
-176.42044630369384
20
86.335539773893828
30
0
11
-176.42044630369384
21
85.988364771795744
31
0
0
SPLINE
5
334
100
AcDbEntity
8
0
100
AcDbSpline
70
0
71
2
72
6
73
3
74
0
42
0.000000001
43
0.0000000001
44
0.0000000001
40
0
40
0
40
0
40
1
40
1
40
1
10
-177.83808079084594
20
86.63336153407144
30
0
10
-178.0525096925183
20
86.63336153407144
30
0
10
-178.21248379072387
20
86.73887546439218
30
0
0
SPLINE
5
335
100
AcDbEntity
8
0
100
AcDbSpline
70
0
71
2
72
6
73
3
74
0
42
0.000000001
43
0.0000000001
44
0.0000000001
40
0
40
0
40
0
40
1
40
1
40
1
10
-178.21248379072387
20
86.73887546439218
30
0
10
-178.29927769026
20
86.798439578009123
30
0
10
-178.3894762071057
20
86.912462667417998
30
0
0
LINE
5
336
100
AcDbEntity
8
0
100
AcDbLine
10
-178.3894762071057
20
86.912462667417998
30
0
11
-178.3894762071057
21
86.682714775991911
31
0
0
LINE
5
337
100
AcDbEntity
8
0
100
AcDbLine
10
-178.3894762071057
20
86.682714775991911
30
0
11
-178.67197838148314
21
86.682714775991911
31
0
0
LINE
5
338
100
AcDbEntity
8
0
100
AcDbLine
10
-178.67197838148314
20
86.682714775991911
30
0
11
-178.67197838148314
21
88.340305046034331
31
0
0
SPLINE
5
339
100
AcDbEntity
8
0
100
AcDbSpline
70
0
71
2
72
6
73
3
74
0
42
0.000000001
43
0.0000000001
44
0.0000000001
40
0
40
0
40
0
40
1
40
1
40
1
10
-178.67197838148314
20
88.340305046034331
30
0
10
-178.67197838148314
20
88.687480048132414
30
0
10
-178.56986847242553
20
88.888296441030974
30
0
0
SPLINE
5
340
100
AcDbEntity
8
0
100
AcDbSpline
70
0
71
2
72
6
73
3
74
0
42
0.000000001
43
0.0000000001
44
0.0000000001
40
0
40
0
40
0
40
1
40
1
40
1
10
-178.56986847242553
20
88.888296441030974
30
0
10
-178.37926235517699
20
89.259297207785124
30
0
10
-177.84999218305785
20
89.259297207785124
30
0
0
SPLINE
5
341
100
AcDbEntity
8
0
100
AcDbSpline
70
0
71
2
72
6
73
3
74
0
42
0.000000001
43
0.0000000001
44
0.0000000001
40
0
40
0
40
0
40
1
40
1
40
1
10
-177.84999218305785
20
89.259297207785124
30
0
10
-177.55557384809691
20
89.259297207785124
30
0
10
-177.35475864729125
20
89.126554087591643
30
0
0
SPLINE
5
342
100
AcDbEntity
8
0
100
AcDbSpline
70
0
71
2
72
6
73
3
74
0
42
0.000000001
43
0.0000000001
44
0.0000000001
40
0
40
0
40
0
40
1
40
1
40
1
10
-177.35475864729125
20
89.126554087591643
30
0
10
-177.15394106229979
20
88.995512680006499
30
0
10
-177.13011589369017
20
88.714709238005156
30
0
0
LINE
5
343
100
AcDbEntity
8
0
100
AcDbLine
10
-177.13011589369017
20
88.714709238005156
30
0
11
-177.44155254682738
21
88.714709238005156
31
0
0
SPLINE
5
344
100
AcDbEntity
8
0
100
AcDbSpline
70
0
71
2
72
6
73
3
74
0
42
0.000000001
43
0.0000000001
44
0.0000000001
40
0
40
0
40
0
40
1
40
1
40
1
10
-177.44155254682738
20
88.714709238005156
30
0
10
-177.46367540678222
20
88.837241486502165
30
0
10
-177.53004637083251
20
88.903613046598906
30
0
0
SPLINE
5
345
100
AcDbEntity
8
0
100
AcDbSpline
70
0
71
2
72
6
73
3
74
0
42
0.000000001
43
0.0000000001
44
0.0000000001
40
0
40
0
40
0
40
1
40
1
40
1
10
-177.53004637083251
20
88.903613046598906
30
0
10
-177.63385858854491
20
89.005723551702971
30
0
10
-177.85680141767699
20
89.005723551702971
30
0
0
SPLINE
5
346
100
AcDbEntity
8
0
100
AcDbSpline
70
0
71
2
72
6
73
3
74
0
42
0.000000001
43
0.0000000001
44
0.0000000001
40
0
40
0
40
0
40
1
40
1
40
1
10
-177.85680141767699
20
89.005723551702971
30
0
10
-178.2090791734143
20
89.005723551702971
30
0
10
-178.31799831709105
20
88.75725503344583
30
0
0
SPLINE
5
347
100
AcDbEntity
8
0
100
AcDbSpline
70
0
71
2
72
6
73
3
74
0
42
0.000000001
43
0.0000000001
44
0.0000000001
40
0
40
0
40
0
40
1
40
1
40
1
10
-178.31799831709105
20
88.75725503344583
30
0
10
-178.38266697248656
20
88.610897020292754
30
0
10
-178.37756004652221
20
88.234791115713591
30
0
0
SPLINE
5
348
100
AcDbEntity
8
0
100
AcDbSpline
70
0
71
2
72
6
73
3
74
0
42
0.000000001
43
0.0000000001
44
0.0000000001
40
0
40
0
40
0
40
1
40
1
40
1
10
-178.37756004652221
20
88.234791115713591
30
0
10
-178.2856639893933
20
88.37434168238687
30
0
10
-178.1563219102307
20
88.442414955091948
30
0
0
SPLINE
5
349
100
AcDbEntity
8
0
100
AcDbSpline
70
0
71
2
72
6
73
3
74
0
42
0.000000001
43
0.0000000001
44
0.0000000001
40
0
40
0
40
0
40
1
40
1
40
1
10
-178.1563219102307
20
88.442414955091948
30
0
10
-178.02698459943969
20
88.510488823843474
30
0
10
-177.81425323805053
20
88.510488823843474
30
0
0
SPLINE
5
350
100
AcDbEntity
8
0
100
AcDbSpline
70
0
71
2
72
6
73
3
74
0
42
0.000000001
43
0.0000000001
44
0.0000000001
40
0
40
0
40
0
40
1
40
1
40
1
10
-177.81425323805053
20
88.510488823843474
30
0
10
-177.5181325944348
20
88.510488823843474
30
0
10
-177.29519214948851
20
88.301162675810332
30
0
0
SPLINE
5
351
100
AcDbEntity
8
0
100
AcDbSpline
70
0
71
2
72
6
73
3
74
0
42
0.000000001
43
0.0000000001
44
0.0000000001
40
0
40
0
40
0
40
1
40
1
40
1
10
-177.29519214948851
20
88.301162675810332
30
0
10
-177.07395401319701
20
88.090134815168852
30
0
10
-177.07395401319701
20
87.605110959005827
30
0
0
SPLINE
5
352
100
AcDbEntity
8
0
100
AcDbSpline
70
0
71
2
72
6
73
3
74
0
42
0.000000001
43
0.0000000001
44
0.0000000001
40
0
40
0
40
0
40
1
40
1
40
1
10
-177.07395401319701
20
87.605110959005827
30
0
10
-177.07395401319701
20
87.147316292715544
30
0
10
-177.2968944581433
20
86.890339211416716
30
0
0
SPLINE
5
353
100
AcDbEntity
8
0
100
AcDbSpline
70
0
71
2
72
6
73
3
74
0
42
0.000000001
43
0.0000000001
44
0.0000000001
40
0
40
0
40
0
40
1
40
1
40
1
10
-177.2968944581433
20
86.890339211416716
30
0
10
-177.52153721174437
20
86.63336153407144
30
0
10
-177.83808079084594
20
86.63336153407144
30
0
0
SPLINE
5
354
100
AcDbEntity
8
0
100
AcDbSpline
70
0
71
2
72
6
73
3
74
0
42
0.000000001
43
0.0000000001
44
0.0000000001
40
0
40
0
40
0
40
1
40
1
40
1
10
-178.3894762071057
20
87.569372013998503
30
0
10
-178.3894762071057
20
87.230706767035002
30
0
10
-178.24992504438598
20
87.067330435705657
30
0
0
SPLINE
5
355
100
AcDbEntity
8
0
100
AcDbSpline
70
0
71
2
72
6
73
3
74
0
42
0.000000001
43
0.0000000001
44
0.0000000001
40
0
40
0
40
0
40
1
40
1
40
1
10
-178.24992504438598
20
87.067330435705657
30
0
10
-178.11037388166625
20
86.903953508329863
30
0
10
-177.89424028715331
20
86.903953508329863
30
0
0
SPLINE
5
356
100
AcDbEntity
8
0
100
AcDbSpline
70
0
71
2
72
6
73
3
74
0
42
0.000000001
43
0.0000000001
44
0.0000000001
40
0
40
0
40
0
40
1
40
1
40
1
10
-177.89424028715331
20
86.903953508329863
30
0
10
-177.5708898576184
20
86.903953508329863
30
0
10
-177.45176163038451
20
87.206881002378935
30
0
0
SPLINE
5
357
100
AcDbEntity
8
0
100
AcDbSpline
70
0
71
2
72
6
73
3
74
0
42
0.000000001
43
0.0000000001
44
0.0000000001
40
0
40
0
40
0
40
1
40
1
40
1
10
-177.45176163038451
20
87.206881002378935
30
0
10
-177.38879528364379
20
87.368555621099944
30
0
10
-177.38879528364379
20
87.630638436270232
30
0
0
SPLINE
5
358
100
AcDbEntity
8
0
100
AcDbSpline
70
0
71
2
72
6
73
3
74
0
42
0.000000001
43
0.0000000001
44
0.0000000001
40
0
40
0
40
0
40
1
40
1
40
1
10
-177.38879528364379
20
87.630638436270232
30
0
10
-177.38879528364379
20
87.938671068144316
30
0
10
-177.51302805265624
20
88.100345686865325
30
0
0
SPLINE
5
359
100
AcDbEntity
8
0
100
AcDbSpline
70
0
71
2
72
6
73
3
74
0
42
0.000000001
43
0.0000000001
44
0.0000000001
40
0
40
0
40
0
40
1
40
1
40
1
10
-177.51302805265624
20
88.100345686865325
30
0
10
-177.63896313032348
20
88.260318592977995
30
0
10
-177.84999218305785
20
88.260318592977995
30
0
0
SPLINE
5
360
100
AcDbEntity
8
0
100
AcDbSpline
70
0
71
2
72
6
73
3
74
0
42
0.000000001
43
0.0000000001
44
0.0000000001
40
0
40
0
40
0
40
1
40
1
40
1
10
-177.84999218305785
20
88.260318592977995
30
0
10
-178.18014946302611
20
88.260318592977995
30
0
10
-178.31459369978148
20
87.962496832800383
30
0
0
SPLINE
5
361
100
AcDbEntity
8
0
100
AcDbSpline
70
0
71
2
72
6
73
3
74
0
42
0.000000001
43
0.0000000001
44
0.0000000001
40
0
40
0
40
0
40
1
40
1
40
1
10
-178.31459369978148
20
87.962496832800383
30
0
10
-178.3894762071057
20
87.794014767599577
30
0
10
-178.3894762071057
20
87.569372013998503
30
0
0
LINE
5
362
100
AcDbEntity
8
0
100
AcDbLine
10
-179.13318004926879
20
86.665696457815642
30
0
11
-179.42419376692015
21
86.665696457815642
31
0
0
LINE
5
363
100
AcDbEntity
8
0
100
AcDbLine
10
-179.42419376692015
20
86.665696457815642
30
0
11
-179.42419376692015
21
86.924375847769255
31
0
0
SPLINE
5
364
100
AcDbEntity
8
0
100
AcDbSpline
70
0
71
2
72
6
73
3
74
0
42
0.000000001
43
0.0000000001
44
0.0000000001
40
0
40
0
40
0
40
1
40
1
40
1
10
-179.42419376692015
20
86.924375847769255
30
0
10
-179.55353107771117
20
86.764402941656584
30
0
10
-179.69818916639525
20
86.694627360296721
30
0
0
SPLINE
5
365
100
AcDbEntity
8
0
100
AcDbSpline
70
0
71
2
72
6
73
3
74
0
42
0.000000001
43
0.0000000001
44
0.0000000001
40
0
40
0
40
0
40
1
40
1
40
1
10
-179.69818916639525
20
86.694627360296721
30
0
10
-179.84284248670775
20
86.624851778936858
30
0
10
-180.01983490308959
20
86.624851778936858
30
0
0
SPLINE
5
366
100
AcDbEntity
8
0
100
AcDbSpline
70
0
71
2
72
6
73
3
74
0
42
0.000000001
43
0.0000000001
44
0.0000000001
40
0
40
0
40
0
40
1
40
1
40
1
10
-180.01983490308959
20
86.624851778936858
30
0
10
-180.4078563722058
20
86.624851778936858
30
0
10
-180.54400291761596
20
86.895444349241728
30
0
0
SPLINE
5
367
100
AcDbEntity
8
0
100
AcDbSpline
70
0
71
2
72
6
73
3
74
0
42
0.000000001
43
0.0000000001
44
0.0000000001
40
0
40
0
40
0
40
1
40
1
40
1
10
-180.54400291761596
20
86.895444349241728
30
0
10
-180.61888065656859
20
87.043504075003142
30
0
10
-180.61888065656859
20
87.319201783133025
30
0
0
LINE
5
368
100
AcDbEntity
8
0
100
AcDbLine
10
-180.61888065656859
20
87.319201783133025
30
0
11
-180.61888065656859
21
88.488364771795744
31
0
0
LINE
5
369
100
AcDbEntity
8
0
100
AcDbLine
10
-180.61888065656859
20
88.488364771795744
30
0
11
-180.30744877180297
21
88.488364771795744
31
0
0
LINE
5
370
100
AcDbEntity
8
0
100
AcDbLine
10
-180.30744877180297
20
88.488364771795744
30
0
11
-180.30744877180297
21
87.339624122572417
31
0
0
SPLINE
5
371
100
AcDbEntity
8
0
100
AcDbSpline
70
0
71
2
72
6
73
3
74
0
42
0.000000001
43
0.0000000001
44
0.0000000001
40
0
40
0
40
0
40
1
40
1
40
1
10
-180.30744877180297
20
87.339624122572417
30
0
10
-180.30744877180297
20
87.172843769979949
30
0
10
-180.25809135755736
20
87.070733860922331
30
0
0
SPLINE
5
372
100
AcDbEntity
8
0
100
AcDbSpline
70
0
71
2
72
6
73
3
74
0
42
0.000000001
43
0.0000000001
44
0.0000000001
40
0
40
0
40
0
40
1
40
1
40
1
10
-180.25809135755736
20
87.070733860922331
30
0
10
-180.17640438398558
20
86.900550083113188
30
0
10
-179.96197548231322
20
86.900550083113188
30
0
0
SPLINE
5
373
100
AcDbEntity
8
0
100
AcDbSpline
70
0
71
2
72
6
73
3
74
0
42
0.000000001
43
0.0000000001
44
0.0000000001
40
0
40
0
40
0
40
1
40
1
40
1
10
-179.96197548231322
20
86.900550083113188
30
0
10
-179.85305633863646
20
86.900550083113188
30
0
10
-179.7832807572766
20
86.92267353911447
30
0
0
SPLINE
5
374
100
AcDbEntity
8
0
100
AcDbSpline
70
0
71
2
72
6
73
3
74
0
42
0.000000001
43
0.0000000001
44
0.0000000001
40
0
40
0
40
0
40
1
40
1
40
1
10
-179.7832807572766
20
86.92267353911447
30
0
10
-179.65734329542357
20
86.960114196730132
30
0
10
-179.5620426209851
20
87.072435573530669
30
0
0
SPLINE
5
375
100
AcDbEntity
8
0
100
AcDbSpline
70
0
71
2
72
6
73
3
74
0
42
0.000000001
43
0.0000000001
44
0.0000000001
40
0
40
0
40
0
40
1
40
1
40
1
10
-179.5620426209851
20
87.072435573530669
30
0
10
-179.48545780500609
20
87.162632898283476
30
0
10
-179.46163502058226
20
87.259637669516081
30
0
0
SPLINE
5
376
100
AcDbEntity
8
0
100
AcDbSpline
70
0
71
2
72
6
73
3
74
0
42
0.000000001
43
0.0000000001
44
0.0000000001
40
0
40
0
40
0
40
1
40
1
40
1
10
-179.46163502058226
20
87.259637669516081
30
0
10
-179.43950977644164
20
87.354940728140349
30
0
10
-179.43950977644164
20
87.533633665037627
30
0
0
LINE
5
377
100
AcDbEntity
8
0
100
AcDbLine
10
-179.43950977644164
20
87.533633665037627
30
0
11
-179.43950977644164
21
88.488364771795744
31
0
0
LINE
5
378
100
AcDbEntity
8
0
100
AcDbLine
10
-179.43950977644164
20
88.488364771795744
30
0
11
-179.13318004926879
21
88.488364771795744
31
0
0
LINE
5
379
100
AcDbEntity
8
0
100
AcDbLine
10
-179.13318004926879
20
88.488364771795744
30
0
11
-179.13318004926879
21
86.665696457815642
31
0
0
SPLINE
5
380
100
AcDbEntity
8
0
100
AcDbSpline
70
0
71
2
72
6
73
3
74
0
42
0.000000001
43
0.0000000001
44
0.0000000001
40
0
40
0
40
0
40
1
40
1
40
1
10
-181.2536701234265
20
87.916547016096587
30
0
10
-181.2672838242932
20
88.06971247572946
30
0
10
-181.33025017103392
20
88.151400641394133
30
0
0
SPLINE
5
381
100
AcDbEntity
8
0
100
AcDbSpline
70
0
71
2
72
6
73
3
74
0
42
0.000000001
43
0.0000000001
44
0.0000000001
40
0
40
0
40
0
40
1
40
1
40
1
10
-181.33025017103392
20
88.151400641394133
30
0
10
-181.44597378095824
20
88.299460963201994
30
0
10
-181.73188534101683
20
88.299460963201994
30
0
0
SPLINE
5
382
100
AcDbEntity
8
0
100
AcDbSpline
70
0
71
2
72
6
73
3
74
0
42
0.000000001
43
0.0000000001
44
0.0000000001
40
0
40
0
40
0
40
1
40
1
40
1
10
-181.73188534101683
20
88.299460963201994
30
0
10
-181.90206852277953
20
88.299460963201994
30
0
10
-182.03141060194213
20
88.226281956625456
30
0
0
SPLINE
5
383
100
AcDbEntity
8
0
100
AcDbSpline
70
0
71
2
72
6
73
3
74
0
42
0.000000001
43
0.0000000001
44
0.0000000001
40
0
40
0
40
0
40
1
40
1
40
1
10
-182.03141060194213
20
88.226281956625456
30
0
10
-182.16074791273314
20
88.151400641394133
30
0
10
-182.16074791273314
20
87.996533469152922
30
0
0
SPLINE
5
384
100
AcDbEntity
8
0
100
AcDbSpline
70
0
71
2
72
6
73
3
74
0
42
0.000000001
43
0.0000000001
44
0.0000000001
40
0
40
0
40
0
40
1
40
1
40
1
10
-182.16074791273314
20
87.996533469152922
30
0
10
-182.16074791273314
20
87.879106954527373
30
0
10
-182.05693569502074
20
87.817840532255644
30
0
0
SPLINE
5
385
100
AcDbEntity
8
0
100
AcDbSpline
70
0
71
2
72
6
73
3
74
0
42
0.000000001
43
0.0000000001
44
0.0000000001
40
0
40
0
40
0
40
1
40
1
40
1
10
-182.05693569502074
20
87.817840532255644
30
0
10
-181.99056473097045
20
87.780399874639983
30
0
10
-181.79485168775756
20
87.731046632719512
30
0
0
LINE
5
386
100
AcDbEntity
8
0
100
AcDbLine
10
-181.79485168775756
20
87.731046632719512
30
0
11
-181.55148830732543
21
87.669780806494231
31
0
0
SPLINE
5
387
100
AcDbEntity
8
0
100
AcDbSpline
70
0
71
2
72
6
73
3
74
0
42
0.000000001
43
0.0000000001
44
0.0000000001
40
0
40
0
40
0
40
1
40
1
40
1
10
-181.55148830732543
20
87.669780806494231
30
0
10
-181.31833877882201
20
87.611918405485625
30
0
10
-181.20771732649047
20
87.540441111517424
30
0
0
SPLINE
5
388
100
AcDbEntity
8
0
100
AcDbSpline
70
0
71
2
72
6
73
3
74
0
42
0.000000001
43
0.0000000001
44
0.0000000001
40
0
40
0
40
0
40
1
40
1
40
1
10
-181.20771732649047
20
87.540441111517424
30
0
10
-181.01030674299437
20
87.41620655436563
30
0
10
-181.01030674299437
20
87.196669534636015
30
0
0
SPLINE
5
389
100
AcDbEntity
8
0
100
AcDbSpline
70
0
71
2
72
6
73
3
74
0
42
0.000000001
43
0.0000000001
44
0.0000000001
40
0
40
0
40
0
40
1
40
1
40
1
10
-181.01030674299437
20
87.196669534636015
30
0
10
-181.01030674299437
20
86.937990144682402
30
0
10
-181.19580593427855
20
86.778017834616179
30
0
0
SPLINE
5
390
100
AcDbEntity
8
0
100
AcDbSpline
70
0
71
2
72
6
73
3
74
0
42
0.000000001
43
0.0000000001
44
0.0000000001
40
0
40
0
40
0
40
1
40
1
40
1
10
-181.19580593427855
20
86.778017834616179
30
0
10
-181.38300743421752
20
86.618044928503508
30
0
10
-181.6978487046643
20
86.618044928503508
30
0
0
SPLINE
5
391
100
AcDbEntity
8
0
100
AcDbSpline
70
0
71
2
72
6
73
3
74
0
42
0.000000001
43
0.0000000001
44
0.0000000001
40
0
40
0
40
0
40
1
40
1
40
1
10
-181.6978487046643
20
86.618044928503508
30
0
10
-182.10969295820433
20
86.618044928503508
30
0
10
-182.29178753217894
20
86.859706000280852
30
0
0
SPLINE
5
392
100
AcDbEntity
8
0
100
AcDbSpline
70
0
71
2
72
6
73
3
74
0
42
0.000000001
43
0.0000000001
44
0.0000000001
40
0
40
0
40
0
40
1
40
1
40
1
10
-182.29178753217894
20
86.859706000280852
30
0
10
-182.40581360182006
20
87.012870863867278
30
0
10
-182.40240898451049
20
87.189862088156218
30
0
0
LINE
5
393
100
AcDbEntity
8
0
100
AcDbLine
10
-182.40240898451049
20
87.189862088156218
30
0
11
-182.1130975755139
21
87.189862088156218
31
0
0
SPLINE
5
394
100
AcDbEntity
8
0
100
AcDbSpline
70
0
71
2
72
6
73
3
74
0
42
0.000000001
43
0.0000000001
44
0.0000000001
40
0
40
0
40
0
40
1
40
1
40
1
10
-182.1130975755139
20
87.189862088156218
30
0
10
-182.10458603223998
20
87.086049870443816
30
0
10
-182.03991737684447
20
87.000958279562468
30
0
0
SPLINE
5
395
100
AcDbEntity
8
0
100
AcDbSpline
70
0
71
2
72
6
73
3
74
0
42
0.000000001
43
0.0000000001
44
0.0000000001
40
0
40
0
40
0
40
1
40
1
40
1
10
-182.03991737684447
20
87.000958279562468
30
0
10
-181.93440285047728
20
86.880127743673796
30
0
10
-181.67402115186889
20
86.880127743673796
30
0
0
SPLINE
5
396
100
AcDbEntity
8
0
100
AcDbSpline
70
0
71
2
72
6
73
3
74
0
42
0.000000001
43
0.0000000001
44
0.0000000001
40
0
40
0
40
0
40
1
40
1
40
1
10
-181.67402115186889
20
86.880127743673796
30
0
10
-181.50043335279662
20
86.880127743673796
30
0
10
-181.4102396043225
20
86.946499303770537
30
0
0
SPLINE
5
397
100
AcDbEntity
8
0
100
AcDbSpline
70
0
71
2
72
6
73
3
74
0
42
0.000000001
43
0.0000000001
44
0.0000000001
40
0
40
0
40
0
40
1
40
1
40
1
10
-181.4102396043225
20
86.946499303770537
30
0
10
-181.32174339613158
20
87.012870863867278
30
0
10
-181.32174339613158
20
87.12178881545114
30
0
0
SPLINE
5
398
100
AcDbEntity
8
0
100
AcDbSpline
70
0
71
2
72
6
73
3
74
0
42
0.000000001
43
0.0000000001
44
0.0000000001
40
0
40
0
40
0
40
1
40
1
40
1
10
-181.32174339613158
20
87.12178881545114
30
0
10
-181.32174339613158
20
87.240917638731474
30
0
10
-181.43916931471068
20
87.312394932699675
30
0
0
SPLINE
5
399
100
AcDbEntity
8
0
100
AcDbSpline
70
0
71
2
72
6
73
3
74
0
42
0.000000001
43
0.0000000001
44
0.0000000001
40
0
40
0
40
0
40
1
40
1
40
1
10
-181.43916931471068
20
87.312394932699675
30
0
10
-181.50724258741576
20
87.354940728140349
30
0
10
-181.63998451551635
20
87.387275651884551
30
0
0
LINE
5
400
100
AcDbEntity
8
0
100
AcDbLine
10
-181.63998451551635
20
87.387275651884551
30
0
11
-181.8425020249768
21
87.436628893805022
31
0
0
SPLINE
5
401
100
AcDbEntity
8
0
100
AcDbSpline
70
0
71
2
72
6
73
3
74
0
42
0.000000001
43
0.0000000001
44
0.0000000001
40
0
40
0
40
0
40
1
40
1
40
1
10
-181.8425020249768
20
87.436628893805022
30
0
10
-182.17265930494506
20
87.516615346861357
30
0
10
-182.28498306593139
20
87.591496066046233
30
0
0
SPLINE
5
402
100
AcDbEntity
8
0
100
AcDbSpline
70
0
71
2
72
6
73
3
74
0
42
0.000000001
43
0.0000000001
44
0.0000000001
40
0
40
0
40
0
40
1
40
1
40
1
10
-182.28498306593139
20
87.591496066046233
30
0
10
-182.46367302259642
20
87.70892317671823
30
0
10
-182.46367302259642
20
87.960795120192046
30
0
0
SPLINE
5
403
100
AcDbEntity
8
0
100
AcDbSpline
70
0
71
2
72
6
73
3
74
0
42
0.000000001
43
0.0000000001
44
0.0000000001
40
0
40
0
40
0
40
1
40
1
40
1
10
-182.46367302259642
20
87.960795120192046
30
0
10
-182.46367302259642
20
88.204157904577727
30
0
10
-182.27817383131224
20
88.381149128866667
30
0
0
SPLINE
5
404
100
AcDbEntity
8
0
100
AcDbSpline
70
0
71
2
72
6
73
3
74
0
42
0.000000001
43
0.0000000001
44
0.0000000001
40
0
40
0
40
0
40
1
40
1
40
1
10
-182.27817383131224
20
88.381149128866667
30
0
10
-182.09437694868285
20
88.558140353155608
30
0
10
-181.71656933149535
20
88.558140353155608
30
0
0
SPLINE
5
405
100
AcDbEntity
8
0
100
AcDbSpline
70
0
71
2
72
6
73
3
74
0
42
0.000000001
43
0.0000000001
44
0.0000000001
40
0
40
0
40
0
40
1
40
1
40
1
10
-181.71656933149535
20
88.558140353155608
30
0
10
-181.30982723554808
20
88.558140353155608
30
0
10
-181.13964405378539
20
88.37434168238687
30
0
0
SPLINE
5
406
100
AcDbEntity
8
0
100
AcDbSpline
70
0
71
2
72
6
73
3
74
0
42
0.000000001
43
0.0000000001
44
0.0000000001
40
0
40
0
40
0
40
1
40
1
40
1
10
-181.13964405378539
20
88.37434168238687
30
0
10
-180.97116318067748
20
88.188841299009795
30
0
10
-180.95925178846556
20
87.916547016096587
30
0
0
LINE
5
407
100
AcDbEntity
8
0
100
AcDbLine
10
-180.95925178846556
20
87.916547016096587
30
0
11
-181.2536701234265
21
87.916547016096587
31
0
0
LINE
5
408
100
AcDbEntity
8
0
100
AcDbLine
10
-184.62160435041625
20
85.988364771795744
30
0
11
-185.22235241255004
21
87.457051233244414
31
0
0
LINE
5
409
100
AcDbEntity
8
0
100
AcDbLine
10
-185.22235241255004
20
87.457051233244414
30
0
11
-184.94495239576537
21
87.457051233244414
31
0
0
LINE
5
410
100
AcDbEntity
8
0
100
AcDbLine
10
-184.94495239576537
20
87.457051233244414
30
0
11
-184.49226227125365
21
86.330434636068816
31
0
0
LINE
5
411
100
AcDbEntity
8
0
100
AcDbLine
10
-184.49226227125365
20
86.330434636068816
30
0
11
-184.0412792237683
21
87.457051233244414
31
0
0
LINE
5
412
100
AcDbEntity
8
0
100
AcDbLine
10
-184.0412792237683
20
87.457051233244414
30
0
11
-183.76217689832885
21
87.457051233244414
31
0
0
LINE
5
413
100
AcDbEntity
8
0
100
AcDbLine
10
-183.76217689832885
20
87.457051233244414
30
0
11
-184.35952034315306
21
85.988364771795744
31
0
0
LINE
5
414
100
AcDbEntity
8
0
100
AcDbLine
10
-184.35952034315306
20
85.988364771795744
30
0
11
-184.62160435041625
21
85.988364771795744
31
0
0
SPLINE
5
415
100
AcDbEntity
8
0
100
AcDbSpline
70
0
71
2
72
6
73
3
74
0
42
0.000000001
43
0.0000000001
44
0.0000000001
40
0
40
0
40
0
40
1
40
1
40
1
10
-185.48273411115844
20
88.844048932981963
30
0
10
-185.60016479810912
20
88.823626593542571
30
0
10
-185.64781513532836
20
88.67897088904428
30
0
0
SPLINE
5
416
100
AcDbEntity
8
0
100
AcDbSpline
70
0
71
2
72
6
73
3
74
0
42
0.000000001
43
0.0000000001
44
0.0000000001
40
0
40
0
40
0
40
1
40
1
40
1
10
-185.64781513532836
20
88.67897088904428
30
0
10
-185.67334022840697
20
88.602387861204619
30
0
10
-185.67334022840697
20
88.530910567236418
30
0
0
SPLINE
5
417
100
AcDbEntity
8
0
100
AcDbSpline
70
0
71
2
72
6
73
3
74
0
42
0.000000001
43
0.0000000001
44
0.0000000001
40
0
40
0
40
0
40
1
40
1
40
1
10
-185.67334022840697
20
88.530910567236418
30
0
10
-185.67334022840697
20
88.518997982931609
30
0
10
-185.67164268812377
20
88.508787111235137
30
0
0
SPLINE
5
418
100
AcDbEntity
8
0
100
AcDbSpline
70
0
71
2
72
6
73
3
74
0
42
0.000000001
43
0.0000000001
44
0.0000000001
40
0
40
0
40
0
40
1
40
1
40
1
10
-185.67164268812377
20
88.508787111235137
30
0
10
-185.67164268812377
20
88.500277356100554
30
0
10
-185.6682380708142
20
88.488364771795744
30
0
0
LINE
5
419
100
AcDbEntity
8
0
100
AcDbLine
10
-185.6682380708142
20
88.488364771795744
30
0
11
-185.48273411115844
21
88.488364771795744
31
0
0
LINE
5
420
100
AcDbEntity
8
0
100
AcDbLine
10
-185.48273411115844
20
88.488364771795744
30
0
11
-185.48273411115844
21
88.117364005041594
31
0
0
LINE
5
421
100
AcDbEntity
8
0
100
AcDbLine
10
-185.48273411115844
20
88.117364005041594
30
0
11
-185.84692802747924
21
88.117364005041594
31
0
0
LINE
5
422
100
AcDbEntity
8
0
100
AcDbLine
10
-185.84692802747924
20
88.117364005041594
30
0
11
-185.84692802747924
21
88.461135581923003
31
0
0
SPLINE
5
423
100
AcDbEntity
8
0
100
AcDbSpline
70
0
71
2
72
6
73
3
74
0
42
0.000000001
43
0.0000000001
44
0.0000000001
40
0
40
0
40
0
40
1
40
1
40
1
10
-185.84692802747924
20
88.461135581923003
30
0
10
-185.84692802747924
20
88.663654283476347
30
0
10
-185.76524105390746
20
88.816819743109221
30
0
0
SPLINE
5
424
100
AcDbEntity
8
0
100
AcDbSpline
70
0
71
2
72
6
73
3
74
0
42
0.000000001
43
0.0000000001
44
0.0000000001
40
0
40
0
40
0
40
1
40
1
40
1
10
-185.76524105390746
20
88.816819743109221
30
0
10
-185.68355408033568
20
88.969985202742095
30
0
10
-185.48273411115844
20
89.005723551702971
30
0
0
LINE
5
425
100
AcDbEntity
8
0
100
AcDbLine
10
-185.48273411115844
20
89.005723551702971
30
0
11
-185.48273411115844
21
88.844048932981963
31
0
0
LINE
5
426
100
AcDbEntity
8
0
100
AcDbLine
10
-188.19376316389281
20
85.988364771795744
30
0
11
-188.7945112260266
21
87.457051233244414
31
0
0
LINE
5
427
100
AcDbEntity
8
0
100
AcDbLine
10
-188.7945112260266
20
87.457051233244414
30
0
11
-188.51711120924193
21
87.457051233244414
31
0
0
LINE
5
428
100
AcDbEntity
8
0
100
AcDbLine
10
-188.51711120924193
20
87.457051233244414
30
0
11
-188.06442108473021
21
86.330434636068816
31
0
0
LINE
5
429
100
AcDbEntity
8
0
100
AcDbLine
10
-188.06442108473021
20
86.330434636068816
30
0
11
-187.61343803724486
21
87.457051233244414
31
0
0
LINE
5
430
100
AcDbEntity
8
0
100
AcDbLine
10
-187.61343803724486
20
87.457051233244414
30
0
11
-187.33433571180541
21
87.457051233244414
31
0
0
LINE
5
431
100
AcDbEntity
8
0
100
AcDbLine
10
-187.33433571180541
20
87.457051233244414
30
0
11
-187.93167915662963
21
85.988364771795744
31
0
0
LINE
5
432
100
AcDbEntity
8
0
100
AcDbLine
10
-187.93167915662963
20
85.988364771795744
30
0
11
-188.19376316389281
21
85.988364771795744
31
0
0
ENDSEC
0
SECTION
2
OBJECTS
0
DICTIONARY
5
C
100
AcDbDictionary
3
ACAD_GROUP
350
D
3
ACAD_MLINESTYLE
350
17
0
DICTIONARY
5
D
100
AcDbDictionary
0
DICTIONARY
5
1A
330
C
100
AcDbDictionary
0
DICTIONARY
5
17
100
AcDbDictionary
0
ENDSEC
0
EOF
