%TF.GenerationSoftware,KiCad,Pcbnew,(7.0.0-0)*%
%TF.CreationDate,2023-06-06T22:29:39-07:00*%
%TF.ProjectId,popstar_v4.1_no_flex,706f7073-7461-4725-9f76-342e315f6e6f,rev?*%
%TF.SameCoordinates,Original*%
%TF.FileFunction,Profile,NP*%
%FSLAX46Y46*%
G04 Gerber Fmt 4.6, Leading zero omitted, Abs format (unit mm)*
G04 Created by KiCad (PCBNEW (7.0.0-0)) date 2023-06-06 22:29:39*
%MOMM*%
%LPD*%
G01*
G04 APERTURE LIST*
%TA.AperFunction,Profile*%
%ADD10C,0.200000*%
%TD*%
%TA.AperFunction,Profile*%
%ADD11C,0.100000*%
%TD*%
G04 APERTURE END LIST*
D10*
X227145492Y-125274931D02*
G75*
G03*
X228615242Y-126474920I1469708J300031D01*
G01*
X297614554Y-126474920D02*
X298114554Y-126474920D01*
X229526739Y-32275077D02*
X271568344Y-32275077D01*
X121234445Y-33475075D02*
G75*
G03*
X132991986Y-33475075I5878770J1199999D01*
G01*
X296114555Y-124974918D02*
X296114555Y-124725079D01*
X77223143Y-32275060D02*
G75*
G03*
X75753451Y-33475080I-43J-1499940D01*
G01*
X59377326Y-124724922D02*
G75*
G03*
X53177334Y-124724918I-3099996J-8D01*
G01*
X296114646Y-124725079D02*
G75*
G03*
X289914554Y-124725077I-3100046J79D01*
G01*
X216299434Y-33475088D02*
G75*
G03*
X214829801Y-32275076I-1469634J-299912D01*
G01*
X288414553Y-126474954D02*
G75*
G03*
X289914554Y-124974922I47J1499954D01*
G01*
X121234432Y-33475078D02*
G75*
G03*
X119764751Y-32275076I-1469632J-299922D01*
G01*
X311991501Y-126474921D02*
X298114554Y-126474920D01*
X33299661Y-54979227D02*
X33299661Y-36275076D01*
X120676245Y-126474912D02*
G75*
G03*
X122145939Y-125274920I155J1499812D01*
G01*
X289914554Y-124725077D02*
X289914554Y-124974922D01*
X314791496Y-101446289D02*
G75*
G03*
X315991494Y-99976582I-299996J1469689D01*
G01*
X227145600Y-125274909D02*
G75*
G03*
X215387998Y-125274921I-5878800J-1199991D01*
G01*
X311991501Y-126474901D02*
G75*
G03*
X315991501Y-122474917I-1J4000001D01*
G01*
X59377380Y-124974918D02*
G75*
G03*
X60877333Y-126474920I1499920J-82D01*
G01*
X288414553Y-126474920D02*
X228615242Y-126474920D01*
X33300057Y-100253970D02*
G75*
G03*
X34300010Y-101668186I1499843J-130D01*
G01*
X314791852Y-56448952D02*
G75*
G03*
X315991849Y-54979224I-299952J1469652D01*
G01*
X273038039Y-33475076D02*
G75*
G03*
X284795589Y-33475076I5878775J1199999D01*
G01*
X315991493Y-114673503D02*
X315991501Y-122474917D01*
X51677333Y-126474933D02*
G75*
G03*
X53177333Y-124974921I-33J1500033D01*
G01*
X133903567Y-125274904D02*
G75*
G03*
X135373185Y-126474921I1469633J299904D01*
G01*
X63995899Y-33475080D02*
G75*
G03*
X75753451Y-33475080I5878776J1200002D01*
G01*
X134461681Y-32275077D02*
X214829801Y-32275076D01*
X33299980Y-122474916D02*
G75*
G03*
X37299987Y-126474920I4000020J16D01*
G01*
X33299987Y-122474916D02*
X33299995Y-114396104D01*
X315991813Y-69676179D02*
X315991494Y-99976582D01*
X315991849Y-36275075D02*
X315991849Y-54979224D01*
X229526739Y-32275055D02*
G75*
G03*
X228057046Y-33475078I-39J-1499945D01*
G01*
X34300000Y-112981897D02*
G75*
G03*
X34300010Y-101668186I-2000000J5656857D01*
G01*
X51177333Y-126474920D02*
X37299987Y-126474920D01*
X314791847Y-56448925D02*
G75*
G03*
X314791816Y-68206468I1199953J-5878775D01*
G01*
X63995832Y-33475094D02*
G75*
G03*
X62526206Y-32275079I-1469632J-299906D01*
G01*
X34499961Y-68206378D02*
G75*
G03*
X33300045Y-69676086I300139J-1469722D01*
G01*
X59377334Y-124974918D02*
X59377334Y-124724922D01*
X37299662Y-32275076D02*
X62526206Y-32275079D01*
X286265282Y-32275076D02*
X311991849Y-32275076D01*
X77223143Y-32275082D02*
X119764751Y-32275076D01*
X34499967Y-68206410D02*
G75*
G03*
X34499661Y-56448920I-1200308J5878714D01*
G01*
X213918303Y-126474920D02*
X135373185Y-126474921D01*
X286265282Y-32275115D02*
G75*
G03*
X284795590Y-33475076I-182J-1499785D01*
G01*
X33299685Y-54979227D02*
G75*
G03*
X34499661Y-56448920I1499915J-73D01*
G01*
X51677333Y-126474920D02*
X51177333Y-126474920D01*
X315991821Y-69676179D02*
G75*
G03*
X314791816Y-68206470I-1499921J79D01*
G01*
X37299662Y-32275071D02*
G75*
G03*
X33299661Y-36275076I-2J-3999999D01*
G01*
X53177334Y-124724918D02*
X53177333Y-124974921D01*
X315991824Y-36275075D02*
G75*
G03*
X311991849Y-32275076I-4000124J-125D01*
G01*
X315991510Y-114673503D02*
G75*
G03*
X314791490Y-113203812I-1500110J-97D01*
G01*
X134461681Y-32275112D02*
G75*
G03*
X132991987Y-33475075I-181J-1499788D01*
G01*
X296114580Y-124974918D02*
G75*
G03*
X297614554Y-126474920I1500020J18D01*
G01*
X273038074Y-33475069D02*
G75*
G03*
X271568344Y-32275077I-1469874J-300231D01*
G01*
X133903491Y-125274920D02*
G75*
G03*
X122145939Y-125274920I-5878776J-1199999D01*
G01*
X33300011Y-100253970D02*
X33300045Y-69676086D01*
X34299995Y-112981883D02*
G75*
G03*
X33299995Y-114396104I500005J-1414217D01*
G01*
X120676245Y-126474920D02*
X60877333Y-126474920D01*
X216299552Y-33475064D02*
G75*
G03*
X228057045Y-33475078I5878748J1199964D01*
G01*
X213918303Y-126474987D02*
G75*
G03*
X215387997Y-125274921I-3J1499987D01*
G01*
X314791492Y-101446268D02*
G75*
G03*
X314791490Y-113203811I1200008J-5878772D01*
G01*
D11*
%TO.C,D12*%
X281099999Y-111797157D02*
X281099999Y-113202841D01*
X280194452Y-113999999D02*
X278605548Y-113999999D01*
X278605548Y-111000000D02*
X280194453Y-111000000D01*
X277700001Y-113202841D02*
X277700001Y-111797157D01*
X281100000Y-113202841D02*
G75*
G03*
X281149485Y-113419719I499989J-2D01*
G01*
X280446711Y-114068298D02*
G75*
G03*
X281149483Y-113419718I252259J431700D01*
G01*
X281149484Y-111580279D02*
G75*
G03*
X281099999Y-111797156I450505J-216876D01*
G01*
X281149484Y-111580279D02*
G75*
G03*
X280446711Y-110931701I-450514J216878D01*
G01*
X280194453Y-111000000D02*
G75*
G03*
X280446711Y-110931701I-3J500009D01*
G01*
X280446711Y-114068298D02*
G75*
G03*
X280194452Y-113999999I-252261J-431710D01*
G01*
X278353289Y-110931700D02*
G75*
G03*
X278605547Y-110999999I252261J431710D01*
G01*
X278605548Y-114000000D02*
G75*
G03*
X278353290Y-114068298I2J-500010D01*
G01*
X277650520Y-113419721D02*
G75*
G03*
X278353289Y-114068296I450510J-216879D01*
G01*
X277650516Y-113419719D02*
G75*
G03*
X277700001Y-113202842I-450866J216959D01*
G01*
X278353289Y-110931700D02*
G75*
G03*
X277650516Y-111580279I-252259J-431700D01*
G01*
X277700013Y-111797157D02*
G75*
G03*
X277650516Y-111580279I-500513J-143D01*
G01*
%TO.C,D1*%
X71549999Y-111797157D02*
X71549999Y-113202841D01*
X70644452Y-113999999D02*
X69055548Y-113999999D01*
X69055548Y-111000000D02*
X70644453Y-111000000D01*
X68150001Y-113202841D02*
X68150001Y-111797157D01*
X71550000Y-113202841D02*
G75*
G03*
X71599485Y-113419719I499989J-2D01*
G01*
X70896711Y-114068298D02*
G75*
G03*
X71599483Y-113419718I252259J431700D01*
G01*
X71599484Y-111580279D02*
G75*
G03*
X71549999Y-111797156I450505J-216876D01*
G01*
X71599484Y-111580279D02*
G75*
G03*
X70896711Y-110931701I-450514J216878D01*
G01*
X70644453Y-111000000D02*
G75*
G03*
X70896711Y-110931701I-3J500009D01*
G01*
X70896711Y-114068298D02*
G75*
G03*
X70644452Y-113999999I-252261J-431710D01*
G01*
X68803289Y-110931700D02*
G75*
G03*
X69055547Y-110999999I252261J431710D01*
G01*
X69055548Y-114000000D02*
G75*
G03*
X68803290Y-114068298I2J-500010D01*
G01*
X68100520Y-113419721D02*
G75*
G03*
X68803289Y-114068296I450510J-216879D01*
G01*
X68100516Y-113419719D02*
G75*
G03*
X68150001Y-113202842I-450866J216959D01*
G01*
X68803289Y-110931700D02*
G75*
G03*
X68100516Y-111580279I-252259J-431700D01*
G01*
X68150013Y-111797157D02*
G75*
G03*
X68100516Y-111580279I-500513J-143D01*
G01*
%TO.C,D2*%
X65449999Y-115897157D02*
X65449999Y-117302841D01*
X64544452Y-118099999D02*
X62955548Y-118099999D01*
X62955548Y-115100000D02*
X64544453Y-115100000D01*
X62050001Y-117302841D02*
X62050001Y-115897157D01*
X65450000Y-117302841D02*
G75*
G03*
X65499485Y-117519719I499989J-2D01*
G01*
X64796711Y-118168298D02*
G75*
G03*
X65499483Y-117519718I252259J431700D01*
G01*
X65499484Y-115680279D02*
G75*
G03*
X65449999Y-115897156I450505J-216876D01*
G01*
X65499484Y-115680279D02*
G75*
G03*
X64796711Y-115031701I-450514J216878D01*
G01*
X64544453Y-115100000D02*
G75*
G03*
X64796711Y-115031701I-3J500009D01*
G01*
X64796711Y-118168298D02*
G75*
G03*
X64544452Y-118099999I-252261J-431710D01*
G01*
X62703289Y-115031700D02*
G75*
G03*
X62955547Y-115099999I252261J431710D01*
G01*
X62955548Y-118100000D02*
G75*
G03*
X62703290Y-118168298I2J-500010D01*
G01*
X62000520Y-117519721D02*
G75*
G03*
X62703289Y-118168296I450510J-216879D01*
G01*
X62000516Y-117519719D02*
G75*
G03*
X62050001Y-117302842I-450866J216959D01*
G01*
X62703289Y-115031700D02*
G75*
G03*
X62000516Y-115680279I-252259J-431700D01*
G01*
X62050013Y-115897157D02*
G75*
G03*
X62000516Y-115680279I-500513J-143D01*
G01*
%TO.C,D4*%
X74702843Y-124199999D02*
X73297159Y-124199999D01*
X72500001Y-123294452D02*
X72500001Y-121705548D01*
X75500000Y-121705548D02*
X75500000Y-123294453D01*
X73297159Y-120800001D02*
X74702843Y-120800001D01*
X73297159Y-124200000D02*
G75*
G03*
X73080281Y-124249485I-2J-499989D01*
G01*
X72431702Y-123546711D02*
G75*
G03*
X73080282Y-124249483I431700J-252259D01*
G01*
X74919721Y-124249484D02*
G75*
G03*
X74702844Y-124199999I-216876J-450505D01*
G01*
X74919721Y-124249484D02*
G75*
G03*
X75568299Y-123546711I216878J450514D01*
G01*
X75500000Y-123294453D02*
G75*
G03*
X75568299Y-123546711I500009J3D01*
G01*
X72431702Y-123546711D02*
G75*
G03*
X72500001Y-123294452I-431710J252261D01*
G01*
X75568300Y-121453289D02*
G75*
G03*
X75500001Y-121705547I431710J-252261D01*
G01*
X72500000Y-121705548D02*
G75*
G03*
X72431702Y-121453290I-500010J-2D01*
G01*
X73080279Y-120750520D02*
G75*
G03*
X72431704Y-121453289I-216879J-450510D01*
G01*
X73080281Y-120750516D02*
G75*
G03*
X73297158Y-120800001I216959J450866D01*
G01*
X75568300Y-121453289D02*
G75*
G03*
X74919721Y-120750516I-431700J252259D01*
G01*
X74702843Y-120800013D02*
G75*
G03*
X74919721Y-120750516I-143J500513D01*
G01*
%TO.C,D5*%
X74200001Y-117302843D02*
X74200001Y-115897159D01*
X75105548Y-115100001D02*
X76694452Y-115100001D01*
X76694452Y-118100000D02*
X75105547Y-118100000D01*
X77599999Y-115897159D02*
X77599999Y-117302843D01*
X74200000Y-115897159D02*
G75*
G03*
X74150515Y-115680281I-499989J2D01*
G01*
X74853289Y-115031702D02*
G75*
G03*
X74150517Y-115680282I-252259J-431700D01*
G01*
X74150516Y-117519721D02*
G75*
G03*
X74200001Y-117302844I-450505J216876D01*
G01*
X74150516Y-117519721D02*
G75*
G03*
X74853289Y-118168299I450514J-216878D01*
G01*
X75105547Y-118100000D02*
G75*
G03*
X74853289Y-118168299I3J-500009D01*
G01*
X74853289Y-115031702D02*
G75*
G03*
X75105548Y-115100001I252261J431710D01*
G01*
X76946711Y-118168300D02*
G75*
G03*
X76694453Y-118100001I-252261J-431710D01*
G01*
X76694452Y-115100000D02*
G75*
G03*
X76946710Y-115031702I-2J500010D01*
G01*
X77649480Y-115680279D02*
G75*
G03*
X76946711Y-115031704I-450510J216879D01*
G01*
X77649484Y-115680281D02*
G75*
G03*
X77599999Y-115897158I450866J-216959D01*
G01*
X76946711Y-118168300D02*
G75*
G03*
X77649484Y-117519721I252259J431700D01*
G01*
X77599987Y-117302843D02*
G75*
G03*
X77649484Y-117519721I500513J143D01*
G01*
%TO.C,D8*%
X274597157Y-120800001D02*
X276002841Y-120800001D01*
X276799999Y-121705548D02*
X276799999Y-123294452D01*
X273800000Y-123294452D02*
X273800000Y-121705547D01*
X276002841Y-124199999D02*
X274597157Y-124199999D01*
X276002841Y-120800000D02*
G75*
G03*
X276219719Y-120750515I2J499989D01*
G01*
X276868298Y-121453289D02*
G75*
G03*
X276219718Y-120750517I-431700J252259D01*
G01*
X274380279Y-120750516D02*
G75*
G03*
X274597156Y-120800001I216876J450505D01*
G01*
X274380279Y-120750516D02*
G75*
G03*
X273731701Y-121453289I-216878J-450514D01*
G01*
X273800000Y-121705547D02*
G75*
G03*
X273731701Y-121453289I-500009J-3D01*
G01*
X276868298Y-121453289D02*
G75*
G03*
X276799999Y-121705548I431710J-252261D01*
G01*
X273731700Y-123546711D02*
G75*
G03*
X273799999Y-123294453I-431710J252261D01*
G01*
X276800000Y-123294452D02*
G75*
G03*
X276868298Y-123546710I500010J2D01*
G01*
X276219721Y-124249480D02*
G75*
G03*
X276868296Y-123546711I216879J450510D01*
G01*
X276219719Y-124249484D02*
G75*
G03*
X276002842Y-124199999I-216959J-450866D01*
G01*
X273731700Y-123546711D02*
G75*
G03*
X274380279Y-124249484I431700J-252259D01*
G01*
X274597157Y-124199987D02*
G75*
G03*
X274380279Y-124249484I143J-500513D01*
G01*
%TO.C,D7*%
X275099999Y-115897157D02*
X275099999Y-117302841D01*
X274194452Y-118099999D02*
X272605548Y-118099999D01*
X272605548Y-115100000D02*
X274194453Y-115100000D01*
X271700001Y-117302841D02*
X271700001Y-115897157D01*
X275100000Y-117302841D02*
G75*
G03*
X275149485Y-117519719I499989J-2D01*
G01*
X274446711Y-118168298D02*
G75*
G03*
X275149483Y-117519718I252259J431700D01*
G01*
X275149484Y-115680279D02*
G75*
G03*
X275099999Y-115897156I450505J-216876D01*
G01*
X275149484Y-115680279D02*
G75*
G03*
X274446711Y-115031701I-450514J216878D01*
G01*
X274194453Y-115100000D02*
G75*
G03*
X274446711Y-115031701I-3J500009D01*
G01*
X274446711Y-118168298D02*
G75*
G03*
X274194452Y-118099999I-252261J-431710D01*
G01*
X272353289Y-115031700D02*
G75*
G03*
X272605547Y-115099999I252261J431710D01*
G01*
X272605548Y-118100000D02*
G75*
G03*
X272353290Y-118168298I2J-500010D01*
G01*
X271650520Y-117519721D02*
G75*
G03*
X272353289Y-118168296I450510J-216879D01*
G01*
X271650516Y-117519719D02*
G75*
G03*
X271700001Y-117302842I-450866J216959D01*
G01*
X272353289Y-115031700D02*
G75*
G03*
X271650516Y-115680279I-252259J-431700D01*
G01*
X271700013Y-115897157D02*
G75*
G03*
X271650516Y-115680279I-500513J-143D01*
G01*
%TO.C,D11*%
X278697157Y-116700001D02*
X280102841Y-116700001D01*
X280899999Y-117605548D02*
X280899999Y-119194452D01*
X277900000Y-119194452D02*
X277900000Y-117605547D01*
X280102841Y-120099999D02*
X278697157Y-120099999D01*
X280102841Y-116700000D02*
G75*
G03*
X280319719Y-116650515I2J499989D01*
G01*
X280968298Y-117353289D02*
G75*
G03*
X280319718Y-116650517I-431700J252259D01*
G01*
X278480279Y-116650516D02*
G75*
G03*
X278697156Y-116700001I216876J450505D01*
G01*
X278480279Y-116650516D02*
G75*
G03*
X277831701Y-117353289I-216878J-450514D01*
G01*
X277900000Y-117605547D02*
G75*
G03*
X277831701Y-117353289I-500009J-3D01*
G01*
X280968298Y-117353289D02*
G75*
G03*
X280899999Y-117605548I431710J-252261D01*
G01*
X277831700Y-119446711D02*
G75*
G03*
X277899999Y-119194453I-431710J252261D01*
G01*
X280900000Y-119194452D02*
G75*
G03*
X280968298Y-119446710I500010J2D01*
G01*
X280319721Y-120149480D02*
G75*
G03*
X280968296Y-119446711I216879J450510D01*
G01*
X280319719Y-120149484D02*
G75*
G03*
X280102842Y-120099999I-216959J-450866D01*
G01*
X277831700Y-119446711D02*
G75*
G03*
X278480279Y-120149484I431700J-252259D01*
G01*
X278697157Y-120099987D02*
G75*
G03*
X278480279Y-120149484I143J-500513D01*
G01*
%TO.C,D3*%
X65047157Y-120800001D02*
X66452841Y-120800001D01*
X67249999Y-121705548D02*
X67249999Y-123294452D01*
X64250000Y-123294452D02*
X64250000Y-121705547D01*
X66452841Y-124199999D02*
X65047157Y-124199999D01*
X66452841Y-120800000D02*
G75*
G03*
X66669719Y-120750515I2J499989D01*
G01*
X67318298Y-121453289D02*
G75*
G03*
X66669718Y-120750517I-431700J252259D01*
G01*
X64830279Y-120750516D02*
G75*
G03*
X65047156Y-120800001I216876J450505D01*
G01*
X64830279Y-120750516D02*
G75*
G03*
X64181701Y-121453289I-216878J-450514D01*
G01*
X64250000Y-121705547D02*
G75*
G03*
X64181701Y-121453289I-500009J-3D01*
G01*
X67318298Y-121453289D02*
G75*
G03*
X67249999Y-121705548I431710J-252261D01*
G01*
X64181700Y-123546711D02*
G75*
G03*
X64249999Y-123294453I-431710J252261D01*
G01*
X67250000Y-123294452D02*
G75*
G03*
X67318298Y-123546710I500010J2D01*
G01*
X66669721Y-124249480D02*
G75*
G03*
X67318296Y-123546711I216879J450510D01*
G01*
X66669719Y-124249484D02*
G75*
G03*
X66452842Y-124199999I-216959J-450866D01*
G01*
X64181700Y-123546711D02*
G75*
G03*
X64830279Y-124249484I431700J-252259D01*
G01*
X65047157Y-124199987D02*
G75*
G03*
X64830279Y-124249484I143J-500513D01*
G01*
%TO.C,D10*%
X283700001Y-117302843D02*
X283700001Y-115897159D01*
X284605548Y-115100001D02*
X286194452Y-115100001D01*
X286194452Y-118100000D02*
X284605547Y-118100000D01*
X287099999Y-115897159D02*
X287099999Y-117302843D01*
X283700000Y-115897159D02*
G75*
G03*
X283650515Y-115680281I-499989J2D01*
G01*
X284353289Y-115031702D02*
G75*
G03*
X283650517Y-115680282I-252259J-431700D01*
G01*
X283650516Y-117519721D02*
G75*
G03*
X283700001Y-117302844I-450505J216876D01*
G01*
X283650516Y-117519721D02*
G75*
G03*
X284353289Y-118168299I450514J-216878D01*
G01*
X284605547Y-118100000D02*
G75*
G03*
X284353289Y-118168299I3J-500009D01*
G01*
X284353289Y-115031702D02*
G75*
G03*
X284605548Y-115100001I252261J431710D01*
G01*
X286446711Y-118168300D02*
G75*
G03*
X286194453Y-118100001I-252261J-431710D01*
G01*
X286194452Y-115100000D02*
G75*
G03*
X286446710Y-115031702I-2J500010D01*
G01*
X287149480Y-115680279D02*
G75*
G03*
X286446711Y-115031704I-450510J216879D01*
G01*
X287149484Y-115680281D02*
G75*
G03*
X287099999Y-115897158I450866J-216959D01*
G01*
X286446711Y-118168300D02*
G75*
G03*
X287149484Y-117519721I252259J431700D01*
G01*
X287099987Y-117302843D02*
G75*
G03*
X287149484Y-117519721I500513J143D01*
G01*
%TO.C,D6*%
X69172157Y-116800001D02*
X70577841Y-116800001D01*
X71374999Y-117705548D02*
X71374999Y-119294452D01*
X68375000Y-119294452D02*
X68375000Y-117705547D01*
X70577841Y-120199999D02*
X69172157Y-120199999D01*
X70577841Y-116800000D02*
G75*
G03*
X70794719Y-116750515I2J499989D01*
G01*
X71443298Y-117453289D02*
G75*
G03*
X70794718Y-116750517I-431700J252259D01*
G01*
X68955279Y-116750516D02*
G75*
G03*
X69172156Y-116800001I216876J450505D01*
G01*
X68955279Y-116750516D02*
G75*
G03*
X68306701Y-117453289I-216878J-450514D01*
G01*
X68375000Y-117705547D02*
G75*
G03*
X68306701Y-117453289I-500009J-3D01*
G01*
X71443298Y-117453289D02*
G75*
G03*
X71374999Y-117705548I431710J-252261D01*
G01*
X68306700Y-119546711D02*
G75*
G03*
X68374999Y-119294453I-431710J252261D01*
G01*
X71375000Y-119294452D02*
G75*
G03*
X71443298Y-119546710I500010J2D01*
G01*
X70794721Y-120249480D02*
G75*
G03*
X71443296Y-119546711I216879J450510D01*
G01*
X70794719Y-120249484D02*
G75*
G03*
X70577842Y-120199999I-216959J-450866D01*
G01*
X68306700Y-119546711D02*
G75*
G03*
X68955279Y-120249484I431700J-252259D01*
G01*
X69172157Y-120199987D02*
G75*
G03*
X68955279Y-120249484I143J-500513D01*
G01*
%TO.C,D9*%
X284202843Y-124199999D02*
X282797159Y-124199999D01*
X282000001Y-123294452D02*
X282000001Y-121705548D01*
X285000000Y-121705548D02*
X285000000Y-123294453D01*
X282797159Y-120800001D02*
X284202843Y-120800001D01*
X282797159Y-124200000D02*
G75*
G03*
X282580281Y-124249485I-2J-499989D01*
G01*
X281931702Y-123546711D02*
G75*
G03*
X282580282Y-124249483I431700J-252259D01*
G01*
X284419721Y-124249484D02*
G75*
G03*
X284202844Y-124199999I-216876J-450505D01*
G01*
X284419721Y-124249484D02*
G75*
G03*
X285068299Y-123546711I216878J450514D01*
G01*
X285000000Y-123294453D02*
G75*
G03*
X285068299Y-123546711I500009J3D01*
G01*
X281931702Y-123546711D02*
G75*
G03*
X282000001Y-123294452I-431710J252261D01*
G01*
X285068300Y-121453289D02*
G75*
G03*
X285000001Y-121705547I431710J-252261D01*
G01*
X282000000Y-121705548D02*
G75*
G03*
X281931702Y-121453290I-500010J-2D01*
G01*
X282580279Y-120750520D02*
G75*
G03*
X281931704Y-121453289I-216879J-450510D01*
G01*
X282580281Y-120750516D02*
G75*
G03*
X282797158Y-120800001I216959J450866D01*
G01*
X285068300Y-121453289D02*
G75*
G03*
X284419721Y-120750516I-431700J252259D01*
G01*
X284202843Y-120800013D02*
G75*
G03*
X284419721Y-120750516I-143J500513D01*
G01*
%TD*%
M02*
