G04 #@! TF.GenerationSoftware,KiCad,Pcbnew,(7.0.0-0)*
G04 #@! TF.CreationDate,2023-05-06T23:28:02-07:00*
G04 #@! TF.ProjectId,popstar,706f7073-7461-4722-9e6b-696361645f70,rev?*
G04 #@! TF.SameCoordinates,Original*
G04 #@! TF.FileFunction,Soldermask,Bot*
G04 #@! TF.FilePolarity,Negative*
%FSLAX46Y46*%
G04 Gerber Fmt 4.6, Leading zero omitted, Abs format (unit mm)*
G04 Created by KiCad (PCBNEW (7.0.0-0)) date 2023-05-06 23:28:02*
%MOMM*%
%LPD*%
G01*
G04 APERTURE LIST*
G04 Aperture macros list*
%AMRoundRect*
0 Rectangle with rounded corners*
0 $1 Rounding radius*
0 $2 $3 $4 $5 $6 $7 $8 $9 X,Y pos of 4 corners*
0 Add a 4 corners polygon primitive as box body*
4,1,4,$2,$3,$4,$5,$6,$7,$8,$9,$2,$3,0*
0 Add four circle primitives for the rounded corners*
1,1,$1+$1,$2,$3*
1,1,$1+$1,$4,$5*
1,1,$1+$1,$6,$7*
1,1,$1+$1,$8,$9*
0 Add four rect primitives between the rounded corners*
20,1,$1+$1,$2,$3,$4,$5,0*
20,1,$1+$1,$4,$5,$6,$7,0*
20,1,$1+$1,$6,$7,$8,$9,0*
20,1,$1+$1,$8,$9,$2,$3,0*%
%AMRotRect*
0 Rectangle, with rotation*
0 The origin of the aperture is its center*
0 $1 length*
0 $2 width*
0 $3 Rotation angle, in degrees counterclockwise*
0 Add horizontal line*
21,1,$1,$2,0,0,$3*%
%AMFreePoly0*
4,1,18,-0.410000,0.593000,-0.403758,0.624380,-0.385983,0.650983,-0.359380,0.668758,-0.328000,0.675000,0.328000,0.675000,0.359380,0.668758,0.385983,0.650983,0.403758,0.624380,0.410000,0.593000,0.410000,-0.593000,0.403758,-0.624380,0.385983,-0.650983,0.359380,-0.668758,0.328000,-0.675000,0.000000,-0.675000,-0.410000,-0.265000,-0.410000,0.593000,-0.410000,0.593000,$1*%
G04 Aperture macros list end*
%ADD10C,4.000000*%
%ADD11C,3.987800*%
%ADD12C,1.750000*%
%ADD13C,2.300000*%
%ADD14C,3.048000*%
%ADD15RoundRect,0.140000X0.170000X-0.140000X0.170000X0.140000X-0.170000X0.140000X-0.170000X-0.140000X0*%
%ADD16RoundRect,0.140000X0.219203X0.021213X0.021213X0.219203X-0.219203X-0.021213X-0.021213X-0.219203X0*%
%ADD17R,1.700000X1.700000*%
%ADD18O,1.700000X1.700000*%
%ADD19RoundRect,0.225000X0.375000X-0.225000X0.375000X0.225000X-0.375000X0.225000X-0.375000X-0.225000X0*%
%ADD20RoundRect,0.150000X-0.650000X-0.150000X0.650000X-0.150000X0.650000X0.150000X-0.650000X0.150000X0*%
%ADD21RoundRect,0.200000X-0.275000X0.200000X-0.275000X-0.200000X0.275000X-0.200000X0.275000X0.200000X0*%
%ADD22RoundRect,0.150000X-0.150000X-0.625000X0.150000X-0.625000X0.150000X0.625000X-0.150000X0.625000X0*%
%ADD23RoundRect,0.250000X-0.350000X-0.650000X0.350000X-0.650000X0.350000X0.650000X-0.350000X0.650000X0*%
%ADD24RoundRect,0.140000X-0.170000X0.140000X-0.170000X-0.140000X0.170000X-0.140000X0.170000X0.140000X0*%
%ADD25RoundRect,0.050000X0.309359X-0.238649X-0.238649X0.309359X-0.309359X0.238649X0.238649X-0.309359X0*%
%ADD26RoundRect,0.050000X0.309359X0.238649X0.238649X0.309359X-0.309359X-0.238649X-0.238649X-0.309359X0*%
%ADD27RoundRect,0.144000X2.059095X0.000000X0.000000X2.059095X-2.059095X0.000000X0.000000X-2.059095X0*%
%ADD28RoundRect,0.150000X0.150000X-0.512500X0.150000X0.512500X-0.150000X0.512500X-0.150000X-0.512500X0*%
%ADD29RoundRect,0.082000X0.593000X-0.328000X0.593000X0.328000X-0.593000X0.328000X-0.593000X-0.328000X0*%
%ADD30FreePoly0,90.000000*%
%ADD31RoundRect,0.250000X-0.625000X0.375000X-0.625000X-0.375000X0.625000X-0.375000X0.625000X0.375000X0*%
%ADD32RoundRect,0.135000X-0.135000X-0.185000X0.135000X-0.185000X0.135000X0.185000X-0.135000X0.185000X0*%
%ADD33RoundRect,0.150000X-0.625000X0.150000X-0.625000X-0.150000X0.625000X-0.150000X0.625000X0.150000X0*%
%ADD34RoundRect,0.250000X-0.650000X0.350000X-0.650000X-0.350000X0.650000X-0.350000X0.650000X0.350000X0*%
%ADD35RoundRect,0.082000X-0.328000X-0.593000X0.328000X-0.593000X0.328000X0.593000X-0.328000X0.593000X0*%
%ADD36FreePoly0,0.000000*%
%ADD37RoundRect,0.082000X-0.593000X0.328000X-0.593000X-0.328000X0.593000X-0.328000X0.593000X0.328000X0*%
%ADD38FreePoly0,270.000000*%
%ADD39RoundRect,0.140000X-0.140000X-0.170000X0.140000X-0.170000X0.140000X0.170000X-0.140000X0.170000X0*%
%ADD40RoundRect,0.082000X0.328000X0.593000X-0.328000X0.593000X-0.328000X-0.593000X0.328000X-0.593000X0*%
%ADD41FreePoly0,180.000000*%
%ADD42RotRect,1.400000X1.200000X45.000000*%
%ADD43RoundRect,0.140000X0.140000X0.170000X-0.140000X0.170000X-0.140000X-0.170000X0.140000X-0.170000X0*%
%ADD44RoundRect,0.140000X-0.219203X-0.021213X-0.021213X-0.219203X0.219203X0.021213X0.021213X0.219203X0*%
%ADD45RoundRect,0.135000X0.135000X0.185000X-0.135000X0.185000X-0.135000X-0.185000X0.135000X-0.185000X0*%
%ADD46RoundRect,0.150000X0.475000X0.150000X-0.475000X0.150000X-0.475000X-0.150000X0.475000X-0.150000X0*%
%ADD47RoundRect,0.150000X-0.512500X-0.150000X0.512500X-0.150000X0.512500X0.150000X-0.512500X0.150000X0*%
G04 APERTURE END LIST*
D10*
G04 #@! TO.C,S3*
X117475000Y-124460000D03*
X231775000Y-124460000D03*
D11*
X117475000Y-109220000D03*
X231775000Y-109220000D03*
G04 #@! TD*
D12*
G04 #@! TO.C,SW15*
X293370000Y-41275000D03*
D11*
X298450000Y-41275000D03*
D12*
X303530000Y-41275000D03*
D13*
X294640000Y-38735000D03*
X300990000Y-36195000D03*
G04 #@! TD*
D12*
G04 #@! TO.C,SW22*
X140970000Y-60325000D03*
D11*
X146050000Y-60325000D03*
D12*
X151130000Y-60325000D03*
D13*
X142240000Y-57785000D03*
X148590000Y-55245000D03*
G04 #@! TD*
D14*
G04 #@! TO.C,S1*
X286543750Y-34290000D03*
D11*
X286543750Y-49530000D03*
D14*
X310356250Y-34290000D03*
D11*
X310356250Y-49530000D03*
G04 #@! TD*
D12*
G04 #@! TO.C,SW55*
X302895000Y-98425000D03*
D11*
X307975000Y-98425000D03*
D12*
X313055000Y-98425000D03*
D13*
X304165000Y-95885000D03*
X310515000Y-93345000D03*
G04 #@! TD*
D12*
G04 #@! TO.C,SW29*
X274320000Y-60325000D03*
D11*
X279400000Y-60325000D03*
D12*
X284480000Y-60325000D03*
D13*
X275590000Y-57785000D03*
X281940000Y-55245000D03*
G04 #@! TD*
D12*
G04 #@! TO.C,SW33*
X107632500Y-79375000D03*
D11*
X112712500Y-79375000D03*
D12*
X117792500Y-79375000D03*
D13*
X108902500Y-76835000D03*
X115252500Y-74295000D03*
G04 #@! TD*
D12*
G04 #@! TO.C,SW25*
X198120000Y-60325000D03*
D11*
X203200000Y-60325000D03*
D12*
X208280000Y-60325000D03*
D13*
X199390000Y-57785000D03*
X205740000Y-55245000D03*
G04 #@! TD*
D12*
G04 #@! TO.C,SW53*
X250507500Y-98425000D03*
D11*
X255587500Y-98425000D03*
D12*
X260667500Y-98425000D03*
D13*
X251777500Y-95885000D03*
X258127500Y-93345000D03*
G04 #@! TD*
D12*
G04 #@! TO.C,SW17*
X40957500Y-60325000D03*
D11*
X46037500Y-60325000D03*
D12*
X51117500Y-60325000D03*
D13*
X42227500Y-57785000D03*
X48577500Y-55245000D03*
G04 #@! TD*
D12*
G04 #@! TO.C,SW41*
X260032500Y-79375000D03*
D11*
X265112500Y-79375000D03*
D12*
X270192500Y-79375000D03*
D13*
X261302500Y-76835000D03*
X267652500Y-74295000D03*
G04 #@! TD*
D14*
G04 #@! TO.C,S2*
X284162500Y-72390000D03*
D11*
X284162500Y-87630000D03*
D14*
X307975000Y-72390000D03*
D11*
X307975000Y-87630000D03*
G04 #@! TD*
D12*
G04 #@! TO.C,SW36*
X164782500Y-79375000D03*
D11*
X169862500Y-79375000D03*
D12*
X174942500Y-79375000D03*
D13*
X166052500Y-76835000D03*
X172402500Y-74295000D03*
G04 #@! TD*
D12*
G04 #@! TO.C,SW47*
X136207500Y-98425000D03*
D11*
X141287500Y-98425000D03*
D12*
X146367500Y-98425000D03*
D13*
X137477500Y-95885000D03*
X143827500Y-93345000D03*
G04 #@! TD*
D12*
G04 #@! TO.C,SW11*
X207645000Y-41275000D03*
D11*
X212725000Y-41275000D03*
D12*
X217805000Y-41275000D03*
D13*
X208915000Y-38735000D03*
X215265000Y-36195000D03*
G04 #@! TD*
D12*
G04 #@! TO.C,SW45*
X98107500Y-98425000D03*
D11*
X103187500Y-98425000D03*
D12*
X108267500Y-98425000D03*
D13*
X99377500Y-95885000D03*
X105727500Y-93345000D03*
G04 #@! TD*
D12*
G04 #@! TO.C,SW57*
X88582500Y-117475000D03*
D11*
X93662500Y-117475000D03*
D12*
X98742500Y-117475000D03*
D13*
X89852500Y-114935000D03*
X96202500Y-112395000D03*
G04 #@! TD*
D12*
G04 #@! TO.C,SW56*
X40957500Y-117475000D03*
D11*
X46037500Y-117475000D03*
D12*
X51117500Y-117475000D03*
D13*
X42227500Y-114935000D03*
X48577500Y-112395000D03*
G04 #@! TD*
D12*
G04 #@! TO.C,SW24*
X179070000Y-60325000D03*
D11*
X184150000Y-60325000D03*
D12*
X189230000Y-60325000D03*
D13*
X180340000Y-57785000D03*
X186690000Y-55245000D03*
G04 #@! TD*
D12*
G04 #@! TO.C,SW59*
X250507500Y-117475000D03*
D11*
X255587500Y-117475000D03*
D12*
X260667500Y-117475000D03*
D13*
X251777500Y-114935000D03*
X258127500Y-112395000D03*
G04 #@! TD*
D12*
G04 #@! TO.C,SW7*
X131445000Y-41275000D03*
D11*
X136525000Y-41275000D03*
D12*
X141605000Y-41275000D03*
D13*
X132715000Y-38735000D03*
X139065000Y-36195000D03*
G04 #@! TD*
D12*
G04 #@! TO.C,SW20*
X102870000Y-60325000D03*
D11*
X107950000Y-60325000D03*
D12*
X113030000Y-60325000D03*
D13*
X104140000Y-57785000D03*
X110490000Y-55245000D03*
G04 #@! TD*
D12*
G04 #@! TO.C,SW2*
X36195000Y-41275000D03*
D11*
X41275000Y-41275000D03*
D12*
X46355000Y-41275000D03*
D13*
X37465000Y-38735000D03*
X43815000Y-36195000D03*
G04 #@! TD*
D12*
G04 #@! TO.C,SW31*
X69532500Y-79375000D03*
D11*
X74612500Y-79375000D03*
D12*
X79692500Y-79375000D03*
D13*
X70802500Y-76835000D03*
X77152500Y-74295000D03*
G04 #@! TD*
D12*
G04 #@! TO.C,SW27*
X236220000Y-60325000D03*
D11*
X241300000Y-60325000D03*
D12*
X246380000Y-60325000D03*
D13*
X237490000Y-57785000D03*
X243840000Y-55245000D03*
G04 #@! TD*
D12*
G04 #@! TO.C,SW32*
X88582500Y-79375000D03*
D11*
X93662500Y-79375000D03*
D12*
X98742500Y-79375000D03*
D13*
X89852500Y-76835000D03*
X96202500Y-74295000D03*
G04 #@! TD*
D12*
G04 #@! TO.C,SW34*
X126682500Y-79375000D03*
D11*
X131762500Y-79375000D03*
D12*
X136842500Y-79375000D03*
D13*
X127952500Y-76835000D03*
X134302500Y-74295000D03*
G04 #@! TD*
D12*
G04 #@! TO.C,SW37*
X183832500Y-79375000D03*
D11*
X188912500Y-79375000D03*
D12*
X193992500Y-79375000D03*
D13*
X185102500Y-76835000D03*
X191452500Y-74295000D03*
G04 #@! TD*
D12*
G04 #@! TO.C,SW10*
X188595000Y-41275000D03*
D11*
X193675000Y-41275000D03*
D12*
X198755000Y-41275000D03*
D13*
X189865000Y-38735000D03*
X196215000Y-36195000D03*
G04 #@! TD*
D12*
G04 #@! TO.C,SW21*
X121920000Y-60325000D03*
D11*
X127000000Y-60325000D03*
D12*
X132080000Y-60325000D03*
D13*
X123190000Y-57785000D03*
X129540000Y-55245000D03*
G04 #@! TD*
D12*
G04 #@! TO.C,SW3*
X55245000Y-41275000D03*
D11*
X60325000Y-41275000D03*
D12*
X65405000Y-41275000D03*
D13*
X56515000Y-38735000D03*
X62865000Y-36195000D03*
G04 #@! TD*
D12*
G04 #@! TO.C,SW38*
X202882500Y-79375000D03*
D11*
X207962500Y-79375000D03*
D12*
X213042500Y-79375000D03*
D13*
X204152500Y-76835000D03*
X210502500Y-74295000D03*
G04 #@! TD*
D12*
G04 #@! TO.C,SW50*
X193357500Y-98425000D03*
D11*
X198437500Y-98425000D03*
D12*
X203517500Y-98425000D03*
D13*
X194627500Y-95885000D03*
X200977500Y-93345000D03*
G04 #@! TD*
D12*
G04 #@! TO.C,SW52*
X231457500Y-98425000D03*
D11*
X236537500Y-98425000D03*
D12*
X241617500Y-98425000D03*
D13*
X232727500Y-95885000D03*
X239077500Y-93345000D03*
G04 #@! TD*
D12*
G04 #@! TO.C,SW13*
X245745000Y-41275000D03*
D11*
X250825000Y-41275000D03*
D12*
X255905000Y-41275000D03*
D13*
X247015000Y-38735000D03*
X253365000Y-36195000D03*
G04 #@! TD*
D12*
G04 #@! TO.C,SW35*
X145732500Y-79375000D03*
D11*
X150812500Y-79375000D03*
D12*
X155892500Y-79375000D03*
D13*
X147002500Y-76835000D03*
X153352500Y-74295000D03*
G04 #@! TD*
D12*
G04 #@! TO.C,SW39*
X221932500Y-79375000D03*
D11*
X227012500Y-79375000D03*
D12*
X232092500Y-79375000D03*
D13*
X223202500Y-76835000D03*
X229552500Y-74295000D03*
G04 #@! TD*
D12*
G04 #@! TO.C,SW23*
X160020000Y-60325000D03*
D11*
X165100000Y-60325000D03*
D12*
X170180000Y-60325000D03*
D13*
X161290000Y-57785000D03*
X167640000Y-55245000D03*
G04 #@! TD*
D12*
G04 #@! TO.C,SW51*
X212407500Y-98425000D03*
D11*
X217487500Y-98425000D03*
D12*
X222567500Y-98425000D03*
D13*
X213677500Y-95885000D03*
X220027500Y-93345000D03*
G04 #@! TD*
D12*
G04 #@! TO.C,SW43*
X48101250Y-98425000D03*
D11*
X53181250Y-98425000D03*
D12*
X58261250Y-98425000D03*
D13*
X49371250Y-95885000D03*
X55721250Y-93345000D03*
G04 #@! TD*
D12*
G04 #@! TO.C,SW61*
X302895000Y-41275000D03*
D11*
X307975000Y-41275000D03*
D12*
X313055000Y-41275000D03*
D13*
X304165000Y-38735000D03*
X310515000Y-36195000D03*
G04 #@! TD*
D12*
G04 #@! TO.C,SW44*
X79057500Y-98425000D03*
D11*
X84137500Y-98425000D03*
D12*
X89217500Y-98425000D03*
D13*
X80327500Y-95885000D03*
X86677500Y-93345000D03*
G04 #@! TD*
D12*
G04 #@! TO.C,SW58*
X169545000Y-117475000D03*
D11*
X174625000Y-117475000D03*
D12*
X179705000Y-117475000D03*
D13*
X170815000Y-114935000D03*
X177165000Y-112395000D03*
G04 #@! TD*
D12*
G04 #@! TO.C,SW18*
X64770000Y-60325000D03*
D11*
X69850000Y-60325000D03*
D12*
X74930000Y-60325000D03*
D13*
X66040000Y-57785000D03*
X72390000Y-55245000D03*
G04 #@! TD*
D12*
G04 #@! TO.C,SW5*
X93345000Y-41275000D03*
D11*
X98425000Y-41275000D03*
D12*
X103505000Y-41275000D03*
D13*
X94615000Y-38735000D03*
X100965000Y-36195000D03*
G04 #@! TD*
D12*
G04 #@! TO.C,SW6*
X112395000Y-41275000D03*
D11*
X117475000Y-41275000D03*
D12*
X122555000Y-41275000D03*
D13*
X113665000Y-38735000D03*
X120015000Y-36195000D03*
G04 #@! TD*
D12*
G04 #@! TO.C,SW28*
X255270000Y-60325000D03*
D11*
X260350000Y-60325000D03*
D12*
X265430000Y-60325000D03*
D13*
X256540000Y-57785000D03*
X262890000Y-55245000D03*
G04 #@! TD*
D12*
G04 #@! TO.C,SW48*
X155257500Y-98425000D03*
D11*
X160337500Y-98425000D03*
D12*
X165417500Y-98425000D03*
D13*
X156527500Y-95885000D03*
X162877500Y-93345000D03*
G04 #@! TD*
D12*
G04 #@! TO.C,SW60*
X298132500Y-117475000D03*
D11*
X303212500Y-117475000D03*
D12*
X308292500Y-117475000D03*
D13*
X299402500Y-114935000D03*
X305752500Y-112395000D03*
G04 #@! TD*
D12*
G04 #@! TO.C,SW49*
X174307500Y-98425000D03*
D11*
X179387500Y-98425000D03*
D12*
X184467500Y-98425000D03*
D13*
X175577500Y-95885000D03*
X181927500Y-93345000D03*
G04 #@! TD*
D12*
G04 #@! TO.C,SW30*
X38576250Y-79375000D03*
D11*
X43656250Y-79375000D03*
D12*
X48736250Y-79375000D03*
D13*
X39846250Y-76835000D03*
X46196250Y-74295000D03*
G04 #@! TD*
D12*
G04 #@! TO.C,SW26*
X217170000Y-60325000D03*
D11*
X222250000Y-60325000D03*
D12*
X227330000Y-60325000D03*
D13*
X218440000Y-57785000D03*
X224790000Y-55245000D03*
G04 #@! TD*
D12*
G04 #@! TO.C,SW62*
X298132500Y-60325000D03*
D11*
X303212500Y-60325000D03*
D12*
X308292500Y-60325000D03*
D13*
X299402500Y-57785000D03*
X305752500Y-55245000D03*
G04 #@! TD*
D12*
G04 #@! TO.C,SW16*
X283845000Y-41275000D03*
D11*
X288925000Y-41275000D03*
D12*
X294005000Y-41275000D03*
D13*
X285115000Y-38735000D03*
X291465000Y-36195000D03*
G04 #@! TD*
D12*
G04 #@! TO.C,SW14*
X264795000Y-41275000D03*
D11*
X269875000Y-41275000D03*
D12*
X274955000Y-41275000D03*
D13*
X266065000Y-38735000D03*
X272415000Y-36195000D03*
G04 #@! TD*
D12*
G04 #@! TO.C,SW46*
X117157500Y-98425000D03*
D11*
X122237500Y-98425000D03*
D12*
X127317500Y-98425000D03*
D13*
X118427500Y-95885000D03*
X124777500Y-93345000D03*
G04 #@! TD*
D12*
G04 #@! TO.C,SW40*
X240982500Y-79375000D03*
D11*
X246062500Y-79375000D03*
D12*
X251142500Y-79375000D03*
D13*
X242252500Y-76835000D03*
X248602500Y-74295000D03*
G04 #@! TD*
D14*
G04 #@! TO.C,S4*
X41275000Y-91440000D03*
D11*
X41275000Y-106680000D03*
D14*
X65087500Y-91440000D03*
D11*
X65087500Y-106680000D03*
G04 #@! TD*
D12*
G04 #@! TO.C,SW12*
X226695000Y-41275000D03*
D11*
X231775000Y-41275000D03*
D12*
X236855000Y-41275000D03*
D13*
X227965000Y-38735000D03*
X234315000Y-36195000D03*
G04 #@! TD*
D12*
G04 #@! TO.C,SW9*
X169545000Y-41275000D03*
D11*
X174625000Y-41275000D03*
D12*
X179705000Y-41275000D03*
D13*
X170815000Y-38735000D03*
X177165000Y-36195000D03*
G04 #@! TD*
D12*
G04 #@! TO.C,SW19*
X83820000Y-60325000D03*
D11*
X88900000Y-60325000D03*
D12*
X93980000Y-60325000D03*
D13*
X85090000Y-57785000D03*
X91440000Y-55245000D03*
G04 #@! TD*
D12*
G04 #@! TO.C,SW42*
X290988750Y-79375000D03*
D11*
X296068750Y-79375000D03*
D12*
X301148750Y-79375000D03*
D13*
X292258750Y-76835000D03*
X298608750Y-74295000D03*
G04 #@! TD*
D12*
G04 #@! TO.C,SW4*
X74295000Y-41275000D03*
D11*
X79375000Y-41275000D03*
D12*
X84455000Y-41275000D03*
D13*
X75565000Y-38735000D03*
X81915000Y-36195000D03*
G04 #@! TD*
D12*
G04 #@! TO.C,SW8*
X150495000Y-41275000D03*
D11*
X155575000Y-41275000D03*
D12*
X160655000Y-41275000D03*
D13*
X151765000Y-38735000D03*
X158115000Y-36195000D03*
G04 #@! TD*
D12*
G04 #@! TO.C,SW54*
X276701250Y-98425000D03*
D11*
X281781250Y-98425000D03*
D12*
X286861250Y-98425000D03*
D13*
X277971250Y-95885000D03*
X284321250Y-93345000D03*
G04 #@! TD*
D15*
G04 #@! TO.C,C4*
X57200000Y-64480000D03*
X57200000Y-63520000D03*
G04 #@! TD*
D16*
G04 #@! TO.C,C14*
X54057411Y-84871411D03*
X53378589Y-84192589D03*
G04 #@! TD*
D17*
G04 #@! TO.C,J2*
X39919999Y-69341999D03*
D18*
X42459999Y-69341999D03*
X44999999Y-69341999D03*
X47539999Y-69341999D03*
X50079999Y-69341999D03*
G04 #@! TD*
D19*
G04 #@! TO.C,D60*
X206375000Y-102456250D03*
X206375000Y-99156250D03*
G04 #@! TD*
G04 #@! TO.C,D53*
X61118750Y-102456250D03*
X61118750Y-99156250D03*
G04 #@! TD*
D20*
G04 #@! TO.C,U4*
X70218750Y-69373750D03*
X70218750Y-68103750D03*
X70218750Y-66833750D03*
X70218750Y-65563750D03*
X77418750Y-65563750D03*
X77418750Y-66833750D03*
X77418750Y-68103750D03*
X77418750Y-69373750D03*
G04 #@! TD*
D19*
G04 #@! TO.C,D28*
X78500000Y-61975000D03*
X78500000Y-58675000D03*
G04 #@! TD*
G04 #@! TO.C,D34*
X192087500Y-64356250D03*
X192087500Y-61056250D03*
G04 #@! TD*
G04 #@! TO.C,D19*
X163512500Y-45306250D03*
X163512500Y-42006250D03*
G04 #@! TD*
G04 #@! TO.C,D26*
X280987500Y-45306250D03*
X280987500Y-42006250D03*
G04 #@! TD*
G04 #@! TO.C,D18*
X144462500Y-45306250D03*
X144462500Y-42006250D03*
G04 #@! TD*
D21*
G04 #@! TO.C,R2*
X62484000Y-60425000D03*
X62484000Y-62075000D03*
G04 #@! TD*
D22*
G04 #@! TO.C,J1*
X171500000Y-67250000D03*
X172500000Y-67250000D03*
X173500000Y-67250000D03*
X174500000Y-67250000D03*
D23*
X170200000Y-63375000D03*
X175800000Y-63375000D03*
G04 #@! TD*
D19*
G04 #@! TO.C,D22*
X220662500Y-45306250D03*
X220662500Y-42006250D03*
G04 #@! TD*
D24*
G04 #@! TO.C,C23*
X80250000Y-117820000D03*
X80250000Y-118780000D03*
G04 #@! TD*
D19*
G04 #@! TO.C,D72*
X290512500Y-64356250D03*
X290512500Y-61056250D03*
G04 #@! TD*
G04 #@! TO.C,D51*
X273050000Y-76262500D03*
X273050000Y-72962500D03*
G04 #@! TD*
G04 #@! TO.C,D31*
X134937500Y-64356250D03*
X134937500Y-61056250D03*
G04 #@! TD*
G04 #@! TO.C,D27*
X44450000Y-54037500D03*
X44450000Y-50737500D03*
G04 #@! TD*
G04 #@! TO.C,D54*
X92075000Y-102456250D03*
X92075000Y-99156250D03*
G04 #@! TD*
D24*
G04 #@! TO.C,C5*
X66421000Y-70767000D03*
X66421000Y-71727000D03*
G04 #@! TD*
D19*
G04 #@! TO.C,D67*
X101600000Y-121506250D03*
X101600000Y-118206250D03*
G04 #@! TD*
G04 #@! TO.C,D40*
X51593750Y-83406250D03*
X51593750Y-80106250D03*
G04 #@! TD*
G04 #@! TO.C,D46*
X177800000Y-76262500D03*
X177800000Y-72962500D03*
G04 #@! TD*
G04 #@! TO.C,D42*
X101600000Y-76262500D03*
X101600000Y-72962500D03*
G04 #@! TD*
G04 #@! TO.C,D17*
X125412500Y-45306250D03*
X125412500Y-42006250D03*
G04 #@! TD*
G04 #@! TO.C,D41*
X82550000Y-77056250D03*
X82550000Y-73756250D03*
G04 #@! TD*
G04 #@! TO.C,D69*
X263525000Y-121506250D03*
X263525000Y-118206250D03*
G04 #@! TD*
D25*
G04 #@! TO.C,U6*
X63800407Y-72029702D03*
X63517564Y-72312545D03*
X63234722Y-72595387D03*
X62951879Y-72878230D03*
X62669036Y-73161073D03*
X62386194Y-73443915D03*
X62103351Y-73726758D03*
X61820508Y-74009601D03*
X61537665Y-74292444D03*
X61254823Y-74575286D03*
X60971980Y-74858129D03*
X60689137Y-75140972D03*
X60406295Y-75423814D03*
X60123452Y-75706657D03*
D26*
X58939048Y-75706657D03*
X58656205Y-75423814D03*
X58373363Y-75140972D03*
X58090520Y-74858129D03*
X57807677Y-74575286D03*
X57524835Y-74292444D03*
X57241992Y-74009601D03*
X56959149Y-73726758D03*
X56676306Y-73443915D03*
X56393464Y-73161073D03*
X56110621Y-72878230D03*
X55827778Y-72595387D03*
X55544936Y-72312545D03*
X55262093Y-72029702D03*
D25*
X55262093Y-70845298D03*
X55544936Y-70562455D03*
X55827778Y-70279613D03*
X56110621Y-69996770D03*
X56393464Y-69713927D03*
X56676306Y-69431085D03*
X56959149Y-69148242D03*
X57241992Y-68865399D03*
X57524835Y-68582556D03*
X57807677Y-68299714D03*
X58090520Y-68016871D03*
X58373363Y-67734028D03*
X58656205Y-67451186D03*
X58939048Y-67168343D03*
D26*
X60123452Y-67168343D03*
X60406295Y-67451186D03*
X60689137Y-67734028D03*
X60971980Y-68016871D03*
X61254823Y-68299714D03*
X61537665Y-68582556D03*
X61820508Y-68865399D03*
X62103351Y-69148242D03*
X62386194Y-69431085D03*
X62669036Y-69713927D03*
X62951879Y-69996770D03*
X63234722Y-70279613D03*
X63517564Y-70562455D03*
X63800407Y-70845298D03*
D27*
X59531250Y-71437500D03*
G04 #@! TD*
D19*
G04 #@! TO.C,D37*
X249237500Y-64356250D03*
X249237500Y-61056250D03*
G04 #@! TD*
G04 #@! TO.C,D15*
X87312500Y-45306250D03*
X87312500Y-42006250D03*
G04 #@! TD*
D15*
G04 #@! TO.C,C10*
X59600000Y-64480000D03*
X59600000Y-63520000D03*
G04 #@! TD*
D19*
G04 #@! TO.C,D35*
X211137500Y-64356250D03*
X211137500Y-61056250D03*
G04 #@! TD*
D28*
G04 #@! TO.C,U2*
X56512500Y-60065500D03*
X54612500Y-60065500D03*
X55562500Y-57790500D03*
G04 #@! TD*
D19*
G04 #@! TO.C,D44*
X139700000Y-76262500D03*
X139700000Y-72962500D03*
G04 #@! TD*
D24*
G04 #@! TO.C,C25*
X269000000Y-117770000D03*
X269000000Y-118730000D03*
G04 #@! TD*
D15*
G04 #@! TO.C,C11*
X62992000Y-66012000D03*
X62992000Y-65052000D03*
G04 #@! TD*
D19*
G04 #@! TO.C,D56*
X130175000Y-102456250D03*
X130175000Y-99156250D03*
G04 #@! TD*
D29*
G04 #@! TO.C,D12*
X276675000Y-111750000D03*
X276675000Y-113250000D03*
X282125000Y-111750000D03*
D30*
X282124999Y-113249999D03*
G04 #@! TD*
D29*
G04 #@! TO.C,D1*
X67125000Y-111750000D03*
X67125000Y-113250000D03*
X72575000Y-111750000D03*
D30*
X72574999Y-113249999D03*
G04 #@! TD*
D19*
G04 #@! TO.C,D30*
X115887500Y-64356250D03*
X115887500Y-61056250D03*
G04 #@! TD*
G04 #@! TO.C,D49*
X234950000Y-76262500D03*
X234950000Y-72962500D03*
G04 #@! TD*
D29*
G04 #@! TO.C,D2*
X61025000Y-115850000D03*
X61025000Y-117350000D03*
X66475000Y-115850000D03*
D30*
X66474999Y-117349999D03*
G04 #@! TD*
D19*
G04 #@! TO.C,D43*
X120650000Y-76262500D03*
X120650000Y-72962500D03*
G04 #@! TD*
G04 #@! TO.C,D58*
X168275000Y-102456250D03*
X168275000Y-99156250D03*
G04 #@! TD*
D24*
G04 #@! TO.C,C24*
X68500000Y-122770000D03*
X68500000Y-123730000D03*
G04 #@! TD*
D15*
G04 #@! TO.C,C6*
X58400000Y-64480000D03*
X58400000Y-63520000D03*
G04 #@! TD*
D31*
G04 #@! TO.C,F1*
X51689000Y-50670000D03*
X51689000Y-53470000D03*
G04 #@! TD*
D19*
G04 #@! TO.C,D63*
X263525000Y-102456250D03*
X263525000Y-99156250D03*
G04 #@! TD*
G04 #@! TO.C,D16*
X106362500Y-45306250D03*
X106362500Y-42006250D03*
G04 #@! TD*
G04 #@! TO.C,D29*
X96837500Y-64356250D03*
X96837500Y-61056250D03*
G04 #@! TD*
D15*
G04 #@! TO.C,C2*
X60770000Y-64480000D03*
X60770000Y-63520000D03*
G04 #@! TD*
D24*
G04 #@! TO.C,C19*
X65500000Y-112770000D03*
X65500000Y-113730000D03*
G04 #@! TD*
D32*
G04 #@! TO.C,R4*
X55113000Y-79198000D03*
X56133000Y-79198000D03*
G04 #@! TD*
D19*
G04 #@! TO.C,D38*
X268287500Y-64356250D03*
X268287500Y-61056250D03*
G04 #@! TD*
D24*
G04 #@! TO.C,C20*
X59250000Y-116020000D03*
X59250000Y-116980000D03*
G04 #@! TD*
D33*
G04 #@! TO.C,J1*
X55023000Y-50697000D03*
X55023000Y-51697000D03*
X55023000Y-52697000D03*
X55023000Y-53697000D03*
D34*
X58898000Y-49397000D03*
X58898000Y-54997000D03*
G04 #@! TD*
D19*
G04 #@! TO.C,D55*
X111125000Y-102456250D03*
X111125000Y-99156250D03*
G04 #@! TD*
G04 #@! TO.C,D68*
X182562500Y-121506250D03*
X182562500Y-118206250D03*
G04 #@! TD*
G04 #@! TO.C,D62*
X244475000Y-102456250D03*
X244475000Y-99156250D03*
G04 #@! TD*
D24*
G04 #@! TO.C,C27*
X286100000Y-119120000D03*
X286100000Y-120080000D03*
G04 #@! TD*
G04 #@! TO.C,C3*
X54229000Y-76033750D03*
X54229000Y-76993750D03*
G04 #@! TD*
D19*
G04 #@! TO.C,D47*
X196850000Y-76262500D03*
X196850000Y-72962500D03*
G04 #@! TD*
G04 #@! TO.C,D21*
X201612500Y-45306250D03*
X201612500Y-42006250D03*
G04 #@! TD*
D24*
G04 #@! TO.C,C12*
X62611000Y-76520000D03*
X62611000Y-77480000D03*
G04 #@! TD*
D15*
G04 #@! TO.C,C1*
X65405000Y-64869000D03*
X65405000Y-63909000D03*
G04 #@! TD*
D35*
G04 #@! TO.C,D4*
X74750000Y-119775000D03*
X73250000Y-119775000D03*
X74750000Y-125225000D03*
D36*
X73249999Y-125224999D03*
G04 #@! TD*
D37*
G04 #@! TO.C,D5*
X78625000Y-117350000D03*
X78625000Y-115850000D03*
X73175000Y-117350000D03*
D38*
X73174999Y-115849999D03*
G04 #@! TD*
D39*
G04 #@! TO.C,C16*
X55082500Y-61690250D03*
X56042500Y-61690250D03*
G04 #@! TD*
D40*
G04 #@! TO.C,D8*
X274550000Y-125225000D03*
X276050000Y-125225000D03*
X274550000Y-119775000D03*
D41*
X276049999Y-119774999D03*
G04 #@! TD*
D19*
G04 #@! TO.C,D39*
X287337500Y-64356250D03*
X287337500Y-61056250D03*
G04 #@! TD*
G04 #@! TO.C,D45*
X158750000Y-76262500D03*
X158750000Y-72962500D03*
G04 #@! TD*
G04 #@! TO.C,D70*
X311150000Y-121506250D03*
X311150000Y-118206250D03*
G04 #@! TD*
D24*
G04 #@! TO.C,C26*
X272750000Y-124770000D03*
X272750000Y-125730000D03*
G04 #@! TD*
D29*
G04 #@! TO.C,D7*
X270675000Y-115850000D03*
X270675000Y-117350000D03*
X276125000Y-115850000D03*
D30*
X276124999Y-117349999D03*
G04 #@! TD*
D15*
G04 #@! TO.C,C8*
X53721000Y-69314000D03*
X53721000Y-68354000D03*
G04 #@! TD*
D19*
G04 #@! TO.C,D61*
X225425000Y-102456250D03*
X225425000Y-99156250D03*
G04 #@! TD*
G04 #@! TO.C,D32*
X153987500Y-64356250D03*
X153987500Y-61056250D03*
G04 #@! TD*
D24*
G04 #@! TO.C,C15*
X52387500Y-56670000D03*
X52387500Y-57630000D03*
G04 #@! TD*
D19*
G04 #@! TO.C,D13*
X49212500Y-45306250D03*
X49212500Y-42006250D03*
G04 #@! TD*
G04 #@! TO.C,D64*
X289718750Y-102456250D03*
X289718750Y-99156250D03*
G04 #@! TD*
D42*
G04 #@! TO.C,Y1*
X54371141Y-82676776D03*
X55926776Y-81121141D03*
X57128857Y-82323222D03*
X55573222Y-83878857D03*
G04 #@! TD*
D43*
G04 #@! TO.C,C18*
X67980000Y-76750000D03*
X67020000Y-76750000D03*
G04 #@! TD*
D44*
G04 #@! TO.C,C13*
X57823589Y-80382589D03*
X58502411Y-81061411D03*
G04 #@! TD*
D40*
G04 #@! TO.C,D11*
X278650000Y-121125000D03*
X280150000Y-121125000D03*
X278650000Y-115675000D03*
D41*
X280149999Y-115674999D03*
G04 #@! TD*
D24*
G04 #@! TO.C,C21*
X63250000Y-124770000D03*
X63250000Y-125730000D03*
G04 #@! TD*
D19*
G04 #@! TO.C,D57*
X149225000Y-102456250D03*
X149225000Y-99156250D03*
G04 #@! TD*
G04 #@! TO.C,D36*
X230187500Y-64356250D03*
X230187500Y-61056250D03*
G04 #@! TD*
D17*
G04 #@! TO.C,SW1*
X88336249Y-69874999D03*
D18*
X85796249Y-69874999D03*
G04 #@! TD*
D19*
G04 #@! TO.C,D33*
X178500000Y-67650000D03*
X178500000Y-64350000D03*
G04 #@! TD*
G04 #@! TO.C,D14*
X68262500Y-45306250D03*
X68262500Y-42006250D03*
G04 #@! TD*
G04 #@! TO.C,D50*
X254000000Y-76262500D03*
X254000000Y-72962500D03*
G04 #@! TD*
D24*
G04 #@! TO.C,C22*
X76500000Y-119520000D03*
X76500000Y-120480000D03*
G04 #@! TD*
D19*
G04 #@! TO.C,D59*
X187325000Y-102456250D03*
X187325000Y-99156250D03*
G04 #@! TD*
D40*
G04 #@! TO.C,D3*
X65000000Y-125225000D03*
X66500000Y-125225000D03*
X65000000Y-119775000D03*
D41*
X66499999Y-119774999D03*
G04 #@! TD*
D19*
G04 #@! TO.C,D65*
X299243750Y-102456250D03*
X299243750Y-99156250D03*
G04 #@! TD*
D37*
G04 #@! TO.C,D10*
X288125000Y-117350000D03*
X288125000Y-115850000D03*
X282675000Y-117350000D03*
D38*
X282674999Y-115849999D03*
G04 #@! TD*
D24*
G04 #@! TO.C,C9*
X55499000Y-76033750D03*
X55499000Y-76993750D03*
G04 #@! TD*
D19*
G04 #@! TO.C,D52*
X303000000Y-76262500D03*
X303000000Y-72962500D03*
G04 #@! TD*
G04 #@! TO.C,D24*
X258762500Y-45306250D03*
X258762500Y-42006250D03*
G04 #@! TD*
G04 #@! TO.C,D71*
X303212500Y-48650000D03*
X303212500Y-45350000D03*
G04 #@! TD*
D45*
G04 #@! TO.C,R1*
X49510000Y-66960750D03*
X48490000Y-66960750D03*
G04 #@! TD*
D19*
G04 #@! TO.C,D25*
X277812500Y-45306250D03*
X277812500Y-42006250D03*
G04 #@! TD*
D45*
G04 #@! TO.C,R5*
X83343750Y-69850000D03*
X82323750Y-69850000D03*
G04 #@! TD*
D24*
G04 #@! TO.C,C30*
X275000000Y-111770000D03*
X275000000Y-112730000D03*
G04 #@! TD*
D46*
G04 #@! TO.C,U3*
X62897000Y-56962000D03*
X62897000Y-57912000D03*
X62897000Y-58862000D03*
X60547000Y-58862000D03*
X60547000Y-57912000D03*
X60547000Y-56962000D03*
G04 #@! TD*
D24*
G04 #@! TO.C,C17*
X79000000Y-70770000D03*
X79000000Y-71730000D03*
G04 #@! TD*
D21*
G04 #@! TO.C,R3*
X60860000Y-60425000D03*
X60860000Y-62075000D03*
G04 #@! TD*
D19*
G04 #@! TO.C,D66*
X53975000Y-118150000D03*
X53975000Y-114850000D03*
G04 #@! TD*
G04 #@! TO.C,D23*
X239712500Y-45306250D03*
X239712500Y-42006250D03*
G04 #@! TD*
G04 #@! TO.C,D20*
X182562500Y-45306250D03*
X182562500Y-42006250D03*
G04 #@! TD*
D15*
G04 #@! TO.C,C7*
X64135000Y-65440500D03*
X64135000Y-64480500D03*
G04 #@! TD*
D24*
G04 #@! TO.C,C28*
X289900000Y-117420000D03*
X289900000Y-118380000D03*
G04 #@! TD*
G04 #@! TO.C,C29*
X278000000Y-122770000D03*
X278000000Y-123730000D03*
G04 #@! TD*
D40*
G04 #@! TO.C,D6*
X69125000Y-121225000D03*
X70625000Y-121225000D03*
X69125000Y-115775000D03*
D41*
X70624999Y-115774999D03*
G04 #@! TD*
D19*
G04 #@! TO.C,D48*
X215900000Y-76262500D03*
X215900000Y-72962500D03*
G04 #@! TD*
D47*
G04 #@! TO.C,U5*
X66362500Y-75450000D03*
X66362500Y-74500000D03*
X66362500Y-73550000D03*
X68637500Y-73550000D03*
X68637500Y-75450000D03*
G04 #@! TD*
D35*
G04 #@! TO.C,D9*
X284250000Y-119775000D03*
X282750000Y-119775000D03*
X284250000Y-125225000D03*
D36*
X282749999Y-125224999D03*
G04 #@! TD*
M02*
