%TF.GenerationSoftware,KiCad,Pcbnew,(7.0.0-0)*%
%TF.CreationDate,2023-03-19T21:11:13-07:00*%
%TF.ProjectId,popstar,706f7073-7461-4722-9e6b-696361645f70,rev?*%
%TF.SameCoordinates,Original*%
%TF.FileFunction,Legend,Top*%
%TF.FilePolarity,Positive*%
%FSLAX46Y46*%
G04 Gerber Fmt 4.6, Leading zero omitted, Abs format (unit mm)*
G04 Created by KiCad (PCBNEW (7.0.0-0)) date 2023-03-19 21:11:13*
%MOMM*%
%LPD*%
G01*
G04 APERTURE LIST*
%ADD10C,0.200000*%
%ADD11C,3.987800*%
%ADD12C,3.048000*%
%ADD13C,1.750000*%
%ADD14R,1.700000X1.700000*%
%ADD15O,1.700000X1.700000*%
G04 APERTURE END LIST*
D10*
X212223582Y-117204815D02*
X212266419Y-116993052D01*
X212372978Y-116822629D01*
X212408713Y-116785998D01*
X209050858Y-116644324D02*
X209263585Y-116677519D01*
X209425357Y-116749504D01*
X192696797Y-119247336D02*
X192620209Y-119240598D01*
X206552338Y-118312642D02*
X206755591Y-118279296D01*
X206851799Y-118239195D01*
X198700258Y-118542553D02*
X198598154Y-118547748D01*
X207104808Y-117604186D02*
X207240025Y-117772518D01*
X207283783Y-117970469D01*
X207283830Y-117973327D01*
X215254789Y-117462506D02*
X214975686Y-117462753D01*
X208287597Y-117616751D02*
X208302047Y-117417069D01*
X208348163Y-117218065D01*
X208429527Y-117025320D01*
X208509906Y-116901781D01*
X217665504Y-118491680D02*
X217665175Y-118120679D01*
X217665963Y-119009039D02*
X217665820Y-118847364D01*
X211471260Y-117079547D02*
X211316768Y-116939789D01*
X211174990Y-116909627D01*
X193674788Y-116690306D02*
X193987926Y-116690030D01*
X219276931Y-116332318D02*
X218826945Y-117459334D01*
X201120242Y-118506368D02*
X201119913Y-118135367D01*
X198708553Y-118300883D02*
X198754503Y-118299142D01*
X213374736Y-118003658D02*
X213275229Y-117827915D01*
X213270766Y-117825058D01*
X196394331Y-116696402D02*
X196705768Y-116696126D01*
X211832271Y-117327694D02*
X211833309Y-118496857D01*
X204338835Y-117060351D02*
X204234112Y-117233275D01*
X204188806Y-117430813D01*
X204187717Y-117446802D01*
X199398294Y-116943906D02*
X199541701Y-116800783D01*
X199672089Y-116713914D01*
X203205284Y-116916701D02*
X203204468Y-115996007D01*
X210653935Y-118497904D02*
X210347604Y-118498175D01*
X212910614Y-116625580D02*
X213118378Y-116647697D01*
X213323311Y-116723507D01*
X213485229Y-116844429D01*
X213504769Y-116866714D01*
X200594375Y-118506834D02*
X200282939Y-118507110D01*
X209602501Y-116922934D02*
X209602298Y-116693186D01*
X210637228Y-116933931D02*
X210780635Y-116790808D01*
X210911020Y-116703938D01*
X205829781Y-117210491D02*
X205872616Y-116998728D01*
X205979175Y-116828304D01*
X206014909Y-116791673D01*
X212421303Y-117548411D02*
X212279549Y-117399424D01*
X212223632Y-117207310D01*
X212223582Y-117204815D01*
X208569750Y-119137945D02*
X208428525Y-118984482D01*
X208356456Y-118795414D01*
X208344740Y-118726298D01*
X206150574Y-118164938D02*
X206328608Y-118276692D01*
X206533136Y-118312094D01*
X206552338Y-118312642D01*
X202087201Y-116943222D02*
X202240232Y-116789947D01*
X202431798Y-116694086D01*
X202632758Y-116651949D01*
X202668969Y-116649988D01*
X206141152Y-117135334D02*
X206240386Y-117312821D01*
X206258746Y-117325835D01*
X204310861Y-118135937D02*
X204484898Y-118261845D01*
X204684064Y-118302250D01*
X204690518Y-118302382D01*
X212408713Y-116785998D02*
X212587019Y-116685266D01*
X212784406Y-116636417D01*
X212910614Y-116625580D01*
X196707378Y-118510284D02*
X196395942Y-118510562D01*
X197501891Y-118233881D02*
X197691491Y-118307184D01*
X197731707Y-118310259D01*
X208727111Y-118111595D02*
X208889178Y-118232368D01*
X209064216Y-118271270D01*
X209463090Y-117077927D02*
X209289113Y-116954590D01*
X209107261Y-116914864D01*
X211521871Y-118497134D02*
X211520852Y-117348393D01*
X206614803Y-117744170D02*
X206371385Y-117683122D01*
X196393723Y-116010562D02*
X196705159Y-116010284D01*
X198044779Y-118235100D02*
X198205150Y-118102383D01*
X198289396Y-117910386D01*
X198299692Y-117828136D01*
X209071683Y-119016668D02*
X209292330Y-118977648D01*
X209469801Y-118857547D01*
X209532663Y-118767789D01*
X202668969Y-116649988D02*
X202871908Y-116677809D01*
X203019627Y-116738174D01*
X194835440Y-116689277D02*
X195141772Y-116689004D01*
X196395942Y-118510562D02*
X196394331Y-116696402D01*
X192909089Y-118751913D02*
X192907266Y-116699499D01*
X198625139Y-118272026D02*
X198708553Y-118300883D01*
X205188829Y-117930938D02*
X205490053Y-117930670D01*
X198605418Y-117145426D02*
X198606350Y-118195459D01*
X199398067Y-116685227D02*
X199398294Y-116943906D01*
X197660461Y-118570705D02*
X197451756Y-118535365D01*
X197274321Y-118441813D01*
X197245076Y-118417907D01*
X194709336Y-118418457D02*
X194533070Y-118515114D01*
X194336137Y-118558562D01*
X194284005Y-118561789D01*
X197177662Y-117243699D02*
X197215098Y-117028382D01*
X197319003Y-116845468D01*
X197395084Y-116775500D01*
X207944700Y-116686150D02*
X207946310Y-118500307D01*
X211833309Y-118496857D02*
X211521871Y-118497134D01*
X207283830Y-117973327D02*
X207240987Y-118178696D01*
X207134432Y-118354272D01*
X207098701Y-118393844D01*
X208665053Y-117218185D02*
X208617637Y-117423355D01*
X208602682Y-117624185D01*
X208602458Y-117641998D01*
X206258746Y-117325835D02*
X206446928Y-117397284D01*
X206459630Y-117400538D01*
X199757382Y-116941886D02*
X199579088Y-117048743D01*
X199536276Y-117091842D01*
X202333297Y-118105358D02*
X202497415Y-118246832D01*
X202696800Y-118300382D01*
X202731700Y-118302418D01*
X192906657Y-116013657D02*
X193212989Y-116013384D01*
X213326370Y-117197029D02*
X213253751Y-117009170D01*
X213253022Y-117008190D01*
X197463572Y-117243445D02*
X197177662Y-117243699D01*
X193215447Y-118783976D02*
X193189324Y-118987823D01*
X193151043Y-119081855D01*
X200282939Y-118507110D02*
X200281920Y-117358369D01*
X204692684Y-116906870D02*
X204487986Y-116955514D01*
X204338835Y-117060351D01*
X195934226Y-116010970D02*
X195936446Y-118510969D01*
X205960165Y-118388048D02*
X205851794Y-118219019D01*
X205792103Y-118026339D01*
X205779365Y-117930412D01*
X196705768Y-116696126D02*
X196707378Y-118510284D01*
X209784651Y-118898608D02*
X209647590Y-119070734D01*
X209473364Y-119179308D01*
X209268939Y-119245191D01*
X209066626Y-119270234D01*
X209065102Y-119270247D01*
X211757011Y-116904004D02*
X211813788Y-117103098D01*
X211831968Y-117309040D01*
X211832271Y-117327694D01*
X213008604Y-117738496D02*
X212765189Y-117677446D01*
X209064216Y-118271270D02*
X209276054Y-118224546D01*
X209446329Y-118094243D01*
X209528553Y-117973036D01*
X205410265Y-118155383D02*
X205295205Y-118319824D01*
X205260683Y-118356333D01*
X197731707Y-118310259D02*
X197937752Y-118276141D01*
X198044779Y-118235100D01*
X198368306Y-118435632D02*
X198315400Y-118267196D01*
X213498612Y-117598509D02*
X213633826Y-117766842D01*
X213677584Y-117964793D01*
X213677631Y-117967651D01*
X199436035Y-117279135D02*
X199415573Y-117482246D01*
X199414153Y-117553150D01*
X198606350Y-118195459D02*
X198625139Y-118272026D01*
X219143884Y-115990367D02*
X219405967Y-115990134D01*
X205087354Y-116731232D02*
X205255248Y-116845029D01*
X205364960Y-116965839D01*
X208656178Y-118726023D02*
X208740398Y-118910027D01*
X208744842Y-118914846D01*
X203850914Y-117627497D02*
X203872698Y-117398626D01*
X203936533Y-117181334D01*
X204033345Y-116991213D01*
X204088537Y-116914216D01*
X192620209Y-119240598D02*
X192619974Y-118975111D01*
X209028700Y-118521470D02*
X208822642Y-118488946D01*
X208625005Y-118397644D01*
X208509454Y-118312606D01*
X212765189Y-117677446D02*
X212567648Y-117616580D01*
X212421303Y-117548411D01*
X203498887Y-115995746D02*
X203501113Y-118504254D01*
X205487781Y-117287377D02*
X205509485Y-117486466D01*
X205515363Y-117688191D01*
X205515365Y-117688986D01*
X201885294Y-117632645D02*
X201903795Y-117421143D01*
X201958034Y-117212645D01*
X202040300Y-117022912D01*
X202087201Y-116943222D01*
X197876813Y-116901008D02*
X197677266Y-116936529D01*
X197536561Y-117030651D01*
X201475925Y-118506052D02*
X201120242Y-118506368D01*
X198754503Y-118299142D02*
X198808953Y-118290584D01*
X207098701Y-118393844D02*
X206910401Y-118505284D01*
X206706298Y-118556363D01*
X206537252Y-118571335D01*
X210636999Y-116675250D02*
X210637228Y-116933931D01*
X204665227Y-118567890D02*
X204458126Y-118537815D01*
X204268589Y-118456410D01*
X204104919Y-118337811D01*
X204088086Y-118321635D01*
X213504769Y-116866714D02*
X213593860Y-117051637D01*
X213615681Y-117196771D01*
X204088537Y-116914216D02*
X204260218Y-116770718D01*
X204465167Y-116680965D01*
X204661514Y-116642577D01*
X204711167Y-116639665D01*
X204711167Y-116639665D02*
X204915452Y-116668561D01*
X205087354Y-116731232D01*
X208509906Y-116901781D02*
X208666123Y-116767201D01*
X208864535Y-116676611D01*
X209050858Y-116644324D01*
X193212989Y-116013384D02*
X193213304Y-116367368D01*
X203204468Y-115996007D02*
X203498887Y-115995746D01*
X207632654Y-116000584D02*
X207944091Y-116000309D01*
X202636637Y-118569692D02*
X202425653Y-118529991D01*
X202241352Y-118430453D01*
X202108840Y-118314883D01*
X206980931Y-118009333D02*
X206881424Y-117833590D01*
X206876961Y-117830733D01*
X208344740Y-118726298D02*
X208656178Y-118726023D01*
X198315400Y-118267196D02*
X198167282Y-118404737D01*
X198046698Y-118480164D01*
X195143390Y-118511672D02*
X194854078Y-118511929D01*
X194773640Y-118004853D02*
X194821057Y-117804499D01*
X194836009Y-117602558D01*
X194836234Y-117584443D01*
X198307644Y-117198447D02*
X198235702Y-117007855D01*
X198195120Y-116972203D01*
X197657779Y-117466214D02*
X198146150Y-117404514D01*
X206073783Y-117930151D02*
X206126892Y-118125197D01*
X206150574Y-118164938D01*
X204690518Y-118302382D02*
X204901684Y-118258945D01*
X205069564Y-118147685D01*
X205073292Y-118143770D01*
X206932566Y-117202704D02*
X206859947Y-117014845D01*
X206859218Y-117013865D01*
X206662194Y-117449711D02*
X206870666Y-117507468D01*
X207060684Y-117580514D01*
X207104808Y-117604186D01*
X204088086Y-118321635D02*
X203964165Y-118137081D01*
X203893289Y-117936205D01*
X203858231Y-117738487D01*
X203850914Y-117627497D01*
X197395084Y-116775500D02*
X197581166Y-116691880D01*
X197784499Y-116649411D01*
X197883393Y-116642324D01*
X214975686Y-117462753D02*
X215571728Y-115993537D01*
X209107261Y-116914864D02*
X208901753Y-116962379D01*
X208740475Y-117094905D01*
X208665053Y-117218185D01*
X201475596Y-118135050D02*
X201475925Y-118506052D01*
X206459630Y-117400538D02*
X206662194Y-117449711D01*
X209591763Y-118245274D02*
X209455160Y-118394872D01*
X209370710Y-118453094D01*
X194836234Y-117584443D02*
X194835440Y-116689277D01*
X207634874Y-118500584D02*
X207633263Y-116686426D01*
X193989000Y-117900036D02*
X194021333Y-118098202D01*
X194033451Y-118128042D01*
X207632962Y-116347760D02*
X207632654Y-116000584D01*
X203217799Y-117594021D02*
X203200300Y-117393056D01*
X203140205Y-117193932D01*
X203076094Y-117083595D01*
X203080417Y-118120012D02*
X203166920Y-117938427D01*
X203208677Y-117729847D01*
X203217799Y-117594021D01*
X209603086Y-117579844D02*
X209581084Y-117358545D01*
X209513542Y-117159571D01*
X209463090Y-117077927D01*
X209886275Y-118350526D02*
X209873937Y-118556789D01*
X209835578Y-118754757D01*
X209784651Y-118898608D01*
X197404702Y-118024641D02*
X197479373Y-118212087D01*
X197501891Y-118233881D01*
X205779365Y-117930412D02*
X206073783Y-117930151D01*
X213253022Y-117008190D02*
X213075505Y-116912809D01*
X212887020Y-116887684D01*
X192907266Y-116699499D02*
X193213598Y-116699226D01*
X199415002Y-118507881D02*
X199108671Y-118508153D01*
X207946310Y-118500307D02*
X207634874Y-118500584D01*
X198195120Y-116972203D02*
X197994461Y-116909838D01*
X197876813Y-116901008D01*
X199993673Y-116643853D02*
X200213394Y-116676837D01*
X200401383Y-116778787D01*
X200518079Y-116913980D01*
X208744842Y-118914846D02*
X208934198Y-119001480D01*
X209071683Y-119016668D01*
X219730621Y-117458533D02*
X219276931Y-116332318D01*
X217851005Y-118491516D02*
X217665504Y-118491680D01*
X217665820Y-118847364D02*
X217818977Y-118710495D01*
X217830752Y-118682140D01*
X210347604Y-118498175D02*
X210345985Y-116675509D01*
X198299692Y-117828136D02*
X198299474Y-117581368D01*
X210674967Y-117269159D02*
X210654505Y-117472271D01*
X210653085Y-117543175D01*
X212353971Y-118382372D02*
X212245599Y-118213344D01*
X212185906Y-118020665D01*
X212173166Y-117924739D01*
X192906972Y-116367640D02*
X192906657Y-116013657D01*
X197981313Y-117675254D02*
X197795833Y-117699244D01*
X196705159Y-116010284D02*
X196705467Y-116357461D01*
X207944091Y-116000309D02*
X207944399Y-116347484D01*
X206014909Y-116791673D02*
X206193215Y-116690941D01*
X206390601Y-116642093D01*
X206516808Y-116631256D01*
X218826945Y-117459334D02*
X218547843Y-117459583D01*
X210996317Y-116931909D02*
X210818021Y-117038768D01*
X210775209Y-117081868D01*
X196705467Y-116357461D02*
X196394030Y-116357738D01*
X207944399Y-116347484D02*
X207632962Y-116347760D01*
X198598154Y-118547748D02*
X198404758Y-118476149D01*
X198368306Y-118435632D01*
X197545727Y-117769240D02*
X197422271Y-117926982D01*
X197404702Y-118024641D01*
X193987926Y-116690030D02*
X193989000Y-117900036D01*
X203076094Y-117083595D02*
X202903521Y-116957685D01*
X202727067Y-116917125D01*
X209884804Y-116692936D02*
X209886275Y-118350526D01*
X217856147Y-118534057D02*
X217854428Y-118511934D01*
X209370710Y-118453094D02*
X209177913Y-118509222D01*
X209028700Y-118521470D01*
X212534952Y-117129658D02*
X212634188Y-117307146D01*
X212652548Y-117320160D01*
X205200308Y-117445903D02*
X205160753Y-117245494D01*
X205113235Y-117127737D01*
X197245076Y-118417907D02*
X197130161Y-118243666D01*
X197085385Y-118047510D01*
X197084761Y-118031734D01*
X199672089Y-116713914D02*
X199875213Y-116654420D01*
X199993673Y-116643853D01*
X205073292Y-118143770D02*
X205176242Y-117967699D01*
X205188829Y-117930938D01*
X199108671Y-118508153D02*
X199107053Y-116685484D01*
X196394030Y-116357738D02*
X196393723Y-116010562D01*
X197084761Y-118031734D02*
X197121288Y-117828159D01*
X197228088Y-117653031D01*
X197242682Y-117638468D01*
X198154870Y-117641061D02*
X197981313Y-117675254D01*
X212623293Y-116954290D02*
X212534952Y-117129658D01*
X216158462Y-117461704D02*
X215704773Y-116335488D01*
X212887020Y-116887684D02*
X212682022Y-116924159D01*
X212623293Y-116954290D01*
X200281920Y-117358369D02*
X200254750Y-117152956D01*
X200232328Y-117089524D01*
X206229492Y-116959966D02*
X206141152Y-117135334D01*
X202731700Y-118302418D02*
X202935521Y-118244620D01*
X203080417Y-118120012D01*
X203019627Y-116738174D02*
X203168091Y-116873656D01*
X203205284Y-116916701D01*
X205364960Y-116965839D02*
X205453132Y-117153833D01*
X205487781Y-117287377D01*
X213677631Y-117967651D02*
X213634789Y-118173020D01*
X213528235Y-118348597D01*
X213492504Y-118388169D01*
X215571728Y-115993537D02*
X215833809Y-115993305D01*
X215704773Y-116335488D02*
X215254789Y-117462506D01*
X213492504Y-118388169D02*
X213304205Y-118499609D01*
X213100102Y-118550687D01*
X212931057Y-118565659D01*
X220008020Y-117458288D02*
X219730621Y-117458533D01*
X206493216Y-116893360D02*
X206288219Y-116929835D01*
X206229492Y-116959966D01*
X210775209Y-117081868D02*
X210677662Y-117259609D01*
X210674967Y-117269159D01*
X193752801Y-118301880D02*
X193692076Y-118107420D01*
X193675888Y-117929245D01*
X194857242Y-118243037D02*
X194727710Y-118402349D01*
X194709336Y-118418457D01*
X212173166Y-117924739D02*
X212467586Y-117924476D01*
X200518079Y-116913980D02*
X200574856Y-117113074D01*
X200593035Y-117319017D01*
X200593338Y-117337671D01*
X205515365Y-117688986D02*
X204179424Y-117690171D01*
X210911020Y-116703938D02*
X211114147Y-116644444D01*
X211232609Y-116633877D01*
X211520852Y-117348393D02*
X211493682Y-117142979D01*
X211471260Y-117079547D01*
X202208627Y-117615340D02*
X202228216Y-117815394D01*
X202288364Y-118014501D01*
X202333297Y-118105358D01*
X205113235Y-117127737D02*
X204959803Y-116978525D01*
X204764818Y-116913557D01*
X204692684Y-116906870D01*
X194284005Y-118561789D02*
X194062768Y-118530057D01*
X193872257Y-118431963D01*
X193752801Y-118301880D01*
X206027499Y-117554088D02*
X205885747Y-117405100D01*
X205829831Y-117212986D01*
X205829781Y-117210491D01*
X209425357Y-116749504D02*
X209574299Y-116889382D01*
X209602501Y-116922934D01*
X197883393Y-116642324D02*
X198100739Y-116661276D01*
X198297306Y-116714650D01*
X198405966Y-116764393D01*
X194033451Y-118128042D02*
X194191397Y-118262202D01*
X194338224Y-118291150D01*
X195630115Y-118511240D02*
X195627896Y-116011243D01*
X208509454Y-118312606D02*
X208393558Y-118142832D01*
X208327261Y-117942019D01*
X208294454Y-117735678D01*
X208287597Y-117616751D01*
X199936057Y-116919602D02*
X199757382Y-116941886D01*
X207110968Y-116872390D02*
X207200056Y-117057313D01*
X207221877Y-117202447D01*
X198809154Y-118516928D02*
X198700258Y-118542553D01*
X198808953Y-118290584D02*
X198809154Y-118516928D01*
X202727067Y-116917125D02*
X202521547Y-116965671D01*
X202357781Y-117086838D01*
X202351120Y-117094449D01*
X211232609Y-116633877D02*
X211452328Y-116666862D01*
X211640316Y-116768811D01*
X211757011Y-116904004D01*
X219405967Y-115990134D02*
X220008020Y-117458288D01*
X209532663Y-118767789D02*
X209577476Y-118559984D01*
X209590628Y-118353992D01*
X209591763Y-118245274D01*
X195627896Y-116011243D02*
X195934226Y-116010970D01*
X210653085Y-117543175D02*
X210653935Y-118497904D01*
X193675888Y-117929245D02*
X193674788Y-116690306D01*
X202971832Y-118494513D02*
X202774742Y-118556241D01*
X202636637Y-118569692D01*
X192866707Y-118937450D02*
X192909089Y-118751913D01*
X212853431Y-117394862D02*
X213055995Y-117444037D01*
X212652548Y-117320160D02*
X212840729Y-117391608D01*
X212853431Y-117394862D01*
X204187717Y-117446802D02*
X205200308Y-117445903D01*
X206851799Y-118239195D02*
X206972313Y-118070271D01*
X206980931Y-118009333D01*
X212946144Y-118306966D02*
X213149395Y-118273621D01*
X213245600Y-118233521D01*
X208602458Y-117641998D02*
X208622050Y-117845323D01*
X208687742Y-118044230D01*
X208727111Y-118111595D01*
X202108840Y-118314883D02*
X201992039Y-118128376D01*
X201925236Y-117930755D01*
X201890331Y-117720390D01*
X201885294Y-117632645D01*
X194338224Y-118291150D02*
X194541234Y-118246295D01*
X194699881Y-118121208D01*
X194773640Y-118004853D01*
X192744451Y-119248997D02*
X192696797Y-119247336D01*
X212544378Y-118159262D02*
X212722412Y-118271016D01*
X212926942Y-118306418D01*
X212946144Y-118306966D01*
X206859218Y-117013865D02*
X206681702Y-116918484D01*
X206493216Y-116893360D01*
X203501113Y-118504254D02*
X203225414Y-118504498D01*
X212931057Y-118565659D02*
X212726762Y-118548878D01*
X212527421Y-118491259D01*
X212355983Y-118384434D01*
X212353971Y-118382372D01*
X209065102Y-119270247D02*
X208863496Y-119249684D01*
X208662031Y-119185785D01*
X208569750Y-119137945D01*
X210345985Y-116675509D02*
X210636999Y-116675250D01*
X203225414Y-118504498D02*
X203225187Y-118250925D01*
X216435863Y-117461458D02*
X216158462Y-117461704D01*
X217830752Y-118682140D02*
X217856147Y-118534057D01*
X215833809Y-115993305D02*
X216435863Y-117461458D01*
X206516808Y-116631256D02*
X206724573Y-116653372D01*
X206929507Y-116729182D01*
X207091428Y-116850105D01*
X207110968Y-116872390D01*
X195141772Y-116689004D02*
X195143390Y-118511672D01*
X198146150Y-117404514D02*
X198287324Y-117315893D01*
X207221877Y-117202447D02*
X206932566Y-117202704D01*
X205490053Y-117930670D02*
X205426388Y-118123490D01*
X205410265Y-118155383D01*
X197536561Y-117030651D02*
X197467088Y-117220254D01*
X197463572Y-117243445D01*
X193151043Y-119081855D02*
X192975343Y-119208073D01*
X192772798Y-119247872D01*
X192744451Y-119248997D01*
X194854078Y-118511929D02*
X194857242Y-118243037D01*
X217665175Y-118120679D02*
X218029369Y-118120355D01*
X202351120Y-117094449D02*
X202254795Y-117293745D01*
X202216061Y-117497228D01*
X202208627Y-117615340D01*
X200232328Y-117089524D02*
X200077836Y-116949765D01*
X199936057Y-116919602D01*
X197795833Y-117699244D02*
X197600674Y-117745318D01*
X197545727Y-117769240D01*
X198405966Y-116764393D02*
X198548946Y-116922852D01*
X198604083Y-117120747D01*
X198605418Y-117145426D01*
X203225187Y-118250925D02*
X203087719Y-118411295D01*
X202971832Y-118494513D01*
X217948302Y-118819883D02*
X217799595Y-118960457D01*
X217665963Y-119009039D01*
X213615681Y-117196771D02*
X213326370Y-117197029D01*
X204915373Y-118540438D02*
X204715213Y-118566409D01*
X204665227Y-118567890D01*
X206537252Y-118571335D02*
X206332957Y-118554554D01*
X206133616Y-118496934D01*
X205962177Y-118390110D01*
X205960165Y-118388048D01*
X199414153Y-117553150D02*
X199415002Y-118507881D01*
X193213598Y-116699226D02*
X193215447Y-118783976D01*
X206876961Y-117830733D02*
X206680242Y-117761702D01*
X206614803Y-117744170D01*
X201119913Y-118135367D02*
X201475596Y-118135050D01*
X213245600Y-118233521D02*
X213366118Y-118064597D01*
X213374736Y-118003658D01*
X206371385Y-117683122D02*
X206173845Y-117622256D01*
X206027499Y-117554088D01*
X198046698Y-118480164D02*
X197847493Y-118548517D01*
X197660461Y-118570705D01*
X204179424Y-117690171D02*
X204208582Y-117897029D01*
X204282139Y-118088420D01*
X204310861Y-118135937D01*
X217854428Y-118511934D02*
X217851005Y-118491516D01*
X209602298Y-116693186D02*
X209884804Y-116692936D01*
X198299474Y-117581368D02*
X198154870Y-117641061D01*
X213270766Y-117825058D02*
X213074044Y-117756027D01*
X213008604Y-117738496D01*
X205260683Y-118356333D02*
X205090151Y-118474470D01*
X204915373Y-118540438D01*
X199536276Y-117091842D02*
X199438730Y-117269586D01*
X199436035Y-117279135D01*
X218547843Y-117459583D02*
X219143884Y-115990367D01*
X193213304Y-116367368D02*
X192906972Y-116367640D01*
X209528553Y-117973036D02*
X209584976Y-117774558D01*
X209603086Y-117579844D01*
X218029369Y-118120355D02*
X218029674Y-118464127D01*
X213055995Y-117444037D02*
X213264468Y-117501793D01*
X213454487Y-117574838D01*
X213498612Y-117598509D01*
X200593338Y-117337671D02*
X200594375Y-118506834D01*
X218029674Y-118464127D02*
X218004006Y-118665688D01*
X217948302Y-118819883D01*
X207633263Y-116686426D02*
X207944700Y-116686150D01*
X192619974Y-118975111D02*
X192820559Y-118953659D01*
X192866707Y-118937450D01*
X212467586Y-117924476D02*
X212520696Y-118119522D01*
X212544378Y-118159262D01*
X195936446Y-118510969D02*
X195630115Y-118511240D01*
X199107053Y-116685484D02*
X199398067Y-116685227D01*
X198287324Y-117315893D02*
X198307644Y-117198447D01*
X197242682Y-117638468D02*
X197426345Y-117529358D01*
X197624616Y-117471669D01*
X197657779Y-117466214D01*
X211174990Y-116909627D02*
X210996317Y-116931909D01*
%LPC*%
D11*
%TO.C,S4*%
X65087500Y-106680000D03*
X41275000Y-106680000D03*
D12*
X41275000Y-91440000D03*
X65087500Y-91440000D03*
%TD*%
D13*
%TO.C,SW15*%
X293370000Y-41275000D03*
D11*
X298450000Y-41275000D03*
D13*
X303530000Y-41275000D03*
%TD*%
%TO.C,SW22*%
X140970000Y-60325000D03*
D11*
X146050000Y-60325000D03*
D13*
X151130000Y-60325000D03*
%TD*%
D12*
%TO.C,S1*%
X286543750Y-34290000D03*
D11*
X286543750Y-49530000D03*
D12*
X310356250Y-34290000D03*
D11*
X310356250Y-49530000D03*
%TD*%
D13*
%TO.C,SW55*%
X302895000Y-98425000D03*
D11*
X307975000Y-98425000D03*
D13*
X313055000Y-98425000D03*
%TD*%
%TO.C,SW29*%
X274320000Y-60325000D03*
D11*
X279400000Y-60325000D03*
D13*
X284480000Y-60325000D03*
%TD*%
%TO.C,SW33*%
X107632500Y-79375000D03*
D11*
X112712500Y-79375000D03*
D13*
X117792500Y-79375000D03*
%TD*%
%TO.C,SW25*%
X198120000Y-60325000D03*
D11*
X203200000Y-60325000D03*
D13*
X208280000Y-60325000D03*
%TD*%
%TO.C,SW53*%
X250507500Y-98425000D03*
D11*
X255587500Y-98425000D03*
D13*
X260667500Y-98425000D03*
%TD*%
%TO.C,SW17*%
X40957500Y-60325000D03*
D11*
X46037500Y-60325000D03*
D13*
X51117500Y-60325000D03*
%TD*%
%TO.C,SW41*%
X260032500Y-79375000D03*
D11*
X265112500Y-79375000D03*
D13*
X270192500Y-79375000D03*
%TD*%
D12*
%TO.C,S2*%
X284162500Y-72390000D03*
D11*
X284162500Y-87630000D03*
D12*
X307975000Y-72390000D03*
D11*
X307975000Y-87630000D03*
%TD*%
D13*
%TO.C,SW36*%
X164782500Y-79375000D03*
D11*
X169862500Y-79375000D03*
D13*
X174942500Y-79375000D03*
%TD*%
%TO.C,SW47*%
X136207500Y-98425000D03*
D11*
X141287500Y-98425000D03*
D13*
X146367500Y-98425000D03*
%TD*%
%TO.C,SW11*%
X207645000Y-41275000D03*
D11*
X212725000Y-41275000D03*
D13*
X217805000Y-41275000D03*
%TD*%
%TO.C,SW45*%
X98107500Y-98425000D03*
D11*
X103187500Y-98425000D03*
D13*
X108267500Y-98425000D03*
%TD*%
%TO.C,SW57*%
X88582500Y-117475000D03*
D11*
X93662500Y-117475000D03*
D13*
X98742500Y-117475000D03*
%TD*%
%TO.C,SW56*%
X40957500Y-117475000D03*
D11*
X46037500Y-117475000D03*
D13*
X51117500Y-117475000D03*
%TD*%
%TO.C,SW24*%
X179070000Y-60325000D03*
D11*
X184150000Y-60325000D03*
D13*
X189230000Y-60325000D03*
%TD*%
%TO.C,SW59*%
X250507500Y-117475000D03*
D11*
X255587500Y-117475000D03*
D13*
X260667500Y-117475000D03*
%TD*%
%TO.C,SW7*%
X131445000Y-41275000D03*
D11*
X136525000Y-41275000D03*
D13*
X141605000Y-41275000D03*
%TD*%
%TO.C,SW20*%
X102870000Y-60325000D03*
D11*
X107950000Y-60325000D03*
D13*
X113030000Y-60325000D03*
%TD*%
%TO.C,SW2*%
X36195000Y-41275000D03*
D11*
X41275000Y-41275000D03*
D13*
X46355000Y-41275000D03*
%TD*%
%TO.C,SW31*%
X69532500Y-79375000D03*
D11*
X74612500Y-79375000D03*
D13*
X79692500Y-79375000D03*
%TD*%
%TO.C,SW27*%
X236220000Y-60325000D03*
D11*
X241300000Y-60325000D03*
D13*
X246380000Y-60325000D03*
%TD*%
%TO.C,SW32*%
X88582500Y-79375000D03*
D11*
X93662500Y-79375000D03*
D13*
X98742500Y-79375000D03*
%TD*%
%TO.C,SW34*%
X126682500Y-79375000D03*
D11*
X131762500Y-79375000D03*
D13*
X136842500Y-79375000D03*
%TD*%
%TO.C,SW37*%
X183832500Y-79375000D03*
D11*
X188912500Y-79375000D03*
D13*
X193992500Y-79375000D03*
%TD*%
%TO.C,SW10*%
X188595000Y-41275000D03*
D11*
X193675000Y-41275000D03*
D13*
X198755000Y-41275000D03*
%TD*%
%TO.C,SW21*%
X121920000Y-60325000D03*
D11*
X127000000Y-60325000D03*
D13*
X132080000Y-60325000D03*
%TD*%
%TO.C,SW3*%
X55245000Y-41275000D03*
D11*
X60325000Y-41275000D03*
D13*
X65405000Y-41275000D03*
%TD*%
%TO.C,SW38*%
X202882500Y-79375000D03*
D11*
X207962500Y-79375000D03*
D13*
X213042500Y-79375000D03*
%TD*%
%TO.C,SW50*%
X193357500Y-98425000D03*
D11*
X198437500Y-98425000D03*
D13*
X203517500Y-98425000D03*
%TD*%
%TO.C,SW52*%
X231457500Y-98425000D03*
D11*
X236537500Y-98425000D03*
D13*
X241617500Y-98425000D03*
%TD*%
%TO.C,SW13*%
X245745000Y-41275000D03*
D11*
X250825000Y-41275000D03*
D13*
X255905000Y-41275000D03*
%TD*%
%TO.C,SW35*%
X145732500Y-79375000D03*
D11*
X150812500Y-79375000D03*
D13*
X155892500Y-79375000D03*
%TD*%
D11*
%TO.C,S3*%
X231775000Y-109220000D03*
X117475000Y-109220000D03*
%TD*%
D13*
%TO.C,SW39*%
X221932500Y-79375000D03*
D11*
X227012500Y-79375000D03*
D13*
X232092500Y-79375000D03*
%TD*%
%TO.C,SW23*%
X160020000Y-60325000D03*
D11*
X165100000Y-60325000D03*
D13*
X170180000Y-60325000D03*
%TD*%
%TO.C,SW51*%
X212407500Y-98425000D03*
D11*
X217487500Y-98425000D03*
D13*
X222567500Y-98425000D03*
%TD*%
%TO.C,SW43*%
X48101250Y-98425000D03*
D11*
X53181250Y-98425000D03*
D13*
X58261250Y-98425000D03*
%TD*%
%TO.C,SW61*%
X302895000Y-41275000D03*
D11*
X307975000Y-41275000D03*
D13*
X313055000Y-41275000D03*
%TD*%
%TO.C,SW44*%
X79057500Y-98425000D03*
D11*
X84137500Y-98425000D03*
D13*
X89217500Y-98425000D03*
%TD*%
%TO.C,SW58*%
X169545000Y-117475000D03*
D11*
X174625000Y-117475000D03*
D13*
X179705000Y-117475000D03*
%TD*%
%TO.C,SW18*%
X64770000Y-60325000D03*
D11*
X69850000Y-60325000D03*
D13*
X74930000Y-60325000D03*
%TD*%
%TO.C,SW5*%
X93345000Y-41275000D03*
D11*
X98425000Y-41275000D03*
D13*
X103505000Y-41275000D03*
%TD*%
%TO.C,SW6*%
X112395000Y-41275000D03*
D11*
X117475000Y-41275000D03*
D13*
X122555000Y-41275000D03*
%TD*%
%TO.C,SW28*%
X255270000Y-60325000D03*
D11*
X260350000Y-60325000D03*
D13*
X265430000Y-60325000D03*
%TD*%
%TO.C,SW48*%
X155257500Y-98425000D03*
D11*
X160337500Y-98425000D03*
D13*
X165417500Y-98425000D03*
%TD*%
%TO.C,SW60*%
X298132500Y-117475000D03*
D11*
X303212500Y-117475000D03*
D13*
X308292500Y-117475000D03*
%TD*%
%TO.C,SW49*%
X174307500Y-98425000D03*
D11*
X179387500Y-98425000D03*
D13*
X184467500Y-98425000D03*
%TD*%
%TO.C,SW30*%
X38576250Y-79375000D03*
D11*
X43656250Y-79375000D03*
D13*
X48736250Y-79375000D03*
%TD*%
%TO.C,SW26*%
X217170000Y-60325000D03*
D11*
X222250000Y-60325000D03*
D13*
X227330000Y-60325000D03*
%TD*%
%TO.C,SW62*%
X298132500Y-60325000D03*
D11*
X303212500Y-60325000D03*
D13*
X308292500Y-60325000D03*
%TD*%
%TO.C,SW16*%
X283845000Y-41275000D03*
D11*
X288925000Y-41275000D03*
D13*
X294005000Y-41275000D03*
%TD*%
%TO.C,SW14*%
X264795000Y-41275000D03*
D11*
X269875000Y-41275000D03*
D13*
X274955000Y-41275000D03*
%TD*%
%TO.C,SW46*%
X117157500Y-98425000D03*
D11*
X122237500Y-98425000D03*
D13*
X127317500Y-98425000D03*
%TD*%
%TO.C,SW40*%
X240982500Y-79375000D03*
D11*
X246062500Y-79375000D03*
D13*
X251142500Y-79375000D03*
%TD*%
%TO.C,SW12*%
X226695000Y-41275000D03*
D11*
X231775000Y-41275000D03*
D13*
X236855000Y-41275000D03*
%TD*%
%TO.C,SW9*%
X169545000Y-41275000D03*
D11*
X174625000Y-41275000D03*
D13*
X179705000Y-41275000D03*
%TD*%
%TO.C,SW19*%
X83820000Y-60325000D03*
D11*
X88900000Y-60325000D03*
D13*
X93980000Y-60325000D03*
%TD*%
%TO.C,SW42*%
X290988750Y-79375000D03*
D11*
X296068750Y-79375000D03*
D13*
X301148750Y-79375000D03*
%TD*%
%TO.C,SW4*%
X74295000Y-41275000D03*
D11*
X79375000Y-41275000D03*
D13*
X84455000Y-41275000D03*
%TD*%
%TO.C,SW8*%
X150495000Y-41275000D03*
D11*
X155575000Y-41275000D03*
D13*
X160655000Y-41275000D03*
%TD*%
%TO.C,SW54*%
X276701250Y-98425000D03*
D11*
X281781250Y-98425000D03*
D13*
X286861250Y-98425000D03*
%TD*%
D14*
%TO.C,J2*%
X39919999Y-69341999D03*
D15*
X42459999Y-69341999D03*
X44999999Y-69341999D03*
X47539999Y-69341999D03*
X50079999Y-69341999D03*
%TD*%
D14*
%TO.C,SW1*%
X88336249Y-69874999D03*
D15*
X85796249Y-69874999D03*
%TD*%
M02*
