%TF.GenerationSoftware,KiCad,Pcbnew,(7.0.0-0)*%
%TF.CreationDate,2023-03-18T23:54:28-07:00*%
%TF.ProjectId,popstar,706f7073-7461-4722-9e6b-696361645f70,rev?*%
%TF.SameCoordinates,Original*%
%TF.FileFunction,Legend,Top*%
%TF.FilePolarity,Positive*%
%FSLAX46Y46*%
G04 Gerber Fmt 4.6, Leading zero omitted, Abs format (unit mm)*
G04 Created by KiCad (PCBNEW (7.0.0-0)) date 2023-03-18 23:54:28*
%MOMM*%
%LPD*%
G01*
G04 APERTURE LIST*
G04 Aperture macros list*
%AMRoundRect*
0 Rectangle with rounded corners*
0 $1 Rounding radius*
0 $2 $3 $4 $5 $6 $7 $8 $9 X,Y pos of 4 corners*
0 Add a 4 corners polygon primitive as box body*
4,1,4,$2,$3,$4,$5,$6,$7,$8,$9,$2,$3,0*
0 Add four circle primitives for the rounded corners*
1,1,$1+$1,$2,$3*
1,1,$1+$1,$4,$5*
1,1,$1+$1,$6,$7*
1,1,$1+$1,$8,$9*
0 Add four rect primitives between the rounded corners*
20,1,$1+$1,$2,$3,$4,$5,0*
20,1,$1+$1,$4,$5,$6,$7,0*
20,1,$1+$1,$6,$7,$8,$9,0*
20,1,$1+$1,$8,$9,$2,$3,0*%
G04 Aperture macros list end*
%ADD10C,0.200000*%
%ADD11C,0.150000*%
%ADD12C,0.120000*%
%ADD13C,3.987800*%
%ADD14C,3.048000*%
%ADD15C,1.750000*%
%ADD16RoundRect,0.140000X-0.170000X0.140000X-0.170000X-0.140000X0.170000X-0.140000X0.170000X0.140000X0*%
%ADD17RoundRect,0.105000X-0.245000X-0.245000X0.245000X-0.245000X0.245000X0.245000X-0.245000X0.245000X0*%
%ADD18RoundRect,0.105000X0.245000X0.245000X-0.245000X0.245000X-0.245000X-0.245000X0.245000X-0.245000X0*%
%ADD19R,1.700000X1.700000*%
%ADD20O,1.700000X1.700000*%
G04 APERTURE END LIST*
D10*
X201395554Y-112150440D02*
X201438391Y-111938677D01*
X201544950Y-111768254D01*
X201580685Y-111731623D01*
D11*
X278009603Y-110864254D02*
X278159426Y-110757232D01*
X278311486Y-110660378D01*
X278466299Y-110574558D01*
X278624382Y-110500638D01*
X278786250Y-110439485D01*
X278952420Y-110391966D01*
X279123409Y-110358947D01*
X279299734Y-110341296D01*
X281449507Y-112176198D02*
X281559630Y-112297918D01*
X281676936Y-112429872D01*
X281803255Y-112574463D01*
X281905008Y-112692645D01*
X282013633Y-112820300D01*
X282129899Y-112958443D01*
X282254581Y-113108086D01*
X282388448Y-113270245D01*
X282532274Y-113445931D01*
X282634072Y-113571072D01*
D10*
X198222830Y-111589949D02*
X198435557Y-111623144D01*
X198597329Y-111695129D01*
X181868769Y-114192961D02*
X181792181Y-114186223D01*
X195724310Y-113258267D02*
X195927563Y-113224921D01*
X196023771Y-113184820D01*
D11*
X69850617Y-124986389D02*
X69673489Y-125034762D01*
X69505529Y-125080265D01*
X69346287Y-125123034D01*
X69195314Y-125163204D01*
X68983374Y-125218882D01*
X68787510Y-125269474D01*
X68606204Y-125315438D01*
X68437939Y-125357231D01*
X68281198Y-125395310D01*
X68134463Y-125430133D01*
X67951759Y-125472287D01*
X67864943Y-125491837D01*
D10*
X187872230Y-113488178D02*
X187770126Y-113493373D01*
X196276780Y-112549811D02*
X196411997Y-112718143D01*
X196455755Y-112916094D01*
X196455802Y-112918952D01*
X204426761Y-112408131D02*
X204147658Y-112408378D01*
X197459569Y-112562376D02*
X197474019Y-112362694D01*
X197520135Y-112163690D01*
X197601499Y-111970945D01*
X197681878Y-111847406D01*
X206837476Y-113437305D02*
X206837147Y-113066304D01*
D11*
X284776397Y-124456034D02*
X284717880Y-124628327D01*
X284652307Y-124787776D01*
X284579003Y-124934584D01*
X284497294Y-125068957D01*
X284406505Y-125191101D01*
X284279222Y-125326897D01*
X284135379Y-125444308D01*
X284072910Y-125486215D01*
D10*
X206837935Y-113954664D02*
X206837792Y-113792989D01*
X200643232Y-112025172D02*
X200488740Y-111885414D01*
X200346962Y-111855252D01*
D11*
X76788168Y-115512374D02*
X76933867Y-115621300D01*
X77065174Y-115732967D01*
X77182074Y-115848079D01*
X77284554Y-115967340D01*
X77372597Y-116091456D01*
X77462329Y-116254501D01*
X77529453Y-116427607D01*
X77549967Y-116499976D01*
D10*
X182846760Y-111635931D02*
X183159898Y-111635655D01*
X208448903Y-111277943D02*
X207998917Y-112404959D01*
X190292214Y-113451993D02*
X190291885Y-113080992D01*
X187880525Y-113246508D02*
X187926475Y-113244767D01*
X202546708Y-112949283D02*
X202447201Y-112773540D01*
X202442738Y-112770683D01*
X185566303Y-111642027D02*
X185877740Y-111641751D01*
X201004243Y-112273319D02*
X201005281Y-113442482D01*
D11*
X72151522Y-125559549D02*
X71990858Y-125525839D01*
X71818367Y-125488074D01*
X71631157Y-125445387D01*
X71479349Y-125409618D01*
X71316415Y-125370227D01*
X71141133Y-125326846D01*
X70952285Y-125279110D01*
X70748648Y-125226653D01*
X70529004Y-125169109D01*
X70373079Y-125127739D01*
X287533352Y-117580577D02*
X287482455Y-117742551D01*
X287422488Y-117908539D01*
X287351934Y-118081817D01*
X287286849Y-118227889D01*
X287213243Y-118382400D01*
X287130340Y-118547026D01*
X287037363Y-118723446D01*
X287012454Y-118769591D01*
D10*
X193510807Y-112005976D02*
X193406084Y-112178900D01*
X193360778Y-112376438D01*
X193359689Y-112392427D01*
D11*
X65973617Y-113572456D02*
X66079876Y-113440304D01*
X66181138Y-113314883D01*
X66277651Y-113195870D01*
X66414053Y-113028657D01*
X66541155Y-112874042D01*
X66659792Y-112730935D01*
X66770796Y-112598244D01*
X66875001Y-112474879D01*
X66973239Y-112359748D01*
X67096382Y-112217163D01*
X67212374Y-112084692D01*
X273619872Y-120784745D02*
X273519153Y-120631372D01*
X273423997Y-120485825D01*
X273334134Y-120347718D01*
X273249298Y-120216665D01*
X273130882Y-120032470D01*
X273022268Y-119861981D01*
X272922554Y-119703895D01*
X272830835Y-119556913D01*
X272746208Y-119419733D01*
X272667769Y-119291055D01*
X272571247Y-119130461D01*
X272525840Y-119054002D01*
D10*
X188570266Y-111889531D02*
X188713673Y-111746408D01*
X188844061Y-111659539D01*
D11*
X273632515Y-114879180D02*
X273782400Y-114812014D01*
X273944248Y-114741176D01*
X274120912Y-114665665D01*
X274264849Y-114605365D01*
X274419930Y-114541452D01*
X274587357Y-114473507D01*
X274768336Y-114401106D01*
X274964070Y-114323829D01*
X275175762Y-114241255D01*
X275326352Y-114183054D01*
D10*
X192377256Y-111862326D02*
X192376440Y-110941632D01*
X199825907Y-113443529D02*
X199519576Y-113443800D01*
D11*
X274703771Y-113889058D02*
X274862915Y-113826536D01*
X275007433Y-113770259D01*
X275160265Y-113711212D01*
X275322193Y-113649123D01*
X275464646Y-113594861D01*
X275523651Y-113572477D01*
D10*
X202082586Y-111571205D02*
X202290350Y-111593322D01*
X202495283Y-111669132D01*
X202657201Y-111790054D01*
X202676741Y-111812339D01*
X189766347Y-113452459D02*
X189454911Y-113452735D01*
X198774473Y-111868559D02*
X198774270Y-111638811D01*
X199809200Y-111879556D02*
X199952607Y-111736433D01*
X200082992Y-111649563D01*
X195001753Y-112156116D02*
X195044588Y-111944353D01*
X195151147Y-111773929D01*
X195186881Y-111737298D01*
D11*
X284519807Y-125779609D02*
X284373352Y-125886994D01*
X284219082Y-125978358D01*
X284057886Y-126054463D01*
X283890654Y-126116070D01*
X283718274Y-126163940D01*
X283541637Y-126198836D01*
X283361632Y-126221518D01*
X283179149Y-126232749D01*
X72070610Y-111626113D02*
X72176958Y-111739219D01*
X72289137Y-111861081D01*
X72408709Y-111993719D01*
X72537238Y-112139148D01*
X72640452Y-112257829D01*
X72750242Y-112385692D01*
X72867266Y-112523587D01*
X72992186Y-112672367D01*
X73125658Y-112832882D01*
X73172164Y-112889142D01*
D10*
X201593275Y-112494036D02*
X201451521Y-112345049D01*
X201395604Y-112152935D01*
X201395554Y-112150440D01*
X197741722Y-114083570D02*
X197600497Y-113930107D01*
X197528428Y-113741039D01*
X197516712Y-113671923D01*
D11*
X64895101Y-125898527D02*
X64747758Y-125792362D01*
X64613242Y-125673819D01*
X64491104Y-125543978D01*
X64380893Y-125403921D01*
X64282160Y-125254728D01*
X64194455Y-125097482D01*
X64117328Y-124933262D01*
X64050331Y-124763152D01*
D10*
X195322546Y-113110563D02*
X195500580Y-113222317D01*
X195705108Y-113257719D01*
X195724310Y-113258267D01*
D11*
X75326010Y-114749626D02*
X75466179Y-114810817D01*
X75660295Y-114897609D01*
X75836449Y-114978980D01*
X75996215Y-115055576D01*
X76141171Y-115128044D01*
X76314132Y-115219364D01*
X76467302Y-115306028D01*
X76604419Y-115389568D01*
X76758932Y-115491935D01*
X76788168Y-115512374D01*
D10*
X191259173Y-111888847D02*
X191412204Y-111735572D01*
X191603770Y-111639711D01*
X191804730Y-111597574D01*
X191840941Y-111595613D01*
D11*
X73172164Y-112889142D02*
X73280976Y-113021411D01*
X73379324Y-113141693D01*
X73482895Y-113269053D01*
X73592194Y-113404158D01*
X73688016Y-113523141D01*
X73727622Y-113572456D01*
D10*
X195313124Y-112080959D02*
X195412358Y-112258446D01*
X195430718Y-112271460D01*
D11*
X271222060Y-116356334D02*
X271277573Y-116183469D01*
X271348804Y-116018991D01*
X271434585Y-115862802D01*
X271533754Y-115714801D01*
X271645146Y-115574888D01*
X271767595Y-115442964D01*
X271899938Y-115318930D01*
X272041010Y-115202685D01*
D10*
X193482833Y-113081562D02*
X193656870Y-113207470D01*
X193856036Y-113247875D01*
X193862490Y-113248007D01*
X201580685Y-111731623D02*
X201758991Y-111630891D01*
X201956378Y-111582042D01*
X202082586Y-111571205D01*
X185879350Y-113455909D02*
X185567914Y-113456187D01*
X186673863Y-113179506D02*
X186863463Y-113252809D01*
X186903679Y-113255884D01*
X197899083Y-113057220D02*
X198061150Y-113177993D01*
X198236188Y-113216895D01*
X198635062Y-112023552D02*
X198461085Y-111900215D01*
X198279233Y-111860489D01*
X200693843Y-113442759D02*
X200692824Y-112294018D01*
X195786775Y-112689795D02*
X195543357Y-112628747D01*
X185565695Y-110956187D02*
X185877131Y-110955909D01*
X187216751Y-113180725D02*
X187377122Y-113048008D01*
X187461368Y-112856011D01*
X187471664Y-112773761D01*
X198243655Y-113962293D02*
X198464302Y-113923273D01*
X198641773Y-113803172D01*
X198704635Y-113713414D01*
D11*
X287100000Y-116500000D02*
X287133980Y-116677171D01*
X287146086Y-116856941D01*
X287136765Y-117041692D01*
X287114182Y-117194682D01*
X287078402Y-117353606D01*
X287029654Y-117519683D01*
X286968168Y-117694135D01*
X286950833Y-117739200D01*
D10*
X191840941Y-111595613D02*
X192043880Y-111623434D01*
X192191599Y-111683799D01*
D11*
X76124427Y-120944882D02*
X76116174Y-121114267D01*
X76108006Y-121275270D01*
X76099913Y-121428298D01*
X76087894Y-121643776D01*
X76075988Y-121843596D01*
X76064165Y-122029130D01*
X76052391Y-122201751D01*
X76040635Y-122362831D01*
X76028864Y-122513743D01*
X76013088Y-122701511D01*
X75997152Y-122876895D01*
D10*
X184007412Y-111634902D02*
X184313744Y-111634629D01*
X185567914Y-113456187D02*
X185566303Y-111642027D01*
D11*
X67973192Y-125979980D02*
X67820893Y-126013504D01*
X67607814Y-126058489D01*
X67411658Y-126097427D01*
X67230714Y-126130675D01*
X67063272Y-126158588D01*
X66907621Y-126181522D01*
X66715473Y-126204973D01*
X66537193Y-126221050D01*
X66368726Y-126230598D01*
X66246377Y-126233982D01*
D10*
X182081061Y-113697538D02*
X182079238Y-111645124D01*
D11*
X274586311Y-125382940D02*
X274454636Y-125259563D01*
X274339139Y-125121222D01*
X274238056Y-124966253D01*
X274166383Y-124829188D01*
X274101904Y-124679566D01*
X274043716Y-124516535D01*
X273990916Y-124339245D01*
X273978453Y-124292595D01*
X71100323Y-110763040D02*
X71238694Y-110861513D01*
X71378082Y-110969859D01*
X71521135Y-111090534D01*
X71639997Y-111197601D01*
X71764258Y-111315387D01*
X71895274Y-111445150D01*
X72034401Y-111588148D01*
X72070610Y-111626113D01*
X74522876Y-125486191D02*
X74364884Y-125573357D01*
X74197650Y-125640519D01*
X74019048Y-125688839D01*
X73866553Y-125714712D01*
X73704333Y-125729868D01*
X73531300Y-125734902D01*
X73346365Y-125730410D01*
X73298145Y-125727869D01*
D10*
X187797111Y-113217651D02*
X187880525Y-113246508D01*
X194360801Y-112876563D02*
X194662025Y-112876295D01*
D11*
X273784715Y-123150008D02*
X273767199Y-122986787D01*
X273749891Y-122811065D01*
X273732723Y-122619824D01*
X273719900Y-122464392D01*
X273707089Y-122297258D01*
X273694263Y-122117149D01*
X273681392Y-121922791D01*
X273668450Y-121712911D01*
X273655406Y-121486235D01*
X273646641Y-121325158D01*
D10*
X187777390Y-112091051D02*
X187778322Y-113141084D01*
D11*
X75499430Y-122829225D02*
X75484596Y-122981488D01*
X75462106Y-123192988D01*
X75439213Y-123385722D01*
X75415793Y-123561391D01*
X75391716Y-123721694D01*
X75358374Y-123914467D01*
X75323338Y-124086974D01*
X75286308Y-124243242D01*
X75236755Y-124421880D01*
X75226363Y-124456011D01*
D10*
X188570039Y-111630852D02*
X188570266Y-111889531D01*
X186832433Y-113516330D02*
X186623728Y-113480990D01*
X186446293Y-113387438D01*
X186417048Y-113363532D01*
D11*
X275326352Y-114183054D02*
X275473795Y-114126461D01*
X275629519Y-114067091D01*
X275777360Y-114011071D01*
X275828358Y-113991820D01*
X282722200Y-112889166D02*
X282831011Y-113021434D01*
X282929359Y-113141715D01*
X283032930Y-113269076D01*
X283142228Y-113404181D01*
X283238050Y-113523164D01*
X283277656Y-113572479D01*
D10*
X183881308Y-113364082D02*
X183705042Y-113460739D01*
X183508109Y-113504187D01*
X183455977Y-113507414D01*
X186349634Y-112189324D02*
X186387070Y-111974007D01*
X186490975Y-111791093D01*
X186567056Y-111721125D01*
D11*
X271756370Y-116330824D02*
X271833166Y-116167612D01*
X271929161Y-116015153D01*
X272045405Y-115871248D01*
X272153684Y-115760804D01*
X272276130Y-115653301D01*
X272413280Y-115547612D01*
X272565672Y-115442612D01*
X272606215Y-115416338D01*
X70373079Y-125127739D02*
X70219446Y-125086593D01*
X70073970Y-125047296D01*
X69921088Y-125005676D01*
X69850617Y-124986389D01*
X67212374Y-112084692D02*
X67315830Y-111968056D01*
X67461703Y-111806426D01*
X67597446Y-111659634D01*
X67724232Y-111526385D01*
X67843235Y-111405387D01*
X67955630Y-111295347D01*
X68097239Y-111163434D01*
X68231970Y-111045637D01*
X68362605Y-110938887D01*
X68459569Y-110864231D01*
X66233261Y-125734122D02*
X66051319Y-125731632D01*
X65879420Y-125718467D01*
X65717158Y-125694049D01*
X65564130Y-125657800D01*
X65419932Y-125609140D01*
X65251486Y-125529983D01*
X65095416Y-125429403D01*
X65036277Y-125382919D01*
X77071348Y-115100259D02*
X77219407Y-115209690D01*
X77358490Y-115324390D01*
X77487931Y-115445118D01*
X77607065Y-115572632D01*
X77715228Y-115707692D01*
X77811753Y-115851056D01*
X77895977Y-116003484D01*
X77967234Y-116165736D01*
D10*
X197116672Y-111631775D02*
X197118282Y-113445932D01*
D11*
X76601364Y-120207594D02*
X76509411Y-120351579D01*
X76425619Y-120481927D01*
X76336734Y-120619390D01*
X76242283Y-120764650D01*
X76158982Y-120892146D01*
X76124427Y-120944882D01*
D10*
X201005281Y-113442482D02*
X200693843Y-113442759D01*
D11*
X64082481Y-114879156D02*
X64232366Y-114811991D01*
X64394213Y-114741153D01*
X64570877Y-114665642D01*
X64714814Y-114605342D01*
X64869894Y-114541430D01*
X65037322Y-114473484D01*
X65218300Y-114401084D01*
X65414034Y-114323807D01*
X65625726Y-114241233D01*
X65776316Y-114183032D01*
X279400651Y-124986413D02*
X279223523Y-125034786D01*
X279055563Y-125080289D01*
X278896321Y-125123057D01*
X278745348Y-125163227D01*
X278533408Y-125218905D01*
X278337545Y-125269497D01*
X278156239Y-125315461D01*
X277987974Y-125357254D01*
X277831233Y-125395334D01*
X277684497Y-125430156D01*
X277501793Y-125472311D01*
X277414977Y-125491862D01*
D10*
X196455802Y-112918952D02*
X196412959Y-113124321D01*
X196306404Y-113299897D01*
X196270673Y-113339469D01*
X197837025Y-112163810D02*
X197789609Y-112368980D01*
X197774654Y-112569810D01*
X197774430Y-112587623D01*
X195430718Y-112271460D02*
X195618900Y-112342909D01*
X195631602Y-112346163D01*
X188929354Y-111887511D02*
X188751060Y-111994368D01*
X188708248Y-112037467D01*
X191505269Y-113050983D02*
X191669387Y-113192457D01*
X191868772Y-113246007D01*
X191903672Y-113248043D01*
X182078629Y-110959282D02*
X182384961Y-110959009D01*
X202498342Y-112142654D02*
X202425723Y-111954795D01*
X202424994Y-111953815D01*
X186635544Y-112189070D02*
X186349634Y-112189324D01*
X182387419Y-113729601D02*
X182361296Y-113933448D01*
X182323015Y-114027480D01*
X189454911Y-113452735D02*
X189453892Y-112303994D01*
X193864656Y-111852495D02*
X193659958Y-111901139D01*
X193510807Y-112005976D01*
X185106198Y-110956595D02*
X185108418Y-113456594D01*
D11*
X286950833Y-117739200D02*
X286885738Y-117897728D01*
X286822705Y-118038858D01*
X286750113Y-118190734D01*
X286666491Y-118355739D01*
X286590664Y-118498800D01*
X286506083Y-118653010D01*
X286436451Y-118776720D01*
D10*
X195132137Y-113333673D02*
X195023766Y-113164644D01*
X194964075Y-112971964D01*
X194951337Y-112876037D01*
D11*
X65036277Y-125382919D02*
X64904603Y-125259542D01*
X64789106Y-125121200D01*
X64688022Y-124966230D01*
X64616349Y-124829165D01*
X64551869Y-124679543D01*
X64493681Y-124516513D01*
X64440882Y-124339223D01*
X64428419Y-124292573D01*
D10*
X185877740Y-111641751D02*
X185879350Y-113455909D01*
D11*
X66246377Y-126233982D02*
X66062223Y-126232469D01*
X65882243Y-126221417D01*
X65706529Y-126199822D01*
X65535170Y-126166678D01*
X65368257Y-126120982D01*
X65205881Y-126061727D01*
X65048132Y-125987911D01*
X64895101Y-125898527D01*
D10*
X198956623Y-113844233D02*
X198819562Y-114016359D01*
X198645336Y-114124933D01*
X198440911Y-114190816D01*
X198238598Y-114215859D01*
X198237074Y-114215872D01*
X200928983Y-111849629D02*
X200985760Y-112048723D01*
X201003940Y-112254665D01*
X201004243Y-112273319D01*
X202180576Y-112684121D02*
X201937161Y-112623071D01*
X198236188Y-113216895D02*
X198448026Y-113170171D01*
X198618301Y-113039868D01*
X198700525Y-112918661D01*
D11*
X64234680Y-123149985D02*
X64217164Y-122986764D01*
X64199856Y-122811043D01*
X64182689Y-122619801D01*
X64169866Y-122464369D01*
X64157055Y-122297235D01*
X64144229Y-122117126D01*
X64131358Y-121922768D01*
X64118416Y-121712888D01*
X64105372Y-121486212D01*
X64096607Y-121325135D01*
D10*
X194582237Y-113101008D02*
X194467177Y-113265449D01*
X194432655Y-113301958D01*
X186903679Y-113255884D02*
X187109724Y-113221766D01*
X187216751Y-113180725D01*
D11*
X285075347Y-114291087D02*
X285218232Y-114353452D01*
X285417013Y-114442260D01*
X285598555Y-114526017D01*
X285764450Y-114605440D01*
X285916291Y-114681246D01*
X286055669Y-114754152D01*
X286224876Y-114848088D01*
X286378535Y-114939844D01*
X286520422Y-115031118D01*
X286621383Y-115100281D01*
D10*
X187540278Y-113381257D02*
X187487372Y-113212821D01*
D11*
X275783295Y-125734145D02*
X275601353Y-125731654D01*
X275429454Y-125718490D01*
X275267192Y-125694071D01*
X275114164Y-125657822D01*
X274969966Y-125609162D01*
X274801520Y-125530005D01*
X274645450Y-125429424D01*
X274586311Y-125382940D01*
D10*
X202670584Y-112544134D02*
X202805798Y-112712467D01*
X202849556Y-112910418D01*
X202849603Y-112913276D01*
D11*
X275796411Y-126234004D02*
X275612256Y-126232491D01*
X275432277Y-126221439D01*
X275256563Y-126199844D01*
X275085204Y-126166701D01*
X274918291Y-126121005D01*
X274755915Y-126061751D01*
X274598166Y-125987934D01*
X274445135Y-125898551D01*
D10*
X188608007Y-112224760D02*
X188587545Y-112427871D01*
X188586125Y-112498775D01*
X187778322Y-113141084D02*
X187797111Y-113217651D01*
X208315856Y-110935992D02*
X208577939Y-110935759D01*
X194259326Y-111676857D02*
X194427220Y-111790654D01*
X194536932Y-111911464D01*
X197828150Y-113671648D02*
X197912370Y-113855652D01*
X197916814Y-113860471D01*
X193022886Y-112573122D02*
X193044670Y-112344251D01*
X193108505Y-112126959D01*
X193205317Y-111936838D01*
X193260509Y-111859841D01*
D11*
X65776316Y-114183032D02*
X65923761Y-114126440D01*
X66079484Y-114067070D01*
X66227327Y-114011051D01*
X66278325Y-113991800D01*
D10*
X181792181Y-114186223D02*
X181791946Y-113920736D01*
X198200672Y-113467095D02*
X197994614Y-113434571D01*
X197796977Y-113343269D01*
X197681426Y-113258231D01*
X201937161Y-112623071D02*
X201739620Y-112562205D01*
X201593275Y-112494036D01*
X192670859Y-110941371D02*
X192673085Y-113449879D01*
X194659753Y-112233002D02*
X194681457Y-112432091D01*
X194687335Y-112633816D01*
X194687337Y-112634611D01*
X191057266Y-112578270D02*
X191075767Y-112366768D01*
X191130006Y-112158270D01*
X191212272Y-111968537D01*
X191259173Y-111888847D01*
X187048785Y-111846633D02*
X186849238Y-111882154D01*
X186708533Y-111976276D01*
D11*
X287517268Y-116165758D02*
X287574054Y-116338221D01*
X287613191Y-116513157D01*
X287635679Y-116689957D01*
X287642517Y-116868012D01*
X287634704Y-117046710D01*
X287613240Y-117225444D01*
X287579122Y-117403602D01*
X287533352Y-117580577D01*
X281701556Y-125559572D02*
X281540892Y-125525862D01*
X281368401Y-125488098D01*
X281181191Y-125445410D01*
X281029383Y-125409642D01*
X280866449Y-125370250D01*
X280691167Y-125326869D01*
X280502318Y-125279133D01*
X280298681Y-125226675D01*
X280079036Y-125169131D01*
X279923111Y-125127761D01*
D10*
X190647897Y-113451677D02*
X190292214Y-113451993D01*
X187926475Y-113244767D02*
X187980925Y-113236209D01*
D11*
X282634072Y-113571072D02*
X282733974Y-113694471D01*
X282828369Y-113811579D01*
X282927374Y-113934899D01*
X282972948Y-113991823D01*
D10*
X196270673Y-113339469D02*
X196082373Y-113450909D01*
X195878270Y-113501988D01*
X195709224Y-113516960D01*
D11*
X77462420Y-118769569D02*
X77387698Y-118905665D01*
X77306448Y-119050014D01*
X77217232Y-119204725D01*
X77118613Y-119371909D01*
X77037613Y-119506753D01*
X76949910Y-119650690D01*
X76854896Y-119804612D01*
X76751966Y-119969409D01*
X76640513Y-120145971D01*
X76601364Y-120207594D01*
D10*
X199808971Y-111620875D02*
X199809200Y-111879556D01*
X193837199Y-113513515D02*
X193630098Y-113483440D01*
X193440561Y-113402035D01*
X193276891Y-113283436D01*
X193260058Y-113267260D01*
X202676741Y-111812339D02*
X202765832Y-111997262D01*
X202787653Y-112142396D01*
D11*
X284072910Y-125486215D02*
X283914917Y-125573380D01*
X283747683Y-125640542D01*
X283569082Y-125688862D01*
X283416587Y-125714735D01*
X283254368Y-125729890D01*
X283081335Y-125734924D01*
X282896400Y-125730432D01*
X282848179Y-125727891D01*
X77983318Y-117580555D02*
X77932421Y-117742529D01*
X77872454Y-117908517D01*
X77801900Y-118081795D01*
X77736815Y-118227867D01*
X77663209Y-118382378D01*
X77580306Y-118547004D01*
X77487329Y-118723424D01*
X77462420Y-118769569D01*
D10*
X193260509Y-111859841D02*
X193432190Y-111716343D01*
X193637139Y-111626590D01*
X193833486Y-111588202D01*
X193883139Y-111585290D01*
D11*
X278314097Y-111260885D02*
X278462710Y-111155951D01*
X278609484Y-111065555D01*
X278755082Y-110989928D01*
X278900170Y-110929300D01*
X279045415Y-110883903D01*
X279228205Y-110848927D01*
X279413578Y-110838560D01*
X279488743Y-110841406D01*
D10*
X193883139Y-111585290D02*
X194087424Y-111614186D01*
X194259326Y-111676857D01*
X197681878Y-111847406D02*
X197838095Y-111712826D01*
X198036507Y-111622236D01*
X198222830Y-111589949D01*
X182384961Y-110959009D02*
X182385276Y-111312993D01*
X192376440Y-110941632D02*
X192670859Y-110941371D01*
X196804626Y-110946209D02*
X197116063Y-110945934D01*
X191808609Y-113515317D02*
X191597625Y-113475616D01*
X191413324Y-113376078D01*
X191280812Y-113260508D01*
X196152903Y-112954958D02*
X196053396Y-112779215D01*
X196048933Y-112776358D01*
D11*
X279923111Y-125127761D02*
X279769478Y-125086614D01*
X279624003Y-125047317D01*
X279471121Y-125005699D01*
X279400651Y-124986413D01*
D10*
X197516712Y-113671923D02*
X197828150Y-113671648D01*
D11*
X279400652Y-125504749D02*
X279236940Y-125549183D01*
X279081231Y-125591110D01*
X278933135Y-125630647D01*
X278724412Y-125685723D01*
X278530623Y-125736074D01*
X278350454Y-125782094D01*
X278182588Y-125824174D01*
X278025710Y-125862708D01*
X277878503Y-125898088D01*
X277694997Y-125941034D01*
X277523227Y-125980004D01*
X272041010Y-115202685D02*
X272177407Y-115101572D01*
X272323509Y-115002532D01*
X272482468Y-114903804D01*
X272621010Y-114823864D01*
X272771413Y-114742097D01*
X272935290Y-114657603D01*
X273114256Y-114569481D01*
X273161545Y-114546778D01*
X285475638Y-120334422D02*
X285389487Y-120467016D01*
X285298255Y-120606745D01*
X285211427Y-120739134D01*
X285181432Y-120784746D01*
D10*
X187487372Y-113212821D02*
X187339254Y-113350362D01*
X187218670Y-113425789D01*
D11*
X75525312Y-114291062D02*
X75668197Y-114353428D01*
X75866978Y-114442236D01*
X76048520Y-114525993D01*
X76214415Y-114605417D01*
X76366255Y-114681223D01*
X76505634Y-114754129D01*
X76674841Y-114848066D01*
X76828500Y-114939821D01*
X76970387Y-115031096D01*
X77071348Y-115100259D01*
X63772825Y-123494202D02*
X63753298Y-123340162D01*
X63734204Y-123175610D01*
X63715465Y-122997995D01*
X63697003Y-122804766D01*
X63683292Y-122648064D01*
X63669661Y-122480068D01*
X63656076Y-122299703D01*
X63642506Y-122105893D01*
X63628916Y-121897561D01*
X63624377Y-121824705D01*
D10*
X184315362Y-113457297D02*
X184026050Y-113457554D01*
D11*
X277414977Y-125491862D02*
X277265564Y-125524740D01*
X277057442Y-125568614D01*
X276867047Y-125606316D01*
X276692721Y-125638249D01*
X276532808Y-125664817D01*
X276339152Y-125692591D01*
X276164251Y-125712501D01*
X276004180Y-125725502D01*
X275818967Y-125733497D01*
X275783295Y-125734145D01*
X283277656Y-113572479D02*
X283436169Y-113632719D01*
X283586738Y-113690287D01*
X283729745Y-113745316D01*
X283930918Y-113823394D01*
X284117236Y-113896521D01*
X284289994Y-113965150D01*
X284450488Y-114029738D01*
X284600012Y-114090739D01*
X284739862Y-114148609D01*
X284913518Y-114221686D01*
X285075347Y-114291087D01*
X75925604Y-120334400D02*
X75839453Y-120466994D01*
X75748220Y-120606723D01*
X75661393Y-120739113D01*
X75631398Y-120784725D01*
D10*
X183945612Y-112950478D02*
X183993029Y-112750124D01*
X184007981Y-112548183D01*
X184008206Y-112530068D01*
X187479616Y-112144072D02*
X187407674Y-111953480D01*
X187367092Y-111917828D01*
X186829751Y-112411839D02*
X187318122Y-112350139D01*
X195245755Y-112875776D02*
X195298864Y-113070822D01*
X195322546Y-113110563D01*
X193862490Y-113248007D02*
X194073656Y-113204570D01*
X194241536Y-113093310D01*
X194245264Y-113089395D01*
D11*
X73298145Y-125727869D02*
X73127143Y-125715009D01*
X72973332Y-125698720D01*
X72806330Y-125676658D01*
X72623411Y-125648160D01*
X72463783Y-125620283D01*
X72290826Y-125587525D01*
X72151522Y-125559549D01*
D10*
X196104538Y-112148329D02*
X196031919Y-111960470D01*
X196031190Y-111959490D01*
X195834166Y-112395336D02*
X196042638Y-112453093D01*
X196232656Y-112526139D01*
X196276780Y-112549811D01*
X193260058Y-113267260D02*
X193136137Y-113082706D01*
X193065261Y-112881830D01*
X193030203Y-112684112D01*
X193022886Y-112573122D01*
D11*
X287012454Y-118769591D02*
X286937732Y-118905687D01*
X286856482Y-119050036D01*
X286767267Y-119204747D01*
X286668648Y-119371932D01*
X286587648Y-119506775D01*
X286499945Y-119650713D01*
X286404931Y-119804635D01*
X286302001Y-119969432D01*
X286190547Y-120145994D01*
X286151398Y-120207617D01*
X73422914Y-113991799D02*
X73594606Y-114056741D01*
X73757197Y-114118618D01*
X73911130Y-114177585D01*
X74056847Y-114233796D01*
X74260989Y-114313284D01*
X74449139Y-114387440D01*
X74622795Y-114456786D01*
X74783452Y-114521843D01*
X74932606Y-114583135D01*
X75071753Y-114641181D01*
X75244301Y-114714430D01*
X75326010Y-114749626D01*
X67586944Y-112415898D02*
X67688446Y-112301482D01*
X67830961Y-112143665D01*
X67962770Y-112001260D01*
X68084975Y-111872966D01*
X68198677Y-111757485D01*
X68338960Y-111621193D01*
X68468699Y-111502286D01*
X68590506Y-111397684D01*
X68735593Y-111282352D01*
X68764062Y-111260861D01*
D10*
X186567056Y-111721125D02*
X186753138Y-111637505D01*
X186956471Y-111595036D01*
X187055365Y-111587949D01*
X204147658Y-112408378D02*
X204743700Y-110939162D01*
X198279233Y-111860489D02*
X198073725Y-111908004D01*
X197912447Y-112040530D01*
X197837025Y-112163810D01*
X190647568Y-113080675D02*
X190647897Y-113451677D01*
X195631602Y-112346163D02*
X195834166Y-112395336D01*
X198763735Y-113190899D02*
X198627132Y-113340497D01*
X198542682Y-113398719D01*
X184008206Y-112530068D02*
X184007412Y-111634902D01*
D11*
X285181432Y-120784746D02*
X285172785Y-120968131D01*
X285164237Y-121141912D01*
X285155779Y-121306558D01*
X285147400Y-121462539D01*
X285134959Y-121681289D01*
X285122642Y-121883182D01*
X285110414Y-122069802D01*
X285098244Y-122242733D01*
X285086097Y-122403559D01*
X285073940Y-122553864D01*
X285057658Y-122740643D01*
X285049464Y-122829248D01*
D10*
X196806846Y-113446209D02*
X196805235Y-111632051D01*
X183160972Y-112845661D02*
X183193305Y-113043827D01*
X183205423Y-113073667D01*
X196804934Y-111293385D02*
X196804626Y-110946209D01*
D11*
X65153736Y-113889034D02*
X65312880Y-113826513D01*
X65457399Y-113770236D01*
X65610231Y-113711190D01*
X65772159Y-113649101D01*
X65914612Y-113594840D01*
X65973617Y-113572456D01*
X272095103Y-119307905D02*
X272016176Y-119173530D01*
X271907576Y-118984932D01*
X271809953Y-118810542D01*
X271722439Y-118648845D01*
X271644169Y-118498325D01*
X271574275Y-118357466D01*
X271492614Y-118182064D01*
X271422250Y-118017550D01*
X271361127Y-117860332D01*
X271320114Y-117745045D01*
X271791450Y-117578090D02*
X271737616Y-117404271D01*
X271697059Y-117236683D01*
X271670204Y-117074768D01*
X271657477Y-116917971D01*
X271659304Y-116765734D01*
X271682704Y-116581004D01*
X271730342Y-116401444D01*
X271756370Y-116330824D01*
D10*
X192389771Y-112539646D02*
X192372272Y-112338681D01*
X192312177Y-112139557D01*
X192248066Y-112029220D01*
X192252389Y-113065637D02*
X192338892Y-112884052D01*
X192380649Y-112675472D01*
X192389771Y-112539646D01*
X198775058Y-112525469D02*
X198753056Y-112304170D01*
X198685514Y-112105196D01*
X198635062Y-112023552D01*
D11*
X75705874Y-124597790D02*
X75647604Y-124772488D01*
X75581549Y-124940272D01*
X75506781Y-125100746D01*
X75422372Y-125253513D01*
X75327394Y-125398177D01*
X75220920Y-125534341D01*
X75102022Y-125661609D01*
X74969773Y-125779586D01*
D10*
X199058247Y-113296151D02*
X199045909Y-113502414D01*
X199007550Y-113700382D01*
X198956623Y-113844233D01*
X186576674Y-112970266D02*
X186651345Y-113157712D01*
X186673863Y-113179506D01*
X194951337Y-112876037D02*
X195245755Y-112875776D01*
X202424994Y-111953815D02*
X202247477Y-111858434D01*
X202058992Y-111833309D01*
D11*
X280252634Y-125731121D02*
X280086685Y-125688068D01*
X279936257Y-125648559D01*
X279777427Y-125606391D01*
X279609393Y-125561321D01*
X279461756Y-125521371D01*
X279400652Y-125504749D01*
X280650359Y-110763062D02*
X280788729Y-110861535D01*
X280928116Y-110969881D01*
X281071169Y-111090556D01*
X281190031Y-111197623D01*
X281314291Y-111315410D01*
X281445307Y-111445173D01*
X281584434Y-111588171D01*
X281620643Y-111626136D01*
D10*
X182079238Y-111645124D02*
X182385570Y-111644851D01*
X188586974Y-113453506D02*
X188280643Y-113453778D01*
X197118282Y-113445932D02*
X196806846Y-113446209D01*
D11*
X274445135Y-125898551D02*
X274297792Y-125792385D01*
X274163276Y-125673842D01*
X274041138Y-125544000D01*
X273930927Y-125403943D01*
X273832195Y-125254751D01*
X273744490Y-125097504D01*
X273667364Y-124933286D01*
X273600367Y-124763176D01*
X282972948Y-113991823D02*
X283144640Y-114056765D01*
X283307231Y-114118642D01*
X283461164Y-114177609D01*
X283606881Y-114233820D01*
X283811022Y-114313306D01*
X283999173Y-114387462D01*
X284172829Y-114456808D01*
X284333486Y-114521865D01*
X284482639Y-114583157D01*
X284621786Y-114641203D01*
X284794335Y-114714452D01*
X284876044Y-114749648D01*
X285049464Y-122829248D02*
X285034630Y-122981511D01*
X285012139Y-123193011D01*
X284989247Y-123385745D01*
X284965826Y-123561414D01*
X284941749Y-123721717D01*
X284908407Y-123914490D01*
X284873372Y-124086996D01*
X284836341Y-124243264D01*
X284786789Y-124421903D01*
X284776397Y-124456034D01*
X282848179Y-125727891D02*
X282677177Y-125715031D01*
X282523366Y-125698741D01*
X282356364Y-125676679D01*
X282173445Y-125648181D01*
X282013817Y-125620305D01*
X281840860Y-125587547D01*
X281701556Y-125559572D01*
X275523651Y-113572477D02*
X275629910Y-113440325D01*
X275731173Y-113314905D01*
X275827685Y-113195892D01*
X275964087Y-113028679D01*
X276091190Y-112874065D01*
X276209828Y-112730958D01*
X276320832Y-112598267D01*
X276425036Y-112474902D01*
X276523274Y-112359771D01*
X276646417Y-112217186D01*
X276762410Y-112084715D01*
X279299734Y-110341296D02*
X279481313Y-110340561D01*
X279659791Y-110357378D01*
X279834897Y-110390607D01*
X280006360Y-110439109D01*
X280173909Y-110501744D01*
X280337272Y-110577374D01*
X280496179Y-110664860D01*
X280650359Y-110763062D01*
X281620643Y-111626136D02*
X281726991Y-111739242D01*
X281839170Y-111861105D01*
X281958743Y-111993742D01*
X282087272Y-112139172D01*
X282190486Y-112257852D01*
X282300276Y-112385715D01*
X282417301Y-112523611D01*
X282542221Y-112672390D01*
X282675694Y-112832905D01*
X282722200Y-112889166D01*
D10*
X187367092Y-111917828D02*
X187166433Y-111855463D01*
X187048785Y-111846633D01*
X189165645Y-111589478D02*
X189385366Y-111622462D01*
X189573355Y-111724412D01*
X189690051Y-111859605D01*
X197916814Y-113860471D02*
X198106170Y-113947105D01*
X198243655Y-113962293D01*
X208902593Y-112404158D02*
X208448903Y-111277943D01*
X207022977Y-113437141D02*
X206837476Y-113437305D01*
D11*
X73084038Y-113571052D02*
X73183941Y-113694449D01*
X73278335Y-113811556D01*
X73377340Y-113934875D01*
X73422914Y-113991799D01*
D10*
X206837792Y-113792989D02*
X206990949Y-113656120D01*
X207002724Y-113627765D01*
X199519576Y-113443800D02*
X199517957Y-111621134D01*
X187471664Y-112773761D02*
X187471446Y-112526993D01*
D11*
X68459569Y-110864231D02*
X68609392Y-110757210D01*
X68761452Y-110660356D01*
X68916265Y-110574536D01*
X69074347Y-110500616D01*
X69236215Y-110439463D01*
X69402386Y-110391944D01*
X69573375Y-110358925D01*
X69749700Y-110341274D01*
X273174411Y-121824728D02*
X273164157Y-121653667D01*
X273155320Y-121498461D01*
X273146421Y-121334450D01*
X273137443Y-121160797D01*
X273129887Y-121008119D01*
X273126844Y-120944903D01*
X63611510Y-114546755D02*
X63751989Y-114480534D01*
X63902605Y-114411470D01*
X64065760Y-114338700D01*
X64243858Y-114261361D01*
X64388682Y-114199837D01*
X64544278Y-114134894D01*
X64711658Y-114066165D01*
X64891836Y-113993287D01*
X65085827Y-113915896D01*
X65153736Y-113889034D01*
X62206336Y-116330800D02*
X62283131Y-116167589D01*
X62379127Y-116015131D01*
X62495370Y-115871226D01*
X62603649Y-115760782D01*
X62726095Y-115653279D01*
X62863246Y-115547590D01*
X63015637Y-115442590D01*
X63056180Y-115416316D01*
D10*
X199846939Y-112214784D02*
X199826477Y-112417896D01*
X199825057Y-112488800D01*
X201525943Y-113327997D02*
X201417571Y-113158969D01*
X201357878Y-112966290D01*
X201345138Y-112870364D01*
X182078944Y-111313265D02*
X182078629Y-110959282D01*
X187153285Y-112620879D02*
X186967805Y-112644869D01*
D11*
X281886484Y-126105115D02*
X281733934Y-126076152D01*
X281571518Y-126043534D01*
X281396786Y-126006547D01*
X281207289Y-125964479D01*
X281054001Y-125929163D01*
X280889995Y-125890287D01*
X280714239Y-125847549D01*
X280525697Y-125800649D01*
X280323336Y-125749286D01*
X280252634Y-125731121D01*
D10*
X185877131Y-110955909D02*
X185877439Y-111303086D01*
X197116063Y-110945934D02*
X197116371Y-111293109D01*
X195186881Y-111737298D02*
X195365187Y-111636566D01*
X195562573Y-111587718D01*
X195688780Y-111576881D01*
X207998917Y-112404959D02*
X207719815Y-112405208D01*
X200168289Y-111877534D02*
X199989993Y-111984393D01*
X199947181Y-112027493D01*
X185877439Y-111303086D02*
X185566002Y-111303363D01*
X197116371Y-111293109D02*
X196804934Y-111293385D01*
X187770126Y-113493373D02*
X187576730Y-113421774D01*
X187540278Y-113381257D01*
X186717699Y-112714865D02*
X186594243Y-112872607D01*
X186576674Y-112970266D01*
D11*
X64069838Y-120784723D02*
X63969119Y-120631350D01*
X63873963Y-120485802D01*
X63784100Y-120347695D01*
X63699264Y-120216642D01*
X63580848Y-120032448D01*
X63472234Y-119861958D01*
X63372520Y-119703872D01*
X63280801Y-119556890D01*
X63196174Y-119419710D01*
X63117735Y-119291032D01*
X63021213Y-119130438D01*
X62975806Y-119053979D01*
D10*
X183159898Y-111635655D02*
X183160972Y-112845661D01*
X192248066Y-112029220D02*
X192075493Y-111903310D01*
X191899039Y-111862750D01*
X199056776Y-111638561D02*
X199058247Y-113296151D01*
X207028119Y-113479682D02*
X207026400Y-113457559D01*
D11*
X277523227Y-125980004D02*
X277370928Y-126013528D01*
X277157849Y-126058512D01*
X276961693Y-126097450D01*
X276780749Y-126130697D01*
X276613306Y-126158610D01*
X276457656Y-126181545D01*
X276265507Y-126204995D01*
X276087227Y-126221073D01*
X275918760Y-126230620D01*
X275796411Y-126234004D01*
D10*
X198542682Y-113398719D02*
X198349885Y-113454847D01*
X198200672Y-113467095D01*
D11*
X286436451Y-118776720D02*
X286354704Y-118919065D01*
X286265441Y-119071404D01*
X286166941Y-119236221D01*
X286085968Y-119369517D01*
X285998105Y-119512277D01*
X285902625Y-119665549D01*
X285798803Y-119830382D01*
X285685913Y-120007823D01*
X285563228Y-120198919D01*
X285475638Y-120334422D01*
D10*
X201706924Y-112075283D02*
X201806160Y-112252771D01*
X201824520Y-112265785D01*
D11*
X283179149Y-126232749D02*
X283009278Y-126234462D01*
X282832780Y-126228783D01*
X282646063Y-126215283D01*
X282486922Y-126198565D01*
X282317108Y-126176347D01*
X282134782Y-126148411D01*
X281938109Y-126114537D01*
X281886484Y-126105115D01*
D10*
X194372280Y-112391528D02*
X194332725Y-112191119D01*
X194285207Y-112073362D01*
X186417048Y-113363532D02*
X186302133Y-113189291D01*
X186257357Y-112993135D01*
X186256733Y-112977359D01*
X188844061Y-111659539D02*
X189047185Y-111600045D01*
X189165645Y-111589478D01*
X194245264Y-113089395D02*
X194348214Y-112913324D01*
X194360801Y-112876563D01*
D11*
X62975806Y-119053979D02*
X62898386Y-118922149D01*
X62792376Y-118737924D01*
X62697711Y-118568634D01*
X62613497Y-118412830D01*
X62538838Y-118269062D01*
X62452610Y-118093590D01*
X62379655Y-117933504D01*
X62317852Y-117785371D01*
X62253049Y-117611779D01*
X62241417Y-117578067D01*
X66278325Y-113991800D02*
X66393127Y-113848566D01*
X66502203Y-113713042D01*
X66605836Y-113584854D01*
X66704309Y-113463628D01*
X66842968Y-113294026D01*
X66971616Y-113137987D01*
X67091211Y-112994248D01*
X67202713Y-112861547D01*
X67307078Y-112738624D01*
X67405267Y-112624216D01*
X67528231Y-112482736D01*
X67586944Y-112415898D01*
D10*
X188280643Y-113453778D02*
X188279025Y-111631109D01*
D11*
X273161545Y-114546778D02*
X273302025Y-114480557D01*
X273452641Y-114411493D01*
X273615795Y-114338723D01*
X273793893Y-114261383D01*
X273938717Y-114199860D01*
X274094312Y-114134916D01*
X274261692Y-114066188D01*
X274441871Y-113993311D01*
X274635862Y-113915920D01*
X274703771Y-113889058D01*
D10*
X185566002Y-111303363D02*
X185565695Y-110956187D01*
X186256733Y-112977359D02*
X186293260Y-112773784D01*
X186400060Y-112598656D01*
X186414654Y-112584093D01*
D11*
X286151398Y-120207617D02*
X286059445Y-120351602D01*
X285975653Y-120481950D01*
X285886767Y-120619413D01*
X285792317Y-120764673D01*
X285709015Y-120892168D01*
X285674460Y-120944903D01*
X77400799Y-117739177D02*
X77335705Y-117897706D01*
X77272672Y-118038836D01*
X77200081Y-118190712D01*
X77116459Y-118355717D01*
X77040632Y-118498778D01*
X76956051Y-118652988D01*
X76886419Y-118776698D01*
X67864943Y-125491837D02*
X67715530Y-125524715D01*
X67507408Y-125568590D01*
X67317013Y-125606293D01*
X67142687Y-125638226D01*
X66982774Y-125664794D01*
X66789118Y-125692569D01*
X66614217Y-125712478D01*
X66454146Y-125725480D01*
X66268933Y-125733474D01*
X66233261Y-125734122D01*
D10*
X187326842Y-112586686D02*
X187153285Y-112620879D01*
X201795265Y-111899915D02*
X201706924Y-112075283D01*
X205330434Y-112407329D02*
X204876745Y-111281113D01*
X202058992Y-111833309D02*
X201853994Y-111869784D01*
X201795265Y-111899915D01*
X189453892Y-112303994D02*
X189426722Y-112098581D01*
X189404300Y-112035149D01*
D11*
X71071238Y-111366066D02*
X71201951Y-111476987D01*
X71316750Y-111580576D01*
X71438822Y-111696584D01*
X71569982Y-111827150D01*
X71682674Y-111943522D01*
X71803273Y-112071673D01*
X71899471Y-112176176D01*
D10*
X195401464Y-111905591D02*
X195313124Y-112080959D01*
D11*
X286338202Y-115512398D02*
X286483901Y-115621323D01*
X286615208Y-115732990D01*
X286732108Y-115848102D01*
X286834587Y-115967363D01*
X286922631Y-116091479D01*
X287012362Y-116254524D01*
X287079486Y-116427631D01*
X287100000Y-116500000D01*
X69850618Y-125504726D02*
X69686906Y-125549160D01*
X69531197Y-125591087D01*
X69383101Y-125630624D01*
X69174378Y-125685700D01*
X68980589Y-125736051D01*
X68800420Y-125782071D01*
X68632554Y-125824151D01*
X68475675Y-125862684D01*
X68328468Y-125898064D01*
X68144962Y-125941010D01*
X67973192Y-125979980D01*
D10*
X191903672Y-113248043D02*
X192107493Y-113190245D01*
X192252389Y-113065637D01*
X192191599Y-111683799D02*
X192340063Y-111819281D01*
X192377256Y-111862326D01*
X194536932Y-111911464D02*
X194625104Y-112099458D01*
X194659753Y-112233002D01*
X202849603Y-112913276D02*
X202806761Y-113118645D01*
X202700207Y-113294222D01*
X202664476Y-113333794D01*
X204743700Y-110939162D02*
X205005781Y-110938930D01*
X204876745Y-111281113D02*
X204426761Y-112408131D01*
X202664476Y-113333794D02*
X202476177Y-113445234D01*
X202272074Y-113496312D01*
X202103029Y-113511284D01*
D11*
X279488743Y-110841406D02*
X279667753Y-110863818D01*
X279842476Y-110907839D01*
X280015317Y-110973778D01*
X280153849Y-111042519D01*
X280293948Y-111125644D01*
X280436843Y-111223311D01*
X280583767Y-111335680D01*
X280621272Y-111366088D01*
D10*
X209179992Y-112403913D02*
X208902593Y-112404158D01*
X195665188Y-111838985D02*
X195460191Y-111875460D01*
X195401464Y-111905591D01*
X199947181Y-112027493D02*
X199849634Y-112205234D01*
X199846939Y-112214784D01*
D11*
X69749700Y-110341274D02*
X69931279Y-110340539D01*
X70109757Y-110357356D01*
X70284864Y-110390585D01*
X70456327Y-110439086D01*
X70623875Y-110501721D01*
X70787238Y-110577352D01*
X70946144Y-110664837D01*
X71100323Y-110763040D01*
D10*
X182924773Y-113247505D02*
X182864048Y-113053045D01*
X182847860Y-112874870D01*
X184029214Y-113188662D02*
X183899682Y-113347974D01*
X183881308Y-113364082D01*
X201345138Y-112870364D02*
X201639558Y-112870101D01*
X189690051Y-111859605D02*
X189746828Y-112058699D01*
X189765007Y-112264642D01*
X189765310Y-112283296D01*
X194687337Y-112634611D02*
X193351396Y-112635796D01*
D11*
X286621383Y-115100281D02*
X286769442Y-115209712D01*
X286908525Y-115324412D01*
X287037965Y-115445140D01*
X287157099Y-115572654D01*
X287265262Y-115707714D01*
X287361787Y-115851079D01*
X287446011Y-116003507D01*
X287517268Y-116165758D01*
D10*
X200082992Y-111649563D02*
X200286119Y-111590069D01*
X200404581Y-111579502D01*
D11*
X74969773Y-125779586D02*
X74823317Y-125886971D01*
X74669046Y-125978336D01*
X74507850Y-126054441D01*
X74340618Y-126116048D01*
X74168239Y-126163918D01*
X73991603Y-126198813D01*
X73811598Y-126221496D01*
X73629116Y-126232727D01*
D10*
X200692824Y-112294018D02*
X200665654Y-112088604D01*
X200643232Y-112025172D01*
X191380599Y-112560965D02*
X191400188Y-112761019D01*
X191460336Y-112960126D01*
X191505269Y-113050983D01*
D11*
X63576810Y-120944879D02*
X63483999Y-120803064D01*
X63396043Y-120668077D01*
X63312712Y-120539584D01*
X63195880Y-120358288D01*
X63088153Y-120189720D01*
X62988750Y-120032752D01*
X62896893Y-119886255D01*
X62811800Y-119749100D01*
X62732693Y-119620158D01*
X62635178Y-119459060D01*
X62545069Y-119307881D01*
X271320114Y-117745045D02*
X271264680Y-117569491D01*
X271219613Y-117394934D01*
X271185899Y-117221156D01*
X271164521Y-117047940D01*
X271156464Y-116875067D01*
X271162712Y-116702320D01*
X271184249Y-116529481D01*
X271222060Y-116356334D01*
D10*
X194285207Y-112073362D02*
X194131775Y-111924150D01*
X193936790Y-111859182D01*
X193864656Y-111852495D01*
X183455977Y-113507414D02*
X183234740Y-113475682D01*
X183044229Y-113377588D01*
X182924773Y-113247505D01*
D11*
X273126844Y-120944903D02*
X273034033Y-120803088D01*
X272946077Y-120668101D01*
X272862746Y-120539607D01*
X272745914Y-120358311D01*
X272638187Y-120189743D01*
X272538784Y-120032774D01*
X272446926Y-119886277D01*
X272361834Y-119749122D01*
X272282726Y-119620181D01*
X272185212Y-119459083D01*
X272095103Y-119307905D01*
X63624377Y-121824705D02*
X63614122Y-121653644D01*
X63605286Y-121498438D01*
X63596387Y-121334427D01*
X63587409Y-121160774D01*
X63579853Y-121008095D01*
X63576810Y-120944879D01*
D10*
X195199471Y-112499713D02*
X195057719Y-112350725D01*
X195001803Y-112158611D01*
X195001753Y-112156116D01*
D11*
X276762410Y-112084715D02*
X276865866Y-111968079D01*
X277011738Y-111806449D01*
X277147480Y-111659656D01*
X277274266Y-111526407D01*
X277393269Y-111405409D01*
X277505664Y-111295368D01*
X277647273Y-111163456D01*
X277782004Y-111045659D01*
X277912639Y-110938909D01*
X278009603Y-110864254D01*
X272525840Y-119054002D02*
X272448420Y-118922172D01*
X272342410Y-118737947D01*
X272247745Y-118568657D01*
X272163531Y-118412852D01*
X272088872Y-118269084D01*
X272002643Y-118093612D01*
X271929688Y-117933527D01*
X271867885Y-117785394D01*
X271803082Y-117611802D01*
X271791450Y-117578090D01*
D10*
X198597329Y-111695129D02*
X198746271Y-111835007D01*
X198774473Y-111868559D01*
D11*
X64096607Y-121325135D02*
X64088337Y-121166350D01*
X64080826Y-121015894D01*
X64073238Y-120857682D01*
X64069838Y-120784723D01*
D10*
X187055365Y-111587949D02*
X187272711Y-111606901D01*
X187469278Y-111660275D01*
X187577938Y-111710018D01*
X183205423Y-113073667D02*
X183363369Y-113207827D01*
X183510196Y-113236775D01*
D11*
X77549967Y-116499976D02*
X77583947Y-116677148D01*
X77596053Y-116856918D01*
X77586732Y-117041670D01*
X77564148Y-117194659D01*
X77528368Y-117353583D01*
X77479620Y-117519660D01*
X77418134Y-117694112D01*
X77400799Y-117739177D01*
D10*
X184802087Y-113456865D02*
X184799868Y-110956868D01*
X197681426Y-113258231D02*
X197565530Y-113088457D01*
X197499233Y-112887644D01*
X197466426Y-112681303D01*
X197459569Y-112562376D01*
D11*
X64428419Y-124292573D02*
X64387879Y-124125951D01*
X64355907Y-123974621D01*
X64325357Y-123808964D01*
X64296016Y-123626181D01*
X64273272Y-123465743D01*
X64251057Y-123291121D01*
X64234680Y-123149985D01*
D10*
X189108029Y-111865227D02*
X188929354Y-111887511D01*
D11*
X62545069Y-119307881D02*
X62466142Y-119173506D01*
X62357542Y-118984908D01*
X62259919Y-118810519D01*
X62172405Y-118648822D01*
X62094135Y-118498302D01*
X62024241Y-118357443D01*
X61942580Y-118182041D01*
X61872216Y-118017527D01*
X61811093Y-117860309D01*
X61770080Y-117745022D01*
D10*
X196282940Y-111818015D02*
X196372028Y-112002938D01*
X196393849Y-112148072D01*
X187981126Y-113462553D02*
X187872230Y-113488178D01*
D11*
X63056180Y-115416316D02*
X63202074Y-115326327D01*
X63336070Y-115249193D01*
X63484119Y-115168974D01*
X63648810Y-115084608D01*
X63794287Y-115013413D01*
X63953399Y-114938337D01*
X64082481Y-114879156D01*
X73727622Y-113572456D02*
X73886135Y-113632696D01*
X74036704Y-113690264D01*
X74179711Y-113745293D01*
X74380884Y-113823372D01*
X74567203Y-113896498D01*
X74739961Y-113965128D01*
X74900455Y-114029715D01*
X75049979Y-114090716D01*
X75189829Y-114148586D01*
X75363484Y-114221663D01*
X75525312Y-114291062D01*
X275828358Y-113991820D02*
X275943160Y-113848586D01*
X276052236Y-113713063D01*
X276155869Y-113584875D01*
X276254343Y-113463650D01*
X276393002Y-113294049D01*
X276521650Y-113138009D01*
X276641245Y-112994271D01*
X276752747Y-112861570D01*
X276857113Y-112738647D01*
X276955302Y-112624239D01*
X277078267Y-112482760D01*
X277136980Y-112415922D01*
D10*
X187980925Y-113236209D02*
X187981126Y-113462553D01*
X191899039Y-111862750D02*
X191693519Y-111911296D01*
X191529753Y-112032463D01*
X191523092Y-112040074D01*
X200404581Y-111579502D02*
X200624300Y-111612487D01*
X200812288Y-111714436D01*
X200928983Y-111849629D01*
X208577939Y-110935759D02*
X209179992Y-112403913D01*
X198704635Y-113713414D02*
X198749448Y-113505609D01*
X198762600Y-113299617D01*
X198763735Y-113190899D01*
X184799868Y-110956868D02*
X185106198Y-110956595D01*
X199825057Y-112488800D02*
X199825907Y-113443529D01*
D11*
X280621272Y-111366088D02*
X280751986Y-111477010D01*
X280866785Y-111580599D01*
X280988856Y-111696608D01*
X281120017Y-111827174D01*
X281232708Y-111943545D01*
X281353308Y-112071696D01*
X281449507Y-112176198D01*
X71899471Y-112176176D02*
X72009595Y-112297896D01*
X72126902Y-112429850D01*
X72253221Y-112574441D01*
X72354974Y-112692623D01*
X72463599Y-112820279D01*
X72579865Y-112958421D01*
X72704547Y-113108065D01*
X72838414Y-113270224D01*
X72982240Y-113445910D01*
X73084038Y-113571052D01*
D10*
X182847860Y-112874870D02*
X182846760Y-111635931D01*
X192143804Y-113440138D02*
X191946714Y-113501866D01*
X191808609Y-113515317D01*
X182038679Y-113883075D02*
X182081061Y-113697538D01*
X202025403Y-112340487D02*
X202227967Y-112389662D01*
X201824520Y-112265785D02*
X202012701Y-112337233D01*
X202025403Y-112340487D01*
X193359689Y-112392427D02*
X194372280Y-112391528D01*
X196023771Y-113184820D02*
X196144285Y-113015896D01*
X196152903Y-112954958D01*
X202118116Y-113252591D02*
X202321367Y-113219246D01*
X202417572Y-113179146D01*
X197774430Y-112587623D02*
X197794022Y-112790948D01*
X197859714Y-112989855D01*
X197899083Y-113057220D01*
D11*
X272606215Y-115416338D02*
X272752108Y-115326349D01*
X272886104Y-115249215D01*
X273034153Y-115168997D01*
X273198844Y-115084631D01*
X273344320Y-115013436D01*
X273503433Y-114938361D01*
X273632515Y-114879180D01*
X69938709Y-110841383D02*
X70117720Y-110863795D01*
X70292443Y-110907817D01*
X70465283Y-110973756D01*
X70603816Y-111042497D01*
X70743914Y-111125621D01*
X70886809Y-111223289D01*
X71033733Y-111335658D01*
X71071238Y-111366066D01*
D10*
X191280812Y-113260508D02*
X191164011Y-113074001D01*
X191097208Y-112876380D01*
X191062303Y-112666015D01*
X191057266Y-112578270D01*
X183510196Y-113236775D02*
X183713206Y-113191920D01*
X183871853Y-113066833D01*
X183945612Y-112950478D01*
X181916423Y-114194622D02*
X181868769Y-114192961D01*
X201716350Y-113104887D02*
X201894384Y-113216641D01*
X202098914Y-113252043D01*
X202118116Y-113252591D01*
X196031190Y-111959490D02*
X195853674Y-111864109D01*
X195665188Y-111838985D01*
D11*
X75631398Y-120784725D02*
X75622751Y-120968109D01*
X75614203Y-121141890D01*
X75605745Y-121306536D01*
X75597366Y-121462517D01*
X75584926Y-121681267D01*
X75572608Y-121883160D01*
X75560381Y-122069780D01*
X75548210Y-122242711D01*
X75536063Y-122403537D01*
X75523906Y-122553842D01*
X75507624Y-122740620D01*
X75499430Y-122829225D01*
D10*
X192673085Y-113449879D02*
X192397386Y-113450123D01*
D11*
X273600367Y-124763176D02*
X273546314Y-124602125D01*
X273497248Y-124432489D01*
X273452469Y-124250721D01*
X273419261Y-124094189D01*
X273387991Y-123925808D01*
X273358299Y-123743763D01*
X273329828Y-123546238D01*
X273322859Y-123494226D01*
X273978453Y-124292595D02*
X273937913Y-124125973D01*
X273905941Y-123974644D01*
X273875391Y-123808987D01*
X273846050Y-123626204D01*
X273823306Y-123465766D01*
X273801092Y-123291144D01*
X273784715Y-123150008D01*
X76886419Y-118776698D02*
X76804672Y-118919042D01*
X76715408Y-119071381D01*
X76616907Y-119236199D01*
X76535934Y-119369495D01*
X76448071Y-119512255D01*
X76352592Y-119665527D01*
X76248769Y-119830360D01*
X76135879Y-120007801D01*
X76013194Y-120198897D01*
X75925604Y-120334400D01*
D10*
X202103029Y-113511284D02*
X201898734Y-113494503D01*
X201699393Y-113436884D01*
X201527955Y-113330059D01*
X201525943Y-113327997D01*
X198237074Y-114215872D02*
X198035468Y-114195309D01*
X197834003Y-114131410D01*
X197741722Y-114083570D01*
X199517957Y-111621134D02*
X199808971Y-111620875D01*
D11*
X273646641Y-121325158D02*
X273638371Y-121166373D01*
X273630860Y-121015917D01*
X273623272Y-120857704D01*
X273619872Y-120784745D01*
X285255908Y-124597814D02*
X285197638Y-124772512D01*
X285131583Y-124940296D01*
X285056815Y-125100769D01*
X284972406Y-125253536D01*
X284877428Y-125398199D01*
X284770954Y-125534364D01*
X284652056Y-125661632D01*
X284519807Y-125779609D01*
X284876044Y-114749648D02*
X285016213Y-114810840D01*
X285210330Y-114897631D01*
X285386484Y-114979002D01*
X285546250Y-115055599D01*
X285691206Y-115128067D01*
X285864167Y-115219388D01*
X286017337Y-115306052D01*
X286154453Y-115389592D01*
X286308966Y-115491959D01*
X286338202Y-115512398D01*
D10*
X192397386Y-113450123D02*
X192397159Y-113196550D01*
D11*
X61770080Y-117745022D02*
X61714646Y-117569467D01*
X61669579Y-117394910D01*
X61635865Y-117221132D01*
X61614486Y-117047916D01*
X61606429Y-116875043D01*
X61612676Y-116702297D01*
X61634213Y-116529459D01*
X61672025Y-116356312D01*
X75226363Y-124456011D02*
X75167846Y-124628305D01*
X75102273Y-124787753D01*
X75028969Y-124934561D01*
X74947260Y-125068934D01*
X74856471Y-125191078D01*
X74729187Y-125326874D01*
X74585344Y-125444284D01*
X74522876Y-125486191D01*
D10*
X205607835Y-112407083D02*
X205330434Y-112407329D01*
D11*
X62490976Y-115202663D02*
X62627373Y-115101549D01*
X62773474Y-115002508D01*
X62932432Y-114903780D01*
X63070975Y-114823840D01*
X63221378Y-114742074D01*
X63385255Y-114657580D01*
X63564221Y-114569457D01*
X63611510Y-114546755D01*
X64050331Y-124763152D02*
X63996279Y-124602102D01*
X63947214Y-124432466D01*
X63902435Y-124250698D01*
X63869227Y-124094166D01*
X63837957Y-123925785D01*
X63808265Y-123743739D01*
X63779794Y-123546214D01*
X63772825Y-123494202D01*
D10*
X207002724Y-113627765D02*
X207028119Y-113479682D01*
X205005781Y-110938930D02*
X205607835Y-112407083D01*
X195688780Y-111576881D02*
X195896545Y-111598997D01*
X196101479Y-111674807D01*
X196263400Y-111795730D01*
X196282940Y-111818015D01*
D11*
X75997152Y-122876895D02*
X75982042Y-123032103D01*
X75959078Y-123248661D01*
X75935584Y-123447256D01*
X75911371Y-123629626D01*
X75886250Y-123797507D01*
X75860033Y-123952636D01*
X75823044Y-124142641D01*
X75783319Y-124317179D01*
X75740412Y-124480369D01*
X75705874Y-124597790D01*
D10*
X184313744Y-111634629D02*
X184315362Y-113457297D01*
X187318122Y-112350139D02*
X187459296Y-112261518D01*
X196393849Y-112148072D02*
X196104538Y-112148329D01*
X194662025Y-112876295D02*
X194598360Y-113069115D01*
X194582237Y-113101008D01*
X186708533Y-111976276D02*
X186639060Y-112165879D01*
X186635544Y-112189070D01*
X182323015Y-114027480D02*
X182147315Y-114153698D01*
X181944770Y-114193497D01*
X181916423Y-114194622D01*
D11*
X285547188Y-122876917D02*
X285532078Y-123032125D01*
X285509113Y-123248683D01*
X285485618Y-123447279D01*
X285461405Y-123629649D01*
X285436284Y-123797530D01*
X285410067Y-123952660D01*
X285373077Y-124142664D01*
X285333353Y-124317203D01*
X285290446Y-124480393D01*
X285255908Y-124597814D01*
X277136980Y-112415922D02*
X277238481Y-112301506D01*
X277380996Y-112143689D01*
X277512805Y-112001283D01*
X277635009Y-111872989D01*
X277748711Y-111757508D01*
X277888994Y-111621216D01*
X278018733Y-111502309D01*
X278140541Y-111397707D01*
X278285627Y-111282376D01*
X278314097Y-111260885D01*
D10*
X184026050Y-113457554D02*
X184029214Y-113188662D01*
X206837147Y-113066304D02*
X207201341Y-113065980D01*
X191523092Y-112040074D02*
X191426767Y-112239370D01*
X191388033Y-112442853D01*
X191380599Y-112560965D01*
X189404300Y-112035149D02*
X189249808Y-111895390D01*
X189108029Y-111865227D01*
X186967805Y-112644869D02*
X186772646Y-112690943D01*
X186717699Y-112714865D01*
X187577938Y-111710018D02*
X187720918Y-111868477D01*
X187776055Y-112066372D01*
X187777390Y-112091051D01*
D11*
X61672025Y-116356312D02*
X61727539Y-116183447D01*
X61798769Y-116018969D01*
X61884551Y-115862779D01*
X61983720Y-115714778D01*
X62095112Y-115574865D01*
X62217561Y-115442941D01*
X62349904Y-115318907D01*
X62490976Y-115202663D01*
D10*
X192397159Y-113196550D02*
X192259691Y-113356920D01*
X192143804Y-113440138D01*
X207120274Y-113765508D02*
X206971567Y-113906082D01*
X206837935Y-113954664D01*
X202787653Y-112142396D02*
X202498342Y-112142654D01*
X194087345Y-113486063D02*
X193887185Y-113512034D01*
X193837199Y-113513515D01*
X195709224Y-113516960D02*
X195504929Y-113500179D01*
X195305588Y-113442559D01*
X195134149Y-113335735D01*
X195132137Y-113333673D01*
D11*
X285674460Y-120944903D02*
X285666207Y-121114288D01*
X285658039Y-121275292D01*
X285649947Y-121428320D01*
X285637927Y-121643798D01*
X285626022Y-121843618D01*
X285614199Y-122029152D01*
X285602426Y-122201774D01*
X285590670Y-122362854D01*
X285578899Y-122513765D01*
X285563124Y-122701534D01*
X285547188Y-122876917D01*
X73629116Y-126232727D02*
X73459245Y-126234440D01*
X73282746Y-126228761D01*
X73096029Y-126215261D01*
X72936887Y-126198542D01*
X72767072Y-126176324D01*
X72584747Y-126148388D01*
X72388073Y-126114514D01*
X72336448Y-126105093D01*
D10*
X188586125Y-112498775D02*
X188586974Y-113453506D01*
X182385570Y-111644851D02*
X182387419Y-113729601D01*
D11*
X273322859Y-123494226D02*
X273303332Y-123340186D01*
X273284239Y-123175634D01*
X273265500Y-122998018D01*
X273247038Y-122804789D01*
X273233327Y-122648087D01*
X273219695Y-122480091D01*
X273206111Y-122299726D01*
X273192540Y-122105916D01*
X273178950Y-121897584D01*
X273174411Y-121824728D01*
D10*
X196048933Y-112776358D02*
X195852214Y-112707327D01*
X195786775Y-112689795D01*
X190291885Y-113080992D02*
X190647568Y-113080675D01*
X202417572Y-113179146D02*
X202538090Y-113010222D01*
X202546708Y-112949283D01*
X195543357Y-112628747D02*
X195345817Y-112567881D01*
X195199471Y-112499713D01*
X187218670Y-113425789D02*
X187019465Y-113494142D01*
X186832433Y-113516330D01*
X193351396Y-112635796D02*
X193380554Y-112842654D01*
X193454111Y-113034045D01*
X193482833Y-113081562D01*
X207026400Y-113457559D02*
X207022977Y-113437141D01*
X198774270Y-111638811D02*
X199056776Y-111638561D01*
X187471446Y-112526993D02*
X187326842Y-112586686D01*
X202442738Y-112770683D02*
X202246016Y-112701652D01*
X202180576Y-112684121D01*
X194432655Y-113301958D02*
X194262123Y-113420095D01*
X194087345Y-113486063D01*
X188708248Y-112037467D02*
X188610702Y-112215211D01*
X188608007Y-112224760D01*
D11*
X68764062Y-111260861D02*
X68912676Y-111155928D01*
X69059450Y-111065532D01*
X69205048Y-110989905D01*
X69350137Y-110929277D01*
X69495382Y-110883880D01*
X69678171Y-110848904D01*
X69863544Y-110838537D01*
X69938709Y-110841383D01*
D10*
X207719815Y-112405208D02*
X208315856Y-110935992D01*
X182385276Y-111312993D02*
X182078944Y-111313265D01*
D11*
X77967234Y-116165736D02*
X78024019Y-116338198D01*
X78063156Y-116513134D01*
X78085644Y-116689934D01*
X78092483Y-116867988D01*
X78084670Y-117046687D01*
X78063205Y-117225421D01*
X78029088Y-117403580D01*
X77983318Y-117580555D01*
D10*
X198700525Y-112918661D02*
X198756948Y-112720183D01*
X198775058Y-112525469D01*
X207201341Y-113065980D02*
X207201646Y-113409752D01*
D11*
X72336448Y-126105093D02*
X72183899Y-126076130D01*
X72021483Y-126043511D01*
X71846752Y-126006525D01*
X71657254Y-125964456D01*
X71503967Y-125929141D01*
X71339961Y-125890265D01*
X71164205Y-125847527D01*
X70975663Y-125800627D01*
X70773302Y-125749264D01*
X70702600Y-125731099D01*
D10*
X202227967Y-112389662D02*
X202436440Y-112447418D01*
X202626459Y-112520463D01*
X202670584Y-112544134D01*
X189765310Y-112283296D02*
X189766347Y-113452459D01*
X207201646Y-113409752D02*
X207175978Y-113611313D01*
X207120274Y-113765508D01*
D11*
X62241417Y-117578067D02*
X62187582Y-117404248D01*
X62147025Y-117236659D01*
X62120170Y-117074744D01*
X62107443Y-116917947D01*
X62109270Y-116765710D01*
X62132670Y-116580980D01*
X62180308Y-116401419D01*
X62206336Y-116330800D01*
D10*
X196805235Y-111632051D02*
X197116672Y-111631775D01*
X181791946Y-113920736D02*
X181992531Y-113899284D01*
X182038679Y-113883075D01*
D11*
X70702600Y-125731099D02*
X70536651Y-125688046D01*
X70386224Y-125648537D01*
X70227393Y-125606369D01*
X70059359Y-125561298D01*
X69911722Y-125521348D01*
X69850618Y-125504726D01*
D10*
X201639558Y-112870101D02*
X201692668Y-113065147D01*
X201716350Y-113104887D01*
X185108418Y-113456594D02*
X184802087Y-113456865D01*
X188279025Y-111631109D02*
X188570039Y-111630852D01*
X187459296Y-112261518D02*
X187479616Y-112144072D01*
X186414654Y-112584093D02*
X186598317Y-112474983D01*
X186796588Y-112417294D01*
X186829751Y-112411839D01*
X200346962Y-111855252D02*
X200168289Y-111877534D01*
D12*
%TO.C,C23*%
X73710000Y-119192164D02*
X73710000Y-119407836D01*
X72990000Y-119192164D02*
X72990000Y-119407836D01*
%TO.C,D6*%
X71250000Y-121825000D02*
X71750000Y-121825000D01*
X71250000Y-122325000D02*
X71250000Y-121825000D01*
X72350000Y-121975000D02*
X73150000Y-121975000D01*
%TO.C,D5*%
X75600000Y-118300000D02*
X75100000Y-118300000D01*
X75600000Y-117800000D02*
X75600000Y-118300000D01*
X74500000Y-118150000D02*
X73700000Y-118150000D01*
%TO.C,D2*%
X67000000Y-118300000D02*
X66500000Y-118300000D01*
X67000000Y-117800000D02*
X67000000Y-118300000D01*
X65900000Y-118150000D02*
X65100000Y-118150000D01*
%TO.C,C22*%
X70560000Y-120492164D02*
X70560000Y-120707836D01*
X69840000Y-120492164D02*
X69840000Y-120707836D01*
%TO.C,D7*%
X275000000Y-121850000D02*
X275500000Y-121850000D01*
X275000000Y-122350000D02*
X275000000Y-121850000D01*
X276100000Y-122000000D02*
X276900000Y-122000000D01*
%TO.C,D11*%
X280800000Y-121850000D02*
X281300000Y-121850000D01*
X280800000Y-122350000D02*
X280800000Y-121850000D01*
X281900000Y-122000000D02*
X282700000Y-122000000D01*
%TO.C,C25*%
X278960000Y-122892164D02*
X278960000Y-123107836D01*
X278240000Y-122892164D02*
X278240000Y-123107836D01*
%TO.C,C24*%
X75110000Y-121892164D02*
X75110000Y-122107836D01*
X74390000Y-121892164D02*
X74390000Y-122107836D01*
%TO.C,D4*%
X71350000Y-119650000D02*
X70850000Y-119650000D01*
X71350000Y-119150000D02*
X71350000Y-119650000D01*
X70250000Y-119500000D02*
X69450000Y-119500000D01*
%TO.C,C19*%
X70210000Y-111900164D02*
X70210000Y-112115836D01*
X69490000Y-111900164D02*
X69490000Y-112115836D01*
%TO.C,C20*%
X63860000Y-117892164D02*
X63860000Y-118107836D01*
X63140000Y-117892164D02*
X63140000Y-118107836D01*
%TO.C,C27*%
X279760000Y-116142164D02*
X279760000Y-116357836D01*
X279040000Y-116142164D02*
X279040000Y-116357836D01*
%TO.C,C26*%
X277460000Y-117142164D02*
X277460000Y-117357836D01*
X276740000Y-117142164D02*
X276740000Y-117357836D01*
%TO.C,D9*%
X280900000Y-115246250D02*
X280400000Y-115246250D01*
X280900000Y-114746250D02*
X280900000Y-115246250D01*
X279800000Y-115096250D02*
X279000000Y-115096250D01*
%TO.C,D3*%
X68700000Y-124125000D02*
X68200000Y-124125000D01*
X68700000Y-123625000D02*
X68700000Y-124125000D01*
X67600000Y-123975000D02*
X66800000Y-123975000D01*
%TO.C,C21*%
X65507500Y-123392164D02*
X65507500Y-123607836D01*
X64787500Y-123392164D02*
X64787500Y-123607836D01*
%TO.C,D10*%
X285250000Y-118400000D02*
X284750000Y-118400000D01*
X285250000Y-117900000D02*
X285250000Y-118400000D01*
X284150000Y-118250000D02*
X283350000Y-118250000D01*
%TO.C,D1*%
X68350000Y-112950000D02*
X68850000Y-112950000D01*
X68350000Y-113450000D02*
X68350000Y-112950000D01*
X69450000Y-113100000D02*
X70250000Y-113100000D01*
%TO.C,C30*%
X281860000Y-119142164D02*
X281860000Y-119357836D01*
X281140000Y-119142164D02*
X281140000Y-119357836D01*
%TO.C,C28*%
X283360000Y-119392164D02*
X283360000Y-119607836D01*
X282640000Y-119392164D02*
X282640000Y-119607836D01*
%TO.C,D12*%
X277900000Y-117450000D02*
X278400000Y-117450000D01*
X277900000Y-117950000D02*
X277900000Y-117450000D01*
X279000000Y-117600000D02*
X279800000Y-117600000D01*
%TO.C,C29*%
X284660000Y-122392164D02*
X284660000Y-122607836D01*
X283940000Y-122392164D02*
X283940000Y-122607836D01*
%TO.C,D8*%
X273500000Y-116100000D02*
X274000000Y-116100000D01*
X273500000Y-116600000D02*
X273500000Y-116100000D01*
X274600000Y-116250000D02*
X275400000Y-116250000D01*
%TD*%
%LPC*%
D13*
%TO.C,S2*%
X307975000Y-87630000D03*
X284162500Y-87630000D03*
D14*
X284162500Y-72390000D03*
X307975000Y-72390000D03*
%TD*%
%TO.C,S1*%
X310356250Y-34290000D03*
X286543750Y-34290000D03*
D13*
X310356250Y-49530000D03*
X286543750Y-49530000D03*
%TD*%
D15*
%TO.C,SW15*%
X293370000Y-41275000D03*
D13*
X298450000Y-41275000D03*
D15*
X303530000Y-41275000D03*
%TD*%
%TO.C,SW22*%
X140970000Y-60325000D03*
D13*
X146050000Y-60325000D03*
D15*
X151130000Y-60325000D03*
%TD*%
%TO.C,SW55*%
X302895000Y-98425000D03*
D13*
X307975000Y-98425000D03*
D15*
X313055000Y-98425000D03*
%TD*%
%TO.C,SW29*%
X274320000Y-60325000D03*
D13*
X279400000Y-60325000D03*
D15*
X284480000Y-60325000D03*
%TD*%
%TO.C,SW33*%
X107632500Y-79375000D03*
D13*
X112712500Y-79375000D03*
D15*
X117792500Y-79375000D03*
%TD*%
%TO.C,SW25*%
X198120000Y-60325000D03*
D13*
X203200000Y-60325000D03*
D15*
X208280000Y-60325000D03*
%TD*%
%TO.C,SW53*%
X250507500Y-98425000D03*
D13*
X255587500Y-98425000D03*
D15*
X260667500Y-98425000D03*
%TD*%
D16*
%TO.C,C23*%
X73350000Y-118820000D03*
X73350000Y-119780000D03*
%TD*%
D15*
%TO.C,SW17*%
X40957500Y-60325000D03*
D13*
X46037500Y-60325000D03*
D15*
X51117500Y-60325000D03*
%TD*%
%TO.C,SW41*%
X260032500Y-79375000D03*
D13*
X265112500Y-79375000D03*
D15*
X270192500Y-79375000D03*
%TD*%
%TO.C,SW36*%
X164782500Y-79375000D03*
D13*
X169862500Y-79375000D03*
D15*
X174942500Y-79375000D03*
%TD*%
D17*
%TO.C,D6*%
X71835000Y-122425000D03*
X71835000Y-123525000D03*
X73665000Y-123525000D03*
X73665000Y-122425000D03*
%TD*%
D18*
%TO.C,D5*%
X75015000Y-117700000D03*
X75015000Y-116600000D03*
X73185000Y-116600000D03*
X73185000Y-117700000D03*
%TD*%
%TO.C,D2*%
X66415000Y-117700000D03*
X66415000Y-116600000D03*
X64585000Y-116600000D03*
X64585000Y-117700000D03*
%TD*%
D15*
%TO.C,SW47*%
X136207500Y-98425000D03*
D13*
X141287500Y-98425000D03*
D15*
X146367500Y-98425000D03*
%TD*%
%TO.C,SW11*%
X207645000Y-41275000D03*
D13*
X212725000Y-41275000D03*
D15*
X217805000Y-41275000D03*
%TD*%
%TO.C,SW45*%
X98107500Y-98425000D03*
D13*
X103187500Y-98425000D03*
D15*
X108267500Y-98425000D03*
%TD*%
%TO.C,SW57*%
X88582500Y-117475000D03*
D13*
X93662500Y-117475000D03*
D15*
X98742500Y-117475000D03*
%TD*%
%TO.C,SW56*%
X40957500Y-117475000D03*
D13*
X46037500Y-117475000D03*
D15*
X51117500Y-117475000D03*
%TD*%
%TO.C,SW24*%
X179070000Y-60325000D03*
D13*
X184150000Y-60325000D03*
D15*
X189230000Y-60325000D03*
%TD*%
%TO.C,SW59*%
X250507500Y-117475000D03*
D13*
X255587500Y-117475000D03*
D15*
X260667500Y-117475000D03*
%TD*%
%TO.C,SW7*%
X131445000Y-41275000D03*
D13*
X136525000Y-41275000D03*
D15*
X141605000Y-41275000D03*
%TD*%
%TO.C,SW20*%
X102870000Y-60325000D03*
D13*
X107950000Y-60325000D03*
D15*
X113030000Y-60325000D03*
%TD*%
D16*
%TO.C,C22*%
X70200000Y-120120000D03*
X70200000Y-121080000D03*
%TD*%
D15*
%TO.C,SW2*%
X36195000Y-41275000D03*
D13*
X41275000Y-41275000D03*
D15*
X46355000Y-41275000D03*
%TD*%
D17*
%TO.C,D7*%
X275585000Y-122450000D03*
X275585000Y-123550000D03*
X277415000Y-123550000D03*
X277415000Y-122450000D03*
%TD*%
D15*
%TO.C,SW31*%
X69532500Y-79375000D03*
D13*
X74612500Y-79375000D03*
D15*
X79692500Y-79375000D03*
%TD*%
%TO.C,SW27*%
X236220000Y-60325000D03*
D13*
X241300000Y-60325000D03*
D15*
X246380000Y-60325000D03*
%TD*%
%TO.C,SW32*%
X88582500Y-79375000D03*
D13*
X93662500Y-79375000D03*
D15*
X98742500Y-79375000D03*
%TD*%
D17*
%TO.C,D11*%
X281385000Y-122450000D03*
X281385000Y-123550000D03*
X283215000Y-123550000D03*
X283215000Y-122450000D03*
%TD*%
D16*
%TO.C,C25*%
X278600000Y-122520000D03*
X278600000Y-123480000D03*
%TD*%
D15*
%TO.C,SW34*%
X126682500Y-79375000D03*
D13*
X131762500Y-79375000D03*
D15*
X136842500Y-79375000D03*
%TD*%
%TO.C,SW37*%
X183832500Y-79375000D03*
D13*
X188912500Y-79375000D03*
D15*
X193992500Y-79375000D03*
%TD*%
%TO.C,SW10*%
X188595000Y-41275000D03*
D13*
X193675000Y-41275000D03*
D15*
X198755000Y-41275000D03*
%TD*%
%TO.C,SW21*%
X121920000Y-60325000D03*
D13*
X127000000Y-60325000D03*
D15*
X132080000Y-60325000D03*
%TD*%
%TO.C,SW3*%
X55245000Y-41275000D03*
D13*
X60325000Y-41275000D03*
D15*
X65405000Y-41275000D03*
%TD*%
%TO.C,SW38*%
X202882500Y-79375000D03*
D13*
X207962500Y-79375000D03*
D15*
X213042500Y-79375000D03*
%TD*%
%TO.C,SW50*%
X193357500Y-98425000D03*
D13*
X198437500Y-98425000D03*
D15*
X203517500Y-98425000D03*
%TD*%
%TO.C,SW52*%
X231457500Y-98425000D03*
D13*
X236537500Y-98425000D03*
D15*
X241617500Y-98425000D03*
%TD*%
D16*
%TO.C,C24*%
X74750000Y-121520000D03*
X74750000Y-122480000D03*
%TD*%
D15*
%TO.C,SW13*%
X245745000Y-41275000D03*
D13*
X250825000Y-41275000D03*
D15*
X255905000Y-41275000D03*
%TD*%
D18*
%TO.C,D4*%
X70765000Y-119050000D03*
X70765000Y-117950000D03*
X68935000Y-117950000D03*
X68935000Y-119050000D03*
%TD*%
D15*
%TO.C,SW35*%
X145732500Y-79375000D03*
D13*
X150812500Y-79375000D03*
D15*
X155892500Y-79375000D03*
%TD*%
D16*
%TO.C,C19*%
X69850000Y-111528000D03*
X69850000Y-112488000D03*
%TD*%
%TO.C,C20*%
X63500000Y-117520000D03*
X63500000Y-118480000D03*
%TD*%
D13*
%TO.C,S3*%
X231775000Y-109220000D03*
X117475000Y-109220000D03*
%TD*%
D15*
%TO.C,SW39*%
X221932500Y-79375000D03*
D13*
X227012500Y-79375000D03*
D15*
X232092500Y-79375000D03*
%TD*%
%TO.C,SW23*%
X160020000Y-60325000D03*
D13*
X165100000Y-60325000D03*
D15*
X170180000Y-60325000D03*
%TD*%
%TO.C,SW51*%
X212407500Y-98425000D03*
D13*
X217487500Y-98425000D03*
D15*
X222567500Y-98425000D03*
%TD*%
D16*
%TO.C,C27*%
X279400000Y-115770000D03*
X279400000Y-116730000D03*
%TD*%
D15*
%TO.C,SW43*%
X48101250Y-98425000D03*
D13*
X53181250Y-98425000D03*
D15*
X58261250Y-98425000D03*
%TD*%
%TO.C,SW61*%
X302895000Y-41275000D03*
D13*
X307975000Y-41275000D03*
D15*
X313055000Y-41275000D03*
%TD*%
%TO.C,SW44*%
X79057500Y-98425000D03*
D13*
X84137500Y-98425000D03*
D15*
X89217500Y-98425000D03*
%TD*%
%TO.C,SW58*%
X169545000Y-117475000D03*
D13*
X174625000Y-117475000D03*
D15*
X179705000Y-117475000D03*
%TD*%
D16*
%TO.C,C26*%
X277100000Y-116770000D03*
X277100000Y-117730000D03*
%TD*%
D15*
%TO.C,SW18*%
X64770000Y-60325000D03*
D13*
X69850000Y-60325000D03*
D15*
X74930000Y-60325000D03*
%TD*%
%TO.C,SW5*%
X93345000Y-41275000D03*
D13*
X98425000Y-41275000D03*
D15*
X103505000Y-41275000D03*
%TD*%
%TO.C,SW6*%
X112395000Y-41275000D03*
D13*
X117475000Y-41275000D03*
D15*
X122555000Y-41275000D03*
%TD*%
D18*
%TO.C,D9*%
X280315000Y-114646250D03*
X280315000Y-113546250D03*
X278485000Y-113546250D03*
X278485000Y-114646250D03*
%TD*%
%TO.C,D3*%
X68115000Y-123525000D03*
X68115000Y-122425000D03*
X66285000Y-122425000D03*
X66285000Y-123525000D03*
%TD*%
D15*
%TO.C,SW28*%
X255270000Y-60325000D03*
D13*
X260350000Y-60325000D03*
D15*
X265430000Y-60325000D03*
%TD*%
%TO.C,SW48*%
X155257500Y-98425000D03*
D13*
X160337500Y-98425000D03*
D15*
X165417500Y-98425000D03*
%TD*%
D16*
%TO.C,C21*%
X65147500Y-123020000D03*
X65147500Y-123980000D03*
%TD*%
D15*
%TO.C,SW60*%
X298132500Y-117475000D03*
D13*
X303212500Y-117475000D03*
D15*
X308292500Y-117475000D03*
%TD*%
%TO.C,SW49*%
X174307500Y-98425000D03*
D13*
X179387500Y-98425000D03*
D15*
X184467500Y-98425000D03*
%TD*%
D18*
%TO.C,D10*%
X284665000Y-117800000D03*
X284665000Y-116700000D03*
X282835000Y-116700000D03*
X282835000Y-117800000D03*
%TD*%
D15*
%TO.C,SW30*%
X38576250Y-79375000D03*
D13*
X43656250Y-79375000D03*
D15*
X48736250Y-79375000D03*
%TD*%
%TO.C,SW26*%
X217170000Y-60325000D03*
D13*
X222250000Y-60325000D03*
D15*
X227330000Y-60325000D03*
%TD*%
%TO.C,SW62*%
X298132500Y-60325000D03*
D13*
X303212500Y-60325000D03*
D15*
X308292500Y-60325000D03*
%TD*%
%TO.C,SW16*%
X283845000Y-41275000D03*
D13*
X288925000Y-41275000D03*
D15*
X294005000Y-41275000D03*
%TD*%
%TO.C,SW14*%
X264795000Y-41275000D03*
D13*
X269875000Y-41275000D03*
D15*
X274955000Y-41275000D03*
%TD*%
D17*
%TO.C,D1*%
X68935000Y-113550000D03*
X68935000Y-114650000D03*
X70765000Y-114650000D03*
X70765000Y-113550000D03*
%TD*%
D15*
%TO.C,SW46*%
X117157500Y-98425000D03*
D13*
X122237500Y-98425000D03*
D15*
X127317500Y-98425000D03*
%TD*%
%TO.C,SW40*%
X240982500Y-79375000D03*
D13*
X246062500Y-79375000D03*
D15*
X251142500Y-79375000D03*
%TD*%
D14*
%TO.C,S4*%
X41275000Y-91440000D03*
D13*
X41275000Y-106680000D03*
D14*
X65087500Y-91440000D03*
D13*
X65087500Y-106680000D03*
%TD*%
D15*
%TO.C,SW12*%
X226695000Y-41275000D03*
D13*
X231775000Y-41275000D03*
D15*
X236855000Y-41275000D03*
%TD*%
%TO.C,SW9*%
X169545000Y-41275000D03*
D13*
X174625000Y-41275000D03*
D15*
X179705000Y-41275000D03*
%TD*%
%TO.C,SW19*%
X83820000Y-60325000D03*
D13*
X88900000Y-60325000D03*
D15*
X93980000Y-60325000D03*
%TD*%
%TO.C,SW42*%
X290988750Y-79375000D03*
D13*
X296068750Y-79375000D03*
D15*
X301148750Y-79375000D03*
%TD*%
D16*
%TO.C,C30*%
X281500000Y-118770000D03*
X281500000Y-119730000D03*
%TD*%
D15*
%TO.C,SW4*%
X74295000Y-41275000D03*
D13*
X79375000Y-41275000D03*
D15*
X84455000Y-41275000D03*
%TD*%
D16*
%TO.C,C28*%
X283000000Y-119020000D03*
X283000000Y-119980000D03*
%TD*%
D17*
%TO.C,D12*%
X278485000Y-118050000D03*
X278485000Y-119150000D03*
X280315000Y-119150000D03*
X280315000Y-118050000D03*
%TD*%
D15*
%TO.C,SW8*%
X150495000Y-41275000D03*
D13*
X155575000Y-41275000D03*
D15*
X160655000Y-41275000D03*
%TD*%
D16*
%TO.C,C29*%
X284300000Y-122020000D03*
X284300000Y-122980000D03*
%TD*%
D17*
%TO.C,D8*%
X274085000Y-116700000D03*
X274085000Y-117800000D03*
X275915000Y-117800000D03*
X275915000Y-116700000D03*
%TD*%
D15*
%TO.C,SW54*%
X276701250Y-98425000D03*
D13*
X281781250Y-98425000D03*
D15*
X286861250Y-98425000D03*
%TD*%
D19*
%TO.C,J2*%
X39919999Y-69341999D03*
D20*
X42459999Y-69341999D03*
X44999999Y-69341999D03*
X47539999Y-69341999D03*
X50079999Y-69341999D03*
%TD*%
D19*
%TO.C,SW1*%
X88336249Y-69874999D03*
D20*
X85796249Y-69874999D03*
%TD*%
M02*
