%TF.GenerationSoftware,KiCad,Pcbnew,(7.0.0-0)*%
%TF.CreationDate,2023-03-19T19:27:31-07:00*%
%TF.ProjectId,popstar,706f7073-7461-4722-9e6b-696361645f70,rev?*%
%TF.SameCoordinates,Original*%
%TF.FileFunction,Soldermask,Top*%
%TF.FilePolarity,Negative*%
%FSLAX46Y46*%
G04 Gerber Fmt 4.6, Leading zero omitted, Abs format (unit mm)*
G04 Created by KiCad (PCBNEW (7.0.0-0)) date 2023-03-19 19:27:31*
%MOMM*%
%LPD*%
G01*
G04 APERTURE LIST*
%ADD10C,3.987800*%
%ADD11C,3.048000*%
%ADD12C,1.750000*%
%ADD13R,1.700000X1.700000*%
%ADD14O,1.700000X1.700000*%
G04 APERTURE END LIST*
D10*
%TO.C,S4*%
X65087500Y-106680000D03*
X41275000Y-106680000D03*
D11*
X41275000Y-91440000D03*
X65087500Y-91440000D03*
%TD*%
D12*
%TO.C,SW15*%
X293370000Y-41275000D03*
D10*
X298450000Y-41275000D03*
D12*
X303530000Y-41275000D03*
%TD*%
%TO.C,SW22*%
X140970000Y-60325000D03*
D10*
X146050000Y-60325000D03*
D12*
X151130000Y-60325000D03*
%TD*%
D11*
%TO.C,S1*%
X286543750Y-34290000D03*
D10*
X286543750Y-49530000D03*
D11*
X310356250Y-34290000D03*
D10*
X310356250Y-49530000D03*
%TD*%
D12*
%TO.C,SW55*%
X302895000Y-98425000D03*
D10*
X307975000Y-98425000D03*
D12*
X313055000Y-98425000D03*
%TD*%
%TO.C,SW29*%
X274320000Y-60325000D03*
D10*
X279400000Y-60325000D03*
D12*
X284480000Y-60325000D03*
%TD*%
%TO.C,SW33*%
X107632500Y-79375000D03*
D10*
X112712500Y-79375000D03*
D12*
X117792500Y-79375000D03*
%TD*%
%TO.C,SW25*%
X198120000Y-60325000D03*
D10*
X203200000Y-60325000D03*
D12*
X208280000Y-60325000D03*
%TD*%
%TO.C,SW53*%
X250507500Y-98425000D03*
D10*
X255587500Y-98425000D03*
D12*
X260667500Y-98425000D03*
%TD*%
%TO.C,SW17*%
X40957500Y-60325000D03*
D10*
X46037500Y-60325000D03*
D12*
X51117500Y-60325000D03*
%TD*%
%TO.C,SW41*%
X260032500Y-79375000D03*
D10*
X265112500Y-79375000D03*
D12*
X270192500Y-79375000D03*
%TD*%
D11*
%TO.C,S2*%
X284162500Y-72390000D03*
D10*
X284162500Y-87630000D03*
D11*
X307975000Y-72390000D03*
D10*
X307975000Y-87630000D03*
%TD*%
D12*
%TO.C,SW36*%
X164782500Y-79375000D03*
D10*
X169862500Y-79375000D03*
D12*
X174942500Y-79375000D03*
%TD*%
%TO.C,SW47*%
X136207500Y-98425000D03*
D10*
X141287500Y-98425000D03*
D12*
X146367500Y-98425000D03*
%TD*%
%TO.C,SW11*%
X207645000Y-41275000D03*
D10*
X212725000Y-41275000D03*
D12*
X217805000Y-41275000D03*
%TD*%
%TO.C,SW45*%
X98107500Y-98425000D03*
D10*
X103187500Y-98425000D03*
D12*
X108267500Y-98425000D03*
%TD*%
%TO.C,SW57*%
X88582500Y-117475000D03*
D10*
X93662500Y-117475000D03*
D12*
X98742500Y-117475000D03*
%TD*%
%TO.C,SW56*%
X40957500Y-117475000D03*
D10*
X46037500Y-117475000D03*
D12*
X51117500Y-117475000D03*
%TD*%
%TO.C,SW24*%
X179070000Y-60325000D03*
D10*
X184150000Y-60325000D03*
D12*
X189230000Y-60325000D03*
%TD*%
%TO.C,SW59*%
X250507500Y-117475000D03*
D10*
X255587500Y-117475000D03*
D12*
X260667500Y-117475000D03*
%TD*%
%TO.C,SW7*%
X131445000Y-41275000D03*
D10*
X136525000Y-41275000D03*
D12*
X141605000Y-41275000D03*
%TD*%
%TO.C,SW20*%
X102870000Y-60325000D03*
D10*
X107950000Y-60325000D03*
D12*
X113030000Y-60325000D03*
%TD*%
%TO.C,SW2*%
X36195000Y-41275000D03*
D10*
X41275000Y-41275000D03*
D12*
X46355000Y-41275000D03*
%TD*%
%TO.C,SW31*%
X69532500Y-79375000D03*
D10*
X74612500Y-79375000D03*
D12*
X79692500Y-79375000D03*
%TD*%
%TO.C,SW27*%
X236220000Y-60325000D03*
D10*
X241300000Y-60325000D03*
D12*
X246380000Y-60325000D03*
%TD*%
%TO.C,SW32*%
X88582500Y-79375000D03*
D10*
X93662500Y-79375000D03*
D12*
X98742500Y-79375000D03*
%TD*%
%TO.C,SW34*%
X126682500Y-79375000D03*
D10*
X131762500Y-79375000D03*
D12*
X136842500Y-79375000D03*
%TD*%
%TO.C,SW37*%
X183832500Y-79375000D03*
D10*
X188912500Y-79375000D03*
D12*
X193992500Y-79375000D03*
%TD*%
%TO.C,SW10*%
X188595000Y-41275000D03*
D10*
X193675000Y-41275000D03*
D12*
X198755000Y-41275000D03*
%TD*%
%TO.C,SW21*%
X121920000Y-60325000D03*
D10*
X127000000Y-60325000D03*
D12*
X132080000Y-60325000D03*
%TD*%
%TO.C,SW3*%
X55245000Y-41275000D03*
D10*
X60325000Y-41275000D03*
D12*
X65405000Y-41275000D03*
%TD*%
%TO.C,SW38*%
X202882500Y-79375000D03*
D10*
X207962500Y-79375000D03*
D12*
X213042500Y-79375000D03*
%TD*%
%TO.C,SW50*%
X193357500Y-98425000D03*
D10*
X198437500Y-98425000D03*
D12*
X203517500Y-98425000D03*
%TD*%
%TO.C,SW52*%
X231457500Y-98425000D03*
D10*
X236537500Y-98425000D03*
D12*
X241617500Y-98425000D03*
%TD*%
%TO.C,SW13*%
X245745000Y-41275000D03*
D10*
X250825000Y-41275000D03*
D12*
X255905000Y-41275000D03*
%TD*%
%TO.C,SW35*%
X145732500Y-79375000D03*
D10*
X150812500Y-79375000D03*
D12*
X155892500Y-79375000D03*
%TD*%
D10*
%TO.C,S3*%
X231775000Y-109220000D03*
X117475000Y-109220000D03*
%TD*%
D12*
%TO.C,SW39*%
X221932500Y-79375000D03*
D10*
X227012500Y-79375000D03*
D12*
X232092500Y-79375000D03*
%TD*%
%TO.C,SW23*%
X160020000Y-60325000D03*
D10*
X165100000Y-60325000D03*
D12*
X170180000Y-60325000D03*
%TD*%
%TO.C,SW51*%
X212407500Y-98425000D03*
D10*
X217487500Y-98425000D03*
D12*
X222567500Y-98425000D03*
%TD*%
%TO.C,SW43*%
X48101250Y-98425000D03*
D10*
X53181250Y-98425000D03*
D12*
X58261250Y-98425000D03*
%TD*%
%TO.C,SW61*%
X302895000Y-41275000D03*
D10*
X307975000Y-41275000D03*
D12*
X313055000Y-41275000D03*
%TD*%
%TO.C,SW44*%
X79057500Y-98425000D03*
D10*
X84137500Y-98425000D03*
D12*
X89217500Y-98425000D03*
%TD*%
%TO.C,SW58*%
X169545000Y-117475000D03*
D10*
X174625000Y-117475000D03*
D12*
X179705000Y-117475000D03*
%TD*%
%TO.C,SW18*%
X64770000Y-60325000D03*
D10*
X69850000Y-60325000D03*
D12*
X74930000Y-60325000D03*
%TD*%
%TO.C,SW5*%
X93345000Y-41275000D03*
D10*
X98425000Y-41275000D03*
D12*
X103505000Y-41275000D03*
%TD*%
%TO.C,SW6*%
X112395000Y-41275000D03*
D10*
X117475000Y-41275000D03*
D12*
X122555000Y-41275000D03*
%TD*%
%TO.C,SW28*%
X255270000Y-60325000D03*
D10*
X260350000Y-60325000D03*
D12*
X265430000Y-60325000D03*
%TD*%
%TO.C,SW48*%
X155257500Y-98425000D03*
D10*
X160337500Y-98425000D03*
D12*
X165417500Y-98425000D03*
%TD*%
%TO.C,SW60*%
X298132500Y-117475000D03*
D10*
X303212500Y-117475000D03*
D12*
X308292500Y-117475000D03*
%TD*%
%TO.C,SW49*%
X174307500Y-98425000D03*
D10*
X179387500Y-98425000D03*
D12*
X184467500Y-98425000D03*
%TD*%
%TO.C,SW30*%
X38576250Y-79375000D03*
D10*
X43656250Y-79375000D03*
D12*
X48736250Y-79375000D03*
%TD*%
%TO.C,SW26*%
X217170000Y-60325000D03*
D10*
X222250000Y-60325000D03*
D12*
X227330000Y-60325000D03*
%TD*%
%TO.C,SW62*%
X298132500Y-60325000D03*
D10*
X303212500Y-60325000D03*
D12*
X308292500Y-60325000D03*
%TD*%
%TO.C,SW16*%
X283845000Y-41275000D03*
D10*
X288925000Y-41275000D03*
D12*
X294005000Y-41275000D03*
%TD*%
%TO.C,SW14*%
X264795000Y-41275000D03*
D10*
X269875000Y-41275000D03*
D12*
X274955000Y-41275000D03*
%TD*%
%TO.C,SW46*%
X117157500Y-98425000D03*
D10*
X122237500Y-98425000D03*
D12*
X127317500Y-98425000D03*
%TD*%
%TO.C,SW40*%
X240982500Y-79375000D03*
D10*
X246062500Y-79375000D03*
D12*
X251142500Y-79375000D03*
%TD*%
%TO.C,SW12*%
X226695000Y-41275000D03*
D10*
X231775000Y-41275000D03*
D12*
X236855000Y-41275000D03*
%TD*%
%TO.C,SW9*%
X169545000Y-41275000D03*
D10*
X174625000Y-41275000D03*
D12*
X179705000Y-41275000D03*
%TD*%
%TO.C,SW19*%
X83820000Y-60325000D03*
D10*
X88900000Y-60325000D03*
D12*
X93980000Y-60325000D03*
%TD*%
%TO.C,SW42*%
X290988750Y-79375000D03*
D10*
X296068750Y-79375000D03*
D12*
X301148750Y-79375000D03*
%TD*%
%TO.C,SW4*%
X74295000Y-41275000D03*
D10*
X79375000Y-41275000D03*
D12*
X84455000Y-41275000D03*
%TD*%
%TO.C,SW8*%
X150495000Y-41275000D03*
D10*
X155575000Y-41275000D03*
D12*
X160655000Y-41275000D03*
%TD*%
%TO.C,SW54*%
X276701250Y-98425000D03*
D10*
X281781250Y-98425000D03*
D12*
X286861250Y-98425000D03*
%TD*%
D13*
%TO.C,J2*%
X39919999Y-69341999D03*
D14*
X42459999Y-69341999D03*
X44999999Y-69341999D03*
X47539999Y-69341999D03*
X50079999Y-69341999D03*
%TD*%
D13*
%TO.C,SW1*%
X88336249Y-69874999D03*
D14*
X85796249Y-69874999D03*
%TD*%
M02*
