%TF.GenerationSoftware,KiCad,Pcbnew,(7.0.0-0)*%
%TF.CreationDate,2023-03-18T23:54:28-07:00*%
%TF.ProjectId,popstar,706f7073-7461-4722-9e6b-696361645f70,rev?*%
%TF.SameCoordinates,Original*%
%TF.FileFunction,Profile,NP*%
%FSLAX46Y46*%
G04 Gerber Fmt 4.6, Leading zero omitted, Abs format (unit mm)*
G04 Created by KiCad (PCBNEW (7.0.0-0)) date 2023-03-18 23:54:28*
%MOMM*%
%LPD*%
G01*
G04 APERTURE LIST*
%TA.AperFunction,Profile*%
%ADD10C,0.200000*%
%TD*%
G04 APERTURE END LIST*
D10*
X121283023Y-34050150D02*
G75*
G03*
X119346506Y-32550157I-1936523J-500050D01*
G01*
X233750000Y-104500000D02*
X229750000Y-104500000D01*
X316979014Y-124749997D02*
X316978951Y-115346077D01*
X33778677Y-68412083D02*
G75*
G03*
X32278917Y-70348489I500223J-1936417D01*
G01*
X315478924Y-56790608D02*
G75*
G03*
X315478950Y-68409598I1499976J-5809492D01*
G01*
X213508067Y-126749969D02*
G75*
G03*
X215444560Y-125250000I33J1999969D01*
G01*
X233750000Y-106000000D02*
X236750000Y-109000000D01*
X216357174Y-34050161D02*
G75*
G03*
X227976127Y-34050157I5809476J1500001D01*
G01*
X120257861Y-126749963D02*
G75*
G03*
X122194389Y-125249861I39J1999963D01*
G01*
X216357219Y-34050150D02*
G75*
G03*
X214420685Y-32550161I-1936519J-500050D01*
G01*
X32279334Y-99854155D02*
G75*
G03*
X33779267Y-101790648I1999966J-45D01*
G01*
X122500000Y-107500000D02*
X122750000Y-107500000D01*
X33779246Y-113409572D02*
G75*
G03*
X32279251Y-115346077I500054J-1936528D01*
G01*
X33778671Y-68412059D02*
G75*
G03*
X33778671Y-56793493I-1500743J5809283D01*
G01*
X316978934Y-99854155D02*
X316978951Y-70346089D01*
X275000000Y-108000000D02*
X275000000Y-108500000D01*
X119500000Y-106000000D02*
X122500000Y-109000000D01*
X279187470Y-50825130D02*
G75*
G03*
X278687501Y-50325130I-499970J30D01*
G01*
X316978933Y-54854154D02*
X316978909Y-34550163D01*
X32278917Y-70348489D02*
X32279268Y-99854155D01*
X274500000Y-109000000D02*
G75*
G03*
X275000000Y-108500000I0J500000D01*
G01*
X315478951Y-56790712D02*
G75*
G03*
X316978933Y-54854154I-500051J1936512D01*
G01*
X214420685Y-32550161D02*
X134838440Y-32550156D01*
X236750000Y-107500000D02*
X233750000Y-104500000D01*
X119500000Y-104500000D02*
X122500000Y-107500000D01*
X267000000Y-107500000D02*
X274500000Y-107500000D01*
X316978997Y-115346077D02*
G75*
G03*
X315478950Y-113409598I-1999997J-23D01*
G01*
X64044521Y-34050139D02*
G75*
G03*
X62107964Y-32550156I-1936521J-500061D01*
G01*
X76500000Y-108500000D02*
X76500000Y-108000000D01*
X227063508Y-125250000D02*
G75*
G03*
X229000000Y-126750000I1936492J500000D01*
G01*
X226750000Y-107500000D02*
X122750000Y-107500000D01*
X229750000Y-104500000D02*
X226750000Y-107500000D01*
X314978910Y-32550164D02*
X286647842Y-32550155D01*
X133813549Y-125249861D02*
G75*
G03*
X122194391Y-125249861I-5809579J-1499589D01*
G01*
X63353928Y-50325128D02*
X278687501Y-50325130D01*
X274500000Y-109000000D02*
X267000000Y-109000000D01*
X278687501Y-51825102D02*
G75*
G03*
X279187502Y-51325129I-1J500002D01*
G01*
X32279251Y-115346077D02*
X32278917Y-124749999D01*
X77599898Y-32550187D02*
G75*
G03*
X75663406Y-34050157I2J-2000013D01*
G01*
X112000000Y-109000000D02*
X112500000Y-109000000D01*
X119346506Y-32550157D02*
X77599898Y-32550157D01*
X112500000Y-109000000D02*
X115500000Y-106000000D01*
X267000000Y-107500000D02*
X236750000Y-107500000D01*
X229750000Y-106000000D02*
X233750000Y-106000000D01*
X229912620Y-32550208D02*
G75*
G03*
X227976128Y-34050157I-20J-1999992D01*
G01*
X316978936Y-34550163D02*
G75*
G03*
X314978910Y-32550164I-2000036J-37D01*
G01*
X32278940Y-54857063D02*
G75*
G03*
X33778671Y-56793491I1999960J-37D01*
G01*
X34278918Y-126750000D02*
X120257861Y-126750000D01*
X33779252Y-113409594D02*
G75*
G03*
X33779267Y-101790650I-1499992J5809474D01*
G01*
X77000000Y-107500000D02*
X111750000Y-107500000D01*
X111750000Y-107500000D02*
X112500000Y-107500000D01*
X273093283Y-34049666D02*
G75*
G03*
X284711475Y-34049666I5809096J1501464D01*
G01*
X62107964Y-32550156D02*
X34278918Y-32550155D01*
X278687501Y-51825130D02*
X63353929Y-51825130D01*
X279187502Y-50825130D02*
X279187502Y-51325129D01*
X135750081Y-126750000D02*
X213508067Y-126750000D01*
X62853870Y-51325129D02*
G75*
G03*
X63353929Y-51825130I500030J29D01*
G01*
X63353928Y-50325128D02*
G75*
G03*
X62853928Y-50825129I-28J-499972D01*
G01*
X315478952Y-101790713D02*
G75*
G03*
X316978934Y-99854155I-500052J1936513D01*
G01*
X76500000Y-108500000D02*
G75*
G03*
X77000000Y-109000000I500000J0D01*
G01*
X229000000Y-126750000D02*
X314979014Y-126750000D01*
X273093299Y-34049662D02*
G75*
G03*
X271156917Y-32550155I-1936399J-500538D01*
G01*
X32278900Y-124749999D02*
G75*
G03*
X34278918Y-126750000I2000000J-1D01*
G01*
X121282993Y-34050158D02*
G75*
G03*
X132901948Y-34050156I5809477J1499998D01*
G01*
X134838440Y-32550229D02*
G75*
G03*
X132901950Y-34050156I-40J-1999971D01*
G01*
X227063510Y-125250000D02*
G75*
G03*
X215444560Y-125250000I-5809475J-1500001D01*
G01*
X275000000Y-108000000D02*
G75*
G03*
X274500000Y-107500000I-500000J0D01*
G01*
X236750000Y-109000000D02*
X237500000Y-109000000D01*
X314979014Y-126750014D02*
G75*
G03*
X316979014Y-124749997I-14J2000014D01*
G01*
X267000000Y-109000000D02*
X237500000Y-109000000D01*
X122500000Y-109000000D02*
X226750000Y-109000000D01*
X115500000Y-104500000D02*
X119500000Y-104500000D01*
X115500000Y-106000000D02*
X119500000Y-106000000D01*
X316978996Y-70346089D02*
G75*
G03*
X315478950Y-68409600I-1999996J-11D01*
G01*
X62853929Y-51325129D02*
X62853928Y-50825129D01*
X112500000Y-107500000D02*
X115500000Y-104500000D01*
X315478925Y-101790609D02*
G75*
G03*
X315478950Y-113409597I1499975J-5809491D01*
G01*
X32278917Y-34550156D02*
X32278917Y-54857063D01*
X133813571Y-125249855D02*
G75*
G03*
X135750081Y-126750000I1936529J499855D01*
G01*
X64044455Y-34050156D02*
G75*
G03*
X75663405Y-34050157I5809475J1499996D01*
G01*
X77000000Y-109000000D02*
X112000000Y-109000000D01*
X226750000Y-109000000D02*
X229750000Y-106000000D01*
X271156917Y-32550155D02*
X229912620Y-32550155D01*
X286647842Y-32550228D02*
G75*
G03*
X284711475Y-34049666I-42J-1999972D01*
G01*
X34278918Y-32550157D02*
G75*
G03*
X32278917Y-34550156I2J-2000003D01*
G01*
X77000000Y-107500000D02*
G75*
G03*
X76500000Y-108000000I0J-500000D01*
G01*
M02*
