M48
; DRILL file {KiCad (7.0.0-0)} date Saturday, March 18, 2023 at 11:54:45 PM
; FORMAT={-:-/ absolute / inch / decimal}
; #@! TF.CreationDate,2023-03-18T23:54:45-07:00
; #@! TF.GenerationSoftware,Kicad,Pcbnew,(7.0.0-0)
; #@! TF.FileFunction,Plated,1,2,PTH
FMAT,2
INCH
; #@! TA.AperFunction,Plated,PTH,ViaDrill
T1C0.0118
; #@! TA.AperFunction,Plated,PTH,ComponentDrill
T2C0.0138
; #@! TA.AperFunction,Plated,PTH,ViaDrill
T3C0.0157
; #@! TA.AperFunction,Plated,PTH,ComponentDrill
T4C0.0394
; #@! TA.AperFunction,Plated,PTH,ComponentDrill
T5C0.0600
; #@! TA.AperFunction,Plated,PTH,ComponentDrill
T6C0.1200
%
G90
G05
T1
X2.2362Y-2.8091
T2
X2.2728Y-2.8125
X2.3083Y-2.777
X2.3083Y-2.848
X2.3438Y-2.7415
X2.3438Y-2.8125
X2.3438Y-2.8835
X2.3792Y-2.777
X2.3792Y-2.848
X2.4147Y-2.8125
T3
X1.3976Y-2.8543
X1.4961Y-2.2638
X1.5256Y-2.8543
X1.5551Y-1.8504
X1.5945Y-2.313
X1.6043Y-2.4803
X1.624Y-2.6378
X1.7028Y-3.4154
X1.752Y-2.2047
X1.7717Y-1.5354
X1.811Y-2.8248
X1.811Y-3.3268
X1.8504Y-2.4803
X1.8602Y-2.6378
X1.8996Y-2.8051
X1.9094Y-4.1142
X1.9488Y-2.2638
X1.9882Y-2.4409
X1.9921Y-3.3937
X1.998Y-3.4843
X1.998Y-3.6024
X2.0079Y-2.2835
X2.0276Y-2.9921
X2.0276Y-3.3465
X2.0276Y-4.1142
X2.0591Y-3.3937
X2.065Y-2.315
X2.0669Y-2.6772
X2.0866Y-2.7953
X2.09Y-2.995
X2.135Y-3.075
X2.1599Y-3.373
X2.185Y-3.075
X2.235Y-2.11
X2.252Y-2.4571
X2.2539Y-3.4744
X2.2716Y-3.0987
X2.2736Y-2.4114
X2.2992Y-2.4571
X2.3031Y-2.2441
X2.3327Y-3.5827
X2.3386Y-2.4571
X2.3425Y-2.0079
X2.3425Y-2.0669
X2.3701Y-2.7106
X2.3819Y-1.8307
X2.4331Y-3.3228
X2.4449Y-4.5669
X2.48Y-2.515
X2.5Y-3.1102
X2.5Y-4.5669
X2.5039Y-4.7126
X2.5157Y-4.7539
X2.5157Y-4.813
X2.525Y-2.18
X2.525Y-2.495
X2.5433Y-4.5315
X2.5591Y-2.9055
X2.5591Y-3.1417
X2.5591Y-3.3386
X2.5591Y-4.7835
X2.5709Y-2.7717
X2.575Y-2.47
X2.5976Y-2.8565
X2.5984Y-3.0217
X2.6174Y-3.0519
X2.6181Y-4.9134
X2.628Y-4.2913
X2.6378Y-2.5
X2.6535Y-4.75
X2.6575Y-4.5276
X2.6595Y-3.0941
X2.6772Y-4.5866
X2.68Y-2.825
X2.685Y-4.2323
X2.6969Y-4.2913
X2.6969Y-4.4094
X2.7008Y-3.4961
X2.7008Y-3.9921
X2.7008Y-4.0748
X2.7008Y-4.3543
X2.705Y-2.58
X2.7165Y-3.061
X2.7165Y-4.7441
X2.7362Y-4.811
X2.7559Y-3.189
X2.7657Y-2.9035
X2.7657Y-2.9429
X2.7756Y-4.5866
X2.7953Y-4.2913
X2.815Y-3.4961
X2.815Y-3.9921
X2.815Y-4.0748
X2.815Y-4.7638
X2.8346Y-3.2283
X2.8346Y-4.685
X2.835Y-2.58
X2.8445Y-2.9035
X2.8524Y-4.7795
X2.8642Y-4.9016
X2.8937Y-4.7638
X2.9134Y-2.7362
X2.9331Y-4.1929
X2.9331Y-4.3307
X2.9394Y-4.7047
X2.9469Y-4.8661
X3.0118Y-4.5866
X3.0315Y-1.8307
X3.0827Y-4.8465
X3.1299Y-4.8937
X3.1496Y-4.8386
X3.1654Y-4.7756
X3.1693Y-2.8937
X3.2087Y-2.2047
X3.2126Y-4.8268
X3.2185Y-2.1457
X3.2677Y-2.6969
X3.2874Y-2.1457
X3.4055Y-3.2283
X3.5433Y-4.8701
X3.563Y-3.5039
X3.7795Y-1.8307
X3.8543Y-4.8701
X3.8583Y-4.0945
X3.9724Y-4.8701
X4.0748Y-2.5984
X4.1535Y-3.2283
X4.2028Y-2.9921
X4.311Y-3.5039
X4.5079Y-4.6024
X4.5276Y-1.8307
X4.5906Y-4.689
X4.8228Y-2.5984
X4.9016Y-3.2283
X4.9606Y-2.9921
X5.0591Y-3.5039
X5.0709Y-4.4803
X5.0709Y-4.6142
X5.2953Y-1.8307
X5.5394Y-4.689
X5.5709Y-2.5984
X5.622Y-4.6024
X5.6496Y-3.2283
X5.6988Y-2.9921
X5.8071Y-3.5039
X5.9094Y-4.7126
X5.9094Y-4.8268
X6.0236Y-1.8307
X6.0394Y-4.7126
X6.0394Y-4.8268
X6.3189Y-2.5984
X6.3976Y-3.2283
X6.4469Y-2.9921
X6.5551Y-3.5039
X6.5984Y-4.7087
X6.5984Y-4.8268
X6.8701Y-4.0945
X6.9685Y-1.9193
X6.9882Y-4.0945
X7.0669Y-2.5984
X7.1142Y-4.7087
X7.1142Y-4.8307
X7.1457Y-3.2283
X7.1949Y-2.9921
X7.3031Y-3.5039
X7.3071Y-4.7087
X7.3071Y-4.8307
X7.7067Y-1.9094
X7.7756Y-4.7087
X7.7756Y-4.8307
X7.815Y-2.5984
X7.8937Y-3.2283
X7.9134Y-4.7087
X7.9134Y-4.8307
X7.9429Y-2.9921
X8.0512Y-3.5039
X8.1378Y-4.5984
X8.2283Y-4.6929
X8.435Y-1.8898
X8.563Y-2.5984
X8.6614Y-3.2283
X8.7008Y-2.9921
X8.7165Y-4.4724
X8.7165Y-4.5984
X8.7992Y-3.5039
X9.1831Y-1.8701
X9.1969Y-4.6929
X9.2874Y-4.5984
X9.311Y-2.5984
X9.4094Y-3.2283
X9.4291Y-2.126
X9.4488Y-2.9921
X9.4882Y-2.1358
X9.498Y-2.1949
X9.5669Y-3.5039
X9.8228Y-4.7087
X9.8228Y-4.8307
X9.9114Y-1.8602
X10.0Y-4.0945
X10.0591Y-2.5984
X10.1575Y-3.2283
X10.1969Y-2.9921
X10.3031Y-4.7047
X10.3031Y-4.8307
X10.315Y-3.5039
X10.5709Y-4.8465
X10.622Y-4.8937
X10.6378Y-4.8386
X10.6496Y-1.8406
X10.6496Y-4.7717
X10.7008Y-4.8228
X10.7382Y-4.6457
X10.8031Y-4.8425
X10.8071Y-2.5984
X10.8858Y-4.685
X10.9055Y-4.5374
X10.9547Y-4.5669
X10.998Y-4.7854
X11.0039Y-4.7441
X11.0039Y-4.9016
X11.0236Y-4.8228
X11.0315Y-4.8681
X11.0354Y-4.4213
X11.0531Y-4.5965
X11.0827Y-4.7638
X11.0866Y-4.6299
X11.0906Y-4.5787
X11.1024Y-1.8898
X11.1122Y-4.9114
X11.1417Y-2.0669
X11.1457Y-4.7717
X11.1894Y-4.7244
X11.1909Y-4.8819
X11.2559Y-4.5945
X11.378Y-3.2283
X11.4173Y-2.9724
X11.5157Y-1.565
X11.811Y-3.6811
X11.8504Y-2.9626
X11.8701Y-2.126
X12.0472Y-3.1398
X12.0571Y-1.8307
T4
X1.5717Y-2.73
X1.6717Y-2.73
X1.7717Y-2.73
X1.8717Y-2.73
X1.9717Y-2.73
X3.3778Y-2.751
X3.4778Y-2.751
T5
X1.475Y-1.525
X1.5687Y-3.025
X1.6625Y-2.275
X1.6625Y-4.525
X1.725Y-1.425
X1.8187Y-2.925
X1.9125Y-2.175
X1.9125Y-4.425
X1.9437Y-3.775
X2.1938Y-3.675
X2.225Y-1.525
X2.475Y-1.425
X2.6Y-2.275
X2.7875Y-3.025
X2.85Y-2.175
X2.975Y-1.525
X3.0375Y-2.925
X3.1625Y-3.775
X3.225Y-1.425
X3.35Y-2.275
X3.4125Y-3.675
X3.5375Y-3.025
X3.5375Y-4.525
X3.6Y-2.175
X3.725Y-1.525
X3.7875Y-2.925
X3.7875Y-4.425
X3.9125Y-3.775
X3.975Y-1.425
X4.1Y-2.275
X4.1625Y-3.675
X4.2875Y-3.025
X4.35Y-2.175
X4.475Y-1.525
X4.5375Y-2.925
X4.6625Y-3.775
X4.725Y-1.425
X4.85Y-2.275
X4.9125Y-3.675
X5.0375Y-3.025
X5.1Y-2.175
X5.225Y-1.525
X5.2875Y-2.925
X5.4125Y-3.775
X5.475Y-1.425
X5.6Y-2.275
X5.6625Y-3.675
X5.7875Y-3.025
X5.85Y-2.175
X5.975Y-1.525
X6.0375Y-2.925
X6.1625Y-3.775
X6.225Y-1.425
X6.35Y-2.275
X6.4125Y-3.675
X6.5375Y-3.025
X6.6Y-2.175
X6.725Y-1.525
X6.725Y-4.525
X6.7875Y-2.925
X6.9125Y-3.775
X6.975Y-1.425
X6.975Y-4.425
X7.1Y-2.275
X7.1625Y-3.675
X7.2875Y-3.025
X7.35Y-2.175
X7.475Y-1.525
X7.5375Y-2.925
X7.6625Y-3.775
X7.725Y-1.425
X7.85Y-2.275
X7.9125Y-3.675
X8.0375Y-3.025
X8.1Y-2.175
X8.225Y-1.525
X8.2875Y-2.925
X8.4125Y-3.775
X8.475Y-1.425
X8.6Y-2.275
X8.6625Y-3.675
X8.7875Y-3.025
X8.85Y-2.175
X8.975Y-1.525
X9.0375Y-2.925
X9.1625Y-3.775
X9.225Y-1.425
X9.35Y-2.275
X9.4125Y-3.675
X9.5375Y-3.025
X9.6Y-2.175
X9.725Y-1.525
X9.7875Y-2.925
X9.9125Y-3.775
X9.9125Y-4.525
X9.975Y-1.425
X10.1Y-2.275
X10.1625Y-3.675
X10.1625Y-4.425
X10.2875Y-3.025
X10.35Y-2.175
X10.475Y-1.525
X10.5375Y-2.925
X10.725Y-1.425
X10.85Y-2.275
X10.9437Y-3.775
X11.1Y-2.175
X11.1937Y-3.675
X11.225Y-1.525
X11.475Y-1.425
X11.5062Y-3.025
X11.6Y-1.525
X11.7562Y-2.925
X11.7875Y-2.275
X11.7875Y-4.525
X11.85Y-1.425
X11.975Y-1.525
X11.975Y-3.775
X12.0375Y-2.175
X12.0375Y-4.425
X12.225Y-1.425
X12.225Y-3.675
T6
X4.625Y-4.9
X9.125Y-4.9
T0
M30
