%TF.GenerationSoftware,KiCad,Pcbnew,(7.0.0-0)*%
%TF.CreationDate,2023-03-18T23:54:28-07:00*%
%TF.ProjectId,popstar,706f7073-7461-4722-9e6b-696361645f70,rev?*%
%TF.SameCoordinates,Original*%
%TF.FileFunction,Paste,Bot*%
%TF.FilePolarity,Positive*%
%FSLAX46Y46*%
G04 Gerber Fmt 4.6, Leading zero omitted, Abs format (unit mm)*
G04 Created by KiCad (PCBNEW (7.0.0-0)) date 2023-03-18 23:54:28*
%MOMM*%
%LPD*%
G01*
G04 APERTURE LIST*
G04 Aperture macros list*
%AMRoundRect*
0 Rectangle with rounded corners*
0 $1 Rounding radius*
0 $2 $3 $4 $5 $6 $7 $8 $9 X,Y pos of 4 corners*
0 Add a 4 corners polygon primitive as box body*
4,1,4,$2,$3,$4,$5,$6,$7,$8,$9,$2,$3,0*
0 Add four circle primitives for the rounded corners*
1,1,$1+$1,$2,$3*
1,1,$1+$1,$4,$5*
1,1,$1+$1,$6,$7*
1,1,$1+$1,$8,$9*
0 Add four rect primitives between the rounded corners*
20,1,$1+$1,$2,$3,$4,$5,0*
20,1,$1+$1,$4,$5,$6,$7,0*
20,1,$1+$1,$6,$7,$8,$9,0*
20,1,$1+$1,$8,$9,$2,$3,0*%
%AMRotRect*
0 Rectangle, with rotation*
0 The origin of the aperture is its center*
0 $1 length*
0 $2 width*
0 $3 Rotation angle, in degrees counterclockwise*
0 Add horizontal line*
21,1,$1,$2,0,0,$3*%
G04 Aperture macros list end*
%ADD10RoundRect,0.140000X0.170000X-0.140000X0.170000X0.140000X-0.170000X0.140000X-0.170000X-0.140000X0*%
%ADD11RoundRect,0.140000X0.219203X0.021213X0.021213X0.219203X-0.219203X-0.021213X-0.021213X-0.219203X0*%
%ADD12RoundRect,0.225000X0.375000X-0.225000X0.375000X0.225000X-0.375000X0.225000X-0.375000X-0.225000X0*%
%ADD13RoundRect,0.150000X-0.650000X-0.150000X0.650000X-0.150000X0.650000X0.150000X-0.650000X0.150000X0*%
%ADD14RoundRect,0.200000X-0.275000X0.200000X-0.275000X-0.200000X0.275000X-0.200000X0.275000X0.200000X0*%
%ADD15RoundRect,0.140000X-0.170000X0.140000X-0.170000X-0.140000X0.170000X-0.140000X0.170000X0.140000X0*%
%ADD16RoundRect,0.250000X0.413257X0.000000X0.000000X0.413257X-0.413257X0.000000X0.000000X-0.413257X0*%
%ADD17RoundRect,0.050000X0.309359X-0.238649X-0.238649X0.309359X-0.309359X0.238649X0.238649X-0.309359X0*%
%ADD18RoundRect,0.050000X0.309359X0.238649X0.238649X0.309359X-0.309359X-0.238649X-0.238649X-0.309359X0*%
%ADD19RoundRect,0.150000X0.150000X-0.512500X0.150000X0.512500X-0.150000X0.512500X-0.150000X-0.512500X0*%
%ADD20RoundRect,0.250000X-0.625000X0.375000X-0.625000X-0.375000X0.625000X-0.375000X0.625000X0.375000X0*%
%ADD21RoundRect,0.135000X-0.135000X-0.185000X0.135000X-0.185000X0.135000X0.185000X-0.135000X0.185000X0*%
%ADD22RoundRect,0.150000X-0.625000X0.150000X-0.625000X-0.150000X0.625000X-0.150000X0.625000X0.150000X0*%
%ADD23RoundRect,0.250000X-0.650000X0.350000X-0.650000X-0.350000X0.650000X-0.350000X0.650000X0.350000X0*%
%ADD24RoundRect,0.140000X-0.140000X-0.170000X0.140000X-0.170000X0.140000X0.170000X-0.140000X0.170000X0*%
%ADD25RotRect,1.400000X1.200000X45.000000*%
%ADD26RoundRect,0.140000X0.140000X0.170000X-0.140000X0.170000X-0.140000X-0.170000X0.140000X-0.170000X0*%
%ADD27RoundRect,0.140000X-0.219203X-0.021213X-0.021213X-0.219203X0.219203X0.021213X0.021213X0.219203X0*%
%ADD28RoundRect,0.135000X0.135000X0.185000X-0.135000X0.185000X-0.135000X-0.185000X0.135000X-0.185000X0*%
%ADD29RoundRect,0.150000X0.475000X0.150000X-0.475000X0.150000X-0.475000X-0.150000X0.475000X-0.150000X0*%
%ADD30RoundRect,0.150000X-0.512500X-0.150000X0.512500X-0.150000X0.512500X0.150000X-0.512500X0.150000X0*%
G04 APERTURE END LIST*
D10*
%TO.C,C4*%
X57200000Y-64480000D03*
X57200000Y-63520000D03*
%TD*%
D11*
%TO.C,C14*%
X54057411Y-84871411D03*
X53378589Y-84192589D03*
%TD*%
D12*
%TO.C,D60*%
X206375000Y-102456250D03*
X206375000Y-99156250D03*
%TD*%
%TO.C,D53*%
X61118750Y-102456250D03*
X61118750Y-99156250D03*
%TD*%
D13*
%TO.C,U4*%
X70218750Y-69373750D03*
X70218750Y-68103750D03*
X70218750Y-66833750D03*
X70218750Y-65563750D03*
X77418750Y-65563750D03*
X77418750Y-66833750D03*
X77418750Y-68103750D03*
X77418750Y-69373750D03*
%TD*%
D12*
%TO.C,D28*%
X78500000Y-61975000D03*
X78500000Y-58675000D03*
%TD*%
%TO.C,D34*%
X192087500Y-64356250D03*
X192087500Y-61056250D03*
%TD*%
%TO.C,D19*%
X163512500Y-45306250D03*
X163512500Y-42006250D03*
%TD*%
%TO.C,D26*%
X280987500Y-45306250D03*
X280987500Y-42006250D03*
%TD*%
%TO.C,D18*%
X144462500Y-45306250D03*
X144462500Y-42006250D03*
%TD*%
D14*
%TO.C,R2*%
X62484000Y-60425000D03*
X62484000Y-62075000D03*
%TD*%
D12*
%TO.C,D22*%
X220662500Y-45306250D03*
X220662500Y-42006250D03*
%TD*%
%TO.C,D72*%
X290512500Y-64356250D03*
X290512500Y-61056250D03*
%TD*%
%TO.C,D51*%
X273050000Y-76262500D03*
X273050000Y-72962500D03*
%TD*%
%TO.C,D31*%
X134937500Y-64356250D03*
X134937500Y-61056250D03*
%TD*%
%TO.C,D27*%
X44450000Y-54037500D03*
X44450000Y-50737500D03*
%TD*%
%TO.C,D54*%
X92075000Y-102456250D03*
X92075000Y-99156250D03*
%TD*%
D15*
%TO.C,C5*%
X66421000Y-70767000D03*
X66421000Y-71727000D03*
%TD*%
D12*
%TO.C,D67*%
X101600000Y-121506250D03*
X101600000Y-118206250D03*
%TD*%
%TO.C,D40*%
X51593750Y-83406250D03*
X51593750Y-80106250D03*
%TD*%
%TO.C,D46*%
X177800000Y-76262500D03*
X177800000Y-72962500D03*
%TD*%
%TO.C,D42*%
X101600000Y-76262500D03*
X101600000Y-72962500D03*
%TD*%
%TO.C,D17*%
X125412500Y-45306250D03*
X125412500Y-42006250D03*
%TD*%
%TO.C,D41*%
X82550000Y-77056250D03*
X82550000Y-73756250D03*
%TD*%
%TO.C,D69*%
X263525000Y-121506250D03*
X263525000Y-118206250D03*
%TD*%
D16*
%TO.C,U6*%
X59531250Y-72339061D03*
X60432811Y-71437500D03*
X58629689Y-71437500D03*
X59531250Y-70535939D03*
D17*
X63800407Y-72029702D03*
X63517564Y-72312545D03*
X63234722Y-72595387D03*
X62951879Y-72878230D03*
X62669036Y-73161073D03*
X62386194Y-73443915D03*
X62103351Y-73726758D03*
X61820508Y-74009601D03*
X61537665Y-74292444D03*
X61254823Y-74575286D03*
X60971980Y-74858129D03*
X60689137Y-75140972D03*
X60406295Y-75423814D03*
X60123452Y-75706657D03*
D18*
X58939048Y-75706657D03*
X58656205Y-75423814D03*
X58373363Y-75140972D03*
X58090520Y-74858129D03*
X57807677Y-74575286D03*
X57524835Y-74292444D03*
X57241992Y-74009601D03*
X56959149Y-73726758D03*
X56676306Y-73443915D03*
X56393464Y-73161073D03*
X56110621Y-72878230D03*
X55827778Y-72595387D03*
X55544936Y-72312545D03*
X55262093Y-72029702D03*
D17*
X55262093Y-70845298D03*
X55544936Y-70562455D03*
X55827778Y-70279613D03*
X56110621Y-69996770D03*
X56393464Y-69713927D03*
X56676306Y-69431085D03*
X56959149Y-69148242D03*
X57241992Y-68865399D03*
X57524835Y-68582556D03*
X57807677Y-68299714D03*
X58090520Y-68016871D03*
X58373363Y-67734028D03*
X58656205Y-67451186D03*
X58939048Y-67168343D03*
D18*
X60123452Y-67168343D03*
X60406295Y-67451186D03*
X60689137Y-67734028D03*
X60971980Y-68016871D03*
X61254823Y-68299714D03*
X61537665Y-68582556D03*
X61820508Y-68865399D03*
X62103351Y-69148242D03*
X62386194Y-69431085D03*
X62669036Y-69713927D03*
X62951879Y-69996770D03*
X63234722Y-70279613D03*
X63517564Y-70562455D03*
X63800407Y-70845298D03*
%TD*%
D12*
%TO.C,D37*%
X249237500Y-64356250D03*
X249237500Y-61056250D03*
%TD*%
%TO.C,D15*%
X87312500Y-45306250D03*
X87312500Y-42006250D03*
%TD*%
D10*
%TO.C,C10*%
X59600000Y-64480000D03*
X59600000Y-63520000D03*
%TD*%
D12*
%TO.C,D35*%
X211137500Y-64356250D03*
X211137500Y-61056250D03*
%TD*%
D19*
%TO.C,U2*%
X56512500Y-60065500D03*
X54612500Y-60065500D03*
X55562500Y-57790500D03*
%TD*%
D12*
%TO.C,D44*%
X139700000Y-76262500D03*
X139700000Y-72962500D03*
%TD*%
D10*
%TO.C,C11*%
X62992000Y-66012000D03*
X62992000Y-65052000D03*
%TD*%
D12*
%TO.C,D56*%
X130175000Y-102456250D03*
X130175000Y-99156250D03*
%TD*%
%TO.C,D30*%
X115887500Y-64356250D03*
X115887500Y-61056250D03*
%TD*%
%TO.C,D49*%
X234950000Y-76262500D03*
X234950000Y-72962500D03*
%TD*%
%TO.C,D43*%
X120650000Y-76262500D03*
X120650000Y-72962500D03*
%TD*%
%TO.C,D58*%
X168275000Y-102456250D03*
X168275000Y-99156250D03*
%TD*%
D10*
%TO.C,C6*%
X58400000Y-64480000D03*
X58400000Y-63520000D03*
%TD*%
D20*
%TO.C,F1*%
X51689000Y-50670000D03*
X51689000Y-53470000D03*
%TD*%
D12*
%TO.C,D63*%
X263525000Y-102456250D03*
X263525000Y-99156250D03*
%TD*%
%TO.C,D16*%
X106362500Y-45306250D03*
X106362500Y-42006250D03*
%TD*%
%TO.C,D29*%
X96837500Y-64356250D03*
X96837500Y-61056250D03*
%TD*%
D10*
%TO.C,C2*%
X60770000Y-64480000D03*
X60770000Y-63520000D03*
%TD*%
D21*
%TO.C,R4*%
X55113000Y-79198000D03*
X56133000Y-79198000D03*
%TD*%
D12*
%TO.C,D38*%
X268287500Y-64356250D03*
X268287500Y-61056250D03*
%TD*%
D22*
%TO.C,J1*%
X55023000Y-50697000D03*
X55023000Y-51697000D03*
X55023000Y-52697000D03*
X55023000Y-53697000D03*
D23*
X58898000Y-49397000D03*
X58898000Y-54997000D03*
%TD*%
D12*
%TO.C,D55*%
X111125000Y-102456250D03*
X111125000Y-99156250D03*
%TD*%
%TO.C,D68*%
X182562500Y-121506250D03*
X182562500Y-118206250D03*
%TD*%
%TO.C,D62*%
X244475000Y-102456250D03*
X244475000Y-99156250D03*
%TD*%
D15*
%TO.C,C3*%
X54229000Y-76033750D03*
X54229000Y-76993750D03*
%TD*%
D12*
%TO.C,D47*%
X196850000Y-76262500D03*
X196850000Y-72962500D03*
%TD*%
%TO.C,D21*%
X201612500Y-45306250D03*
X201612500Y-42006250D03*
%TD*%
D15*
%TO.C,C12*%
X62611000Y-76520000D03*
X62611000Y-77480000D03*
%TD*%
D10*
%TO.C,C1*%
X65405000Y-64869000D03*
X65405000Y-63909000D03*
%TD*%
D24*
%TO.C,C16*%
X55082500Y-61690250D03*
X56042500Y-61690250D03*
%TD*%
D12*
%TO.C,D39*%
X287337500Y-64356250D03*
X287337500Y-61056250D03*
%TD*%
%TO.C,D45*%
X158750000Y-76262500D03*
X158750000Y-72962500D03*
%TD*%
%TO.C,D70*%
X311150000Y-121506250D03*
X311150000Y-118206250D03*
%TD*%
D10*
%TO.C,C8*%
X53721000Y-69314000D03*
X53721000Y-68354000D03*
%TD*%
D12*
%TO.C,D61*%
X225425000Y-102456250D03*
X225425000Y-99156250D03*
%TD*%
%TO.C,D32*%
X153987500Y-64356250D03*
X153987500Y-61056250D03*
%TD*%
D15*
%TO.C,C15*%
X52387500Y-56670000D03*
X52387500Y-57630000D03*
%TD*%
D12*
%TO.C,D13*%
X49212500Y-45306250D03*
X49212500Y-42006250D03*
%TD*%
%TO.C,D64*%
X289718750Y-102456250D03*
X289718750Y-99156250D03*
%TD*%
D25*
%TO.C,Y1*%
X54371141Y-82676776D03*
X55926776Y-81121141D03*
X57128857Y-82323222D03*
X55573222Y-83878857D03*
%TD*%
D26*
%TO.C,C18*%
X67980000Y-76750000D03*
X67020000Y-76750000D03*
%TD*%
D27*
%TO.C,C13*%
X57823589Y-80382589D03*
X58502411Y-81061411D03*
%TD*%
D12*
%TO.C,D57*%
X149225000Y-102456250D03*
X149225000Y-99156250D03*
%TD*%
%TO.C,D36*%
X230187500Y-64356250D03*
X230187500Y-61056250D03*
%TD*%
%TO.C,D33*%
X173037500Y-64356250D03*
X173037500Y-61056250D03*
%TD*%
%TO.C,D14*%
X68262500Y-45306250D03*
X68262500Y-42006250D03*
%TD*%
%TO.C,D50*%
X254000000Y-76262500D03*
X254000000Y-72962500D03*
%TD*%
%TO.C,D59*%
X187325000Y-102456250D03*
X187325000Y-99156250D03*
%TD*%
%TO.C,D65*%
X299243750Y-102456250D03*
X299243750Y-99156250D03*
%TD*%
D15*
%TO.C,C9*%
X55499000Y-76033750D03*
X55499000Y-76993750D03*
%TD*%
D12*
%TO.C,D52*%
X303000000Y-76262500D03*
X303000000Y-72962500D03*
%TD*%
%TO.C,D24*%
X258762500Y-45306250D03*
X258762500Y-42006250D03*
%TD*%
%TO.C,D71*%
X303212500Y-48650000D03*
X303212500Y-45350000D03*
%TD*%
D28*
%TO.C,R1*%
X49510000Y-66960750D03*
X48490000Y-66960750D03*
%TD*%
D12*
%TO.C,D25*%
X277812500Y-45306250D03*
X277812500Y-42006250D03*
%TD*%
D28*
%TO.C,R5*%
X83343750Y-69850000D03*
X82323750Y-69850000D03*
%TD*%
D29*
%TO.C,U3*%
X62897000Y-56962000D03*
X62897000Y-57912000D03*
X62897000Y-58862000D03*
X60547000Y-58862000D03*
X60547000Y-57912000D03*
X60547000Y-56962000D03*
%TD*%
D15*
%TO.C,C17*%
X73406000Y-70767000D03*
X73406000Y-71727000D03*
%TD*%
D14*
%TO.C,R3*%
X60860000Y-60425000D03*
X60860000Y-62075000D03*
%TD*%
D12*
%TO.C,D66*%
X53975000Y-121506250D03*
X53975000Y-118206250D03*
%TD*%
%TO.C,D23*%
X239712500Y-45306250D03*
X239712500Y-42006250D03*
%TD*%
%TO.C,D20*%
X182562500Y-45306250D03*
X182562500Y-42006250D03*
%TD*%
D10*
%TO.C,C7*%
X64135000Y-65440500D03*
X64135000Y-64480500D03*
%TD*%
D12*
%TO.C,D48*%
X215900000Y-76262500D03*
X215900000Y-72962500D03*
%TD*%
D30*
%TO.C,U5*%
X66362500Y-75450000D03*
X66362500Y-74500000D03*
X66362500Y-73550000D03*
X68637500Y-73550000D03*
X68637500Y-75450000D03*
%TD*%
M02*
