G04 #@! TF.GenerationSoftware,KiCad,Pcbnew,(7.0.0-0)*
G04 #@! TF.CreationDate,2023-05-06T23:39:38-07:00*
G04 #@! TF.ProjectId,popstar,706f7073-7461-4722-9e6b-696361645f70,rev?*
G04 #@! TF.SameCoordinates,Original*
G04 #@! TF.FileFunction,Legend,Top*
G04 #@! TF.FilePolarity,Positive*
%FSLAX46Y46*%
G04 Gerber Fmt 4.6, Leading zero omitted, Abs format (unit mm)*
G04 Created by KiCad (PCBNEW (7.0.0-0)) date 2023-05-06 23:39:38*
%MOMM*%
%LPD*%
G01*
G04 APERTURE LIST*
%ADD10C,0.200000*%
%ADD11C,3.987800*%
%ADD12C,1.750000*%
%ADD13C,3.048000*%
%ADD14R,1.700000X1.700000*%
%ADD15O,1.700000X1.700000*%
G04 APERTURE END LIST*
D10*
X188021630Y-116116339D02*
X187931964Y-115930127D01*
X187906064Y-115854732D01*
X197934205Y-118894642D02*
X197962292Y-118896099D01*
X196528794Y-120494850D02*
X196499696Y-120496459D01*
X190770936Y-115527051D02*
X190785924Y-115741120D01*
X190824502Y-115946703D01*
X190843158Y-116002696D01*
X214921487Y-115277457D02*
X215459100Y-113924094D01*
X191238350Y-120073825D02*
X191269413Y-120274946D01*
X191300411Y-120374376D01*
X207013299Y-114998128D02*
X207122140Y-114818496D01*
X207216798Y-114724957D01*
X185635629Y-118947530D02*
X185772411Y-119102048D01*
X185838524Y-119218098D01*
X186783681Y-115783663D02*
X186722026Y-115977309D01*
X186681833Y-116076991D01*
X186182225Y-116354006D02*
X185977736Y-116327520D01*
X185894120Y-116296565D01*
X195990249Y-119174961D02*
X195984339Y-119256155D01*
X201790208Y-116108584D02*
X201696326Y-115926961D01*
X201676758Y-115874028D01*
X184095484Y-117473544D02*
X184132762Y-117476509D01*
X189390190Y-121636913D02*
X189387241Y-120519830D01*
X186489903Y-116284270D02*
X186295452Y-116342968D01*
X186182225Y-116354006D01*
X209425302Y-115055070D02*
X209469417Y-114940590D01*
X185767662Y-114423169D02*
X185597298Y-114530854D01*
X185440537Y-114669097D01*
X191323941Y-116136213D02*
X191230060Y-115954589D01*
X191210491Y-115901657D01*
X203936850Y-116020209D02*
X203905279Y-115857936D01*
X211521488Y-115386501D02*
X211691208Y-115467743D01*
X204962555Y-115827064D02*
X204994025Y-115951046D01*
X202904917Y-119075020D02*
X202759727Y-119194871D01*
X195938624Y-115090672D02*
X195982740Y-114976191D01*
X187489138Y-115541840D02*
X187503595Y-115749267D01*
X187539519Y-115949402D01*
X187556730Y-116004225D01*
X194977460Y-119230732D02*
X195009233Y-119082077D01*
X189043757Y-114955706D02*
X189111068Y-115148003D01*
X189117857Y-115176070D01*
X204845874Y-114756743D02*
X204906913Y-114864308D01*
X194944931Y-116192005D02*
X194941605Y-114931969D01*
X189966895Y-118845727D02*
X190168950Y-118881998D01*
X190287758Y-118935249D01*
X210814187Y-115122881D02*
X210804854Y-114920504D01*
X210790950Y-114830395D01*
X191801161Y-114339849D02*
X191598324Y-114362864D01*
X191395623Y-114417933D01*
X191383749Y-114423149D01*
X189014545Y-118588881D02*
X189022594Y-121637883D01*
X208139697Y-115430147D02*
X208125773Y-115636263D01*
X208117901Y-115682928D01*
X211683226Y-114765753D02*
X211762627Y-114673134D01*
X186906717Y-114620298D02*
X186739213Y-114495021D01*
X186581450Y-114409789D01*
X201996614Y-117903146D02*
X201831515Y-118032836D01*
X201695422Y-118187764D01*
X201667129Y-118222600D01*
X203984452Y-114904012D02*
X204010686Y-114786007D01*
X194296882Y-115552461D02*
X194401991Y-115527677D01*
X205965738Y-118127523D02*
X206170427Y-118164379D01*
X206261559Y-118207408D01*
X189452727Y-114961775D02*
X189356253Y-114782905D01*
X189232781Y-114614158D01*
X194086487Y-116308636D02*
X193895602Y-116331604D01*
X195984339Y-119256155D02*
X195966116Y-119315937D01*
X203477708Y-118669150D02*
X203451029Y-118466843D01*
X203418668Y-118351741D01*
X189390417Y-119982209D02*
X189371825Y-119777485D01*
X189370907Y-119747917D01*
X193658737Y-114796486D02*
X193820786Y-114679651D01*
X206153511Y-116538184D02*
X206147766Y-114361200D01*
X216861166Y-117052638D02*
X216994539Y-116903713D01*
X189793897Y-120810282D02*
X189999438Y-120835831D01*
X190021164Y-120836742D01*
X192678772Y-114908841D02*
X192586401Y-114729880D01*
X205379897Y-118812188D02*
X205432189Y-118610686D01*
X205490713Y-118435107D01*
X205488494Y-120687674D02*
X205676813Y-120759303D01*
X205886704Y-120793760D01*
X205948288Y-120800824D01*
X204868886Y-115736945D02*
X204962555Y-115827064D01*
X192238872Y-116144010D02*
X192078932Y-116266707D01*
X192038604Y-116286981D01*
X189371930Y-118587936D02*
X189014545Y-118588881D01*
X191456274Y-120622606D02*
X191625010Y-120735713D01*
X191731895Y-120787298D01*
X209668456Y-114717464D02*
X209810212Y-114649696D01*
X186191205Y-114340362D02*
X185985292Y-114362608D01*
X185779695Y-114417881D01*
X185767662Y-114423169D01*
X193167347Y-116253369D02*
X193280438Y-116424543D01*
X193311872Y-116461805D01*
X188220184Y-116290424D02*
X188062085Y-116160456D01*
X188021630Y-116116339D01*
X193533816Y-116599068D02*
X193730226Y-116638433D01*
X193810656Y-116644285D01*
X195152835Y-120487761D02*
X195025524Y-120419174D01*
X196519324Y-120776191D02*
X196594834Y-120756080D01*
X202705140Y-116116380D02*
X202545198Y-116239079D01*
X202504869Y-116259354D01*
X204014115Y-120726284D02*
X204440935Y-120725157D01*
X189109746Y-115777523D02*
X189048090Y-115971169D01*
X189007899Y-116070850D01*
X195301464Y-120510344D02*
X195152835Y-120487761D01*
X192389828Y-115306303D02*
X191174719Y-115309511D01*
X219585298Y-113502716D02*
X218873141Y-115267025D01*
X212344800Y-116273201D02*
X212152890Y-116295662D01*
X194193795Y-115569070D02*
X194296882Y-115552461D01*
X192038604Y-116286981D02*
X191838872Y-116330247D01*
X191779880Y-116335146D01*
X216994539Y-116903713D02*
X217065981Y-116711295D01*
X217067534Y-116704914D01*
X199682965Y-118550507D02*
X199256144Y-118551633D01*
X194066768Y-114640199D02*
X194266890Y-114656376D01*
X194286872Y-114661062D01*
X201237202Y-115499423D02*
X201252191Y-115713491D01*
X201290769Y-115919074D01*
X201309425Y-115975067D01*
X194935836Y-116614767D02*
X195005268Y-116613051D01*
X195058351Y-116608317D02*
X195113464Y-116597450D01*
X195188255Y-116305726D02*
X195154574Y-116311432D01*
X188026235Y-120761851D02*
X188197329Y-120648016D01*
X188344205Y-120511586D01*
X188353836Y-120502136D01*
X207862683Y-116478533D02*
X208006386Y-116375022D01*
X205774043Y-114362187D02*
X205779789Y-116539171D01*
X202743444Y-116508385D02*
X202907996Y-116389927D01*
X202930455Y-116371060D01*
X184745390Y-113594687D02*
X184377795Y-113595656D01*
X196537893Y-114658183D02*
X196737972Y-114699079D01*
X196755521Y-114708664D01*
X189447607Y-120178622D02*
X189390417Y-119982209D01*
X192936148Y-118992077D02*
X192841522Y-118812949D01*
X192834044Y-118801399D01*
X196177723Y-120760245D02*
X196341699Y-120793508D01*
X217090348Y-116064112D02*
X216653317Y-116065266D01*
X192822525Y-120627169D02*
X192951754Y-120464088D01*
X192988862Y-120394428D01*
X194578475Y-115077414D02*
X194560253Y-115137196D01*
X189387241Y-120519830D02*
X189502451Y-120646654D01*
X184040843Y-117468582D02*
X184095484Y-117473544D01*
X193238578Y-118867724D02*
X193534698Y-118866941D01*
X184792972Y-119241280D02*
X184892457Y-119061566D01*
X184993371Y-118954331D01*
X196953849Y-115183977D02*
X196957489Y-116562460D01*
X195548372Y-116566179D02*
X195915969Y-116565208D01*
X202944092Y-117862353D02*
X202747745Y-117812218D01*
X202537809Y-117796692D01*
X202509435Y-117795596D01*
X188907515Y-114403647D02*
X188705512Y-114353269D01*
X188517268Y-114334222D01*
X212635095Y-115806811D02*
X212666562Y-115930792D01*
X194595942Y-116278698D02*
X194621264Y-116394528D01*
X206450299Y-120659608D02*
X206605302Y-120515579D01*
X206723889Y-120345574D01*
X206788197Y-120239041D01*
X188517268Y-114334222D02*
X188311356Y-114356468D01*
X188105761Y-114411740D01*
X188093728Y-114417028D01*
X196052000Y-114523148D02*
X195911496Y-114666537D01*
X195892634Y-114688477D01*
X197657606Y-118939789D02*
X197854877Y-118897822D01*
X197903063Y-118894212D01*
X211692557Y-115012326D02*
X211656991Y-114883758D01*
X200313644Y-116092061D02*
X200166493Y-116233144D01*
X200127728Y-116256439D01*
X205779789Y-116539171D02*
X206153511Y-116538184D01*
X195210977Y-119497644D02*
X195007629Y-119541866D01*
X194932403Y-119569348D01*
X193043793Y-120122158D02*
X193013712Y-119920470D01*
X192989495Y-119860387D01*
X211283505Y-114974604D02*
X211327323Y-115176438D01*
X211343348Y-115209299D01*
X211442442Y-116387394D02*
X211611180Y-116500501D01*
X211718068Y-116552086D01*
X196964445Y-120744893D02*
X197332041Y-120743922D01*
X200460690Y-120735663D02*
X201279963Y-118546290D01*
X189109746Y-115777523D02*
X189048090Y-115971169D01*
X189007899Y-116070850D01*
X201640986Y-115281883D02*
X201672884Y-115078350D01*
X201690852Y-115024943D01*
X207452416Y-116561305D02*
X207654493Y-116545936D01*
X207682620Y-116540275D01*
X184237544Y-117134161D02*
X184040000Y-117150000D01*
X192050204Y-116620342D02*
X192243687Y-116552850D01*
X192277178Y-116536013D01*
X188944395Y-116576975D02*
X189115489Y-116463140D01*
X189262365Y-116326709D01*
X189271996Y-116317259D01*
X207172350Y-117420794D02*
X207373512Y-117453058D01*
X207497675Y-117459759D01*
X204934287Y-114983194D02*
X205281461Y-114982279D01*
X207716125Y-114339702D02*
X207513498Y-114310813D01*
X207475061Y-114308684D01*
X188907515Y-114403647D02*
X188705512Y-114353269D01*
X188517268Y-114334222D01*
X195067797Y-116318299D02*
X195004977Y-116309785D01*
X187756791Y-116362104D02*
X187916601Y-116497398D01*
X188069339Y-116589495D01*
X193534698Y-118866941D02*
X193538519Y-120314861D01*
X205771871Y-113539180D02*
X205772971Y-113955790D01*
X211691208Y-115467743D02*
X211888083Y-115528864D01*
X211934425Y-115540620D01*
X192149161Y-120841336D02*
X192351801Y-120829283D01*
X192544186Y-120787195D01*
X194621264Y-116394528D02*
X194659783Y-116480711D01*
X195982740Y-114976191D02*
X196058520Y-114865713D01*
X195113464Y-116597450D02*
X195188971Y-116577340D01*
X189232781Y-114614158D02*
X189065278Y-114488880D01*
X188907515Y-114403647D01*
X203610963Y-114994857D02*
X203654781Y-115196693D01*
X203670806Y-115229554D01*
X203025134Y-116263596D02*
X203109534Y-116129607D01*
X211762627Y-114673134D02*
X211895725Y-114613046D01*
X193228507Y-115052897D02*
X193571597Y-115051989D01*
X207475061Y-114308684D02*
X207270614Y-114339007D01*
X207122985Y-114386707D01*
X192284666Y-114924688D02*
X192351990Y-115091461D01*
X192988862Y-120394428D02*
X193036213Y-120192897D01*
X193043793Y-120122158D01*
X202441151Y-119778766D02*
X202720522Y-119622820D01*
X194550263Y-114834466D02*
X194584387Y-114996221D01*
X200487646Y-116248852D02*
X200488450Y-116553140D01*
X197382591Y-118812366D02*
X197308885Y-118934583D01*
X207543310Y-114633215D02*
X207745610Y-114668039D01*
X207779824Y-114681605D01*
X196181777Y-114753064D02*
X196323533Y-114685297D01*
X185745431Y-120312968D02*
X185593912Y-120451435D01*
X185554398Y-120474298D01*
X194254801Y-118564836D02*
X193905583Y-118565759D01*
X197938802Y-118508141D02*
X197917866Y-118506664D01*
X194260574Y-120752031D02*
X194259808Y-120462039D01*
X200047656Y-114354839D02*
X199846205Y-114330077D01*
X199816816Y-114328901D01*
X203243302Y-118065273D02*
X203080039Y-117938287D01*
X202944092Y-117862353D01*
X195919080Y-115230105D02*
X195938624Y-115090672D01*
X184336002Y-117104289D02*
X184237544Y-117134161D01*
X216853190Y-116738667D02*
X216775435Y-116875191D01*
X211767329Y-114326965D02*
X211584578Y-114419721D01*
X211504778Y-114471634D01*
X193311872Y-116461805D02*
X193482654Y-116576023D01*
X193533816Y-116599068D01*
X205344004Y-119334068D02*
X205347777Y-119120118D01*
X205364369Y-118908464D01*
X205379897Y-118812188D01*
X212512086Y-116206898D02*
X212344800Y-116273201D01*
X212530356Y-116551983D02*
X212715702Y-116454837D01*
X212808694Y-116391957D01*
X197917866Y-118506664D02*
X197904080Y-118506190D01*
X203225751Y-115283825D02*
X203200725Y-115087840D01*
X204125965Y-115132368D02*
X204020017Y-115032579D01*
X210817890Y-116525871D02*
X210814187Y-115122881D01*
X193237785Y-118567521D02*
X193238578Y-118867724D01*
X193502593Y-115989549D02*
X193544490Y-115807682D01*
X200271733Y-120329763D02*
X199682965Y-118550507D01*
X204750310Y-115688754D02*
X204868886Y-115736945D01*
X186618331Y-116583115D02*
X186789425Y-116469280D01*
X186936300Y-116332850D01*
X186945931Y-116323401D01*
X191372598Y-116580775D02*
X191567416Y-116633063D01*
X191750088Y-116653810D01*
X188018455Y-114913485D02*
X188155173Y-114763265D01*
X188217059Y-114719972D01*
X202738128Y-118169738D02*
X202911749Y-118278493D01*
X202917121Y-118282608D01*
X192834044Y-118801399D02*
X192677941Y-118665736D01*
X192546030Y-118584664D01*
X187100294Y-119098361D02*
X187237013Y-118948140D01*
X187298899Y-118904847D01*
X211286579Y-116139167D02*
X211387082Y-116312496D01*
X211442442Y-116387394D01*
X202144466Y-119565116D02*
X201971204Y-119677551D01*
X201815288Y-119807476D01*
X192240483Y-119848579D02*
X192436681Y-119903711D01*
X195981251Y-119634483D02*
X195982033Y-119930602D01*
X189650456Y-120432340D02*
X189508979Y-120278701D01*
X189447607Y-120178622D01*
X212226649Y-115613369D02*
X212422847Y-115668500D01*
X185873377Y-120043059D02*
X185791315Y-120230298D01*
X185745431Y-120312968D01*
X204480351Y-116315914D02*
X204274430Y-116298637D01*
X204188198Y-116272268D01*
X190021164Y-120836742D02*
X190227176Y-120811904D01*
X190316132Y-120787462D01*
X190336931Y-113579927D02*
X189969335Y-113580896D01*
X185440537Y-114669097D02*
X185329957Y-114844666D01*
X185240824Y-115027298D01*
X185231712Y-115052563D01*
X201986235Y-118419852D02*
X202118195Y-118259190D01*
X202188869Y-118204884D01*
X212666562Y-115930792D02*
X212628188Y-116092738D01*
X218873141Y-115267025D02*
X219208060Y-115266142D01*
X196403821Y-114348631D02*
X196220700Y-114411913D01*
X186581450Y-114409789D02*
X186379447Y-114359408D01*
X186191205Y-114340362D01*
X203670806Y-115229554D02*
X203810201Y-115376582D01*
X203848949Y-115406755D01*
X204672512Y-114648452D02*
X204845874Y-114756743D01*
X191352245Y-118928864D02*
X191305100Y-119127385D01*
X191297336Y-119209813D01*
X202246145Y-116307518D02*
X202040228Y-116281043D01*
X201977977Y-116258191D01*
X194423940Y-114365600D02*
X194218318Y-114335763D01*
X194074119Y-114329764D01*
X201520852Y-114642987D02*
X201407789Y-114816137D01*
X201316719Y-114996807D01*
X201307420Y-115021869D01*
X196065647Y-120659452D02*
X196177723Y-120760245D01*
X187590128Y-120532744D02*
X187385640Y-120506255D01*
X187302023Y-120475300D01*
X196287021Y-118841298D02*
X196152833Y-118691556D01*
X196107323Y-118653888D01*
X187302023Y-120475300D02*
X187143925Y-120345332D01*
X187103471Y-120301215D01*
X187866930Y-115534717D02*
X187880146Y-115332327D01*
X187904330Y-115197653D01*
X193906377Y-118865961D02*
X194255593Y-118865039D01*
X212518414Y-114736488D02*
X212579454Y-114844054D01*
X210380454Y-114825863D02*
X210425246Y-114967677D01*
X208051085Y-115902132D02*
X207938790Y-116070378D01*
X207831748Y-116170750D01*
X200819285Y-116552266D02*
X200811340Y-113542065D01*
X206788197Y-120239041D02*
X206853741Y-120047123D01*
X206908268Y-119853149D01*
X206920282Y-119797063D01*
X206632100Y-116808535D02*
X206674031Y-117006909D01*
X206714558Y-117100355D01*
X201676758Y-115874028D02*
X201639080Y-115669760D01*
X201631547Y-115573943D01*
X196594834Y-120756080D02*
X196594116Y-120484469D01*
X184719802Y-118600217D02*
X184362416Y-118601161D01*
X189389043Y-119460938D02*
X189434923Y-119265024D01*
X189445100Y-119228999D01*
X198946569Y-115969563D02*
X199034926Y-116153013D01*
X199148163Y-116327949D01*
X202788556Y-115997202D02*
X202705140Y-116116380D01*
X196373500Y-120462587D02*
X196356545Y-120422298D01*
X203032459Y-118457935D02*
X203069352Y-118656854D01*
X203071355Y-118686558D01*
X205490713Y-118435107D02*
X205608825Y-118269724D01*
X205684627Y-118204848D01*
X198878474Y-115509734D02*
X198893267Y-115716041D01*
X198929362Y-115915059D01*
X198946569Y-115969563D01*
X212975031Y-116159216D02*
X213022382Y-115957685D01*
X213029963Y-115886946D01*
X213029963Y-115886946D02*
X212999883Y-115685259D01*
X212975666Y-115625176D01*
X205684627Y-118204848D02*
X205880731Y-118139987D01*
X205965738Y-118127523D01*
X210444167Y-116526859D02*
X210817890Y-116525871D01*
X212282900Y-115259917D02*
X212039721Y-115201334D01*
X192445585Y-114573001D02*
X192278149Y-114462951D01*
X192252778Y-114448935D01*
X189527003Y-115442521D02*
X189513903Y-115240815D01*
X189476568Y-115032303D01*
X189452727Y-114961775D01*
X196893776Y-114861465D02*
X196938567Y-115003280D01*
X210425246Y-114967677D02*
X210440529Y-115148374D01*
X186224869Y-119163980D02*
X186132726Y-118976925D01*
X186029438Y-118819362D01*
X195458957Y-120795328D02*
X195652600Y-120725448D01*
X195679811Y-120713566D01*
X189502451Y-120646654D02*
X189606312Y-120729600D01*
X187904330Y-115197653D02*
X187973445Y-115009715D01*
X188018455Y-114913485D01*
X205136157Y-116412209D02*
X205265384Y-116249130D01*
X205302492Y-116179470D01*
X197904080Y-118506190D02*
X197704400Y-118544181D01*
X197698433Y-118546556D01*
X184378915Y-114020434D02*
X184746511Y-114019464D01*
X193619663Y-116240432D02*
X193532072Y-116131916D01*
X194127900Y-120778931D02*
X194195777Y-120768028D01*
X207970647Y-114828141D02*
X208068465Y-115004457D01*
X208096901Y-115076445D01*
X212808694Y-116391957D02*
X212937922Y-116228876D01*
X212975031Y-116159216D01*
X188220184Y-116290424D02*
X188062085Y-116160456D01*
X188021630Y-116116339D01*
X200436999Y-115823695D02*
X200357909Y-116009783D01*
X200313644Y-116092061D01*
X204018666Y-115487996D02*
X204215540Y-115549117D01*
X204261881Y-115560874D01*
X212954001Y-114962024D02*
X212924271Y-114762953D01*
X212922314Y-114756866D01*
X188815968Y-116278130D02*
X188621515Y-116336829D01*
X188508287Y-116347868D01*
X196938567Y-115003280D02*
X196953849Y-115183977D01*
X188944395Y-116576975D02*
X189115489Y-116463140D01*
X189262365Y-116326709D01*
X189271996Y-116317259D01*
X188217059Y-114719972D02*
X188411363Y-114664779D01*
X188507903Y-114654873D01*
X192967833Y-119197235D02*
X192938105Y-118998164D01*
X192936148Y-118992077D01*
X205409315Y-117964593D02*
X205259327Y-118120634D01*
X205150956Y-118302672D01*
X205072140Y-118464803D01*
X199887099Y-114649342D02*
X200090073Y-114687750D01*
X200116467Y-114698768D01*
X201631547Y-115573943D02*
X203234673Y-115569712D01*
X206400104Y-120211475D02*
X206263783Y-120359333D01*
X206202000Y-120401924D01*
X187599108Y-118519097D02*
X187393197Y-118541343D01*
X187187602Y-118596615D01*
X187175569Y-118601903D01*
X184735317Y-117128252D02*
X184754083Y-116926031D01*
X184754166Y-116919386D01*
X190490652Y-119205817D02*
X190545354Y-119398858D01*
X190547867Y-119411929D01*
X187489138Y-115541840D02*
X187503595Y-115749267D01*
X187539519Y-115949402D01*
X187556730Y-116004225D01*
X192620659Y-119198151D02*
X192967833Y-119197235D01*
X211798505Y-115112115D02*
X211692557Y-115012326D01*
X216880190Y-116523143D02*
X216881242Y-116534372D01*
X184377795Y-113595656D02*
X184378915Y-114020434D01*
X208113714Y-116611125D02*
X208069878Y-116810165D01*
X208057691Y-116855826D01*
X201309425Y-115975067D02*
X201403182Y-116158214D01*
X201523267Y-116331890D01*
X192759483Y-115311453D02*
X192734457Y-115115468D01*
X200127728Y-116256439D02*
X199933839Y-116306891D01*
X199895570Y-116311682D01*
X190876998Y-119151699D02*
X190784855Y-118964643D01*
X190681567Y-118807081D01*
X207854572Y-117079986D02*
X207657090Y-117142204D01*
X207505041Y-117155449D01*
X193764835Y-120755383D02*
X193966677Y-120787196D01*
X193980885Y-120787487D01*
X188507903Y-114654873D02*
X188709816Y-114682539D01*
X188831792Y-114729579D01*
X188534566Y-119146650D02*
X188438093Y-118967780D01*
X188314621Y-118799034D01*
X195188971Y-116577340D02*
X195188255Y-116305726D01*
X204976681Y-118857671D02*
X204955060Y-119059058D01*
X204947019Y-119262532D01*
X204945738Y-119320824D01*
X205942398Y-117796745D02*
X205743064Y-117832897D01*
X205540805Y-117892691D01*
X205409315Y-117964593D01*
X188199699Y-119360946D02*
X188222694Y-119568345D01*
X188224938Y-119638621D01*
X184960938Y-118658805D02*
X184835603Y-118757672D01*
X190843158Y-116002696D02*
X190936915Y-116185842D01*
X191057001Y-116359519D01*
X195009233Y-119082077D02*
X195064599Y-118975226D01*
X189463949Y-115925671D02*
X189506897Y-115718922D01*
X189524037Y-115504396D01*
X189527003Y-115442521D01*
X195093834Y-116317719D02*
X195067797Y-116318299D01*
X208030082Y-114521652D02*
X207924679Y-114434115D01*
X195167118Y-118549154D02*
X194977985Y-118626182D01*
X194894290Y-118669343D01*
X185540864Y-115540858D02*
X185554083Y-115338467D01*
X185578266Y-115203793D01*
X188314621Y-118799034D02*
X188147117Y-118673757D01*
X187989354Y-118588525D01*
X204955652Y-116112992D02*
X204839544Y-116227153D01*
X212541424Y-115716690D02*
X212635095Y-115806811D01*
X205441887Y-120052669D02*
X205391906Y-119856237D01*
X205369065Y-119737340D01*
X202216354Y-116626182D02*
X202375115Y-116617593D01*
X215459100Y-113924094D02*
X216005892Y-115274596D01*
X194932403Y-119569348D02*
X194759664Y-119671975D01*
X194713224Y-119705223D01*
X209707380Y-114376311D02*
X209538680Y-114487546D01*
X192544186Y-120787195D02*
X192729534Y-120690048D01*
X192822525Y-120627169D01*
X192322290Y-116024830D02*
X192238872Y-116144010D01*
X192642022Y-120327951D02*
X192525916Y-120442110D01*
X191913552Y-119395049D02*
X191812336Y-119347326D01*
X194131166Y-120468505D02*
X194045378Y-120463116D01*
X188125596Y-119140583D02*
X188192909Y-119332879D01*
X188199699Y-119360946D01*
X203200725Y-115087840D02*
X203149762Y-114893644D01*
X203145040Y-114881212D01*
X195891814Y-114378063D02*
X195542598Y-114378985D01*
X194939678Y-120777808D02*
X195136088Y-120817174D01*
X195216517Y-120823027D01*
X194941605Y-114931969D02*
X194909856Y-114732051D01*
X194881159Y-114662556D01*
X198022554Y-118516089D02*
X197971998Y-118511115D01*
X202720522Y-119622820D02*
X202899365Y-119519311D01*
X203032985Y-119431049D01*
X195025524Y-120419174D02*
X194937934Y-120310656D01*
X185664006Y-120799740D02*
X185842378Y-120706070D01*
X185919917Y-120653558D01*
X194771862Y-116581503D02*
X194935836Y-116614767D01*
X193307362Y-115526483D02*
X193185530Y-115687944D01*
X193165451Y-115728524D01*
X189117857Y-115176070D02*
X189140853Y-115383469D01*
X189143097Y-115453745D01*
X191054585Y-114670615D02*
X190941523Y-114843765D01*
X190850452Y-115024436D01*
X190841153Y-115049498D01*
X195966116Y-119315937D02*
X195902485Y-119387583D01*
X184993371Y-118954331D02*
X185184047Y-118880032D01*
X185314766Y-118858009D01*
X208360349Y-117012280D02*
X208428445Y-116817321D01*
X208451497Y-116727148D01*
X196606454Y-114327162D02*
X196403821Y-114348631D01*
X201690852Y-115024943D02*
X201798006Y-114848958D01*
X201821518Y-114817822D01*
X190316132Y-120787462D02*
X190494506Y-120693790D01*
X190572045Y-120641277D01*
X205249777Y-114777119D02*
X205155151Y-114597992D01*
X205147672Y-114586442D01*
X188224938Y-119638621D02*
X188211247Y-119842568D01*
X188191586Y-119962398D01*
X187904330Y-115197653D02*
X187973445Y-115009715D01*
X188018455Y-114913485D01*
X184954183Y-120741880D02*
X185141768Y-120822563D01*
X193761256Y-114370413D02*
X193572122Y-114447441D01*
X193488426Y-114490602D01*
X203145040Y-114881212D02*
X203052666Y-114702252D01*
X201977977Y-116258191D02*
X201817821Y-116135749D01*
X201790208Y-116108584D01*
X194717735Y-120640544D02*
X194888515Y-120754764D01*
X194939678Y-120777808D01*
X189117857Y-115176070D02*
X189140853Y-115383469D01*
X189143097Y-115453745D01*
X206261559Y-118207408D02*
X206393627Y-118362064D01*
X206442423Y-118448932D01*
X188069339Y-116589495D02*
X188264911Y-116643187D01*
X188474406Y-116664499D01*
X200068587Y-120736699D02*
X200460690Y-120735663D01*
X203174000Y-115987503D02*
X203204805Y-115859785D01*
X210483408Y-114371710D02*
X210286960Y-114309081D01*
X210093133Y-114291562D01*
X190943072Y-119619191D02*
X190930209Y-119409200D01*
X190894559Y-119206968D01*
X190876998Y-119151699D01*
X191812336Y-119347326D02*
X191706389Y-119247536D01*
X216875928Y-116648238D02*
X216853190Y-116738667D01*
X206535285Y-118813734D02*
X206558593Y-119025100D01*
X206566495Y-119238948D01*
X206567116Y-119267532D01*
X216883355Y-116560916D02*
X216875928Y-116648238D01*
X193671288Y-115682772D02*
X193796241Y-115632919D01*
X195676993Y-120419495D02*
X195492351Y-120487376D01*
X194950683Y-116243556D02*
X194944931Y-116192005D01*
X193980885Y-120787487D02*
X194057461Y-120785242D01*
X200477396Y-115460585D02*
X200466600Y-115668145D01*
X200436999Y-115823695D01*
X195077150Y-119861513D02*
X195202105Y-119811659D01*
X197328720Y-119485928D02*
X197358938Y-119286254D01*
X197365412Y-119266805D01*
X197236309Y-114650212D02*
X197102448Y-114490537D01*
X196996727Y-114407312D01*
X206146691Y-113954804D02*
X206145592Y-113538195D01*
X206764599Y-118262241D02*
X206640798Y-118100262D01*
X206491975Y-117952818D01*
X206431814Y-117912371D01*
X200342675Y-114517948D02*
X200237792Y-114433983D01*
X194255593Y-118865039D02*
X194254801Y-118564836D01*
X211609392Y-115999954D02*
X211577819Y-115837682D01*
X188517268Y-114334222D02*
X188311356Y-114356468D01*
X188105761Y-114411740D01*
X188093728Y-114417028D01*
X187175569Y-118601903D02*
X187005202Y-118709590D01*
X186848441Y-118847833D01*
X196323533Y-114685297D02*
X196418952Y-114665134D01*
X206977209Y-115832468D02*
X206944247Y-115631565D01*
X206939079Y-115506836D01*
X185314766Y-118858009D02*
X185516821Y-118894279D01*
X185635629Y-118947530D01*
X186838630Y-120546981D02*
X186998442Y-120682273D01*
X187151179Y-120774373D01*
X202188869Y-118204884D02*
X202380473Y-118145622D01*
X202508283Y-118132564D01*
X186290943Y-119631472D02*
X186278080Y-119421482D01*
X186242429Y-119219250D01*
X186224869Y-119163980D01*
X202127209Y-119989941D02*
X202262743Y-119886962D01*
X211504778Y-114471634D02*
X211375528Y-114626913D01*
X211338413Y-114693653D01*
X206920282Y-119797063D02*
X206948123Y-119594924D01*
X206959733Y-119389755D01*
X206963265Y-119252190D01*
X200460955Y-114647828D02*
X200342675Y-114517948D01*
X187557775Y-115046424D02*
X187512388Y-115241922D01*
X187493770Y-115446236D01*
X187489138Y-115541840D01*
X192734457Y-115115468D02*
X192683494Y-114921273D01*
X192678772Y-114908841D01*
X185838524Y-119218098D02*
X185893226Y-119411138D01*
X185895740Y-119424209D01*
X202750935Y-114897058D02*
X202818258Y-115063831D01*
X203614039Y-116159420D02*
X203714542Y-116332750D01*
X203769902Y-116407648D01*
X186791793Y-115182211D02*
X186814789Y-115389610D01*
X186817034Y-115459885D01*
X200458038Y-113542997D02*
X200460955Y-114647828D01*
X202930455Y-116371060D02*
X203025134Y-116263596D01*
X193533903Y-118566739D02*
X193237785Y-118567521D01*
X192558868Y-116291224D02*
X192643265Y-116157238D01*
X203769902Y-116407648D02*
X203938639Y-116520756D01*
X204045526Y-116572340D01*
X204941445Y-115373750D02*
X204746698Y-115313169D01*
X204610360Y-115280171D01*
X188093728Y-114417028D02*
X187923362Y-114524715D01*
X187766600Y-114662958D01*
X195226648Y-118858393D02*
X195424303Y-118821004D01*
X195472629Y-118818941D01*
X185141768Y-120822563D02*
X185347309Y-120848112D01*
X185369035Y-120849023D01*
X197961075Y-116114608D02*
X197962249Y-116559808D01*
X199436333Y-114862922D02*
X199588129Y-114729991D01*
X199635538Y-114703104D01*
X208096901Y-115076445D02*
X208133606Y-115283018D01*
X208139697Y-115430147D01*
X187126662Y-114967915D02*
X187030188Y-114789045D01*
X186906717Y-114620298D01*
X194701460Y-114475147D02*
X194512269Y-114393248D01*
X194423940Y-114365600D01*
X187137885Y-115931811D02*
X187180833Y-115725062D01*
X187197974Y-115510536D01*
X187200940Y-115448661D01*
X186987905Y-120039606D02*
X186955662Y-119841741D01*
X186948769Y-119719593D01*
X202759727Y-119194871D02*
X202586084Y-119307825D01*
X202535971Y-119337397D01*
X197365412Y-119266805D02*
X197464548Y-119092405D01*
X197476716Y-119075054D01*
X195542598Y-114378985D02*
X195548372Y-116566179D01*
X204367182Y-115221588D02*
X204227183Y-115180092D01*
X189143097Y-115453745D02*
X189129406Y-115657694D01*
X189109746Y-115777523D01*
X209545201Y-114830110D02*
X209668456Y-114717464D01*
X205072140Y-118464803D02*
X205018429Y-118660318D01*
X204976681Y-118857671D01*
X209379313Y-114652876D02*
X209378494Y-114342461D01*
X193903972Y-117955140D02*
X193532292Y-117956122D01*
X204440935Y-120725157D02*
X204439758Y-120279959D01*
X196499696Y-120496459D02*
X196473659Y-120497040D01*
X207118862Y-116499387D02*
X207323442Y-116547856D01*
X207452416Y-116561305D01*
X206442423Y-118448932D02*
X206497499Y-118641808D01*
X206535285Y-118813734D01*
X196755521Y-114708664D02*
X196893776Y-114861465D01*
X192030470Y-114366814D02*
X191830211Y-114341608D01*
X191801161Y-114339849D01*
X199782055Y-116632606D02*
X199982886Y-116612487D01*
X199995914Y-116609579D01*
X206939079Y-115506836D02*
X206947227Y-115301643D01*
X206957221Y-115222408D01*
X204094790Y-114347220D02*
X203912038Y-114439976D01*
X203832237Y-114491889D01*
X195154574Y-116311432D02*
X195122932Y-116316110D01*
X206567116Y-119267532D02*
X206566822Y-119470111D01*
X206555477Y-119670423D01*
X206526274Y-119848648D01*
X193910146Y-120293458D02*
X193906377Y-118865961D01*
X189271996Y-116317259D02*
X189373678Y-116137230D01*
X189455585Y-115951240D01*
X189463949Y-115925671D01*
X189232781Y-114614158D02*
X189065278Y-114488880D01*
X188907515Y-114403647D01*
X205141821Y-115464610D02*
X204954219Y-115378741D01*
X204941445Y-115373750D01*
X187913630Y-118914456D02*
X188065483Y-119059272D01*
X188125596Y-119140583D01*
X193603369Y-114903336D02*
X193658737Y-114796486D01*
X189971305Y-120516246D02*
X189769754Y-120483432D01*
X189650456Y-120432340D01*
X185741434Y-118605690D02*
X185542504Y-118552166D01*
X185397645Y-118535120D01*
X201527861Y-118845842D02*
X201901584Y-118844856D01*
X191535321Y-119621711D02*
X191705039Y-119702953D01*
X201838862Y-116553149D02*
X202033682Y-116605434D01*
X202216354Y-116626182D01*
X205000871Y-119898626D02*
X205061633Y-120096385D01*
X205139389Y-120290318D01*
X205162877Y-120345442D01*
X192252778Y-114448935D02*
X192066010Y-114376293D01*
X192030470Y-114366814D01*
X201279963Y-118546290D02*
X200877650Y-118547353D01*
X194401991Y-115527677D02*
X194498401Y-115495258D01*
X192166721Y-120530873D02*
X191960801Y-120513594D01*
X191874570Y-120487226D01*
X198389069Y-116558681D02*
X198387894Y-116113481D01*
X201870930Y-120384765D02*
X201950521Y-120195711D01*
X201961263Y-120177753D01*
X194967639Y-116283845D02*
X194950683Y-116243556D01*
X202843335Y-115860739D02*
X202788556Y-115997202D01*
X185162873Y-118566374D02*
X184979459Y-118648720D01*
X184960938Y-118658805D01*
X191779544Y-114660534D02*
X191986324Y-114688769D01*
X192082476Y-114726104D01*
X186570977Y-119726718D02*
X186585435Y-119934143D01*
X186621359Y-120134278D01*
X186638571Y-120189100D01*
X187906064Y-115854732D02*
X187873822Y-115656866D01*
X187866930Y-115534717D01*
X197962249Y-116559808D02*
X198389069Y-116558681D01*
X189613065Y-118646526D02*
X189487731Y-118745393D01*
X212606827Y-114962941D02*
X212954001Y-114962024D01*
X207089648Y-116070089D02*
X206996259Y-115886037D01*
X206977209Y-115832468D01*
X204012939Y-120281084D02*
X204014115Y-120726284D01*
X194560253Y-115137196D02*
X194496623Y-115208843D01*
X216882810Y-116547132D02*
X216883355Y-116560916D01*
X206828882Y-116311759D02*
X206996246Y-116435244D01*
X207118862Y-116499387D01*
X188474406Y-116664499D02*
X188673967Y-116647895D01*
X188877142Y-116604232D01*
X188944395Y-116576975D01*
X195005268Y-116613051D02*
X195058351Y-116608317D01*
X207497675Y-117459759D02*
X207710701Y-117441358D01*
X207910900Y-117399526D01*
X208030906Y-117347049D01*
X188545792Y-120110545D02*
X188588737Y-119903797D01*
X188605878Y-119689270D01*
X188608845Y-119627395D01*
X212345049Y-114628198D02*
X212518414Y-114736488D01*
X185319176Y-120528526D02*
X185117626Y-120495712D01*
X184998327Y-120444621D01*
X194571312Y-119907267D02*
X194529401Y-120107095D01*
X194524546Y-120177472D01*
X205357423Y-115907200D02*
X205327342Y-115705512D01*
X205303126Y-115645428D01*
X187556247Y-120849374D02*
X187755808Y-120832770D01*
X187958982Y-120789107D01*
X188026235Y-120761851D01*
X194195777Y-120768028D02*
X194260574Y-120752031D01*
X199611550Y-116253206D02*
X199456483Y-116120948D01*
X199417071Y-116076047D01*
X203551980Y-115858868D02*
X203583042Y-116059989D01*
X203614039Y-116159420D01*
X189043757Y-114955706D02*
X189111068Y-115148003D01*
X189117857Y-115176070D01*
X193165451Y-115728524D02*
X193123538Y-115928355D01*
X193118682Y-115998732D01*
X203204805Y-115859785D02*
X202843335Y-115860739D01*
X194573209Y-120432110D02*
X194686301Y-120603283D01*
X194717735Y-120640544D01*
X205303126Y-115645428D02*
X205171086Y-115490817D01*
X205141821Y-115464610D01*
X202245809Y-114632905D02*
X202452590Y-114661141D01*
X202548741Y-114698476D01*
X190397558Y-120300688D02*
X190246040Y-120439154D01*
X190206526Y-120462017D01*
X193988154Y-120446418D02*
X193929797Y-120388879D01*
X194950353Y-119986423D02*
X195077150Y-119861513D01*
X212613983Y-115353494D02*
X212419236Y-115292915D01*
X212282900Y-115259917D01*
X212135327Y-116606125D02*
X212337970Y-116594072D01*
X212530356Y-116551983D01*
X184736913Y-119473218D02*
X184782795Y-119277306D01*
X184792972Y-119241280D01*
X196957489Y-116562460D02*
X197331212Y-116561473D01*
X188508287Y-116347868D02*
X188303800Y-116321380D01*
X188220184Y-116290424D01*
X197698433Y-118546556D02*
X197529260Y-118657766D01*
X197518526Y-118666500D01*
X193538519Y-120314861D02*
X193561998Y-120505746D01*
X207494510Y-116260989D02*
X207292719Y-116224658D01*
X207266678Y-116213598D01*
X184362416Y-118601161D02*
X184370465Y-121650163D01*
X192738537Y-115887413D02*
X192377069Y-115888367D01*
X202375115Y-116617593D02*
X202516472Y-116592714D01*
X191948254Y-119775830D02*
X192240483Y-119848579D01*
X204554111Y-115633623D02*
X204750310Y-115688754D01*
X202262743Y-119886962D02*
X202435470Y-119781992D01*
X202441151Y-119778766D01*
X201614838Y-120075026D02*
X201543369Y-120264044D01*
X201509448Y-120379592D01*
X209469417Y-114940590D02*
X209545201Y-114830110D01*
X199440805Y-116556925D02*
X199637998Y-116613347D01*
X199782055Y-116632606D01*
X216654492Y-116510464D02*
X216877093Y-116509877D01*
X189815000Y-118554093D02*
X189631586Y-118636440D01*
X189613065Y-118646526D01*
X201815288Y-119807476D02*
X201685022Y-119969667D01*
X201614838Y-120075026D01*
X195216517Y-120823027D02*
X195421916Y-120803182D01*
X195458957Y-120795328D01*
X197903063Y-118894212D02*
X197934205Y-118894642D01*
X201961263Y-120177753D02*
X202092967Y-120023162D01*
X202127209Y-119989941D01*
X188021630Y-116116339D02*
X187931964Y-115930127D01*
X187906064Y-115854732D01*
X186945931Y-116323401D02*
X187047614Y-116143370D01*
X187129521Y-115957380D01*
X187137885Y-115931811D01*
X199256144Y-118551633D02*
X200068587Y-120736699D01*
X195679811Y-120713566D02*
X195854667Y-120603684D01*
X195865340Y-120595138D01*
X190344849Y-116579917D02*
X190336931Y-113579927D01*
X207045990Y-116937635D02*
X207005823Y-116807549D01*
X195377134Y-119776989D02*
X195599656Y-119747813D01*
X187866930Y-115534717D02*
X187880146Y-115332327D01*
X187904330Y-115197653D01*
X184754166Y-116919386D02*
X184747563Y-114417693D01*
X186029438Y-118819362D02*
X185873584Y-118685415D01*
X185741434Y-118605690D01*
X203905279Y-115857936D02*
X203551980Y-115858868D01*
X202548741Y-114698476D02*
X202698694Y-114832632D01*
X202750935Y-114897058D01*
X194881159Y-114662556D02*
X194746969Y-114512814D01*
X194701460Y-114475147D01*
X199895570Y-116311682D02*
X199693686Y-116284481D01*
X199611550Y-116253206D01*
X203665873Y-114713907D02*
X203618729Y-114912428D01*
X203610963Y-114994857D01*
X194286872Y-114661062D02*
X194448885Y-114724964D01*
X184132762Y-117476509D02*
X184162379Y-117477962D01*
X191224586Y-115052571D02*
X191331739Y-114876588D01*
X191355251Y-114845453D01*
X204020017Y-115032579D02*
X203984452Y-114904012D01*
X193929797Y-120388879D02*
X193910146Y-120293458D01*
X194500359Y-116043586D02*
X194353578Y-116185880D01*
X194271128Y-116240755D01*
X196347467Y-119110709D02*
X196315718Y-118910792D01*
X196287021Y-118841298D01*
X196418952Y-114665134D02*
X196537893Y-114658183D01*
X195902485Y-119387583D02*
X195796892Y-119422580D01*
X204672258Y-116293455D02*
X204480351Y-116315914D01*
X194271128Y-116240755D02*
X194086487Y-116308636D01*
X201565237Y-118499078D02*
X201535393Y-118703175D01*
X201527861Y-118845842D01*
X208475895Y-114365266D02*
X208136889Y-114366162D01*
X204439758Y-120279959D02*
X204012939Y-120281084D01*
X216653317Y-116065266D02*
X216654492Y-116510464D01*
X193526542Y-115390606D02*
X193353802Y-115493235D01*
X193307362Y-115526483D01*
X184162379Y-117477962D02*
X184189950Y-117478399D01*
X186181839Y-114661014D02*
X186383751Y-114688681D01*
X186505726Y-114735722D01*
X208030906Y-117347049D02*
X208196813Y-117211098D01*
X208332261Y-117048775D01*
X208360349Y-117012280D01*
X197331212Y-116561473D02*
X197327509Y-115158482D01*
X187756791Y-116362104D02*
X187916601Y-116497398D01*
X188069339Y-116589495D01*
X185919917Y-120653558D02*
X186048854Y-120493409D01*
X186159401Y-120326049D01*
X186199131Y-120244378D01*
X191697058Y-119000964D02*
X191776459Y-118908343D01*
X185430727Y-116368244D02*
X185590537Y-116503538D01*
X185743274Y-116595637D01*
X196410841Y-120488524D02*
X196373500Y-120462587D01*
X206963265Y-119252190D02*
X206956316Y-119038871D01*
X206937598Y-118828080D01*
X206912769Y-118690204D01*
X192643265Y-116157238D02*
X192707733Y-116015132D01*
X204010686Y-114786007D02*
X204090088Y-114693387D01*
X196107323Y-118653888D02*
X195918132Y-118571989D01*
X195829803Y-118544342D01*
X192082476Y-114726104D02*
X192232426Y-114860261D01*
X192284666Y-114924688D01*
X193298060Y-114710132D02*
X193241979Y-114906374D01*
X193228507Y-115052897D01*
X205302492Y-116179470D02*
X205349841Y-115977940D01*
X205357423Y-115907200D01*
X191874570Y-120487226D02*
X191707017Y-120373733D01*
X191684294Y-120354474D01*
X198023579Y-118904106D02*
X198022554Y-118516089D01*
X186505726Y-114735722D02*
X186657579Y-114880537D01*
X186717693Y-114961847D01*
X187589742Y-118839750D02*
X187791656Y-118867415D01*
X187913630Y-118914456D01*
X193810656Y-116644285D02*
X194016054Y-116624442D01*
X194053094Y-116616588D01*
X186848441Y-118847833D02*
X186737862Y-119023402D01*
X186648728Y-119206033D01*
X186639617Y-119231297D01*
X197971998Y-118511115D02*
X197938802Y-118508141D01*
X190841153Y-115049498D02*
X190793574Y-115252662D01*
X190774318Y-115465512D01*
X190770936Y-115527051D01*
X188508287Y-116347868D02*
X188303800Y-116321380D01*
X188220184Y-116290424D01*
X212975666Y-115625176D02*
X212843626Y-115470562D01*
X212814361Y-115444354D01*
X212579454Y-114844054D02*
X212606827Y-114962941D01*
X192358631Y-120508412D02*
X192166721Y-120530873D01*
X184735113Y-120532111D02*
X184850322Y-120658935D01*
X194575389Y-115455742D02*
X194576171Y-115751861D01*
X190049773Y-118522839D02*
X189850465Y-118544986D01*
X189815000Y-118554093D01*
X210722990Y-114614610D02*
X210589127Y-114454935D01*
X210483408Y-114371710D01*
X192120552Y-118513288D02*
X191915032Y-118530357D01*
X191781162Y-118562176D01*
X209399623Y-115383934D02*
X209405759Y-115194503D01*
X191546854Y-114707097D02*
X191749215Y-114663507D01*
X191779544Y-114660534D01*
X199266438Y-115488288D02*
X199277436Y-115280646D01*
X199308366Y-115125685D01*
X201523267Y-116331890D02*
X201684932Y-116463563D01*
X201838862Y-116553149D01*
X192768406Y-115597340D02*
X192764797Y-115391636D01*
X192759483Y-115311453D01*
X195064599Y-118975226D02*
X195226648Y-118858393D01*
X192464189Y-116398691D02*
X192558868Y-116291224D01*
X203997922Y-116139517D02*
X203936850Y-116020209D01*
X186948769Y-119719593D02*
X186961987Y-119517202D01*
X186986171Y-119382530D01*
X184720567Y-118890210D02*
X184719802Y-118600217D01*
X189007899Y-116070850D02*
X188876807Y-116231718D01*
X188815968Y-116278130D01*
X192707733Y-116015132D02*
X192738537Y-115887413D01*
X219208060Y-115266142D02*
X219745673Y-113912779D01*
X194703921Y-118888872D02*
X194647841Y-119085114D01*
X194634370Y-119231638D01*
X191706389Y-119247536D02*
X191670820Y-119118971D01*
X189645500Y-118942050D02*
X189836175Y-118867750D01*
X189966895Y-118845727D01*
X204434183Y-114298331D02*
X204228660Y-114315401D01*
X204094790Y-114347220D01*
X206561193Y-115477200D02*
X206570443Y-115686567D01*
X206601336Y-115888364D01*
X206628883Y-115976853D01*
X195122932Y-116316110D02*
X195093834Y-116317719D01*
X184747563Y-114417693D02*
X184379968Y-114418663D01*
X185231712Y-115052563D02*
X185186323Y-115248062D01*
X185167705Y-115452377D01*
X185163073Y-115547982D01*
X192277178Y-116536013D02*
X192441730Y-116417557D01*
X192464189Y-116398691D01*
X188217059Y-114719972D02*
X188411363Y-114664779D01*
X188507903Y-114654873D01*
X197307888Y-118556776D02*
X196958670Y-118557698D01*
X211860738Y-116252015D02*
X211693186Y-116138521D01*
X211670463Y-116119262D01*
X206202000Y-120401924D02*
X206004870Y-120458006D01*
X205945361Y-120465909D01*
X207924679Y-114434115D02*
X207743114Y-114348261D01*
X207716125Y-114339702D01*
X185743274Y-116595637D02*
X185938848Y-116649327D01*
X186148342Y-116670640D01*
X200434070Y-115100248D02*
X200470466Y-115299288D01*
X200477396Y-115460585D01*
X191357180Y-119444511D02*
X191496573Y-119591538D01*
X191535321Y-119621711D01*
X193820786Y-114679651D02*
X194018442Y-114642262D01*
X194066768Y-114640199D01*
X187200940Y-115448661D02*
X187187840Y-115246955D01*
X187150504Y-115038443D01*
X187126662Y-114967915D01*
X202013120Y-114679469D02*
X202215481Y-114635878D01*
X202245809Y-114632905D01*
X199308366Y-115125685D02*
X199394907Y-114935235D01*
X199436333Y-114862922D01*
X202911850Y-114545373D02*
X202744417Y-114435323D01*
X202719046Y-114421307D01*
X211343348Y-115209299D02*
X211482740Y-115356328D01*
X211521488Y-115386501D01*
X189143097Y-115453745D02*
X189129406Y-115657694D01*
X189109746Y-115777523D01*
X210790950Y-114830395D02*
X210730373Y-114634643D01*
X210722990Y-114614610D01*
X199304560Y-115810856D02*
X199273155Y-115611261D01*
X199266438Y-115488288D01*
X206626781Y-114987916D02*
X206580496Y-115196254D01*
X206564467Y-115398480D01*
X206561193Y-115477200D01*
X199415756Y-114417773D02*
X199250066Y-114542116D01*
X199119312Y-114682001D01*
X189606312Y-120729600D02*
X189793897Y-120810282D01*
X190525505Y-120030778D02*
X190443442Y-120218018D01*
X190397558Y-120300688D01*
X199995914Y-116609579D02*
X200184130Y-116541689D01*
X196996727Y-114407312D02*
X196800280Y-114344683D01*
X196606454Y-114327162D01*
X196473659Y-120497040D02*
X196410841Y-120488524D01*
X193905583Y-118565759D02*
X193903972Y-117955140D01*
X194448885Y-114724964D02*
X194550263Y-114834466D01*
X199148163Y-116327949D02*
X199296740Y-116464184D01*
X199440805Y-116556925D01*
X192092791Y-118827862D02*
X192295937Y-118844586D01*
X192358883Y-118863409D01*
X205948288Y-120800824D02*
X206150432Y-120768881D01*
X206353604Y-120710348D01*
X206450299Y-120659608D01*
X216656132Y-117131292D02*
X216844425Y-117063611D01*
X216861166Y-117052638D01*
X187989354Y-118588525D02*
X187787351Y-118538145D01*
X187599108Y-118519097D01*
X188018455Y-114913485D02*
X188155173Y-114763265D01*
X188217059Y-114719972D01*
X184386469Y-116881554D02*
X184374100Y-117031179D01*
X185163073Y-115547982D02*
X185177530Y-115755407D01*
X185213455Y-115955542D01*
X185230666Y-116010364D01*
X195472629Y-118818941D02*
X195672752Y-118835117D01*
X195692733Y-118839803D01*
X185580001Y-115860871D02*
X185547758Y-115663006D01*
X185540864Y-115540858D01*
X189977254Y-116580886D02*
X190344849Y-116579917D01*
X199816816Y-114328901D02*
X199607285Y-114355751D01*
X199415756Y-114417773D01*
X211895725Y-114613046D02*
X212078957Y-114592651D01*
X188831792Y-114729579D02*
X188983643Y-114874397D01*
X189043757Y-114955706D01*
X201509448Y-120379592D02*
X201476030Y-120576877D01*
X201461366Y-120733022D01*
X206957221Y-115222408D02*
X207005149Y-115025985D01*
X207013299Y-114998128D01*
X186717693Y-114961847D02*
X186785004Y-115154144D01*
X186791793Y-115182211D01*
X196027128Y-120573269D02*
X196065647Y-120659452D01*
X203848949Y-115406755D02*
X204018666Y-115487996D01*
X193971271Y-115598249D02*
X194193795Y-115569070D01*
X188089739Y-120255725D02*
X187958646Y-120416595D01*
X187897807Y-120463007D01*
X188815968Y-116278130D02*
X188621515Y-116336829D01*
X188508287Y-116347868D01*
X205162877Y-120345442D02*
X205293578Y-120515427D01*
X205440976Y-120656639D01*
X205488494Y-120687674D01*
X193561998Y-120505746D02*
X193631323Y-120657708D01*
X207505041Y-117155449D02*
X207300508Y-117134091D01*
X207273170Y-117125429D01*
X198938053Y-115063862D02*
X198897020Y-115268983D01*
X198880058Y-115481233D01*
X198878474Y-115509734D01*
X187103471Y-120301215D02*
X187013805Y-120115002D01*
X186987905Y-120039606D01*
X193796241Y-115632919D02*
X193971271Y-115598249D01*
X186639617Y-119231297D02*
X186594229Y-119426797D01*
X186575610Y-119631113D01*
X186570977Y-119726718D01*
X184370465Y-121650163D02*
X184738062Y-121649193D01*
X206147766Y-114361200D02*
X205774043Y-114362187D01*
X208451497Y-116727148D02*
X208476447Y-116519088D01*
X208481146Y-116354367D01*
X194937934Y-120310656D02*
X194908458Y-120168289D01*
X206628883Y-115976853D02*
X206723355Y-116158890D01*
X206828882Y-116311759D01*
X195956126Y-119013207D02*
X195990249Y-119174961D01*
X205281461Y-114982279D02*
X205251734Y-114783206D01*
X205249777Y-114777119D01*
X195004977Y-116309785D02*
X194967639Y-116283845D01*
X204859659Y-114369706D02*
X204655169Y-114314810D01*
X204448165Y-114298962D01*
X204434183Y-114298331D01*
X198387894Y-116113481D02*
X197961075Y-116114608D01*
X192989495Y-119860387D02*
X192857458Y-119705774D01*
X192828194Y-119679566D01*
X186638571Y-120189100D02*
X186726266Y-120372229D01*
X186838630Y-120546981D01*
X194221527Y-120465713D02*
X194188347Y-120468354D01*
X184491555Y-117427569D02*
X184650124Y-117304213D01*
X184677507Y-117276975D01*
X194894290Y-118669343D02*
X194752504Y-118814902D01*
X194703921Y-118888872D01*
X196341699Y-120793508D02*
X196411128Y-120791794D01*
X185397645Y-118535120D02*
X185198337Y-118557267D01*
X185162873Y-118566374D01*
X205945361Y-120465909D02*
X205744145Y-120416374D01*
X205641821Y-120363067D01*
X187556730Y-116004225D02*
X187644426Y-116187354D01*
X187756791Y-116362104D01*
X196356545Y-120422298D02*
X196350793Y-120370745D01*
X195479979Y-118508506D02*
X195272345Y-118526868D01*
X195167118Y-118549154D01*
X184795479Y-120190901D02*
X184738289Y-119994490D01*
X197518526Y-118666500D02*
X197382591Y-118812366D01*
X204857815Y-116572239D02*
X205043163Y-116475091D01*
X205136157Y-116412209D01*
X199119312Y-114682001D02*
X199023247Y-114857710D01*
X198941908Y-115051393D01*
X198938053Y-115063862D01*
X194391030Y-115243839D02*
X193805113Y-115318905D01*
X192648927Y-120042020D02*
X192680396Y-120166003D01*
X186148342Y-116670640D02*
X186347903Y-116654035D01*
X186551078Y-116610372D01*
X186618331Y-116583115D01*
X193571597Y-115051989D02*
X193603369Y-114903336D01*
X209890499Y-114313030D02*
X209707380Y-114376311D01*
X203071355Y-118686558D02*
X203032456Y-118886962D01*
X203030033Y-118892933D01*
X191300411Y-120374376D02*
X191400913Y-120547708D01*
X191456274Y-120622606D01*
X184718781Y-119760197D02*
X184727120Y-119553221D01*
X184736913Y-119473218D01*
X185692392Y-114919624D02*
X185829109Y-114769406D01*
X185890995Y-114726111D01*
X219899798Y-113501886D02*
X219585298Y-113502716D01*
X185890995Y-114726111D02*
X186085298Y-114670920D01*
X186181839Y-114661014D01*
X192525916Y-120442110D02*
X192358631Y-120508412D01*
X209405759Y-115194503D02*
X209425302Y-115055070D01*
X191684294Y-120354474D02*
X191623222Y-120235166D01*
X188069339Y-116589495D02*
X188264911Y-116643187D01*
X188474406Y-116664499D01*
X184738289Y-119994490D02*
X184719698Y-119789765D01*
X184718781Y-119760197D01*
X196058520Y-114865713D02*
X196181777Y-114753064D01*
X205147672Y-114586442D02*
X204991569Y-114450779D01*
X204859659Y-114369706D01*
X202818258Y-115063831D02*
X202854477Y-115265031D01*
X202856095Y-115278674D01*
X215298723Y-113514033D02*
X214586567Y-115278342D01*
X195892634Y-114688477D02*
X195891814Y-114378063D01*
X191781162Y-118562176D02*
X191598410Y-118654932D01*
X191518609Y-118706845D01*
X189487731Y-118745393D02*
X189372697Y-118877928D01*
X194053094Y-116616588D02*
X194246737Y-116546709D01*
X194273948Y-116534826D01*
X209905631Y-114629533D02*
X210024573Y-114622580D01*
X191909557Y-118848258D02*
X192092791Y-118827862D01*
X211934425Y-115540620D02*
X212226649Y-115613369D01*
X196001806Y-120457439D02*
X196027128Y-120573269D01*
X191623222Y-120235166D02*
X191591653Y-120072893D01*
X204945738Y-119320824D02*
X204952798Y-119522120D01*
X204971734Y-119739188D01*
X205000871Y-119898626D01*
X192358883Y-118863409D02*
X192532247Y-118971699D01*
X184040000Y-117150000D02*
X184040843Y-117468582D01*
X194634370Y-119231638D02*
X194977460Y-119230732D01*
X189463949Y-115925671D02*
X189506897Y-115718922D01*
X189524037Y-115504396D01*
X189527003Y-115442521D01*
X204223184Y-114633299D02*
X204406419Y-114612906D01*
X210093133Y-114291562D02*
X209890499Y-114313030D01*
X217091439Y-116476635D02*
X217090348Y-116064112D01*
X210242201Y-114673062D02*
X210380454Y-114825863D01*
X212532199Y-114349452D02*
X212327707Y-114294556D01*
X212120701Y-114278708D01*
X212106719Y-114278077D01*
X190206526Y-120462017D02*
X190009959Y-120511573D01*
X189971305Y-120516246D01*
X197304272Y-114865997D02*
X197243692Y-114670245D01*
X197236309Y-114650212D01*
X185695567Y-116122479D02*
X185605901Y-115936267D01*
X185580001Y-115860871D01*
X187897807Y-120463007D02*
X187703356Y-120521705D01*
X187590128Y-120532744D01*
X196594116Y-120484469D02*
X196560435Y-120490174D01*
X211224518Y-115838615D02*
X211255581Y-116039736D01*
X211286579Y-116139167D01*
X197991911Y-118899084D02*
X198023579Y-118904106D01*
X208481146Y-116354367D02*
X208475895Y-114365266D01*
X189022594Y-121637883D02*
X189390190Y-121636913D01*
X190567399Y-119654901D02*
X190557937Y-119858221D01*
X190525505Y-120030778D01*
X204227183Y-115180092D02*
X204125965Y-115132368D01*
X199635538Y-114703104D02*
X199837620Y-114654555D01*
X199887099Y-114649342D01*
X204406419Y-114612906D02*
X204609565Y-114629629D01*
X204672512Y-114648452D01*
X210024573Y-114622580D02*
X210224651Y-114663477D01*
X210242201Y-114673062D01*
X185894120Y-116296565D02*
X185736021Y-116166597D01*
X185695567Y-116122479D01*
X186681833Y-116076991D02*
X186550742Y-116237858D01*
X186489903Y-116284270D01*
X205641821Y-120363067D02*
X205515177Y-120206641D01*
X205441887Y-120052669D01*
X205369065Y-119737340D02*
X205349678Y-119536701D01*
X205344004Y-119334068D01*
X216338771Y-115273718D02*
X215613223Y-113513202D01*
X212078957Y-114592651D02*
X212282103Y-114609375D01*
X212345049Y-114628198D01*
X204610360Y-115280171D02*
X204367182Y-115221588D01*
X197327509Y-115158482D02*
X197318175Y-114956106D01*
X197304272Y-114865997D01*
X216655618Y-116937285D02*
X216656132Y-117131292D01*
X194584387Y-114996221D02*
X194578475Y-115077414D01*
X187557775Y-115046424D02*
X187512388Y-115241922D01*
X187493770Y-115446236D01*
X187489138Y-115541840D01*
X192680396Y-120166003D02*
X192642022Y-120327951D01*
X199417071Y-116076047D02*
X199329777Y-115887146D01*
X199304560Y-115810856D01*
X211338413Y-114693653D02*
X211291269Y-114892175D01*
X211283505Y-114974604D01*
X196220700Y-114411913D02*
X196052000Y-114523148D01*
X193118682Y-115998732D02*
X193149080Y-116200867D01*
X193167347Y-116253369D01*
X195796892Y-119422580D02*
X195210977Y-119497644D01*
X195906220Y-120222327D02*
X195759441Y-120364621D01*
X195676993Y-120419495D01*
X204839544Y-116227153D02*
X204672258Y-116293455D01*
X210440529Y-115148374D02*
X210444167Y-116526859D01*
X190393562Y-118593409D02*
X190194631Y-118539887D01*
X190049773Y-118522839D01*
X207779824Y-114681605D02*
X207942539Y-114801504D01*
X207970647Y-114828141D01*
X202496738Y-114339184D02*
X202296479Y-114313980D01*
X202267429Y-114312221D01*
X212820212Y-114566189D02*
X212664109Y-114430525D01*
X212532199Y-114349452D01*
X209538680Y-114487546D02*
X209398175Y-114630935D01*
X209379313Y-114652876D01*
X194498401Y-115495258D02*
X194575389Y-115455742D01*
X191383749Y-114423149D02*
X191212280Y-114531496D01*
X191054585Y-114670615D01*
X211656991Y-114883758D02*
X211683226Y-114765753D01*
X189007899Y-116070850D02*
X188876807Y-116231718D01*
X188815968Y-116278130D01*
X195702745Y-119731202D02*
X195807853Y-119706419D01*
X201667129Y-118222600D02*
X201591240Y-118411311D01*
X201565237Y-118499078D01*
X212628188Y-116092738D02*
X212512086Y-116206898D01*
X196350793Y-120370745D02*
X196347467Y-119110709D01*
X203418668Y-118351741D02*
X203318426Y-118169103D01*
X203243302Y-118065273D01*
X204906913Y-114864308D02*
X204934287Y-114983194D01*
X188474406Y-116664499D02*
X188673967Y-116647895D01*
X188877142Y-116604232D01*
X188944395Y-116576975D01*
X187151179Y-120774373D02*
X187346752Y-120828063D01*
X187556247Y-120849374D01*
X195915969Y-116565208D02*
X195912943Y-115419536D01*
X204994025Y-115951046D02*
X204955652Y-116112992D01*
X204462790Y-116626377D02*
X204665429Y-116614326D01*
X204857815Y-116572239D01*
X200184130Y-116541689D02*
X200347704Y-116423320D01*
X186817034Y-115459885D02*
X186803342Y-115663834D01*
X186783681Y-115783663D01*
X194273948Y-116534826D02*
X194448803Y-116424944D01*
X194459476Y-116416399D01*
X194259808Y-120462039D02*
X194221527Y-120465713D01*
X207216798Y-114724957D02*
X207410908Y-114653128D01*
X207543310Y-114633215D01*
X202509435Y-117795596D02*
X202305390Y-117813835D01*
X202097707Y-117858751D01*
X201996614Y-117903146D01*
X192532247Y-118971699D02*
X192593287Y-119079264D01*
X207005823Y-116807549D02*
X206632100Y-116808535D01*
X193895602Y-116331604D02*
X193746971Y-116309022D01*
X207682620Y-116540275D02*
X207862683Y-116478533D01*
X188608845Y-119627395D02*
X188595744Y-119425689D01*
X188558408Y-119217178D01*
X188534566Y-119146650D01*
X204188198Y-116272268D02*
X204020645Y-116158776D01*
X203997922Y-116139517D01*
X206145592Y-113538195D02*
X205771871Y-113539180D01*
X193631323Y-120657708D02*
X193764835Y-120755383D01*
X187766600Y-114662958D02*
X187656021Y-114838526D01*
X187566887Y-115021159D01*
X187557775Y-115046424D01*
X191776459Y-118908343D02*
X191909557Y-118848258D01*
X204045526Y-116572340D02*
X204248193Y-116616563D01*
X204449253Y-116626120D01*
X204462790Y-116626377D01*
X188093728Y-114417028D02*
X187923362Y-114524715D01*
X187766600Y-114662958D01*
X220292468Y-115263280D02*
X220625345Y-115262402D01*
X192593287Y-119079264D02*
X192620659Y-119198151D01*
X209029277Y-114343384D02*
X209035051Y-116530579D01*
X195854747Y-118903705D02*
X195956126Y-119013207D01*
X192296731Y-119495128D02*
X192053555Y-119436545D01*
X188191586Y-119962398D02*
X188129930Y-120156044D01*
X188089739Y-120255725D01*
X219745673Y-113912779D02*
X220292468Y-115263280D01*
X212814361Y-115444354D02*
X212626757Y-115358486D01*
X212613983Y-115353494D01*
X216877093Y-116509877D02*
X216880190Y-116523143D01*
X203468848Y-120727722D02*
X203467931Y-120380549D01*
X216005892Y-115274596D02*
X216338771Y-115273718D01*
X216775435Y-116875191D02*
X216655618Y-116937285D01*
X197308885Y-118934583D02*
X197307888Y-118556776D01*
X212422847Y-115668500D02*
X212541424Y-115716690D01*
X191355251Y-114845453D02*
X191514482Y-114723136D01*
X191546854Y-114707097D01*
X196958670Y-118557698D02*
X196964445Y-120744893D01*
X212152890Y-116295662D02*
X211946970Y-116278383D01*
X211860738Y-116252015D01*
X191750088Y-116653810D02*
X191908847Y-116645223D01*
X209035051Y-116530579D02*
X209402647Y-116529607D01*
X186199131Y-120244378D02*
X186257426Y-120044177D01*
X186282429Y-119830918D01*
X186290943Y-119631472D01*
X202856095Y-115278674D02*
X201640986Y-115281883D01*
X187298899Y-118904847D02*
X187493202Y-118849656D01*
X187589742Y-118839750D01*
X207831748Y-116170750D02*
X207641420Y-116239658D01*
X207494510Y-116260989D01*
X202917121Y-118282608D02*
X203029989Y-118452009D01*
X203032459Y-118457935D01*
X188507903Y-114654873D02*
X188709816Y-114682539D01*
X188831792Y-114729579D01*
X195904262Y-119673999D02*
X195981251Y-119634483D01*
X207122985Y-114386707D02*
X206949764Y-114503636D01*
X206826456Y-114618771D01*
X188831792Y-114729579D02*
X188983643Y-114874397D01*
X189043757Y-114955706D01*
X212106719Y-114278077D02*
X211901198Y-114295147D01*
X211767329Y-114326965D01*
X206912769Y-118690204D02*
X206852451Y-118487634D01*
X206775351Y-118288668D01*
X206764599Y-118262241D01*
X192828194Y-119679566D02*
X192640591Y-119593698D01*
X192627817Y-119588707D01*
X194524546Y-120177472D02*
X194554942Y-120379607D01*
X194573209Y-120432110D01*
X193805113Y-115318905D02*
X193601767Y-115363125D01*
X193526542Y-115390606D01*
X201307420Y-115021869D02*
X201259840Y-115225034D01*
X201240584Y-115437884D01*
X201237202Y-115499423D01*
X206902975Y-117302035D02*
X207086202Y-117390867D01*
X207172350Y-117420794D01*
X202516472Y-116592714D02*
X202709953Y-116525222D01*
X202743444Y-116508385D01*
X184374100Y-117031179D02*
X184336002Y-117104289D01*
X206526274Y-119848648D02*
X206466458Y-120042880D01*
X206400104Y-120211475D01*
X194576171Y-115751861D02*
X194540660Y-115952181D01*
X194500359Y-116043586D01*
X216881242Y-116534372D02*
X216882810Y-116547132D01*
X192555255Y-119951901D02*
X192648927Y-120042020D01*
X184379968Y-114418663D02*
X184386469Y-116881554D01*
X189445100Y-119228999D02*
X189544586Y-119049285D01*
X189645500Y-118942050D01*
X201821518Y-114817822D02*
X201980748Y-114695508D01*
X202013120Y-114679469D01*
X189452727Y-114961775D02*
X189356253Y-114782905D01*
X189232781Y-114614158D01*
X194074119Y-114329764D02*
X193866482Y-114348127D01*
X193761256Y-114370413D01*
X190851259Y-120232097D02*
X190909555Y-120031895D01*
X190934558Y-119818637D01*
X190943072Y-119619191D01*
X187906064Y-115854732D02*
X187873822Y-115656866D01*
X187866930Y-115534717D01*
X195807853Y-119706419D02*
X195904262Y-119673999D01*
X191297336Y-119209813D02*
X191341156Y-119411649D01*
X191357180Y-119444511D01*
X203234673Y-115569712D02*
X203231064Y-115364008D01*
X203225751Y-115283825D01*
X189271996Y-116317259D02*
X189373678Y-116137230D01*
X189455585Y-115951240D01*
X189463949Y-115925671D01*
X190681567Y-118807081D02*
X190525712Y-118673135D01*
X190393562Y-118593409D01*
X184850322Y-120658935D02*
X184954183Y-120741880D01*
X197962292Y-118896099D02*
X197991911Y-118899084D01*
X192351990Y-115091461D02*
X192388210Y-115292661D01*
X192389828Y-115306303D01*
X203030033Y-118892933D02*
X202914039Y-119064190D01*
X202904917Y-119075020D01*
X195982033Y-119930602D02*
X195946522Y-120130922D01*
X195906220Y-120222327D01*
X203416792Y-118995043D02*
X203464840Y-118795435D01*
X203477708Y-118669150D01*
X200877650Y-118547353D02*
X200271733Y-120329763D01*
X209810212Y-114649696D02*
X209905631Y-114629533D01*
X189527003Y-115442521D02*
X189513903Y-115240815D01*
X189476568Y-115032303D01*
X189452727Y-114961775D01*
X195912943Y-115419536D02*
X195919080Y-115230105D01*
X200811340Y-113542065D02*
X200458038Y-113542997D01*
X195692733Y-118839803D02*
X195854747Y-118903705D01*
X185915270Y-119667181D02*
X185905809Y-119870501D01*
X185873377Y-120043059D01*
X208006386Y-116375022D02*
X208127510Y-116228684D01*
X190572045Y-120641277D02*
X190700982Y-120481129D01*
X190811529Y-120313768D01*
X190851259Y-120232097D01*
X209402647Y-116529607D02*
X209399623Y-115383934D01*
X194496623Y-115208843D02*
X194391030Y-115243839D01*
X206714558Y-117100355D02*
X206849540Y-117255184D01*
X206902975Y-117302035D01*
X193544490Y-115807682D02*
X193671288Y-115682772D01*
X220625345Y-115262402D02*
X219899798Y-113501886D01*
X184189950Y-117478399D02*
X184394576Y-117459889D01*
X184491555Y-117427569D01*
X194908458Y-120168289D02*
X194950353Y-119986423D01*
X191908847Y-116645223D02*
X192050204Y-116620342D01*
X194659783Y-116480711D02*
X194771862Y-116581503D01*
X211718068Y-116552086D02*
X211920732Y-116596309D01*
X212121791Y-116605868D01*
X212135327Y-116606125D01*
X204090088Y-114693387D02*
X204223184Y-114633299D01*
X208136889Y-114366162D02*
X208137617Y-114641858D01*
X203832237Y-114491889D02*
X203702989Y-114647166D01*
X203665873Y-114713907D01*
X201901584Y-118844856D02*
X201919144Y-118639881D01*
X201926472Y-118602788D01*
X192436681Y-119903711D02*
X192555255Y-119951901D01*
X195202105Y-119811659D02*
X195377134Y-119776989D01*
X185230666Y-116010364D02*
X185318363Y-116193493D01*
X185430727Y-116368244D01*
X185895740Y-119424209D02*
X185914072Y-119628888D01*
X185915270Y-119667181D01*
X211670463Y-116119262D02*
X211609392Y-115999954D01*
X203109534Y-116129607D02*
X203174000Y-115987503D01*
X200347704Y-116423320D02*
X200475534Y-116266266D01*
X200487646Y-116248852D01*
X191670820Y-119118971D02*
X191697058Y-119000964D01*
X184835603Y-118757672D02*
X184720567Y-118890210D01*
X192586401Y-114729880D02*
X192450506Y-114577292D01*
X192445585Y-114573001D01*
X201461366Y-120733022D02*
X203468848Y-120727722D01*
X202267429Y-114312221D02*
X202064592Y-114335234D01*
X201861891Y-114390304D01*
X201850016Y-114395520D01*
X189372697Y-118877928D02*
X189371930Y-118587936D01*
X190287758Y-118935249D02*
X190424539Y-119089767D01*
X190490652Y-119205817D01*
X205772971Y-113955790D02*
X206146691Y-113954804D01*
X187766600Y-114662958D02*
X187656021Y-114838526D01*
X187566887Y-115021159D01*
X187557775Y-115046424D01*
X194459476Y-116416399D02*
X194595942Y-116278698D01*
X191731895Y-120787298D02*
X191934564Y-120831521D01*
X192135625Y-120841079D01*
X192149161Y-120841336D01*
X195829803Y-118544342D02*
X195624181Y-118514504D01*
X195479979Y-118508506D01*
X197476716Y-119075054D02*
X197639063Y-118948853D01*
X197657606Y-118939789D01*
X191210491Y-115901657D02*
X191172812Y-115697389D01*
X191165279Y-115601573D01*
X184998327Y-120444621D02*
X184856851Y-120290982D01*
X184795479Y-120190901D01*
X206826456Y-114618771D02*
X206714219Y-114799309D01*
X206626781Y-114987916D01*
X189370907Y-119747917D02*
X189379249Y-119540940D01*
X189389043Y-119460938D01*
X212039721Y-115201334D02*
X211899718Y-115159839D01*
X184677507Y-117276975D02*
X184735317Y-117128252D01*
X189969335Y-113580896D02*
X189977254Y-116580886D01*
X184746511Y-114019464D02*
X184745390Y-113594687D01*
X214586567Y-115278342D02*
X214921487Y-115277457D01*
X195492351Y-120487376D02*
X195301464Y-120510344D01*
X201850016Y-114395520D02*
X201678547Y-114503868D01*
X201520852Y-114642987D01*
X193488426Y-114490602D02*
X193346643Y-114636161D01*
X193298060Y-114710132D01*
X195599656Y-119747813D02*
X195702745Y-119731202D01*
X194057461Y-120785242D02*
X194127900Y-120778931D01*
X185554398Y-120474298D02*
X185357831Y-120523853D01*
X185319176Y-120528526D01*
X204261881Y-115560874D02*
X204554111Y-115633623D01*
X207266678Y-116213598D02*
X207105184Y-116085775D01*
X207089648Y-116070089D01*
X212922314Y-114756866D02*
X212827690Y-114577739D01*
X212820212Y-114566189D01*
X192627817Y-119588707D02*
X192433070Y-119528125D01*
X192296731Y-119495128D01*
X191705039Y-119702953D02*
X191901913Y-119764074D01*
X191948254Y-119775830D01*
X211577819Y-115837682D02*
X211224518Y-115838615D01*
X200116467Y-114698768D02*
X200278417Y-114821179D01*
X200306279Y-114848371D01*
X194188347Y-120468354D02*
X194131166Y-120468505D01*
X207112615Y-117033952D02*
X207045990Y-116937635D01*
X208057691Y-116855826D02*
X207932318Y-117016656D01*
X207854572Y-117079986D01*
X203032985Y-119431049D02*
X203195544Y-119301367D01*
X203232187Y-119270209D01*
X191511709Y-116285820D02*
X191351553Y-116163378D01*
X191323941Y-116136213D01*
X185369035Y-120849023D02*
X185575049Y-120824185D01*
X185664006Y-120799740D01*
X203232187Y-119270209D02*
X203359341Y-119103041D01*
X203416792Y-118995043D01*
X203467931Y-120380549D02*
X201870930Y-120384765D01*
X217067534Y-116704914D02*
X217090216Y-116505580D01*
X217091439Y-116476635D01*
X191174719Y-115309511D02*
X191206617Y-115105979D01*
X191224586Y-115052571D01*
X211899718Y-115159839D02*
X211798505Y-115112115D01*
X194713224Y-119705223D02*
X194591392Y-119866685D01*
X194571312Y-119907267D01*
X202508283Y-118132564D02*
X202711164Y-118160416D01*
X202738128Y-118169738D01*
X193532292Y-117956122D02*
X193533903Y-118566739D01*
X196464214Y-120787058D02*
X196519324Y-120776191D01*
X208117901Y-115682928D02*
X208060813Y-115874997D01*
X208051085Y-115902132D01*
X194045378Y-120463116D02*
X193988154Y-120446418D01*
X207273170Y-117125429D02*
X207112615Y-117033952D01*
X190547867Y-119411929D02*
X190566200Y-119616607D01*
X190567399Y-119654901D01*
X191057001Y-116359519D02*
X191218665Y-116491192D01*
X191372598Y-116580775D01*
X187556730Y-116004225D02*
X187644426Y-116187354D01*
X187756791Y-116362104D01*
X202719046Y-114421307D02*
X202532277Y-114348664D01*
X202496738Y-114339184D01*
X188353836Y-120502136D02*
X188455519Y-120322106D01*
X188537427Y-120136114D01*
X188545792Y-120110545D01*
X193746971Y-116309022D02*
X193619663Y-116240432D01*
X202535971Y-119337397D02*
X202144466Y-119565116D01*
X191518609Y-118706845D02*
X191389360Y-118862123D01*
X191352245Y-118928864D01*
X195865340Y-120595138D02*
X196001806Y-120457439D01*
X209378494Y-114342461D02*
X209029277Y-114343384D01*
X193532072Y-116131916D02*
X193502593Y-115989549D01*
X201926472Y-118602788D02*
X201986235Y-118419852D01*
X191779880Y-116335146D02*
X191573960Y-116308671D01*
X191511709Y-116285820D01*
X200306279Y-114848371D02*
X200405280Y-115027238D01*
X200434070Y-115100248D01*
X196560435Y-120490174D02*
X196528794Y-120494850D01*
X200488450Y-116553140D02*
X200819285Y-116552266D01*
X191165279Y-115601573D02*
X192768406Y-115597340D01*
X208137617Y-114641858D02*
X208030082Y-114521652D01*
X192053555Y-119436545D02*
X191913552Y-119395049D01*
X215613223Y-113513202D02*
X215298723Y-113514033D01*
X191591653Y-120072893D02*
X191238350Y-120073825D01*
X197332041Y-120743922D02*
X197328720Y-119485928D01*
X208127510Y-116228684D02*
X208128425Y-116432937D01*
X208113714Y-116611125D01*
X203052666Y-114702252D02*
X202916771Y-114549664D01*
X202911850Y-114545373D01*
X185578266Y-115203793D02*
X185647382Y-115015855D01*
X185692392Y-114919624D01*
X206431814Y-117912371D02*
X206231704Y-117837385D01*
X206024423Y-117805139D01*
X205942398Y-117796745D01*
X184738062Y-121649193D02*
X184735113Y-120532111D01*
X192377069Y-115888367D02*
X192322290Y-116024830D01*
X186986171Y-119382530D02*
X187055285Y-119194591D01*
X187100294Y-119098361D01*
X202504869Y-116259354D02*
X202305138Y-116302619D01*
X202246145Y-116307518D01*
X196411128Y-120791794D02*
X196464214Y-120787058D01*
X192546030Y-118584664D02*
X192341541Y-118529767D01*
X192134535Y-118513919D01*
X192120552Y-118513288D01*
X200237792Y-114433983D02*
X200047656Y-114354839D01*
%LPC*%
D11*
G04 #@! TO.C,S3*
X117475000Y-109220000D03*
X231775000Y-109220000D03*
G04 #@! TD*
D12*
G04 #@! TO.C,SW15*
X293370000Y-41275000D03*
D11*
X298450000Y-41275000D03*
D12*
X303530000Y-41275000D03*
G04 #@! TD*
G04 #@! TO.C,SW22*
X140970000Y-60325000D03*
D11*
X146050000Y-60325000D03*
D12*
X151130000Y-60325000D03*
G04 #@! TD*
D13*
G04 #@! TO.C,S1*
X286543750Y-34290000D03*
D11*
X286543750Y-49530000D03*
D13*
X310356250Y-34290000D03*
D11*
X310356250Y-49530000D03*
G04 #@! TD*
D12*
G04 #@! TO.C,SW55*
X302895000Y-98425000D03*
D11*
X307975000Y-98425000D03*
D12*
X313055000Y-98425000D03*
G04 #@! TD*
G04 #@! TO.C,SW29*
X274320000Y-60325000D03*
D11*
X279400000Y-60325000D03*
D12*
X284480000Y-60325000D03*
G04 #@! TD*
G04 #@! TO.C,SW33*
X107632500Y-79375000D03*
D11*
X112712500Y-79375000D03*
D12*
X117792500Y-79375000D03*
G04 #@! TD*
G04 #@! TO.C,SW25*
X198120000Y-60325000D03*
D11*
X203200000Y-60325000D03*
D12*
X208280000Y-60325000D03*
G04 #@! TD*
G04 #@! TO.C,SW53*
X250507500Y-98425000D03*
D11*
X255587500Y-98425000D03*
D12*
X260667500Y-98425000D03*
G04 #@! TD*
G04 #@! TO.C,SW17*
X40957500Y-60325000D03*
D11*
X46037500Y-60325000D03*
D12*
X51117500Y-60325000D03*
G04 #@! TD*
G04 #@! TO.C,SW41*
X260032500Y-79375000D03*
D11*
X265112500Y-79375000D03*
D12*
X270192500Y-79375000D03*
G04 #@! TD*
D13*
G04 #@! TO.C,S2*
X284162500Y-72390000D03*
D11*
X284162500Y-87630000D03*
D13*
X307975000Y-72390000D03*
D11*
X307975000Y-87630000D03*
G04 #@! TD*
D12*
G04 #@! TO.C,SW36*
X164782500Y-79375000D03*
D11*
X169862500Y-79375000D03*
D12*
X174942500Y-79375000D03*
G04 #@! TD*
G04 #@! TO.C,SW47*
X136207500Y-98425000D03*
D11*
X141287500Y-98425000D03*
D12*
X146367500Y-98425000D03*
G04 #@! TD*
G04 #@! TO.C,SW11*
X207645000Y-41275000D03*
D11*
X212725000Y-41275000D03*
D12*
X217805000Y-41275000D03*
G04 #@! TD*
G04 #@! TO.C,SW45*
X98107500Y-98425000D03*
D11*
X103187500Y-98425000D03*
D12*
X108267500Y-98425000D03*
G04 #@! TD*
G04 #@! TO.C,SW57*
X88582500Y-117475000D03*
D11*
X93662500Y-117475000D03*
D12*
X98742500Y-117475000D03*
G04 #@! TD*
G04 #@! TO.C,SW56*
X40957500Y-117475000D03*
D11*
X46037500Y-117475000D03*
D12*
X51117500Y-117475000D03*
G04 #@! TD*
G04 #@! TO.C,SW24*
X179070000Y-60325000D03*
D11*
X184150000Y-60325000D03*
D12*
X189230000Y-60325000D03*
G04 #@! TD*
G04 #@! TO.C,SW59*
X250507500Y-117475000D03*
D11*
X255587500Y-117475000D03*
D12*
X260667500Y-117475000D03*
G04 #@! TD*
G04 #@! TO.C,SW7*
X131445000Y-41275000D03*
D11*
X136525000Y-41275000D03*
D12*
X141605000Y-41275000D03*
G04 #@! TD*
G04 #@! TO.C,SW20*
X102870000Y-60325000D03*
D11*
X107950000Y-60325000D03*
D12*
X113030000Y-60325000D03*
G04 #@! TD*
G04 #@! TO.C,SW2*
X36195000Y-41275000D03*
D11*
X41275000Y-41275000D03*
D12*
X46355000Y-41275000D03*
G04 #@! TD*
G04 #@! TO.C,SW31*
X69532500Y-79375000D03*
D11*
X74612500Y-79375000D03*
D12*
X79692500Y-79375000D03*
G04 #@! TD*
G04 #@! TO.C,SW27*
X236220000Y-60325000D03*
D11*
X241300000Y-60325000D03*
D12*
X246380000Y-60325000D03*
G04 #@! TD*
G04 #@! TO.C,SW32*
X88582500Y-79375000D03*
D11*
X93662500Y-79375000D03*
D12*
X98742500Y-79375000D03*
G04 #@! TD*
G04 #@! TO.C,SW34*
X126682500Y-79375000D03*
D11*
X131762500Y-79375000D03*
D12*
X136842500Y-79375000D03*
G04 #@! TD*
G04 #@! TO.C,SW37*
X183832500Y-79375000D03*
D11*
X188912500Y-79375000D03*
D12*
X193992500Y-79375000D03*
G04 #@! TD*
G04 #@! TO.C,SW10*
X188595000Y-41275000D03*
D11*
X193675000Y-41275000D03*
D12*
X198755000Y-41275000D03*
G04 #@! TD*
G04 #@! TO.C,SW21*
X121920000Y-60325000D03*
D11*
X127000000Y-60325000D03*
D12*
X132080000Y-60325000D03*
G04 #@! TD*
G04 #@! TO.C,SW3*
X55245000Y-41275000D03*
D11*
X60325000Y-41275000D03*
D12*
X65405000Y-41275000D03*
G04 #@! TD*
G04 #@! TO.C,SW38*
X202882500Y-79375000D03*
D11*
X207962500Y-79375000D03*
D12*
X213042500Y-79375000D03*
G04 #@! TD*
G04 #@! TO.C,SW50*
X193357500Y-98425000D03*
D11*
X198437500Y-98425000D03*
D12*
X203517500Y-98425000D03*
G04 #@! TD*
G04 #@! TO.C,SW52*
X231457500Y-98425000D03*
D11*
X236537500Y-98425000D03*
D12*
X241617500Y-98425000D03*
G04 #@! TD*
G04 #@! TO.C,SW13*
X245745000Y-41275000D03*
D11*
X250825000Y-41275000D03*
D12*
X255905000Y-41275000D03*
G04 #@! TD*
G04 #@! TO.C,SW35*
X145732500Y-79375000D03*
D11*
X150812500Y-79375000D03*
D12*
X155892500Y-79375000D03*
G04 #@! TD*
G04 #@! TO.C,SW39*
X221932500Y-79375000D03*
D11*
X227012500Y-79375000D03*
D12*
X232092500Y-79375000D03*
G04 #@! TD*
G04 #@! TO.C,SW23*
X160020000Y-60325000D03*
D11*
X165100000Y-60325000D03*
D12*
X170180000Y-60325000D03*
G04 #@! TD*
G04 #@! TO.C,SW51*
X212407500Y-98425000D03*
D11*
X217487500Y-98425000D03*
D12*
X222567500Y-98425000D03*
G04 #@! TD*
G04 #@! TO.C,SW43*
X48101250Y-98425000D03*
D11*
X53181250Y-98425000D03*
D12*
X58261250Y-98425000D03*
G04 #@! TD*
G04 #@! TO.C,SW61*
X302895000Y-41275000D03*
D11*
X307975000Y-41275000D03*
D12*
X313055000Y-41275000D03*
G04 #@! TD*
G04 #@! TO.C,SW44*
X79057500Y-98425000D03*
D11*
X84137500Y-98425000D03*
D12*
X89217500Y-98425000D03*
G04 #@! TD*
G04 #@! TO.C,SW58*
X169545000Y-117475000D03*
D11*
X174625000Y-117475000D03*
D12*
X179705000Y-117475000D03*
G04 #@! TD*
G04 #@! TO.C,SW18*
X64770000Y-60325000D03*
D11*
X69850000Y-60325000D03*
D12*
X74930000Y-60325000D03*
G04 #@! TD*
G04 #@! TO.C,SW5*
X93345000Y-41275000D03*
D11*
X98425000Y-41275000D03*
D12*
X103505000Y-41275000D03*
G04 #@! TD*
G04 #@! TO.C,SW6*
X112395000Y-41275000D03*
D11*
X117475000Y-41275000D03*
D12*
X122555000Y-41275000D03*
G04 #@! TD*
G04 #@! TO.C,SW28*
X255270000Y-60325000D03*
D11*
X260350000Y-60325000D03*
D12*
X265430000Y-60325000D03*
G04 #@! TD*
G04 #@! TO.C,SW48*
X155257500Y-98425000D03*
D11*
X160337500Y-98425000D03*
D12*
X165417500Y-98425000D03*
G04 #@! TD*
G04 #@! TO.C,SW60*
X298132500Y-117475000D03*
D11*
X303212500Y-117475000D03*
D12*
X308292500Y-117475000D03*
G04 #@! TD*
G04 #@! TO.C,SW49*
X174307500Y-98425000D03*
D11*
X179387500Y-98425000D03*
D12*
X184467500Y-98425000D03*
G04 #@! TD*
G04 #@! TO.C,SW30*
X38576250Y-79375000D03*
D11*
X43656250Y-79375000D03*
D12*
X48736250Y-79375000D03*
G04 #@! TD*
G04 #@! TO.C,SW26*
X217170000Y-60325000D03*
D11*
X222250000Y-60325000D03*
D12*
X227330000Y-60325000D03*
G04 #@! TD*
G04 #@! TO.C,SW62*
X298132500Y-60325000D03*
D11*
X303212500Y-60325000D03*
D12*
X308292500Y-60325000D03*
G04 #@! TD*
G04 #@! TO.C,SW16*
X283845000Y-41275000D03*
D11*
X288925000Y-41275000D03*
D12*
X294005000Y-41275000D03*
G04 #@! TD*
G04 #@! TO.C,SW14*
X264795000Y-41275000D03*
D11*
X269875000Y-41275000D03*
D12*
X274955000Y-41275000D03*
G04 #@! TD*
G04 #@! TO.C,SW46*
X117157500Y-98425000D03*
D11*
X122237500Y-98425000D03*
D12*
X127317500Y-98425000D03*
G04 #@! TD*
G04 #@! TO.C,SW40*
X240982500Y-79375000D03*
D11*
X246062500Y-79375000D03*
D12*
X251142500Y-79375000D03*
G04 #@! TD*
D13*
G04 #@! TO.C,S4*
X41275000Y-91440000D03*
D11*
X41275000Y-106680000D03*
D13*
X65087500Y-91440000D03*
D11*
X65087500Y-106680000D03*
G04 #@! TD*
D12*
G04 #@! TO.C,SW12*
X226695000Y-41275000D03*
D11*
X231775000Y-41275000D03*
D12*
X236855000Y-41275000D03*
G04 #@! TD*
G04 #@! TO.C,SW9*
X169545000Y-41275000D03*
D11*
X174625000Y-41275000D03*
D12*
X179705000Y-41275000D03*
G04 #@! TD*
G04 #@! TO.C,SW19*
X83820000Y-60325000D03*
D11*
X88900000Y-60325000D03*
D12*
X93980000Y-60325000D03*
G04 #@! TD*
G04 #@! TO.C,SW42*
X290988750Y-79375000D03*
D11*
X296068750Y-79375000D03*
D12*
X301148750Y-79375000D03*
G04 #@! TD*
G04 #@! TO.C,SW4*
X74295000Y-41275000D03*
D11*
X79375000Y-41275000D03*
D12*
X84455000Y-41275000D03*
G04 #@! TD*
G04 #@! TO.C,SW8*
X150495000Y-41275000D03*
D11*
X155575000Y-41275000D03*
D12*
X160655000Y-41275000D03*
G04 #@! TD*
G04 #@! TO.C,SW54*
X276701250Y-98425000D03*
D11*
X281781250Y-98425000D03*
D12*
X286861250Y-98425000D03*
G04 #@! TD*
D14*
G04 #@! TO.C,J2*
X39919999Y-69341999D03*
D15*
X42459999Y-69341999D03*
X44999999Y-69341999D03*
X47539999Y-69341999D03*
X50079999Y-69341999D03*
G04 #@! TD*
D14*
G04 #@! TO.C,SW1*
X88336249Y-69874999D03*
D15*
X85796249Y-69874999D03*
G04 #@! TD*
M02*
