0
SECTION
2
HEADER
9
$INSUNITS
70
4
9
$ACADVER
1
AC1014
9
$HANDSEED
5
FFFF
0
ENDSEC
0
SECTION
2
TABLES
0
TABLE
2
VPORT
5
8
100
AcDbSymbolTable
0
ENDTAB
0
TABLE
2
LTYPE
5
5
100
AcDbSymbolTable
0
LTYPE
5
14
100
AcDbSymbolTableRecord
100
AcDbLinetypeTableRecord
2
BYBLOCK
70
0
0
LTYPE
5
15
100
AcDbSymbolTableRecord
100
AcDbLinetypeTableRecord
2
BYLAYER
70
0
0
ENDTAB
0
TABLE
2
LAYER
5
2
100
AcDbSymbolTable
70
2
0
LAYER
5
50
100
AcDbSymbolTableRecord
100
AcDbLayerTableRecord
2
0
70
0
6
CONTINUOUS
0
ENDTAB
0
TABLE
2
STYLE
5
3
100
AcDbSymbolTable
70
1
0
STYLE
5
11
100
AcDbSymbolTableRecord
100
AcDbTextStyleTableRecord
2
STANDARD
70
0
0
ENDTAB
0
TABLE
2
VIEW
5
6
100
AcDbSymbolTable
70
0
0
ENDTAB
0
TABLE
2
UCS
5
7
100
AcDbSymbolTable
70
0
0
ENDTAB
0
TABLE
2
APPID
5
9
100
AcDbSymbolTable
70
2
0
APPID
5
12
100
AcDbSymbolTableRecord
100
AcDbRegAppTableRecord
2
ACAD
70
0
0
ENDTAB
0
TABLE
2
DIMSTYLE
5
A
100
AcDbSymbolTable
70
1
0
ENDTAB
0
TABLE
2
BLOCK_RECORD
5
1
100
AcDbSymbolTable
70
1
0
BLOCK_RECORD
5
1F
100
AcDbSymbolTableRecord
100
AcDbBlockTableRecord
2
*MODEL_SPACE
0
BLOCK_RECORD
5
1B
100
AcDbSymbolTableRecord
100
AcDbBlockTableRecord
2
*PAPER_SPACE
0
ENDTAB
0
ENDSEC
0
SECTION
2
BLOCKS
0
BLOCK
5
20
100
AcDbEntity
100
AcDbBlockBegin
2
*MODEL_SPACE
0
ENDBLK
5
21
100
AcDbEntity
100
AcDbBlockEnd
0
BLOCK
5
1C
100
AcDbEntity
100
AcDbBlockBegin
2
*PAPER_SPACE
0
ENDBLK
5
1D
100
AcDbEntity
100
AcDbBlockEnd
0
ENDSEC
0
SECTION
2
ENTITIES
0
LINE
5
100
100
AcDbEntity
8
0
100
AcDbLine
10
39.33448210884626
20
120.58796445544758
30
2.205560178936139e-09
11
39.3340864665997
21
165.13795945285943
31
3.0203795020611324e-09
0
ELLIPSE
5
101
100
AcDbEntity
8
0
100
AcDbEllipse
10
41.85232520865118
20
165.13798156877129
30
3.0203817225071816e-09
11
-2.5182387421441126
21
-5.1663883239072336e-06
31
0.0
40
0.99275734192944554
41
4.7123957601941466
42
6.283192086988997
0
LINE
5
102
100
AcDbEntity
8
0
100
AcDbLine
10
41.852303006502403
20
167.63798156867358
30
3.0661073679993933e-09
11
60.792590119748212
21
167.63814790783607
31
3.0661106986684672e-09
0
ELLIPSE
5
103
100
AcDbEntity
8
0
100
AcDbEllipse
10
60.792612321896975
20
165.13814790793302
30
3.0203839429532309e-09
11
2.5182387421441117
21
5.1663882506325114e-06
31
0.0
40
0.99275734192944565
41
6.7798094392466119e-06
42
1.5708031066043751
0
LINE
5
104
100
AcDbEntity
8
0
100
AcDbLine
10
63.310851063948434
20
165.13817002384485
30
3.0203839429532309e-09
11
63.311246706194915
21
120.58817502643301
31
2.2055623993821882e-09
0
ELLIPSE
5
105
100
AcDbEntity
8
0
100
AcDbEllipse
10
60.793007964143435
20
120.58815291052115
30
2.2055623993821882e-09
11
2.5182387421441121
21
5.166388334038017e-06
31
0.0
40
0.99275734192944554
41
4.7123957601941395
42
6.283192086988997
0
LINE
5
106
100
AcDbEntity
8
0
100
AcDbLine
10
60.793030166292198
20
118.08815291061889
30
2.1598367538899765e-09
11
41.852743053046488
21
118.08798657145742
31
2.1598334232209027e-09
0
ELLIPSE
5
107
100
AcDbEntity
8
0
100
AcDbEllipse
10
41.85272085089774
20
120.58798657135947
30
2.2055579584900897e-09
11
-2.5182387421441121
21
-5.1663882602081858e-06
31
0.0
40
0.99275734192944554
41
6.77980945345737e-06
42
1.5708031066043644
0
SPLINE
5
108
100
AcDbEntity
8
0
100
AcDbSpline
70
0
71
3
72
16
73
12
74
0
42
0.000000001
43
0.0000000001
44
0.0000000001
40
0
40
0
40
0
40
0
40
0.09875486874296506
40
0.09875486874296506
40
0.19718275954393966
40
0.19718275954393966
40
0.29488047152333124
40
0.29488047152333124
40
0.34503983285750978
40
0.34503983285750978
40
0.39518961847061201
40
0.39518961847061201
40
0.39518961847061201
40
0.39518961847061201
10
34.717688171046611
20
99.842404061043837
30
1.8261214762560485e-09
10
35.046871066794473
20
99.842410450932107
30
1.8261214762560485e-09
10
35.373047504151891
20
99.906495231039983
30
1.8272905411009788e-09
10
35.981296447189919
20
100.15550637060056
30
1.8318446759479912e-09
10
36.257883683661284
20
100.33773192244644
30
1.8351820063600144e-09
10
36.72350053945631
20
100.79649494825574
30
1.8435741822031559e-09
10
36.908719617887286
20
101.06795556661578
30
1.848537989346255e-09
10
37.102068387429341
20
101.52116528814301
30
1.8568280246711311e-09
10
37.152007456385554
20
101.68111330559793
30
1.8597523521179937e-09
10
37.218997830043314
20
102.00860651106464
30
1.8657408951128218e-09
10
37.235877689526681
20
102.17528244706054
30
1.8687906777614671e-09
10
37.235877749198025
20
102.34240324891658
30
1.8718482319712848e-09
0
SPLINE
5
109
100
AcDbEntity
8
0
100
AcDbSpline
70
0
71
3
72
16
73
12
74
0
42
0.000000001
43
0.0000000001
44
0.0000000001
40
0
40
0
40
0
40
0
40
0.096676162384729633
40
0.096676162384729633
40
0.19369876480270692
40
0.19369876480270692
40
0.29145891741814967
40
0.29145891741814967
40
0.34326508955954338
40
0.34326508955954338
40
0.3950855738535195
40
0.3950855738535195
40
0.3950855738535195
40
0.3950855738535195
10
32.199427228814933
20
102.34240487186354
30
1.8718493421943094e-09
10
32.199427113847577
20
102.02015099724778
30
1.8659551681565745e-09
10
32.262186681686963
20
101.70108926586084
30
1.86011872571612e-09
10
32.506392259405658
20
101.10336103685219
30
1.8491863595926361e-09
10
32.68585682367749
20
100.83071014073465
30
1.8441992377660199e-09
10
33.140228965512165
20
100.36678370138313
30
1.8357126929657852e-09
10
33.411496486059477
20
100.18057686062198
30
1.8322943162729644e-09
10
33.869091853236327
20
99.982364188658792
30
1.8286694380975632e-09
10
34.03422616653021
20
99.930128127546169
30
1.8277257485266318e-09
10
34.372558427293612
20
99.860054440250835
30
1.8264434409331898e-09
10
34.544907335244027
20
99.842402543775464
30
1.8261225864790731e-09
10
34.717688171046611
20
99.842404061043837
30
1.8261214762560485e-09
0
LINE
5
110
100
AcDbEntity
8
0
100
AcDbLine
10
32.199427228814933
20
102.34240487186354
30
1.8718493421943094e-09
11
32.199437474643332
21
131.06149462079532
31
2.3971202800510127e-09
0
SPLINE
5
111
100
AcDbEntity
8
0
100
AcDbSpline
70
0
71
3
72
16
73
12
74
0
42
0.000000001
43
0.0000000001
44
0.0000000001
40
-0.32180193215012692
40
-0.32180193215012692
40
-0.32180193215012692
40
-0.32180193215012692
40
-0.28280644031520574
40
-0.28280644031520574
40
-0.24383494271375633
40
-0.24383494271375633
40
-0.17479993468386612
40
-0.17479993468386612
40
-0.093172876793900933
40
-0.093172876793900933
40
-0
40
-0
40
-0
40
-0
10
29.681199619233901
20
133.56149543166094
30
2.4428470357662491e-09
10
29.861124580423393
20
133.56149537409152
30
2.4428481459892737e-09
10
30.040708550582117
20
133.54100604263022
30
2.4424717803839258e-09
10
30.391797369312247
20
133.46262779289017
30
2.4410373722361101e-09
10
30.563163005140858
20
133.4047940912352
30
2.4399804399166669e-09
10
31.016556340334269
20
133.19798999680805
30
2.4361990202947936e-09
10
31.282784071852909
20
133.01276104806644
30
2.4328117298466623e-09
10
31.766650099989157
20
132.5139377180563
30
2.4236890272533174e-09
10
31.925930856272309
20
132.22492167180454
30
2.4184010349870277e-09
10
32.138923042931978
20
131.68252191027574
30
2.4084800820389773e-09
10
32.199437585444599
20
131.37207087677416
30
2.4028046219370935e-09
10
32.199437474643361
20
131.06149462079452
30
2.3971236107200866e-09
0
LINE
5
112
100
AcDbEntity
8
0
100
AcDbLine
10
29.681199619233901
20
133.56149543166094
30
2.4428470357662491e-09
11
13.685255853625165
21
133.56150054977007
31
2.4428459255432244e-09
0
ELLIPSE
5
113
100
AcDbEntity
8
0
100
AcDbEllipse
10
13.685256740364913
20
136.06150054977005
30
2.4885726812584608e-09
11
-2.5182387421441104
21
-5.1669852861091224e-06
31
0.0
40
0.99275734192944542
41
6.2831829180882721
42
7.8539792448831598
0
LINE
5
114
100
AcDbEntity
8
0
100
AcDbLine
10
11.167017998215734
20
136.06150135551306
30
2.4885715710354361e-09
11
11.167022822067118
21
149.66146520943215
31
2.7373148192566532e-09
0
ELLIPSE
5
115
100
AcDbEntity
8
0
100
AcDbEllipse
10
13.685261564216294
20
149.66146440368914
30
2.7373159294796778e-09
11
-2.5182387421441104
21
-5.1669853534163933e-06
31
0.0
40
0.99275734192944542
41
4.7123889793989555
42
6.2831829180882437
0
LINE
5
116
100
AcDbEntity
8
0
100
AcDbLine
10
13.685256437135964
20
152.16146440368388
30
2.7830404647488649e-09
11
34.717650775498711
21
152.161507537896
31
2.7830415749718895e-09
0
ELLIPSE
5
117
100
AcDbEntity
8
0
100
AcDbEllipse
10
34.717655902579025
20
149.66150753790038
30
2.7373159294796778e-09
11
2.518238742144121
21
5.1669853203872829e-06
31
0.0
40
0.99275734192944143
41
6.2831829157464583
42
7.8539816329887557
0
LINE
5
118
100
AcDbEntity
8
0
100
AcDbLine
10
37.235894644728219
20
149.66150672630289
30
2.7373170397027025e-09
11
37.235877749198025
21
102.34240324891658
31
1.8718471217482602e-09
0
ARC
5
119
100
AcDbEntity
8
0
100
AcDbCircle
10
11.069158083203675
20
253.04724142821325
30
4.9462827546174025e-09
40
4
210
6.899560176185344e-12
220
1.8271105785531335e-13
230
1
100
AcDbArc
50
181.51692660688335
51
227.63169867589153
0
ARC
5
120
100
AcDbEntity
8
0
100
AcDbCircle
10
5.678008189197171
20
247.13661516525656
30
5.6778398502835036e-09
40
3.9999999999999765
210
-3.2199611996710295e-12
220
3.5301987181936119e-12
230
1
100
AcDbArc
50
-47.631463666330731
51
47.63169867597945
0
ARC
5
121
100
AcDbEntity
8
0
100
AcDbCircle
10
11.069182326718551
20
241.22601101517841
30
4.0080875851379235e-09
40
4.00000000000004
210
3.2186518921779831e-12
220
-3.5287632612698591e-12
230
1
100
AcDbArc
50
132.36853633358066
51
180.00011750481451
0
LINE
5
122
100
AcDbEntity
8
0
100
AcDbLine
10
7.0691823267269607
20
241.22600281180172
30
4.8037807065526295e-09
11
7.0692742676984963
21
196.39523406272079
31
3.5920788565846351e-09
0
ARC
5
123
100
AcDbEntity
8
0
100
AcDbCircle
10
11.069274267690091
20
196.395242266102
30
1.4153991927446992e-09
40
4.0000000000000053
210
-3.0788954719020593e-10
220
-6.3143383016877964e-16
230
1
100
AcDbArc
50
180.00011750481451
51
227.63103370417105
0
ARC
5
124
100
AcDbEntity
8
0
100
AcDbCircle
10
5.6780572261573727
20
190.48468016318847
30
2.8117977295934744e-09
40
3.9999978475816178
210
9.9029849935627386e-12
220
-1.0856866856904389e-11
230
1
100
AcDbArc
50
-47.63079869460983
51
47.631033704257909
0
ARC
5
125
100
AcDbEntity
8
0
100
AcDbCircle
10
11.069298510941781
20
184.57414017342893
30
6.7176533499478898e-09
40
4.000000000000008
210
-9.9016703405569424e-12
220
1.0855425573056874e-11
230
1
100
AcDbArc
50
132.36920130530171
51
180.00011750481451
0
LINE
5
126
100
AcDbEntity
8
0
100
AcDbLine
10
7.0692985109501905
20
184.57413197005235
30
4.8037218647323243e-09
11
7.0694696116043207
21
101.14479899033316
31
1.8499435316954305e-09
0
ARC
5
127
100
AcDbEntity
8
0
100
AcDbCircle
10
11.069469611595915
20
101.14480719371429
30
-3.4062160309584473e-09
40
4.0000000000000053
210
-7.4347944467433404e-10
220
-1.5247613100882667e-15
230
1
100
AcDbArc
50
180.00011750481451
51
227.63125853630726
0
ARC
5
128
100
AcDbEntity
8
0
100
AcDbCircle
10
5.678274312997539
20
95.23422234512465
30
5.1417600119925508e-09
40
4.0000000000003979
210
-3.2198012726548077e-12
220
3.5299689188782059e-12
230
1
100
AcDbArc
50
-47.631023526731347
51
47.631258536396416
0
ARC
5
129
100
AcDbEntity
8
0
100
AcDbCircle
10
11.069493854942516
20
89.323659609601293
30
4.5443050508781793e-09
40
4.000000000000016
210
3.2186789996372256e-12
220
-3.5287385358515015e-12
230
1
100
AcDbArc
50
132.36897647317977
51
180.00011750481451
0
LINE
5
130
100
AcDbEntity
8
0
100
AcDbLine
10
7.0694938549509292
20
89.323651406224684
30
4.8039672240207665e-09
11
7.0695868094433578
21
43.998685998724511
31
8.0473738783837234e-10
0
ARC
5
131
100
AcDbEntity
8
0
100
AcDbCircle
10
11.069586809434952
20
43.998694202105717
30
-6.2988652278595132e-09
40
4.0000000000000071
210
-1.0047987442064422e-09
220
-2.0606867844882187e-15
230
1
100
AcDbArc
50
180.00011750481451
51
227.6306953633179
0
ARC
5
132
100
AcDbEntity
8
0
100
AcDbCircle
10
5.678333414744432
20
38.088162345175583
30
4.9401101857635445e-09
40
3.9999999998467581
210
-3.2200230169910935e-12
220
3.5301423326998179e-12
230
1
100
AcDbArc
50
-47.630460353757456
51
47.630695363406105
0
ARC
5
133
100
AcDbEntity
8
0
100
AcDbCircle
10
11.069611052562603
20
32.177652601548566
30
4.7460357293017116e-09
40
4.0000000000000027
210
3.2185266367208743e-12
220
-3.5285018365683204e-12
230
1
100
AcDbArc
50
132.36953964615466
51
180.00011750481451
0
LINE
5
134
100
AcDbEntity
8
0
100
AcDbLine
10
7.0696110525710125
20
32.177644398171907
30
4.8040360578482932e-09
11
7.069664718099097
21
6.0094751254282608
31
1.0991318966091512e-10
0
ARC
5
135
100
AcDbEntity
8
0
100
AcDbCircle
10
11.069664719426072
20
6.0094833288094023
30
1.0982215137289586e-10
40
4.0000000013353869
210
2.2759571997169643e-14
220
4.6676360909489379e-20
230
1
100
AcDbArc
50
180.00011750481451
51
270.00000402405743
0
LINE
5
136
100
AcDbEntity
8
0
100
AcDbLine
10
11.069665000358276
20
2.0094833288094112
30
3.6660674496147294e-11
11
88.610173326499918
21
2.0094887854219063
31
3.6752823007191182e-11
0
ARC
5
137
100
AcDbEntity
8
0
100
AcDbCircle
10
88.610173045015429
20
6.0094887854218557
30
-1.9573610428522118e-12
40
3.9999999999999596
210
1.3556122171031545e-18
220
-1.9263757256027393e-11
230
1
100
AcDbArc
50
-89.999995968031683
51
9.0080200462284093e-05
0
LINE
5
138
100
AcDbEntity
8
0
100
AcDbLine
10
92.610173045010498
20
6.0094950742997124
30
1.1387224496672843e-10
11
92.609742728558217
21
279.70948550052566
31
5.115899925911549e-09
0
ARC
5
139
100
AcDbEntity
8
0
100
AcDbCircle
10
88.609742728563162
20
279.70947921164782
30
5.1157145186664366e-09
40
4.0000000000000089
210
-4.6351811278042894e-14
220
-7.2875219551521007e-20
230
1
100
AcDbArc
50
9.0080200462284093e-05
51
90.000004000322349
0
LINE
5
140
100
AcDbEntity
8
0
100
AcDbLine
10
88.609742449287978
20
283.70947921164782
30
5.1888560115287419e-09
11
11.069103121055468
21
283.70947382291087
31
5.1890602925652729e-09
0
ARC
5
141
100
AcDbEntity
8
0
100
AcDbCircle
10
11.069103403091418
20
279.70947382339955
30
-2.295586521116864e-12
40
3.9999999995113198
210
1.2901833805563997e-18
220
-1.8298140782594957e-11
230
1
100
AcDbArc
50
90.000004039867406
51
169.98915297412651
0
ELLIPSE
5
142
100
AcDbEntity
8
0
100
AcDbEllipse
10
6.2838229606479405
20
278.59263742391948
30
5.0954729324814707e-09
11
1.9999482904981003
21
-0.014381770882199234
31
0.0
40
0.99999999999999978
41
1.141133841309609
42
5.1230838297252577
0
LINE
5
143
100
AcDbEntity
8
0
100
AcDbLine
10
7.0691094658272213
20
276.75325570584596
30
5.0618298441662546e-09
11
7.0691507569948193
21
256.6195247311083
31
4.6935855202434595e-09
0
ELLIPSE
5
144
100
AcDbEntity
8
0
100
AcDbEllipse
10
6.2838773432017554
20
254.78013742398954
30
4.6599413217052188e-09
11
-0.014381770882199219
21
-1.9999482904980983
31
0.0
40
1
41
2.745286816342972
42
6.6946392534963559
0
LWPOLYLINE
5
145
100
AcDbEntity
8
0
100
AcDbPolyline
90
4
70
1
43
0.0
10
83.116094782047568
20
145.0214268217855
10
83.000001236796464
20
189.00000281631964
10
74.883907572335957
20
188.97857815520254
10
75.00000111758709
20
145.00000216066837
0
LINE
5
146
100
AcDbEntity
8
0
100
AcDbLine
10
75.422891268272849
20
145.71589301756521
30
0
11
75.423861638375797
21
145.34829725482811
31
0
0
LINE
5
147
100
AcDbEntity
8
0
100
AcDbLine
10
75.423861638375797
20
145.34829725482811
30
0
11
74.999084358905264
21
145.34717593838707
31
0
0
LINE
5
148
100
AcDbEntity
8
0
100
AcDbLine
10
74.99908435890525
20
145.3471759383871
30
0
11
74.998113988802302
21
145.71477170112419
31
0
0
LINE
5
149
100
AcDbEntity
8
0
100
AcDbLine
10
74.998113988802302
20
145.71477170112419
30
0
11
75.422891268272849
21
145.71589301756524
31
0
0
SPLINE
5
150
100
AcDbEntity
8
0
100
AcDbSpline
70
0
71
2
72
6
73
3
74
0
42
0.000000001
43
0.0000000001
44
0.0000000001
40
0
40
0
40
0
40
1
40
1
40
1
10
78.553426625376673
20
145.00938239981585
30
0
10
78.544605532888312
20
145.2564668904262
30
0
10
78.507716603742978
20
145.30538261937599
30
0
0
SPLINE
5
151
100
AcDbEntity
8
0
100
AcDbSpline
70
0
71
2
72
6
73
3
74
0
42
0.000000001
43
0.0000000001
44
0.0000000001
40
0
40
0
40
0
40
1
40
1
40
1
10
78.507716603742978
20
145.30538261937599
30
0
10
78.472864331672113
20
145.35634593589927
30
0
10
78.284982205262253
20
145.35584996935987
30
0
0
LINE
5
152
100
AcDbEntity
8
0
100
AcDbLine
10
78.284982205262253
20
145.35584996935987
30
0
11
75.822090654528012
21
145.34934848982746
31
0
0
LINE
5
153
100
AcDbEntity
8
0
100
AcDbLine
10
75.822090654528012
20
145.34934848982746
30
0
11
75.821120284425064
21
145.71694425256456
31
0
0
LINE
5
154
100
AcDbEntity
8
0
100
AcDbLine
10
75.821120284425064
20
145.71694425256456
30
0
11
78.322813429645905
21
145.7235481595759
31
0
0
SPLINE
5
155
100
AcDbEntity
8
0
100
AcDbSpline
70
0
71
2
72
6
73
3
74
0
42
0.000000001
43
0.0000000001
44
0.0000000001
40
0
40
0
40
0
40
1
40
1
40
1
10
78.322813429645905
20
145.7235481595759
30
0
10
78.56175063072169
20
145.72417890002481
30
0
10
78.680403212106015
20
145.64688805112081
30
0
0
SPLINE
5
156
100
AcDbEntity
8
0
100
AcDbSpline
70
0
71
2
72
6
73
3
74
0
42
0.000000001
43
0.0000000001
44
0.0000000001
40
0
40
0
40
0
40
1
40
1
40
1
10
78.680403212106015
20
145.64688805112081
30
0
10
78.880878448250925
20
145.51875783968228
30
0
10
78.881827254628163
20
145.15933085108014
30
0
0
SPLINE
5
157
100
AcDbEntity
8
0
100
AcDbSpline
70
0
71
2
72
6
73
3
74
0
42
0.000000001
43
0.0000000001
44
0.0000000001
40
0
40
0
40
0
40
1
40
1
40
1
10
78.881827254628163
20
145.15933085108014
30
0
10
78.881897336918016
20
145.13278226645664
30
0
10
78.879935855058022
20
145.10214389411846
30
0
0
SPLINE
5
158
100
AcDbEntity
8
0
100
AcDbSpline
70
0
71
2
72
6
73
3
74
0
42
0.000000001
43
0.0000000001
44
0.0000000001
40
0
40
0
40
0
40
1
40
1
40
1
10
78.879935855058022
20
145.10214389411846
30
0
10
78.877968982254316
20
145.07354771997061
30
0
10
78.87200965948513
20
145.01022338734327
30
0
0
LINE
5
159
100
AcDbEntity
8
0
100
AcDbLine
10
78.87200965948513
20
145.01022338734327
30
0
11
78.553426625376673
21
145.00938239981582
31
0
0
SPLINE
5
160
100
AcDbEntity
8
0
100
AcDbSpline
70
0
71
2
72
6
73
3
74
0
42
0.000000001
43
0.0000000001
44
0.0000000001
40
0
40
0
40
0
40
1
40
1
40
1
10
77.757435139007043
20
147.1516046856373
30
0
10
77.756470159844739
20
147.51715825134821
30
0
10
77.480417610214829
20
147.65121547769647
30
0
0
SPLINE
5
161
100
AcDbEntity
8
0
100
AcDbSpline
70
0
71
2
72
6
73
3
74
0
42
0.000000001
43
0.0000000001
44
0.0000000001
40
0
40
0
40
0
40
1
40
1
40
1
10
77.480417610214829
20
147.65121547769647
30
0
10
77.202317472224721
20
147.78730965914139
30
0
10
76.863312467854314
20
147.78641476220747
30
0
0
SPLINE
5
162
100
AcDbEntity
8
0
100
AcDbSpline
70
0
71
2
72
6
73
3
74
0
42
0.000000001
43
0.0000000001
44
0.0000000001
40
0
40
0
40
0
40
1
40
1
40
1
10
76.863312467854314
20
147.78641476220747
30
0
10
76.556982615903024
20
147.78560612032391
30
0
10
76.365274711580696
20
147.68707391425255
30
0
0
SPLINE
5
163
100
AcDbEntity
8
0
100
AcDbSpline
70
0
71
2
72
6
73
3
74
0
42
0.000000001
43
0.0000000001
44
0.0000000001
40
0
40
0
40
0
40
1
40
1
40
1
10
76.365274711580696
20
147.68707391425255
30
0
10
76.06343896517086
20
147.5310690802595
30
0
10
76.064441681311038
20
147.15121998635414
30
0
0
SPLINE
5
164
100
AcDbEntity
8
0
100
AcDbSpline
70
0
71
2
72
6
73
3
74
0
42
0.000000001
43
0.0000000001
44
0.0000000001
40
0
40
0
40
0
40
1
40
1
40
1
10
76.064441681311038
20
147.15121998635414
30
0
10
76.065331187304309
20
146.81425717900993
30
0
10
76.323052631568743
20
146.66177151234234
30
0
0
SPLINE
5
165
100
AcDbEntity
8
0
100
AcDbSpline
70
0
71
2
72
6
73
3
74
0
42
0.000000001
43
0.0000000001
44
0.0000000001
40
0
40
0
40
0
40
1
40
1
40
1
10
76.323052631568743
20
146.66177151234234
30
0
10
76.580773926428705
20
146.50928599429253
30
0
10
76.944285444124532
20
146.51024558290754
30
0
0
SPLINE
5
166
100
AcDbEntity
8
0
100
AcDbSpline
70
0
71
2
72
6
73
3
74
0
42
0.000000001
43
0.0000000001
44
0.0000000001
40
0
40
0
40
0
40
1
40
1
40
1
10
76.944285444124532
20
146.51024558290754
30
0
10
77.293501284614806
20
146.51116743415133
30
0
10
77.525907723074681
20
146.66494677913622
30
0
0
SPLINE
5
167
100
AcDbEntity
8
0
100
AcDbSpline
70
0
71
2
72
6
73
3
74
0
42
0.000000001
43
0.0000000001
44
0.0000000001
40
0
40
0
40
0
40
1
40
1
40
1
10
77.525907723074681
20
146.66494677913622
30
0
10
77.758313863119014
20
146.81872627234549
30
0
10
77.757435139007043
20
147.1516046856373
30
0
0
SPLINE
5
168
100
AcDbEntity
8
0
100
AcDbSpline
70
0
71
2
72
6
73
3
74
0
42
0.000000001
43
0.0000000001
44
0.0000000001
40
0
40
0
40
0
40
1
40
1
40
1
10
75.743789644484252
20
147.16058459341036
30
0
10
75.742673718590524
20
147.58331982486581
30
0
10
76.023726152310687
20
147.87609809882514
30
0
0
SPLINE
5
169
100
AcDbEntity
8
0
100
AcDbSpline
70
0
71
2
72
6
73
3
74
0
42
0.000000001
43
0.0000000001
44
0.0000000001
40
0
40
0
40
0
40
1
40
1
40
1
10
76.023726152310687
20
147.87609809882514
30
0
10
76.30477873504195
20
148.1688763731778
30
0
10
76.852087985095238
20
148.17032114645093
30
0
0
SPLINE
5
170
100
AcDbEntity
8
0
100
AcDbSpline
70
0
71
2
72
6
73
3
74
0
42
0.000000001
43
0.0000000001
44
0.0000000001
40
0
40
0
40
0
40
1
40
1
40
1
10
76.852087985095238
20
148.17032114645093
30
0
10
77.381017461912776
20
148.17171740125823
30
0
10
77.726828166872025
20
147.91531164532029
30
0
0
SPLINE
5
171
100
AcDbEntity
8
0
100
AcDbSpline
70
0
71
2
72
6
73
3
74
0
42
0.000000001
43
0.0000000001
44
0.0000000001
40
0
40
0
40
0
40
1
40
1
40
1
10
77.726828166872025
20
147.91531164532029
30
0
10
78.072639170640187
20
147.65890559214685
30
0
10
78.074067771091379
20
147.11772293317213
30
0
0
SPLINE
5
172
100
AcDbEntity
8
0
100
AcDbSpline
70
0
71
2
72
6
73
3
74
0
42
0.000000001
43
0.0000000001
44
0.0000000001
40
0
40
0
40
0
40
1
40
1
40
1
10
78.074067771091379
20
147.11772293317213
30
0
10
78.075259170154169
20
146.66639694334998
30
0
10
77.77167218889528
20
146.40010792959737
30
0
0
SPLINE
5
173
100
AcDbEntity
8
0
100
AcDbSpline
70
0
71
2
72
6
73
3
74
0
42
0.000000001
43
0.0000000001
44
0.0000000001
40
0
40
0
40
0
40
1
40
1
40
1
10
77.77167218889528
20
146.40010792959737
30
0
10
77.46604345764348
20
146.1338135260842
30
0
10
76.951409210998193
20
146.13245500746802
30
0
0
SPLINE
5
174
100
AcDbEntity
8
0
100
AcDbSpline
70
0
71
2
72
6
73
3
74
0
42
0.000000001
43
0.0000000001
44
0.0000000001
40
0
40
0
40
0
40
1
40
1
40
1
10
76.951409210998193
20
146.13245500746802
30
0
10
76.400015566892534
20
146.13099945231363
30
0
10
76.072525185417462
20
146.40991804262325
30
0
0
SPLINE
5
175
100
AcDbEntity
8
0
100
AcDbSpline
70
0
71
2
72
6
73
3
74
0
42
0.000000001
43
0.0000000001
44
0.0000000001
40
0
40
0
40
0
40
1
40
1
40
1
10
76.072525185417462
20
146.40991804262325
30
0
10
75.745034952560133
20
146.68883678233735
30
0
10
75.743789644484252
20
147.16058459341036
30
0
0
SPLINE
5
176
100
AcDbEntity
8
0
100
AcDbSpline
70
0
71
2
72
6
73
3
74
0
42
0.000000001
43
0.0000000001
44
0.0000000001
40
0
40
0
40
0
40
1
40
1
40
1
10
77.751294852891249
20
149.47766888660541
30
0
10
77.750329873335588
20
149.84322260132745
30
0
10
77.474277323705664
20
149.97727982767572
30
0
0
SPLINE
5
177
100
AcDbEntity
8
0
100
AcDbSpline
70
0
71
2
72
6
73
3
74
0
42
0.000000001
43
0.0000000001
44
0.0000000001
40
0
40
0
40
0
40
1
40
1
40
1
10
77.474277323705664
20
149.97727982767572
30
0
10
77.196177186502283
20
150.11337371109843
30
0
10
76.857172182131876
20
150.11247881416455
30
0
0
SPLINE
5
178
100
AcDbEntity
8
0
100
AcDbSpline
70
0
71
2
72
6
73
3
74
0
42
0.000000001
43
0.0000000001
44
0.0000000001
40
0
40
0
40
0
40
1
40
1
40
1
10
76.857172182131876
20
150.11247881416455
30
0
10
76.550842330180572
20
150.11167017228098
30
0
10
76.359134425071531
20
150.01313826423177
30
0
0
SPLINE
5
179
100
AcDbEntity
8
0
100
AcDbSpline
70
0
71
2
72
6
73
3
74
0
42
0.000000001
43
0.0000000001
44
0.0000000001
40
0
40
0
40
0
40
1
40
1
40
1
10
76.359134425071531
20
150.01313826423177
30
0
10
76.057298679448422
20
149.85713313221655
30
0
10
76.058301395195244
20
149.47728418732228
30
0
0
SPLINE
5
180
100
AcDbEntity
8
0
100
AcDbSpline
70
0
71
2
72
6
73
3
74
0
42
0.000000001
43
0.0000000001
44
0.0000000001
40
0
40
0
40
0
40
1
40
1
40
1
10
76.058301395195244
20
149.47728418732228
30
0
10
76.059190900795144
20
149.14032152898915
30
0
10
76.316912345059578
20
148.98783586232159
30
0
0
SPLINE
5
181
100
AcDbEntity
8
0
100
AcDbSpline
70
0
71
2
72
6
73
3
74
0
42
0.000000001
43
0.0000000001
44
0.0000000001
40
0
40
0
40
0
40
1
40
1
40
1
10
76.316912345059578
20
148.98783586232159
30
0
10
76.574633640312896
20
148.83535019526067
30
0
10
76.938145158008723
20
148.83630978387569
30
0
0
SPLINE
5
182
100
AcDbEntity
8
0
100
AcDbSpline
70
0
71
2
72
6
73
3
74
0
42
0.000000001
43
0.0000000001
44
0.0000000001
40
0
40
0
40
0
40
1
40
1
40
1
10
76.938145158008723
20
148.83630978387569
30
0
10
77.287360998498997
20
148.83723163511948
30
0
10
77.51976743656553
20
148.99101112911544
30
0
0
SPLINE
5
183
100
AcDbEntity
8
0
100
AcDbSpline
70
0
71
2
72
6
73
3
74
0
42
0.000000001
43
0.0000000001
44
0.0000000001
40
0
40
0
40
0
40
1
40
1
40
1
10
77.51976743656553
20
148.99101112911544
30
0
10
77.752173576609863
20
149.14479062232471
30
0
10
77.751294852891249
20
149.47766888660541
30
0
0
SPLINE
5
184
100
AcDbEntity
8
0
100
AcDbSpline
70
0
71
2
72
6
73
3
74
0
42
0.000000001
43
0.0000000001
44
0.0000000001
40
0
40
0
40
0
40
1
40
1
40
1
10
75.737649357975101
20
149.48664894338958
30
0
10
75.736533432081359
20
149.90938417484503
30
0
10
76.017585865801522
20
150.20216244880436
30
0
0
SPLINE
5
185
100
AcDbEntity
8
0
100
AcDbSpline
70
0
71
2
72
6
73
3
74
0
42
0.000000001
43
0.0000000001
44
0.0000000001
40
0
40
0
40
0
40
1
40
1
40
1
10
76.017585865801522
20
150.20216244880436
30
0
10
76.298638448532785
20
150.49494072315701
30
0
10
76.845947698586073
20
150.49638549643015
30
0
0
SPLINE
5
186
100
AcDbEntity
8
0
100
AcDbSpline
70
0
71
2
72
6
73
3
74
0
42
0.000000001
43
0.0000000001
44
0.0000000001
40
0
40
0
40
0
40
1
40
1
40
1
10
76.845947698586073
20
150.49638549643015
30
0
10
77.374877175403611
20
150.49778175123748
30
0
10
77.720687881149587
20
150.24137569727733
30
0
0
SPLINE
5
187
100
AcDbEntity
8
0
100
AcDbSpline
70
0
71
2
72
6
73
3
74
0
42
0.000000001
43
0.0000000001
44
0.0000000001
40
0
40
0
40
0
40
1
40
1
40
1
10
77.720687881149587
20
150.24137569727733
30
0
10
78.066498884917735
20
149.9849696441039
30
0
10
78.067927484582228
20
149.44378728315138
30
0
0
SPLINE
5
188
100
AcDbEntity
8
0
100
AcDbSpline
70
0
71
2
72
6
73
3
74
0
42
0.000000001
43
0.0000000001
44
0.0000000001
40
0
40
0
40
0
40
1
40
1
40
1
10
78.067927484582228
20
149.44378728315138
30
0
10
78.069118883645004
20
148.9924612933292
30
0
10
77.765531902779472
20
148.72617213056552
30
0
0
SPLINE
5
189
100
AcDbEntity
8
0
100
AcDbSpline
70
0
71
2
72
6
73
3
74
0
42
0.000000001
43
0.0000000001
44
0.0000000001
40
0
40
0
40
0
40
1
40
1
40
1
10
77.765531902779472
20
148.72617213056552
30
0
10
77.459903171134314
20
148.45987787606342
30
0
10
76.945268924489042
20
148.45851935744727
30
0
0
SPLINE
5
190
100
AcDbEntity
8
0
100
AcDbSpline
70
0
71
2
72
6
73
3
74
0
42
0.000000001
43
0.0000000001
44
0.0000000001
40
0
40
0
40
0
40
1
40
1
40
1
10
76.945268924489042
20
148.45851935744727
30
0
10
76.393875280383369
20
148.45706380229285
30
0
10
76.066384898908296
20
148.73598239260249
30
0
0
SPLINE
5
191
100
AcDbEntity
8
0
100
AcDbSpline
70
0
71
2
72
6
73
3
74
0
42
0.000000001
43
0.0000000001
44
0.0000000001
40
0
40
0
40
0
40
1
40
1
40
1
10
76.066384898908296
20
148.73598239260249
30
0
10
75.738894666444338
20
149.01490098330549
30
0
10
75.737649357975101
20
149.48664894338958
30
0
0
LINE
5
192
100
AcDbEntity
8
0
100
AcDbLine
10
74.984324250228681
20
150.93871564370926
30
0
11
74.98335387933902
21
151.30631170446858
31
0
0
LINE
5
193
100
AcDbEntity
8
0
100
AcDbLine
10
74.983353879339006
20
151.30631170446856
30
0
11
77.983343545984468
21
151.31423100217751
31
0
0
LINE
5
194
100
AcDbEntity
8
0
100
AcDbLine
10
77.983343545984468
20
151.31423100217751
30
0
11
77.984313916874129
21
150.94663494141821
31
0
0
LINE
5
195
100
AcDbEntity
8
0
100
AcDbLine
10
77.984313916874143
20
150.94663494141824
30
0
11
74.984324250228681
21
150.93871564370926
31
0
0
SPLINE
5
196
100
AcDbEntity
8
0
100
AcDbSpline
70
0
71
2
72
6
73
3
74
0
42
0.000000001
43
0.0000000001
44
0.0000000001
40
0
40
0
40
0
40
1
40
1
40
1
10
75.743276095946229
20
152.7705427763382
30
0
10
75.742661527925904
20
153.00335353534652
30
0
10
75.852363337871353
20
153.22215928091086
30
0
0
SPLINE
5
197
100
AcDbEntity
8
0
100
AcDbSpline
70
0
71
2
72
6
73
3
74
0
42
0.000000001
43
0.0000000001
44
0.0000000001
40
0
40
0
40
0
40
1
40
1
40
1
10
75.852363337871353
20
153.22215928091086
30
0
10
75.960023096654851
20
153.44096082801667
30
0
10
76.133308100216269
20
153.55578209183179
30
0
0
SPLINE
5
198
100
AcDbEntity
8
0
100
AcDbSpline
70
0
71
2
72
6
73
3
74
0
42
0.000000001
43
0.0000000001
44
0.0000000001
40
0
40
0
40
0
40
1
40
1
40
1
10
76.133308100216269
20
153.55578209183179
30
0
10
76.298435096767491
20
153.6664976958541
30
0
10
76.518895488462647
20
153.70383916628651
30
0
0
SPLINE
5
199
100
AcDbEntity
8
0
100
AcDbSpline
70
0
71
2
72
6
73
3
74
0
42
0.000000001
43
0.0000000001
44
0.0000000001
40
0
40
0
40
0
40
1
40
1
40
1
10
76.518895488462647
20
153.70383916628651
30
0
10
76.669931962361758
20
153.73691324870677
30
0
10
77.000768178627382
20
153.73778658187808
30
0
0
LINE
5
200
100
AcDbEntity
8
0
100
AcDbLine
10
77.000768178627382
20
153.73778658187808
30
0
11
77.005000069787812
21
152.13466087323812
31
0
0
SPLINE
5
201
100
AcDbEntity
8
0
100
AcDbSpline
70
0
71
2
72
6
73
3
74
0
42
0.000000001
43
0.0000000001
44
0.0000000001
40
0
40
0
40
0
40
1
40
1
40
1
10
77.005000069787798
20
152.13466087323812
30
0
10
77.337851528769747
20
152.14575043346994
30
0
10
77.539641035647563
20
152.29332232287322
30
0
0
SPLINE
5
202
100
AcDbEntity
8
0
100
AcDbSpline
70
0
71
2
72
6
73
3
74
0
42
0.000000001
43
0.0000000001
44
0.0000000001
40
0
40
0
40
0
40
1
40
1
40
1
10
77.539641035647563
20
152.29332232287322
30
0
10
77.739388196488079
20
152.44088882094249
30
0
10
77.738574164057212
20
152.74926072090886
30
0
0
SPLINE
5
203
100
AcDbEntity
8
0
100
AcDbSpline
70
0
71
2
72
6
73
3
74
0
42
0.000000001
43
0.0000000001
44
0.0000000001
40
0
40
0
40
0
40
1
40
1
40
1
10
77.738574164057212
20
152.74926072090886
30
0
10
77.737814040246093
20
153.0372109486355
30
0
10
77.547436728784703
20
153.20825414096242
30
0
0
SPLINE
5
204
100
AcDbEntity
8
0
100
AcDbSpline
70
0
71
2
72
6
73
3
74
0
42
0.000000001
43
0.0000000001
44
0.0000000001
40
0
40
0
40
0
40
1
40
1
40
1
10
77.547436728784703
20
153.20825414096242
30
0
10
77.436899324219226
20
153.30598848742486
30
0
10
77.291795365962031
20
153.34645026681389
30
0
0
LINE
5
205
100
AcDbEntity
8
0
100
AcDbLine
10
77.291795365962031
20
153.34645026681389
30
0
11
77.290841169861082
21
153.70791899143916
31
0
0
SPLINE
5
206
100
AcDbEntity
8
0
100
AcDbSpline
70
0
71
2
72
6
73
3
74
0
42
0.000000001
43
0.0000000001
44
0.0000000001
40
0
40
0
40
0
40
1
40
1
40
1
10
77.290841169861068
20
153.70791899143916
30
0
10
77.411368680395498
20
153.69394152913617
30
0
10
77.560664849944587
20
153.61264718714889
30
0
0
SPLINE
5
207
100
AcDbEntity
8
0
100
AcDbSpline
70
0
71
2
72
6
73
3
74
0
42
0.000000001
43
0.0000000001
44
0.0000000001
40
0
40
0
40
0
40
1
40
1
40
1
10
77.560664849944587
20
153.61264718714889
30
0
10
77.70791328290909
20
153.53338950184272
30
0
10
77.802118799834489
20
153.43356998062671
30
0
0
SPLINE
5
208
100
AcDbEntity
8
0
100
AcDbSpline
70
0
71
2
72
6
73
3
74
0
42
0.000000001
43
0.0000000001
44
0.0000000001
40
0
40
0
40
0
40
1
40
1
40
1
10
77.802118799834489
20
153.43356998062671
30
0
10
77.965936619849685
20
153.26654080170829
30
0
10
78.023770440007894
20
153.01958605688799
30
0
0
SPLINE
5
209
100
AcDbEntity
8
0
100
AcDbSpline
70
0
71
2
72
6
73
3
74
0
42
0.000000001
43
0.0000000001
44
0.0000000001
40
0
40
0
40
0
40
1
40
1
40
1
10
78.023770440007894
20
153.01958605688799
30
0
10
78.056796004749046
20
152.88692905820241
30
0
10
78.057238061095291
20
152.71946920007667
30
0
0
SPLINE
5
210
100
AcDbEntity
8
0
100
AcDbSpline
70
0
71
2
72
6
73
3
74
0
42
0.000000001
43
0.0000000001
44
0.0000000001
40
0
40
0
40
0
40
1
40
1
40
1
10
78.057238061095291
20
152.71946920007667
30
0
10
78.058316250797873
20
152.31102919879351
30
0
10
77.762946874131757
20
152.02638197635446
30
0
0
SPLINE
5
211
100
AcDbEntity
8
0
100
AcDbSpline
70
0
71
2
72
6
73
3
74
0
42
0.000000001
43
0.0000000001
44
0.0000000001
40
0
40
0
40
0
40
1
40
1
40
1
10
77.762946874131757
20
152.02638197635446
30
0
10
77.465535151428355
20
151.7417293625814
30
0
10
76.93047923254332
20
151.74031693534548
30
0
0
SPLINE
5
212
100
AcDbEntity
8
0
100
AcDbSpline
70
0
71
2
72
6
73
3
74
0
42
0.000000001
43
0.0000000001
44
0.0000000001
40
0
40
0
40
0
40
1
40
1
40
1
10
76.93047923254332
20
151.74031693534548
30
0
10
76.403591803740895
20
151.73892607108544
30
0
10
76.074043201822136
20
152.0239657129153
30
0
0
SPLINE
5
213
100
AcDbEntity
8
0
100
AcDbSpline
70
0
71
2
72
6
73
3
74
0
42
0.000000001
43
0.0000000001
44
0.0000000001
40
0
40
0
40
0
40
1
40
1
40
1
10
76.074043201822136
20
152.0239657129153
30
0
10
75.744494449318879
20
152.30900595039617
30
0
10
75.743276095946229
20
152.7705427763382
30
0
0
SPLINE
5
214
100
AcDbEntity
8
0
100
AcDbSpline
70
0
71
2
72
6
73
3
74
0
42
0.000000001
43
0.0000000001
44
0.0000000001
40
0
40
0
40
0
40
1
40
1
40
1
10
76.709731031058979
20
153.35920877969986
30
0
10
76.47085313072364
20
153.33611372295172
30
0
10
76.328114827504805
20
153.2540484756654
30
0
0
SPLINE
5
215
100
AcDbEntity
8
0
100
AcDbSpline
70
0
71
2
72
6
73
3
74
0
42
0.000000001
43
0.0000000001
44
0.0000000001
40
0
40
0
40
0
40
1
40
1
40
1
10
76.328114827504805
20
153.2540484756654
30
0
10
76.063027993909557
20
153.10222537107191
30
0
10
76.063960627821345
20
152.74892483850707
30
0
0
SPLINE
5
216
100
AcDbEntity
8
0
100
AcDbSpline
70
0
71
2
72
6
73
3
74
0
42
0.000000001
43
0.0000000001
44
0.0000000001
40
0
40
0
40
0
40
1
40
1
40
1
10
76.063960627821345
20
152.74892483850707
30
0
10
76.064629106034843
20
152.49569181121464
30
0
10
76.248879826417635
20
152.32463244606581
30
0
0
SPLINE
5
217
100
AcDbEntity
8
0
100
AcDbSpline
70
0
71
2
72
6
73
3
74
0
42
0.000000001
43
0.0000000001
44
0.0000000001
40
0
40
0
40
0
40
1
40
1
40
1
10
76.248879826417635
20
152.32463244606581
30
0
10
76.431088200763156
20
152.15356768958299
30
0
10
76.712938642709986
20
152.14410080405892
30
0
0
LINE
5
218
100
AcDbEntity
8
0
100
AcDbLine
10
76.712938642709986
20
152.14410080405892
30
0
11
76.709731031058979
21
153.35920877969986
31
0
0
SPLINE
5
219
100
AcDbEntity
8
0
100
AcDbSpline
70
0
71
2
72
6
73
3
74
0
42
0.000000001
43
0.0000000001
44
0.0000000001
40
0
40
0
40
0
40
1
40
1
40
1
10
77.392977156193254
20
154.47197531957983
30
0
10
77.552268524236396
20
154.4723958129502
30
0
10
77.643860254629345
20
154.58904408319896
30
0
0
SPLINE
5
220
100
AcDbEntity
8
0
100
AcDbSpline
70
0
71
2
72
6
73
3
74
0
42
0.000000001
43
0.0000000001
44
0.0000000001
40
0
40
0
40
0
40
1
40
1
40
1
10
77.643860254629345
20
154.58904408319896
30
0
10
77.735451986595706
20
154.70569175740334
30
0
10
77.735031492438637
20
154.86498342346866
30
0
0
SPLINE
5
221
100
AcDbEntity
8
0
100
AcDbSpline
70
0
71
2
72
6
73
3
74
0
42
0.000000001
43
0.0000000001
44
0.0000000001
40
0
40
0
40
0
40
1
40
1
40
1
10
77.735031492438637
20
154.86498342346866
30
0
10
77.734519352683932
20
155.05899228996819
30
0
10
77.644182890207276
20
155.24051047489993
30
0
0
SPLINE
5
222
100
AcDbEntity
8
0
100
AcDbSpline
70
0
71
2
72
6
73
3
74
0
42
0.000000001
43
0.0000000001
44
0.0000000001
40
0
40
0
40
0
40
1
40
1
40
1
10
77.644182890207276
20
155.24051047489993
30
0
10
77.494293716400435
20
155.54644678779076
30
0
10
77.155288712030043
20
155.54555189085684
30
0
0
LINE
5
223
100
AcDbEntity
8
0
100
AcDbLine
10
77.155288712030043
20
155.54555189085684
30
0
11
76.859169845209706
21
155.54477020367648
31
0
0
SPLINE
5
224
100
AcDbEntity
8
0
100
AcDbSpline
70
0
71
2
72
6
73
3
74
0
42
0.000000001
43
0.0000000001
44
0.0000000001
40
0
40
0
40
0
40
1
40
1
40
1
10
76.859169845209706
20
155.54477020367648
30
0
10
76.902233883407746
20
155.47749106057674
30
0
10
76.931104972261465
20
155.37137169233932
30
0
0
SPLINE
5
225
100
AcDbEntity
8
0
100
AcDbSpline
70
0
71
2
72
6
73
3
74
0
42
0.000000001
43
0.0000000001
44
0.0000000001
40
0
40
0
40
0
40
1
40
1
40
1
10
76.931104972261465
20
155.37137169233932
30
0
10
76.959976057968333
20
155.26525351619063
30
0
10
76.972498786371077
20
155.16317630854701
30
0
0
LINE
5
226
100
AcDbEntity
8
0
100
AcDbLine
10
76.972498786371077
20
155.16317630854701
30
0
11
77.001677307459332
21
154.94065185922099
31
0
0
SPLINE
5
227
100
AcDbEntity
8
0
100
AcDbSpline
70
0
71
2
72
6
73
3
74
0
42
0.000000001
43
0.0000000001
44
0.0000000001
40
0
40
0
40
0
40
1
40
1
40
1
10
77.001677307459346
20
154.94065185922096
30
0
10
77.028754181769855
20
154.74058633486015
30
0
10
77.086199855775007
20
154.64066917988146
30
0
0
SPLINE
5
228
100
AcDbEntity
8
0
100
AcDbSpline
70
0
71
2
72
6
73
3
74
0
42
0.000000001
43
0.0000000001
44
0.0000000001
40
0
40
0
40
0
40
1
40
1
40
1
10
77.086199855775007
20
154.64066917988146
30
0
10
77.182630713484173
20
154.47142005229995
30
0
10
77.392977156193254
20
154.47197531957983
30
0
0
SPLINE
5
229
100
AcDbEntity
8
0
100
AcDbSpline
70
0
71
2
72
6
73
3
74
0
42
0.000000001
43
0.0000000001
44
0.0000000001
40
0
40
0
40
0
40
1
40
1
40
1
10
76.647266389345845
20
155.3604121111207
30
0
10
76.630594574029544
20
155.48698549724176
30
0
10
76.540624548079123
20
155.5296336879546
30
0
0
SPLINE
5
230
100
AcDbEntity
8
0
100
AcDbSpline
70
0
71
2
72
6
73
3
74
0
42
0.000000001
43
0.0000000001
44
0.0000000001
40
0
40
0
40
0
40
1
40
1
40
1
10
76.540624548079123
20
155.5296336879546
30
0
10
76.491547126589296
20
155.55401126573778
30
0
10
76.399648260410572
20
155.55376867340874
30
0
0
SPLINE
5
231
100
AcDbEntity
8
0
100
AcDbSpline
70
0
71
2
72
6
73
3
74
0
42
0.000000001
43
0.0000000001
44
0.0000000001
40
0
40
0
40
0
40
1
40
1
40
1
10
76.399648260410572
20
155.55376867340874
30
0
10
76.211765984989626
20
155.55327270647598
30
0
10
76.128391562347332
20
155.41826577972077
30
0
0
SPLINE
5
232
100
AcDbEntity
8
0
100
AcDbSpline
70
0
71
2
72
6
73
3
74
0
42
0.000000001
43
0.0000000001
44
0.0000000001
40
0
40
0
40
0
40
1
40
1
40
1
10
76.128391562347332
20
155.41826577972077
30
0
10
76.042969697995801
20
155.28529670252215
30
0
10
76.04362739196786
20
155.03614896334864
30
0
0
SPLINE
5
233
100
AcDbEntity
8
0
100
AcDbSpline
70
0
71
2
72
6
73
3
74
0
42
0.000000001
43
0.0000000001
44
0.0000000001
40
0
40
0
40
0
40
1
40
1
40
1
10
76.04362739196786
20
155.03614896334864
30
0
10
76.044387515778993
20
154.748198735622
30
0
10
76.199912704672286
20
154.62811867394788
30
0
0
SPLINE
5
234
100
AcDbEntity
8
0
100
AcDbSpline
70
0
71
2
72
6
73
3
74
0
42
0.000000001
43
0.0000000001
44
0.0000000001
40
0
40
0
40
0
40
1
40
1
40
1
10
76.199912704672286
20
154.62811867394788
30
0
10
76.285862880420396
20
154.56095274060169
30
0
10
76.455419292798751
20
154.54097792078454
30
0
0
LINE
5
235
100
AcDbEntity
8
0
100
AcDbLine
10
76.455419292798751
20
154.54097792078454
30
0
11
76.456324970827254
21
154.19788882038392
31
0
0
SPLINE
5
236
100
AcDbEntity
8
0
100
AcDbSpline
70
0
71
2
72
6
73
3
74
0
42
0.000000001
43
0.0000000001
44
0.0000000001
40
0
40
0
40
0
40
1
40
1
40
1
10
76.456324970827254
20
154.19788882038392
30
0
10
76.051942707308768
20
154.20703224946922
30
0
10
75.894030301187939
20
154.45780752987912
30
0
0
SPLINE
5
237
100
AcDbEntity
8
0
100
AcDbSpline
70
0
71
2
72
6
73
3
74
0
42
0.000000001
43
0.0000000001
44
0.0000000001
40
0
40
0
40
0
40
1
40
1
40
1
10
75.894030301187939
20
154.45780752987912
30
0
10
75.734070307493639
20
154.71061946736344
30
0
10
75.733191582201599
20
155.04349832768855
30
0
0
SPLINE
5
238
100
AcDbEntity
8
0
100
AcDbSpline
70
0
71
2
72
6
73
3
74
0
42
0.000000001
43
0.0000000001
44
0.0000000001
40
0
40
0
40
0
40
1
40
1
40
1
10
75.733191582201599
20
155.04349832768855
30
0
10
75.732172694812917
20
155.42947341662813
30
0
10
75.878574897927066
20
155.67084111186108
30
0
0
SPLINE
5
239
100
AcDbEntity
8
0
100
AcDbSpline
70
0
71
2
72
6
73
3
74
0
42
0.000000001
43
0.0000000001
44
0.0000000001
40
0
40
0
40
0
40
1
40
1
40
1
10
75.878574897927066
20
155.67084111186108
30
0
10
76.024982491588503
20
155.91016675907889
30
0
10
76.335396588581091
20
155.91098618245042
30
0
0
LINE
5
240
100
AcDbEntity
8
0
100
AcDbLine
10
76.335396588581091
20
155.91098618245042
30
0
11
77.59543319682048
21
155.91431239558236
31
0
0
SPLINE
5
241
100
AcDbEntity
8
0
100
AcDbSpline
70
0
71
2
72
6
73
3
74
0
42
0.000000001
43
0.0000000001
44
0.0000000001
40
0
40
0
40
0
40
1
40
1
40
1
10
77.59543319682048
20
155.91431239558236
30
0
10
77.652614713553902
20
155.91446334192042
30
0
10
77.68727291284327
20
155.93701870855961
30
0
0
SPLINE
5
242
100
AcDbEntity
8
0
100
AcDbSpline
70
0
71
2
72
6
73
3
74
0
42
0.000000001
43
0.0000000001
44
0.0000000001
40
0
40
0
40
0
40
1
40
1
40
1
10
77.68727291284327
20
155.93701870855961
30
0
10
77.721925420416298
20
155.96161731451593
30
0
10
77.721725957579196
20
156.03717785942965
30
0
0
SPLINE
5
243
100
AcDbEntity
8
0
100
AcDbSpline
70
0
71
2
72
6
73
3
74
0
42
0.000000001
43
0.0000000001
44
0.0000000001
40
0
40
0
40
0
40
1
40
1
40
1
10
77.721725957579196
20
156.03717785942965
30
0
10
77.721661264718009
20
156.06168481978835
30
0
10
77.719538352199876
20
156.09231253364504
30
0
0
SPLINE
5
244
100
AcDbEntity
8
0
100
AcDbSpline
70
0
71
2
72
6
73
3
74
0
42
0.000000001
43
0.0000000001
44
0.0000000001
40
0
40
0
40
0
40
1
40
1
40
1
10
77.719538352199876
20
156.09231253364504
30
0
10
77.715373093644445
20
156.12293485616777
30
0
10
77.70915470795714
20
156.15763588338669
30
0
0
LINE
5
245
100
AcDbEntity
8
0
100
AcDbLine
10
77.70915470795714
20
156.15763588338669
30
0
11
77.980767359474228
21
156.15835287967263
31
0
0
SPLINE
5
246
100
AcDbEntity
8
0
100
AcDbSpline
70
0
71
2
72
6
73
3
74
0
42
0.000000001
43
0.0000000001
44
0.0000000001
40
0
40
0
40
0
40
1
40
1
40
1
10
77.980767359474228
20
156.15835287967263
30
0
10
78.005500142508964
20
156.07264559388244
30
0
10
78.011745186057368
20
156.02773313371256
30
0
0
SPLINE
5
247
100
AcDbEntity
8
0
100
AcDbSpline
70
0
71
2
72
6
73
3
74
0
42
0.000000001
43
0.0000000001
44
0.0000000001
40
0
40
0
40
0
40
1
40
1
40
1
10
78.011745186057368
20
156.02773313371256
30
0
10
78.017990527627973
20
155.98282067432939
30
0
10
78.018195384159213
20
155.90521688931182
30
0
0
SPLINE
5
248
100
AcDbEntity
8
0
100
AcDbSpline
70
0
71
2
72
6
73
3
74
0
42
0.000000001
43
0.0000000001
44
0.0000000001
40
0
40
0
40
0
40
1
40
1
40
1
10
78.018195384159213
20
155.90521688931182
30
0
10
78.018696742819344
20
155.71529211884251
30
0
10
77.884137859788765
20
155.62916433889521
30
0
0
SPLINE
5
249
100
AcDbEntity
8
0
100
AcDbSpline
70
0
71
2
72
6
73
3
74
0
42
0.000000001
43
0.0000000001
44
0.0000000001
40
0
40
0
40
0
40
1
40
1
40
1
10
77.884137859788765
20
155.62916433889521
30
0
10
77.812779714363984
20
155.58404702376751
30
0
10
77.682127324737834
20
155.56532237855481
30
0
0
SPLINE
5
250
100
AcDbEntity
8
0
100
AcDbSpline
70
0
71
2
72
6
73
3
74
0
42
0.000000001
43
0.0000000001
44
0.0000000001
40
0
40
0
40
0
40
1
40
1
40
1
10
77.682127324737834
20
155.56532237855481
30
0
10
77.829462310774858
20
155.45338954161625
30
0
10
77.938253871431925
20
155.24332881836804
30
0
0
SPLINE
5
251
100
AcDbEntity
8
0
100
AcDbSpline
70
0
71
2
72
6
73
3
74
0
42
0.000000001
43
0.0000000001
44
0.0000000001
40
0
40
0
40
0
40
1
40
1
40
1
10
77.938253871431925
20
155.24332881836804
30
0
10
78.047045728537753
20
155.03326869195092
30
0
10
78.047714206751252
20
154.78003566465847
30
0
0
SPLINE
5
252
100
AcDbEntity
8
0
100
AcDbSpline
70
0
71
2
72
6
73
3
74
0
42
0.000000001
43
0.0000000001
44
0.0000000001
40
0
40
0
40
0
40
1
40
1
40
1
10
78.047714206751252
20
154.78003566465847
30
0
10
78.048517456514105
20
154.47574845676667
30
0
10
77.865231863911347
20
154.28125440560902
30
0
0
SPLINE
5
253
100
AcDbEntity
8
0
100
AcDbSpline
70
0
71
2
72
6
73
3
74
0
42
0.000000001
43
0.0000000001
44
0.0000000001
40
0
40
0
40
0
40
1
40
1
40
1
10
77.865231863911347
20
154.28125440560902
30
0
10
77.679898534724018
20
154.08879701113247
30
0
10
77.402159441139432
20
154.08806384241791
30
0
0
SPLINE
5
254
100
AcDbEntity
8
0
100
AcDbSpline
70
0
71
2
72
6
73
3
74
0
42
0.000000001
43
0.0000000001
44
0.0000000001
40
0
40
0
40
0
40
1
40
1
40
1
10
77.402159441139432
20
154.08806384241791
30
0
10
77.097871935225427
20
154.08726059186836
30
0
10
76.929910123968625
20
154.27674270837366
30
0
0
SPLINE
5
255
100
AcDbEntity
8
0
100
AcDbSpline
70
0
71
2
72
6
73
3
74
0
42
0.000000001
43
0.0000000001
44
0.0000000001
40
0
40
0
40
0
40
1
40
1
40
1
10
76.929910123968625
20
154.27674270837366
30
0
10
76.761948609160584
20
154.46622542171002
30
0
10
76.722332684220945
20
154.7744948934108
30
0
0
LINE
5
256
100
AcDbEntity
8
0
100
AcDbLine
10
76.722332684220945
20
154.7744948934108
30
0
11
76.647266389345845
21
155.3604121111207
31
0
0
LINE
5
257
100
AcDbEntity
8
0
100
AcDbLine
10
75.782412616591557
20
156.51197889903432
30
0
11
75.781490763774357
21
156.86119533556899
31
0
0
LINE
5
258
100
AcDbEntity
8
0
100
AcDbLine
10
75.781490763774357
20
156.86119533556899
30
0
11
76.091905009778046
21
156.86201475933385
31
0
0
SPLINE
5
259
100
AcDbEntity
8
0
100
AcDbSpline
70
0
71
2
72
6
73
3
74
0
42
0.000000001
43
0.0000000001
44
0.0000000001
40
0
40
0
40
0
40
1
40
1
40
1
10
76.091905009778046
20
156.86201475933385
30
0
10
75.899528627242205
20
157.01671558055492
30
0
10
75.81534032118013
20
157.19008055415947
30
0
0
SPLINE
5
260
100
AcDbEntity
8
0
100
AcDbSpline
70
0
71
2
72
6
73
3
74
0
42
0.000000001
43
0.0000000001
44
0.0000000001
40
0
40
0
40
0
40
1
40
1
40
1
10
75.81534032118013
20
157.19008055415947
30
0
10
75.731151862960132
20
157.3634467194594
30
0
10
75.730591205132967
20
157.57583521018358
30
0
0
SPLINE
5
261
100
AcDbEntity
8
0
100
AcDbSpline
70
0
71
2
72
6
73
3
74
0
42
0.000000001
43
0.0000000001
44
0.0000000001
40
0
40
0
40
0
40
1
40
1
40
1
10
75.730591205132967
20
157.57583521018358
30
0
10
75.729362069092303
20
158.04145672820022
30
0
10
76.053640419027687
20
158.20568965064513
30
0
0
SPLINE
5
262
100
AcDbEntity
8
0
100
AcDbSpline
70
0
71
2
72
6
73
3
74
0
42
0.000000001
43
0.0000000001
44
0.0000000001
40
0
40
0
40
0
40
1
40
1
40
1
10
76.053640419027687
20
158.20568965064513
30
0
10
76.231074506355824
20
158.29601592807157
30
0
10
76.561910722621448
20
158.29688926124288
30
0
0
LINE
5
263
100
AcDbEntity
8
0
100
AcDbLine
10
76.561910722621448
20
158.29688926124288
30
0
11
77.964901122694414
21
158.30059284022002
31
0
0
LINE
5
264
100
AcDbEntity
8
0
100
AcDbLine
10
77.964901122694414
20
158.30059284022002
30
0
11
77.965887668372787
21
157.92686944332667
31
0
0
LINE
5
265
100
AcDbEntity
8
0
100
AcDbLine
10
77.965887668372787
20
157.92686944332667
30
0
11
76.587403632614155
21
157.9232305556373
31
0
0
SPLINE
5
266
100
AcDbEntity
8
0
100
AcDbSpline
70
0
71
2
72
6
73
3
74
0
42
0.000000001
43
0.0000000001
44
0.0000000001
40
0
40
0
40
0
40
1
40
1
40
1
10
76.587403632614155
20
157.9232305556373
30
0
10
76.387268175036041
20
157.92270224306063
30
0
10
76.264892539765256
20
157.86315581752439
30
0
0
SPLINE
5
267
100
AcDbEntity
8
0
100
AcDbSpline
70
0
71
2
72
6
73
3
74
0
42
0.000000001
43
0.0000000001
44
0.0000000001
40
0
40
0
40
0
40
1
40
1
40
1
10
76.264892539765256
20
157.86315581752439
30
0
10
76.060931453285747
20
157.76459126580914
30
0
10
76.061610712593833
20
157.50727414248649
30
0
0
SPLINE
5
268
100
AcDbEntity
8
0
100
AcDbSpline
70
0
71
2
72
6
73
3
74
0
42
0.000000001
43
0.0000000001
44
0.0000000001
40
0
40
0
40
0
40
1
40
1
40
1
10
76.061610712593833
20
157.50727414248649
30
0
10
76.061955732795155
20
157.37657353281008
30
0
10
76.088725322308804
20
157.29291368597561
30
0
0
SPLINE
5
269
100
AcDbEntity
8
0
100
AcDbSpline
70
0
71
2
72
6
73
3
74
0
42
0.000000001
43
0.0000000001
44
0.0000000001
40
0
40
0
40
0
40
1
40
1
40
1
10
76.088725322308804
20
157.29291368597561
30
0
10
76.134052588852995
20
157.14190881266489
30
0
10
76.269139634269067
20
157.027901581674
30
0
0
SPLINE
5
270
100
AcDbEntity
8
0
100
AcDbSpline
70
0
71
2
72
6
73
3
74
0
42
0.000000001
43
0.0000000001
44
0.0000000001
40
0
40
0
40
0
40
1
40
1
40
1
10
76.269139634269067
20
157.027901581674
30
0
10
76.37761881917757
20
156.93628798870958
30
0
10
76.494099520479537
20
156.90800540802624
30
0
0
SPLINE
5
271
100
AcDbEntity
8
0
100
AcDbSpline
70
0
71
2
72
6
73
3
74
0
42
0.000000001
43
0.0000000001
44
0.0000000001
40
0
40
0
40
0
40
1
40
1
40
1
10
76.494099520479537
20
156.90800540802624
30
0
10
76.608532786365956
20
156.88175829272194
30
0
10
76.822963623127421
20
156.88232434188311
30
0
0
LINE
5
272
100
AcDbEntity
8
0
100
AcDbLine
10
76.822963623127421
20
156.88232434188311
30
0
11
77.968637048888851
21
156.8853486619455
31
0
0
LINE
5
273
100
AcDbEntity
8
0
100
AcDbLine
10
77.968637048888851
20
156.8853486619455
30
0
11
77.969607419778512
21
156.5177526011862
31
0
0
LINE
5
274
100
AcDbEntity
8
0
100
AcDbLine
10
77.969607419778512
20
156.5177526011862
30
0
11
75.782412616591557
21
156.51197889903432
31
0
0
LINE
5
275
100
AcDbEntity
8
0
100
AcDbLine
10
77.518036074269162
20
158.93045575041103
30
0
11
77.516909368067545
21
159.3572747798745
31
0
0
LINE
5
276
100
AcDbEntity
8
0
100
AcDbLine
10
77.516909368067545
20
159.3572747798745
30
0
11
77.962108617800041
21
159.35845000572198
31
0
0
LINE
5
277
100
AcDbEntity
8
0
100
AcDbLine
10
77.962108617800041
20
159.35845000572198
30
0
11
77.963235324001644
21
158.9316309762585
31
0
0
LINE
5
278
100
AcDbEntity
8
0
100
AcDbLine
10
77.963235324001644
20
158.93163097625853
30
0
11
77.518036074269162
21
158.93045575041103
31
0
0
SPLINE
5
279
100
AcDbEntity
8
0
100
AcDbSpline
70
0
71
2
72
6
73
3
74
0
42
0.000000001
43
0.0000000001
44
0.0000000001
40
0
40
0
40
0
40
1
40
1
40
1
10
76.891715329086551
20
160.23581880118695
30
0
10
77.242973515614125
20
160.23674604376475
30
0
10
77.479474832378841
20
160.38645162678068
30
0
0
SPLINE
5
280
100
AcDbEntity
8
0
100
AcDbSpline
70
0
71
2
72
6
73
3
74
0
42
0.000000001
43
0.0000000001
44
0.0000000001
40
0
40
0
40
0
40
1
40
1
40
1
10
77.479474832378841
20
160.38645162678068
30
0
10
77.715976444018906
20
160.53615840267213
30
0
10
77.715108502968292
20
160.8649519748783
30
0
0
SPLINE
5
281
100
AcDbEntity
8
0
100
AcDbSpline
70
0
71
2
72
6
73
3
74
0
42
0.000000001
43
0.0000000001
44
0.0000000001
40
0
40
0
40
0
40
1
40
1
40
1
10
77.715108502968292
20
160.8649519748783
30
0
10
77.714434634207507
20
161.1202270501858
30
0
10
77.495488128141986
20
161.28302598123889
30
0
0
SPLINE
5
282
100
AcDbEntity
8
0
100
AcDbSpline
70
0
71
2
72
6
73
3
74
0
42
0.000000001
43
0.0000000001
44
0.0000000001
40
0
40
0
40
0
40
1
40
1
40
1
10
77.495488128141986
20
161.28302598123889
30
0
10
77.274493885491893
20
161.44786156897308
30
0
10
76.864012134215784
20
161.44677798950991
30
0
0
SPLINE
5
283
100
AcDbEntity
8
0
100
AcDbSpline
70
0
71
2
72
6
73
3
74
0
42
0.000000001
43
0.0000000001
44
0.0000000001
40
0
40
0
40
0
40
1
40
1
40
1
10
76.864012134215784
20
161.44677798950991
30
0
10
76.449445690865119
20
161.44568362737874
30
0
10
76.251799877206736
20
161.27565879960196
30
0
0
SPLINE
5
284
100
AcDbEntity
8
0
100
AcDbSpline
70
0
71
2
72
6
73
3
74
0
42
0.000000001
43
0.0000000001
44
0.0000000001
40
0
40
0
40
0
40
1
40
1
40
1
10
76.251799877206736
20
161.27565879960196
30
0
10
76.052111869669005
20
161.10562738879571
30
0
10
76.052769563641078
20
160.85647964962223
30
0
0
SPLINE
5
285
100
AcDbEntity
8
0
100
AcDbSpline
70
0
71
2
72
6
73
3
74
0
42
0.000000001
43
0.0000000001
44
0.0000000001
40
0
40
0
40
0
40
1
40
1
40
1
10
76.052769563641078
20
160.85647964962223
30
0
10
76.05350273471575
20
160.5787396619711
30
0
10
76.266349602439135
20
160.40571431802056
30
0
0
SPLINE
5
286
100
AcDbEntity
8
0
100
AcDbSpline
70
0
71
2
72
6
73
3
74
0
42
0.000000001
43
0.0000000001
44
0.0000000001
40
0
40
0
40
0
40
1
40
1
40
1
10
76.266349602439135
20
160.40571431802056
30
0
10
76.479191082762071
20
160.23472982999641
30
0
10
76.891715329086551
20
160.23581880118695
30
0
0
SPLINE
5
287
100
AcDbEntity
8
0
100
AcDbSpline
70
0
71
2
72
6
73
3
74
0
42
0.000000001
43
0.0000000001
44
0.0000000001
40
0
40
0
40
0
40
1
40
1
40
1
10
75.732327626848516
20
160.786197678197
30
0
10
75.731664539182304
20
161.03738865747431
30
0
10
75.837411337650863
20
161.20717089252872
30
0
0
SPLINE
5
288
100
AcDbEntity
8
0
100
AcDbSpline
70
0
71
2
72
6
73
3
74
0
42
0.000000001
43
0.0000000001
44
0.0000000001
40
0
40
0
40
0
40
1
40
1
40
1
10
75.837411337650863
20
161.20717089252872
30
0
10
75.898418632296782
20
161.30535807839877
30
0
10
76.051254709712964
20
161.43033686497165
30
0
0
LINE
5
289
100
AcDbEntity
8
0
100
AcDbLine
10
76.051254709712964
20
161.43033686497165
30
0
11
74.946425224475433
21
161.42742036372215
31
0
0
LINE
5
290
100
AcDbEntity
8
0
100
AcDbLine
10
74.946425224475433
20
161.42742036372221
30
0
11
74.945492590563646
21
161.78072089628702
31
0
0
LINE
5
291
100
AcDbEntity
8
0
100
AcDbLine
10
74.945492590563646
20
161.78072089628702
30
0
11
77.955693391351161
21
161.78866714909259
31
0
0
LINE
5
292
100
AcDbEntity
8
0
100
AcDbLine
10
77.955693391351161
20
161.78866714909259
30
0
11
77.956566722949077
21
161.45783152887134
31
0
0
LINE
5
293
100
AcDbEntity
8
0
100
AcDbLine
10
77.956566722949077
20
161.45783152887134
30
0
11
77.652279217035058
21
161.45702827832179
31
0
0
SPLINE
5
294
100
AcDbEntity
8
0
100
AcDbSpline
70
0
71
2
72
6
73
3
74
0
42
0.000000001
43
0.0000000001
44
0.0000000001
40
0
40
0
40
0
40
1
40
1
40
1
10
77.652279217035058
20
161.45702827832173
30
0
10
77.854796504440259
20
161.32890222808896
30
0
10
77.945116792128189
20
161.15351137929125
30
0
0
SPLINE
5
295
100
AcDbEntity
8
0
100
AcDbSpline
70
0
71
2
72
6
73
3
74
0
42
0.000000001
43
0.0000000001
44
0.0000000001
40
0
40
0
40
0
40
1
40
1
40
1
10
77.945116792128189
20
161.15351137929125
30
0
10
78.035437082962972
20
160.97811933840478
30
0
10
78.03603547776801
20
160.75143531948615
30
0
0
SPLINE
5
296
100
AcDbEntity
8
0
100
AcDbSpline
70
0
71
2
72
6
73
3
74
0
42
0.000000001
43
0.0000000001
44
0.0000000001
40
0
40
0
40
0
40
1
40
1
40
1
10
78.03603547776801
20
160.75143531948615
30
0
10
78.037000458110384
20
160.38588130674196
30
0
10
77.731376818203614
20
160.11754530146024
30
0
0
SPLINE
5
297
100
AcDbEntity
8
0
100
AcDbSpline
70
0
71
2
72
6
73
3
74
0
42
0.000000001
43
0.0000000001
44
0.0000000001
40
0
40
0
40
0
40
1
40
1
40
1
10
77.731376818203614
20
160.11754530146024
30
0
10
77.423711133428597
20
159.8492027135425
30
0
10
76.91316157885791
20
159.84785497759435
30
0
0
SPLINE
5
298
100
AcDbEntity
8
0
100
AcDbSpline
70
0
71
2
72
6
73
3
74
0
42
0.000000001
43
0.0000000001
44
0.0000000001
40
0
40
0
40
0
40
1
40
1
40
1
10
76.91316157885791
20
159.84785497759435
30
0
10
76.43528702769521
20
159.84659349630317
30
0
10
76.085429515863638
20
160.08869323979422
30
0
0
SPLINE
5
299
100
AcDbEntity
8
0
100
AcDbSpline
70
0
71
2
72
6
73
3
74
0
42
0.000000001
43
0.0000000001
44
0.0000000001
40
0
40
0
40
0
40
1
40
1
40
1
10
76.085429515863638
20
160.08869323979422
30
0
10
75.733524416458579
20
160.33282964035973
30
0
10
75.732327626848516
20
160.786197678197
30
0
0
SPLINE
5
300
100
AcDbEntity
8
0
100
AcDbSpline
70
0
71
2
72
6
73
3
74
0
42
0.000000001
43
0.0000000001
44
0.0000000001
40
0
40
0
40
0
40
1
40
1
40
1
10
75.715647506648921
20
163.23680953910412
30
0
10
75.715032940202022
20
163.46961970206806
30
0
10
75.824734747000619
20
163.68842663972114
30
0
0
SPLINE
5
301
100
AcDbEntity
8
0
100
AcDbSpline
70
0
71
2
72
6
73
3
74
0
42
0.000000001
43
0.0000000001
44
0.0000000001
40
0
40
0
40
0
40
1
40
1
40
1
10
75.824734747000619
20
163.68842663972114
30
0
10
75.932394508930969
20
163.90722699473821
30
0
10
76.105679512492387
20
164.02204825855333
30
0
0
SPLINE
5
302
100
AcDbEntity
8
0
100
AcDbSpline
70
0
71
2
72
6
73
3
74
0
42
0.000000001
43
0.0000000001
44
0.0000000001
40
0
40
0
40
0
40
1
40
1
40
1
10
76.105679512492387
20
164.02204825855333
30
0
10
76.270806509043624
20
164.13276386257564
30
0
10
76.491266897591913
20
164.1701065250968
30
0
0
SPLINE
5
303
100
AcDbEntity
8
0
100
AcDbSpline
70
0
71
2
72
6
73
3
74
0
42
0.000000001
43
0.0000000001
44
0.0000000001
40
0
40
0
40
0
40
1
40
1
40
1
10
76.491266897591913
20
164.1701065250968
30
0
10
76.642303371491039
20
164.20318060751703
30
0
10
76.973139587756648
20
164.20405394068837
30
0
0
LINE
5
304
100
AcDbEntity
8
0
100
AcDbLine
10
76.973139587756648
20
164.20405394068837
30
0
11
76.977371482063916
21
162.60092703995966
31
0
0
SPLINE
5
305
100
AcDbEntity
8
0
100
AcDbSpline
70
0
71
2
72
6
73
3
74
0
42
0.000000001
43
0.0000000001
44
0.0000000001
40
0
40
0
40
0
40
1
40
1
40
1
10
76.977371482063916
20
162.60092703995966
30
0
10
77.310222939472453
20
162.61201719623585
30
0
10
77.512012446350255
20
162.75958908563911
30
0
0
SPLINE
5
306
100
AcDbEntity
8
0
100
AcDbSpline
70
0
71
2
72
6
73
3
74
0
42
0.000000001
43
0.0000000001
44
0.0000000001
40
0
40
0
40
0
40
1
40
1
40
1
10
77.512012446350255
20
162.75958908563911
30
0
10
77.711759607190771
20
162.90715558370837
30
0
10
77.710945574759904
20
163.21552748367478
30
0
0
SPLINE
5
307
100
AcDbEntity
8
0
100
AcDbSpline
70
0
71
2
72
6
73
3
74
0
42
0.000000001
43
0.0000000001
44
0.0000000001
40
0
40
0
40
0
40
1
40
1
40
1
10
77.710945574759904
20
163.21552748367478
30
0
10
77.710185450948785
20
163.50347771140144
30
0
10
77.519808137913969
20
163.67452149977268
30
0
0
SPLINE
5
308
100
AcDbEntity
8
0
100
AcDbSpline
70
0
71
2
72
6
73
3
74
0
42
0.000000001
43
0.0000000001
44
0.0000000001
40
0
40
0
40
0
40
1
40
1
40
1
10
77.519808137913969
20
163.67452149977268
30
0
10
77.409270733348507
20
163.77225584623514
30
0
10
77.264166778238149
20
163.81271643353543
30
0
0
LINE
5
309
100
AcDbEntity
8
0
100
AcDbLine
10
77.264166778238149
20
163.81271643353543
30
0
11
77.263212578990348
21
164.17418635024944
31
0
0
SPLINE
5
310
100
AcDbEntity
8
0
100
AcDbSpline
70
0
71
2
72
6
73
3
74
0
42
0.000000001
43
0.0000000001
44
0.0000000001
40
0
40
0
40
0
40
1
40
1
40
1
10
77.263212578990348
20
164.17418635024941
30
0
10
77.383740089524764
20
164.1602088879464
30
0
10
77.533036259073853
20
164.07891454595915
30
0
0
SPLINE
5
311
100
AcDbEntity
8
0
100
AcDbSpline
70
0
71
2
72
6
73
3
74
0
42
0.000000001
43
0.0000000001
44
0.0000000001
40
0
40
0
40
0
40
1
40
1
40
1
10
77.533036259073853
20
164.07891454595915
30
0
10
77.68028469203837
20
163.999656860653
30
0
10
77.774490212110607
20
163.89983614734825
30
0
0
SPLINE
5
312
100
AcDbEntity
8
0
100
AcDbSpline
70
0
71
2
72
6
73
3
74
0
42
0.000000001
43
0.0000000001
44
0.0000000001
40
0
40
0
40
0
40
1
40
1
40
1
10
77.774490212110607
20
163.89983614734825
30
0
10
77.938308030552378
20
163.73280756447417
30
0
10
77.9961418507106
20
163.48585281965387
30
0
0
SPLINE
5
313
100
AcDbEntity
8
0
100
AcDbSpline
70
0
71
2
72
6
73
3
74
0
42
0.000000001
43
0.0000000001
44
0.0000000001
40
0
40
0
40
0
40
1
40
1
40
1
10
77.9961418507106
20
163.48585281965387
30
0
10
78.029167413878312
20
163.35319641701267
30
0
10
78.029609473371409
20
163.18573536679821
30
0
0
SPLINE
5
314
100
AcDbEntity
8
0
100
AcDbSpline
70
0
71
2
72
6
73
3
74
0
42
0.000000001
43
0.0000000001
44
0.0000000001
40
0
40
0
40
0
40
1
40
1
40
1
10
78.029609473371409
20
163.18573536679821
30
0
10
78.030687661500565
20
162.77729596155939
30
0
10
77.735318286407875
20
162.49264814307597
30
0
0
SPLINE
5
315
100
AcDbEntity
8
0
100
AcDbSpline
70
0
71
2
72
6
73
3
74
0
42
0.000000001
43
0.0000000001
44
0.0000000001
40
0
40
0
40
0
40
1
40
1
40
1
10
77.735318286407875
20
162.49264814307597
30
0
10
77.437906562131047
20
162.20799612534731
30
0
10
76.902850643246012
20
162.20658369811139
30
0
0
SPLINE
5
316
100
AcDbEntity
8
0
100
AcDbSpline
70
0
71
2
72
6
73
3
74
0
42
0.000000001
43
0.0000000001
44
0.0000000001
40
0
40
0
40
0
40
1
40
1
40
1
10
76.902850643246012
20
162.20658369811139
30
0
10
76.375963214443587
20
162.20519283385136
30
0
10
76.046414610951416
20
162.49023307172558
30
0
0
SPLINE
5
317
100
AcDbEntity
8
0
100
AcDbSpline
70
0
71
2
72
6
73
3
74
0
42
0.000000001
43
0.0000000001
44
0.0000000001
40
0
40
0
40
0
40
1
40
1
40
1
10
76.046414610951416
20
162.49023307172558
30
0
10
75.716865861594997
20
162.77527211711771
30
0
10
75.715647506648921
20
163.23680953910412
30
0
0
SPLINE
5
318
100
AcDbEntity
8
0
100
AcDbSpline
70
0
71
2
72
6
73
3
74
0
42
0.000000001
43
0.0000000001
44
0.0000000001
40
0
40
0
40
0
40
1
40
1
40
1
10
76.682102441761671
20
163.82547554246577
30
0
10
76.44322453985292
20
163.80238108176201
30
0
10
76.300486236634072
20
163.72031583447568
30
0
0
SPLINE
5
319
100
AcDbEntity
8
0
100
AcDbSpline
70
0
71
2
72
6
73
3
74
0
42
0.000000001
43
0.0000000001
44
0.0000000001
40
0
40
0
40
0
40
1
40
1
40
1
10
76.300486236634072
20
163.72031583447568
30
0
10
76.035399406185675
20
163.56849153779348
30
0
10
76.036332040097463
20
163.2151910052286
30
0
0
SPLINE
5
320
100
AcDbEntity
8
0
100
AcDbSpline
70
0
71
2
72
6
73
3
74
0
42
0.000000001
43
0.0000000001
44
0.0000000001
40
0
40
0
40
0
40
1
40
1
40
1
10
76.036332040097463
20
163.2151910052286
30
0
10
76.03700051516411
20
162.96195917002493
30
0
10
76.221251237120342
20
162.79089920883172
30
0
0
SPLINE
5
321
100
AcDbEntity
8
0
100
AcDbSpline
70
0
71
2
72
6
73
3
74
0
42
0.000000001
43
0.0000000001
44
0.0000000001
40
0
40
0
40
0
40
1
40
1
40
1
10
76.221251237120342
20
162.79089920883172
30
0
10
76.403459613039274
20
162.61983385630452
30
0
10
76.685310053412692
20
162.61036756682483
30
0
0
LINE
5
322
100
AcDbEntity
8
0
100
AcDbLine
10
76.685310053412692
20
162.61036756682483
30
0
11
76.682102441761685
21
163.82547554246574
31
0
0
SPLINE
5
323
100
AcDbEntity
8
0
100
AcDbSpline
70
0
71
2
72
6
73
3
74
0
42
0.000000001
43
0.0000000001
44
0.0000000001
40
0
40
0
40
0
40
1
40
1
40
1
10
77.261363482808648
20
164.87466127133382
30
0
10
77.445118388809973
20
164.89148284089947
30
0
10
77.542944380083327
20
164.96730334305289
30
0
0
SPLINE
5
324
100
AcDbEntity
8
0
100
AcDbSpline
70
0
71
2
72
6
73
3
74
0
42
0.000000001
43
0.0000000001
44
0.0000000001
40
0
40
0
40
0
40
1
40
1
40
1
10
77.542944380083327
20
164.96730334305289
30
0
10
77.720249087982822
20
165.10664115701928
30
0
10
77.719343406807482
20
165.44973144950862
30
0
0
SPLINE
5
325
100
AcDbEntity
8
0
100
AcDbSpline
70
0
71
2
72
6
73
3
74
0
42
0.000000001
43
0.0000000001
44
0.0000000001
40
0
40
0
40
0
40
1
40
1
40
1
10
77.719343406807482
20
165.44973144950862
30
0
10
77.71880431431633
20
165.65395055608366
30
0
10
77.63057998011638
20
165.80892631527763
30
0
0
SPLINE
5
326
100
AcDbEntity
8
0
100
AcDbSpline
70
0
71
2
72
6
73
3
74
0
42
0.000000001
43
0.0000000001
44
0.0000000001
40
0
40
0
40
0
40
1
40
1
40
1
10
77.63057998011638
20
165.80892631527763
30
0
10
77.540313597901346
20
165.96389668392436
30
0
10
77.354473519506598
20
165.96340610793223
30
0
0
SPLINE
5
327
100
AcDbEntity
8
0
100
AcDbSpline
70
0
71
2
72
6
73
3
74
0
42
0.000000001
43
0.0000000001
44
0.0000000001
40
0
40
0
40
0
40
1
40
1
40
1
10
77.354473519506598
20
165.96340610793223
30
0
10
77.213561775688106
20
165.96303413263431
30
0
10
77.140371528157743
20
165.83826678522868
30
0
0
SPLINE
5
328
100
AcDbEntity
8
0
100
AcDbSpline
70
0
71
2
72
6
73
3
74
0
42
0.000000001
43
0.0000000001
44
0.0000000001
40
0
40
0
40
0
40
1
40
1
40
1
10
77.140371528157743
20
165.83826678522868
30
0
10
77.095653440660016
20
165.75850235150185
30
0
10
77.037049538030331
20
165.52349261076199
30
0
0
LINE
5
329
100
AcDbEntity
8
0
100
AcDbLine
10
77.037049538030331
20
165.52349261076199
30
0
11
76.964301353139888
21
165.23126302105314
31
0
0
SPLINE
5
330
100
AcDbEntity
8
0
100
AcDbSpline
70
0
71
2
72
6
73
3
74
0
42
0.000000001
43
0.0000000001
44
0.0000000001
40
0
40
0
40
0
40
1
40
1
40
1
10
76.964301353139902
20
165.23126302105314
30
0
10
76.895605212724419
20
164.95129888549369
30
0
10
76.810183199361788
20
164.8183298079017
30
0
0
SPLINE
5
331
100
AcDbEntity
8
0
100
AcDbSpline
70
0
71
2
72
6
73
3
74
0
42
0.000000001
43
0.0000000001
44
0.0000000001
40
0
40
0
40
0
40
1
40
1
40
1
10
76.810183199361788
20
164.8183298079017
30
0
10
76.661728018126865
20
164.58104081775829
30
0
10
76.398284452736732
20
164.58034538602163
30
0
0
SPLINE
5
332
100
AcDbEntity
8
0
100
AcDbSpline
70
0
71
2
72
6
73
3
74
0
42
0.000000001
43
0.0000000001
44
0.0000000001
40
0
40
0
40
0
40
1
40
1
40
1
10
76.398284452736732
20
164.58034538602163
30
0
10
76.087870206733058
20
164.57952596225678
30
0
10
75.895315923549262
20
164.80161913633114
30
0
0
SPLINE
5
333
100
AcDbEntity
8
0
100
AcDbSpline
70
0
71
2
72
6
73
3
74
0
42
0.000000001
43
0.0000000001
44
0.0000000001
40
0
40
0
40
0
40
1
40
1
40
1
10
75.895315923549262
20
164.80161913633114
30
0
10
75.702756249818179
20
165.02575435842064
30
0
10
75.701758923045219
20
165.40356185134416
30
0
0
SPLINE
5
334
100
AcDbEntity
8
0
100
AcDbSpline
70
0
71
2
72
6
73
3
74
0
42
0.000000001
43
0.0000000001
44
0.0000000001
40
0
40
0
40
0
40
1
40
1
40
1
10
75.701758923045219
20
165.40356185134416
30
0
10
75.70045431619566
20
165.89777323366096
30
0
10
75.989869762468373
20
166.11705338278884
30
0
0
SPLINE
5
335
100
AcDbEntity
8
0
100
AcDbSpline
70
0
71
2
72
6
73
3
74
0
42
0.000000001
43
0.0000000001
44
0.0000000001
40
0
40
0
40
0
40
1
40
1
40
1
10
75.989869762468373
20
166.11705338278884
30
0
10
76.173306448846887
20
166.25436651365078
30
0
10
76.385705869676741
20
166.25084307584109
30
0
0
LINE
5
336
100
AcDbEntity
8
0
100
AcDbLine
10
76.385705869676741
20
166.25084307584109
30
0
11
76.386622331946654
21
165.90366868732156
31
0
0
SPLINE
5
337
100
AcDbEntity
8
0
100
AcDbSpline
70
0
71
2
72
6
73
3
74
0
42
0.000000001
43
0.0000000001
44
0.0000000001
40
0
40
0
40
0
40
1
40
1
40
1
10
76.386622331946654
20
165.90366868732156
30
0
10
76.262075120221027
20
165.89312840738458
30
0
10
76.160170122295725
20
165.81525626742345
30
0
0
SPLINE
5
338
100
AcDbEntity
8
0
100
AcDbSpline
70
0
71
2
72
6
73
3
74
0
42
0.000000001
43
0.0000000001
44
0.0000000001
40
0
40
0
40
0
40
1
40
1
40
1
10
76.160170122295725
20
165.81525626742345
30
0
10
76.015508223531597
20
165.68825699659806
30
0
10
76.016333037057052
20
165.37580100060143
30
0
0
SPLINE
5
339
100
AcDbEntity
8
0
100
AcDbSpline
70
0
71
2
72
6
73
3
74
0
42
0.000000001
43
0.0000000001
44
0.0000000001
40
0
40
0
40
0
40
1
40
1
40
1
10
76.016333037057052
20
165.37580100060143
30
0
10
76.016882916936467
20
165.1674954138187
30
0
10
76.096814318845489
20
165.05946996317107
30
0
0
SPLINE
5
340
100
AcDbEntity
8
0
100
AcDbSpline
70
0
71
2
72
6
73
3
74
0
42
0.000000001
43
0.0000000001
44
0.0000000001
40
0
40
0
40
0
40
1
40
1
40
1
10
76.096814318845489
20
165.05946996317107
30
0
10
76.17674047921831
20
164.95348656093188
30
0
10
76.30744123790582
20
164.9538315815266
30
0
0
SPLINE
5
341
100
AcDbEntity
8
0
100
AcDbSpline
70
0
71
2
72
6
73
3
74
0
42
0.000000001
43
0.0000000001
44
0.0000000001
40
0
40
0
40
0
40
1
40
1
40
1
10
76.30744123790582
20
164.9538315815266
30
0
10
76.450395029739411
20
164.9542089473718
30
0
10
76.535795480912867
20
165.0953462170242
30
0
0
SPLINE
5
342
100
AcDbEntity
8
0
100
AcDbSpline
70
0
71
2
72
6
73
3
74
0
42
0.000000001
43
0.0000000001
44
0.0000000001
40
0
40
0
40
0
40
1
40
1
40
1
10
76.535795480912867
20
165.0953462170242
30
0
10
76.58663476579504
20
165.17717006367684
30
0
10
76.625016015135657
20
165.33656415761442
30
0
0
LINE
5
343
100
AcDbEntity
8
0
100
AcDbLine
10
76.625016015135657
20
165.33656415761442
30
0
11
76.683598355576166
21
165.5797420904147
31
0
0
SPLINE
5
344
100
AcDbEntity
8
0
100
AcDbSpline
70
0
71
2
72
6
73
3
74
0
42
0.000000001
43
0.0000000001
44
0.0000000001
40
0
40
0
40
0
40
1
40
1
40
1
10
76.683598355576166
20
165.5797420904147
30
0
10
76.778535774108718
20
165.97618138968448
30
0
10
76.868036790976447
20
166.11120329717292
30
0
0
SPLINE
5
345
100
AcDbEntity
8
0
100
AcDbSpline
70
0
71
2
72
6
73
3
74
0
42
0.000000001
43
0.0000000001
44
0.0000000001
40
0
40
0
40
0
40
1
40
1
40
1
10
76.868036790976447
20
166.11120329717292
30
0
10
77.008382486420473
20
166.32600581121011
30
0
10
77.310627646297192
20
166.32680367042568
30
0
0
SPLINE
5
346
100
AcDbEntity
8
0
100
AcDbSpline
70
0
71
2
72
6
73
3
74
0
42
0.000000001
43
0.0000000001
44
0.0000000001
40
0
40
0
40
0
40
1
40
1
40
1
10
77.310627646297192
20
166.32680367042568
30
0
10
77.602662268076216
20
166.32757457611808
30
0
10
77.815638369364009
20
166.10553650314557
30
0
0
SPLINE
5
347
100
AcDbEntity
8
0
100
AcDbSpline
70
0
71
2
72
6
73
3
74
0
42
0.000000001
43
0.0000000001
44
0.0000000001
40
0
40
0
40
0
40
1
40
1
40
1
10
77.815638369364009
20
166.10553650314557
30
0
10
78.02860938127354
20
165.88553928688611
30
0
10
78.029806170883617
20
165.43217124904885
30
0
0
SPLINE
5
348
100
AcDbEntity
8
0
100
AcDbSpline
70
0
71
2
72
6
73
3
74
0
42
0.000000001
43
0.0000000001
44
0.0000000001
40
0
40
0
40
0
40
1
40
1
40
1
10
78.029806170883617
20
165.43217124904885
30
0
10
78.031094606091315
20
164.94408601077737
30
0
10
77.81107612487817
20
164.73928348973715
30
0
0
SPLINE
5
349
100
AcDbEntity
8
0
100
AcDbSpline
70
0
71
2
72
6
73
3
74
0
42
0.000000001
43
0.0000000001
44
0.0000000001
40
0
40
0
40
0
40
1
40
1
40
1
10
77.81107612487817
20
164.73928348973715
30
0
10
77.589010201955787
20
164.53651881825346
30
0
10
77.262296116720421
20
164.52136073876898
30
0
0
LINE
5
350
100
AcDbEntity
8
0
100
AcDbLine
10
77.262296116720421
20
164.52136073876898
30
0
11
77.261363482808633
21
164.87466127133382
31
0
0
LINE
5
351
100
AcDbEntity
8
0
100
AcDbLine
10
75.765615259574503
20
166.74342338653301
30
0
11
75.764628717042967
21
167.11714559133759
31
0
0
LINE
5
352
100
AcDbEntity
8
0
100
AcDbLine
10
75.764628717042967
20
167.11714559133759
30
0
11
77.941612237076754
21
167.12289233799953
31
0
0
LINE
5
353
100
AcDbEntity
8
0
100
AcDbLine
10
77.941612237076754
20
167.12289233799953
30
0
11
77.942598779608289
21
166.74917013319492
31
0
0
LINE
5
354
100
AcDbEntity
8
0
100
AcDbLine
10
77.942598779608289
20
166.74917013319492
30
0
11
75.765615259574503
21
166.74342338653301
31
0
0
LINE
5
355
100
AcDbEntity
8
0
100
AcDbLine
10
74.942609112962828
20
166.74125083548597
30
0
11
74.941622570431292
21
167.11497304029055
31
0
0
LINE
5
356
100
AcDbEntity
8
0
100
AcDbLine
10
74.941622570431292
20
167.11497304029055
30
0
11
75.358231061797071
21
167.11607279296899
31
0
0
LINE
5
357
100
AcDbEntity
8
0
100
AcDbLine
10
75.358231061797071
20
167.11607279296902
30
0
11
75.359217604328592
21
166.74235058816441
31
0
0
LINE
5
358
100
AcDbEntity
8
0
100
AcDbLine
10
75.359217604328592
20
166.74235058816441
30
0
11
74.942609112962828
21
166.741250835486
31
0
0
SPLINE
5
359
100
AcDbEntity
8
0
100
AcDbSpline
70
0
71
2
72
6
73
3
74
0
42
0.000000001
43
0.0000000001
44
0.0000000001
40
0
40
0
40
0
40
1
40
1
40
1
10
75.71211173191702
20
168.44444278528397
30
0
10
75.711432472608934
20
168.70175990860659
30
0
10
75.837541939025556
20
168.89406096541106
30
0
0
SPLINE
5
360
100
AcDbEntity
8
0
100
AcDbSpline
70
0
71
2
72
6
73
3
74
0
42
0.000000001
43
0.0000000001
44
0.0000000001
40
0
40
0
40
0
40
1
40
1
40
1
10
75.837541939025556
20
168.89406096541106
30
0
10
75.908744050307419
20
168.9984000579409
30
0
10
76.045285530028124
20
169.10699814038571
30
0
0
LINE
5
361
100
AcDbEntity
8
0
100
AcDbLine
10
76.045285530028124
20
169.10699814038571
30
0
11
75.769588782480838
21
169.10627036300519
31
0
0
LINE
5
362
100
AcDbEntity
8
0
100
AcDbLine
10
75.769588782480838
20
169.10627036300519
30
0
11
75.768693882400072
21
169.4452765594643
31
0
0
LINE
5
363
100
AcDbEntity
8
0
100
AcDbLine
10
75.768693882400086
20
169.4452765594643
30
0
11
77.757795276024027
21
169.45052733958681
31
0
0
SPLINE
5
364
100
AcDbEntity
8
0
100
AcDbSpline
70
0
71
2
72
6
73
3
74
0
42
0.000000001
43
0.0000000001
44
0.0000000001
40
0
40
0
40
0
40
1
40
1
40
1
10
77.757795276024027
20
169.45052733958687
30
0
10
78.174403767389805
20
169.45162709226531
30
0
10
78.415706772515051
20
169.3297308064322
30
0
0
SPLINE
5
365
100
AcDbEntity
8
0
100
AcDbSpline
70
0
71
2
72
6
73
3
74
0
42
0.000000001
43
0.0000000001
44
0.0000000001
40
0
40
0
40
0
40
1
40
1
40
1
10
78.415706772515051
20
169.3297308064322
30
0
10
78.861509807599873
20
169.10217996534595
30
0
10
78.863186390534054
20
168.4670565411885
30
0
0
SPLINE
5
366
100
AcDbEntity
8
0
100
AcDbSpline
70
0
71
2
72
6
73
3
74
0
42
0.000000001
43
0.0000000001
44
0.0000000001
40
0
40
0
40
0
40
1
40
1
40
1
10
78.863186390534054
20
168.4670565411885
30
0
10
78.864119027592693
20
168.11375481653494
30
0
10
78.705463490163424
20
167.87235596735349
30
0
0
SPLINE
5
367
100
AcDbEntity
8
0
100
AcDbSpline
70
0
71
2
72
6
73
3
74
0
42
0.000000001
43
0.0000000001
44
0.0000000001
40
0
40
0
40
0
40
1
40
1
40
1
10
78.705463490163424
20
167.87235596735349
30
0
10
78.548850603087345
20
167.6309601261153
30
0
10
78.211963114394109
20
167.60148194751724
30
0
0
LINE
5
368
100
AcDbEntity
8
0
100
AcDbLine
10
78.211963114394109
20
167.60148194751724
30
0
11
78.210976571862574
21
167.97520415232185
31
0
0
SPLINE
5
369
100
AcDbEntity
8
0
100
AcDbSpline
70
0
71
2
72
6
73
3
74
0
42
0.000000001
43
0.0000000001
44
0.0000000001
40
0
40
0
40
0
40
1
40
1
40
1
10
78.210976571862574
20
167.97520415232185
30
0
10
78.357944975509113
20
168.00214011712015
30
0
10
78.437380263441042
20
168.08199619644461
30
0
0
SPLINE
5
370
100
AcDbEntity
8
0
100
AcDbSpline
70
0
71
2
72
6
73
3
74
0
42
0.000000001
43
0.0000000001
44
0.0000000001
40
0
40
0
40
0
40
1
40
1
40
1
10
78.437380263441042
20
168.08199619644461
30
0
10
78.559583537622274
20
168.20689292721244
30
0
10
78.558877322430888
20
168.47442148269934
30
0
0
SPLINE
5
371
100
AcDbEntity
8
0
100
AcDbSpline
70
0
71
2
72
6
73
3
74
0
42
0.000000001
43
0.0000000001
44
0.0000000001
40
0
40
0
40
0
40
1
40
1
40
1
10
78.558877322430888
20
168.47442148269934
30
0
10
78.557761394177007
20
168.89715760822133
30
0
10
78.259255310129163
20
169.02707113977675
30
0
0
SPLINE
5
372
100
AcDbEntity
8
0
100
AcDbSpline
70
0
71
2
72
6
73
3
74
0
42
0.000000001
43
0.0000000001
44
0.0000000001
40
0
40
0
40
0
40
1
40
1
40
1
10
78.259255310129163
20
169.02707113977675
30
0
10
78.083421214469894
20
169.10421011102332
30
0
10
77.632111697458612
20
169.09689137661326
30
0
0
SPLINE
5
373
100
AcDbEntity
8
0
100
AcDbSpline
70
0
71
2
72
6
73
3
74
0
42
0.000000001
43
0.0000000001
44
0.0000000001
40
0
40
0
40
0
40
1
40
1
40
1
10
77.632111697458612
20
169.09689137661326
30
0
10
77.799862962041274
20
168.98705568839827
30
0
10
77.88196055615154
20
168.83206375598894
30
0
0
SPLINE
5
374
100
AcDbEntity
8
0
100
AcDbSpline
70
0
71
2
72
6
73
3
74
0
42
0.000000001
43
0.0000000001
44
0.0000000001
40
0
40
0
40
0
40
1
40
1
40
1
10
77.88196055615154
20
168.83206375598894
30
0
10
77.964058448283978
20
168.67707182436641
30
0
10
77.96473231389794
20
168.42179794114759
30
0
0
SPLINE
5
375
100
AcDbEntity
8
0
100
AcDbSpline
70
0
71
2
72
6
73
3
74
0
42
0.000000001
43
0.0000000001
44
0.0000000001
40
0
40
0
40
0
40
1
40
1
40
1
10
77.96473231389794
20
168.42179794114759
30
0
10
77.965670338357
20
168.06645536056763
30
0
10
77.715185872293233
20
167.79826371820124
30
0
0
SPLINE
5
376
100
AcDbEntity
8
0
100
AcDbSpline
70
0
71
2
72
6
73
3
74
0
42
0.000000001
43
0.0000000001
44
0.0000000001
40
0
40
0
40
0
40
1
40
1
40
1
10
77.715185872293233
20
167.79826371820124
30
0
10
77.462654262542415
20
167.53210992617812
30
0
10
76.880627663043825
20
167.53057350691404
30
0
0
SPLINE
5
377
100
AcDbEntity
8
0
100
AcDbSpline
70
0
71
2
72
6
73
3
74
0
42
0.000000001
43
0.0000000001
44
0.0000000001
40
0
40
0
40
0
40
1
40
1
40
1
10
76.880627663043825
20
167.53057350691404
30
0
10
76.331276215964351
20
167.52912334270025
30
0
10
76.022197951795476
20
167.79583786536293
30
0
0
SPLINE
5
378
100
AcDbEntity
8
0
100
AcDbSpline
70
0
71
2
72
6
73
3
74
0
42
0.000000001
43
0.0000000001
44
0.0000000001
40
0
40
0
40
0
40
1
40
1
40
1
10
76.022197951795476
20
167.79583786536293
30
0
10
75.713114449237267
20
168.0645932443453
30
0
10
75.71211173191702
20
168.44444278528397
30
0
0
SPLINE
5
379
100
AcDbEntity
8
0
100
AcDbSpline
70
0
71
2
72
6
73
3
74
0
42
0.000000001
43
0.0000000001
44
0.0000000001
40
0
40
0
40
0
40
1
40
1
40
1
10
76.833574178183412
20
169.10907904504839
30
0
10
76.427176671948601
20
169.10800624707321
30
0
10
76.231567664769116
20
168.94002885825211
30
0
0
SPLINE
5
380
100
AcDbEntity
8
0
100
AcDbSpline
70
0
71
2
72
6
73
3
74
0
42
0.000000001
43
0.0000000001
44
0.0000000001
40
0
40
0
40
0
40
1
40
1
40
1
10
76.231567664769116
20
168.94002885825211
30
0
10
76.035958657589646
20
168.77205146943106
30
0
10
76.036643310591856
20
168.51269110600455
30
0
0
SPLINE
5
381
100
AcDbEntity
8
0
100
AcDbSpline
70
0
71
2
72
6
73
3
74
0
42
0.000000001
43
0.0000000001
44
0.0000000001
40
0
40
0
40
0
40
1
40
1
40
1
10
76.036643310591856
20
168.51269110600455
30
0
10
76.037667590101265
20
168.12467337300549
30
0
10
76.401556322271063
20
167.98268006346012
30
0
0
SPLINE
5
382
100
AcDbEntity
8
0
100
AcDbSpline
70
0
71
2
72
6
73
3
74
0
42
0.000000001
43
0.0000000001
44
0.0000000001
40
0
40
0
40
0
40
1
40
1
40
1
10
76.401556322271063
20
167.98268006346012
30
0
10
76.595764654754547
20
167.90763046621237
30
0
10
76.910263294810619
20
167.90846067185853
30
0
0
SPLINE
5
383
100
AcDbEntity
8
0
100
AcDbSpline
70
0
71
2
72
6
73
3
74
0
42
0.000000001
43
0.0000000001
44
0.0000000001
40
0
40
0
40
0
40
1
40
1
40
1
10
76.910263294810619
20
167.90846067185853
30
0
10
77.279901254573929
20
167.90943643290211
30
0
10
77.473516582799675
20
168.0590288065579
30
0
0
SPLINE
5
384
100
AcDbEntity
8
0
100
AcDbSpline
70
0
71
2
72
6
73
3
74
0
42
0.000000001
43
0.0000000001
44
0.0000000001
40
0
40
0
40
0
40
1
40
1
40
1
10
77.473516582799675
20
168.0590288065579
30
0
10
77.665084171293998
20
168.21065902898351
30
0
10
77.6644156930805
20
168.46389205627594
30
0
0
SPLINE
5
385
100
AcDbEntity
8
0
100
AcDbSpline
70
0
71
2
72
6
73
3
74
0
42
0.000000001
43
0.0000000001
44
0.0000000001
40
0
40
0
40
0
40
1
40
1
40
1
10
77.6644156930805
20
168.46389205627594
30
0
10
77.66336985138193
20
168.86007798133539
30
0
10
77.305559341229355
20
169.02046708832074
30
0
0
SPLINE
5
386
100
AcDbEntity
8
0
100
AcDbSpline
70
0
71
2
72
6
73
3
74
0
42
0.000000001
43
0.0000000001
44
0.0000000001
40
0
40
0
40
0
40
1
40
1
40
1
10
77.305559341229355
20
169.02046708832074
30
0
10
77.103144483663201
20
169.10979065000035
30
0
10
76.833574178183412
20
169.10907904504839
30
0
0
LINE
5
387
100
AcDbEntity
8
0
100
AcDbLine
10
75.746810814671846
20
169.99865938486295
30
0
11
75.745888965001484
21
170.34787462930888
31
0
0
LINE
5
388
100
AcDbEntity
8
0
100
AcDbLine
10
75.745888965001484
20
170.34787462930882
30
0
11
76.056303211005172
21
170.3486940530737
31
0
0
SPLINE
5
389
100
AcDbEntity
8
0
100
AcDbSpline
70
0
71
2
72
6
73
3
74
0
42
0.000000001
43
0.0000000001
44
0.0000000001
40
0
40
0
40
0
40
1
40
1
40
1
10
76.056303211005172
20
170.34869405307373
30
0
10
75.863926828469332
20
170.50339487429477
30
0
10
75.77973851926042
20
170.67676103998807
30
0
0
SPLINE
5
390
100
AcDbEntity
8
0
100
AcDbSpline
70
0
71
2
72
6
73
3
74
0
42
0.000000001
43
0.0000000001
44
0.0000000001
40
0
40
0
40
0
40
1
40
1
40
1
10
75.77973851926042
20
170.67676103998807
30
0
10
75.695550061040407
20
170.850127205288
30
0
10
75.694989406360094
20
171.06251450392347
30
0
0
SPLINE
5
391
100
AcDbEntity
8
0
100
AcDbSpline
70
0
71
2
72
6
73
3
74
0
42
0.000000001
43
0.0000000001
44
0.0000000001
40
0
40
0
40
0
40
1
40
1
40
1
10
75.694989406360094
20
171.06251450392347
30
0
10
75.693760267172593
20
171.52813721402879
30
0
10
76.018038617107976
20
171.69237013647373
30
0
0
SPLINE
5
392
100
AcDbEntity
8
0
100
AcDbSpline
70
0
71
2
72
6
73
3
74
0
42
0.000000001
43
0.0000000001
44
0.0000000001
40
0
40
0
40
0
40
1
40
1
40
1
10
76.018038617107976
20
171.69237013647373
30
0
10
76.195472710729803
20
171.78269402972268
30
0
10
76.526308926995426
20
171.78356736289402
30
0
0
LINE
5
393
100
AcDbEntity
8
0
100
AcDbLine
10
76.526308926995426
20
171.78356736289402
30
0
11
77.929299327068392
21
171.78727094187113
31
0
0
LINE
5
394
100
AcDbEntity
8
0
100
AcDbLine
10
77.929299327068392
20
171.78727094187113
30
0
11
77.930285869599928
21
171.41354873706655
31
0
0
LINE
5
395
100
AcDbEntity
8
0
100
AcDbLine
10
77.930285869599928
20
171.41354873706655
30
0
11
76.551801833841296
21
171.40990984937716
31
0
0
SPLINE
5
396
100
AcDbEntity
8
0
100
AcDbSpline
70
0
71
2
72
6
73
3
74
0
42
0.000000001
43
0.0000000001
44
0.0000000001
40
0
40
0
40
0
40
1
40
1
40
1
10
76.551801833841282
20
171.40990984937716
30
0
10
76.351666376263168
20
171.40938153680051
30
0
10
76.229290740992383
20
171.34983511126424
30
0
0
SPLINE
5
397
100
AcDbEntity
8
0
100
AcDbSpline
70
0
71
2
72
6
73
3
74
0
42
0.000000001
43
0.0000000001
44
0.0000000001
40
0
40
0
40
0
40
1
40
1
40
1
10
76.229290740992383
20
171.34983511126424
30
0
10
76.025329654512888
20
171.25127055954897
30
0
10
76.026008913820959
20
170.99395343622635
30
0
0
SPLINE
5
398
100
AcDbEntity
8
0
100
AcDbSpline
70
0
71
2
72
6
73
3
74
0
42
0.000000001
43
0.0000000001
44
0.0000000001
40
0
40
0
40
0
40
1
40
1
40
1
10
76.026008913820959
20
170.99395343622635
30
0
10
76.026353934022296
20
170.86325282654994
30
0
10
76.053123523535945
20
170.77959297971546
30
0
0
SPLINE
5
399
100
AcDbEntity
8
0
100
AcDbSpline
70
0
71
2
72
6
73
3
74
0
42
0.000000001
43
0.0000000001
44
0.0000000001
40
0
40
0
40
0
40
1
40
1
40
1
10
76.053123523535945
20
170.77959297971546
30
0
10
76.098450790080122
20
170.62858810640478
30
0
10
76.233537832349342
20
170.5145820675026
30
0
0
SPLINE
5
400
100
AcDbEntity
8
0
100
AcDbSpline
70
0
71
2
72
6
73
3
74
0
42
0.000000001
43
0.0000000001
44
0.0000000001
40
0
40
0
40
0
40
1
40
1
40
1
10
76.233537832349342
20
170.5145820675026
30
0
10
76.342017020404697
20
170.42296728244946
30
0
10
76.458497724853501
20
170.39468350967735
30
0
0
SPLINE
5
401
100
AcDbEntity
8
0
100
AcDbSpline
70
0
71
2
72
6
73
3
74
0
42
0.000000001
43
0.0000000001
44
0.0000000001
40
0
40
0
40
0
40
1
40
1
40
1
10
76.458497724853501
20
170.39468350967735
30
0
10
76.572930987593082
20
170.36843758646182
30
0
10
76.787361824354548
20
170.36900363562296
30
0
0
LINE
5
402
100
AcDbEntity
8
0
100
AcDbLine
10
76.787361824354548
20
170.36900363562296
30
0
11
77.933035250115978
21
170.37202795568535
31
0
0
LINE
5
403
100
AcDbEntity
8
0
100
AcDbLine
10
77.933035250115978
20
170.37202795568535
30
0
11
77.934005617858787
21
170.0044330870148
31
0
0
LINE
5
404
100
AcDbEntity
8
0
100
AcDbLine
10
77.934005617858787
20
170.0044330870148
30
0
11
75.746810814671846
21
169.99865938486292
31
0
0
SPLINE
5
405
100
AcDbEntity
8
0
100
AcDbSpline
70
0
71
2
72
6
73
3
74
0
42
0.000000001
43
0.0000000001
44
0.0000000001
40
0
40
0
40
0
40
1
40
1
40
1
10
77.241109708181867
20
172.54719952204439
30
0
10
77.424864607889518
20
172.56402347578754
30
0
10
77.522690599162871
20
172.63984397794098
30
0
0
SPLINE
5
406
100
AcDbEntity
8
0
100
AcDbSpline
70
0
71
2
72
6
73
3
74
0
42
0.000000001
43
0.0000000001
44
0.0000000001
40
0
40
0
40
0
40
1
40
1
40
1
10
77.522690599162871
20
172.63984397794098
30
0
10
77.699995307062352
20
172.77918179190735
30
0
10
77.699089625887012
20
173.12227208439668
30
0
0
SPLINE
5
407
100
AcDbEntity
8
0
100
AcDbSpline
70
0
71
2
72
6
73
3
74
0
42
0.000000001
43
0.0000000001
44
0.0000000001
40
0
40
0
40
0
40
1
40
1
40
1
10
77.699089625887012
20
173.12227208439668
30
0
10
77.69855053339586
20
173.32649119097172
30
0
10
77.610326199195924
20
173.4814669501657
30
0
0
SPLINE
5
408
100
AcDbEntity
8
0
100
AcDbSpline
70
0
71
2
72
6
73
3
74
0
42
0.000000001
43
0.0000000001
44
0.0000000001
40
0
40
0
40
0
40
1
40
1
40
1
10
77.610326199195924
20
173.4814669501657
30
0
10
77.520059823274579
20
173.63643493463491
30
0
10
77.334219744879832
20
173.63594435864283
30
0
0
SPLINE
5
409
100
AcDbEntity
8
0
100
AcDbSpline
70
0
71
2
72
6
73
3
74
0
42
0.000000001
43
0.0000000001
44
0.0000000001
40
0
40
0
40
0
40
1
40
1
40
1
10
77.334219744879832
20
173.63594435864283
30
0
10
77.193308001061339
20
173.63557238334491
30
0
10
77.120117753530963
20
173.51080503593926
30
0
0
SPLINE
5
410
100
AcDbEntity
8
0
100
AcDbSpline
70
0
71
2
72
6
73
3
74
0
42
0.000000001
43
0.0000000001
44
0.0000000001
40
0
40
0
40
0
40
1
40
1
40
1
10
77.120117753530963
20
173.51080503593926
30
0
10
77.075399666033235
20
173.43104060221239
30
0
10
77.016795763403564
20
173.19603086147254
30
0
0
LINE
5
411
100
AcDbEntity
8
0
100
AcDbLine
10
77.016795763403564
20
173.19603086147254
30
0
11
76.944047572219432
21
172.90380365594118
31
0
0
SPLINE
5
412
100
AcDbEntity
8
0
100
AcDbSpline
70
0
71
2
72
6
73
3
74
0
42
0.000000001
43
0.0000000001
44
0.0000000001
40
0
40
0
40
0
40
1
40
1
40
1
10
76.944047572219432
20
172.9038036559412
30
0
10
76.875351431803949
20
172.62383952038175
30
0
10
76.78992942158817
20
172.49086925070102
30
0
0
SPLINE
5
413
100
AcDbEntity
8
0
100
AcDbSpline
70
0
71
2
72
6
73
3
74
0
42
0.000000001
43
0.0000000001
44
0.0000000001
40
0
40
0
40
0
40
1
40
1
40
1
10
76.78992942158817
20
172.49086925070102
30
0
10
76.641474237206396
20
172.25358145264636
30
0
10
76.378030671816276
20
172.2528860209097
30
0
0
SPLINE
5
414
100
AcDbEntity
8
0
100
AcDbSpline
70
0
71
2
72
6
73
3
74
0
42
0.000000001
43
0.0000000001
44
0.0000000001
40
0
40
0
40
0
40
1
40
1
40
1
10
76.378030671816276
20
172.2528860209097
30
0
10
76.067616425812588
20
172.25206659714485
30
0
10
75.875062145775644
20
172.47415857913046
30
0
0
SPLINE
5
415
100
AcDbEntity
8
0
100
AcDbSpline
70
0
71
2
72
6
73
3
74
0
42
0.000000001
43
0.0000000001
44
0.0000000001
40
0
40
0
40
0
40
1
40
1
40
1
10
75.875062145775644
20
172.47415857913046
30
0
10
75.682502472044575
20
172.69829380121993
30
0
10
75.681505148418452
20
173.07610010205477
30
0
0
SPLINE
5
416
100
AcDbEntity
8
0
100
AcDbSpline
70
0
71
2
72
6
73
3
74
0
42
0.000000001
43
0.0000000001
44
0.0000000001
40
0
40
0
40
0
40
1
40
1
40
1
10
75.681505148418452
20
173.07610010205477
30
0
10
75.68020054156888
20
173.57031148437153
30
0
10
75.969615981547904
20
173.7895940176769
30
0
0
SPLINE
5
417
100
AcDbEntity
8
0
100
AcDbSpline
70
0
71
2
72
6
73
3
74
0
42
0.000000001
43
0.0000000001
44
0.0000000001
40
0
40
0
40
0
40
1
40
1
40
1
10
75.969615981547904
20
173.7895940176769
30
0
10
76.153052674220106
20
173.92690476436138
30
0
10
76.36545209504996
20
173.92338132655169
30
0
0
LINE
5
418
100
AcDbEntity
8
0
100
AcDbLine
10
76.36545209504996
20
173.92338132655169
30
0
11
76.366368551026198
21
173.57620932220965
31
0
0
SPLINE
5
419
100
AcDbEntity
8
0
100
AcDbSpline
70
0
71
2
72
6
73
3
74
0
42
0.000000001
43
0.0000000001
44
0.0000000001
40
0
40
0
40
0
40
1
40
1
40
1
10
76.366368551026198
20
173.57620932220959
30
0
10
76.241821339300557
20
173.56566904227265
30
0
10
76.139916347668944
20
173.48779451813402
30
0
0
SPLINE
5
420
100
AcDbEntity
8
0
100
AcDbSpline
70
0
71
2
72
6
73
3
74
0
42
0.000000001
43
0.0000000001
44
0.0000000001
40
0
40
0
40
0
40
1
40
1
40
1
10
76.139916347668944
20
173.48779451813402
30
0
10
75.995254448904831
20
173.36079524730863
30
0
10
75.996079262430271
20
173.04833925131203
30
0
0
SPLINE
5
421
100
AcDbEntity
8
0
100
AcDbSpline
70
0
71
2
72
6
73
3
74
0
42
0.000000001
43
0.0000000001
44
0.0000000001
40
0
40
0
40
0
40
1
40
1
40
1
10
75.996079262430271
20
173.04833925131203
30
0
10
75.996629136016011
20
172.84003604870676
30
0
10
76.076560541071871
20
172.73200940597039
30
0
0
SPLINE
5
422
100
AcDbEntity
8
0
100
AcDbSpline
70
0
71
2
72
6
73
3
74
0
42
0.000000001
43
0.0000000001
44
0.0000000001
40
0
40
0
40
0
40
1
40
1
40
1
10
76.076560541071871
20
172.73200940597039
30
0
10
76.156486701444692
20
172.62602600373123
30
0
10
76.287187460132202
20
172.62637102432592
30
0
0
SPLINE
5
423
100
AcDbEntity
8
0
100
AcDbSpline
70
0
71
2
72
6
73
3
74
0
42
0.000000001
43
0.0000000001
44
0.0000000001
40
0
40
0
40
0
40
1
40
1
40
1
10
76.287187460132202
20
172.62637102432592
30
0
10
76.430141251965779
20
172.62674839017112
30
0
10
76.515541699992411
20
172.76788685191224
30
0
0
SPLINE
5
424
100
AcDbEntity
8
0
100
AcDbSpline
70
0
71
2
72
6
73
3
74
0
42
0.000000001
43
0.0000000001
44
0.0000000001
40
0
40
0
40
0
40
1
40
1
40
1
10
76.515541699992411
20
172.76788685191224
30
0
10
76.566380991168273
20
172.84970831438741
30
0
10
76.604762240508876
20
173.00910240832502
30
0
0
LINE
5
425
100
AcDbEntity
8
0
100
AcDbLine
10
76.604762240508876
20
173.00910240832502
30
0
11
76.663344580949385
21
173.25228034112527
31
0
0
SPLINE
5
426
100
AcDbEntity
8
0
100
AcDbSpline
70
0
71
2
72
6
73
3
74
0
42
0.000000001
43
0.0000000001
44
0.0000000001
40
0
40
0
40
0
40
1
40
1
40
1
10
76.663344580949385
20
173.25228034112527
30
0
10
76.758281999481937
20
173.64871964039509
30
0
10
76.847783016349666
20
173.78374154788347
30
0
0
SPLINE
5
427
100
AcDbEntity
8
0
100
AcDbSpline
70
0
71
2
72
6
73
3
74
0
42
0.000000001
43
0.0000000001
44
0.0000000001
40
0
40
0
40
0
40
1
40
1
40
1
10
76.847783016349666
20
173.78374154788347
30
0
10
76.988128705500003
20
173.99854644609817
30
0
10
77.290373865376722
20
173.99934430531374
30
0
0
SPLINE
5
428
100
AcDbEntity
8
0
100
AcDbSpline
70
0
71
2
72
6
73
3
74
0
42
0.000000001
43
0.0000000001
44
0.0000000001
40
0
40
0
40
0
40
1
40
1
40
1
10
77.290373865376722
20
173.99934430531374
30
0
10
77.58240848715576
20
174.00011521100618
30
0
10
77.795384594737243
20
173.77807475385612
30
0
0
SPLINE
5
429
100
AcDbEntity
8
0
100
AcDbSpline
70
0
71
2
72
6
73
3
74
0
42
0.000000001
43
0.0000000001
44
0.0000000001
40
0
40
0
40
0
40
1
40
1
40
1
10
77.795384594737243
20
173.77807475385612
30
0
10
78.008355606646774
20
173.55807753759666
30
0
10
78.009552396256851
20
173.10470949975939
30
0
0
SPLINE
5
430
100
AcDbEntity
8
0
100
AcDbSpline
70
0
71
2
72
6
73
3
74
0
42
0.000000001
43
0.0000000001
44
0.0000000001
40
0
40
0
40
0
40
1
40
1
40
1
10
78.009552396256851
20
173.10470949975939
30
0
10
78.010840828317697
20
172.61662545357669
30
0
10
77.790822343957714
20
172.41182412462521
30
0
0
SPLINE
5
431
100
AcDbEntity
8
0
100
AcDbSpline
70
0
71
2
72
6
73
3
74
0
42
0.000000001
43
0.0000000001
44
0.0000000001
40
0
40
0
40
0
40
1
40
1
40
1
10
77.790822343957714
20
172.41182412462521
30
0
10
77.568756424182169
20
172.20905826105277
30
0
10
77.242042338946817
20
172.1939001815683
30
0
0
LINE
5
432
100
AcDbEntity
8
0
100
AcDbLine
10
77.242042338946817
20
172.1939001815683
30
0
11
77.241109708181881
21
172.54719952204439
31
0
0
LINE
5
433
100
AcDbEntity
8
0
100
AcDbLine
10
74.916629857414506
20
176.58260381733885
30
0
11
76.677144525340552
21
177.30815279676722
31
0
0
LINE
5
434
100
AcDbEntity
8
0
100
AcDbLine
10
76.677144525340552
20
177.30815279676722
30
0
11
76.678023250632592
21
176.97527393644211
31
0
0
LINE
5
435
100
AcDbEntity
8
0
100
AcDbLine
10
76.678023250632577
20
176.97527393644211
30
0
11
75.327521619775283
21
176.42847982755359
31
0
0
LINE
5
436
100
AcDbEntity
8
0
100
AcDbLine
10
75.327521619775283
20
176.42847982755359
30
0
11
76.680885842082262
21
175.89086657047761
31
0
0
LINE
5
437
100
AcDbEntity
8
0
100
AcDbLine
10
76.680885842082262
20
175.89086657047761
30
0
11
76.681769954774751
21
175.55594685422616
31
0
0
LINE
5
438
100
AcDbEntity
8
0
100
AcDbLine
10
76.681769954774751
20
175.55594685422616
30
0
11
74.917460064634085
21
176.26810458123842
31
0
0
LINE
5
439
100
AcDbEntity
8
0
100
AcDbLine
10
74.917460064634085
20
176.26810458123842
30
0
11
74.916629857414506
21
176.58260381733885
31
0
0
SPLINE
5
440
100
AcDbEntity
8
0
100
AcDbSpline
70
0
71
2
72
6
73
3
74
0
42
0.000000001
43
0.0000000001
44
0.0000000001
40
0
40
0
40
0
40
1
40
1
40
1
10
78.340711635556787
20
177.62500002875282
30
0
10
78.315832997135644
20
177.76584737851903
30
0
10
78.142095451008743
20
177.82257126173531
30
0
0
SPLINE
5
441
100
AcDbEntity
8
0
100
AcDbSpline
70
0
71
2
72
6
73
3
74
0
42
0.000000001
43
0.0000000001
44
0.0000000001
40
0
40
0
40
0
40
1
40
1
40
1
10
78.142095451008743
20
177.82257126173531
30
0
10
78.050115568169019
20
177.85296296550564
30
0
10
77.964343293068879
20
177.85273654599851
30
0
0
SPLINE
5
442
100
AcDbEntity
8
0
100
AcDbSpline
70
0
71
2
72
6
73
3
74
0
42
0.000000001
43
0.0000000001
44
0.0000000001
40
0
40
0
40
0
40
1
40
1
40
1
10
77.964343293068879
20
177.85273654599851
30
0
10
77.950047764874427
20
177.85269880902064
30
0
10
77.937799976411398
20
177.85062322327292
30
0
0
SPLINE
5
443
100
AcDbEntity
8
0
100
AcDbSpline
70
0
71
2
72
6
73
3
74
0
42
0.000000001
43
0.0000000001
44
0.0000000001
40
0
40
0
40
0
40
1
40
1
40
1
10
77.937799976411398
20
177.85062322327292
30
0
10
77.927589140291516
20
177.85059626896305
30
0
10
77.913304393191652
20
177.84647443595497
30
0
0
LINE
5
444
100
AcDbEntity
8
0
100
AcDbLine
10
77.913304393191652
20
177.84647443595497
30
0
11
77.913892010048954
21
177.62387332097776
31
0
0
LINE
5
445
100
AcDbEntity
8
0
100
AcDbLine
10
77.91389201004894
20
177.62387332097779
30
0
11
77.468692760316443
21
177.62269809513032
31
0
0
LINE
5
446
100
AcDbEntity
8
0
100
AcDbLine
10
77.468692760316458
20
177.62269809513029
30
0
11
77.467539095084703
21
178.05972974884673
31
0
0
LINE
5
447
100
AcDbEntity
8
0
100
AcDbLine
10
77.467539095084703
20
178.05972974884673
30
0
11
77.880063192398097
21
178.06081871964392
31
0
0
SPLINE
5
448
100
AcDbEntity
8
0
100
AcDbSpline
70
0
71
2
72
6
73
3
74
0
42
0.000000001
43
0.0000000001
44
0.0000000001
40
0
40
0
40
0
40
1
40
1
40
1
10
77.880063192398097
20
178.06081871964392
30
0
10
78.123084787526281
20
178.06146024197409
30
0
10
78.307141285034731
20
177.9639199693749
30
0
0
SPLINE
5
449
100
AcDbEntity
8
0
100
AcDbSpline
70
0
71
2
72
6
73
3
74
0
42
0.000000001
43
0.0000000001
44
0.0000000001
40
0
40
0
40
0
40
1
40
1
40
1
10
78.307141285034731
20
177.9639199693749
30
0
10
78.491198080565383
20
177.86637969756242
30
0
10
78.534720502056302
20
177.62551216850753
30
0
0
LINE
5
450
100
AcDbEntity
8
0
100
AcDbLine
10
78.534720502056302
20
177.62551216850753
30
0
11
78.340711635556787
21
177.62500002875282
31
0
0
LINE
5
451
100
AcDbEntity
8
0
100
AcDbLine
10
74.90531426473855
20
180.86917850455313
30
0
11
76.665828932664596
21
181.5947274839815
31
0
0
LINE
5
452
100
AcDbEntity
8
0
100
AcDbLine
10
76.665828932664596
20
181.59472748398147
30
0
11
76.666707657956636
21
181.26184862365636
31
0
0
LINE
5
453
100
AcDbEntity
8
0
100
AcDbLine
10
76.666707657956636
20
181.26184862365642
30
0
11
75.316206027099341
21
180.71505451476787
31
0
0
LINE
5
454
100
AcDbEntity
8
0
100
AcDbLine
10
75.316206027099341
20
180.71505451476787
30
0
11
76.66957024940632
21
180.1774412576919
31
0
0
LINE
5
455
100
AcDbEntity
8
0
100
AcDbLine
10
76.66957024940632
20
180.17744125769187
30
0
11
76.670454362098809
21
179.84252154144042
31
0
0
LINE
5
456
100
AcDbEntity
8
0
100
AcDbLine
10
76.670454362098809
20
179.84252154144042
30
0
11
74.906144471958129
21
180.55467926845267
31
0
0
LINE
5
457
100
AcDbEntity
8
0
100
AcDbLine
10
74.906144471958129
20
180.55467926845267
30
0
11
74.90531426473855
21
180.8691785045531
31
0
0
SPLINE
5
458
100
AcDbEntity
8
0
100
AcDbSpline
70
0
71
2
72
6
73
3
74
0
42
0.000000001
43
0.0000000001
44
0.0000000001
40
0
40
0
40
0
40
1
40
1
40
1
10
81.93195411731763
20
146.28855731337052
30
0
10
81.931274858009544
20
146.54587443669317
30
0
10
81.716396870803308
20
146.71481089050391
30
0
0
SPLINE
5
459
100
AcDbEntity
8
0
100
AcDbSpline
70
0
71
2
72
6
73
3
74
0
42
0.000000001
43
0.0000000001
44
0.0000000001
40
0
40
0
40
0
40
1
40
1
40
1
10
81.716396870803308
20
146.71481089050391
30
0
10
81.499470848596957
20
146.88578414922014
30
0
10
81.070609175073997
20
146.88465205089781
30
0
0
SPLINE
5
460
100
AcDbEntity
8
0
100
AcDbSpline
70
0
71
2
72
6
73
3
74
0
42
0.000000001
43
0.0000000001
44
0.0000000001
40
0
40
0
40
0
40
1
40
1
40
1
10
81.070609175073997
20
146.88465205089781
30
0
10
80.809207955721178
20
146.88396201049517
30
0
10
80.621525294508572
20
146.80790460497548
30
0
0
SPLINE
5
461
100
AcDbEntity
8
0
100
AcDbSpline
70
0
71
2
72
6
73
3
74
0
42
0.000000001
43
0.0000000001
44
0.0000000001
40
0
40
0
40
0
40
1
40
1
40
1
10
80.621525294508572
20
146.80790460497548
30
0
10
80.260433339684155
20
146.66399661546754
30
0
10
80.261436055824333
20
146.28414752156215
30
0
0
SPLINE
5
462
100
AcDbEntity
8
0
100
AcDbSpline
70
0
71
2
72
6
73
3
74
0
42
0.000000001
43
0.0000000001
44
0.0000000001
40
0
40
0
40
0
40
1
40
1
40
1
10
80.261436055824333
20
146.28414752156215
30
0
10
80.262444162511798
20
145.9022563796417
30
0
10
80.64470713052242
20
145.76235281662287
30
0
0
SPLINE
5
463
100
AcDbEntity
8
0
100
AcDbSpline
70
0
71
2
72
6
73
3
74
0
42
0.000000001
43
0.0000000001
44
0.0000000001
40
0
40
0
40
0
40
1
40
1
40
1
10
80.64470713052242
20
145.76235281662287
30
0
10
80.849126298142394
20
145.68733054621271
30
0
10
81.163624938198467
20
145.68816075185887
30
0
0
SPLINE
5
464
100
AcDbEntity
8
0
100
AcDbSpline
70
0
71
2
72
6
73
3
74
0
42
0.000000001
43
0.0000000001
44
0.0000000001
40
0
40
0
40
0
40
1
40
1
40
1
10
81.163624938198467
20
145.68816075185887
30
0
10
81.416857965490905
20
145.68882923007237
30
0
10
81.594329194735934
20
145.76485960520321
30
0
0
SPLINE
5
465
100
AcDbEntity
8
0
100
AcDbSpline
70
0
71
2
72
6
73
3
74
0
42
0.000000001
43
0.0000000001
44
0.0000000001
40
0
40
0
40
0
40
1
40
1
40
1
10
81.594329194735934
20
145.76485960520321
30
0
10
81.932956833064452
20
145.90870836847625
30
0
10
81.93195411731763
20
146.28855731337052
30
0
0
LINE
5
466
100
AcDbEntity
8
0
100
AcDbLine
10
80.00458846865159
20
145.33179834812424
30
0
11
80.003645053350212
21
145.68918308847762
31
0
0
LINE
5
467
100
AcDbEntity
8
0
100
AcDbLine
10
80.003645053350212
20
145.68918308847762
30
0
11
80.293637329091951
21
145.68994860283601
31
0
0
SPLINE
5
468
100
AcDbEntity
8
0
100
AcDbSpline
70
0
71
2
72
6
73
3
74
0
42
0.000000001
43
0.0000000001
44
0.0000000001
40
0
40
0
40
0
40
1
40
1
40
1
10
80.293637329091951
20
145.68994860283601
30
0
10
80.144265984199322
20
145.79983377848228
30
0
10
80.062233082556872
20
145.93031889954395
30
0
0
SPLINE
5
469
100
AcDbEntity
8
0
100
AcDbSpline
70
0
71
2
72
6
73
3
74
0
42
0.000000001
43
0.0000000001
44
0.0000000001
40
0
40
0
40
0
40
1
40
1
40
1
10
80.062233082556872
20
145.93031889954395
30
0
10
79.939210684993114
20
146.11583552149997
30
0
10
79.93854759870365
20
146.36702597923846
30
0
0
SPLINE
5
470
100
AcDbEntity
8
0
100
AcDbSpline
70
0
71
2
72
6
73
3
74
0
42
0.000000001
43
0.0000000001
44
0.0000000001
40
0
40
0
40
0
40
1
40
1
40
1
10
79.93854759870365
20
146.36702597923846
30
0
10
79.937566446719401
20
146.73870613602796
30
0
10
80.222789380531196
20
146.99882003905611
30
0
0
SPLINE
5
471
100
AcDbEntity
8
0
100
AcDbSpline
70
0
71
2
72
6
73
3
74
0
42
0.000000001
43
0.0000000001
44
0.0000000001
40
0
40
0
40
0
40
1
40
1
40
1
10
80.222789380531196
20
146.99882003905611
30
0
10
80.505970265934536
20
147.25892870054807
30
0
10
81.034900040774275
20
147.26032495614209
30
0
0
SPLINE
5
472
100
AcDbEntity
8
0
100
AcDbSpline
70
0
71
2
72
6
73
3
74
0
42
0.000000001
43
0.0000000001
44
0.0000000001
40
0
40
0
40
0
40
1
40
1
40
1
10
81.034900040774275
20
147.26032495614209
30
0
10
81.749669297964388
20
147.26221178615481
30
0
10
82.056985692840556
20
146.88929807422269
30
0
0
SPLINE
5
473
100
AcDbEntity
8
0
100
AcDbSpline
70
0
71
2
72
6
73
3
74
0
42
0.000000001
43
0.0000000001
44
0.0000000001
40
0
40
0
40
0
40
1
40
1
40
1
10
82.056985692840556
20
146.88929807422269
30
0
10
82.251619908848355
20
146.65291520992778
30
0
10
82.252450114691186
20
146.33841649536618
30
0
0
SPLINE
5
474
100
AcDbEntity
8
0
100
AcDbSpline
70
0
71
2
72
6
73
3
74
0
42
0.000000001
43
0.0000000001
44
0.0000000001
40
0
40
0
40
0
40
1
40
1
40
1
10
82.252450114691186
20
146.33841649536618
30
0
10
82.253102419099363
20
146.09131043168006
30
0
10
82.145308183248474
20
145.92356440706018
30
0
0
SPLINE
5
475
100
AcDbEntity
8
0
100
AcDbSpline
70
0
71
2
72
6
73
3
74
0
42
0.000000001
43
0.0000000001
44
0.0000000001
40
0
40
0
40
0
40
1
40
1
40
1
10
82.145308183248474
20
145.92356440706018
30
0
10
82.084300739788148
20
145.82537714629123
30
0
10
81.935538571581858
20
145.70449390896647
30
0
0
LINE
5
476
100
AcDbEntity
8
0
100
AcDbLine
10
81.935538571581858
20
145.70449390896647
30
0
11
83.05262108996547
21
145.70744275546647
31
0
0
LINE
5
477
100
AcDbEntity
8
0
100
AcDbLine
10
83.052621089965456
20
145.70744275546647
30
0
11
83.053591459970079
21
145.33984702998214
31
0
0
LINE
5
478
100
AcDbEntity
8
0
100
AcDbLine
10
83.053591459970079
20
145.33984702998214
30
0
11
80.004588468651576
21
145.33179834812424
31
0
0
SPLINE
5
479
100
AcDbEntity
8
0
100
AcDbSpline
70
0
71
2
72
6
73
3
74
0
42
0.000000001
43
0.0000000001
44
0.0000000001
40
0
40
0
40
0
40
1
40
1
40
1
10
81.936170818763514
20
148.55950915051471
30
0
10
81.935205839207853
20
148.92506286523675
30
0
10
81.659153290364642
20
149.05911979356284
30
0
0
SPLINE
5
480
100
AcDbEntity
8
0
100
AcDbSpline
70
0
71
2
72
6
73
3
74
0
42
0.000000001
43
0.0000000001
44
0.0000000001
40
0
40
0
40
0
40
1
40
1
40
1
10
81.659153290364642
20
149.05911979356284
30
0
10
81.381052705341261
20
149.19521397382769
30
0
10
81.042047700970855
20
149.19431907689378
30
0
0
SPLINE
5
481
100
AcDbEntity
8
0
100
AcDbSpline
70
0
71
2
72
6
73
3
74
0
42
0.000000001
43
0.0000000001
44
0.0000000001
40
0
40
0
40
0
40
1
40
1
40
1
10
81.042047700970855
20
149.19431907689378
30
0
10
80.735717849019565
20
149.19351043501021
30
0
10
80.544009795686136
20
149.09497822854547
30
0
0
SPLINE
5
482
100
AcDbEntity
8
0
100
AcDbSpline
70
0
71
2
72
6
73
3
74
0
42
0.000000001
43
0.0000000001
44
0.0000000001
40
0
40
0
40
0
40
1
40
1
40
1
10
80.544009795686136
20
149.09497822854547
30
0
10
80.242174347298487
20
148.93897339533913
30
0
10
80.243177063045309
20
148.55912445044487
30
0
0
SPLINE
5
483
100
AcDbEntity
8
0
100
AcDbSpline
70
0
71
2
72
6
73
3
74
0
42
0.000000001
43
0.0000000001
44
0.0000000001
40
0
40
0
40
0
40
1
40
1
40
1
10
80.243177063045309
20
148.55912445044487
30
0
10
80.244066569431936
20
148.22216149408956
30
0
10
80.50178801369637
20
148.069675827422
30
0
0
SPLINE
5
484
100
AcDbEntity
8
0
100
AcDbSpline
70
0
71
2
72
6
73
3
74
0
42
0.000000001
43
0.0000000001
44
0.0000000001
40
0
40
0
40
0
40
1
40
1
40
1
10
80.50178801369637
20
148.069675827422
30
0
10
80.759509457174076
20
147.91719045877662
30
0
10
81.123020825858816
20
147.91815004699828
30
0
0
SPLINE
5
485
100
AcDbEntity
8
0
100
AcDbSpline
70
0
71
2
72
6
73
3
74
0
42
0.000000001
43
0.0000000001
44
0.0000000001
40
0
40
0
40
0
40
1
40
1
40
1
10
81.123020825858816
20
147.91815004699828
30
0
10
81.472236666349076
20
147.91907189824204
30
0
10
81.704643105202308
20
148.07285109421585
30
0
0
SPLINE
5
486
100
AcDbEntity
8
0
100
AcDbSpline
70
0
71
2
72
6
73
3
74
0
42
0.000000001
43
0.0000000001
44
0.0000000001
40
0
40
0
40
0
40
1
40
1
40
1
10
81.704643105202308
20
148.07285109421585
30
0
10
81.937049543268827
20
148.2266305882118
30
0
10
81.936170818763514
20
148.55950915051471
30
0
0
SPLINE
5
487
100
AcDbEntity
8
0
100
AcDbSpline
70
0
71
2
72
6
73
3
74
0
42
0.000000001
43
0.0000000001
44
0.0000000001
40
0
40
0
40
0
40
1
40
1
40
1
10
79.92252532463408
20
148.56848890927671
30
0
10
79.921409398740323
20
148.99122414073216
30
0
10
80.202461384640515
20
149.28400271153359
30
0
0
SPLINE
5
488
100
AcDbEntity
8
0
100
AcDbSpline
70
0
71
2
72
6
73
3
74
0
42
0.000000001
43
0.0000000001
44
0.0000000001
40
0
40
0
40
0
40
1
40
1
40
1
10
80.202461384640515
20
149.28400271153359
30
0
10
80.483513967371763
20
149.57678098588627
30
0
10
81.030823366436152
20
149.57822575955274
30
0
0
SPLINE
5
489
100
AcDbEntity
8
0
100
AcDbSpline
70
0
71
2
72
6
73
3
74
0
42
0.000000001
43
0.0000000001
44
0.0000000001
40
0
40
0
40
0
40
1
40
1
40
1
10
81.030823366436152
20
149.57822575955274
30
0
10
81.559752545231504
20
149.57962201357336
30
0
10
81.905563548999666
20
149.32321596039992
30
0
0
SPLINE
5
490
100
AcDbEntity
8
0
100
AcDbSpline
70
0
71
2
72
6
73
3
74
0
42
0.000000001
43
0.0000000001
44
0.0000000001
40
0
40
0
40
0
40
1
40
1
40
1
10
81.905563548999666
20
149.32321596039992
30
0
10
82.251374552767814
20
149.06680990722649
30
0
10
82.252803153218991
20
148.52562724825179
30
0
0
SPLINE
5
491
100
AcDbEntity
8
0
100
AcDbSpline
70
0
71
2
72
6
73
3
74
0
42
0.000000001
43
0.0000000001
44
0.0000000001
40
0
40
0
40
0
40
1
40
1
40
1
10
82.252803153218991
20
148.52562724825179
30
0
10
82.253994552281782
20
148.07430125842961
30
0
10
81.950407570629551
20
147.8080123936881
30
0
0
SPLINE
5
492
100
AcDbEntity
8
0
100
AcDbSpline
70
0
71
2
72
6
73
3
74
0
42
0.000000001
43
0.0000000001
44
0.0000000001
40
0
40
0
40
0
40
1
40
1
40
1
10
81.950407570629551
20
147.8080123936881
30
0
10
81.64477854174892
20
147.54171784037712
30
0
10
81.130144891148021
20
147.5403593233344
30
0
0
SPLINE
5
493
100
AcDbEntity
8
0
100
AcDbSpline
70
0
71
2
72
6
73
3
74
0
42
0.000000001
43
0.0000000001
44
0.0000000001
40
0
40
0
40
0
40
1
40
1
40
1
10
81.130144891148021
20
147.5403593233344
30
0
10
80.578750800009061
20
147.53890376699988
30
0
10
80.251260716556189
20
147.81782235809627
30
0
0
SPLINE
5
494
100
AcDbEntity
8
0
100
AcDbSpline
70
0
71
2
72
6
73
3
74
0
42
0.000000001
43
0.0000000001
44
0.0000000001
40
0
40
0
40
0
40
1
40
1
40
1
10
80.251260716556189
20
147.81782235809627
30
0
10
79.923770632316604
20
148.09674124721479
30
0
10
79.92252532463408
20
148.56848890927671
30
0
0
SPLINE
5
495
100
AcDbEntity
8
0
100
AcDbSpline
70
0
71
2
72
6
73
3
74
0
42
0.000000001
43
0.0000000001
44
0.0000000001
40
0
40
0
40
0
40
1
40
1
40
1
10
81.919673545086027
20
150.94068571530681
30
0
10
81.918994285777927
20
151.19800283862946
30
0
10
81.704116298571705
20
151.36693929244021
30
0
0
SPLINE
5
496
100
AcDbEntity
8
0
100
AcDbSpline
70
0
71
2
72
6
73
3
74
0
42
0.000000001
43
0.0000000001
44
0.0000000001
40
0
40
0
40
0
40
1
40
1
40
1
10
81.704116298571705
20
151.36693929244021
30
0
10
81.487190276758696
20
151.53791240214534
30
0
10
81.058328603235751
20
151.53678030382304
30
0
0
SPLINE
5
497
100
AcDbEntity
8
0
100
AcDbSpline
70
0
71
2
72
6
73
3
74
0
42
0.000000001
43
0.0000000001
44
0.0000000001
40
0
40
0
40
0
40
1
40
1
40
1
10
81.058328603235751
20
151.53678030382304
30
0
10
80.796927383882917
20
151.53609026342036
30
0
10
80.609244721883613
20
151.46003315592287
30
0
0
SPLINE
5
498
100
AcDbEntity
8
0
100
AcDbSpline
70
0
71
2
72
6
73
3
74
0
42
0.000000001
43
0.0000000001
44
0.0000000001
40
0
40
0
40
0
40
1
40
1
40
1
10
80.609244721883613
20
151.46003315592287
30
0
10
80.248152767845909
20
151.31612486839273
30
0
10
80.249155483592716
20
150.93627592349844
30
0
0
SPLINE
5
499
100
AcDbEntity
8
0
100
AcDbSpline
70
0
71
2
72
6
73
3
74
0
42
0.000000001
43
0.0000000001
44
0.0000000001
40
0
40
0
40
0
40
1
40
1
40
1
10
80.249155483592716
20
150.93627592349844
30
0
10
80.250163589886824
20
150.55438493058907
30
0
10
80.632426558880837
20
150.41448099504251
30
0
0
SPLINE
5
500
100
AcDbEntity
8
0
100
AcDbSpline
70
0
71
2
72
6
73
3
74
0
42
0.000000001
43
0.0000000001
44
0.0000000001
40
0
40
0
40
0
40
1
40
1
40
1
10
80.632426558880837
20
150.41448099504251
30
0
10
80.836845725910791
20
150.339458948149
30
0
10
81.15134436596685
20
150.34028915379514
30
0
0
SPLINE
5
501
100
AcDbEntity
8
0
100
AcDbSpline
70
0
71
2
72
6
73
3
74
0
42
0.000000001
43
0.0000000001
44
0.0000000001
40
0
40
0
40
0
40
1
40
1
40
1
10
81.15134436596685
20
150.34028915379514
30
0
10
81.404577393259274
20
150.34095763200864
30
0
10
81.582048623094352
20
150.41698778362286
30
0
0
SPLINE
5
502
100
AcDbEntity
8
0
100
AcDbSpline
70
0
71
2
72
6
73
3
74
0
42
0.000000001
43
0.0000000001
44
0.0000000001
40
0
40
0
40
0
40
1
40
1
40
1
10
81.582048623094352
20
150.41698778362286
30
0
10
81.920676260832849
20
150.56083677041255
30
0
10
81.919673545086027
20
150.94068571530681
30
0
0
LINE
5
503
100
AcDbEntity
8
0
100
AcDbLine
10
79.992307896911669
20
149.98392656379667
30
0
11
79.991364481905308
21
150.34131119239171
31
0
0
LINE
5
504
100
AcDbEntity
8
0
100
AcDbLine
10
79.991364481905308
20
150.34131119239171
30
0
11
80.281356757647046
21
150.34207670675013
31
0
0
SPLINE
5
505
100
AcDbEntity
8
0
100
AcDbSpline
70
0
71
2
72
6
73
3
74
0
42
0.000000001
43
0.0000000001
44
0.0000000001
40
0
40
0
40
0
40
1
40
1
40
1
10
80.281356757647046
20
150.34207670675013
30
0
10
80.131985412164397
20
150.45196210591303
30
0
10
80.049952510915304
20
150.58244707796359
30
0
0
SPLINE
5
506
100
AcDbEntity
8
0
100
AcDbSpline
70
0
71
2
72
6
73
3
74
0
42
0.000000001
43
0.0000000001
44
0.0000000001
40
0
40
0
40
0
40
1
40
1
40
1
10
80.049952510915304
20
150.58244707796359
30
0
10
79.926930113351531
20
150.76796369991962
30
0
10
79.926267027258746
20
151.01915408315256
30
0
0
SPLINE
5
507
100
AcDbEntity
8
0
100
AcDbSpline
70
0
71
2
72
6
73
3
74
0
42
0.000000001
43
0.0000000001
44
0.0000000001
40
0
40
0
40
0
40
1
40
1
40
1
10
79.926267027258746
20
151.01915408315256
30
0
10
79.925285875274511
20
151.39083423994208
30
0
10
80.210508809086306
20
151.65094814297024
30
0
0
SPLINE
5
508
100
AcDbEntity
8
0
100
AcDbSpline
70
0
71
2
72
6
73
3
74
0
42
0.000000001
43
0.0000000001
44
0.0000000001
40
0
40
0
40
0
40
1
40
1
40
1
10
80.210508809086306
20
151.65094814297024
30
0
10
80.493689693309577
20
151.91105725149544
30
0
10
81.022619468149315
20
151.91245350708948
30
0
0
SPLINE
5
509
100
AcDbEntity
8
0
100
AcDbSpline
70
0
71
2
72
6
73
3
74
0
42
0.000000001
43
0.0000000001
44
0.0000000001
40
0
40
0
40
0
40
1
40
1
40
1
10
81.022619468149315
20
151.91245350708948
30
0
10
81.737388725339429
20
151.9143403371022
30
0
10
82.044705121395666
20
151.54142617813679
30
0
0
SPLINE
5
510
100
AcDbEntity
8
0
100
AcDbSpline
70
0
71
2
72
6
73
3
74
0
42
0.000000001
43
0.0000000001
44
0.0000000001
40
0
40
0
40
0
40
1
40
1
40
1
10
82.044705121395666
20
151.54142617813679
30
0
10
82.239339337010108
20
151.30504346285301
30
0
10
82.240169542656247
20
150.99054482279692
30
0
0
SPLINE
5
511
100
AcDbEntity
8
0
100
AcDbSpline
70
0
71
2
72
6
73
3
74
0
42
0.000000001
43
0.0000000001
44
0.0000000001
40
0
40
0
40
0
40
1
40
1
40
1
10
82.240169542656247
20
150.99054482279692
30
0
10
82.240821847654473
20
150.74343853559415
30
0
10
82.133027610623515
20
150.57569295800758
30
0
0
SPLINE
5
512
100
AcDbEntity
8
0
100
AcDbSpline
70
0
71
2
72
6
73
3
74
0
42
0.000000001
43
0.0000000001
44
0.0000000001
40
0
40
0
40
0
40
1
40
1
40
1
10
82.133027610623515
20
150.57569295800758
30
0
10
82.072020166966496
20
150.47750577174418
30
0
10
81.923257998956899
20
150.35662245991384
30
0
0
LINE
5
513
100
AcDbEntity
8
0
100
AcDbLine
10
81.923257998956899
20
150.35662245991384
30
0
11
83.04034051734051
21
150.35957130641384
31
0
0
LINE
5
514
100
AcDbEntity
8
0
100
AcDbLine
10
83.040340517340496
20
150.35957130641384
30
0
11
83.041310888230157
21
149.99197524565454
31
0
0
LINE
5
515
100
AcDbEntity
8
0
100
AcDbLine
10
83.041310888230157
20
149.99197524565454
30
0
11
79.992307896911669
21
149.98392656379667
31
0
0
SPLINE
5
516
100
AcDbEntity
8
0
100
AcDbSpline
70
0
71
2
72
6
73
3
74
0
42
0.000000001
43
0.0000000001
44
0.0000000001
40
0
40
0
40
0
40
1
40
1
40
1
10
81.47632062621031
20
152.56103199553928
30
0
10
81.660075529064798
20
152.57785475719365
30
0
10
81.757901521911577
20
152.65367466330272
30
0
0
SPLINE
5
517
100
AcDbEntity
8
0
100
AcDbSpline
70
0
71
2
72
6
73
3
74
0
42
0.000000001
43
0.0000000001
44
0.0000000001
40
0
40
0
40
0
40
1
40
1
40
1
10
81.757901521911577
20
152.65367466330272
30
0
10
81.935206226664235
20
152.79301366935783
30
0
10
81.934300548635719
20
153.13610276975845
30
0
0
SPLINE
5
518
100
AcDbEntity
8
0
100
AcDbSpline
70
0
71
2
72
6
73
3
74
0
42
0.000000001
43
0.0000000001
44
0.0000000001
40
0
40
0
40
0
40
1
40
1
40
1
10
81.934300548635719
20
153.13610276975845
30
0
10
81.933761454571155
20
153.34032247237784
30
0
10
81.845537121944645
20
153.49529763552746
30
0
0
SPLINE
5
519
100
AcDbEntity
8
0
100
AcDbSpline
70
0
71
2
72
6
73
3
74
0
42
0.000000001
43
0.0000000001
44
0.0000000001
40
0
40
0
40
0
40
1
40
1
40
1
10
81.845537121944645
20
153.49529763552746
30
0
10
81.755270739729596
20
153.65026800417417
30
0
10
81.569430661334849
20
153.64977742818206
30
0
0
SPLINE
5
520
100
AcDbEntity
8
0
100
AcDbSpline
70
0
71
2
72
6
73
3
74
0
42
0.000000001
43
0.0000000001
44
0.0000000001
40
0
40
0
40
0
40
1
40
1
40
1
10
81.569430661334849
20
153.64977742818206
30
0
10
81.428519215538557
20
153.64940545367085
30
0
10
81.355328375110645
20
153.52463691260306
30
0
0
SPLINE
5
521
100
AcDbEntity
8
0
100
AcDbSpline
70
0
71
2
72
6
73
3
74
0
42
0.000000001
43
0.0000000001
44
0.0000000001
40
0
40
0
40
0
40
1
40
1
40
1
10
81.355328375110645
20
153.52463691260306
30
0
10
81.310610585635104
20
153.44487247966291
30
0
10
81.252006979454194
20
153.20986333575411
30
0
0
LINE
5
522
100
AcDbEntity
8
0
100
AcDbLine
10
81.252006979454194
20
153.20986333575411
30
0
11
81.17925819537254
21
152.9176349365606
31
0
0
SPLINE
5
523
100
AcDbEntity
8
0
100
AcDbSpline
70
0
71
2
72
6
73
3
74
0
42
0.000000001
43
0.0000000001
44
0.0000000001
40
0
40
0
40
0
40
1
40
1
40
1
10
81.17925819537254
20
152.9176349365606
30
0
10
81.110562352979244
20
152.63767080178786
30
0
10
81.025140192178938
20
152.50470112775815
30
0
0
SPLINE
5
524
100
AcDbEntity
8
0
100
AcDbSpline
70
0
71
2
72
6
73
3
74
0
42
0.000000001
43
0.0000000001
44
0.0000000001
40
0
40
0
40
0
40
1
40
1
40
1
10
81.025140192178938
20
152.50470112775815
30
0
10
80.87668530739279
20
152.26741273444586
30
0
10
80.613241443980456
20
152.26671730192248
30
0
0
SPLINE
5
525
100
AcDbEntity
8
0
100
AcDbSpline
70
0
71
2
72
6
73
3
74
0
42
0.000000001
43
0.0000000001
44
0.0000000001
40
0
40
0
40
0
40
1
40
1
40
1
10
80.613241443980456
20
152.26671730192248
30
0
10
80.302827495998983
20
152.26589787894432
30
0
10
80.110273065377527
20
152.48799045658097
30
0
0
SPLINE
5
526
100
AcDbEntity
8
0
100
AcDbSpline
70
0
71
2
72
6
73
3
74
0
42
0.000000001
43
0.0000000001
44
0.0000000001
40
0
40
0
40
0
40
1
40
1
40
1
10
80.110273065377527
20
152.48799045658097
30
0
10
79.917713242635344
20
152.71212567827709
30
0
10
79.916715917435809
20
153.08993257515627
30
0
0
SPLINE
5
527
100
AcDbEntity
8
0
100
AcDbSpline
70
0
71
2
72
6
73
3
74
0
42
0.000000001
43
0.0000000001
44
0.0000000001
40
0
40
0
40
0
40
1
40
1
40
1
10
79.916715917435809
20
153.08993257515627
30
0
10
79.915411309012811
20
153.58414455351743
30
0
10
80.204826753712112
20
153.80342529868969
30
0
0
SPLINE
5
528
100
AcDbEntity
8
0
100
AcDbSpline
70
0
71
2
72
6
73
3
74
0
42
0.000000001
43
0.0000000001
44
0.0000000001
40
0
40
0
40
0
40
1
40
1
40
1
10
80.204826753712112
20
153.80342529868969
30
0
10
80.388263590675137
20
153.94073783390061
30
0
10
80.600662862493891
20
153.93721439569757
30
0
0
LINE
5
529
100
AcDbEntity
8
0
100
AcDbLine
10
80.600662862493891
20
153.93721439569757
30
0
11
80.601579324763804
21
153.590040007178
31
0
0
SPLINE
5
530
100
AcDbEntity
8
0
100
AcDbSpline
70
0
71
2
72
6
73
3
74
0
42
0.000000001
43
0.0000000001
44
0.0000000001
40
0
40
0
40
0
40
1
40
1
40
1
10
80.601579324763804
20
153.590040007178
30
0
10
80.477032409486938
20
153.57950032407211
30
0
10
80.375127115112889
20
153.50162758727993
30
0
0
SPLINE
5
531
100
AcDbEntity
8
0
100
AcDbSpline
70
0
71
2
72
6
73
3
74
0
42
0.000000001
43
0.0000000001
44
0.0000000001
40
0
40
0
40
0
40
1
40
1
40
1
10
80.375127115112889
20
153.50162758727993
30
0
10
80.230465216348762
20
153.3746283164545
30
0
10
80.231290031447628
20
153.06217172441353
30
0
0
SPLINE
5
532
100
AcDbEntity
8
0
100
AcDbSpline
70
0
71
2
72
6
73
3
74
0
42
0.000000001
43
0.0000000001
44
0.0000000001
40
0
40
0
40
0
40
1
40
1
40
1
10
80.231290031447628
20
153.06217172441353
30
0
10
80.23183990660678
20
152.85386792576392
30
0
10
80.311771460673754
20
152.7458412834209
30
0
0
SPLINE
5
533
100
AcDbEntity
8
0
100
AcDbSpline
70
0
71
2
72
6
73
3
74
0
42
0.000000001
43
0.0000000001
44
0.0000000001
40
0
40
0
40
0
40
1
40
1
40
1
10
80.311771460673754
20
152.7458412834209
30
0
10
80.391697622619986
20
152.63985728513734
30
0
10
80.52239823229641
20
152.64020230533868
30
0
0
SPLINE
5
534
100
AcDbEntity
8
0
100
AcDbSpline
70
0
71
2
72
6
73
3
74
0
42
0.000000001
43
0.0000000001
44
0.0000000001
40
0
40
0
40
0
40
1
40
1
40
1
10
80.52239823229641
20
152.64020230533868
30
0
10
80.665352322152174
20
152.64057967197058
30
0
10
80.750752920763318
20
152.78171753806072
30
0
0
SPLINE
5
535
100
AcDbEntity
8
0
100
AcDbSpline
70
0
71
2
72
6
73
3
74
0
42
0.000000001
43
0.0000000001
44
0.0000000001
40
0
40
0
40
0
40
1
40
1
40
1
10
80.750752920763318
20
152.78171753806072
30
0
10
80.801592058207802
20
152.86354078827566
30
0
10
80.839972862088558
20
153.02293428498879
30
0
0
LINE
5
536
100
AcDbEntity
8
0
100
AcDbLine
10
80.839972862088558
20
153.02293428498879
30
0
11
80.898555500551268
21
153.26611221857578
31
0
0
SPLINE
5
537
100
AcDbEntity
8
0
100
AcDbSpline
70
0
71
2
72
6
73
3
74
0
42
0.000000001
43
0.0000000001
44
0.0000000001
40
0
40
0
40
0
40
1
40
1
40
1
10
80.898555500551268
20
153.26611221857578
30
0
10
80.993493066521495
20
153.6625521142833
30
0
10
81.082993932804683
20
153.79757461742273
30
0
0
SPLINE
5
538
100
AcDbEntity
8
0
100
AcDbSpline
70
0
71
2
72
6
73
3
74
0
42
0.000000001
43
0.0000000001
44
0.0000000001
40
0
40
0
40
0
40
1
40
1
40
1
10
81.082993932804683
20
153.79757461742273
30
0
10
81.223339330226537
20
154.0123771306732
30
0
10
81.525585086147629
20
154.01317499146219
30
0
0
SPLINE
5
539
100
AcDbEntity
8
0
100
AcDbSpline
70
0
71
2
72
6
73
3
74
0
42
0.000000001
43
0.0000000001
44
0.0000000001
40
0
40
0
40
0
40
1
40
1
40
1
10
81.525585086147629
20
154.01317499146219
30
0
10
81.817619409904481
20
154.01394589636791
30
0
10
82.030595512765686
20
153.791907227351
30
0
0
SPLINE
5
540
100
AcDbEntity
8
0
100
AcDbSpline
70
0
71
2
72
6
73
3
74
0
42
0.000000001
43
0.0000000001
44
0.0000000001
40
0
40
0
40
0
40
1
40
1
40
1
10
82.030595512765686
20
153.791907227351
30
0
10
82.243566225079618
20
153.57191060634921
30
0
10
82.244763014689681
20
153.11854256851194
30
0
0
SPLINE
5
541
100
AcDbEntity
8
0
100
AcDbSpline
70
0
71
2
72
6
73
3
74
0
42
0.000000001
43
0.0000000001
44
0.0000000001
40
0
40
0
40
0
40
1
40
1
40
1
10
82.244763014689681
20
153.11854256851194
30
0
10
82.246051451470805
20
152.63045673419609
30
0
10
82.02603326670642
20
152.42565480998695
30
0
0
SPLINE
5
542
100
AcDbEntity
8
0
100
AcDbSpline
70
0
71
2
72
6
73
3
74
0
42
0.000000001
43
0.0000000001
44
0.0000000001
40
0
40
0
40
0
40
1
40
1
40
1
10
82.02603326670642
20
152.42565480998695
30
0
10
81.80396764337965
20
152.22288954324563
30
0
10
81.477253260122097
20
152.20773146297441
30
0
0
LINE
5
543
100
AcDbEntity
8
0
100
AcDbLine
10
81.477253260122097
20
152.20773146297441
30
0
11
81.47632062621031
21
152.56103199553928
31
0
0
LINE
5
544
100
AcDbEntity
8
0
100
AcDbLine
10
79.359549542230226
20
154.50167316327622
30
0
11
79.358568390245978
21
154.87335332006575
31
0
0
LINE
5
545
100
AcDbEntity
8
0
100
AcDbLine
10
79.358568390245978
20
154.87335332006575
30
0
11
79.969185748111272
21
154.87496521249886
31
0
0
LINE
5
546
100
AcDbEntity
8
0
100
AcDbLine
10
79.969185748111272
20
154.87496521249886
30
0
11
79.968263895294072
21
155.22418164903354
31
0
0
LINE
5
547
100
AcDbEntity
8
0
100
AcDbLine
10
79.968263895294072
20
155.22418164903354
30
0
11
80.268467007155692
21
155.22497411770183
31
0
0
LINE
5
548
100
AcDbEntity
8
0
100
AcDbLine
10
80.268467007155692
20
155.22497411770183
30
0
11
80.269388859972906
21
154.87575768116716
31
0
0
LINE
5
549
100
AcDbEntity
8
0
100
AcDbLine
10
80.269388859972892
20
154.87575768116716
30
0
11
81.696885922382378
21
154.87952595221876
31
0
0
SPLINE
5
550
100
AcDbEntity
8
0
100
AcDbSpline
70
0
71
2
72
6
73
3
74
0
42
0.000000001
43
0.0000000001
44
0.0000000001
40
0
40
0
40
0
40
1
40
1
40
1
10
81.696885922382378
20
154.87952595221876
30
0
10
81.811248955849237
20
154.87982784489492
30
0
10
81.849845991826768
20
154.95753405817811
30
0
0
SPLINE
5
551
100
AcDbEntity
8
0
100
AcDbSpline
70
0
71
2
72
6
73
3
74
0
42
0.000000001
43
0.0000000001
44
0.0000000001
40
0
40
0
40
0
40
1
40
1
40
1
10
81.849845991826768
20
154.95753405817811
30
0
10
81.872197098765795
20
155.00047934745754
30
0
10
81.871932941494094
20
155.10054744877434
30
0
0
SPLINE
5
552
100
AcDbEntity
8
0
100
AcDbSpline
70
0
71
2
72
6
73
3
74
0
42
0.000000001
43
0.0000000001
44
0.0000000001
40
0
40
0
40
0
40
1
40
1
40
1
10
81.871932941494094
20
155.10054744877434
30
0
10
81.871862861232472
20
155.12709526505938
30
0
10
81.871781996729425
20
155.1577283694634
30
0
0
SPLINE
5
553
100
AcDbEntity
8
0
100
AcDbSpline
70
0
71
2
72
6
73
3
74
0
42
0.000000001
43
0.0000000001
44
0.0000000001
40
0
40
0
40
0
40
1
40
1
40
1
10
81.871781996729425
20
155.1577283694634
30
0
10
81.869659084211293
20
155.18835608332012
30
0
10
81.865466571750375
20
155.22918983722036
30
0
0
LINE
5
554
100
AcDbEntity
8
0
100
AcDbLine
10
81.865466571750375
20
155.22918983722036
30
0
11
82.155458847492113
21
155.22995535157878
31
0
0
SPLINE
5
555
100
AcDbEntity
8
0
100
AcDbSpline
70
0
71
2
72
6
73
3
74
0
42
0.000000001
43
0.0000000001
44
0.0000000001
40
0
40
0
40
0
40
1
40
1
40
1
10
82.155458847492113
20
155.22995535157878
30
0
10
82.174005591270145
20
155.16669561282811
30
0
10
82.182357673717007
20
155.09728158363356
30
0
0
SPLINE
5
556
100
AcDbEntity
8
0
100
AcDbSpline
70
0
71
2
72
6
73
3
74
0
42
0.000000001
43
0.0000000001
44
0.0000000001
40
0
40
0
40
0
40
1
40
1
40
1
10
82.182357673717007
20
155.09728158363356
30
0
10
82.190704360896319
20
155.02991139058719
30
0
10
82.190914607974861
20
154.95026555755453
30
0
0
SPLINE
5
557
100
AcDbEntity
8
0
100
AcDbSpline
70
0
71
2
72
6
73
3
74
0
42
0.000000001
43
0.0000000001
44
0.0000000001
40
0
40
0
40
0
40
1
40
1
40
1
10
82.190914607974861
20
154.95026555755453
30
0
10
82.191593867282933
20
154.69294843423188
30
0
10
82.061135849542225
20
154.60070469686292
30
0
0
SPLINE
5
558
100
AcDbEntity
8
0
100
AcDbSpline
70
0
71
2
72
6
73
3
74
0
42
0.000000001
43
0.0000000001
44
0.0000000001
40
0
40
0
40
0
40
1
40
1
40
1
10
82.061135849542225
20
154.60070469686292
30
0
10
81.92863578535983
20
154.50845497290229
30
0
10
81.718289342650735
20
154.50789970562244
30
0
0
LINE
5
559
100
AcDbEntity
8
0
100
AcDbLine
10
81.718289342650735
20
154.50789970562244
30
0
11
80.270370011957141
21
154.50407752437766
31
0
0
LINE
5
560
100
AcDbEntity
8
0
100
AcDbLine
10
80.270370011957141
20
154.50407752437766
30
0
11
80.271151697957421
21
154.2079591045906
31
0
0
LINE
5
561
100
AcDbEntity
8
0
100
AcDbLine
10
80.271151697957421
20
154.2079591045906
30
0
11
79.970948586095801
21
154.20716663592233
31
0
0
LINE
5
562
100
AcDbEntity
8
0
100
AcDbLine
10
79.970948586095801
20
154.20716663592233
30
0
11
79.970166900095521
21
154.5032850557094
31
0
0
LINE
5
563
100
AcDbEntity
8
0
100
AcDbLine
10
79.970166900095521
20
154.50328505570937
30
0
11
79.359549542230226
21
154.50167316327622
31
0
0
SPLINE
5
564
100
AcDbEntity
8
0
100
AcDbSpline
70
0
71
2
72
6
73
3
74
0
42
0.000000001
43
0.0000000001
44
0.0000000001
40
0
40
0
40
0
40
1
40
1
40
1
10
81.571717928081455
20
155.87783788466655
30
0
10
81.731009594146798
20
155.87825837882363
30
0
10
81.822601028090972
20
155.9949060522413
30
0
0
SPLINE
5
565
100
AcDbEntity
8
0
100
AcDbSpline
70
0
71
2
72
6
73
3
74
0
42
0.000000001
43
0.0000000001
44
0.0000000001
40
0
40
0
40
0
40
1
40
1
40
1
10
81.822601028090972
20
155.9949060522413
30
0
10
81.914192458888309
20
156.11155491774772
30
0
10
81.913771967878091
20
156.27084539172429
30
0
0
SPLINE
5
566
100
AcDbEntity
8
0
100
AcDbSpline
70
0
71
2
72
6
73
3
74
0
42
0.000000001
43
0.0000000001
44
0.0000000001
40
0
40
0
40
0
40
1
40
1
40
1
10
81.913771967878091
20
156.27084539172429
30
0
10
81.913259828123373
20
156.46485425822385
30
0
10
81.822923362499864
20
156.64637363524434
30
0
0
SPLINE
5
567
100
AcDbEntity
8
0
100
AcDbSpline
70
0
71
2
72
6
73
3
74
0
42
0.000000001
43
0.0000000001
44
0.0000000001
40
0
40
0
40
0
40
1
40
1
40
1
10
81.822923362499864
20
156.64637363524434
30
0
10
81.67303448671521
20
156.95230994892185
30
0
10
81.334029482344818
20
156.95141505198794
30
0
0
LINE
5
568
100
AcDbEntity
8
0
100
AcDbLine
10
81.334029482344818
20
156.95141505198794
30
0
11
81.037910466513395
21
156.95063336441424
31
0
0
SPLINE
5
569
100
AcDbEntity
8
0
100
AcDbSpline
70
0
71
2
72
6
73
3
74
0
42
0.000000001
43
0.0000000001
44
0.0000000001
40
0
40
0
40
0
40
1
40
1
40
1
10
81.037910466513395
20
156.95063336441424
30
0
10
81.080974954891559
20
156.88335303040583
30
0
10
81.109845742576255
20
156.77723485347042
30
0
0
SPLINE
5
570
100
AcDbEntity
8
0
100
AcDbSpline
70
0
71
2
72
6
73
3
74
0
42
0.000000001
43
0.0000000001
44
0.0000000001
40
0
40
0
40
0
40
1
40
1
40
1
10
81.109845742576255
20
156.77723485347042
30
0
10
81.138717129452147
20
156.67111548601972
30
0
10
81.151239559832703
20
156.56903827758936
30
0
0
LINE
5
571
100
AcDbEntity
8
0
100
AcDbLine
10
81.151239559832703
20
156.56903827758936
30
0
11
81.180418229932059
21
156.34651382865667
31
0
0
SPLINE
5
572
100
AcDbEntity
8
0
100
AcDbSpline
70
0
71
2
72
6
73
3
74
0
42
0.000000001
43
0.0000000001
44
0.0000000001
40
0
40
0
40
0
40
1
40
1
40
1
10
81.180418229932059
20
156.34651382865667
30
0
10
81.20749495365807
20
156.14644889994688
30
0
10
81.264940626089782
20
156.04653234101255
30
0
0
SPLINE
5
573
100
AcDbEntity
8
0
100
AcDbSpline
70
0
71
2
72
6
73
3
74
0
42
0.000000001
43
0.0000000001
44
0.0000000001
40
0
40
0
40
0
40
1
40
1
40
1
10
81.264940626089782
20
156.04653234101255
30
0
10
81.361371485372374
20
155.8772826173867
30
0
10
81.571717928081455
20
155.87783788466655
30
0
0
SPLINE
5
574
100
AcDbEntity
8
0
100
AcDbSpline
70
0
71
2
72
6
73
3
74
0
42
0.000000001
43
0.0000000001
44
0.0000000001
40
0
40
0
40
0
40
1
40
1
40
1
10
80.826007162807485
20
156.76627408016304
30
0
10
80.809335347491185
20
156.89284746628408
30
0
10
80.719365467405012
20
156.93549684947902
30
0
0
SPLINE
5
575
100
AcDbEntity
8
0
100
AcDbSpline
70
0
71
2
72
6
73
3
74
0
42
0.000000001
43
0.0000000001
44
0.0000000001
40
0
40
0
40
0
40
1
40
1
40
1
10
80.719365467405012
20
156.93549684947902
30
0
10
80.670288049062023
20
156.95987323517352
30
0
10
80.578389331894385
20
156.9596306432378
30
0
0
SPLINE
5
576
100
AcDbEntity
8
0
100
AcDbSpline
70
0
71
2
72
6
73
3
74
0
42
0.000000001
43
0.0000000001
44
0.0000000001
40
0
40
0
40
0
40
1
40
1
40
1
10
80.578389331894385
20
156.9596306432378
30
0
10
80.390506609440152
20
156.95913467512497
30
0
10
80.307132481673193
20
156.82412894124522
30
0
0
SPLINE
5
577
100
AcDbEntity
8
0
100
AcDbSpline
70
0
71
2
72
6
73
3
74
0
42
0.000000001
43
0.0000000001
44
0.0000000001
40
0
40
0
40
0
40
1
40
1
40
1
10
80.307132481673193
20
156.82412894124522
30
0
10
80.22171031929949
20
156.69115986325988
30
0
10
80.2223680164184
20
156.44201093199763
30
0
0
SPLINE
5
578
100
AcDbEntity
8
0
100
AcDbSpline
70
0
71
2
72
6
73
3
74
0
42
0.000000001
43
0.0000000001
44
0.0000000001
40
0
40
0
40
0
40
1
40
1
40
1
10
80.2223680164184
20
156.44201093199763
30
0
10
80.223128137082682
20
156.15406189635974
30
0
10
80.3786531785383
20
156.03398123824792
30
0
0
SPLINE
5
579
100
AcDbEntity
8
0
100
AcDbSpline
70
0
71
2
72
6
73
3
74
0
42
0.000000001
43
0.0000000001
44
0.0000000001
40
0
40
0
40
0
40
1
40
1
40
1
10
80.3786531785383
20
156.03398123824792
30
0
10
80.464603652308597
20
155.96681530568841
30
0
10
80.634160063113555
20
155.94684108191564
30
0
0
LINE
5
580
100
AcDbEntity
8
0
100
AcDbLine
10
80.634160063113555
20
155.94684108191564
30
0
11
80.63506574428888
21
155.6037507894263
31
0
0
SPLINE
5
581
100
AcDbEntity
8
0
100
AcDbSpline
70
0
71
2
72
6
73
3
74
0
42
0.000000001
43
0.0000000001
44
0.0000000001
40
0
40
0
40
0
40
1
40
1
40
1
10
80.63506574428888
20
155.6037507894263
30
0
10
80.230683479196969
20
155.61289481455594
30
0
10
80.072770773480556
20
155.8636706902235
30
0
0
SPLINE
5
582
100
AcDbEntity
8
0
100
AcDbSpline
70
0
71
2
72
6
73
3
74
0
42
0.000000001
43
0.0000000001
44
0.0000000001
40
0
40
0
40
0
40
1
40
1
40
1
10
80.072770773480556
20
155.8636706902235
30
0
10
79.91281122839294
20
156.11648203284352
30
0
10
79.9119325031009
20
156.44936089316863
30
0
0
SPLINE
5
583
100
AcDbEntity
8
0
100
AcDbSpline
70
0
71
2
72
6
73
3
74
0
42
0.000000001
43
0.0000000001
44
0.0000000001
40
0
40
0
40
0
40
1
40
1
40
1
10
79.9119325031009
20
156.44936089316863
30
0
10
79.910913614138778
20
156.83533657815258
30
0
10
80.057315668241841
20
157.07670427299217
30
0
0
SPLINE
5
584
100
AcDbEntity
8
0
100
AcDbSpline
70
0
71
2
72
6
73
3
74
0
42
0.000000001
43
0.0000000001
44
0.0000000001
40
0
40
0
40
0
40
1
40
1
40
1
10
80.057315668241841
20
157.07670427299217
30
0
10
80.203723116039043
20
157.31602872772788
30
0
10
80.514137660064904
20
157.31684815227948
30
0
0
LINE
5
585
100
AcDbEntity
8
0
100
AcDbLine
10
80.514137660064904
20
157.31684815227948
30
0
11
81.774174268304293
21
157.32017436541139
31
0
0
SPLINE
5
586
100
AcDbEntity
8
0
100
AcDbSpline
70
0
71
2
72
6
73
3
74
0
42
0.000000001
43
0.0000000001
44
0.0000000001
40
0
40
0
40
0
40
1
40
1
40
1
10
81.774174268304293
20
157.32017436541139
30
0
10
81.831355785037729
20
157.32032531174949
30
0
10
81.866013683158045
20
157.3428818696907
30
0
0
SPLINE
5
587
100
AcDbEntity
8
0
100
AcDbSpline
70
0
71
2
72
6
73
3
74
0
42
0.000000001
43
0.0000000001
44
0.0000000001
40
0
40
0
40
0
40
1
40
1
40
1
10
81.866013683158045
20
157.3428818696907
30
0
10
81.900666193877925
20
157.36747928355828
30
0
10
81.900466727893956
20
157.44304102056074
30
0
0
SPLINE
5
588
100
AcDbEntity
8
0
100
AcDbSpline
70
0
71
2
72
6
73
3
74
0
42
0.000000001
43
0.0000000001
44
0.0000000001
40
0
40
0
40
0
40
1
40
1
40
1
10
81.900466727893956
20
157.44304102056074
30
0
10
81.900402035032798
20
157.46754798091945
30
0
10
81.898279125661503
20
157.49817450268742
30
0
0
SPLINE
5
589
100
AcDbEntity
8
0
100
AcDbSpline
70
0
71
2
72
6
73
3
74
0
42
0.000000001
43
0.0000000001
44
0.0000000001
40
0
40
0
40
0
40
1
40
1
40
1
10
81.898279125661503
20
157.49817450268742
30
0
10
81.894113569083885
20
157.52879682442341
30
0
10
81.887895779440953
20
157.56349785321575
30
0
0
LINE
5
590
100
AcDbEntity
8
0
100
AcDbLine
10
81.887895779440953
20
157.56349785321575
30
0
11
82.159507834913668
21
157.56421484792827
31
0
0
SPLINE
5
591
100
AcDbEntity
8
0
100
AcDbSpline
70
0
71
2
72
6
73
3
74
0
42
0.000000001
43
0.0000000001
44
0.0000000001
40
0
40
0
40
0
40
1
40
1
40
1
10
82.159507834913668
20
157.56421484792827
30
0
10
82.184240617948419
20
157.47850756213808
30
0
10
82.190485959519009
20
157.43359510275491
30
0
0
SPLINE
5
592
100
AcDbEntity
8
0
100
AcDbSpline
70
0
71
2
72
6
73
3
74
0
42
0.000000001
43
0.0000000001
44
0.0000000001
40
0
40
0
40
0
40
1
40
1
40
1
10
82.190485959519009
20
157.43359510275491
30
0
10
82.196731297942748
20
157.38868383546048
30
0
10
82.196936154474002
20
157.31108005044294
30
0
0
SPLINE
5
593
100
AcDbEntity
8
0
100
AcDbSpline
70
0
71
2
72
6
73
3
74
0
42
0.000000001
43
0.0000000001
44
0.0000000001
40
0
40
0
40
0
40
1
40
1
40
1
10
82.196936154474002
20
157.31108005044294
30
0
10
82.197437513134133
20
157.12115527997361
30
0
10
82.06287863010354
20
157.0350275000263
30
0
0
SPLINE
5
594
100
AcDbEntity
8
0
100
AcDbSpline
70
0
71
2
72
6
73
3
74
0
42
0.000000001
43
0.0000000001
44
0.0000000001
40
0
40
0
40
0
40
1
40
1
40
1
10
82.06287863010354
20
157.0350275000263
30
0
10
81.991520186656572
20
156.98991018411189
30
0
10
81.860868095052624
20
156.97118553968591
30
0
0
SPLINE
5
595
100
AcDbEntity
8
0
100
AcDbSpline
70
0
71
2
72
6
73
3
74
0
42
0.000000001
43
0.0000000001
44
0.0000000001
40
0
40
0
40
0
40
1
40
1
40
1
10
81.860868095052624
20
156.97118553968591
30
0
10
82.008202783067475
20
156.85925270196063
30
0
10
82.116994939768887
20
156.64919198028585
30
0
0
SPLINE
5
596
100
AcDbEntity
8
0
100
AcDbSpline
70
0
71
2
72
6
73
3
74
0
42
0.000000001
43
0.0000000001
44
0.0000000001
40
0
40
0
40
0
40
1
40
1
40
1
10
82.116994939768887
20
156.64919198028585
30
0
10
82.225786500425954
20
156.43913125703764
30
0
10
82.226454978639453
20
156.18589822974519
30
0
0
SPLINE
5
597
100
AcDbEntity
8
0
100
AcDbSpline
70
0
71
2
72
6
73
3
74
0
42
0.000000001
43
0.0000000001
44
0.0000000001
40
0
40
0
40
0
40
1
40
1
40
1
10
82.226454978639453
20
156.18589822974519
30
0
10
82.227258229975746
20
155.88161042580901
30
0
10
82.043972339350802
20
155.68711637386465
30
0
0
SPLINE
5
598
100
AcDbEntity
8
0
100
AcDbSpline
70
0
71
2
72
6
73
3
74
0
42
0.000000001
43
0.0000000001
44
0.0000000001
40
0
40
0
40
0
40
1
40
1
40
1
10
82.043972339350802
20
155.68711637386465
30
0
10
81.858639010163458
20
155.49465897938811
30
0
10
81.580900214601058
20
155.49392581146029
30
0
0
SPLINE
5
599
100
AcDbEntity
8
0
100
AcDbSpline
70
0
71
2
72
6
73
3
74
0
42
0.000000001
43
0.0000000001
44
0.0000000001
40
0
40
0
40
0
40
1
40
1
40
1
10
81.580900214601058
20
155.49392581146029
30
0
10
81.276612410664882
20
155.49312256012399
30
0
10
81.108651193879027
20
155.68260527424709
30
0
0
SPLINE
5
600
100
AcDbEntity
8
0
100
AcDbSpline
70
0
71
2
72
6
73
3
74
0
42
0.000000001
43
0.0000000001
44
0.0000000001
40
0
40
0
40
0
40
1
40
1
40
1
10
81.108651193879027
20
155.68260527424709
30
0
10
80.940689381048799
20
155.87208798679674
30
0
10
80.90107345610916
20
156.1803574584975
30
0
0
LINE
5
601
100
AcDbEntity
8
0
100
AcDbLine
10
80.90107345610916
20
156.1803574584975
30
0
11
80.826007162807485
21
156.76627408016304
31
0
0
LINE
5
602
100
AcDbEntity
8
0
100
AcDbLine
10
79.961126285158798
20
157.92805229984759
30
0
11
79.960204432341598
21
158.27726873638224
31
0
0
LINE
5
603
100
AcDbEntity
8
0
100
AcDbLine
10
79.960204432341598
20
158.27726873638224
30
0
11
80.338011329220777
21
158.27826606158175
31
0
0
SPLINE
5
604
100
AcDbEntity
8
0
100
AcDbSpline
70
0
71
2
72
6
73
3
74
0
42
0.000000001
43
0.0000000001
44
0.0000000001
40
0
40
0
40
0
40
1
40
1
40
1
10
80.338011329220777
20
158.27826606158175
30
0
10
80.227619183997319
20
158.32086034249477
30
0
10
80.069928102498395
20
158.48790629067287
30
0
0
SPLINE
5
605
100
AcDbEntity
8
0
100
AcDbSpline
70
0
71
2
72
6
73
3
74
0
42
0.000000001
43
0.0000000001
44
0.0000000001
40
0
40
0
40
0
40
1
40
1
40
1
10
80.069928102498395
20
158.48790629067287
30
0
10
79.910194380086821
20
158.65494565464155
30
0
10
79.909617547470944
20
158.87346148149976
30
0
0
SPLINE
5
606
100
AcDbEntity
8
0
100
AcDbSpline
70
0
71
2
72
6
73
3
74
0
42
0.000000001
43
0.0000000001
44
0.0000000001
40
0
40
0
40
0
40
1
40
1
40
1
10
79.909617547470944
20
158.87346148149976
30
0
10
79.90959059473451
20
158.88367172157527
30
0
10
79.911568545932795
20
158.9081840740547
30
0
0
SPLINE
5
607
100
AcDbEntity
8
0
100
AcDbSpline
70
0
71
2
72
6
73
3
74
0
42
0.000000001
43
0.0000000001
44
0.0000000001
40
0
40
0
40
0
40
1
40
1
40
1
10
79.911568545932795
20
158.9081840740547
30
0
10
79.913545904233573
20
158.93269523287194
30
0
10
79.919515709820089
20
158.9919355653067
30
0
0
LINE
5
608
100
AcDbEntity
8
0
100
AcDbLine
10
79.919515709820089
20
158.9919355653067
30
0
11
80.307533442819135
21
158.99295984481611
31
0
0
SPLINE
5
609
100
AcDbEntity
8
0
100
AcDbSpline
70
0
71
2
72
6
73
3
74
0
42
0.000000001
43
0.0000000001
44
0.0000000001
40
0
40
0
40
0
40
1
40
1
40
1
10
80.307533442819135
20
158.99295984481611
30
0
10
80.301493553824173
20
158.96026852075514
30
0
10
80.299526979764821
20
158.93167207381896
30
0
0
SPLINE
5
610
100
AcDbEntity
8
0
100
AcDbSpline
70
0
71
2
72
6
73
3
74
0
42
0.000000001
43
0.0000000001
44
0.0000000001
40
0
40
0
40
0
40
1
40
1
40
1
10
80.299526979764821
20
158.93167207381896
30
0
10
80.297554419113794
20
158.90511767332444
30
0
10
80.297640674164143
20
158.87244252090534
30
0
0
SPLINE
5
611
100
AcDbEntity
8
0
100
AcDbSpline
70
0
71
2
72
6
73
3
74
0
42
0.000000001
43
0.0000000001
44
0.0000000001
40
0
40
0
40
0
40
1
40
1
40
1
10
80.297640674164143
20
158.87244252090534
30
0
10
80.298373842091962
20
158.59470372534292
30
0
10
80.478481314715197
20
158.44609789579212
30
0
0
SPLINE
5
612
100
AcDbEntity
8
0
100
AcDbSpline
70
0
71
2
72
6
73
3
74
0
42
0.000000001
43
0.0000000001
44
0.0000000001
40
0
40
0
40
0
40
1
40
1
40
1
10
80.478481314715197
20
158.44609789579212
30
0
10
80.656546143278959
20
158.29748667412056
30
0
10
80.889356306242902
20
158.29810124056746
30
0
0
LINE
5
613
100
AcDbEntity
8
0
100
AcDbLine
10
80.889356306242902
20
158.29810124056746
30
0
11
82.147350866467178
21
158.3014220631521
31
0
0
LINE
5
614
100
AcDbEntity
8
0
100
AcDbLine
10
82.147350866467178
20
158.30142206315213
30
0
11
82.148321237356839
21
157.93382600239281
31
0
0
LINE
5
615
100
AcDbEntity
8
0
100
AcDbLine
10
82.148321237356839
20
157.93382600239281
30
0
11
79.961126285158798
21
157.92805229984759
31
0
0
LINE
5
616
100
AcDbEntity
8
0
100
AcDbLine
10
79.95393476640379
20
160.65234462290138
30
0
11
81.733190551566707
21
161.24111417537844
31
0
0
LINE
5
617
100
AcDbEntity
8
0
100
AcDbLine
10
81.733190551566707
20
161.24111417537844
30
0
11
79.950781063372517
21
161.84703092630255
31
0
0
LINE
5
618
100
AcDbEntity
8
0
100
AcDbLine
10
79.950781063372517
20
161.84703092630255
30
0
11
79.949719046885235
21
162.24934418749604
31
0
0
LINE
5
619
100
AcDbEntity
8
0
100
AcDbLine
10
79.949719046885235
20
162.24934418749604
30
0
11
82.139091940677588
21
161.43006969541455
31
0
0
LINE
5
620
100
AcDbEntity
8
0
100
AcDbLine
10
82.139091940677588
20
161.43006969541455
30
0
11
82.14012700128157
21
161.03796786638526
31
0
0
LINE
5
621
100
AcDbEntity
8
0
100
AcDbLine
10
82.140127001281584
20
161.03796786638526
30
0
11
79.955061472605408
21
160.22552559343791
31
0
0
LINE
5
622
100
AcDbEntity
8
0
100
AcDbLine
10
79.955061472605394
20
160.22552559343791
30
0
11
79.95393476640379
21
160.65234462290135
31
0
0
SPLINE
5
623
100
AcDbEntity
8
0
100
AcDbSpline
70
0
71
2
72
6
73
3
74
0
42
0.000000001
43
0.0000000001
44
0.0000000001
40
0
40
0
40
0
40
1
40
1
40
1
10
82.136450377401019
20
162.43074713231618
30
0
10
81.758589571902093
20
162.45017147935638
30
0
10
81.478452923881846
20
162.58421881867665
30
0
0
SPLINE
5
624
100
AcDbEntity
8
0
100
AcDbSpline
70
0
71
2
72
6
73
3
74
0
42
0.000000001
43
0.0000000001
44
0.0000000001
40
0
40
0
40
0
40
1
40
1
40
1
10
81.478452923881846
20
162.58421881867665
30
0
10
81.198310292416792
20
162.72030701234982
30
0
10
80.968543774331764
20
163.11384710404187
30
0
0
LINE
5
625
100
AcDbEntity
8
0
100
AcDbLine
10
80.968543774331764
20
163.11384710404187
30
0
11
80.740824691662297
21
163.50535173035485
31
0
0
SPLINE
5
626
100
AcDbEntity
8
0
100
AcDbSpline
70
0
71
2
72
6
73
3
74
0
42
0.000000001
43
0.0000000001
44
0.0000000001
40
0
40
0
40
0
40
1
40
1
40
1
10
80.740824691662297
20
163.50535173035482
30
0
10
80.586964334736706
20
163.768390676781
30
0
10
80.47844711797498
20
163.87429860506441
30
0
0
SPLINE
5
627
100
AcDbEntity
8
0
100
AcDbSpline
70
0
71
2
72
6
73
3
74
0
42
0.000000001
43
0.0000000001
44
0.0000000001
40
0
40
0
40
0
40
1
40
1
40
1
10
80.47844711797498
20
163.87429860506441
30
0
10
80.308502556296702
20
164.04131220681194
30
0
10
80.089987325482852
20
164.04073537576949
30
0
0
SPLINE
5
628
100
AcDbEntity
8
0
100
AcDbSpline
70
0
71
2
72
6
73
3
74
0
42
0.000000001
43
0.0000000001
44
0.0000000001
40
0
40
0
40
0
40
1
40
1
40
1
10
80.089987325482852
20
164.04073537576949
30
0
10
79.834712846219688
20
164.04006150858211
30
0
10
79.686036338789449
20
163.88650244671487
30
0
0
SPLINE
5
629
100
AcDbEntity
8
0
100
AcDbSpline
70
0
71
2
72
6
73
3
74
0
42
0.000000001
43
0.0000000001
44
0.0000000001
40
0
40
0
40
0
40
1
40
1
40
1
10
79.686036338789449
20
163.88650244671487
30
0
10
79.535318078219447
20
163.73293918717582
30
0
10
79.535991946980246
20
163.47766411186828
30
0
0
SPLINE
5
630
100
AcDbEntity
8
0
100
AcDbSpline
70
0
71
2
72
6
73
3
74
0
42
0.000000001
43
0.0000000001
44
0.0000000001
40
0
40
0
40
0
40
1
40
1
40
1
10
79.535991946980246
20
163.47766411186828
30
0
10
79.536989270606355
20
163.09985781103347
30
0
10
79.82327990947492
20
162.95561640563972
30
0
0
SPLINE
5
631
100
AcDbEntity
8
0
100
AcDbSpline
70
0
71
2
72
6
73
3
74
0
42
0.000000001
43
0.0000000001
44
0.0000000001
40
0
40
0
40
0
40
1
40
1
40
1
10
79.82327990947492
20
162.95561640563972
30
0
10
79.97664969198182
20
162.87841694156396
30
0
10
80.248283309643682
20
162.87096574421608
30
0
0
LINE
5
632
100
AcDbEntity
8
0
100
AcDbLine
10
80.248283309643682
20
162.87096574421608
30
0
11
80.249269855322055
21
162.49724234732273
31
0
0
SPLINE
5
633
100
AcDbEntity
8
0
100
AcDbSpline
70
0
71
2
72
6
73
3
74
0
42
0.000000001
43
0.0000000001
44
0.0000000001
40
0
40
0
40
0
40
1
40
1
40
1
10
80.249269855322069
20
162.49724234732273
30
0
10
79.867362687623967
20
162.50236157716267
30
0
10
79.626027637237172
20
162.63651015187307
30
0
0
SPLINE
5
634
100
AcDbEntity
8
0
100
AcDbSpline
70
0
71
2
72
6
73
3
74
0
42
0.000000001
43
0.0000000001
44
0.0000000001
40
0
40
0
40
0
40
1
40
1
40
1
10
79.626027637237172
20
162.63651015187307
30
0
10
79.200619616530986
20
162.87432633453005
30
0
10
79.199023898099838
20
163.47881665428346
30
0
0
SPLINE
5
635
100
AcDbEntity
8
0
100
AcDbSpline
70
0
71
2
72
6
73
3
74
0
42
0.000000001
43
0.0000000001
44
0.0000000001
40
0
40
0
40
0
40
1
40
1
40
1
10
79.199023898099838
20
163.47881665428346
30
0
10
79.197697725914267
20
163.9811974207494
30
0
10
79.468700900362705
20
164.21268372328623
30
0
0
SPLINE
5
636
100
AcDbEntity
8
0
100
AcDbSpline
70
0
71
2
72
6
73
3
74
0
42
0.000000001
43
0.0000000001
44
0.0000000001
40
0
40
0
40
0
40
1
40
1
40
1
10
79.468700900362705
20
164.21268372328623
30
0
10
79.739698687410709
20
164.44621088174941
30
0
10
80.072576951691431
20
164.44708960546802
30
0
0
SPLINE
5
637
100
AcDbEntity
8
0
100
AcDbSpline
70
0
71
2
72
6
73
3
74
0
42
0.000000001
43
0.0000000001
44
0.0000000001
40
0
40
0
40
0
40
1
40
1
40
1
10
80.072576951691431
20
164.44708960546802
30
0
10
80.423835436241177
20
164.44801684883254
30
0
10
80.673636074883817
20
164.20156885321961
30
0
0
SPLINE
5
638
100
AcDbEntity
8
0
100
AcDbSpline
70
0
71
2
72
6
73
3
74
0
42
0.000000001
43
0.0000000001
44
0.0000000001
40
0
40
0
40
0
40
1
40
1
40
1
10
80.673636074883817
20
164.20156885321961
30
0
10
80.819009579386602
20
164.05899752054307
30
0
10
81.026247091458075
20
163.68990389638049
30
0
0
LINE
5
639
100
AcDbEntity
8
0
100
AcDbLine
10
81.026247091458075
20
163.68990389638049
30
0
11
81.182192623923939
21
163.41053276429207
31
0
0
SPLINE
5
640
100
AcDbEntity
8
0
100
AcDbSpline
70
0
71
2
72
6
73
3
74
0
42
0.000000001
43
0.0000000001
44
0.0000000001
40
0
40
0
40
0
40
1
40
1
40
1
10
81.182192623923939
20
163.4105327642921
30
0
10
81.292999875904016
20
163.2106876732401
30
0
10
81.393369273852599
20
163.09658879547155
30
0
0
SPLINE
5
641
100
AcDbEntity
8
0
100
AcDbSpline
70
0
71
2
72
6
73
3
74
0
42
0.000000001
43
0.0000000001
44
0.0000000001
40
0
40
0
40
0
40
1
40
1
40
1
10
81.393369273852599
20
163.09658879547155
30
0
10
81.57157965663373
20
162.89283870112601
30
0
10
81.788193006249401
20
162.84031212487361
30
0
0
LINE
5
642
100
AcDbEntity
8
0
100
AcDbLine
10
81.788193006249401
20
162.84031212487361
30
0
11
81.783977286730845
21
164.43731168946829
31
0
0
LINE
5
643
100
AcDbEntity
8
0
100
AcDbLine
10
81.783977286730845
20
164.43731168946826
30
0
11
82.13115107920602
21
164.43822815016475
31
0
0
LINE
5
644
100
AcDbEntity
8
0
100
AcDbLine
10
82.13115107920602
20
164.43822815016475
30
0
11
82.136450377401019
21
162.43074713231613
31
0
0
LINE
5
645
100
AcDbEntity
8
0
100
AcDbLine
10
81.684512446354347
20
164.98232027536656
30
0
11
81.683385737005892
21
165.40914049691875
31
0
0
LINE
5
646
100
AcDbEntity
8
0
100
AcDbLine
10
81.683385737005878
20
165.40914049691875
30
0
11
82.128584986738375
21
165.41031572276623
31
0
0
LINE
5
647
100
AcDbEntity
8
0
100
AcDbLine
10
82.128584986738375
20
165.41031572276626
30
0
11
82.129711696086815
21
164.98349550121407
31
0
0
LINE
5
648
100
AcDbEntity
8
0
100
AcDbLine
10
82.129711696086815
20
164.98349550121404
30
0
11
81.684512446354333
21
164.98232027536656
31
0
0
SPLINE
5
649
100
AcDbEntity
8
0
100
AcDbSpline
70
0
71
2
72
6
73
3
74
0
42
0.000000001
43
0.0000000001
44
0.0000000001
40
0
40
0
40
0
40
1
40
1
40
1
10
79.200172851969185
20
166.91178023766739
30
0
10
79.198674166536094
20
167.47951250106027
30
0
10
79.665668956332127
20
167.73398005415396
30
0
0
SPLINE
5
650
100
AcDbEntity
8
0
100
AcDbSpline
70
0
71
2
72
6
73
3
74
0
42
0.000000001
43
0.0000000001
44
0.0000000001
40
0
40
0
40
0
40
1
40
1
40
1
10
79.665668956332127
20
167.73398005415396
30
0
10
80.026620746699763
20
167.93098516634296
30
0
10
80.655617430767535
20
167.93264557606187
30
0
0
SPLINE
5
651
100
AcDbEntity
8
0
100
AcDbSpline
70
0
71
2
72
6
73
3
74
0
42
0.000000001
43
0.0000000001
44
0.0000000001
40
0
40
0
40
0
40
1
40
1
40
1
10
80.655617430767535
20
167.93264557606187
30
0
10
81.251939558460577
20
167.93421973230383
30
0
10
81.642468947748625
20
167.75757811364397
30
0
0
SPLINE
5
652
100
AcDbEntity
8
0
100
AcDbSpline
70
0
71
2
72
6
73
3
74
0
42
0.000000001
43
0.0000000001
44
0.0000000001
40
0
40
0
40
0
40
1
40
1
40
1
10
81.642468947748625
20
167.75757811364397
30
0
10
82.202710490256067
20
167.50173810884496
30
0
10
82.204252300067466
20
166.91766946133129
30
0
0
SPLINE
5
653
100
AcDbEntity
8
0
100
AcDbSpline
70
0
71
2
72
6
73
3
74
0
42
0.000000001
43
0.0000000001
44
0.0000000001
40
0
40
0
40
0
40
1
40
1
40
1
10
82.204252300067466
20
166.91766946133129
30
0
10
82.205643161967373
20
166.39078292659542
30
0
10
81.748869691363609
20
166.13225823099469
30
0
0
SPLINE
5
654
100
AcDbEntity
8
0
100
AcDbSpline
70
0
71
2
72
6
73
3
74
0
42
0.000000001
43
0.0000000001
44
0.0000000001
40
0
40
0
40
0
40
1
40
1
40
1
10
81.748869691363609
20
166.13225823099469
30
0
10
81.367544753122374
20
165.91681720178383
30
0
10
80.724251944815791
20
165.91511905351365
30
0
0
SPLINE
5
655
100
AcDbEntity
8
0
100
AcDbSpline
70
0
71
2
72
6
73
3
74
0
42
0.000000001
43
0.0000000001
44
0.0000000001
40
0
40
0
40
0
40
1
40
1
40
1
10
80.724251944815791
20
165.91511905351365
30
0
10
80.225955870424428
20
165.91380366399605
30
0
10
79.868231609028498
20
166.04152000273979
30
0
0
SPLINE
5
656
100
AcDbEntity
8
0
100
AcDbSpline
70
0
71
2
72
6
73
3
74
0
42
0.000000001
43
0.0000000001
44
0.0000000001
40
0
40
0
40
0
40
1
40
1
40
1
10
79.868231609028498
20
166.04152000273979
30
0
10
79.201838653808792
20
166.28074090954016
30
0
10
79.200172851969185
20
166.91178023766739
30
0
0
SPLINE
5
657
100
AcDbEntity
8
0
100
AcDbSpline
70
0
71
2
72
6
73
3
74
0
42
0.000000001
43
0.0000000001
44
0.0000000001
40
0
40
0
40
0
40
1
40
1
40
1
10
81.86933678542141
20
166.91474210538814
30
0
10
81.868582052157578
20
167.20065028509967
30
0
10
81.614902170869144
20
167.36948490668914
30
0
0
SPLINE
5
658
100
AcDbEntity
8
0
100
AcDbSpline
70
0
71
2
72
6
73
3
74
0
42
0.000000001
43
0.0000000001
44
0.0000000001
40
0
40
0
40
0
40
1
40
1
40
1
10
81.614902170869144
20
167.36948490668914
30
0
10
81.361222289580709
20
167.53831952827866
30
0
10
80.670958800660557
20
167.53649738798026
30
0
0
SPLINE
5
659
100
AcDbEntity
8
0
100
AcDbSpline
70
0
71
2
72
6
73
3
74
0
42
0.000000001
43
0.0000000001
44
0.0000000001
40
0
40
0
40
0
40
1
40
1
40
1
10
80.670958800660557
20
167.53649738798026
30
0
10
80.172662726269195
20
167.53518199846269
30
0
10
79.852360804135628
20
167.41180320198524
30
0
0
SPLINE
5
660
100
AcDbEntity
8
0
100
AcDbSpline
70
0
71
2
72
6
73
3
74
0
42
0.000000001
43
0.0000000001
44
0.0000000001
40
0
40
0
40
0
40
1
40
1
40
1
10
79.852360804135628
20
167.41180320198524
30
0
10
79.530017132009135
20
167.28841901574719
30
0
10
79.530949762774071
20
166.9351196752711
30
0
0
SPLINE
5
661
100
AcDbEntity
8
0
100
AcDbSpline
70
0
71
2
72
6
73
3
74
0
42
0.000000001
43
0.0000000001
44
0.0000000001
40
0
40
0
40
0
40
1
40
1
40
1
10
79.530949762774071
20
166.9351196752711
30
0
10
79.53180692587695
20
166.61040900700638
30
0
10
79.838535411773989
20
166.46009417409832
30
0
0
SPLINE
5
662
100
AcDbEntity
8
0
100
AcDbSpline
70
0
71
2
72
6
73
3
74
0
42
0.000000001
43
0.0000000001
44
0.0000000001
40
0
40
0
40
0
40
1
40
1
40
1
10
79.838535411773989
20
166.46009417409832
30
0
10
80.14321675398395
20
166.31181719153352
30
0
10
80.737496237617535
20
166.31338595565481
30
0
0
SPLINE
5
663
100
AcDbEntity
8
0
100
AcDbSpline
70
0
71
2
72
6
73
3
74
0
42
0.000000001
43
0.0000000001
44
0.0000000001
40
0
40
0
40
0
40
1
40
1
40
1
10
80.737496237617535
20
166.31338595565481
30
0
10
81.184738131409489
20
166.31456657362298
30
0
10
81.456096809131651
20
166.4112681696665
30
0
0
SPLINE
5
664
100
AcDbEntity
8
0
100
AcDbSpline
70
0
71
2
72
6
73
3
74
0
42
0.000000001
43
0.0000000001
44
0.0000000001
40
0
40
0
40
0
40
1
40
1
40
1
10
81.456096809131651
20
166.4112681696665
30
0
10
81.870274809880485
20
166.55939952480819
30
0
10
81.86933678542141
20
166.91474210538814
30
0
0
ENDSEC
0
SECTION
2
OBJECTS
0
DICTIONARY
5
C
100
AcDbDictionary
3
ACAD_GROUP
350
D
3
ACAD_MLINESTYLE
350
17
0
DICTIONARY
5
D
100
AcDbDictionary
0
DICTIONARY
5
1A
330
C
100
AcDbDictionary
0
DICTIONARY
5
17
100
AcDbDictionary
0
ENDSEC
0
EOF
