0
SECTION
2
HEADER
9
$INSUNITS
70
4
9
$ACADVER
1
AC1014
9
$HANDSEED
5
FFFF
0
ENDSEC
0
SECTION
2
TABLES
0
TABLE
2
VPORT
5
8
100
AcDbSymbolTable
0
ENDTAB
0
TABLE
2
LTYPE
5
5
100
AcDbSymbolTable
0
LTYPE
5
14
100
AcDbSymbolTableRecord
100
AcDbLinetypeTableRecord
2
BYBLOCK
70
0
0
LTYPE
5
15
100
AcDbSymbolTableRecord
100
AcDbLinetypeTableRecord
2
BYLAYER
70
0
0
ENDTAB
0
TABLE
2
LAYER
5
2
100
AcDbSymbolTable
70
2
0
LAYER
5
50
100
AcDbSymbolTableRecord
100
AcDbLayerTableRecord
2
0
70
0
6
CONTINUOUS
0
ENDTAB
0
TABLE
2
STYLE
5
3
100
AcDbSymbolTable
70
1
0
STYLE
5
11
100
AcDbSymbolTableRecord
100
AcDbTextStyleTableRecord
2
STANDARD
70
0
0
ENDTAB
0
TABLE
2
VIEW
5
6
100
AcDbSymbolTable
70
0
0
ENDTAB
0
TABLE
2
UCS
5
7
100
AcDbSymbolTable
70
0
0
ENDTAB
0
TABLE
2
APPID
5
9
100
AcDbSymbolTable
70
2
0
APPID
5
12
100
AcDbSymbolTableRecord
100
AcDbRegAppTableRecord
2
ACAD
70
0
0
ENDTAB
0
TABLE
2
DIMSTYLE
5
A
100
AcDbSymbolTable
70
1
0
ENDTAB
0
TABLE
2
BLOCK_RECORD
5
1
100
AcDbSymbolTable
70
1
0
BLOCK_RECORD
5
1F
100
AcDbSymbolTableRecord
100
AcDbBlockTableRecord
2
*MODEL_SPACE
0
BLOCK_RECORD
5
1B
100
AcDbSymbolTableRecord
100
AcDbBlockTableRecord
2
*PAPER_SPACE
0
ENDTAB
0
ENDSEC
0
SECTION
2
BLOCKS
0
BLOCK
5
20
100
AcDbEntity
100
AcDbBlockBegin
2
*MODEL_SPACE
0
ENDBLK
5
21
100
AcDbEntity
100
AcDbBlockEnd
0
BLOCK
5
1C
100
AcDbEntity
100
AcDbBlockBegin
2
*PAPER_SPACE
0
ENDBLK
5
1D
100
AcDbEntity
100
AcDbBlockEnd
0
ENDSEC
0
SECTION
2
ENTITIES
0
LWPOLYLINE
5
100
100
AcDbEntity
8
0
100
AcDbPolyline
90
60
70
1
43
0.0
10
-32.209372592860433
20
6.0446103861744689
42
0.81649657906842932
10
-43.966923552372982
20
6.0446122735864227
42
-0.35639387332796751
10
-45.436617138890028
20
4.844612512792045
10
-87.978225304782626
20
4.8446065477443847
42
-0.35639404275062964
10
-89.447919408214062
20
6.0446067801344796
42
0.81649666837717272
10
-101.20546035251431
20
6.0446074054252321
42
-0.35639397327542194
10
-102.67515421371138
20
4.8446073293579301
10
-183.04327503508944
20
4.8446073293579159
42
-0.3563939733715365
10
-184.51296889638888
20
6.0446074059266222
42
0.81649658095919619
10
-196.27051966107376
20
6.044608018032096
42
-0.35639394403494673
10
-197.74021349113681
20
4.8446080944897707
10
-239.78181719292053
20
4.8446080944897743
42
-0.35639394362811366
10
-241.2515110225504
20
6.0446080159099722
42
0.81649658275113168
10
-253.00906179351983
20
6.0446073615450944
42
-0.35639396414658731
10
-254.4787555988141
20
4.8446072765336599
10
-280.20532318089766
20
4.8446073222499173
42
-0.41421356185244035
10
-284.20532317378962
20
8.8446073222509725
10
-284.20532317378962
20
27.548753529671394
42
-0.35639483369447572
10
-283.00531860958051
20
29.018448306999186
42
0.81649706601937555
10
-283.00528894010137
20
40.776000469772846
42
-0.35639639244228311
10
-284.20528608685674
20
42.245709601798538
10
-284.20496553367275
20
72.546114019139338
42
-0.35639126099042245
10
-283.00496405745344
20
74.015792297399898
42
0.81649743969438071
10
-283.00496436341439
20
85.77334259174846
42
-0.35639394718954465
10
-284.20496591620702
20
87.243035108327263
10
-284.20497447723159
20
95.044447026299196
42
-0.4142138837849571
10
-280.20497447723403
20
99.04445141577358
10
-266.32802696383129
20
99.044451415773622
42
-0.41421375680925193
10
-264.82802696383158
20
97.544450420003685
10
-264.82802712968635
20
97.294611487642783
42
0.99999999999999989
10
-258.62802709988546
20
97.294607371793347
10
-258.62802693402665
20
97.544452411543631
42
-0.41421336793692665
10
-257.12802693402693
20
99.044451415773622
10
-196.82871557148025
20
99.044451415773622
42
-0.35639395869262019
10
-195.35902172581032
20
97.844451415773634
42
0.81649658092772415
10
-183.60147096045119
20
97.844451415773619
42
-0.35639395869262669
10
-182.13177711478124
20
99.044451415773622
10
-103.58665757148023
20
99.044451415773622
42
-0.35639395869261076
10
-102.11696372581032
20
97.844451415773619
42
0.8164965809277247
10
-90.359412960451081
20
97.844451415773619
42
-0.35639395869261076
10
-88.889719114781172
20
99.044451415773622
10
-28.59080684299888
20
99.044451415773622
42
-0.41421375680929973
10
-27.090806842999214
20
97.544450420003585
10
-27.090807008958731
20
97.294453666577724
42
0.99999994424496197
10
-20.890806979157851
20
97.294449484450183
10
-20.890806813194239
20
97.544452411543702
42
-0.41421336793690239
10
-19.390806813194565
20
99.044451415773608
10
-5.5134602191935329
20
99.044451415773622
42
-0.41421388377909218
10
-1.513460219195919
20
95.044447026379245
10
-1.5134690844692356
20
86.965634733980991
42
-0.31783722573206363
10
-2.5134705363526328
20
85.551422304312993
42
0.70710672815289111
10
-2.5134829514313233
20
74.237716916568402
42
-0.31783722573206813
10
-1.5134846033183713
20
72.823502292203457
10
-1.5135181579181678
20
42.245616643686184
42
-0.35637893336055859
10
-2.7134413951687817
20
40.775940115257825
42
0.81647481807038946
10
-2.7131343482974684
20
29.018452031779045
42
-0.35639395870761154
10
-1.5131343493281468
20
27.54875818518769
10
-1.513134363441571
20
8.8446077128608209
42
-0.41421359045444345
10
-5.5131347499626955
20
4.8446077158790821
10
-30.739678895449316
20
4.8446101535271247
42
-0.35639396652480454
0
ENDSEC
0
SECTION
2
OBJECTS
0
DICTIONARY
5
C
100
AcDbDictionary
3
ACAD_GROUP
350
D
3
ACAD_MLINESTYLE
350
17
0
DICTIONARY
5
D
100
AcDbDictionary
0
DICTIONARY
5
1A
330
C
100
AcDbDictionary
0
DICTIONARY
5
17
100
AcDbDictionary
0
ENDSEC
0
EOF
