0
SECTION
2
HEADER
9
$INSUNITS
70
4
9
$ACADVER
1
AC1014
9
$HANDSEED
5
FFFF
0
ENDSEC
0
SECTION
2
TABLES
0
TABLE
2
VPORT
5
8
100
AcDbSymbolTable
0
ENDTAB
0
TABLE
2
LTYPE
5
5
100
AcDbSymbolTable
0
LTYPE
5
14
100
AcDbSymbolTableRecord
100
AcDbLinetypeTableRecord
2
BYBLOCK
70
0
0
LTYPE
5
15
100
AcDbSymbolTableRecord
100
AcDbLinetypeTableRecord
2
BYLAYER
70
0
0
ENDTAB
0
TABLE
2
LAYER
5
2
100
AcDbSymbolTable
70
2
0
LAYER
5
50
100
AcDbSymbolTableRecord
100
AcDbLayerTableRecord
2
0
70
0
6
CONTINUOUS
0
ENDTAB
0
TABLE
2
STYLE
5
3
100
AcDbSymbolTable
70
1
0
STYLE
5
11
100
AcDbSymbolTableRecord
100
AcDbTextStyleTableRecord
2
STANDARD
70
0
0
ENDTAB
0
TABLE
2
VIEW
5
6
100
AcDbSymbolTable
70
0
0
ENDTAB
0
TABLE
2
UCS
5
7
100
AcDbSymbolTable
70
0
0
ENDTAB
0
TABLE
2
APPID
5
9
100
AcDbSymbolTable
70
2
0
APPID
5
12
100
AcDbSymbolTableRecord
100
AcDbRegAppTableRecord
2
ACAD
70
0
0
ENDTAB
0
TABLE
2
DIMSTYLE
5
A
100
AcDbSymbolTable
70
1
0
ENDTAB
0
TABLE
2
BLOCK_RECORD
5
1
100
AcDbSymbolTable
70
1
0
BLOCK_RECORD
5
1F
100
AcDbSymbolTableRecord
100
AcDbBlockTableRecord
2
*MODEL_SPACE
0
BLOCK_RECORD
5
1B
100
AcDbSymbolTableRecord
100
AcDbBlockTableRecord
2
*PAPER_SPACE
0
ENDTAB
0
ENDSEC
0
SECTION
2
BLOCKS
0
BLOCK
5
20
100
AcDbEntity
100
AcDbBlockBegin
2
*MODEL_SPACE
0
ENDBLK
5
21
100
AcDbEntity
100
AcDbBlockEnd
0
BLOCK
5
1C
100
AcDbEntity
100
AcDbBlockBegin
2
*PAPER_SPACE
0
ENDBLK
5
1D
100
AcDbEntity
100
AcDbBlockEnd
0
ENDSEC
0
SECTION
2
ENTITIES
0
LWPOLYLINE
5
100
100
AcDbEntity
8
0
100
AcDbPolyline
90
88
70
1
43
0.0
10
-28.855299139029988
20
97.719656558961418
42
0.99999993419825606
10
-22.655299139031332
20
97.719652441379196
10
-22.65529426427268
20
104.39421872915248
42
-0.4142133484590319
10
-21.155294264273085
20
105.89421763362995
10
-2.7739506005972459
20
105.89421763362994
42
-0.41421356237309537
10
1.2260493994027577
20
101.89421763362994
10
1.2260493994027506
20
87.843622419748442
42
-0.41421356237310269
10
-0.27395060059725668
20
86.343622419748428
10
-1.7742679430273256
20
86.343622419748442
42
0.99999999999999989
10
-1.77426794302738
20
74.343622419748456
10
-0.27395060059724191
20
74.343622419748456
42
-0.41421356237309098
10
1.2260493994027586
20
72.843622419748456
10
1.226049399402759
20
42.846243051119366
42
-0.4142135623730917
10
-0.2739506005972453
20
41.346243051119359
10
-2.7741179430267371
20
41.346243051119373
42
0.99999999999999989
10
-2.7741179430267371
20
29.346243051119366
10
-0.27395060059724369
20
29.346243051119369
42
-0.41421356237309526
10
1.2260493994027566
20
27.846243051119369
10
1.2260493994027577
20
2.8941892235910105
42
-0.4142135623730957
10
-2.7739506005972414
20
-1.1058107764089975
10
-31.848939794617873
20
-1.1058107764089955
42
-0.4142134937206462
10
-33.348939794617834
20
0.39418887199982267
10
-33.348940943026705
20
5.2936670511193196
42
0.99999999999999989
10
-45.348937943026762
20
5.2936670511193196
10
-45.348939091435639
20
0.39418887199982355
42
-0.41421349372065053
10
-46.848939091435597
20
-1.1058107764089986
10
-56.32742053924229
20
-1.1058107764090017
42
-0.26794919243111992
10
-57.626458644918948
20
-0.35581077640899916
10
-60.455880172601823
20
4.5448910655668904
42
0.26794919243112036
10
-61.754918278278481
20
5.2948910655668948
10
-89.239262488963348
20
5.2948910655668913
42
-0.35634687420138028
10
-90.708906179775994
20
6.4946454626773793
42
0.81635732838552877
10
-102.46605570627747
20
6.4946454626773793
42
-0.35634687420138028
10
-103.93569939709012
20
5.2948910655668904
10
-184.30431648896334
20
5.2948910655668939
42
-0.35634687420139649
10
-185.77396017977603
20
6.4946454626773784
42
0.81635732838552966
10
-197.53110970627748
20
6.4946454626773793
42
-0.35634687420139716
10
-199.00075339709016
20
5.2948910655668886
10
-226.466973607775
20
5.2948910655668744
42
0.2679491924311313
10
-227.76601171345166
20
4.5448910655668922
10
-230.59543324113457
20
-0.35581077640900194
42
-0.26794919243112214
10
-231.8944713468112
20
-1.1058107764089964
10
-240.89107794302677
20
-1.1058107764089837
42
-0.41421356237309503
10
-242.39107794302674
20
0.39418922359100189
10
-242.39107794302674
20
5.2936630511193306
42
0.99999999999999989
10
-254.3910779430268
20
5.2936630511193306
10
-254.3910779430268
20
0.39418922359100161
42
-0.41421356237309492
10
-255.89107794302677
20
-1.1058107764089837
10
-285.4739401929221
20
-1.1058107764089808
42
-0.41421356237310258
10
-289.4739401929221
20
2.8941892235910012
10
-289.4739401929221
20
27.846288051119366
42
-0.41421356237309587
10
-287.9739401929221
20
29.346288051119359
10
-285.46609594302674
20
29.346288051119373
42
0.99999999999999989
10
-285.46609594302674
20
41.346288051119402
10
-287.9739401929221
20
41.346288051119402
42
-0.41421356237309681
10
-289.4739401929221
20
42.846288051119394
10
-289.4739401929221
20
72.84362905111945
42
-0.41421356237308637
10
-287.9739401929221
20
74.343629051119436
10
-285.46575844302674
20
74.343629051119422
42
0.99999999999999989
10
-285.46575844302674
20
86.34362905111945
10
-287.9739401929221
20
86.343629051119436
42
-0.4142135623730881
10
-289.4739401929221
20
87.843629051119464
10
-289.47394019292221
20
101.89421763362994
42
-0.41421356237308982
10
-285.47394019292221
20
105.89421763362998
10
-266.99251484208463
20
105.89421723516074
42
-0.41421367908195827
10
-265.49251484208497
20
104.39421663745708
10
-265.49251927465895
20
97.719813745986755
42
1.0000000074505804
10
-259.29251924485783
20
97.71980962847104
10
-259.29251924485783
20
104.39421763362998
42
-0.41421356237309165
10
-257.79251924485783
20
105.89421763362998
10
-231.8944713468112
20
105.89421763362998
42
-0.26794919243112864
10
-230.59543324113457
20
105.14421763362996
10
-227.76682825595671
20
100.2449300847593
42
0.2679491299439295
10
-226.46779050008786
20
99.494930084759346
10
-198.08979540599387
20
99.494923466862645
42
-0.35644822006911969
10
-196.62004409324669
20
98.294640083714043
42
0.81665707755621675
10
-184.8620313519713
20
98.294637341684052
42
-0.35644822006915189
10
-183.39227947939952
20
99.494920039325166
10
-104.8477333697795
20
99.494901722326702
42
-0.35644736717595238
10
-103.3779829642752
20
98.294622788085263
42
0.81665455467947601
10
-91.619977480951007
20
98.294620046056963
42
-0.35644736717595349
10
-90.150226515624254
20
99.494898294791312
10
-61.754124262810308
20
99.494891672671898
42
0.26794925491827287
10
-60.455085807325808
20
100.24489167267188
10
-57.626458644918955
20
105.14421763362995
42
-0.2679491924311036
10
-56.32742053924229
20
105.89421763362994
10
-30.35529514828379
20
105.89421763362994
42
-0.41421373749511614
10
-28.855295148284057
20
104.39421673677401
0
CIRCLE
5
101
100
AcDbEntity
8
0
100
AcDbCircle
10
-284.46947724095514
20
6.2949440675169308
30
2.7755575615628914e-16
40
3.5000000149011683
210
-1.173350997230506e-22
220
-1.8700300544145562e-17
230
1
0
CIRCLE
5
102
100
AcDbEntity
8
0
100
AcDbCircle
10
-284.46945574063255
20
98.494943611044206
30
1.6653345369377348e-15
40
3.5000041169680145
210
-6.3864221027295192e-23
220
-1.8700300544268097e-17
230
1
0
CIRCLE
5
103
100
AcDbEntity
8
0
100
AcDbCircle
10
-3.7739021231578107
20
98.49487815137428
30
1.6653345369377348e-15
40
3.4999959128259004
210
-1.0635093143933483e-22
220
-1.8700300544171489e-17
230
1
0
CIRCLE
5
104
100
AcDbEntity
8
0
100
AcDbCircle
10
-3.7739236247362076
20
6.2948786078487773
30
0
40
3.5000041169680109
210
-6.3948231602225364e-23
220
-1.8700300544267804e-17
230
1
0
ENDSEC
0
SECTION
2
OBJECTS
0
DICTIONARY
5
C
100
AcDbDictionary
3
ACAD_GROUP
350
D
3
ACAD_MLINESTYLE
350
17
0
DICTIONARY
5
D
100
AcDbDictionary
0
DICTIONARY
5
1A
330
C
100
AcDbDictionary
0
DICTIONARY
5
17
100
AcDbDictionary
0
ENDSEC
0
EOF
