0
SECTION
2
HEADER
9
$INSUNITS
70
4
9
$ACADVER
1
AC1014
9
$HANDSEED
5
FFFF
0
ENDSEC
0
SECTION
2
TABLES
0
TABLE
2
VPORT
5
8
100
AcDbSymbolTable
0
ENDTAB
0
TABLE
2
LTYPE
5
5
100
AcDbSymbolTable
0
LTYPE
5
14
100
AcDbSymbolTableRecord
100
AcDbLinetypeTableRecord
2
BYBLOCK
70
0
0
LTYPE
5
15
100
AcDbSymbolTableRecord
100
AcDbLinetypeTableRecord
2
BYLAYER
70
0
0
ENDTAB
0
TABLE
2
LAYER
5
2
100
AcDbSymbolTable
70
2
0
LAYER
5
50
100
AcDbSymbolTableRecord
100
AcDbLayerTableRecord
2
0
70
0
6
CONTINUOUS
0
ENDTAB
0
TABLE
2
STYLE
5
3
100
AcDbSymbolTable
70
1
0
STYLE
5
11
100
AcDbSymbolTableRecord
100
AcDbTextStyleTableRecord
2
STANDARD
70
0
0
ENDTAB
0
TABLE
2
VIEW
5
6
100
AcDbSymbolTable
70
0
0
ENDTAB
0
TABLE
2
UCS
5
7
100
AcDbSymbolTable
70
0
0
ENDTAB
0
TABLE
2
APPID
5
9
100
AcDbSymbolTable
70
2
0
APPID
5
12
100
AcDbSymbolTableRecord
100
AcDbRegAppTableRecord
2
ACAD
70
0
0
ENDTAB
0
TABLE
2
DIMSTYLE
5
A
100
AcDbSymbolTable
70
1
0
ENDTAB
0
TABLE
2
BLOCK_RECORD
5
1
100
AcDbSymbolTable
70
1
0
BLOCK_RECORD
5
1F
100
AcDbSymbolTableRecord
100
AcDbBlockTableRecord
2
*MODEL_SPACE
0
BLOCK_RECORD
5
1B
100
AcDbSymbolTableRecord
100
AcDbBlockTableRecord
2
*PAPER_SPACE
0
ENDTAB
0
ENDSEC
0
SECTION
2
BLOCKS
0
BLOCK
5
20
100
AcDbEntity
100
AcDbBlockBegin
2
*MODEL_SPACE
0
ENDBLK
5
21
100
AcDbEntity
100
AcDbBlockEnd
0
BLOCK
5
1C
100
AcDbEntity
100
AcDbBlockBegin
2
*PAPER_SPACE
0
ENDBLK
5
1D
100
AcDbEntity
100
AcDbBlockEnd
0
ENDSEC
0
SECTION
2
ENTITIES
0
ARC
5
100
100
AcDbEntity
8
0
100
AcDbCircle
10
-141.70012103428925
20
-49.600027906904558
30
0
40
3.9999999999999893
210
2.7369110631344114e-48
220
-2.0284721136571831e-69
230
1
100
AcDbArc
50
179.99996214401926
51
270.00006701321763
0
LINE
5
101
100
AcDbEntity
8
0
100
AcDbLine
10
-145.70012103428837
20
-49.600025263510837
30
1.0947644252535224e-47
11
-145.70010938680633
21
-31.974982094534987
31
-3.1878122480951935e-53
0
CIRCLE
5
102
100
AcDbEntity
8
0
100
AcDbCircle
10
-139.350226235001
20
-46.100721811616488
30
0
40
2.9999959128259008
210
2.7369110631344083e-48
220
0
230
1
0
LINE
5
103
100
AcDbEntity
8
0
100
AcDbLine
10
-144.20010938680664
20
-30.474983085807629
30
0
11
-141.95010682562275
21
-30.474983085807629
31
-6.1580569017848833e-48
0
ARC
5
104
100
AcDbEntity
8
0
100
AcDbCircle
10
-144.20010938680664
20
-31.974983085807629
30
0
40
1.5000000000000036
210
2.7369110631344083e-48
220
-3.2411537905526703e-62
230
1
100
AcDbArc
50
90
51
179.99996214401926
0
ARC
5
105
100
AcDbEntity
8
0
100
AcDbCircle
10
-141.95010682562275
20
-28.224983085807615
30
0
40
2.2500000000000142
210
2.7369110631343868e-48
220
-2.736914178571064e-48
230
1
100
AcDbArc
50
-90
51
90
0
LINE
5
106
100
AcDbEntity
8
0
100
AcDbLine
10
-141.95010682562275
20
-25.974983085807601
30
-1.6329625617341051e-62
11
-144.20010443044342
21
-25.974983085807626
31
6.158043336659582e-48
0
LINE
5
107
100
AcDbEntity
8
0
100
AcDbLine
10
-145.70010443044313
20
-24.474982174919681
30
0
11
-145.70007963165406
21
13.050701549699246
31
-6.7872080221136135e-53
0
ARC
5
108
100
AcDbEntity
8
0
100
AcDbCircle
10
-144.20010443044342
20
-24.474983085807629
30
0
40
1.4999999999999958
210
1.0092716689235351e-60
220
1.6620128749152134e-54
230
1
100
AcDbArc
50
179.99996520414109
51
270
0
LINE
5
109
100
AcDbEntity
8
0
100
AcDbLine
10
-141.70011635588409
20
-53.600027906901815
30
-1.2804378845534509e-53
11
-124.26882837881155
21
-53.600007519244926
31
-4.7707884909131625e-47
0
ARC
5
110
100
AcDbEntity
8
0
100
AcDbCircle
10
-124.26883013321351
20
-52.100007519245956
30
0
40
1.4999999999999993
210
2.7369482626002868e-48
220
-3.1805253404971256e-47
230
1
100
AcDbArc
50
-89.999932986781275
51
0
0
LINE
5
111
100
AcDbEntity
8
0
100
AcDbLine
10
-122.76883013321351
20
-52.100007519245956
30
-4.1053665947016101e-48
11
-122.76883013321353
21
-48.164351089535195
31
6.0771633572862712e-62
0
ARC
5
112
100
AcDbEntity
8
0
100
AcDbCircle
10
-121.2688301332135
20
-48.164351089535195
30
0
40
1.5000000000000235
210
2.7369110631344083e-48
220
4.5578725179647034e-64
230
1
100
AcDbArc
50
122.39226080194824
51
180
0
ARC
5
113
100
AcDbEntity
8
0
100
AcDbCircle
10
-122.76882581341593
20
-45.800030265413774
30
0
40
1.2999999999999927
210
1.0451488589041713e-48
220
2.6665867520254289e-48
230
1
100
AcDbArc
50
-57.607739198052649
51
0
0
ARC
5
114
100
AcDbEntity
8
0
100
AcDbCircle
10
-118.36882581341823
20
-45.625497994765929
30
0
40
3.0999999999985546
210
2.7369110631344044e-48
220
-2.8978173052245474e-69
230
1
100
AcDbArc
50
4.1756427267772647e-05
51
179.99995824357276
0
LINE
5
115
100
AcDbEntity
8
0
100
AcDbLine
10
-115.26882581342778
20
-52.099995238427368
30
0
11
-115.26882581342049
21
-45.625495735429162
31
-8.4844242957104443e-48
0
ARC
5
116
100
AcDbEntity
8
0
100
AcDbCircle
10
-113.76882581342775
20
-52.099995238427368
30
0
40
1.5000000000000391
210
0
220
0
230
1
100
AcDbArc
50
180
51
270.00006701321496
0
LINE
5
117
100
AcDbEntity
8
0
100
AcDbLine
10
-113.76882405902589
20
-53.599995238426381
30
-4.8016418947881803e-54
11
-88.973666809036644
21
-53.599966237978435
31
-6.7862140189652887e-47
0
ARC
5
118
100
AcDbEntity
8
0
100
AcDbCircle
10
-88.973668563438537
20
-52.099966237979515
30
0
40
1.499999999999946
210
2.7369639775608605e-48
220
-4.5241423591977952e-47
230
1
100
AcDbArc
50
270.00006701321604
51
330.00000016219025
0
LINE
5
119
100
AcDbEntity
8
0
100
AcDbLine
10
-85.076553611722474
20
-48.349965109252693
30
0
11
-87.674630455638862
21
-52.849966234302229
31
-3.5553517686701293e-48
0
ARC
5
120
100
AcDbEntity
8
0
100
AcDbCircle
10
-83.777515503922643
20
-49.099965105575436
30
0
40
1.5000000000000704
210
2.7369110631344083e-48
220
1.6205767986824288e-62
230
1
100
AcDbArc
50
90.000067013218739
51
150.00000016219235
0
LINE
5
121
100
AcDbEntity
8
0
100
AcDbLine
10
-51.221009365512785
20
-47.599927027443727
30
0
11
-83.777517258324607
21
-47.599965105576388
31
4.8016421011088604e-54
0
ARC
5
122
100
AcDbEntity
8
0
100
AcDbCircle
10
-51.221011119914678
20
-46.09992702744475
30
0
40
1.4999999999999993
210
2.7369110631306642e-48
220
3.2010946206300023e-54
230
1
100
AcDbArc
50
-89.999932986783975
51
0.00017292868540638929
0
ARC
5
123
100
AcDbEntity
8
0
100
AcDbCircle
10
-46.621012535102224
20
-45.625717768102405
30
0
40
3.1000000160589289
210
2.7369110631344089e-48
220
2.3182538441796379e-69
230
1
100
AcDbArc
50
0.00017207722589712709
51
180.00017292868537
0
LINE
5
124
100
AcDbEntity
8
0
100
AcDbLine
10
-49.721012551147027
20
-45.625727124581474
30
8.4844243396298827e-48
11
-49.721011119921513
21
-46.099922500116179
31
-4.1053665946829106e-48
0
LINE
5
125
100
AcDbEntity
8
0
100
AcDbLine
10
-43.52101173177887
20
-46.099918757396338
30
0
11
-43.52101251905728
21
-45.625708457816934
31
-8.4844243396302631e-48
0
ARC
5
126
100
AcDbEntity
8
0
100
AcDbCircle
10
-42.021011731780945
20
-46.099916267113834
30
0
40
1.4999999999999925
210
7.5435435500936502e-60
220
-4.5437878248693143e-54
230
1
100
AcDbArc
50
180.00009512203283
51
270.00006701321496
0
LINE
5
127
100
AcDbEntity
8
0
100
AcDbLine
10
42.02061346536734
20
-47.599817971924246
30
0
11
-42.02100997737908
21
-47.599916267112803
31
-4.801641882333026e-54
0
ARC
5
128
100
AcDbEntity
8
0
100
AcDbCircle
10
42.020611710965454
20
-46.099817971925098
30
0
40
1.500000000000177
210
2.7369110631306642e-48
220
3.2010946206296233e-54
230
1
100
AcDbArc
50
-89.999932986784231
51
3.8891240478995682e-05
0
ARC
5
129
100
AcDbEntity
8
0
100
AcDbCircle
10
46.620611405027823
20
-45.625608712581524
30
0
40
3.1000000160589325
210
2.7369110631344089e-48
220
-2.897817305224548e-70
230
1
100
AcDbArc
50
-3.8900610746520703e-05
51
179.9999619519532
0
LINE
5
130
100
AcDbEntity
8
0
100
AcDbLine
10
43.520611710965291
20
-46.099816953403796
30
-4.1053665947011506e-48
11
43.52061138896957
21
-45.625606653823908
31
8.4844243396666653e-48
0
LINE
5
131
100
AcDbEntity
8
0
100
AcDbLine
10
49.720611421086041
20
-45.625610817532738
30
-8.4844243396665802e-48
11
49.72061109909955
21
-46.099806193069448
31
8.812483888593313e-55
0
ARC
5
132
100
AcDbEntity
8
0
100
AcDbCircle
10
51.220611099099145
20
-46.099807211594303
30
0
40
1.4999999999999409
210
5.8750018779591043e-55
220
1.8584075645976237e-54
230
1
100
AcDbArc
50
179.99996109938928
51
270.00006701321712
0
LINE
5
133
100
AcDbEntity
8
0
100
AcDbLine
10
83.777373131152444
20
-47.599769133165395
30
0
11
51.220612853501066
21
-47.599807211593216
31
-4.80164202848515e-54
0
ARC
5
134
100
AcDbEntity
8
0
100
AcDbCircle
10
83.777374885553513
20
-49.099769133164315
30
0
40
1.4999999999999596
210
2.7369110631344096e-48
220
3.0385816786431356e-64
230
1
100
AcDbArc
50
30.000133864231756
51
90.000067013184548
0
LINE
5
135
100
AcDbEntity
8
0
100
AcDbLine
10
87.674498609269193
20
-52.84976114573481
30
0
11
85.076411238947884
21
-48.349766098130658
31
-3.5553469670188717e-48
0
ARC
5
136
100
AcDbEntity
8
0
100
AcDbCircle
10
88.973534962663365
20
-52.09975811070062
30
0
40
1.5000000000000415
210
6.8423330354053716e-49
220
-1.1851204514947427e-48
230
1
100
AcDbArc
50
210.00013386425317
51
270.00006701321604
0
LINE
5
137
100
AcDbEntity
8
0
100
AcDbLine
10
88.973536717065258
20
-53.599758110699625
30
-4.8016419320877539e-54
11
113.76839682136008
21
-53.599729110599277
31
-6.7861326928314482e-47
0
ARC
5
138
100
AcDbEntity
8
0
100
AcDbCircle
10
113.76839506695819
20
-52.099729110600379
30
0
40
1.4999999999999283
210
2.7369639769261968e-48
220
-4.5240881417752916e-47
230
1
100
AcDbArc
50
-89.999932986783975
51
0
0
LINE
5
139
100
AcDbEntity
8
0
100
AcDbLine
10
115.26839506695815
20
-45.625653687191978
30
0
11
115.26839506695813
21
-52.099729110600308
31
-4.1053665947014156e-48
0
ARC
5
140
100
AcDbEntity
8
0
100
AcDbCircle
10
118.3683950669575
20
-45.625655745949835
30
0
40
3.1000000000000316
210
2.7369110631344089e-48
220
2.897817305224548e-70
230
1
100
AcDbArc
50
3.8048046808227418e-05
51
179.9999619519532
0
LINE
5
141
100
AcDbEntity
8
0
100
AcDbLine
10
121.46839506695684
20
-45.800061886960826
30
0
11
121.46839506695684
21
-45.625653687191978
31
-8.4844242957148818e-48
0
ARC
5
142
100
AcDbEntity
8
0
100
AcDbCircle
10
122.7683950669568
20
-45.800061886960862
30
0
40
1.2999999999999545
210
2.0440635633361063e-75
220
7.4795856705064418e-62
230
1
100
AcDbArc
50
180
51
237.60752863943281
0
ARC
5
143
100
AcDbEntity
8
0
100
AcDbCircle
10
121.26839069802465
20
-48.164377198670351
30
0
40
1.4999999999999503
210
2.7369110631344083e-48
220
0
230
1
100
AcDbArc
50
0
51
57.607528639434484
0
LINE
5
144
100
AcDbEntity
8
0
100
AcDbLine
10
122.7683906980246
20
-48.164377198670351
30
-4.1053665947014764e-48
11
122.76839069802463
21
-52.099716829791866
31
-9.7234613716580339e-62
0
ARC
5
145
100
AcDbEntity
8
0
100
AcDbCircle
10
124.26839069802458
20
-52.099716829791831
30
0
40
1.4999999999999503
210
-6.4823075811054175e-62
220
-6.482307581105725e-62
230
1
100
AcDbArc
50
180
51
270.00006701321712
0
LINE
5
146
100
AcDbEntity
8
0
100
AcDbLine
10
124.2683924524265
20
-53.599716829790751
30
-4.8016420284855041e-54
11
141.7000601567583
21
-53.599696441689815
31
-4.77089241888685e-47
0
ARC
5
147
100
AcDbEntity
8
0
100
AcDbCircle
10
141.70005547835319
20
-49.599696441692494
30
0
40
4.0000000000000577
210
2.7369250132353405e-48
220
-1.1927227846114117e-47
230
1
100
AcDbArc
50
270.00006701321684
51
359.99996214401932
0
CIRCLE
5
148
100
AcDbEntity
8
0
100
AcDbCircle
10
139.3453273824743
20
-46.100787271286407
30
0
40
3.0000041169680003
210
2.7369110631344083e-48
220
0
230
1
0
LINE
5
149
100
AcDbEntity
8
0
100
AcDbLine
10
145.70006712561397
20
-31.974989577080287
30
0
11
145.7000554783524
21
-49.599699085086193
31
-1.0947644252535399e-47
0
ARC
5
150
100
AcDbEntity
8
0
100
AcDbCircle
10
144.20006712561434
20
-31.974988585807623
30
0
40
1.499999999999958
210
1.1952656171658829e-60
220
1.8086834137029214e-54
230
1
100
AcDbArc
50
-3.786560716074207e-05
51
90.000000000001094
0
LINE
5
151
100
AcDbEntity
8
0
100
AcDbLine
10
144.20006712561431
20
-30.474988585807665
30
9.7538198475381905e-62
11
141.95006989582001
21
-30.474988585807566
31
6.1580423102457805e-48
0
ARC
5
152
100
AcDbEntity
8
0
100
AcDbCircle
10
141.95006989582001
20
-28.224988585807552
30
0
40
2.2500000000000497
210
2.7369110631344083e-48
220
5.027624059527792e-64
230
1
100
AcDbArc
50
90.00000000000145
51
270
0
LINE
5
153
100
AcDbEntity
8
0
100
AcDbLine
10
144.20007208197751
20
-25.97498858580763
30
0
11
141.95006989581995
21
-25.974988585807502
31
1.933380120197669e-61
0
ARC
5
154
100
AcDbEntity
8
0
100
AcDbCircle
10
144.20007208197751
20
-24.474988585807651
30
0
40
1.4999999999999769
210
2.7369110631344083e-48
220
0
230
1
100
AcDbArc
50
270
51
359.99996214401932
0
LINE
5
155
100
AcDbEntity
8
0
100
AcDbLine
10
145.70009686203599
20
13.022351422873101
30
0
11
145.70007208197717
21
-24.474989576874897
31
-4.1053665947006529e-48
0
ARC
5
156
100
AcDbEntity
8
0
100
AcDbCircle
10
144.2000968620363
20
13.022352414192394
30
0
40
1.4999999999999936
210
1.1953780701609816e-60
220
1.8087684939898806e-54
230
1
100
AcDbArc
50
-3.7855980715832094e-05
51
90
0
LINE
5
157
100
AcDbEntity
8
0
100
AcDbLine
10
141.95008854834464
20
14.522352414192351
30
0
11
144.2000968620363
21
14.522352414192385
31
-2.0936730030247359e-67
0
ARC
5
158
100
AcDbEntity
8
0
100
AcDbCircle
10
141.95008854834467
20
16.772352414192348
30
0
40
2.250000000000032
210
2.7369110631344083e-48
220
5.0276240595278783e-64
230
1
100
AcDbArc
50
89.999999999999275
51
269.99999999999932
0
LINE
5
159
100
AcDbEntity
8
0
100
AcDbLine
10
144.20010181839953
20
19.022352414192337
30
0
11
141.9500885483447
21
19.02235241419238
31
-9.8365829129974118e-62
0
ARC
5
160
100
AcDbEntity
8
0
100
AcDbCircle
10
144.20010181839953
20
20.522352414192348
30
0
40
1.5000000000000124
210
2.7369110631344083e-48
220
0
230
1
100
AcDbArc
50
270
51
359.99996214401932
0
LINE
5
161
100
AcDbEntity
8
0
100
AcDbLine
10
145.7001210342884
20
49.599955985450741
30
0
11
145.70010181839922
21
20.522351422873093
31
-4.1053665947007496e-48
0
CIRCLE
5
162
100
AcDbEntity
8
0
100
AcDbCircle
10
139.84534888363029
20
46.599212272240813
30
0
40
2.5000000149011825
210
2.7369110631344083e-48
220
0
230
1
0
ARC
5
163
100
AcDbEntity
8
0
100
AcDbCircle
10
141.70012103428923
20
49.599958628844433
30
0
40
4.0000000000000426
210
1.1952655448762807e-60
220
1.8086833590083814e-54
230
1
100
AcDbArc
50
-3.7855980715832094e-05
51
90.000067013370312
0
LINE
5
164
100
AcDbEntity
8
0
100
AcDbLine
10
141.7001163558734
20
53.599958628841748
30
1.2804408075475071e-53
11
110.67481234360312
21
53.59992234152319
31
8.4913497788290884e-47
0
ARC
5
165
100
AcDbEntity
8
0
100
AcDbCircle
10
110.67481409800898
20
52.099922341524277
30
0
40
1.4999999999999372
210
2.736977273236682e-48
220
-5.6608995324389029e-47
230
1
100
AcDbArc
50
90.00006701336747
51
180
0
LINE
5
166
100
AcDbEntity
8
0
100
AcDbLine
10
109.17481409800902
20
52.09992234152422
30
4.1053665947014582e-48
11
109.17481409800907
21
48.35468940093439
31
-9.7234613716580339e-62
0
ARC
5
167
100
AcDbEntity
8
0
100
AcDbCircle
10
107.67481409800905
20
48.354689400934404
30
0
40
1.5000000000000158
210
2.7369110631344077e-48
220
7.596454196607839e-64
230
1
100
AcDbArc
50
302.39250741753187
51
360
0
ARC
5
168
100
AcDbEntity
8
0
100
AcDbCircle
10
109.17481995483485
20
45.990375033197203
30
0
40
1.3000000000000302
210
1.0451259035244588e-48
220
2.6665975614618792e-48
230
1
100
AcDbArc
50
122.39250741753463
51
179.99994937475032
0
ARC
5
169
100
AcDbEntity
8
0
100
AcDbCircle
10
104.7748177686416
20
45.990378921122527
30
0
40
3.1000021861949092
210
2.7369110631344083e-48
220
0
230
1
100
AcDbArc
50
180.00015864116054
51
359.99994937475026
0
ARC
5
170
100
AcDbEntity
8
0
100
AcDbCircle
10
100.37481395778386
20
45.990371962388693
30
0
40
1.3000016246757289
210
-6.5264766736036516e-48
220
1.1576942954585484e-53
230
1
100
AcDbArc
50
-7.1605095287439753e-05
51
57.607631113688356
0
ARC
5
171
100
AcDbEntity
8
0
100
AcDbCircle
10
101.87481409810466
20
48.354689956872015
30
0
40
1.5000000000000213
210
2.7369110631344083e-48
220
0
230
1
100
AcDbArc
50
180
51
237.60763111368814
0
LINE
5
172
100
AcDbEntity
8
0
100
AcDbLine
10
100.37481409810465
20
52.099908540197461
30
0
11
100.37481409810465
21
48.354689956872015
31
4.1053665947016709e-48
0
ARC
5
173
100
AcDbEntity
8
0
100
AcDbCircle
10
98.874814098104622
20
52.099908540197404
30
0
40
1.5000000000000213
210
3.4544674220376797e-75
220
-9.7234613716578957e-62
230
1
100
AcDbArc
50
0
51
90.000067013369105
0
LINE
5
174
100
AcDbEntity
8
0
100
AcDbLine
10
98.874812343698721
20
53.599908540196395
30
4.801652918325672e-54
11
88.973102998466544
21
53.599896959117942
31
2.7100097850907285e-47
0
ARC
5
175
100
AcDbEntity
8
0
100
AcDbCircle
10
88.973104752872487
20
52.099896959118951
30
0
40
1.5000000000000171
210
2.7369321940517925e-48
220
-1.8066728699490281e-47
230
1
100
AcDbArc
50
90.000067013370739
51
150.00013386424163
0
LINE
5
176
100
AcDbEntity
8
0
100
AcDbLine
10
85.076061058202441
20
48.349995000916799
30
0
11
87.674064894920534
21
52.849893924080959
31
3.5553565586812629e-48
0
ARC
5
177
100
AcDbEntity
8
0
100
AcDbCircle
10
83.777021200250488
20
49.099991965878836
30
0
40
1.5000000000000302
210
2.7369110631344083e-48
220
5.0276240638372401e-64
230
1
100
AcDbArc
50
270.0000001621865
51
330.00013386424069
0
LINE
5
178
100
AcDbEntity
8
0
100
AcDbLine
10
52.225066215469553
20
47.599991876561276
30
0
11
83.777021204496521
21
47.599991965878807
31
-1.1620994104193489e-56
0
ARC
5
179
100
AcDbEntity
8
0
100
AcDbCircle
10
52.225066219715792
20
46.099991876561255
30
0
40
1.5000000000000213
210
2.7369110631344083e-48
220
7.7477188440128223e-57
230
1
100
AcDbArc
50
90.000000162194382
51
180
0
LINE
5
180
100
AcDbEntity
8
0
100
AcDbLine
10
50.725066219715771
20
46.099991876561276
30
4.1053665947016593e-48
11
50.725066219715771
21
45.99045510277265
31
4.9863438812984745e-160
0
ARC
5
181
100
AcDbEntity
8
0
100
AcDbCircle
10
47.625060903233667
20
45.990451897547977
30
0
40
3.1000053164837609
210
2.7369110631344089e-48
220
5.7956346104490933e-70
230
1
100
AcDbArc
50
-179.99994076262732
51
5.9237372658725725e-05
0
LINE
5
182
100
AcDbEntity
8
0
100
AcDbLine
10
44.525055586751563
20
46.099991850517867
30
0
11
44.525055586751563
21
45.990448692323305
31
8.4844388464553544e-48
0
ARC
5
183
100
AcDbEntity
8
0
100
AcDbCircle
10
43.025055586751577
20
46.099991850517895
30
0
40
1.4999999999999858
210
8.6361685550946103e-76
220
4.8617306858290636e-62
230
1
100
AcDbArc
50
0
51
90.000000162193018
0
LINE
5
184
100
AcDbEntity
8
0
100
AcDbLine
10
43.025055582505374
20
47.599991850517881
30
1.1621480727547403e-56
11
-43.025422502439937
21
47.599991606925954
31
2.3551250545869178e-46
0
ARC
5
185
100
AcDbEntity
8
0
100
AcDbCircle
10
-43.025422498193734
20
46.099991606925634
30
0
40
1.5000000000003233
210
2.7369115075939632e-48
220
-1.5700833696467969e-46
230
1
100
AcDbArc
50
90.000000162193018
51
180.00030393502411
0
LINE
5
186
100
AcDbEntity
8
0
100
AcDbLine
10
-44.525422498172951
20
46.099983649906093
30
4.1053665946447436e-48
11
-44.525421917209172
21
45.990464601449681
31
-1.5900453075981775e-54
0
ARC
5
187
100
AcDbEntity
8
0
100
AcDbCircle
10
-47.625421917208008
20
45.990461921343197
30
0
40
3.0999999999999925
210
2.7369110631344083e-48
220
0
230
1
100
AcDbArc
50
-180.00007161018505
51
4.9533589530617785e-05
0
LINE
5
188
100
AcDbEntity
8
0
100
AcDbLine
10
-50.72542191720558
20
45.990465795816988
30
8.4844242957100189e-48
11
-50.725421780896184
21
46.099989714037719
31
-3.7306670301744337e-55
0
ARC
5
189
100
AcDbEntity
8
0
100
AcDbCircle
10
-52.22542178089499
20
46.099991580882261
30
0
40
1.4999999999999751
210
2.4871537464795915e-55
220
3.4062580171618547e-54
230
1
100
AcDbArc
50
-7.1309268436073328e-05
51
90.000000162193842
0
LINE
5
190
100
AcDbEntity
8
0
100
AcDbLine
10
-83.777504394058226
20
47.599991491564381
30
0
11
-52.225421785141215
21
47.599991580882239
31
1.162152934345067e-56
0
ARC
5
191
100
AcDbEntity
8
0
100
AcDbCircle
10
-83.77750439830443
20
49.099991491564353
30
0
40
1.4999999999999771
210
2.7369110631344083e-48
220
0
230
1
100
AcDbArc
50
210.00000016219042
51
270.00000016219303
0
LINE
5
192
100
AcDbEntity
8
0
100
AcDbLine
10
-87.674640292870137
20
52.850028835533479
30
0
11
-85.076542501858
21
48.349991487887102
31
3.5553517570488986e-48
0
ARC
5
193
100
AcDbEntity
8
0
100
AcDbCircle
10
-88.973678396423679
20
52.100028831856129
30
0
40
1.4999999999999951
210
6.8422777249333267e-49
220
-1.1851172581604012e-48
230
1
100
AcDbArc
50
30.000000162194272
51
90.000067013370185
0
LINE
5
194
100
AcDbEntity
8
0
100
AcDbLine
10
-88.973680150829608
20
53.600028831855091
30
4.801653017593363e-54
11
-98.871486196516372
21
53.600017255341925
31
2.7089414867198691e-47
0
ARC
5
195
100
AcDbEntity
8
0
100
AcDbCircle
10
-98.871484442110386
20
52.100017255342934
30
0
40
1.5000000000000171
210
2.7369321857223133e-48
220
-1.805960671035116e-47
230
1
100
AcDbArc
50
90.000067013372359
51
180
0
LINE
5
196
100
AcDbEntity
8
0
100
AcDbLine
10
-100.37148444211041
20
52.100017255342941
30
4.1053665947016399e-48
11
-100.37148444211041
21
48.354856281796884
31
4.861730685829017e-62
0
ARC
5
197
100
AcDbEntity
8
0
100
AcDbCircle
10
-101.87148444211044
20
48.354856281796884
30
0
40
1.5000000000000127
210
2.7369110631344083e-48
220
6.0771633572862712e-64
230
1
100
AcDbArc
50
-57.607508739247514
51
0
0
ARC
5
198
100
AcDbEntity
8
0
100
AcDbCircle
10
-100.37147925199541
20
45.99054149107463
30
0
40
1.2999999999999898
210
1.0451274074267483e-48
220
2.6665968532982574e-48
230
1
100
AcDbArc
50
122.39249126075289
51
180.00010608803203
0
ARC
5
199
100
AcDbEntity
8
0
100
AcDbCircle
10
-104.77148191716346
20
45.990533344083751
30
0
40
3.1000026651755928
210
2.7369110631344044e-48
220
5.2160711494041853e-69
230
1
100
AcDbArc
50
-180.00007161018505
51
0.00010608803202380648
0
ARC
5
200
100
AcDbEntity
8
0
100
AcDbCircle
10
-109.17148458233562
20
45.990538843251187
30
0
40
1.3000000000000105
210
-6.5264858384971846e-48
220
1.1577035836333116e-53
230
1
100
AcDbArc
50
-7.1605095287439753e-05
51
57.607631113688235
0
ARC
5
201
100
AcDbEntity
8
0
100
AcDbCircle
10
-107.67148444201482
20
48.354856837734502
30
0
40
1.5000000000000213
210
2.7369110631344083e-48
220
0
230
1
100
AcDbArc
50
180
51
237.60763111368814
0
LINE
5
202
100
AcDbEntity
8
0
100
AcDbLine
10
-109.17148444201484
20
52.100003454016182
30
0
11
-109.17148444201484
21
48.354856837734502
31
4.1053665947016709e-48
0
ARC
5
203
100
AcDbEntity
8
0
100
AcDbCircle
10
-110.67148444201482
20
52.100003454016182
30
0
40
1.4999999999999858
210
0
220
0
230
1
100
AcDbArc
50
0
51
90.000067013371279
0
LINE
5
204
100
AcDbEntity
8
0
100
AcDbLine
10
-110.67148619642077
20
53.600003454015152
30
4.8016530520991446e-54
11
-141.70006015654428
21
53.599967162872098
31
8.4922447344746243e-47
0
ARC
5
205
100
AcDbEntity
8
0
100
AcDbCircle
10
-144.20007963165438
20
13.050700558426605
30
0
40
1.5000000000000036
210
2.7369110631344083e-48
220
-7.8533372103158232e-63
230
1
100
AcDbArc
50
90
51
179.99996214401926
0
LINE
5
206
100
AcDbEntity
8
0
100
AcDbLine
10
-144.20007963165438
20
14.550700558426609
30
1.1780005815473763e-62
11
-141.95007707047051
21
14.550700558426612
31
-6.1580569017848821e-48
0
ARC
5
207
100
AcDbEntity
8
0
100
AcDbCircle
10
-141.95007707047051
20
16.800700558426612
30
0
40
2.2500000000000009
210
2.7369110631344083e-48
220
-2.736914178571058e-48
230
1
100
AcDbArc
50
-90
51
90
0
LINE
5
208
100
AcDbEntity
8
0
100
AcDbLine
10
-141.95007707047051
20
19.050700558426612
30
7.2193823921432546e-63
11
-144.20007467529115
21
19.050700558426605
31
6.1580433366595735e-48
0
ARC
5
209
100
AcDbEntity
8
0
100
AcDbCircle
10
-144.20007467529115
20
20.550700558426609
30
0
40
1.4999999999999958
210
2.7369110631344132e-48
220
-3.1875990357470022e-69
230
1
100
AcDbArc
50
179.99996520414109
51
270
0
LINE
5
210
100
AcDbEntity
8
0
100
AcDbLine
10
-145.70007467529086
20
20.550701469314568
30
4.1053665947008517e-48
11
-145.70005547812758
21
49.599969806268533
31
-5.2540928612343877e-53
0
ARC
5
211
100
AcDbEntity
8
0
100
AcDbCircle
10
-141.70005547812843
20
49.599967162874819
30
0
40
4.0000000000000133
210
2.7369358945383484e-48
220
-2.1230608635069952e-47
230
1
100
AcDbArc
50
90.000067013370739
51
179.99996214401926
0
CIRCLE
5
212
100
AcDbEntity
8
0
100
AcDbCircle
10
-139.35020473251313
20
46.09927773190897
30
0
40
3.0000041169680114
210
2.7369110631344083e-48
220
0
230
1
0
LWPOLYLINE
5
213
100
AcDbEntity
8
0
100
AcDbPolyline
90
8
70
1
43
0.0
10
104.27507152187243
20
28.594973806268492
42
0.41421356237309509
10
103.77507152187242
20
29.094973806268499
10
-111.02492747812758
20
29.094974806268521
42
0.41421356237309509
10
-111.52492847812755
20
28.594973806268523
10
-111.52492947812758
20
28.094974806268528
42
0.41421473394820701
10
-111.02492847812758
20
27.59497380626852
10
103.7750725218724
20
27.594973806268499
42
0.41421297658679784
10
104.27507152187339
20
28.094973806268495
0
LWPOLYLINE
5
214
100
AcDbEntity
8
0
100
AcDbPolyline
90
24
70
1
43
0.0
10
-97.624928478127572
20
-28.125026193731479
10
-62.342384544383677
20
-28.125026193731479
42
0.28939175209077667
10
-61.665107666176262
20
-27.697200106774783
42
-0.63168565282919664
10
-52.634749290078773
20
-27.69720010677495
42
0.28939175209072709
10
-51.957472411871436
20
-28.125026193731493
10
51.957615455616377
20
-28.125026193731493
42
0.28939175209076229
10
52.634892333823743
20
-27.697200106774808
42
-0.63168565282919553
10
61.665250709921224
20
-27.697200106774986
42
0.28939175209069773
10
62.342527588128505
20
-28.125026193731468
10
99.875071521872457
20
-28.12502619373155
42
-0.41421356237309509
10
100.37507152187243
20
-28.625026193731522
10
100.37507152187247
20
-29.125026193731529
42
-0.41421356237307422
10
99.875071521872457
20
-29.625026193731514
10
61.287897037768516
20
-29.625026193731511
42
-0.34827012106149374
10
60.557692534963294
20
-29.046202664319758
42
0.79268688043984692
10
53.742450508781594
20
-29.046202664319736
42
-0.34827012106147387
10
53.012246005976422
20
-29.6250261937315
10
-53.012102962231495
20
-29.625026193731511
42
-0.34827012106148697
10
-53.742307465036738
20
-29.046202664319736
42
0.79268688043985103
10
-60.55754949121841
20
-29.046202664319729
42
-0.34827012106147065
10
-61.287753994023575
20
-29.625026193731479
10
-97.624928478127586
20
-29.625026193731514
42
-0.41421356237308465
10
-98.1249284781276
20
-29.125026193731493
10
-98.124928478127572
20
-28.625026193731486
42
-0.41421356237309509
0
LINE
5
215
100
AcDbEntity
8
0
100
AcDbLine
10
-121.46882581341593
20
-45.625495735429162
30
0
11
-121.46882581341593
21
-45.800030265413774
31
-1.2154326714572542e-62
0
ENDSEC
0
SECTION
2
OBJECTS
0
DICTIONARY
5
C
100
AcDbDictionary
3
ACAD_GROUP
350
D
3
ACAD_MLINESTYLE
350
17
0
DICTIONARY
5
D
100
AcDbDictionary
0
DICTIONARY
5
1A
330
C
100
AcDbDictionary
0
DICTIONARY
5
17
100
AcDbDictionary
0
ENDSEC
0
EOF
