0
SECTION
2
HEADER
9
$INSUNITS
70
4
9
$ACADVER
1
AC1014
9
$HANDSEED
5
FFFF
0
ENDSEC
0
SECTION
2
TABLES
0
TABLE
2
VPORT
5
8
100
AcDbSymbolTable
0
ENDTAB
0
TABLE
2
LTYPE
5
5
100
AcDbSymbolTable
0
LTYPE
5
14
100
AcDbSymbolTableRecord
100
AcDbLinetypeTableRecord
2
BYBLOCK
70
0
0
LTYPE
5
15
100
AcDbSymbolTableRecord
100
AcDbLinetypeTableRecord
2
BYLAYER
70
0
0
ENDTAB
0
TABLE
2
LAYER
5
2
100
AcDbSymbolTable
70
2
0
LAYER
5
50
100
AcDbSymbolTableRecord
100
AcDbLayerTableRecord
2
0
70
0
6
CONTINUOUS
0
ENDTAB
0
TABLE
2
STYLE
5
3
100
AcDbSymbolTable
70
1
0
STYLE
5
11
100
AcDbSymbolTableRecord
100
AcDbTextStyleTableRecord
2
STANDARD
70
0
0
ENDTAB
0
TABLE
2
VIEW
5
6
100
AcDbSymbolTable
70
0
0
ENDTAB
0
TABLE
2
UCS
5
7
100
AcDbSymbolTable
70
0
0
ENDTAB
0
TABLE
2
APPID
5
9
100
AcDbSymbolTable
70
2
0
APPID
5
12
100
AcDbSymbolTableRecord
100
AcDbRegAppTableRecord
2
ACAD
70
0
0
ENDTAB
0
TABLE
2
DIMSTYLE
5
A
100
AcDbSymbolTable
70
1
0
ENDTAB
0
TABLE
2
BLOCK_RECORD
5
1
100
AcDbSymbolTable
70
1
0
BLOCK_RECORD
5
1F
100
AcDbSymbolTableRecord
100
AcDbBlockTableRecord
2
*MODEL_SPACE
0
BLOCK_RECORD
5
1B
100
AcDbSymbolTableRecord
100
AcDbBlockTableRecord
2
*PAPER_SPACE
0
ENDTAB
0
ENDSEC
0
SECTION
2
BLOCKS
0
BLOCK
5
20
100
AcDbEntity
100
AcDbBlockBegin
2
*MODEL_SPACE
0
ENDBLK
5
21
100
AcDbEntity
100
AcDbBlockEnd
0
BLOCK
5
1C
100
AcDbEntity
100
AcDbBlockBegin
2
*PAPER_SPACE
0
ENDBLK
5
1D
100
AcDbEntity
100
AcDbBlockEnd
0
ENDSEC
0
SECTION
2
ENTITIES
0
ARC
5
100
100
AcDbEntity
8
0
100
AcDbCircle
10
-21.355302559899858
20
98.194186605171566
30
-1.1102230246251565e-14
40
1.2999999999999976
210
0
220
0
230
1
100
AcDbArc
50
122.39226080194793
51
180
0
LINE
5
101
100
AcDbEntity
8
0
100
AcDbLine
10
-22.655302559899859
20
98.194186605171566
30
-1.1102230246251565e-14
11
-22.655302559899862
21
98.01965207518694
31
-1.1102230246251565e-15
0
ARC
5
102
100
AcDbEntity
8
0
100
AcDbCircle
10
-25.755302559897583
20
98.019654334523736
30
-1.1102230246251565e-14
40
3.0999999999985501
210
0
220
0
230
1
100
AcDbArc
50
180.00004175642727
51
359.99995824357273
0
LINE
5
103
100
AcDbEntity
8
0
100
AcDbLine
10
-28.855302559895311
20
98.01965207518694
30
-1.1102230246251565e-14
11
-28.85530255988801
21
104.49415157818515
31
-1.1102230246251565e-15
0
ARC
5
104
100
AcDbEntity
8
0
100
AcDbCircle
10
-30.355302559888031
20
104.49415157818515
30
-1.2212453270876722e-14
40
1.5000000000000213
210
-7.4014868308342718e-15
220
0
230
1
100
AcDbArc
50
0
51
90.000067013215755
0
LINE
5
105
100
AcDbEntity
8
0
100
AcDbLine
10
-30.355304314289917
20
105.99415157818413
30
-1.2212453270876722e-14
11
-55.150461564279155
21
105.99412257773622
31
0
0
ARC
5
106
100
AcDbEntity
8
0
100
AcDbCircle
10
-55.150459809877219
20
104.49412257773729
30
-1.2212453270876722e-14
40
1.4999999999999638
210
9.522467423019972e-21
220
-8.141635513912442e-15
230
1
100
AcDbArc
50
90.000067013217659
51
150.00000016219056
0
LINE
5
107
100
AcDbEntity
8
0
100
AcDbLine
10
-56.449497917676908
20
105.24412257406
30
-1.2212453270876722e-14
11
-59.047574761593324
21
100.74412144901048
31
0
0
ARC
5
108
100
AcDbEntity
8
0
100
AcDbCircle
10
-60.346612869393077
20
101.49412144533315
30
-1.1102230246251565e-14
40
1.4999999999999993
210
0
220
0
230
1
100
AcDbArc
50
270.00006701321576
51
330.00000016219315
0
LINE
5
109
100
AcDbEntity
8
0
100
AcDbLine
10
-60.346611114991191
20
99.994121445334173
30
-1.1102230246251565e-14
11
-92.903119007803014
21
99.994083367201512
31
0
0
ARC
5
110
100
AcDbEntity
8
0
100
AcDbCircle
10
-92.90311725340112
20
98.494083367202535
30
-1.1102230246251565e-14
40
1.4999999999999993
210
8.6567883034277468e-21
220
-7.4014868308293177e-15
230
1
100
AcDbArc
50
90.000067013216025
51
180.00017292868537
0
LINE
5
111
100
AcDbEntity
8
0
100
AcDbLine
10
-94.403117253394285
20
98.494078839873964
30
-1.1102230246251565e-14
11
-94.403115822168772
21
98.019883464339244
31
5.5862426573405344e-07
0
ARC
5
112
100
AcDbEntity
8
0
100
AcDbCircle
10
-97.503115838213574
20
98.01987410786019
30
5.5862426573405344e-07
40
3.1000000160589289
210
0
220
0
230
1
100
AcDbArc
50
-179.9998279227741
51
0.00017292868540638929
0
LINE
5
113
100
AcDbEntity
8
0
100
AcDbLine
10
-100.60311585425852
20
98.019864797574726
30
5.5862426573405344e-07
11
-100.60311664153693
21
98.494075097154123
31
5.5862426573405344e-07
0
ARC
5
114
100
AcDbEntity
8
0
100
AcDbCircle
10
-102.10311664152776
20
98.494072606871669
30
3.8024792222902033e-05
40
1.5000000000000786
210
-3.7241618455698973e-07
220
-6.1828099708139957e-13
230
0.99999999999993072
100
AcDbArc
50
9.5122032814316546e-05
51
90.000067013215485
0
LINE
5
115
100
AcDbEntity
8
0
100
AcDbLine
10
-102.10311839593672
20
99.994072606870631
30
-1.1102230246251565e-14
11
-186.14474183868313
21
99.993974311682038
31
0
0
ARC
5
116
100
AcDbEntity
8
0
100
AcDbCircle
10
-186.14474008428124
20
98.493974311682905
30
-1.1102230246251565e-14
40
1.5000000000001592
210
8.6567883034259006e-21
220
-7.4014868308285288e-15
230
1
100
AcDbArc
50
90.000067013216025
51
180.00003890061072
0
LINE
5
117
100
AcDbEntity
8
0
100
AcDbLine
10
-187.64474008428093
20
98.493973293161588
30
-1.1102230246251565e-14
11
-187.64473976228541
21
98.019762993581708
31
5.5862426573405344e-07
0
ARC
5
118
100
AcDbEntity
8
0
100
AcDbCircle
10
-190.74473977834361
20
98.019765052339309
30
5.5862426573405344e-07
40
3.1000000160589325
210
0
220
0
230
1
100
AcDbArc
50
179.99996109938928
51
359.9999619519532
0
LINE
5
119
100
AcDbEntity
8
0
100
AcDbLine
10
-193.84473979440185
20
98.019767157290531
30
5.5862426573405344e-07
11
-193.84473947241534
21
98.493962532827226
31
5.5862426573405344e-07
0
ARC
5
120
100
AcDbEntity
8
0
100
AcDbCircle
10
-195.34473947240147
20
98.493963551352053
30
7.274956744340981e-05
40
1.5000000000000802
210
-3.7241618455741652e-07
220
2.5287674275037325e-13
230
0.99999999999993061
100
AcDbArc
50
-3.8900610746520703e-05
51
90.000067013216025
0
LINE
5
121
100
AcDbEntity
8
0
100
AcDbLine
10
-195.34474122681686
20
99.993963551350987
30
-1.1102230246251565e-14
11
-227.90150150446823
21
99.993925472923181
31
0
0
ARC
5
122
100
AcDbEntity
8
0
100
AcDbCircle
10
-227.9015032588693
20
101.49392547292216
30
-1.1102230246251565e-14
40
1.4999999999999862
210
0
220
0
230
1
100
AcDbArc
50
210.00013386423308
51
270.00006701318455
0
LINE
5
123
100
AcDbEntity
8
0
100
AcDbLine
10
-229.2005396122637
20
100.74392243788844
30
-1.1102230246251565e-14
11
-231.79862698258501
21
105.2439174854926
31
0
0
ARC
5
124
100
AcDbEntity
8
0
100
AcDbCircle
10
-233.09766333597912
20
104.49391445045848
30
-1.2212453270876722e-14
40
1.4999999999999751
210
-7.0508536724428955e-15
220
-4.0708342303867556e-15
230
1
100
AcDbArc
50
30.000133864252152
51
90.000067013217119
0
LINE
5
125
100
AcDbEntity
8
0
100
AcDbLine
10
-233.09766509038104
20
105.99391445045745
30
-1.2212453270876722e-14
11
-257.8925251946759
21
105.99388545035707
31
0
0
ARC
5
126
100
AcDbEntity
8
0
100
AcDbCircle
10
-257.89252344027398
20
104.49388545035809
30
-1.2212453270876722e-14
40
1.4999999999999993
210
9.5224673266031884e-21
220
-8.1416355139122495e-15
230
1
100
AcDbArc
50
90.000067013217119
51
180
0
LINE
5
127
100
AcDbEntity
8
0
100
AcDbLine
10
-259.39252344027398
20
104.49388545035809
30
-1.2212453270876722e-14
11
-259.39252344027398
21
98.019810026949756
31
-1.1102230246251565e-15
0
ARC
5
128
100
AcDbEntity
8
0
100
AcDbCircle
10
-262.49252344027332
20
98.019812085707599
30
-1.1102230246251565e-14
40
3.1000000000000316
210
0
220
0
230
1
100
AcDbArc
50
180.0000380480468
51
359.9999619519532
0
LINE
5
129
100
AcDbEntity
8
0
100
AcDbLine
10
-265.59252344027266
20
98.019810026949756
30
-1.1102230246251565e-14
11
-265.59252344027266
21
98.194218226718618
31
-1.1102230246251565e-15
0
ARC
5
130
100
AcDbEntity
8
0
100
AcDbCircle
10
-266.89252344027261
20
98.194218226718618
30
-1.1102230246251565e-14
40
1.2999999999999901
210
-7.6861594012511432e-15
220
0
230
1
100
AcDbArc
50
0
51
57.60752863943241
0
ARC
5
131
100
AcDbEntity
8
0
100
AcDbCircle
10
-265.39251907134036
20
100.55853353842818
30
-1.1102230246251565e-14
40
1.5000000000000213
210
0
220
0
230
1
100
AcDbArc
50
180
51
237.6075286394331
0
LINE
5
132
100
AcDbEntity
8
0
100
AcDbLine
10
-266.89251907134042
20
100.55853353842814
30
-1.1102230246251565e-14
11
-266.89251907134042
21
104.49387316954966
31
0
0
ARC
5
133
100
AcDbEntity
8
0
100
AcDbCircle
10
-268.39251907134036
20
104.49387316954966
30
-1.2212453270876722e-14
40
1.4999999999999503
210
-8.1416355139180855e-15
220
0
230
1
100
AcDbArc
50
0
51
90.000067013217119
0
LINE
5
134
100
AcDbEntity
8
0
100
AcDbLine
10
-268.39252082574228
20
105.99387316954862
30
-1.2212453270876722e-14
11
-285.82418853007414
21
105.9938527814476
31
0
0
ARC
5
135
100
AcDbEntity
8
0
100
AcDbCircle
10
-285.82418385166898
20
101.99385278145027
30
-1.1102230246251565e-14
40
4.0000000000000755
210
3.2462956959582919e-21
220
-2.7755575615609413e-15
230
1
100
AcDbArc
50
90.000067013217659
51
179.99996214401926
0
LINE
5
136
100
AcDbEntity
8
0
100
AcDbLine
10
-289.82418385166818
20
101.99385542484399
30
-1.2212453270876722e-14
11
-289.82419549892978
21
84.369145916838079
31
0
0
ARC
5
137
100
AcDbEntity
8
0
100
AcDbCircle
10
-288.32419549893012
20
84.369144925565422
30
-7.7715611723760958e-15
40
1.4999999999999936
210
5.1810407815829552e-15
220
-3.4238826703831709e-21
230
1
100
AcDbArc
50
179.99996214401926
51
270
0
LINE
5
138
100
AcDbEntity
8
0
100
AcDbLine
10
-288.32419549893012
20
82.869144925565422
30
-7.7715611723760958e-15
11
-286.07419826913582
21
82.869144925565351
31
5.5862426462383041e-07
0
ARC
5
139
100
AcDbEntity
8
0
100
AcDbCircle
10
-286.07419826913576
20
80.619144925565323
30
-6.6613381477509392e-15
40
2.250000000000032
210
7.791218816997427e-30
220
-4.9343245538895148e-16
230
1
100
AcDbArc
50
-90
51
90.00000000000145
0
LINE
5
140
100
AcDbEntity
8
0
100
AcDbLine
10
-286.07419826913576
20
78.369144925565294
30
-7.7715611723760958e-15
11
-288.32420045529329
21
78.369144925565422
31
-1.1102230246251565e-15
0
ARC
5
141
100
AcDbEntity
8
0
100
AcDbCircle
10
-288.32420045529329
20
76.869144925565422
30
-5.5511151231257827e-15
40
1.4999999999999858
210
0
220
-2.9605947323337789e-15
230
1
100
AcDbArc
50
90
51
179.99996214401926
0
LINE
5
142
100
AcDbEntity
8
0
100
AcDbLine
10
-289.82420045529301
20
76.869145916632689
30
-5.5511151231257827e-15
11
-289.82422523535178
21
39.371804916884685
31
0
0
ARC
5
143
100
AcDbEntity
8
0
100
AcDbCircle
10
-288.32422523535212
20
39.371803925565409
30
2.2204460492503131e-15
40
1.4999999999999936
210
-1.4802973661665585e-15
220
9.7829820842418663e-22
230
1
100
AcDbArc
50
179.99996214401926
51
270
0
LINE
5
144
100
AcDbEntity
8
0
100
AcDbLine
10
-288.32422523535212
20
37.871803925565409
30
2.2204460492503131e-15
11
-286.07421692166042
21
37.871803925565438
31
-1.1102230246251565e-15
0
ARC
5
145
100
AcDbEntity
8
0
100
AcDbCircle
10
-286.07421692166048
20
35.621803925565423
30
3.3306690738754696e-15
40
2.2500000000000142
210
0
220
0
230
1
100
AcDbArc
50
-90
51
89.99999999999855
0
LINE
5
146
100
AcDbEntity
8
0
100
AcDbLine
10
-286.07421692166048
20
33.371803925565409
30
3.3306690738754696e-15
11
-288.32423019171534
21
33.371803925565452
31
-1.1102230246251565e-15
0
ARC
5
147
100
AcDbEntity
8
0
100
AcDbCircle
10
-288.32423019171534
20
31.87180392556542
30
4.4408920985006262e-15
40
1.5000000000000302
210
0
220
3.7007434154171138e-15
230
1
100
AcDbArc
50
90
51
179.99996214401926
0
LINE
5
148
100
AcDbEntity
8
0
100
AcDbLine
10
-289.824230191715
20
31.871804916884692
30
4.4408920985006262e-15
11
-289.82424940760421
21
2.7942003543070437
31
-1.1102230246251565e-15
0
ARC
5
149
100
AcDbEntity
8
0
100
AcDbCircle
10
-285.82424940760507
20
2.7941977109133469
30
9.9920072216264089e-15
40
4.0000000000000426
210
-2.7755575615622559e-15
220
1.8342228407732549e-21
230
1
100
AcDbArc
50
179.99996214401926
51
270.00006701337071
0
LINE
5
150
100
AcDbEntity
8
0
100
AcDbLine
10
-285.82424472918922
20
-1.2058022890839217
30
1.1102230246251565e-14
11
-254.79894071691891
21
-1.2057660017654046
31
-1.1102230246251565e-15
0
ARC
5
151
100
AcDbEntity
8
0
100
AcDbCircle
10
-254.79894247132484
20
0.29423399823357216
30
1.1102230246251565e-14
40
1.5000000000000031
210
9.5224891166943675e-21
220
-8.141635513912229e-15
230
1
100
AcDbArc
50
-89.99993298662983
51
0
0
LINE
5
152
100
AcDbEntity
8
0
100
AcDbLine
10
-253.29894247132486
20
0.29423399823357227
30
1.1102230246251565e-14
11
-253.29894247132486
21
4.0394669388233986
31
5.5862426462383041e-07
0
ARC
5
153
100
AcDbEntity
8
0
100
AcDbCircle
10
-251.79894247132484
20
4.0394669388233915
30
5.5862426462383041e-07
40
1.500000000000012
210
0
220
0
230
1
100
AcDbArc
50
122.39250741753301
51
180
0
ARC
5
154
100
AcDbEntity
8
0
100
AcDbCircle
10
-253.29894832814392
20
6.4037813065389901
30
6.0633823376438577e-05
40
1.3000000000001153
210
-2.3020320614450768e-07
220
3.6284708176964965e-07
230
0.99999999999990763
100
AcDbArc
50
302.39250741753642
51
359.99994768241174
0
ARC
5
155
100
AcDbEntity
8
0
100
AcDbCircle
10
-248.8989461419574
20
6.4037774186352605
30
5.5862426573405344e-07
40
3.1000021861949092
210
3.5813620698882196e-16
220
9.9162233949189141e-22
230
1
100
AcDbArc
50
0.00015864116052303402
51
179.99994833434792
0
ARC
5
156
100
AcDbEntity
8
0
100
AcDbCircle
10
-244.49894233109967
20
6.4037843773690923
30
5.5862426462383041e-07
40
1.3000016246757289
210
0
220
0
230
1
100
AcDbArc
50
179.99992839490469
51
237.6076311136886
0
ARC
5
157
100
AcDbEntity
8
0
100
AcDbCircle
10
-245.99894247142046
20
4.0394663828857711
30
5.5862426462383041e-07
40
1.5000000000000213
210
0
220
0
230
1
100
AcDbArc
50
0
51
57.607631113688385
0
LINE
5
158
100
AcDbEntity
8
0
100
AcDbLine
10
-244.49894247142043
20
4.0394663828857702
30
5.5862426462383041e-07
11
-244.49894247142043
21
0.29424779956033303
31
5.5862426573405344e-07
0
ARC
5
159
100
AcDbEntity
8
0
100
AcDbCircle
10
-242.99894247140361
20
0.29424779956033287
30
-9.0496735398504729e-05
40
1.5000000000000897
210
3.7241616975452654e-07
220
-5.1683125800523773e-23
230
0.99999999999993072
100
AcDbArc
50
180
51
270.0000670133702
0
LINE
5
160
100
AcDbEntity
8
0
100
AcDbLine
10
-242.99894071701453
20
-1.2057522004386414
30
1.1102230246251565e-14
11
-233.09723137178236
21
-1.2057406193601556
31
-1.1102230246251565e-15
0
ARC
5
161
100
AcDbEntity
8
0
100
AcDbCircle
10
-233.09723312618829
20
0.29425938063881724
30
1.1102230246251565e-14
40
1.4999999999999991
210
9.5224891166944172e-21
220
-8.1416355139122511e-15
230
1
100
AcDbArc
50
270.0000670133702
51
330.00013386424234
0
LINE
5
162
100
AcDbEntity
8
0
100
AcDbLine
10
-231.79819326823633
20
-0.45573758432316991
30
1.1102230246251565e-14
11
-229.20018943151825
21
4.0441613388409916
31
-1.1102230246251565e-15
0
ARC
5
163
100
AcDbEntity
8
0
100
AcDbCircle
10
-227.90114957356633
20
3.294164373879001
30
9.9920072216264089e-15
40
1.4999999999999809
210
0
220
0
230
1
100
AcDbArc
50
90.000000162184335
51
150.00013386424166
0
LINE
5
164
100
AcDbEntity
8
0
100
AcDbLine
10
-227.9011495778123
20
4.7941643738789814
30
9.9920072216264089e-15
11
-196.34919458878534
21
4.794164463196517
31
-1.1102230246251565e-15
0
ARC
5
165
100
AcDbEntity
8
0
100
AcDbCircle
10
-196.34919459303154
20
6.2941644631965161
30
9.9920072216264089e-15
40
1.4999999999999996
210
2.0952145642670082e-23
220
-7.401486830834379e-15
230
1
100
AcDbArc
50
-89.999999837806982
51
0
0
LINE
5
166
100
AcDbEntity
8
0
100
AcDbLine
10
-194.84919459303157
20
6.2941644631965161
30
9.9920072216264089e-15
11
-194.84919459303157
21
6.4037012369851389
31
5.5862426462383041e-07
0
ARC
5
167
100
AcDbEntity
8
0
100
AcDbCircle
10
-191.74918927654946
20
6.4037044422098086
30
5.5862426462383041e-07
40
3.1000053164837609
210
-3.5813584535521198e-16
220
-3.7029157359322127e-22
230
1
100
AcDbArc
50
5.9237372658725725e-05
51
180.00005923737268
0
LINE
5
168
100
AcDbEntity
8
0
100
AcDbLine
10
-188.64918396006738
20
6.4037076474344792
30
5.5862426573405344e-07
11
-188.64918396006738
21
6.2941644892399218
31
5.5862426462383041e-07
0
ARC
5
169
100
AcDbEntity
8
0
100
AcDbCircle
10
-187.14918396005442
20
6.2941644892399227
30
-6.9697382253101561e-05
40
1.5000000000000897
210
3.7241616975452654e-07
220
0
230
0.99999999999993072
100
AcDbArc
50
180
51
270.00000016219303
0
LINE
5
170
100
AcDbEntity
8
0
100
AcDbLine
10
-187.14918395582117
20
4.7941644892399218
30
9.9920072216264089e-15
11
-101.09870587087586
21
4.7941647328318329
31
4.8007013275785937e-06
0
ARC
5
171
100
AcDbEntity
8
0
100
AcDbCircle
10
-101.09870587512206
20
6.2941647327999206
30
2.0144270876503989e-05
40
1.5000000000080038
210
-9.0598907572137974e-15
220
3.200467545040647e-06
230
0.99999999999487865
100
AcDbArc
50
-89.999999837806982
51
0.00030393502410798869
0
LINE
5
172
100
AcDbEntity
8
0
100
AcDbLine
10
-99.598705875143168
20
6.2941726898517008
30
9.9920072216264089e-15
11
-99.598706456106626
21
6.4036917383081153
31
-1.1102230246251565e-15
0
ARC
5
173
100
AcDbEntity
8
0
100
AcDbCircle
10
-96.498706456107783
20
6.4036944184145934
30
-4.4408920985006262e-15
40
3.0999999999999925
210
0
220
0
230
1
100
AcDbArc
50
-7.1610185040040962e-05
51
180.0000495335895
0
LINE
5
174
100
AcDbEntity
8
0
100
AcDbLine
10
-93.398706456110219
20
6.4036905439408045
30
-4.4408920985006262e-15
11
-93.398706592419614
21
6.2941666257200719
31
-1.1102230246251565e-15
0
ARC
5
175
100
AcDbEntity
8
0
100
AcDbCircle
10
-91.89870659242078
20
6.2941647588755583
30
9.9920072216264089e-15
40
1.4999999999999927
210
-7.4014868308286787e-15
220
9.2116167263439707e-21
230
1
100
AcDbArc
50
179.99992869584281
51
270.00000016219303
0
LINE
5
176
100
AcDbEntity
8
0
100
AcDbLine
10
-91.898706588174576
20
4.7941647588755574
30
9.9920072216264089e-15
11
-60.346623979257572
21
4.7941648481934083
31
0
0
ARC
5
177
100
AcDbEntity
8
0
100
AcDbCircle
10
-60.346623975011369
20
3.2941648481934056
30
9.9920072216264089e-15
40
1.499999999999998
210
0
220
-0
230
1
100
AcDbArc
50
30.000000162191345
51
90.000000162193018
0
LINE
5
178
100
AcDbEntity
8
0
100
AcDbLine
10
-59.047585871457791
20
4.0441648518706872
30
9.9920072216264089e-15
11
-56.449488080445661
21
-0.45587249577568889
31
-1.1102230246251565e-15
0
ARC
5
179
100
AcDbEntity
8
0
100
AcDbCircle
10
-55.150449976892148
20
0.2941275079016471
30
1.1102230246251565e-14
40
1.4999999999999711
210
-7.0508631718827615e-15
220
-4.0708177769187509e-15
230
1
100
AcDbArc
50
210.00000016219437
51
270.00006701337099
0
LINE
5
180
100
AcDbEntity
8
0
100
AcDbLine
10
-55.150448222486197
20
-1.2058724920972976
30
1.1102230246251565e-14
11
-45.252642176799455
21
-1.2058609155841284
31
-1.1102230246251565e-15
0
ARC
5
181
100
AcDbEntity
8
0
100
AcDbCircle
10
-45.252643931205398
20
0.29413908441484876
30
1.1102230246251565e-14
40
1.5000000000000033
210
9.5224891649025306e-21
220
-8.141635513912229e-15
230
1
100
AcDbArc
50
-89.999932986629275
51
0
0
LINE
5
182
100
AcDbEntity
8
0
100
AcDbLine
10
-43.752643931205391
20
0.29413908441484887
30
1.1102230246251565e-14
11
-43.752643931205384
21
4.0393000579609097
31
5.5862426462383041e-07
0
ARC
5
183
100
AcDbEntity
8
0
100
AcDbCircle
10
-42.252643931205363
20
4.0393000579609044
30
5.5862426462383041e-07
40
1.5000000000000124
210
0
220
0
230
1
100
AcDbArc
50
122.39249126075259
51
180
0
ARC
5
184
100
AcDbEntity
8
0
100
AcDbCircle
10
-43.752649121319237
20
6.4036148486790898
30
1.2395529003520838e-05
40
1.3000000000001199
210
-2.3020310382560181e-07
220
3.6284714668441233e-07
230
0.99999999999990785
100
AcDbArc
50
-57.607508739245432
51
0.00010690255256622415
0
ARC
5
185
100
AcDbEntity
8
0
100
AcDbCircle
10
-39.35264645615235
20
6.4036229956740343
30
5.5862426573405344e-07
40
3.1000026651755883
210
0
220
0
230
1
100
AcDbArc
50
-7.1610185040040962e-05
51
180.00010658843385
0
ARC
5
186
100
AcDbEntity
8
0
100
AcDbCircle
10
-34.952643790980176
20
6.4036174965066062
30
5.5862426462383041e-07
40
1.3000000000000194
210
8.5401771124944083e-16
220
-1.0673183619843734e-21
230
1
100
AcDbArc
50
179.99992839490469
51
237.60763111368814
0
ARC
5
187
100
AcDbEntity
8
0
100
AcDbCircle
10
-36.452643931300983
20
4.0392995020232831
30
5.5862426462383041e-07
40
1.5000000000000213
210
0
220
0
230
1
100
AcDbArc
50
0
51
57.607631113688356
0
LINE
5
188
100
AcDbEntity
8
0
100
AcDbLine
10
-34.952643931300962
20
4.0392995020232831
30
5.5862426462383041e-07
11
-34.952643931300962
21
0.29415288574160742
31
5.5862426573405344e-07
0
ARC
5
189
100
AcDbEntity
8
0
100
AcDbCircle
10
-33.452643931298653
20
0.29415288574160731
30
-1.2458305509954808e-05
40
1.5000000000000988
210
3.7241616975452432e-07
220
-4.3069271500435956e-23
230
0.99999999999993072
100
AcDbArc
50
180
51
270.00006701337099
0
LINE
5
190
100
AcDbEntity
8
0
100
AcDbLine
10
-33.452642176895019
20
-1.2058471142573668
30
1.1102230246251565e-14
11
-2.4240682167715111
21
-1.2058108231143059
31
-1.1102230246251565e-15
0
ARC
5
191
100
AcDbEntity
8
0
100
AcDbCircle
10
-2.4240728951873609
20
2.7941891768829668
30
9.9920072216264089e-15
40
4.0000000000000089
210
3.2463031219590783e-21
220
-2.775557561560987e-15
230
1
100
AcDbArc
50
270.00006701337071
51
359.99996213439283
0
LINE
5
192
100
AcDbEntity
8
0
100
AcDbLine
10
1.5759271048117789
20
2.7941865334892602
30
1.1102230246251565e-14
11
1.5759463019750837
21
31.843454870443217
31
0
0
ARC
5
193
100
AcDbEntity
8
0
100
AcDbCircle
10
0.075946301975362007
20
31.84345578133118
30
4.4408920985006262e-15
40
1.499999999999998
210
2.9605947323332086e-15
220
-1.7978467319611359e-21
230
1
100
AcDbArc
50
-3.4795858933270756e-05
51
90.000000000000014
0
LINE
5
194
100
AcDbEntity
8
0
100
AcDbLine
10
0.07594630197536173
20
33.34345578133118
30
3.3306690738754696e-15
11
-2.1740513028452941
21
33.343455781331173
31
-1.1102230246251565e-15
0
ARC
5
195
100
AcDbEntity
8
0
100
AcDbCircle
10
-2.1740513028452964
20
35.593455781331173
30
3.3306690738754696e-15
40
2.2500000000000009
210
-2.4347558803117629e-31
220
4.9343245538895829e-16
230
1
100
AcDbArc
50
90.000000000000043
51
270.00000000000006
0
LINE
5
196
100
AcDbEntity
8
0
100
AcDbLine
10
-2.1740513028452977
20
37.843455781331173
30
2.2204460492503131e-15
11
0.075951258338570748
21
37.84345578133118
31
-1.1102230246251565e-15
0
ARC
5
197
100
AcDbEntity
8
0
100
AcDbCircle
10
0.075951258338573246
20
39.34345578133118
30
2.2204460492503131e-15
40
1.5000000000000036
210
-3.6977854932234753e-30
220
-2.220446049250308e-15
230
1
100
AcDbArc
50
269.99999999999989
51
359.99996213439283
0
LINE
5
198
100
AcDbEntity
8
0
100
AcDbLine
10
1.5759512583382542
20
39.343454790058544
30
2.2204460492503131e-15
11
1.575976057127344
21
76.869138514677473
31
0
0
ARC
5
199
100
AcDbEntity
8
0
100
AcDbCircle
10
0.075976057127620789
20
76.869139425565422
30
-5.5511151231257827e-15
40
1.4999999999999996
210
-3.7007434154165064e-15
220
2.2473083930386118e-21
230
1
100
AcDbArc
50
-3.4785383000372011e-05
51
89.999999999999773
0
LINE
5
200
100
AcDbEntity
8
0
100
AcDbLine
10
0.075976057127626617
20
78.369139425565407
30
-6.6613381477509392e-15
11
-2.174021547693032
21
78.369139425565407
31
-1.1102230246251565e-15
0
ARC
5
201
100
AcDbEntity
8
0
100
AcDbCircle
10
-2.1740215476930351
20
80.619139425565422
30
-6.6613381477509392e-15
40
2.2499999999999964
210
-2.434755880311773e-31
220
4.9343245538895927e-16
230
1
100
AcDbArc
50
90.000000000000043
51
270.00000000000011
0
LINE
5
202
100
AcDbEntity
8
0
100
AcDbLine
10
-2.1740215476930365
20
82.869139425565407
30
-7.7715611723760958e-15
11
0.075981013490832583
21
82.869139425565407
31
-1.1102230246251565e-15
0
ARC
5
203
100
AcDbEntity
8
0
100
AcDbCircle
10
0.075981013490831473
20
84.369139425565422
30
-7.7715611723760958e-15
40
1.5000000000000036
210
-3.2869204384208673e-30
220
4.4408920985006159e-15
230
1
100
AcDbArc
50
270.00000000000006
51
359.99996214401932
0
LINE
5
204
100
AcDbEntity
8
0
100
AcDbLine
10
1.575981013490513
20
84.369138434292779
30
-7.7715611723760958e-15
11
1.5759926609725741
21
101.99418160326863
31
0
0
ARC
5
205
100
AcDbEntity
8
0
100
AcDbCircle
10
-2.4240073390265415
20
101.99418424666234
30
-1.1102230246251565e-14
40
3.9999999999999893
210
-2.775557561562293e-15
220
1.8342228550251858e-21
230
1
100
AcDbArc
50
-3.7855980715832094e-05
51
90.000067013217716
0
LINE
5
206
100
AcDbEntity
8
0
100
AcDbLine
10
-2.4240120174317066
20
105.99418424665961
30
-1.2212453270876722e-14
11
-19.855299994504243
21
105.99416385900271
31
0
0
ARC
5
207
100
AcDbEntity
8
0
100
AcDbCircle
10
-19.855298240102286
20
104.49416385900375
30
-1.2212453270876722e-14
40
1.4999999999999993
210
9.5224675194358528e-21
220
-8.1416355139122495e-15
230
1
100
AcDbArc
50
90.000067013218469
51
180
0
LINE
5
208
100
AcDbEntity
8
0
100
AcDbLine
10
-21.355298240102286
20
104.49416385900375
30
-1.2212453270876722e-14
11
-21.355298240102268
21
100.55850742929297
31
5.5862428460784486e-07
0
ARC
5
209
100
AcDbEntity
8
0
100
AcDbCircle
10
-22.855298240102286
20
100.55850742929297
30
-1.1102230246251565e-14
40
1.5000000000000235
210
0
220
0
230
1
100
AcDbArc
50
-57.607739198052094
51
2.1327258847706149e-05
0
LINE
5
210
100
AcDbEntity
8
0
100
AcDbLine
10
-247.89920089518819
20
24.79918253348929
30
0
11
-33.099199895188214
21
24.799182533489269
31
0
0
ARC
5
211
100
AcDbEntity
8
0
100
AcDbCircle
10
-33.099198895187229
20
24.299182533491258
30
5.5511151231257827e-15
40
0.49999999999999906
210
0
220
0
230
1
100
AcDbArc
50
-0.0001145902915529748
51
90.000114591671917
0
LINE
5
212
100
AcDbEntity
8
0
100
AcDbLine
10
-32.599198895188223
20
24.299181533489257
30
5.5511151231257827e-15
11
-32.599199895188228
21
23.799182533489262
31
5.5862426462383041e-07
0
ARC
5
213
100
AcDbEntity
8
0
100
AcDbCircle
10
-33.099200895188226
20
23.799182533489262
30
5.5511151231257827e-15
40
0.50000099999999659
210
0
220
0
230
1
100
AcDbArc
50
-90
51
6.4010252122680228e-05
0
LINE
5
214
100
AcDbEntity
8
0
100
AcDbLine
10
-33.099200895188226
20
23.299181533489268
30
5.5511151231257827e-15
11
-247.89919989518822
21
23.299182533489287
31
5.5862425796249227e-07
0
ARC
5
215
100
AcDbEntity
8
0
100
AcDbCircle
10
-247.89919989518822
20
23.799182533489294
30
5.5511151231257827e-15
40
0.50000000000000711
210
0
220
0
230
1
100
AcDbArc
50
180
51
270
0
LINE
5
216
100
AcDbEntity
8
0
100
AcDbLine
10
-248.39919989518822
20
23.799182533489294
30
5.5511151231257827e-15
11
-248.39919989518918
21
24.299182533489294
31
5.5862425796249227e-07
0
ARC
5
217
100
AcDbEntity
8
0
100
AcDbCircle
10
-247.89919989518822
20
24.299182533489301
30
5.5511151231257827e-15
40
0.50000000000098932
210
-2.2204459963037844e-20
220
1.1102230246207394e-14
230
1
100
AcDbArc
50
90.000114591555487
51
180.00006401025212
0
ARC
5
218
100
AcDbEntity
8
0
100
AcDbCircle
10
-46.499199895188227
20
81.019182533489271
30
-6.6613381477509392e-15
40
0.50000000000000711
210
0
220
0
230
1
100
AcDbArc
50
-90
51
0
0
LINE
5
219
100
AcDbEntity
8
0
100
AcDbLine
10
-46.499199895188227
20
80.519182533489271
30
-6.6613381477509392e-15
11
-81.781743828932122
21
80.519182533489271
31
5.5862426351360739e-07
0
ARC
5
220
100
AcDbEntity
8
0
100
AcDbCircle
10
-81.781743828932122
20
79.769182533467145
30
-5.9414668506942034e-05
40
0.75000000000020095
210
0
220
-7.4483236023306124e-07
230
0.99999999999972267
100
AcDbArc
50
90
51
154.56002908683999
0
ARC
5
221
100
AcDbEntity
8
0
100
AcDbCircle
10
-86.974199895188235
20
82.23918253348927
30
-6.6613381477509392e-15
40
4.9999999999999893
210
-2.0051423579520404e-16
220
-9.5382638985188354e-17
230
1
100
AcDbArc
50
205.43997091316098
51
334.56002908683888
0
ARC
5
222
100
AcDbEntity
8
0
100
AcDbCircle
10
-92.166655961444349
20
79.7691825334893
30
-6.6613381477509392e-15
40
0.74999999999997469
210
1.3367615719681079e-15
220
6.358842599011944e-16
230
1
100
AcDbArc
50
25.439970913157236
51
90.000000000001094
0
LINE
5
223
100
AcDbEntity
8
0
100
AcDbLine
10
-92.166655961444363
20
80.519182533489285
30
-6.6613381477509392e-15
11
-196.08174382893219
21
80.519182533489285
31
5.5862426018293831e-07
0
ARC
5
224
100
AcDbEntity
8
0
100
AcDbCircle
10
-196.08174382893219
20
79.769182533467145
30
-5.9414668152694295e-05
40
0.75000000000021871
210
0
220
-7.4483235579215146e-07
230
0.99999999999972267
100
AcDbArc
50
90
51
154.56002908683664
0
ARC
5
225
100
AcDbEntity
8
0
100
AcDbCircle
10
-201.27419989518825
20
82.239182533489299
30
-6.6613381477509392e-15
40
4.9999999999999893
210
-2.0051423579520404e-16
220
-9.5382638985188354e-17
230
1
100
AcDbArc
50
205.43997091316098
51
334.56002908683905
0
ARC
5
226
100
AcDbEntity
8
0
100
AcDbCircle
10
-206.4666559614443
20
79.769182533489285
30
-6.6613381477509392e-15
40
0.74999999999996536
210
1.3367615719680707e-15
220
6.3588425990131509e-16
230
1
100
AcDbArc
50
25.439970913162092
51
90
0
LINE
5
227
100
AcDbEntity
8
0
100
AcDbLine
10
-206.4666559614443
20
80.519182533489243
30
-6.6613381477509392e-15
11
-243.99919989518824
21
80.5191825334893
31
5.5862425907271529e-07
0
ARC
5
228
100
AcDbEntity
8
0
100
AcDbCircle
10
-243.99919989518824
20
81.0191825334893
30
-6.6613381477509392e-15
40
0.49999999999997158
210
0
220
0
230
1
100
AcDbArc
50
180
51
270
0
LINE
5
229
100
AcDbEntity
8
0
100
AcDbLine
10
-244.49919989518821
20
81.0191825334893
30
-6.6613381477509392e-15
11
-244.49919989518827
21
81.519182533489314
31
5.5862425907271529e-07
0
ARC
5
230
100
AcDbEntity
8
0
100
AcDbCircle
10
-243.99919989518824
20
81.519182533489271
30
-6.6613381477509392e-15
40
0.50000000000002487
210
0
220
-0
230
1
100
AcDbArc
50
90
51
179.99993598974785
0
LINE
5
231
100
AcDbEntity
8
0
100
AcDbLine
10
-243.99919989518824
20
82.0191825334893
30
-6.6613381477509392e-15
11
-205.41202541108424
21
82.019182533489285
31
5.5862426129316134e-07
0
ARC
5
232
100
AcDbEntity
8
0
100
AcDbCircle
10
-205.41202541108424
20
81.269182533489314
30
-6.6613381477509392e-15
40
0.74999999999998834
210
0
220
-0
230
1
100
AcDbArc
50
13.193198369007794
51
90
0
ARC
5
233
100
AcDbEntity
8
0
100
AcDbCircle
10
-201.27419989518825
20
82.239182533489299
30
-6.6613381477509392e-15
40
3.5000000000000284
210
0
220
0
230
1
100
AcDbArc
50
193.19319836900698
51
346.80680163099271
0
ARC
5
234
100
AcDbEntity
8
0
100
AcDbCircle
10
-197.13637437929222
20
81.2691825334893
30
-6.6613381477509392e-15
40
0.74999999999999289
210
0
220
-0
230
1
100
AcDbArc
50
90
51
166.80680163099328
0
LINE
5
235
100
AcDbEntity
8
0
100
AcDbLine
10
-197.13637437929222
20
82.019182533489285
30
-6.6613381477509392e-15
11
-91.112025411084261
21
82.0191825334893
31
5.5862426351360739e-07
0
ARC
5
236
100
AcDbEntity
8
0
100
AcDbCircle
10
-91.112025411084261
20
81.269182533489271
30
-6.6613381477509392e-15
40
0.75000000000002687
210
0
220
-0
230
1
100
AcDbArc
50
13.193198369007851
51
90
0
ARC
5
237
100
AcDbEntity
8
0
100
AcDbCircle
10
-86.974199895188235
20
82.23918253348927
30
-6.6613381477509392e-15
40
3.4999999999999898
210
0
220
0
230
1
100
AcDbArc
50
193.19319836900706
51
346.80680163099294
0
ARC
5
238
100
AcDbEntity
8
0
100
AcDbCircle
10
-82.836374379292224
20
81.269182533489271
30
-6.6613381477509392e-15
40
0.74999999999999289
210
0
220
-0
230
1
100
AcDbArc
50
90
51
166.80680163099188
0
LINE
5
239
100
AcDbEntity
8
0
100
AcDbLine
10
-82.836374379292224
20
82.019182533489271
30
-6.6613381477509392e-15
11
-46.49919989518822
21
82.019182533489271
31
5.5862426462383041e-07
0
ARC
5
240
100
AcDbEntity
8
0
100
AcDbCircle
10
-46.499199895188227
20
81.519182533489271
30
-6.6613381477509392e-15
40
0.50000000000001599
210
0
220
0
230
1
100
AcDbArc
50
0
51
89.99999999999919
0
LINE
5
241
100
AcDbEntity
8
0
100
AcDbLine
10
-45.999199895188212
20
81.519182533489271
30
-6.6613381477509392e-15
11
-45.999199895188227
21
81.019182533489271
31
-6.6613381477509392e-15
0
CIRCLE
5
242
100
AcDbEntity
8
0
100
AcDbCircle
10
-283.96947725694611
20
5.7949440675169797
30
0
40
2.5000000149011825
210
1.2325951644078312e-32
220
0
230
1
0
CIRCLE
5
243
100
AcDbEntity
8
0
100
AcDbCircle
10
-4.7739236408026571
20
6.2948786078488208
30
0
40
3.0000041169680114
210
1.2325951644078312e-32
220
0
230
1
0
CIRCLE
5
244
100
AcDbEntity
8
0
100
AcDbCircle
10
-283.46945575579008
20
98.494943611044192
30
-1.1102230246251565e-14
40
3.0000041169680003
210
1.2325951644078312e-32
220
0
230
1
0
CIRCLE
5
245
100
AcDbEntity
8
0
100
AcDbCircle
10
-4.7739021383148037
20
98.49487815137428
30
-1.1102230246251565e-14
40
2.9999959128259008
210
1.2325951644078312e-32
220
0
230
1
0
LINE
5
246
100
AcDbEntity
8
0
100
AcDbLine
10
1.5759463019750837
20
31.843454870443217
30
0
11
1.5759271048117851
21
2.7941865334892579
31
-9.8607613152626476e-31
0
ARC
5
247
100
AcDbEntity
8
0
100
AcDbCircle
10
-2.4240728951873591
20
2.7941891768829654
30
2.7369110631344083e-47
40
4.0000000000000115
210
-4.005929582347172e-32
220
2.6473122624614731e-38
230
1
100
AcDbArc
50
270.00006701337071
51
359.99996213439283
0
ARC
5
248
100
AcDbEntity
8
0
100
AcDbCircle
10
0.075946301975361383
20
31.84345578133118
30
-5.4738221262688167e-47
40
1.4999999999999987
210
-1.4970090401478186e-38
220
-2.4651918258228852e-32
230
1
100
AcDbArc
50
-3.4795858933270756e-05
51
89.999999999999986
0
LINE
5
249
100
AcDbEntity
8
0
100
AcDbLine
10
-2.1740513028452941
20
33.343455781331173
30
0
11
0.075946301975361702
21
33.34345578133118
31
3.6977854932234939e-32
0
ARC
5
250
100
AcDbEntity
8
0
100
AcDbCircle
10
-2.1740513028452946
20
35.593455781331173
30
1.1631872018321235e-46
40
2.2500000000000009
210
-2.4651903288156646e-32
220
-2.4651903288156597e-32
230
1
100
AcDbArc
50
90.000000000000057
51
270
0
LINE
5
251
100
AcDbEntity
8
0
100
AcDbLine
10
0.075951258338570887
20
37.84345578133118
30
0
11
-2.1740513028452972
21
37.843455781331173
31
5.5466782398352414e-32
0
ARC
5
252
100
AcDbEntity
8
0
100
AcDbCircle
10
0.075951258338566308
20
39.34345578133118
30
4.5244561012440688e-46
40
1.5000000000000036
210
-2.4651935870494149e-32
220
-3.7689556046336856e-46
230
1
100
AcDbArc
50
270.00000000000023
51
359.99996213439283
0
LINE
5
253
100
AcDbEntity
8
0
100
AcDbLine
10
1.575976057127344
20
76.869138514677473
30
0
11
1.5759512583382509
21
39.343454790058544
31
3.6977854932235235e-32
0
ARC
5
254
100
AcDbEntity
8
0
100
AcDbCircle
10
0.075976057127617458
20
76.869139425565422
30
-2.7369110631344083e-46
40
1.5000000000000031
210
-1.4970090401477956e-38
220
-2.4651918258228688e-32
230
1
100
AcDbArc
50
-3.4785383000372011e-05
51
89.999999999999659
0
LINE
5
255
100
AcDbEntity
8
0
100
AcDbLine
10
-2.174021547693032
20
78.369139425565407
30
0
11
0.075976057127626534
21
78.369139425565407
31
3.6977854932234874e-32
0
ARC
5
256
100
AcDbEntity
8
0
100
AcDbCircle
10
-2.1740215476930418
20
80.619139425565407
30
-2.2579516270858869e-46
40
2.2500000000000142
210
-2.4651903288156679e-32
220
-2.4651903288156556e-32
230
1
100
AcDbArc
50
89.999999999999844
51
270.00000000000023
0
LINE
5
257
100
AcDbEntity
8
0
100
AcDbLine
10
0.075981013490832583
20
82.869139425565407
30
0
11
-2.174021547693036
21
82.869139425565407
31
5.5466782398352513e-32
0
ARC
5
258
100
AcDbEntity
8
0
100
AcDbCircle
10
0.075981013490848126
20
84.369139425565422
30
-1.0768034464019438e-45
40
1.5000000000000036
210
-2.4651935870494576e-32
220
9.7331433444801516e-46
230
1
100
AcDbArc
50
269.99999999999937
51
359.99996213439283
0
LINE
5
259
100
AcDbEntity
8
0
100
AcDbLine
10
1.5759926609725741
20
101.99418160326863
30
0
11
1.5759810134905239
21
84.369138434292779
31
3.6977854932234896e-32
0
ARC
5
260
100
AcDbEntity
8
0
100
AcDbCircle
10
-2.4240073390265455
20
101.99418424666234
30
-2.7369110631344083e-46
40
3.9999999999999938
210
-1.6291201456163973e-38
220
-2.4651948412265519e-32
230
1
100
AcDbArc
50
-3.7855980715832094e-05
51
90.000067013217659
0
CIRCLE
5
261
100
AcDbEntity
8
0
100
AcDbCircle
10
-4.7739021383148037
20
98.49487815137428
30
0
40
2.9999959128259008
210
-2.4651903288156619e-32
220
-2.4651903288156619e-32
230
1
0
LINE
5
262
100
AcDbEntity
8
0
100
AcDbLine
10
-2.424012017431707
20
105.99418424665961
30
9.8607613152626607e-32
11
-19.855299994504243
21
105.99416385900271
31
-4.2971559567755674e-31
0
ARC
5
263
100
AcDbEntity
8
0
100
AcDbCircle
10
-19.855298240102293
20
104.49416385900375
30
-3.7974641000989916e-46
40
1.4999999999999993
210
-2.465226718496717e-32
220
2.8647703495190984e-31
230
1
100
AcDbArc
50
90.000067013218199
51
180
0
LINE
5
264
100
AcDbEntity
8
0
100
AcDbLine
10
-21.355298240102289
20
104.49416385900375
30
-3.6977854932235049e-32
11
-21.355298240102268
21
100.55850742929297
31
-2.6164765201490404e-23
0
ARC
5
265
100
AcDbEntity
8
0
100
AcDbCircle
10
-22.855298240102289
20
100.55850742929297
30
9.3397090029461685e-46
40
1.5000000000000235
210
-2.4651903288155968e-32
220
-4.9303806576313402e-32
230
1
100
AcDbArc
50
-57.607739198052094
51
0
0
ARC
5
266
100
AcDbEntity
8
0
100
AcDbCircle
10
-21.355302559899879
20
98.194186605171566
30
5.4225050438350465e-46
40
1.2999999999999878
210
-3.7848855593798974e-32
220
1.483052225335139e-32
230
1
100
AcDbArc
50
122.3922608019473
51
180
0
LINE
5
267
100
AcDbEntity
8
0
100
AcDbLine
10
-22.655302559899862
20
98.01965207518694
30
0
11
-22.655302559899866
21
98.194186605171566
31
-1.6640034719505716e-32
0
ARC
5
268
100
AcDbEntity
8
0
100
AcDbCircle
10
-25.755302559897583
20
98.019654334523722
30
6.6138910226604023e-47
40
3.0999999999985501
210
-2.4651921254908946e-32
220
-2.4651885321391384e-32
230
1
100
AcDbArc
50
180.00004175642727
51
359.99995824357273
0
LINE
5
269
100
AcDbEntity
8
0
100
AcDbLine
10
-28.85530255988801
20
104.49415157818515
30
0
11
-28.855302559895311
21
98.01965207518694
31
-7.6421011587072591e-32
0
ARC
5
270
100
AcDbEntity
8
0
100
AcDbCircle
10
-30.355302559888045
20
104.49415157818515
30
-9.9213026038622302e-46
40
1.5000000000000346
210
-6.6142017359080008e-46
220
-2.465193212114702e-32
230
1
100
AcDbArc
50
0
51
90.000067013215215
0
LINE
5
271
100
AcDbEntity
8
0
100
AcDbLine
10
-30.355304314289917
20
105.99415157818414
30
3.6977854932234857e-32
11
-55.150461564279155
21
105.99412257773622
31
-6.1124765847278293e-31
0
ARC
5
272
100
AcDbEntity
8
0
100
AcDbCircle
10
-55.150459809877248
20
104.4941225777373
30
1.4231937528298923e-45
40
1.499999999999946
210
-2.3001033223140801e-32
220
4.0749841208011179e-31
230
1
100
AcDbArc
50
90.000067013216579
51
150.00000016219047
0
LINE
5
273
100
AcDbEntity
8
0
100
AcDbLine
10
-59.047574761593324
20
100.74412144901048
30
0
11
-56.449497917676908
21
105.24412257406
31
-1.8488927466116889e-32
0
ARC
5
274
100
AcDbEntity
8
0
100
AcDbCircle
10
-60.346612869393141
20
101.49412144533322
30
2.5230898863270327e-45
40
1.5000000000000704
210
-1.2325951583642224e-32
220
-2.134917453407417e-32
230
1
100
AcDbArc
50
270.0000670132182
51
330.00000016219207
0
LINE
5
275
100
AcDbEntity
8
0
100
AcDbLine
10
-92.903119007803014
20
99.994083367201512
30
0
11
-60.346611114991191
21
99.994121445334173
31
-3.2023740176414855e-32
0
ARC
5
276
100
AcDbEntity
8
0
100
AcDbCircle
10
-92.90311725340112
20
98.494083367202535
30
-4.4132690893042335e-46
40
1.4999999999999993
210
-2.4651951755698593e-32
220
-2.8832954063249376e-38
230
1
100
AcDbArc
50
90.000067013216025
51
180.00017292868537
0
LINE
5
277
100
AcDbEntity
8
0
100
AcDbLine
10
-94.403115822168772
20
98.019883464339244
30
0
11
-94.403117253394285
21
98.494078839873964
31
-3.6977995991557345e-32
0
ARC
5
278
100
AcDbEntity
8
0
100
AcDbCircle
10
-97.503115838213574
20
98.01987410786019
30
0
40
3.1000000160589289
210
-2.4651829250543594e-32
220
-2.4651977325547284e-32
230
1
100
AcDbArc
50
-179.9998279227741
51
0.00017292868540638929
0
LINE
5
279
100
AcDbEntity
8
0
100
AcDbLine
10
-100.60311664153693
20
98.494075097154123
30
0
11
-100.60311585425852
21
98.019864797574726
31
-7.6420900589168682e-32
0
ARC
5
280
100
AcDbEntity
8
0
100
AcDbCircle
10
-102.10311664153485
20
98.494072606871612
30
-2.2237402387967068e-45
40
1.4999999999999925
210
4.0926780749224677e-38
220
-2.465189119419217e-32
230
1
100
AcDbArc
50
9.5122032814316546e-05
51
90.000067013214945
0
LINE
5
281
100
AcDbEntity
8
0
100
AcDbLine
10
-186.14474183868313
20
99.993974311682038
30
0
11
-102.10311839593672
21
99.994072606870631
31
3.6977854932235021e-32
0
ARC
5
282
100
AcDbEntity
8
0
100
AcDbCircle
10
-186.14474008428124
20
98.493974311682877
30
-9.510765944392069e-46
40
1.500000000000177
210
-2.4651962401814337e-32
220
-2.8832966854789442e-38
230
1
100
AcDbArc
50
90.000067013216025
51
180.00003890061072
0
LINE
5
283
100
AcDbEntity
8
0
100
AcDbLine
10
-187.64474008428093
20
98.493973293161588
30
-3.6977925461895682e-32
11
-187.64473976228541
21
98.019762993581708
31
0
0
ARC
5
284
100
AcDbEntity
8
0
100
AcDbCircle
10
-190.74473977834361
20
98.019765052339309
30
0
40
3.1000000160589325
210
-2.4651896517313462e-32
220
-2.465188654911736e-32
230
1
100
AcDbArc
50
179.99996109938928
51
359.9999619519532
0
LINE
5
285
100
AcDbEntity
8
0
100
AcDbLine
10
-193.84473979440185
20
98.019767157290531
30
-7.6420827708518622e-32
11
-193.84473947241534
21
98.493962532827226
31
0
0
ARC
5
286
100
AcDbEntity
8
0
100
AcDbCircle
10
-195.34473947241494
20
98.493963551352095
30
5.2617115188759e-45
40
1.4999999999999409
210
-1.6739078260406515e-38
220
-2.4651948860228939e-32
230
1
100
AcDbArc
50
-3.8900610746520703e-05
51
90.000067013217119
0
LINE
5
287
100
AcDbEntity
8
0
100
AcDbLine
10
-227.90150150446823
20
99.993925472923181
30
0
11
-195.34474122681686
21
99.993963551351015
31
3.697785493223541e-32
0
ARC
5
288
100
AcDbEntity
8
0
100
AcDbCircle
10
-227.9015032588693
20
101.4939254729221
30
-6.0691002825005505e-45
40
1.4999999999999596
210
-2.4651968494802527e-32
220
-2.4651932121130522e-32
230
1
100
AcDbArc
50
210.0001338642312
51
270.00006701318455
0
LINE
5
289
100
AcDbEntity
8
0
100
AcDbLine
10
-231.79862698258501
20
105.2439174854926
30
0
11
-229.2005396122637
21
100.74392243788844
31
-5.0512827167779194e-32
0
ARC
5
290
100
AcDbEntity
8
0
100
AcDbCircle
10
-233.09766333597918
20
104.4939144504584
30
-6.5001637749442198e-45
40
1.5000000000000415
210
1.5186209784811206e-32
220
-2.6303144999736205e-32
230
1
100
AcDbArc
50
30.000133864253424
51
90.000067013214945
0
LINE
5
291
100
AcDbEntity
8
0
100
AcDbLine
10
-233.09766509038104
20
105.99391445045745
30
7.3955709864470744e-32
11
-257.8925251946759
21
105.99388545035707
31
-6.1124013530893766e-31
0
ARC
5
292
100
AcDbEntity
8
0
100
AcDbCircle
10
-257.89252344027398
20
104.49388545035816
30
1.2709530749430409e-45
40
1.4999999999999283
210
-2.4652437558737468e-32
220
4.0749339470606883e-31
230
1
100
AcDbArc
50
90.000067013217119
51
180
0
LINE
5
293
100
AcDbEntity
8
0
100
AcDbLine
10
-259.39252344027398
20
98.019810026949756
30
0
11
-259.39252344027398
21
104.49388545035809
31
-3.6977854932235213e-32
0
ARC
5
294
100
AcDbEntity
8
0
100
AcDbCircle
10
-262.49252344027332
20
98.019812085707628
30
-2.3280049141181882e-46
40
3.1000000000000316
210
-2.4651919659860377e-32
220
-2.4651886916441705e-32
230
1
100
AcDbArc
50
180.0000380480468
51
359.9999619519532
0
LINE
5
295
100
AcDbEntity
8
0
100
AcDbLine
10
-265.59252344027266
20
98.194218226718618
30
0
11
-265.59252344027266
21
98.019810026949756
31
-7.6421001697817224e-32
0
ARC
5
296
100
AcDbEntity
8
0
100
AcDbCircle
10
-266.89252344027261
20
98.194218226718647
30
2.8600720609754567e-45
40
1.2999999999999545
210
1.0623111267537559e-45
220
-4.1632051719264881e-32
230
1
100
AcDbArc
50
0
51
57.607528639431735
0
ARC
5
297
100
AcDbEntity
8
0
100
AcDbCircle
10
-265.39251907134042
20
100.55853353842814
30
-4.6801179179598383e-45
40
1.4999999999999503
210
-2.6412830453376997e-32
220
-4.1632051719265686e-32
230
1
100
AcDbArc
50
180
51
237.60752863943401
0
LINE
5
298
100
AcDbEntity
8
0
100
AcDbLine
10
-266.89251907134042
20
100.55853353842814
30
-3.9619245680068856e-32
11
-266.89251907134042
21
104.49387316954966
31
2.61430675822923e-23
0
ARC
5
299
100
AcDbEntity
8
0
100
AcDbCircle
10
-268.39251907134036
20
104.49387316954962
30
-3.4895616054963706e-45
40
1.4999999999999503
210
-1.7428711721528779e-23
220
-2.4652344915909923e-32
230
1
100
AcDbArc
50
0
51
90.000067013217119
0
LINE
5
300
100
AcDbEntity
8
0
100
AcDbLine
10
-268.39252082574228
20
105.99387316954861
30
3.697785493223373e-32
11
-285.82418853007414
21
105.9938527814476
31
-4.2972499963236332e-31
0
ARC
5
301
100
AcDbEntity
8
0
100
AcDbCircle
10
-285.82418385166898
20
101.99385278145029
30
-1.628462082564973e-45
40
4.0000000000000577
210
-2.4652027044120291e-32
220
1.0743122107512002e-31
230
1
100
AcDbArc
50
90.000067013217659
51
179.99996214401926
0
CIRCLE
5
302
100
AcDbEntity
8
0
100
AcDbCircle
10
-283.46945575579008
20
98.494943611044192
30
0
40
3.0000041169680003
210
-2.4651903288156619e-32
220
-2.4651903288156619e-32
230
1
0
LINE
5
303
100
AcDbEntity
8
0
100
AcDbLine
10
-289.82419549892978
20
84.369145916838079
30
0
11
-289.82418385166818
21
101.99385542484399
31
-9.8607425073531855e-32
0
ARC
5
304
100
AcDbEntity
8
0
100
AcDbCircle
10
-288.32419549893012
20
84.369144925565408
30
-5.9527815623173381e-46
40
1.499999999999958
210
-1.6291182265110628e-38
220
-2.4651919579317458e-32
230
1
100
AcDbArc
50
179.99996214401926
51
270
0
LINE
5
305
100
AcDbEntity
8
0
100
AcDbLine
10
-288.32419549893012
20
82.86914492556545
30
-3.6977854932233177e-32
11
-286.07419826913582
21
82.869144925565351
31
1.583268479098544e-29
0
ARC
5
306
100
AcDbEntity
8
0
100
AcDbCircle
10
-286.07419826913582
20
80.619144925565337
30
2.1895288505075267e-46
40
2.2500000000000497
210
-2.4651903288157133e-32
220
-2.4651903288157298e-32
230
1
100
AcDbArc
50
-89.999999999998579
51
90
0
LINE
5
307
100
AcDbEntity
8
0
100
AcDbLine
10
-288.32420045529329
20
78.369144925565422
30
0
11
-286.07419826913576
21
78.369144925565294
31
-5.5466782398353181e-32
0
ARC
5
308
100
AcDbEntity
8
0
100
AcDbCircle
10
-288.32420045529329
20
76.869144925565436
30
-2.7026996748452282e-46
40
1.4999999999999769
210
-2.4651896066060319e-32
220
-1.80179978323018e-46
230
1
100
AcDbArc
50
90
51
179.99996214401926
0
LINE
5
309
100
AcDbEntity
8
0
100
AcDbLine
10
-289.82422523535178
20
39.371804916884685
30
0
11
-289.82420045529301
21
76.869145916632689
31
-3.6977819667404568e-32
0
ARC
5
310
100
AcDbEntity
8
0
100
AcDbCircle
10
-288.32422523535212
20
39.371803925565395
30
-1.3410864209358601e-45
40
1.4999999999999936
210
-1.6291948104015178e-38
220
-2.4651919580083612e-32
230
1
100
AcDbArc
50
179.99996214401926
51
270
0
LINE
5
311
100
AcDbEntity
8
0
100
AcDbLine
10
-286.07421692166042
20
37.871803925565438
30
0
11
-288.32422523535212
21
37.871803925565402
31
-3.6977854932235421e-32
0
ARC
5
312
100
AcDbEntity
8
0
100
AcDbCircle
10
-286.07421692166048
20
35.621803925565438
30
4.3790577010150533e-46
40
2.250000000000032
210
-2.4651903288155924e-32
220
1.9613428043450294e-46
230
1
100
AcDbArc
50
-90
51
89.99999999999855
0
LINE
5
313
100
AcDbEntity
8
0
100
AcDbLine
10
-288.32423019171534
20
33.371803925565452
30
0
11
-286.07421692166048
21
33.371803925565409
31
3.3963608761571776e-48
0
ARC
5
314
100
AcDbEntity
8
0
100
AcDbCircle
10
-288.32423019171534
20
31.871803925565438
30
-7.6975623650655235e-47
40
1.5000000000000124
210
-2.4651935872026688e-32
220
-5.1317082433769738e-47
230
1
100
AcDbArc
50
90
51
179.99996214401926
0
LINE
5
315
100
AcDbEntity
8
0
100
AcDbLine
10
-289.82424940760421
20
2.7942003543070437
30
0
11
-289.824230191715
21
31.871804916884692
31
-3.697785493223576e-32
0
ARC
5
316
100
AcDbEntity
8
0
100
AcDbCircle
10
-285.82424940760507
20
2.7941977109133598
30
1.2452945337261558e-45
40
4.0000000000000426
210
-1.6291201493839345e-38
220
-2.4651948412331226e-32
230
1
100
AcDbArc
50
179.99996214401926
51
270.00006701337071
0
CIRCLE
5
317
100
AcDbEntity
8
0
100
AcDbCircle
10
-283.96947725694611
20
5.7949440675169797
30
0
40
2.5000000149011825
210
-2.4651903288156619e-32
220
-2.4651903288156619e-32
230
1
0
LINE
5
318
100
AcDbEntity
8
0
100
AcDbLine
10
-285.82424472918922
20
-1.2058022890839104
30
-9.8607613152625972e-32
11
-254.79894071691891
21
-1.2057660017654046
31
7.6483398876930038e-31
0
ARC
5
319
100
AcDbEntity
8
0
100
AcDbCircle
10
-254.79894247132478
20
0.29423399823351287
30
1.4334571693166464e-45
40
1.4999999999999436
210
-2.4652528489633815e-32
220
5.0988929701287353e-31
230
1
100
AcDbArc
50
-89.999932986631961
51
0
0
LINE
5
320
100
AcDbEntity
8
0
100
AcDbLine
10
-253.29894247132484
20
0.29423399823357249
30
3.6977854932235257e-32
11
-253.29894247132486
21
4.0394669388233986
31
1.2325951644078309e-31
0
ARC
5
321
100
AcDbEntity
8
0
100
AcDbCircle
10
-251.79894247132484
20
4.0394669388233915
30
0
40
1.500000000000012
210
-4.1632035097325816e-32
220
-2.6412856652954827e-32
230
1
100
AcDbArc
50
122.39250741753301
51
180
0
ARC
5
322
100
AcDbEntity
8
0
100
AcDbCircle
10
-253.29894832815063
20
6.4037813065605897
30
-2.8566509221465387e-46
40
1.3000000000000331
210
-2.0277997423827512e-32
220
-1.2865089057319968e-32
230
1
100
AcDbArc
50
302.39250741753347
51
359.99994937475026
0
ARC
5
323
100
AcDbEntity
8
0
100
AcDbCircle
10
-248.8989461419574
20
6.4037774186352605
30
0
40
3.1000021861949092
210
-1.9121839406865767e-32
220
-2.4651956233590783e-32
230
1
100
AcDbArc
50
0.00015864116052303402
51
179.9999493819501
0
ARC
5
324
100
AcDbEntity
8
0
100
AcDbCircle
10
-244.49894233109967
20
6.4037843773690923
30
0
40
1.3000016246757289
210
4.5598339560808208e-32
220
-2.4651960274757359e-32
230
1
100
AcDbArc
50
179.99992839490469
51
237.6076311136886
0
ARC
5
325
100
AcDbEntity
8
0
100
AcDbCircle
10
-245.99894247142046
20
4.0394663828857711
30
0
40
1.5000000000000213
210
-2.67062285621698e-32
220
-7.3955709864469846e-32
230
1
100
AcDbArc
50
0
51
57.607631113688385
0
LINE
5
326
100
AcDbEntity
8
0
100
AcDbLine
10
-244.49894247142043
20
0.29424779956033303
30
0
11
-244.49894247142043
21
4.0394663828857702
31
4.0059342843255228e-32
0
ARC
5
327
100
AcDbEntity
8
0
100
AcDbCircle
10
-242.99894247142043
20
0.29424779956038594
30
3.5237729937855507e-45
40
1.5000000000000213
210
-1.479641526486946e-45
220
-2.4651932121213472e-32
230
1
100
AcDbArc
50
180
51
270.00006701336912
0
LINE
5
328
100
AcDbEntity
8
0
100
AcDbLine
10
-242.99894071701453
20
-1.2057522004386447
30
-3.6977854932235114e-32
11
-233.09723137178236
21
-1.2057406193601556
31
2.4409657412339162e-31
0
ARC
5
329
100
AcDbEntity
8
0
100
AcDbCircle
10
-233.09723312618829
20
0.29425938063883855
30
-8.4844242957166659e-46
40
1.5000000000000204
210
-3.3675305946086632e-32
220
1.6273101002893297e-31
230
1
100
AcDbArc
50
270.0000670133702
51
330.00013386424177
0
LINE
5
330
100
AcDbEntity
8
0
100
AcDbLine
10
-229.20018943151825
20
4.0441613388409916
30
0
11
-231.79819326823633
21
-0.45573758432316558
31
3.6977854932235191e-32
0
ARC
5
331
100
AcDbEntity
8
0
100
AcDbCircle
10
-227.90114957356627
20
3.2941643738789543
30
2.7369110631344083e-46
40
1.5000000000000262
210
-2.4651803528872901e-32
220
-4.2698406594254846e-32
230
1
100
AcDbArc
50
90.00000016218651
51
150.00013386424121
0
LINE
5
332
100
AcDbEntity
8
0
100
AcDbLine
10
-196.34919458878534
20
4.794164463196517
30
0
11
-227.9011495778123
21
4.7941643738789805
31
6.4047609786711476e-32
0
ARC
5
333
100
AcDbEntity
8
0
100
AcDbCircle
10
-196.3491945930316
20
6.2941644631965339
30
-7.5008468824027379e-46
40
1.5000000000000173
210
-2.4651903427727506e-32
220
-6.9784747736377288e-41
230
1
100
AcDbArc
50
270.00000016219519
51
360
0
LINE
5
334
100
AcDbEntity
8
0
100
AcDbLine
10
-194.84919459303157
20
6.2941644631965161
30
3.6977854932234332e-32
11
-194.84919459303157
21
6.4037012369851389
31
7.7037197775489434e-33
0
ARC
5
335
100
AcDbEntity
8
0
100
AcDbCircle
10
-191.74918927654946
20
6.4037044422098086
30
0
40
3.1000053164837609
210
-3.6977876463359178e-32
220
-2.465194152113708e-32
230
1
100
AcDbArc
50
5.9237372658725725e-05
51
180.00005923737268
0
LINE
5
336
100
AcDbEntity
8
0
100
AcDbLine
10
-188.64918396006738
20
6.2941644892399218
30
0
11
-188.64918396006738
21
6.4037076474344783
31
7.7037197775489434e-33
0
ARC
5
337
100
AcDbEntity
8
0
100
AcDbCircle
10
-187.14918396006738
20
6.2941644892398969
30
-1.4847742517504165e-45
40
1.4999999999999858
210
5.8843587743758104e-46
220
-2.4651903357941266e-32
230
1
100
AcDbArc
50
180
51
270.00000016219303
0
LINE
5
338
100
AcDbEntity
8
0
100
AcDbLine
10
-187.14918395582117
20
4.7941644892399111
30
-3.6977854932235443e-32
11
-101.09870587087586
21
4.7941647328318329
31
-5.4088266922548113e-23
0
ARC
5
339
100
AcDbEntity
8
0
100
AcDbCircle
10
-101.09870587512206
20
6.2941647328321597
30
3.0790249460262094e-47
40
1.500000000000326
210
7.7423310057454733e-32
220
-3.6058844615024239e-23
230
1
100
AcDbArc
50
-89.999999837806982
51
0.00030393502410798869
0
LINE
5
340
100
AcDbEntity
8
0
100
AcDbLine
10
-99.598705875143168
20
6.2941726898517008
30
3.6978419169523181e-32
11
-99.598706456106626
21
6.4036917383081153
31
3.8518598887744717e-33
0
ARC
5
341
100
AcDbEntity
8
0
100
AcDbCircle
10
-96.498706456107783
20
6.4036944184145934
30
0
40
3.0999999999999925
210
-2.4651934098832002e-32
220
-2.4651872477442793e-32
230
1
100
AcDbArc
50
-7.1610185040040962e-05
51
180.0000495335895
0
LINE
5
342
100
AcDbEntity
8
0
100
AcDbLine
10
-93.398706456110219
20
6.4036905439408027
30
7.6420900193285532e-32
11
-93.398706592419614
21
6.2941666257200719
31
-7.7037197775489434e-33
0
ARC
5
343
100
AcDbEntity
8
0
100
AcDbCircle
10
-91.898706592420808
20
6.2941647588755263
30
-2.8463875056597847e-45
40
1.4999999999999751
210
-5.1358745467600336e-33
220
-4.9303830935025074e-32
230
1
100
AcDbArc
50
179.99992869073154
51
270.00000016219411
0
LINE
5
344
100
AcDbEntity
8
0
100
AcDbLine
10
-60.346623979257572
20
4.7941648481934083
30
0
11
-91.898706588174576
21
4.794164758875552
31
-7.3955709864470251e-32
0
ARC
5
345
100
AcDbEntity
8
0
100
AcDbCircle
10
-60.346623975011362
20
3.2941648481934314
30
2.2032134058231987e-45
40
1.4999999999999771
210
-2.4651903240422566e-32
220
-4.9303806646097442e-32
230
1
100
AcDbArc
50
30.000000162190624
51
90.000000162193302
0
LINE
5
346
100
AcDbEntity
8
0
100
AcDbLine
10
-56.449488080445661
20
-0.45587249577568889
30
0
11
-59.047585871457791
21
4.0441648518706872
31
6.900161680030257e-32
0
ARC
5
347
100
AcDbEntity
8
0
100
AcDbCircle
10
-55.150449976892133
20
0.29412750790165576
30
9.9213026038622302e-46
40
1.4999999999999831
210
4.5116193403653054e-33
220
-7.8143538708379466e-33
230
1
100
AcDbArc
50
210.00000016219437
51
270.00006701337048
0
LINE
5
348
100
AcDbEntity
8
0
100
AcDbLine
10
-55.150448222486197
20
-1.2058724920973016
30
-3.6977854932234332e-32
11
-45.252642176799455
21
-1.2058609155841284
31
2.4400018358662419e-31
0
ARC
5
349
100
AcDbEntity
8
0
100
AcDbCircle
10
-45.252643931205405
20
0.29413908441485548
30
-1.0605530369645832e-46
40
1.50000000000001
210
-2.4652122376808995e-32
220
1.6266676022463955e-31
230
1
100
AcDbArc
50
270.00006701337099
51
360
0
LINE
5
350
100
AcDbEntity
8
0
100
AcDbLine
10
-43.752643931205398
20
0.29413908441484904
30
3.6977854932234874e-32
11
-43.752643931205384
21
4.0393000579609097
31
1.2325951644078309e-31
0
ARC
5
351
100
AcDbEntity
8
0
100
AcDbCircle
10
-42.252643931205363
20
4.0393000579609044
30
0
40
1.5000000000000124
210
-2.8425620088870586e-32
220
-4.722886618590726e-32
230
1
100
AcDbArc
50
122.39249126075259
51
180
0
ARC
5
352
100
AcDbEntity
8
0
100
AcDbCircle
10
-39.35264645615235
20
6.4036229956740343
30
0
40
3.1000026651755883
210
-2.465188707906188e-32
220
-2.4651872477497583e-32
230
1
100
AcDbArc
50
-7.1610185040040962e-05
51
180.00010608803203
0
ARC
5
353
100
AcDbEntity
8
0
100
AcDbCircle
10
-43.752649121320381
20
6.4036148486831586
30
3.6948299352314513e-46
40
1.2999999999999887
210
-5.2417166849715154e-32
220
4.308175466210752e-34
230
1
100
AcDbArc
50
-57.607508739247777
51
0.00010608803202380648
0
ARC
5
354
100
AcDbEntity
8
0
100
AcDbCircle
10
-34.952643790980176
20
6.4036174965066062
30
0
40
1.3000000000000194
210
5.8785215447503656e-32
220
-2.4651976755668379e-32
230
1
100
AcDbArc
50
179.99992839490469
51
237.60763111368814
0
ARC
5
355
100
AcDbEntity
8
0
100
AcDbCircle
10
-36.452643931300983
20
4.0392995020232831
30
0
40
1.5000000000000213
210
-2.67062285621698e-32
220
-7.3955709864469846e-32
230
1
100
AcDbArc
50
0
51
57.607631113688356
0
LINE
5
356
100
AcDbEntity
8
0
100
AcDbLine
10
-34.952643931300962
20
0.29415288574160742
30
0
11
-34.952643931300962
21
4.0392995020232831
31
4.0059342843255228e-32
0
ARC
5
357
100
AcDbEntity
8
0
100
AcDbCircle
10
-33.452643931300969
20
0.29415288574160492
30
-1.5053010847239246e-46
40
1.4999999999999947
210
5.986988215636849e-47
220
-2.4651932121158613e-32
230
1
100
AcDbArc
50
180
51
270.00006701337099
0
LINE
5
358
100
AcDbEntity
8
0
100
AcDbLine
10
-33.452642176895019
20
-1.2058471142573681
30
-3.6977854932234994e-32
11
-2.4240682167715111
21
-1.2058108231143059
31
7.649139223851563e-31
0
CIRCLE
5
359
100
AcDbEntity
8
0
100
AcDbCircle
10
-4.7739236408026571
20
6.2948786078488208
30
0
40
3.0000041169680114
210
-2.4651903288156619e-32
220
-2.4651903288156619e-32
230
1
0
ENDSEC
0
SECTION
2
OBJECTS
0
DICTIONARY
5
C
100
AcDbDictionary
3
ACAD_GROUP
350
D
3
ACAD_MLINESTYLE
350
17
0
DICTIONARY
5
D
100
AcDbDictionary
0
DICTIONARY
5
1A
330
C
100
AcDbDictionary
0
DICTIONARY
5
17
100
AcDbDictionary
0
ENDSEC
0
EOF
