M48
; DRILL file {KiCad (7.0.0-0)} date Saturday, June 03, 2023 at 11:25:34 PM
; FORMAT={-:-/ absolute / inch / decimal}
; #@! TF.CreationDate,2023-06-03T23:25:34-07:00
; #@! TF.GenerationSoftware,Kicad,Pcbnew,(7.0.0-0)
; #@! TF.FileFunction,NonPlated,1,2,NPTH
FMAT,2
INCH
; #@! TA.AperFunction,NonPlated,NPTH,ComponentDrill
T1C0.0689
; #@! TA.AperFunction,NonPlated,NPTH,ComponentDrill
T2C0.1200
; #@! TA.AperFunction,NonPlated,NPTH,ComponentDrill
T3C0.1570
%
G90
G05
T1
X1.425Y-1.625
X1.5188Y-3.125
X1.6125Y-2.375
X1.6125Y-4.625
X1.825Y-1.625
X1.8938Y-3.875
X1.9187Y-3.125
X2.0125Y-2.375
X2.0125Y-4.625
X2.175Y-1.625
X2.2937Y-3.875
X2.55Y-2.375
X2.575Y-1.625
X2.7375Y-3.125
X2.925Y-1.625
X2.95Y-2.375
X3.1125Y-3.875
X3.1375Y-3.125
X3.3Y-2.375
X3.325Y-1.625
X3.4875Y-3.125
X3.4875Y-4.625
X3.5125Y-3.875
X3.675Y-1.625
X3.7Y-2.375
X3.8625Y-3.875
X3.8875Y-3.125
X3.8875Y-4.625
X4.05Y-2.375
X4.075Y-1.625
X4.2375Y-3.125
X4.2625Y-3.875
X4.425Y-1.625
X4.45Y-2.375
X4.6125Y-3.875
X4.6375Y-3.125
X4.8Y-2.375
X4.825Y-1.625
X4.9875Y-3.125
X5.0125Y-3.875
X5.175Y-1.625
X5.2Y-2.375
X5.3625Y-3.875
X5.3875Y-3.125
X5.55Y-2.375
X5.575Y-1.625
X5.7375Y-3.125
X5.7625Y-3.875
X5.925Y-1.625
X5.95Y-2.375
X6.1125Y-3.875
X6.1375Y-3.125
X6.3Y-2.375
X6.325Y-1.625
X6.4875Y-3.125
X6.5125Y-3.875
X6.675Y-1.625
X6.675Y-4.625
X6.7Y-2.375
X6.8625Y-3.875
X6.8875Y-3.125
X7.05Y-2.375
X7.075Y-1.625
X7.075Y-4.625
X7.2375Y-3.125
X7.2625Y-3.875
X7.425Y-1.625
X7.45Y-2.375
X7.6125Y-3.875
X7.6375Y-3.125
X7.8Y-2.375
X7.825Y-1.625
X7.9875Y-3.125
X8.0125Y-3.875
X8.175Y-1.625
X8.2Y-2.375
X8.3625Y-3.875
X8.3875Y-3.125
X8.55Y-2.375
X8.575Y-1.625
X8.7375Y-3.125
X8.7625Y-3.875
X8.925Y-1.625
X8.95Y-2.375
X9.1125Y-3.875
X9.1375Y-3.125
X9.3Y-2.375
X9.325Y-1.625
X9.4875Y-3.125
X9.5125Y-3.875
X9.675Y-1.625
X9.7Y-2.375
X9.8625Y-3.875
X9.8625Y-4.625
X9.8875Y-3.125
X10.05Y-2.375
X10.075Y-1.625
X10.2375Y-3.125
X10.2625Y-3.875
X10.2625Y-4.625
X10.425Y-1.625
X10.45Y-2.375
X10.6375Y-3.125
X10.8Y-2.375
X10.825Y-1.625
X10.8937Y-3.875
X11.175Y-1.625
X11.2Y-2.375
X11.2937Y-3.875
X11.4562Y-3.125
X11.55Y-1.625
X11.575Y-1.625
X11.7375Y-2.375
X11.7375Y-4.625
X11.8562Y-3.125
X11.925Y-1.625
X11.925Y-3.875
X11.95Y-1.625
X12.1375Y-2.375
X12.1375Y-4.625
X12.325Y-1.625
X12.325Y-3.875
T2
X1.625Y-3.6
X2.5625Y-3.6
X11.1875Y-2.85
X11.2812Y-1.35
X12.125Y-2.85
X12.2188Y-1.35
T3
X1.625Y-1.625
X1.625Y-4.2
X1.7188Y-3.125
X1.8125Y-2.375
X1.8125Y-4.625
X2.0938Y-3.875
X2.375Y-1.625
X2.5625Y-4.2
X2.75Y-2.375
X2.9375Y-3.125
X3.125Y-1.625
X3.3125Y-3.875
X3.5Y-2.375
X3.6875Y-3.125
X3.6875Y-4.625
X3.875Y-1.625
X4.0625Y-3.875
X4.25Y-2.375
X4.4375Y-3.125
X4.625Y-1.625
X4.625Y-4.3
X4.8125Y-3.875
X5.0Y-2.375
X5.1875Y-3.125
X5.375Y-1.625
X5.5625Y-3.875
X5.75Y-2.375
X5.9375Y-3.125
X6.125Y-1.625
X6.3125Y-3.875
X6.5Y-2.375
X6.6875Y-3.125
X6.875Y-1.625
X6.875Y-4.625
X7.0625Y-3.875
X7.25Y-2.375
X7.4375Y-3.125
X7.625Y-1.625
X7.8125Y-3.875
X8.0Y-2.375
X8.1875Y-3.125
X8.375Y-1.625
X8.5625Y-3.875
X8.75Y-2.375
X8.9375Y-3.125
X9.125Y-1.625
X9.125Y-4.3
X9.3125Y-3.875
X9.5Y-2.375
X9.6875Y-3.125
X9.875Y-1.625
X10.0625Y-3.875
X10.0625Y-4.625
X10.25Y-2.375
X10.4375Y-3.125
X10.625Y-1.625
X11.0Y-2.375
X11.0938Y-3.875
X11.1875Y-3.45
X11.2812Y-1.95
X11.375Y-1.625
X11.6562Y-3.125
X11.75Y-1.625
X11.9375Y-2.375
X11.9375Y-4.625
X12.125Y-1.625
X12.125Y-3.45
X12.125Y-3.875
X12.2188Y-1.95
T0
M30
