%TF.GenerationSoftware,KiCad,Pcbnew,(7.0.0-0)*%
%TF.CreationDate,2023-06-03T23:25:33-07:00*%
%TF.ProjectId,popstar_plateless,706f7073-7461-4725-9f70-6c6174656c65,rev?*%
%TF.SameCoordinates,Original*%
%TF.FileFunction,Profile,NP*%
%FSLAX46Y46*%
G04 Gerber Fmt 4.6, Leading zero omitted, Abs format (unit mm)*
G04 Created by KiCad (PCBNEW (7.0.0-0)) date 2023-06-03 23:25:33*
%MOMM*%
%LPD*%
G01*
G04 APERTURE LIST*
%TA.AperFunction,Profile*%
%ADD10C,0.200000*%
%TD*%
%TA.AperFunction,Profile*%
%ADD11C,0.100000*%
%TD*%
G04 APERTURE END LIST*
D10*
X28924798Y-128974999D02*
G75*
G03*
X32924812Y-132975002I4000002J-1D01*
G01*
X318825000Y-105349963D02*
X316574998Y-105349963D01*
X123403919Y-126974917D02*
G75*
G03*
X124903917Y-125474897I-19J1500017D01*
G01*
X90847411Y-126974930D02*
G75*
G03*
X89548374Y-127724939I-11J-1499970D01*
G01*
X274999742Y-27275065D02*
X274999742Y-31020284D01*
X285299740Y-25775042D02*
G75*
G03*
X283799742Y-27275052I60J-1500058D01*
G01*
X66753451Y-33384437D02*
G75*
G03*
X72953449Y-33384435I3099999J-3D01*
G01*
X52552527Y-126272722D02*
G75*
G03*
X53156102Y-125175004I-696427J1097722D01*
G01*
X218145540Y-125474791D02*
X218145539Y-125000581D01*
X224345519Y-125474780D02*
G75*
G03*
X225845541Y-126974781I1499981J-20D01*
G01*
X283799742Y-27275052D02*
X283799742Y-31020285D01*
X225349994Y-33274982D02*
X225349994Y-33384519D01*
X53156102Y-125000470D02*
X53156102Y-125175004D01*
X63953442Y-25774971D02*
X32924868Y-25775007D01*
X320325085Y-29775018D02*
G75*
G03*
X316325044Y-25775015I-4000085J-82D01*
G01*
X123899518Y-33274984D02*
G75*
G03*
X122399506Y-31774982I-1500018J-16D01*
G01*
X259701350Y-127724734D02*
G75*
G03*
X258402301Y-126974743I-1298950J-749866D01*
G01*
X276299652Y-33384604D02*
G75*
G03*
X282499748Y-33384598I3100048J4D01*
G01*
X123899506Y-33384508D02*
X123899506Y-33274984D01*
X32674821Y-105349957D02*
X30424824Y-105349957D01*
X28924927Y-58824273D02*
G75*
G03*
X30424853Y-60324273I1499973J-27D01*
G01*
X296093323Y-125000628D02*
G75*
G03*
X289893323Y-125000628I-3100000J-2D01*
G01*
X318824995Y-109849963D02*
X316574998Y-109849963D01*
X273499740Y-25775065D02*
X263598031Y-25775077D01*
X73557015Y-32286711D02*
G75*
G03*
X72953449Y-33384435I696385J-1097689D01*
G01*
X258402301Y-126974743D02*
X225845541Y-126974781D01*
X320325025Y-66352623D02*
X320325000Y-103849964D01*
X30424819Y-109849959D02*
G75*
G03*
X28924819Y-111349956I1J-1500001D01*
G01*
X86950231Y-26524978D02*
G75*
G03*
X85651248Y-25774945I-1299031J-749922D01*
G01*
X219150018Y-33274982D02*
G75*
G03*
X217649984Y-31774982I-1499918J82D01*
G01*
X316575017Y-60352578D02*
G75*
G03*
X316575017Y-64852622I-17J-2250022D01*
G01*
X320324995Y-111349964D02*
X320324983Y-128974673D01*
X316970259Y-125475761D02*
G75*
G03*
X316970259Y-125475761I-3000004J0D01*
G01*
X263598031Y-25775117D02*
G75*
G03*
X262298993Y-26525080I-31J-1499983D01*
G01*
X320325049Y-29775018D02*
X320325030Y-58852623D01*
X263598465Y-132974732D02*
X288393325Y-132974703D01*
X219149984Y-33274982D02*
X219149984Y-33384525D01*
X51856098Y-131474982D02*
X51856098Y-127539325D01*
X318825030Y-60352630D02*
G75*
G03*
X320325030Y-58852623I-130J1500130D01*
G01*
X131103916Y-125474893D02*
X131103915Y-125000682D01*
X318825000Y-105350000D02*
G75*
G03*
X320325000Y-103849964I0J1500000D01*
G01*
X30424848Y-64824248D02*
G75*
G03*
X28924848Y-66324272I52J-1500052D01*
G01*
X298893320Y-132974691D02*
X316324988Y-132974670D01*
X86950288Y-26524945D02*
X89548385Y-31024983D01*
X38274727Y-33275696D02*
G75*
G03*
X38274727Y-33275696I-3000004J0D01*
G01*
X276299759Y-33384604D02*
G75*
G03*
X275696171Y-32286883I-1300159J-96D01*
G01*
X283103329Y-32286901D02*
G75*
G03*
X282499748Y-33384598I696371J-1097699D01*
G01*
X318825030Y-60352622D02*
X316575017Y-60352622D01*
X89548375Y-31024989D02*
G75*
G03*
X90847424Y-31774983I1299025J749989D01*
G01*
X32674851Y-64824267D02*
G75*
G03*
X32674851Y-60324273I-1J2249997D01*
G01*
X258401949Y-31774946D02*
G75*
G03*
X259700988Y-31024979I51J1499946D01*
G01*
X30424819Y-109849957D02*
X32674821Y-109849957D01*
X65453409Y-31020117D02*
G75*
G03*
X66149872Y-32286716I1499991J17D01*
G01*
X216645541Y-126974792D02*
X132603918Y-126974890D01*
X30424848Y-64824273D02*
X32674851Y-64824273D01*
X320325078Y-66352623D02*
G75*
G03*
X318825025Y-64852622I-1500078J-77D01*
G01*
X59356102Y-125000470D02*
G75*
G03*
X53156102Y-125000470I-3100000J-2D01*
G01*
X123899494Y-33384508D02*
G75*
G03*
X130099506Y-33384509I3100006J8D01*
G01*
X316575017Y-64852622D02*
X318825025Y-64852622D01*
X130099506Y-33274990D02*
X130099506Y-33384509D01*
X28924824Y-103849956D02*
X28924848Y-66324272D01*
X59356131Y-131474969D02*
G75*
G03*
X60856104Y-132974969I1499969J-31D01*
G01*
X90847424Y-31774983D02*
X122399506Y-31774982D01*
X316574998Y-105350037D02*
G75*
G03*
X316574998Y-109849963I2J-2249963D01*
G01*
X32924868Y-25775013D02*
G75*
G03*
X28924873Y-29775004I2J-3999997D01*
G01*
X131103910Y-125474893D02*
G75*
G03*
X132603918Y-126974890I1499990J-7D01*
G01*
X89548374Y-127724939D02*
X86950298Y-132224940D01*
X74253444Y-27274957D02*
X74253444Y-31020118D01*
X259700989Y-31024979D02*
X262298993Y-26525080D01*
X66753393Y-33384437D02*
G75*
G03*
X66149872Y-32286717I-1299993J37D01*
G01*
X316324988Y-132974583D02*
G75*
G03*
X320324983Y-128974673I12J3999983D01*
G01*
X28924807Y-128974999D02*
X28924819Y-111349956D01*
X131103885Y-125000682D02*
G75*
G03*
X124903915Y-125000701I-3099985J-18D01*
G01*
X296093323Y-125175036D02*
X296093323Y-125000628D01*
X289893323Y-125000628D02*
X289893323Y-131474703D01*
X262299409Y-132224745D02*
G75*
G03*
X263598465Y-132974732I1298991J749945D01*
G01*
X28924853Y-58824273D02*
X28924873Y-29775004D01*
X283103334Y-32286909D02*
G75*
G03*
X283799742Y-31020285I-803634J1266609D01*
G01*
X32924812Y-132975002D02*
X50356100Y-132974982D01*
X224345539Y-125000585D02*
X224345539Y-125474780D01*
X124903915Y-125000701D02*
X124903917Y-125474897D01*
X219150006Y-33384525D02*
G75*
G03*
X225349994Y-33384519I3099994J25D01*
G01*
X38274698Y-125475696D02*
G75*
G03*
X38274698Y-125475696I-2999996J0D01*
G01*
X296093328Y-125175036D02*
G75*
G03*
X296696892Y-126272754I1300072J36D01*
G01*
X226849994Y-31774894D02*
G75*
G03*
X225349994Y-33274982I6J-1500006D01*
G01*
X274999735Y-27275065D02*
G75*
G03*
X273499740Y-25775065I-1500035J-35D01*
G01*
X65453444Y-27274971D02*
X65453444Y-31020117D01*
X226849994Y-31774982D02*
X258401949Y-31774982D01*
X28924843Y-103849956D02*
G75*
G03*
X30424824Y-105349957I1499957J-44D01*
G01*
X274999737Y-31020284D02*
G75*
G03*
X275696171Y-32286882I1499963J-16D01*
G01*
X73557021Y-32286720D02*
G75*
G03*
X74253444Y-31020118I-803621J1266620D01*
G01*
X85651248Y-25774945D02*
X75753442Y-25774957D01*
X131599505Y-31775006D02*
G75*
G03*
X130099506Y-33274990I-5J-1499994D01*
G01*
X297393309Y-131474691D02*
G75*
G03*
X298893320Y-132974691I1499991J-9D01*
G01*
X316970277Y-32775762D02*
G75*
G03*
X316970277Y-32775762I-2500000J0D01*
G01*
X60856104Y-132974969D02*
X85651261Y-132974940D01*
X75753442Y-25775044D02*
G75*
G03*
X74253444Y-27274957I-42J-1499956D01*
G01*
X52552517Y-126272706D02*
G75*
G03*
X51856098Y-127539325I803583J-1266594D01*
G01*
X123403919Y-126974901D02*
X90847411Y-126974939D01*
X32674851Y-60324273D02*
X30424853Y-60324273D01*
X224345461Y-125000585D02*
G75*
G03*
X218145539Y-125000581I-3099961J-15D01*
G01*
X320325037Y-111349964D02*
G75*
G03*
X318824995Y-109849963I-1499937J64D01*
G01*
X297393312Y-127539351D02*
G75*
G03*
X296696892Y-126272755I-1499912J51D01*
G01*
X262299427Y-132224735D02*
X259701339Y-127724740D01*
X50356100Y-132974998D02*
G75*
G03*
X51856098Y-131474982I0J1499998D01*
G01*
X85651261Y-132974885D02*
G75*
G03*
X86950298Y-132224940I39J1499985D01*
G01*
X59356102Y-131474969D02*
X59356102Y-125000470D01*
X65453429Y-27274971D02*
G75*
G03*
X63953442Y-25774971I-1500029J-29D01*
G01*
X32674821Y-109849963D02*
G75*
G03*
X32674821Y-105349957I-1J2250003D01*
G01*
X217649984Y-31774982D02*
X131599505Y-31774982D01*
X288393325Y-132974623D02*
G75*
G03*
X289893323Y-131474703I-25J1500023D01*
G01*
X297393319Y-127539351D02*
X297393319Y-131474691D01*
X216645541Y-126974840D02*
G75*
G03*
X218145540Y-125474791I-41J1500040D01*
G01*
X316325044Y-25775015D02*
X285299740Y-25775052D01*
D11*
%TO.C,D12*%
X281099999Y-111797157D02*
X281099999Y-113202841D01*
X280194452Y-113999999D02*
X278605548Y-113999999D01*
X278605548Y-111000000D02*
X280194453Y-111000000D01*
X277700001Y-113202841D02*
X277700001Y-111797157D01*
X281100000Y-113202841D02*
G75*
G03*
X281149485Y-113419719I499989J-2D01*
G01*
X280446711Y-114068298D02*
G75*
G03*
X281149483Y-113419718I252259J431700D01*
G01*
X281149484Y-111580279D02*
G75*
G03*
X281099999Y-111797156I450505J-216876D01*
G01*
X281149484Y-111580279D02*
G75*
G03*
X280446711Y-110931701I-450514J216878D01*
G01*
X280194453Y-111000000D02*
G75*
G03*
X280446711Y-110931701I-3J500009D01*
G01*
X280446711Y-114068298D02*
G75*
G03*
X280194452Y-113999999I-252261J-431710D01*
G01*
X278353289Y-110931700D02*
G75*
G03*
X278605547Y-110999999I252261J431710D01*
G01*
X278605548Y-114000000D02*
G75*
G03*
X278353290Y-114068298I2J-500010D01*
G01*
X277650520Y-113419721D02*
G75*
G03*
X278353289Y-114068296I450510J-216879D01*
G01*
X277650516Y-113419719D02*
G75*
G03*
X277700001Y-113202842I-450866J216959D01*
G01*
X278353289Y-110931700D02*
G75*
G03*
X277650516Y-111580279I-252259J-431700D01*
G01*
X277699989Y-111797157D02*
G75*
G03*
X277650515Y-111580279I-500289J-43D01*
G01*
%TO.C,D1*%
X71549999Y-111797157D02*
X71549999Y-113202841D01*
X70644452Y-113999999D02*
X69055548Y-113999999D01*
X69055548Y-111000000D02*
X70644453Y-111000000D01*
X68150001Y-113202841D02*
X68150001Y-111797157D01*
X71550000Y-113202841D02*
G75*
G03*
X71599485Y-113419719I499989J-2D01*
G01*
X70896711Y-114068298D02*
G75*
G03*
X71599483Y-113419718I252259J431700D01*
G01*
X71599484Y-111580279D02*
G75*
G03*
X71549999Y-111797156I450505J-216876D01*
G01*
X71599484Y-111580279D02*
G75*
G03*
X70896711Y-110931701I-450514J216878D01*
G01*
X70644453Y-111000000D02*
G75*
G03*
X70896711Y-110931701I-3J500009D01*
G01*
X70896711Y-114068298D02*
G75*
G03*
X70644452Y-113999999I-252261J-431710D01*
G01*
X68803289Y-110931700D02*
G75*
G03*
X69055547Y-110999999I252261J431710D01*
G01*
X69055548Y-114000000D02*
G75*
G03*
X68803290Y-114068298I2J-500010D01*
G01*
X68100520Y-113419721D02*
G75*
G03*
X68803289Y-114068296I450510J-216879D01*
G01*
X68100516Y-113419719D02*
G75*
G03*
X68150001Y-113202842I-450866J216959D01*
G01*
X68803289Y-110931700D02*
G75*
G03*
X68100516Y-111580279I-252259J-431700D01*
G01*
X68149989Y-111797157D02*
G75*
G03*
X68100515Y-111580279I-500289J-43D01*
G01*
%TO.C,D2*%
X65449999Y-115897157D02*
X65449999Y-117302841D01*
X64544452Y-118099999D02*
X62955548Y-118099999D01*
X62955548Y-115100000D02*
X64544453Y-115100000D01*
X62050001Y-117302841D02*
X62050001Y-115897157D01*
X65450000Y-117302841D02*
G75*
G03*
X65499485Y-117519719I499989J-2D01*
G01*
X64796711Y-118168298D02*
G75*
G03*
X65499483Y-117519718I252259J431700D01*
G01*
X65499484Y-115680279D02*
G75*
G03*
X65449999Y-115897156I450505J-216876D01*
G01*
X65499484Y-115680279D02*
G75*
G03*
X64796711Y-115031701I-450514J216878D01*
G01*
X64544453Y-115100000D02*
G75*
G03*
X64796711Y-115031701I-3J500009D01*
G01*
X64796711Y-118168298D02*
G75*
G03*
X64544452Y-118099999I-252261J-431710D01*
G01*
X62703289Y-115031700D02*
G75*
G03*
X62955547Y-115099999I252261J431710D01*
G01*
X62955548Y-118100000D02*
G75*
G03*
X62703290Y-118168298I2J-500010D01*
G01*
X62000520Y-117519721D02*
G75*
G03*
X62703289Y-118168296I450510J-216879D01*
G01*
X62000516Y-117519719D02*
G75*
G03*
X62050001Y-117302842I-450866J216959D01*
G01*
X62703289Y-115031700D02*
G75*
G03*
X62000516Y-115680279I-252259J-431700D01*
G01*
X62049989Y-115897157D02*
G75*
G03*
X62000515Y-115680279I-500289J-43D01*
G01*
%TO.C,D4*%
X74702843Y-124199999D02*
X73297159Y-124199999D01*
X72500001Y-123294452D02*
X72500001Y-121705548D01*
X75500000Y-121705548D02*
X75500000Y-123294453D01*
X73297159Y-120800001D02*
X74702843Y-120800001D01*
X73297159Y-124200000D02*
G75*
G03*
X73080281Y-124249485I-2J-499989D01*
G01*
X72431702Y-123546711D02*
G75*
G03*
X73080282Y-124249483I431700J-252259D01*
G01*
X74919721Y-124249484D02*
G75*
G03*
X74702844Y-124199999I-216876J-450505D01*
G01*
X74919721Y-124249484D02*
G75*
G03*
X75568299Y-123546711I216878J450514D01*
G01*
X75500000Y-123294453D02*
G75*
G03*
X75568299Y-123546711I500009J3D01*
G01*
X72431702Y-123546711D02*
G75*
G03*
X72500001Y-123294452I-431710J252261D01*
G01*
X75568300Y-121453289D02*
G75*
G03*
X75500001Y-121705547I431710J-252261D01*
G01*
X72500000Y-121705548D02*
G75*
G03*
X72431702Y-121453290I-500010J-2D01*
G01*
X73080279Y-120750520D02*
G75*
G03*
X72431704Y-121453289I-216879J-450510D01*
G01*
X73080281Y-120750516D02*
G75*
G03*
X73297158Y-120800001I216959J450866D01*
G01*
X75568300Y-121453289D02*
G75*
G03*
X74919721Y-120750516I-431700J252259D01*
G01*
X74702843Y-120799989D02*
G75*
G03*
X74919721Y-120750515I-43J500289D01*
G01*
%TO.C,D5*%
X74200001Y-117302843D02*
X74200001Y-115897159D01*
X75105548Y-115100001D02*
X76694452Y-115100001D01*
X76694452Y-118100000D02*
X75105547Y-118100000D01*
X77599999Y-115897159D02*
X77599999Y-117302843D01*
X74200000Y-115897159D02*
G75*
G03*
X74150515Y-115680281I-499989J2D01*
G01*
X74853289Y-115031702D02*
G75*
G03*
X74150517Y-115680282I-252259J-431700D01*
G01*
X74150516Y-117519721D02*
G75*
G03*
X74200001Y-117302844I-450505J216876D01*
G01*
X74150516Y-117519721D02*
G75*
G03*
X74853289Y-118168299I450514J-216878D01*
G01*
X75105547Y-118100000D02*
G75*
G03*
X74853289Y-118168299I3J-500009D01*
G01*
X74853289Y-115031702D02*
G75*
G03*
X75105548Y-115100001I252261J431710D01*
G01*
X76946711Y-118168300D02*
G75*
G03*
X76694453Y-118100001I-252261J-431710D01*
G01*
X76694452Y-115100000D02*
G75*
G03*
X76946710Y-115031702I-2J500010D01*
G01*
X77649480Y-115680279D02*
G75*
G03*
X76946711Y-115031704I-450510J216879D01*
G01*
X77649484Y-115680281D02*
G75*
G03*
X77599999Y-115897158I450866J-216959D01*
G01*
X76946711Y-118168300D02*
G75*
G03*
X77649484Y-117519721I252259J431700D01*
G01*
X77600011Y-117302843D02*
G75*
G03*
X77649485Y-117519721I500289J43D01*
G01*
%TO.C,D8*%
X274597157Y-120800001D02*
X276002841Y-120800001D01*
X276799999Y-121705548D02*
X276799999Y-123294452D01*
X273800000Y-123294452D02*
X273800000Y-121705547D01*
X276002841Y-124199999D02*
X274597157Y-124199999D01*
X276002841Y-120800000D02*
G75*
G03*
X276219719Y-120750515I2J499989D01*
G01*
X276868298Y-121453289D02*
G75*
G03*
X276219718Y-120750517I-431700J252259D01*
G01*
X274380279Y-120750516D02*
G75*
G03*
X274597156Y-120800001I216876J450505D01*
G01*
X274380279Y-120750516D02*
G75*
G03*
X273731701Y-121453289I-216878J-450514D01*
G01*
X273800000Y-121705547D02*
G75*
G03*
X273731701Y-121453289I-500009J-3D01*
G01*
X276868298Y-121453289D02*
G75*
G03*
X276799999Y-121705548I431710J-252261D01*
G01*
X273731700Y-123546711D02*
G75*
G03*
X273799999Y-123294453I-431710J252261D01*
G01*
X276800000Y-123294452D02*
G75*
G03*
X276868298Y-123546710I500010J2D01*
G01*
X276219721Y-124249480D02*
G75*
G03*
X276868296Y-123546711I216879J450510D01*
G01*
X276219719Y-124249484D02*
G75*
G03*
X276002842Y-124199999I-216959J-450866D01*
G01*
X273731700Y-123546711D02*
G75*
G03*
X274380279Y-124249484I431700J-252259D01*
G01*
X274597157Y-124200011D02*
G75*
G03*
X274380279Y-124249485I43J-500289D01*
G01*
%TO.C,D7*%
X275099999Y-115897157D02*
X275099999Y-117302841D01*
X274194452Y-118099999D02*
X272605548Y-118099999D01*
X272605548Y-115100000D02*
X274194453Y-115100000D01*
X271700001Y-117302841D02*
X271700001Y-115897157D01*
X275100000Y-117302841D02*
G75*
G03*
X275149485Y-117519719I499989J-2D01*
G01*
X274446711Y-118168298D02*
G75*
G03*
X275149483Y-117519718I252259J431700D01*
G01*
X275149484Y-115680279D02*
G75*
G03*
X275099999Y-115897156I450505J-216876D01*
G01*
X275149484Y-115680279D02*
G75*
G03*
X274446711Y-115031701I-450514J216878D01*
G01*
X274194453Y-115100000D02*
G75*
G03*
X274446711Y-115031701I-3J500009D01*
G01*
X274446711Y-118168298D02*
G75*
G03*
X274194452Y-118099999I-252261J-431710D01*
G01*
X272353289Y-115031700D02*
G75*
G03*
X272605547Y-115099999I252261J431710D01*
G01*
X272605548Y-118100000D02*
G75*
G03*
X272353290Y-118168298I2J-500010D01*
G01*
X271650520Y-117519721D02*
G75*
G03*
X272353289Y-118168296I450510J-216879D01*
G01*
X271650516Y-117519719D02*
G75*
G03*
X271700001Y-117302842I-450866J216959D01*
G01*
X272353289Y-115031700D02*
G75*
G03*
X271650516Y-115680279I-252259J-431700D01*
G01*
X271699989Y-115897157D02*
G75*
G03*
X271650515Y-115680279I-500289J-43D01*
G01*
%TO.C,D11*%
X278697157Y-116700001D02*
X280102841Y-116700001D01*
X280899999Y-117605548D02*
X280899999Y-119194452D01*
X277900000Y-119194452D02*
X277900000Y-117605547D01*
X280102841Y-120099999D02*
X278697157Y-120099999D01*
X280102841Y-116700000D02*
G75*
G03*
X280319719Y-116650515I2J499989D01*
G01*
X280968298Y-117353289D02*
G75*
G03*
X280319718Y-116650517I-431700J252259D01*
G01*
X278480279Y-116650516D02*
G75*
G03*
X278697156Y-116700001I216876J450505D01*
G01*
X278480279Y-116650516D02*
G75*
G03*
X277831701Y-117353289I-216878J-450514D01*
G01*
X277900000Y-117605547D02*
G75*
G03*
X277831701Y-117353289I-500009J-3D01*
G01*
X280968298Y-117353289D02*
G75*
G03*
X280899999Y-117605548I431710J-252261D01*
G01*
X277831700Y-119446711D02*
G75*
G03*
X277899999Y-119194453I-431710J252261D01*
G01*
X280900000Y-119194452D02*
G75*
G03*
X280968298Y-119446710I500010J2D01*
G01*
X280319721Y-120149480D02*
G75*
G03*
X280968296Y-119446711I216879J450510D01*
G01*
X280319719Y-120149484D02*
G75*
G03*
X280102842Y-120099999I-216959J-450866D01*
G01*
X277831700Y-119446711D02*
G75*
G03*
X278480279Y-120149484I431700J-252259D01*
G01*
X278697157Y-120100011D02*
G75*
G03*
X278480279Y-120149485I43J-500289D01*
G01*
%TO.C,D3*%
X65047157Y-120800001D02*
X66452841Y-120800001D01*
X67249999Y-121705548D02*
X67249999Y-123294452D01*
X64250000Y-123294452D02*
X64250000Y-121705547D01*
X66452841Y-124199999D02*
X65047157Y-124199999D01*
X66452841Y-120800000D02*
G75*
G03*
X66669719Y-120750515I2J499989D01*
G01*
X67318298Y-121453289D02*
G75*
G03*
X66669718Y-120750517I-431700J252259D01*
G01*
X64830279Y-120750516D02*
G75*
G03*
X65047156Y-120800001I216876J450505D01*
G01*
X64830279Y-120750516D02*
G75*
G03*
X64181701Y-121453289I-216878J-450514D01*
G01*
X64250000Y-121705547D02*
G75*
G03*
X64181701Y-121453289I-500009J-3D01*
G01*
X67318298Y-121453289D02*
G75*
G03*
X67249999Y-121705548I431710J-252261D01*
G01*
X64181700Y-123546711D02*
G75*
G03*
X64249999Y-123294453I-431710J252261D01*
G01*
X67250000Y-123294452D02*
G75*
G03*
X67318298Y-123546710I500010J2D01*
G01*
X66669721Y-124249480D02*
G75*
G03*
X67318296Y-123546711I216879J450510D01*
G01*
X66669719Y-124249484D02*
G75*
G03*
X66452842Y-124199999I-216959J-450866D01*
G01*
X64181700Y-123546711D02*
G75*
G03*
X64830279Y-124249484I431700J-252259D01*
G01*
X65047157Y-124200011D02*
G75*
G03*
X64830279Y-124249485I43J-500289D01*
G01*
%TO.C,D10*%
X283700001Y-117302843D02*
X283700001Y-115897159D01*
X284605548Y-115100001D02*
X286194452Y-115100001D01*
X286194452Y-118100000D02*
X284605547Y-118100000D01*
X287099999Y-115897159D02*
X287099999Y-117302843D01*
X283700000Y-115897159D02*
G75*
G03*
X283650515Y-115680281I-499989J2D01*
G01*
X284353289Y-115031702D02*
G75*
G03*
X283650517Y-115680282I-252259J-431700D01*
G01*
X283650516Y-117519721D02*
G75*
G03*
X283700001Y-117302844I-450505J216876D01*
G01*
X283650516Y-117519721D02*
G75*
G03*
X284353289Y-118168299I450514J-216878D01*
G01*
X284605547Y-118100000D02*
G75*
G03*
X284353289Y-118168299I3J-500009D01*
G01*
X284353289Y-115031702D02*
G75*
G03*
X284605548Y-115100001I252261J431710D01*
G01*
X286446711Y-118168300D02*
G75*
G03*
X286194453Y-118100001I-252261J-431710D01*
G01*
X286194452Y-115100000D02*
G75*
G03*
X286446710Y-115031702I-2J500010D01*
G01*
X287149480Y-115680279D02*
G75*
G03*
X286446711Y-115031704I-450510J216879D01*
G01*
X287149484Y-115680281D02*
G75*
G03*
X287099999Y-115897158I450866J-216959D01*
G01*
X286446711Y-118168300D02*
G75*
G03*
X287149484Y-117519721I252259J431700D01*
G01*
X287100011Y-117302843D02*
G75*
G03*
X287149485Y-117519721I500289J43D01*
G01*
%TO.C,D6*%
X69172157Y-116800001D02*
X70577841Y-116800001D01*
X71374999Y-117705548D02*
X71374999Y-119294452D01*
X68375000Y-119294452D02*
X68375000Y-117705547D01*
X70577841Y-120199999D02*
X69172157Y-120199999D01*
X70577841Y-116800000D02*
G75*
G03*
X70794719Y-116750515I2J499989D01*
G01*
X71443298Y-117453289D02*
G75*
G03*
X70794718Y-116750517I-431700J252259D01*
G01*
X68955279Y-116750516D02*
G75*
G03*
X69172156Y-116800001I216876J450505D01*
G01*
X68955279Y-116750516D02*
G75*
G03*
X68306701Y-117453289I-216878J-450514D01*
G01*
X68375000Y-117705547D02*
G75*
G03*
X68306701Y-117453289I-500009J-3D01*
G01*
X71443298Y-117453289D02*
G75*
G03*
X71374999Y-117705548I431710J-252261D01*
G01*
X68306700Y-119546711D02*
G75*
G03*
X68374999Y-119294453I-431710J252261D01*
G01*
X71375000Y-119294452D02*
G75*
G03*
X71443298Y-119546710I500010J2D01*
G01*
X70794721Y-120249480D02*
G75*
G03*
X71443296Y-119546711I216879J450510D01*
G01*
X70794719Y-120249484D02*
G75*
G03*
X70577842Y-120199999I-216959J-450866D01*
G01*
X68306700Y-119546711D02*
G75*
G03*
X68955279Y-120249484I431700J-252259D01*
G01*
X69172157Y-120200011D02*
G75*
G03*
X68955279Y-120249485I43J-500289D01*
G01*
%TO.C,D9*%
X284202843Y-124199999D02*
X282797159Y-124199999D01*
X282000001Y-123294452D02*
X282000001Y-121705548D01*
X285000000Y-121705548D02*
X285000000Y-123294453D01*
X282797159Y-120800001D02*
X284202843Y-120800001D01*
X282797159Y-124200000D02*
G75*
G03*
X282580281Y-124249485I-2J-499989D01*
G01*
X281931702Y-123546711D02*
G75*
G03*
X282580282Y-124249483I431700J-252259D01*
G01*
X284419721Y-124249484D02*
G75*
G03*
X284202844Y-124199999I-216876J-450505D01*
G01*
X284419721Y-124249484D02*
G75*
G03*
X285068299Y-123546711I216878J450514D01*
G01*
X285000000Y-123294453D02*
G75*
G03*
X285068299Y-123546711I500009J3D01*
G01*
X281931702Y-123546711D02*
G75*
G03*
X282000001Y-123294452I-431710J252261D01*
G01*
X285068300Y-121453289D02*
G75*
G03*
X285000001Y-121705547I431710J-252261D01*
G01*
X282000000Y-121705548D02*
G75*
G03*
X281931702Y-121453290I-500010J-2D01*
G01*
X282580279Y-120750520D02*
G75*
G03*
X281931704Y-121453289I-216879J-450510D01*
G01*
X282580281Y-120750516D02*
G75*
G03*
X282797158Y-120800001I216959J450866D01*
G01*
X285068300Y-121453289D02*
G75*
G03*
X284419721Y-120750516I-431700J252259D01*
G01*
X284202843Y-120799989D02*
G75*
G03*
X284419721Y-120750515I-43J500289D01*
G01*
%TD*%
M02*
